<?xml version="1.0" encoding="utf-8"?>
<!-- Generator: Adobe Illustrator 24.1.2, SVG Export Plug-In . SVG Version: 6.00 Build 0)  -->
<svg version="1.1" id="Layer_1" xmlns="http://www.w3.org/2000/svg" xmlns:xlink="http://www.w3.org/1999/xlink" x="0px" y="0px"
	 viewBox="0 0 2000 2000" style="enable-background:new 0 0 2000 2000;" xml:space="preserve">
<style type="text/css">
	.st0{display:none;opacity:0.1;}
	.st1{fill:#FD6048;}
	.st2{fill:#212830;stroke:#212830;stroke-width:7;stroke-miterlimit:10;}
</style>
<polygon class="st0" points="-1623.3,800 -1623.3,933.33 -1689.97,933.33 -1689.97,800 -1856.64,800 -1856.64,1200 -1689.97,1200 
	-1689.97,1066.67 -1623.3,1066.67 -1623.3,1200 -1456.64,1200 -1456.64,800 "/>
<g>
	<circle class="st1" cx="397.33" cy="850" r="50"/>
	<path class="st1" d="M163.83,999c2.67,0,5.2-0.63,7.44-1.75l88.77-35.97l0-0.01c31.44-11.92,53.8-42.32,53.8-77.94
		c0-46.02-37.31-83.33-83.33-83.33s-83.33,37.31-83.33,83.33v100h0.03C147.72,992.07,154.96,999,163.83,999z"/>
	<path class="st1" d="M463.83,917.43c-12.14,0-23.67,2.6-34.07,7.26l-0.01-0.02L309.7,973.31l0,0l-120.21,48.7l0,0
		c-24.78,9.72-42.33,33.85-42.33,62.08v15.9v17.43v15.9c0,36.82,29.85,66.67,66.67,66.67h33.33c36.82,0,66.67-29.85,66.67-66.67
		v-15.9V1100c0-18.41,14.92-33.33,33.33-33.33c18.41,0,33.33,14.92,33.33,33.33v17.43v15.9c0,36.82,29.85,66.67,66.67,66.67h33.33
		c36.82,0,66.67-29.85,66.67-66.67v-15.9v-100.76v-15.9C547.17,954.74,509.86,917.43,463.83,917.43z"/>
</g>
<path class="st2" d="M837.96,892v222.04c0,4.97-4.03,9.01-9.01,9.01h-21.38c-4.97,0-9.01-4.03-9.01-9.01v-86.71
	c0-4.97-4.03-9.01-9.01-9.01h-91.79c-4.97,0-9.01,4.03-9.01,9.01v86.71c0,4.97-4.03,9.01-9.01,9.01h-21.38
	c-4.97,0-9.01-4.03-9.01-9.01V892c0-4.97,4.03-9.01,9.01-9.01h21.38c4.97,0,9.01,4.03,9.01,9.01v80.09c0,4.97,4.03,9.01,9.01,9.01
	h91.79c4.97,0,9.01-4.03,9.01-9.01V892c0-4.97,4.03-9.01,9.01-9.01h21.38C833.92,882.99,837.96,887.03,837.96,892z"/>
<path class="st2" d="M1070.15,947.04v167.77c0,4.81-3.9,8.71-8.71,8.71h-14.6c-4.26,0-7.9-3.09-8.59-7.29l0,0
	c-1.06-6.41-8.48-9.4-13.75-5.6c-15.37,11.11-34.51,17.5-55.92,17.5c-55.16,0-96.42-41.69-96.42-97.2
	c0-55.65,41.25-97.01,96.42-97.01c21.84,0,41.32,6.6,56.85,18.07c5.16,3.81,12.53,0.97,13.74-5.34l0.24-1.26
	c0.79-4.1,4.38-7.06,8.55-7.06l13.48,0C1066.25,938.33,1070.15,942.23,1070.15,947.04z M1031.99,1030.93
	c0-34.91-25.51-60.76-60.41-60.76c-34.91,0-60.66,26.09-60.66,60.76c0,34.66,25.75,60.76,60.66,60.76
	C1006.49,1091.68,1031.99,1065.83,1031.99,1030.93z"/>
<path class="st2" d="M1304.79,1031.03c0,55.51-40.17,97.1-96.27,97.1c-20.81,0-39.54-6.11-54.73-16.76
	c-5.22-3.66-12.48-0.91-13.93,5.3v0c-0.95,4.07-4.58,6.95-8.76,6.95h-12.67c-4.96,0-8.99-4.02-8.99-8.99V881.04
	c0-4.97,4.03-8.99,8.99-8.99h20.09c4.97,0,8.99,4.02,8.99,8.99v57.25c0,6.85,7.39,11.24,13.35,7.86
	c13.78-7.84,29.96-12.22,47.65-12.22C1264.62,933.92,1304.79,975.27,1304.79,1031.03z M1265.94,1031.02
	c0-34.91-25.51-60.76-60.41-60.76s-60.66,26.09-60.66,60.76c0,34.32,25.75,60.66,60.66,60.66S1265.94,1065.83,1265.94,1031.02z"/>
<path class="st2" d="M1356.91,870.47h0.06c10.84,0,19.63,8.79,19.63,19.63v0c0,10.84-8.79,19.63-19.63,19.63h-0.06
	c-10.84,0-19.63-8.79-19.63-19.63v0C1337.28,879.26,1346.07,870.47,1356.91,870.47z M1346.85,938.43h20.2c4.93,0,8.93,4,8.93,8.93
	v167.31c0,4.93-4,8.93-8.93,8.93h-20.2c-4.93,0-8.93-4-8.93-8.93V947.36C1337.91,942.43,1341.91,938.43,1346.85,938.43z"/>
<path class="st2" d="M1621.83,1003.49c0,69.62-51.2,120.13-121.74,120.13h-75.66c-4.96,0-8.97-4.02-8.97-8.97V892.53
	c0-4.96,4.02-8.97,8.97-8.97h75.66C1570.73,883.56,1621.83,933.97,1621.83,1003.49z M1581.55,1003.49
	c0-48.43-34.07-83.19-82.6-83.19h-35.14c-4.96,0-8.97,4.02-8.97,8.97v148.63c0,4.96,4.02,8.97,8.97,8.97h35.14
	C1547.48,1086.88,1581.55,1051.82,1581.55,1003.49z"/>
<path class="st2" d="M1750.15,1128.12c-56.64,0-99.02-41.45-99.02-97.1c0-56,42.38-97.1,99.02-97.1c56.54,0,99.01,41.35,99.01,97.1
	C1849.17,1086.68,1806.69,1128.13,1750.15,1128.12L1750.15,1128.12z M1810.42,1031.02c0-35.45-25.21-60.75-60.26-60.75
	c-35.05,0-60.26,25.31-60.26,60.75c0,35.45,25.21,60.75,60.26,60.75C1785.21,1091.78,1810.42,1066.47,1810.42,1031.02z"/>
</svg>
