<svg xmlns="http://www.w3.org/2000/svg" width="205" height="48" viewBox="0 0 205 48">
  <g id="Group_40800" data-name="Group 40800" transform="translate(-65 -16)">
    <path id="Union_3" data-name="Union 3" d="M99.881,64A4.248,4.248,0,0,1,95.6,59.8V50.2H83.358v9.6A4.247,4.247,0,0,1,79.075,64H69.284A4.248,4.248,0,0,1,65,59.8h0V20.2A4.248,4.248,0,0,1,69.284,16h9.791a4.247,4.247,0,0,1,4.283,4.2v9.6H95.6V20.2A4.248,4.248,0,0,1,99.881,16h9.791a4.247,4.247,0,0,1,4.283,4.2V59.8a4.247,4.247,0,0,1-4.283,4.2Zm0-17.58V59.8h9.791V32.051A10.466,10.466,0,0,1,103.552,34H81.217a2.121,2.121,0,0,1-2.142-2.1V20.2H69.284V47.949A10.465,10.465,0,0,1,75.4,46H97.739a2.121,2.121,0,0,1,2.142,2.1ZM79.075,59.8V50.2H75.4a6.068,6.068,0,0,0-6.119,6v3.6Zm24.477-30a6.068,6.068,0,0,0,6.12-6V20.2H99.881v9.6Z" fill="#fa6c51"/>
    <g id="Group_40799" data-name="Group 40799">
      <path id="Path_177630" data-name="Path 177630" d="M145.819,26.863h6.042V54.4h-6.042V43.015H135.294V54.4h-6.042V26.864h6.042v10.62h10.525Z" fill="#424852"/>
      <path id="Path_177631" data-name="Path 177631" d="M174.132,33.124H178.5v21.24h-4.58l-.506-1.9A10.34,10.34,0,0,1,166.435,55a11.592,11.592,0,0,1-5.788-1.46,10.481,10.481,0,0,1-4.054-4.043,11.477,11.477,0,0,1-1.462-5.752,11.348,11.348,0,0,1,1.462-5.714,10.453,10.453,0,0,1,4.054-4.013,11.647,11.647,0,0,1,5.788-1.451,10.388,10.388,0,0,1,7.074,2.593ZM162.7,47.9a6.152,6.152,0,0,0,8.4.01,6.044,6.044,0,0,0,0-8.335,6.151,6.151,0,0,0-8.4.009,6.02,6.02,0,0,0,0,8.316Z" fill="#424852"/>
      <path id="Path_177632" data-name="Path 177632" d="M194.825,32.567a11.738,11.738,0,0,1,5.827,1.45,10.389,10.389,0,0,1,4.044,4.014,12.127,12.127,0,0,1,0,11.505,10.389,10.389,0,0,1-4.044,4.014A11.738,11.738,0,0,1,194.825,55a10.27,10.27,0,0,1-6.743-2.363l-.7,1.767h-4.287V25.5h5.827v8.816A10.313,10.313,0,0,1,194.825,32.567Zm-4.677,15.346a5.958,5.958,0,0,0,8.307.094,5.7,5.7,0,0,0,1.768-4.224,5.618,5.618,0,0,0-1.666-4.167,6.165,6.165,0,0,0-8.409.009,5.964,5.964,0,0,0,0,8.288Z" fill="#424852"/>
      <path id="Path_177633" data-name="Path 177633" d="M209.34,30.339V25h5.808v5.34Zm0,24.065V33.164h5.827V54.4Z" fill="#424852"/>
      <path id="Path_177634" data-name="Path 177634" d="M230.5,26.863a15.419,15.419,0,0,1,5.682,1.037,12.805,12.805,0,0,1,7.425,7.221,14.749,14.749,0,0,1-.01,11.015,12.833,12.833,0,0,1-7.435,7.231A15.352,15.352,0,0,1,230.5,54.4H219.938V26.864Zm-.136,22.01a7.854,7.854,0,0,0,5.857-2.314,8.893,8.893,0,0,0,0-11.87,7.887,7.887,0,0,0-5.857-2.295h-4.385V48.873Z" fill="#424852"/>
      <path id="Path_177635" data-name="Path 177635" d="M258.346,55a12.221,12.221,0,0,1-5.964-1.46,10.694,10.694,0,0,1-4.18-4.033,11.654,11.654,0,0,1,0-11.476,10.653,10.653,0,0,1,4.18-4.014,12.951,12.951,0,0,1,11.908,0,10.7,10.7,0,0,1,4.19,4.024,11.57,11.57,0,0,1,0,11.466,10.768,10.768,0,0,1-4.19,4.033A12.186,12.186,0,0,1,258.346,55Zm-4.132-7.02a6.071,6.071,0,0,0,8.262,0,6.254,6.254,0,0,0,0-8.393,6.071,6.071,0,0,0-8.262,0A6.254,6.254,0,0,0,254.214,47.98Z" fill="#424852"/>
    </g>
  </g>
</svg>
