<svg xmlns="http://www.w3.org/2000/svg" xmlns:xlink="http://www.w3.org/1999/xlink" width="24" height="24" viewBox="0 0 24 24">
  <defs>
    <clipPath id="clip-path">
      <rect id="Rectangle_24288" data-name="Rectangle 24288" width="24" height="24" transform="translate(80 18.537)" fill="#fff"/>
    </clipPath>
  </defs>
  <g id="Group_52936" data-name="Group 52936" transform="translate(-80 -18.537)" clip-path="url(#clip-path)">
    <rect id="Rectangle_24287" data-name="Rectangle 24287" width="24" height="24" transform="translate(80 18.537)"/>
    <g id="Group_52955" data-name="Group 52955">
      <g id="Group_52956" data-name="Group 52956">
        <path id="Path_578379" data-name="Path 578379" d="M101.281,36.961a12.518,12.518,0,0,1-1.237,2.223,11.292,11.292,0,0,1-1.593,1.925,3.091,3.091,0,0,1-2.047.9,5.131,5.131,0,0,1-1.891-.451,5.426,5.426,0,0,0-2.036-.45,5.61,5.61,0,0,0-2.093.45,5.632,5.632,0,0,1-1.809.476,2.909,2.909,0,0,1-2.093-.926,11.862,11.862,0,0,1-1.666-1.993,13.788,13.788,0,0,1-1.762-3.5,12.816,12.816,0,0,1-.74-4.171,7.617,7.617,0,0,1,1-3.985,5.867,5.867,0,0,1,2.095-2.119,5.635,5.635,0,0,1,2.832-.8,6.668,6.668,0,0,1,2.19.51,7.044,7.044,0,0,0,1.737.511,10.4,10.4,0,0,0,1.927-.6,6.369,6.369,0,0,1,2.619-.465,5.561,5.561,0,0,1,4.356,2.293,5.029,5.029,0,0,0-.975,8.06,5.242,5.242,0,0,0,1.593,1.045Q101.495,36.451,101.281,36.961ZM96.843,19.5a4.907,4.907,0,0,1-1.258,3.218,4.286,4.286,0,0,1-3.559,1.757A3.581,3.581,0,0,1,92,24.037a5.041,5.041,0,0,1,1.334-3.252,5.138,5.138,0,0,1,1.626-1.22,4.848,4.848,0,0,1,1.86-.527,4.186,4.186,0,0,1,.024.46Z" fill="#fffefe"/>
      </g>
    </g>
  </g>
</svg>
