<svg xmlns="http://www.w3.org/2000/svg" width="54" height="54" viewBox="0 0 54 54">
  <g id="Group_53019" data-name="Group 53019" transform="translate(-29 433)">
    <g id="Ellipse_4151" data-name="Ellipse 4151" transform="translate(29 -433)" stroke="#000" stroke-width="1">
      <circle cx="27" cy="27" r="27" stroke="none"/>
      <circle cx="27" cy="27" r="26.5" fill="none"/>
    </g>
    <path id="Path_578380" data-name="Path 578380" d="M21.737,18.872A12.5,12.5,0,0,1,20.5,21.095a11.3,11.3,0,0,1-1.593,1.925,3.09,3.09,0,0,1-2.047.9,5.132,5.132,0,0,1-1.891-.451,5.425,5.425,0,0,0-2.036-.45,5.61,5.61,0,0,0-2.094.45,5.633,5.633,0,0,1-1.809.476,2.91,2.91,0,0,1-2.094-.926,11.865,11.865,0,0,1-1.666-1.993,13.787,13.787,0,0,1-1.762-3.5,12.814,12.814,0,0,1-.74-4.171,7.617,7.617,0,0,1,1-3.985A5.867,5.867,0,0,1,5.865,7.253a5.635,5.635,0,0,1,2.832-.8,6.669,6.669,0,0,1,2.191.51,7.041,7.041,0,0,0,1.737.511,10.4,10.4,0,0,0,1.927-.6,6.368,6.368,0,0,1,2.619-.465A5.56,5.56,0,0,1,21.526,8.7a4.845,4.845,0,0,0-2.57,4.4,4.856,4.856,0,0,0,1.594,3.658,5.243,5.243,0,0,0,1.593,1.045Q21.952,18.361,21.737,18.872ZM17.3,1.408a4.906,4.906,0,0,1-1.258,3.218,4.285,4.285,0,0,1-3.559,1.757,3.58,3.58,0,0,1-.027-.436A5.041,5.041,0,0,1,13.79,2.695a5.138,5.138,0,0,1,1.625-1.221,4.847,4.847,0,0,1,1.86-.527,4.187,4.187,0,0,1,.024.46Z" transform="translate(43.544 -418.448)" fill="#fff"/>
  </g>
</svg>
