<svg xmlns="http://www.w3.org/2000/svg" width="18" height="20" viewBox="0 0 18 20">
  <path id="Path_304369" data-name="Path 304369" d="M9.139,20.7a1.238,1.238,0,0,1-1.226-1.25,1.252,1.252,0,0,1,.507-1.012c2.054-1.517,2.342-4.318,2.353-6.857A1.238,1.238,0,0,1,12,10.333h0a1.239,1.239,0,0,1,1.222,1.255h0c-.008,1.917-.027,6.4-3.369,8.87A1.2,1.2,0,0,1,9.139,20.7Zm4.929.828a11.708,11.708,0,0,0,1.623-2.775,1.259,1.259,0,0,0-.649-1.64,1.219,1.219,0,0,0-1.609.661h0a9.148,9.148,0,0,1-1.268,2.18,1.266,1.266,0,0,0,.18,1.758,1.211,1.211,0,0,0,1.726-.184Zm2.787-8.2c.052-.85.052-1.608.052-2.16a4.953,4.953,0,0,0-4.9-5,4.832,4.832,0,0,0-1.636.286,1.256,1.256,0,0,0-.773,1.582,1.221,1.221,0,0,0,1.553.788l.038-.013a2.44,2.44,0,0,1,3.13,1.523,2.545,2.545,0,0,1,.14.835c0,.549,0,1.232-.047,2.005A1.243,1.243,0,0,0,15.553,14.5h.079a1.237,1.237,0,0,0,1.224-1.173ZM6.025,17.8a3.822,3.822,0,0,0,1.509-.515c2-1.22,2.006-3.805,2.014-5.693a1.239,1.239,0,0,0-1.221-1.255H8.322a1.239,1.239,0,0,0-1.227,1.245c-.007,1.988-.14,3.143-.817,3.559a1.461,1.461,0,0,1-.561.18,1.252,1.252,0,0,0,.152,2.49A1.023,1.023,0,0,0,6.025,17.8Zm13.106,3.477A24.336,24.336,0,0,0,21,11.167a9.281,9.281,0,0,0-.633-3.378,1.219,1.219,0,0,0-1.593-.7,1.257,1.257,0,0,0-.687,1.623,6.728,6.728,0,0,1,.46,2.455A21.952,21.952,0,0,1,16.9,20.226a1.262,1.262,0,0,0,.6,1.659,1.218,1.218,0,0,0,1.628-.612ZM5.46,12.417v-1.25A6.6,6.6,0,0,1,12,4.5a6.448,6.448,0,0,1,3.1.794,1.214,1.214,0,0,0,1.654-.532A1.262,1.262,0,0,0,16.264,3.1,8.91,8.91,0,0,0,4.081,6.824a9.3,9.3,0,0,0-1.074,4.343v1.25a1.227,1.227,0,1,0,2.453,0Z" transform="translate(-3.007 -2)" fill="#fa6c51"/>
</svg>
