<svg xmlns="http://www.w3.org/2000/svg" width="24" height="24" viewBox="0 0 24 24">
  <g id="Group_6" data-name="Group 6" transform="translate(-0.846)">
    <rect id="Rectangle_659" data-name="Rectangle 659" width="24" height="24" transform="translate(0.846)" fill="#fff"/>
    <path id="Path_350" data-name="Path 350" d="M23.886,12.261a13.215,13.215,0,0,0-.209-2.352H12.846v4.448h6.189a5.291,5.291,0,0,1-2.295,3.471v2.885h3.717A11.216,11.216,0,0,0,23.886,12.261Z" fill="#4285f4" fill-rule="evenodd"/>
    <path id="Path_351" data-name="Path 351" d="M12.846,23.5a10.979,10.979,0,0,0,7.611-2.786L16.74,17.828A6.938,6.938,0,0,1,6.411,14.185H2.569v2.98A11.5,11.5,0,0,0,12.846,23.5Z" fill="#34a853" fill-rule="evenodd"/>
    <path id="Path_352" data-name="Path 352" d="M6.411,14.185a6.8,6.8,0,0,1,0-4.37V6.836H2.569a11.515,11.515,0,0,0,0,10.329Z" fill="#fbbc05" fill-rule="evenodd"/>
    <path id="Path_353" data-name="Path 353" d="M12.846,5.074a6.212,6.212,0,0,1,4.4,1.72l3.3-3.3a11.052,11.052,0,0,0-7.695-3A11.5,11.5,0,0,0,2.569,6.835l3.842,2.98A6.854,6.854,0,0,1,12.846,5.074Z" fill="#ea4335" fill-rule="evenodd"/>
  </g>
</svg>
