<svg xmlns="http://www.w3.org/2000/svg" width="328.561" height="154.787" viewBox="0 0 328.561 154.787">
  <g id="Group_43494" data-name="Group 43494" transform="translate(-85.482 -272.475)">
    <g id="Character" transform="translate(85.482 272.475)">
      <g id="Group_40707" data-name="Group 40707" transform="translate(296.5 144.485)">
        <path id="Path_302602" data-name="Path 302602" d="M2143.954,1337.8h-3.675a4.715,4.715,0,0,1-4.71-4.709v-5.193l.4-.4h12.3l.4.4v5.193A4.715,4.715,0,0,1,2143.954,1337.8Zm-7.587-9.5v4.794a3.916,3.916,0,0,0,3.912,3.912h3.675a3.916,3.916,0,0,0,3.911-3.912v-4.794Z" transform="translate(-2135.569 -1327.494)" fill="#0c2238"/>
      </g>
      <path id="Path_302603" data-name="Path 302603" d="M749,564.82s-3.574-36.1,34.745-39.492l141.4.078s34.259.8,33.028,39.414c-1.226,38.449-10.46,73.152-10.46,73.152H758.715l-9.712-72Z" transform="translate(-655.014 -498.044)" fill="#fff3f0"/>
      <path id="Path_302604" data-name="Path 302604" d="M633.312,835.547c1.044,4.292,2.043,7.817,2.741,10.154a4.38,4.38,0,0,0,4.2,3.124h14.464a4.377,4.377,0,0,0,4.107-2.843,130.125,130.125,0,0,0,6.661-61.418c-1.11-7.437-4.686-13.866-11.625-16.762-5.725-2.389-12.771-2.336-19.013,6.33a31.325,31.325,0,0,0-4.755,10.842v.083a6.689,6.689,0,0,1,.828,0c4.165.258,13,8.767,10.18,21.816-1.991,9.2-4.143,19.044-1.317,32.132Z" transform="translate(-553.55 -703.941)" fill="#fff3f0"/>
      <path id="Path_302605" data-name="Path 302605" d="M2062.354,848.826a4.381,4.381,0,0,1-4.2-3.123c-3.492-11.688-14.5-53.119-1.208-71.57,6.242-8.665,13.289-8.719,19.013-6.33,6.939,2.9,10.515,9.325,11.625,16.762a130.117,130.117,0,0,1-6.661,61.418,4.377,4.377,0,0,1-4.106,2.843Z" transform="translate(-1766.476 -703.941)" fill="#fff3f0"/>
      <path id="Path_302606" data-name="Path 302606" d="M1400.226,880.3s1.347-.743,4.063.186,35.787,15.2,35.787,15.2l-1.542,4.631-18.755-1.492-19.552-11.4Z" transform="translate(-1211.164 -800.911)" fill="#efc7a4"/>
      <path id="Path_302607" data-name="Path 302607" d="M1233.84,846.952a11.25,11.25,0,0,1,8.272-.4c4.1,1.638,28.226,17.569,28.226,17.569l-9.614,13.465-15.933-10.032-19.1,5.255a32.907,32.907,0,0,1-1.053-15.332c1.458-8.422,3.7-7.834,3.7-7.834Z" transform="translate(-1060.844 -771.788)" fill="#efc7a4"/>
      <path id="Path_302608" data-name="Path 302608" d="M1163.629,823.116l12.278-5.408,9.346,2.865-6.615,4.178-11.611,5.278S1164.7,828.1,1163.629,823.116Z" transform="translate(-1009.135 -747.706)" fill="#efc7a4"/>
      <path id="Path_302609" data-name="Path 302609" d="M1004.774,493.347s1.515,2.375.1,6.378-1.542,3.24-1.542,3.24.652,1.236.238,1.906-1.7.764-1.7.764S1000,511.172,995.444,512l-2.98.307-2.416,4s-6.055-1.075-7.7-3.985,2.335-13.5,2.335-13.5l5.515-6.272,4.353,3.229Z" transform="translate(-853.999 -470.057)" fill="#efc7a4"/>
      <g id="Group_40708" data-name="Group 40708" transform="translate(112.112 113.003)">
        <rect id="Rectangle_12861" data-name="Rectangle 12861" width="22.295" height="0.798" fill="#0c2238"/>
      </g>
      <g id="Group_40709" data-name="Group 40709" transform="translate(93.94 62.115)">
        <path id="Path_302610" data-name="Path 302610" d="M761.652,841.669l-.753-.263a129.805,129.805,0,0,0,5.881-59.114c-.85-5.693-3.515-13.169-11.384-16.453a15.718,15.718,0,0,0-6.207-1.316l-.007-.8A16.5,16.5,0,0,1,755.7,765.1c8.213,3.427,10.986,11.175,11.866,17.071A130.647,130.647,0,0,1,761.652,841.669Z" transform="translate(-749.182 -763.724)" fill="#0c2238"/>
      </g>
      <path id="Path_302611" data-name="Path 302611" d="M867.358,632.174a17.4,17.4,0,0,0,7.422,3.529l-1.912,4.051a33.636,33.636,0,0,1,3.255,16.48,80.482,80.482,0,0,1-1.144,9.231s9.665-3.258,16.019-1.609l.831,1.038h1.593s.038,4.111,2.465,6.207l.169.1-1.479,1.993,9.013-4.516s-3.621,10.17-.836,18.822,2.719,10.213,9.731,20.116a79.185,79.185,0,0,0-24.2-3.519c-14.224.018-23.831.958-29.522-3.766a20.41,20.41,0,0,1-6.9-10.033l-.437-3.15s-5.814-3.3-4.416-18.121,7.1-26.174,11.026-28.863A90.6,90.6,0,0,0,867.358,632.174Z" transform="translate(-738.583 -589.28)" fill="#46ceac"/>
      <g id="Group_40710" data-name="Group 40710" transform="translate(162.966 79.074)">
        <path id="Path_302612" data-name="Path 302612" d="M1232.19,919.227c-.034-.057-.208-.274-.393-.5-9.7-12.092-12.594-25.915-8.149-38.923l.755.258c-4.353,12.74-1.506,26.294,8.017,38.166.455.568.513.64.527.8l-.794.068A.331.331,0,0,0,1232.19,919.227Z" transform="translate(-1221.614 -879.799)" fill="#0c2238"/>
      </g>
      <g id="Group_40711" data-name="Group 40711" transform="translate(157.292 74.349)">
        <path id="Path_302613" data-name="Path 302613" d="M1183.313,855.468l-.53-.6c1.463-1.3,3.65-2.012,5.966-2.767,3.122-1.017,6.35-2.069,8.14-4.642l.655.456c-1.944,2.792-5.452,3.936-8.548,4.945C1186.762,853.591,1184.652,854.279,1183.313,855.468Z" transform="translate(-1182.783 -847.462)" fill="#0c2238"/>
      </g>
      <path id="Path_302614" data-name="Path 302614" d="M1166.878,782.685v-.85s-7.28-5.177-9.354-5.525a6.22,6.22,0,0,0-2.674-.117l-20.422,7.842,3.018,3.773a8.109,8.109,0,0,0,3.386-.395c1.559-.607,6.65-3.464,6.65-3.464s2.278-.819,1.646.24a34.042,34.042,0,0,1-2.318,3.057l5.744-1.53s5.511-1.889,5.5-.732-2.521,1.622-4.227,4l12.925-6.235Z" transform="translate(-984.2 -712.193)" fill="#c27261"/>
      <path id="Path_302615" data-name="Path 302615" d="M1350.391,711.007l-2.1.535s-2.055,2.97-1.2,8.28,1.716,6.528,1.716,6.528l.6-.983S1347.294,716.852,1350.391,711.007Z" transform="translate(-1165.615 -656.595)" fill="#c27261"/>
      <path id="Path_302616" data-name="Path 302616" d="M532.847,896.938s2.951-4.1,7.559-2.824,10.356,9.532,9.507,17.34-4.32,15.993-3.018,28.5c0,0,.53,6.01,1.169,7.848,0,0-17.432-7.912-22.247-21.661s-3.415-21.979-.282-26.833S532.847,896.938,532.847,896.938Z" transform="translate(-461.834 -812.738)" fill="#46ceac"/>
      <path id="Path_302617" data-name="Path 302617" d="M159.651,665.96s2.02-12.976-9.057-11.5-23.484,18.428-23.041,47.394,5.647,35.169,5.647,35.169,5.652-20.261,12.963-28.3,21.293-20.121,22.291-30.847C169.31,668.675,165.606,667.125,159.651,665.96Z" transform="translate(-124.426 -608.209)" fill="#46ceac"/>
      <path id="Path_302618" data-name="Path 302618" d="M526.506,410.874s-5.494,1.947-4.832-8.245,4.486-17.467,9.737-21.915,16.083-8.17,23.844-14.554,9.559-7.807,9.559-7.807-.737,18.024-3.8,27.5-7.393,22.276-18.153,27.661S527.527,413.726,526.506,410.874Z" transform="translate(-460.927 -355.466)" fill="#46ceac"/>
      <path id="Path_302619" data-name="Path 302619" d="M1664.629,987.256l-.846,2.17,9.566,16.458,27.193-.146a17.126,17.126,0,0,0-4.615-13.247,13.528,13.528,0,0,0-12.43-3.926s-4.112,1.46-6.318,3.814Z" transform="translate(-1436.214 -892.482)" fill="#0c2238"/>
      <path id="Path_302620" data-name="Path 302620" d="M1480.8,967.61l-9.358,13.629,12.764,7.724h25.906s.493-7.5-3.212-11.059-5.82-5.693-9.66-5.7a25.815,25.815,0,0,0-7.328,1.174Z" transform="translate(-1271.975 -875.706)" fill="#0c2238"/>
      <path id="Path_302621" data-name="Path 302621" d="M1061.38,460.653l.684.548,2.575-2.008,5.884-4.768a1.127,1.127,0,0,0,.035-1.412,2.7,2.7,0,0,0-2.5-.524c-.342.232-5.815,5.251-5.815,5.251Z" transform="translate(-921.826 -435.746)" fill="#669a5c"/>
      <g id="Group_40712" data-name="Group 40712" transform="translate(121.304 55.242)">
        <rect id="Rectangle_12862" data-name="Rectangle 12862" width="2.815" height="0.798" transform="translate(0 1.769) rotate(-38.934)" fill="#86b37f"/>
      </g>
      <g id="Group_40713" data-name="Group 40713" transform="translate(126.921 67.672)">
        <rect id="Rectangle_12863" data-name="Rectangle 12863" width="0.798" height="2.815" transform="matrix(0.77, -0.638, 0.638, 0.77, 0, 0.509)" fill="#86b37f"/>
      </g>
      <g id="Group_40714" data-name="Group 40714" transform="translate(112.711 73.183)">
        <rect id="Rectangle_12864" data-name="Rectangle 12864" width="2.815" height="0.798" transform="matrix(0.551, -0.835, 0.835, 0.551, 0, 2.35)" fill="#86b37f"/>
      </g>
      <g id="Group_40715" data-name="Group 40715" transform="translate(123.646 82.302)">
        <rect id="Rectangle_12865" data-name="Rectangle 12865" width="0.798" height="2.815" transform="translate(0 0.774) rotate(-75.881)" fill="#86b37f"/>
      </g>
      <g id="Group_40716" data-name="Group 40716" transform="translate(117.98 94.25)">
        <rect id="Rectangle_12866" data-name="Rectangle 12866" width="0.798" height="2.815" transform="translate(0 0.31) rotate(-22.907)" fill="#86b37f"/>
      </g>
      <g id="Group_40717" data-name="Group 40717" transform="translate(136.011 91.04)">
        <rect id="Rectangle_12867" data-name="Rectangle 12867" width="0.798" height="2.815" transform="matrix(0.244, -0.97, 0.97, 0.244, 0, 0.774)" fill="#86b37f"/>
      </g>
      <g id="Group_40718" data-name="Group 40718" transform="translate(139.68 79.51)">
        <rect id="Rectangle_12868" data-name="Rectangle 12868" width="2.815" height="0.798" transform="translate(0 2.269) rotate(-53.718)" fill="#86b37f"/>
      </g>
      <g id="Group_40719" data-name="Group 40719" transform="translate(133.158 53.042)">
        <rect id="Rectangle_12869" data-name="Rectangle 12869" width="2.815" height="0.798" transform="matrix(0.592, -0.806, 0.806, 0.592, 0, 2.269)" fill="#86b37f"/>
      </g>
      <g id="Group_40720" data-name="Group 40720" transform="translate(133.837 72.925)">
        <rect id="Rectangle_12870" data-name="Rectangle 12870" width="0.798" height="2.815" transform="translate(0 0.57) rotate(-45.563)" fill="#86b37f"/>
      </g>
      <g id="Group_40721" data-name="Group 40721" transform="translate(125.943 107.53)">
        <rect id="Rectangle_12871" data-name="Rectangle 12871" width="0.798" height="2.815" transform="matrix(0.7, -0.714, 0.714, 0.7, 0, 0.57)" fill="#86b37f"/>
      </g>
      <g id="Group_40722" data-name="Group 40722" transform="translate(142.622 97.719)">
        <rect id="Rectangle_12872" data-name="Rectangle 12872" width="2.815" height="0.798" transform="matrix(0.546, -0.838, 0.838, 0.546, 0, 2.359)" fill="#86b37f"/>
      </g>
      <g id="Group_40723" data-name="Group 40723" transform="translate(156.609 109.865)">
        <rect id="Rectangle_12873" data-name="Rectangle 12873" width="2.815" height="0.798" transform="matrix(0.546, -0.838, 0.838, 0.546, 0, 2.359)" fill="#86b37f"/>
      </g>
      <g id="Group_40724" data-name="Group 40724" transform="translate(157.521 85.806)">
        <rect id="Rectangle_12874" data-name="Rectangle 12874" width="0.797" height="2.815" transform="translate(0 0.7) rotate(-61.432)" fill="#86b37f"/>
      </g>
      <g id="Group_40725" data-name="Group 40725" transform="translate(135.868 25.773)">
        <path id="Path_302622" data-name="Path 302622" d="M1039.048,517.666a1.337,1.337,0,0,0-1.5-.06l-.346-.719a2.424,2.424,0,0,1,1.334-.259,2.5,2.5,0,0,0-2.321-.824l-.063-.8a3.084,3.084,0,0,1,3.573,2.3Z" transform="translate(-1036.147 -514.992)" fill="#0c2238"/>
      </g>
      <path id="Path_302623" data-name="Path 302623" d="M1110.478,546.835a.754.754,0,1,0,1.06-.113A.754.754,0,0,0,1110.478,546.835Z" transform="translate(-963.608 -516.169)" fill="#0c2238"/>
      <path id="Path_302624" data-name="Path 302624" d="M1078.618,542.161a1.378,1.378,0,1,0,1.937-.208A1.378,1.378,0,0,0,1078.618,542.161Z" transform="translate(-936.284 -511.98)" fill="#e3b692"/>
      <g id="Group_40726" data-name="Group 40726" transform="translate(143.769 32.681)">
        <path id="Path_302625" data-name="Path 302625" d="M1092.328,566.642a3.418,3.418,0,0,1-1.882-4.375l.76.243a2.588,2.588,0,0,0,1.413,3.389Z" transform="translate(-1090.227 -562.267)" fill="#0c2238"/>
      </g>
      <path id="Path_302626" data-name="Path 302626" d="M1109.574,533.309c-.019.317.789.623,1.8.682s1.852-.149,1.871-.466-.788-.622-1.8-.682S1109.593,532.992,1109.574,533.309Z" transform="translate(-962.978 -504.453)" fill="#0c2238"/>
      <g id="Group_40727" data-name="Group 40727" transform="translate(130.351 24.658)">
        <path id="Path_302627" data-name="Path 302627" d="M1007.03,525.36a11.266,11.266,0,0,1-2.525-.3,11.933,11.933,0,0,1-2.359-.791,10.752,10.752,0,0,1-3.759-3.143l.663-.444a10.018,10.018,0,0,0,3.447,2.871,10.856,10.856,0,0,0,2.187.73,8.759,8.759,0,0,0,9.475-3.452l.024-.035a9.535,9.535,0,0,0,.972-1.576l.645-1.316.511-.193a.761.761,0,0,0,.708-.071.751.751,0,0,0,.288-.52.648.648,0,0,0-.344-.688l-.181-.533,1.419-2.9a9.407,9.407,0,0,0,.866-5.534l.789-.116a10.2,10.2,0,0,1-.939,6l-1.268,2.589a1.475,1.475,0,0,1,.452,1.256,1.554,1.554,0,0,1-.6,1.073,1.4,1.4,0,0,1-1.088.282l-.044-.007-.5,1.023a10.326,10.326,0,0,1-1.043,1.695A9.527,9.527,0,0,1,1007.03,525.36Z" transform="translate(-998.387 -507.356)" fill="#0c2238"/>
      </g>
      <g id="Group_40728" data-name="Group 40728" transform="translate(133.301 17.853)">
        <path id="Path_302628" data-name="Path 302628" d="M1022.54,474.692a3.965,3.965,0,1,1,2.4-7.129,3.994,3.994,0,0,1,.517.467c3.913-5.112,8.809-8.067,11.736-7.051,1.456.506,2.226,1.934,2.167,4.024-.131,4.706-12.717,5.595-13.253,5.63l-.421-.343a3.167,3.167,0,1,0-2.7,3.573l.11.79A4,4,0,0,1,1022.54,474.692Zm3.414-6a3.94,3.94,0,0,1,.452,1.118c3.668-.291,12.067-1.631,12.156-4.831.034-1.211-.222-2.758-1.632-3.248C1034.717,460.963,1030.131,463.145,1025.954,468.693Z" transform="translate(-1018.583 -460.78)" fill="#0c2238"/>
      </g>
      <g id="Group_40729" data-name="Group 40729" transform="translate(138.978 16.363)">
        <path id="Path_302629" data-name="Path 302629" d="M1058.159,459.292l-.724-.335c2.293-4.965,6.885-8.613,8.668-8.359a2.1,2.1,0,0,1,1.553.839,1.656,1.656,0,0,1,.21,1.281l-.769-.211h0a.882.882,0,0,0-.112-.639,1.37,1.37,0,0,0-.993-.48C1064.821,451.222,1060.415,454.406,1058.159,459.292Z" transform="translate(-1057.435 -450.585)" fill="#0c2238"/>
      </g>
      <g id="Group_40730" data-name="Group 40730" transform="translate(102.405 10.464)">
        <path id="Path_302630" data-name="Path 302630" d="M831.072,451.369c-18.246,0-23.9-13.425-23.954-13.56l.084-.429,1.815-1.858c13.061-13.382,25.4-26.024,36.7-25.285,2.586.168,4.5.976,5.7,2.4a5.607,5.607,0,0,1,1.276,3.92l-.793-.086a4.881,4.881,0,0,0-1.1-3.33c-1.052-1.245-2.78-1.954-5.135-2.107-10.94-.717-23.722,12.383-36.082,25.047l-1.625,1.664c.83,1.749,6.663,12.681,22.782,12.827a41.881,41.881,0,0,1,9.682-19.954l.6.527a41.2,41.2,0,0,0-9.562,19.9Z" transform="translate(-807.118 -410.206)" fill="#0c2238"/>
      </g>
      <path id="Path_302631" data-name="Path 302631" d="M1065.659,470.32l.926,1.428,3.548-.313,3.731-.946,3.257-1.3,1.72-1.148.32-1.693-.085-1.072-.791-1.719-1.9-.975-1.822.38-2.826,1.333-3.01,2.263-2.054,2.366Z" transform="translate(-925.48 -444.464)" fill="#0c2238"/>
      <g id="Group_40731" data-name="Group 40731" transform="translate(126.047 46.001)">
        <path id="Path_302632" data-name="Path 302632" d="M977.173,658.071c-.212-.014-5.235-.373-8.24-4.135l.623-.5c2.787,3.489,7.619,3.833,7.668,3.836Z" transform="translate(-968.933 -653.438)" fill="#0c2238"/>
      </g>
      <g id="Group_40732" data-name="Group 40732" transform="translate(135.925 42.088)">
        <rect id="Rectangle_12875" data-name="Rectangle 12875" width="4.446" height="0.798" transform="translate(0 3.985) rotate(-63.685)" fill="#0c2238"/>
      </g>
      <circle id="Ellipse_3361" data-name="Ellipse 3361" cx="5.694" cy="5.694" r="5.694" transform="translate(127.353 8.052) rotate(-45)" fill="#0c2238"/>
      <path id="Path_302633" data-name="Path 302633" d="M854.072,419.117s.911-.5-.791-3.634-8.935-2.08-8.935-2.08-6.646.964-14.5,7.177c-8.408,6.65-20.2,19.665-20.2,19.665s.841,3.673,8.471,9.429a21.87,21.87,0,0,0,7.743,3.88,12.939,12.939,0,0,0,7.37,0,33.013,33.013,0,0,1,5.338-14.544c4.629-6.442,4.2-5.319,4.2-5.319s-2.356-1.487-2.2-3.43,1.1-3.493,2.8-3.673a3.429,3.429,0,0,1,2.542.547S850.691,419.364,854.072,419.117Z" transform="translate(-706.872 -402.328)" fill="#0c2238"/>
      <g id="Group_40733" data-name="Group 40733" transform="translate(127.1 8.71)">
        <path id="Path_302634" data-name="Path 302634" d="M981.393,402.292c-3.446,0-5.238-3.706-5.257-3.747l.721-.341c.077.161,1.92,3.945,5.441,3.192l.167.78A5.131,5.131,0,0,1,981.393,402.292Z" transform="translate(-976.136 -398.204)" fill="#0c2238"/>
      </g>
      <g id="Group_40734" data-name="Group 40734" transform="translate(112.58 49.837)">
        <path id="Path_302635" data-name="Path 302635" d="M885.975,730.77c-.6,0-1.193-.015-1.8-.046a12.546,12.546,0,0,1-7.418-2.693l.508-.616a11.755,11.755,0,0,0,6.951,2.511c19.555,1.019,34.637-15.194,37.032-17.926-1.568-1.077-2.479-4.807-2.736-6-10.956-.194-23.975,4.9-24.106,4.956l-.52-.511c4.969-13.183,2.106-21.664-.044-25.546a8.344,8.344,0,0,0-6.667-4.385,5.623,5.623,0,0,0-3.7.906l-.441-.665a6.484,6.484,0,0,1,4.195-1.037,9.14,9.14,0,0,1,7.308,4.795c2.171,3.921,5.054,12.375.394,25.393,3.091-1.133,14.324-4.971,23.917-4.695l.38.323c.416,2.138,1.532,5.644,2.755,5.949l.212.639C922.042,712.311,906.712,730.768,885.975,730.77Z" transform="translate(-876.759 -679.694)" fill="#0c2238"/>
      </g>
      <g id="Group_40735" data-name="Group 40735" transform="translate(164.63 91.433)">
        <path id="Path_302636" data-name="Path 302636" d="M1306.806,986.754h-26.467l-.213-.061-34.116-21.48c-1.089.87-6.051,4.781-12.567,9.09l-.44-.665c7.327-4.845,12.674-9.18,12.727-9.223l.465-.028,34.259,21.571h25.953c-.035-1.719-.519-8.8-5.988-13.264a11.787,11.787,0,0,0-18.451,3.753l-.712-.36a12.584,12.584,0,0,1,19.667-4.011c6.542,5.335,6.3,13.933,6.282,14.3Z" transform="translate(-1233.003 -964.386)" fill="#0c2238"/>
      </g>
      <g id="Group_40736" data-name="Group 40736" transform="translate(238.137 95.293)">
        <path id="Path_302637" data-name="Path 302637" d="M1762.577,1009.315h-26.468v-.8h26.069c-.032-1.766-.5-9.2-5.995-13.878a11.688,11.688,0,0,0-13.525-1.541,12.329,12.329,0,0,0-4.917,5.461l-.718-.347a13.115,13.115,0,0,1,5.236-5.805,12.478,12.478,0,0,1,14.442,1.624c6.535,5.562,6.289,14.521,6.275,14.9Z" transform="translate(-1736.109 -990.807)" fill="#0c2238"/>
      </g>
      <g id="Group_40737" data-name="Group 40737" transform="translate(155.423 73.742)">
        <path id="Path_302638" data-name="Path 302638" d="M1232.666,867.816l-34.934-22.125a10.281,10.281,0,0,0-10.235-.424l-17.139,8.963-.37-.707,17.139-8.963a11.081,11.081,0,0,1,11.032.457l34.934,22.125Z" transform="translate(-1169.988 -843.308)" fill="#0c2238"/>
      </g>
      <g id="Group_40738" data-name="Group 40738" transform="translate(164.743 95.315)">
        <rect id="Rectangle_12876" data-name="Rectangle 12876" width="19.733" height="0.798" transform="translate(0 5.32) rotate(-15.64)" fill="#0c2238"/>
      </g>
      <path id="Path_302639" data-name="Path 302639" d="M1243.359,1030.926s7.4,1.542,2.04-20.092l-10.89,2.8s2.425,7.716,4.685,11.138S1243.359,1030.926,1243.359,1030.926Z" transform="translate(-1069.66 -912.615)" fill="#0c2238"/>
      <g id="Group_40739" data-name="Group 40739" transform="translate(159.678 80.993)">
        <path id="Path_302640" data-name="Path 302640" d="M1200.241,912.57c-2.8-9.188.5-19.535.533-19.639l.758.247c-.033.1-3.258,10.216-.528,19.159Z" transform="translate(-1199.113 -892.931)" fill="#0c2238"/>
      </g>
      <g id="Group_40740" data-name="Group 40740" transform="translate(199.019 91.547)">
        <rect id="Rectangle_12877" data-name="Rectangle 12877" width="16.529" height="0.798" transform="matrix(0.561, -0.828, 0.828, 0.561, 0, 13.688)" fill="#0c2238"/>
      </g>
      <g id="Group_40741" data-name="Group 40741" transform="translate(226.998 94.114)">
        <rect id="Rectangle_12878" data-name="Rectangle 12878" width="2.828" height="0.798" transform="translate(0 2.627) rotate(-68.27)" fill="#0c2238"/>
      </g>
      <g id="Group_40742" data-name="Group 40742" transform="translate(144.694 76.539)">
        <path id="Path_302641" data-name="Path 302641" d="M1102.119,875.216c-5.067-3.834-5.544-12.37-5.562-12.732l.8-.039c0,.085.478,8.528,5.246,12.135Z" transform="translate(-1096.557 -862.445)" fill="#0c2238"/>
      </g>
      <g id="Group_40743" data-name="Group 40743" transform="translate(145.31 76.833)">
        <path id="Path_302642" data-name="Path 302642" d="M1101.021,867.208l-.25-.758c.274-.09,6.737-2.206,9.74-1.973l-.061.8C1107.6,865.057,1101.086,867.186,1101.021,867.208Z" transform="translate(-1100.771 -864.459)" fill="#0c2238"/>
      </g>
      <g id="Group_40744" data-name="Group 40744" transform="translate(146.155 78.699)">
        <path id="Path_302643" data-name="Path 302643" d="M1106.908,881.559l-.352-.716c.269-.132,6.622-3.243,9.4-3.609l.1.791C1113.411,878.374,1106.973,881.527,1106.908,881.559Z" transform="translate(-1106.556 -877.234)" fill="#0c2238"/>
      </g>
      <g id="Group_40745" data-name="Group 40745" transform="translate(147.789 80.324)">
        <path id="Path_302644" data-name="Path 302644" d="M1118.088,894.548l-.348-.718a41.985,41.985,0,0,0,8.248-5.473l.529.6A42.884,42.884,0,0,1,1118.088,894.548Z" transform="translate(-1117.74 -888.356)" fill="#0c2238"/>
      </g>
      <g id="Group_40746" data-name="Group 40746" transform="translate(127.829 41.998)">
        <path id="Path_302645" data-name="Path 302645" d="M989.533,630.687l-.074-.01a18.351,18.351,0,0,1-2-.329,14.1,14.1,0,0,1-6.326-3.776l.593-.533a13.534,13.534,0,0,0,5.938,3.538,17.951,17.951,0,0,0,1.9.309l.074.009Z" transform="translate(-981.13 -626.039)" fill="#0c2238"/>
      </g>
      <g id="Group_40747" data-name="Group 40747" transform="translate(131.405 45.743)">
        <rect id="Rectangle_12879" data-name="Rectangle 12879" width="4.264" height="0.798" transform="matrix(0.455, -0.89, 0.89, 0.455, 0, 3.797)" fill="#0c2238"/>
      </g>
      <g id="Group_40748" data-name="Group 40748" transform="translate(128.253 44.38)">
        <rect id="Rectangle_12880" data-name="Rectangle 12880" width="3.696" height="0.798" transform="translate(0 3.254) rotate(-61.683)" fill="#0c2238"/>
      </g>
      <g id="Group_40749" data-name="Group 40749" transform="translate(154.582 71.148)">
        <path id="Path_302646" data-name="Path 302646" d="M1173.72,832.12l-.21-.77c7.464-2.039,9.136-3.551,9.471-3.966a1.155,1.155,0,0,0,.075-.1,8.579,8.579,0,0,0-3.091.521c-3,.829-8.766,2.343-8.824,2.358l-.266-.749a7.875,7.875,0,0,0,3.318-3.086h-.015c-.721,0-3.718,1.694-4.871,2.346-.439.248-.8.452-1.027.57a17.494,17.494,0,0,1-3.887,1.3l-.159-.781a17.047,17.047,0,0,0,3.678-1.225c.222-.115.573-.314,1-.556,3.822-2.161,5.17-2.7,5.768-2.315a.7.7,0,0,1,.311.665,5.01,5.01,0,0,1-1.807,2.468c1.961-.518,4.765-1.265,6.565-1.763,3.115-.862,3.794-.58,4.049-.192.132.2.2.544-.2,1.044C1182.577,829.155,1179.068,830.659,1173.72,832.12Z" transform="translate(-1164.236 -825.548)" fill="#0c2238"/>
      </g>
      <path id="Path_302647" data-name="Path 302647" d="M879.815,1013.964s9.456,1.279,20.065-5.05c0,0-7.769,2.648-14.2,2.109s-7.184-2.6-7.184-2.6A12.844,12.844,0,0,0,879.815,1013.964Z" transform="translate(-765.662 -910.555)" fill="#0c2238"/>
      <g id="Group_40750" data-name="Group 40750" transform="translate(188.697 78.663)">
        <path id="Path_302648" data-name="Path 302648" d="M1450.1,898.7l-47.9-20.356a7.765,7.765,0,0,0-4.333-.426l-.147-.784a8.564,8.564,0,0,1,4.785.473l47.9,20.359Z" transform="translate(-1397.728 -876.987)" fill="#0c2238"/>
      </g>
      <path id="Path_302649" data-name="Path 302649" d="M425.272,1109.86l-3.52,29.532H400.187l-4.562-43.783h20.369Z" transform="translate(-353.342 -985.004)" fill="#e3b692"/>
      <g id="Group_40751" data-name="Group 40751" transform="translate(8.361 54.876)">
        <path id="Path_302650" data-name="Path 302650" d="M163.46,788.124c-.517-31.487,13.334-62.36,26.595-71.44,2.62-1.794,5.093-2.629,7.34-2.487,12.317.787,9.322,53.494,9.188,55.737l-.8-.047c.008-.136.8-13.777.115-27.33-.9-17.732-3.859-27.263-8.558-27.563-2.069-.133-4.369.658-6.838,2.349-13.09,8.963-26.761,39.539-26.247,70.769Z" transform="translate(-163.446 -714.181)" fill="#35ba9b"/>
      </g>
      <g id="Group_40752" data-name="Group 40752" transform="translate(34.969 54.876)">
        <path id="Path_302651" data-name="Path 302651" d="M362.092,769.934l-.8-.047c.008-.136.8-13.777.115-27.33-.9-17.732-3.859-27.263-8.558-27.563-2.069-.133-4.369.658-6.838,2.349l-.451-.658c2.62-1.794,5.093-2.629,7.34-2.487C365.221,714.984,362.225,767.691,362.092,769.934Z" transform="translate(-345.564 -714.181)" fill="#0c2238"/>
      </g>
      <g id="Group_40753" data-name="Group 40753" transform="translate(26.719 65.896)">
        <rect id="Rectangle_12881" data-name="Rectangle 12881" width="0.798" height="23.265" transform="translate(0 0.209) rotate(-15.175)" fill="#35ba9b"/>
      </g>
      <g id="Group_40754" data-name="Group 40754" transform="translate(3.068 77.795)">
        <rect id="Rectangle_12882" data-name="Rectangle 12882" width="18.692" height="0.798" transform="translate(0 8.845) rotate(-28.243)" fill="#35ba9b"/>
      </g>
      <g id="Group_40755" data-name="Group 40755" transform="translate(12.751 95.74)">
        <rect id="Rectangle_12883" data-name="Rectangle 12883" width="0.798" height="11.848" transform="translate(0 0.285) rotate(-20.948)" fill="#35ba9b"/>
      </g>
      <g id="Group_40756" data-name="Group 40756" transform="translate(54.686 72.013)">
        <path id="Path_302652" data-name="Path 302652" d="M511.9,894.885c-.121-.053-12.221-5.415-19.382-16.18a37.116,37.116,0,0,1-4.166-8.515l-.065-.184c-.038-.108-.08-.226-.1-.279l.756-.254c.017.051.057.164.094.267l.067.191a36.33,36.33,0,0,0,4.076,8.332c5.75,8.644,14.756,13.746,17.9,15.344a191.6,191.6,0,0,1-9.213-19.759c-2.183-5.37-2.9-12.081-3.6-18.573-1.066-9.941-2.073-19.33-8.118-22.571a2.646,2.646,0,0,0-2.808-.065c-6.6,4.036-6.023,37.08-6.016,37.414l-.8.016c-.027-1.38-.584-33.838,6.4-38.11a3.424,3.424,0,0,1,3.6.043c6.416,3.44,7.444,13.033,8.534,23.189.69,6.436,1.4,13.091,3.545,18.357a174.053,174.053,0,0,0,9.789,20.769Z" transform="translate(-480.511 -831.469)" fill="#0c2238"/>
      </g>
      <g id="Group_40757" data-name="Group 40757" transform="translate(62.361 83.921)">
        <path id="Path_302653" data-name="Path 302653" d="M556.753,964.481c-.122-.053-12.221-5.415-19.382-16.18a37.121,37.121,0,0,1-4.166-8.515l-.065-.183c-.038-.108-.08-.226-.1-.279l.756-.254c.017.051.057.164.094.267l.067.191a36.325,36.325,0,0,0,4.076,8.332c5.754,8.65,14.757,13.748,17.905,15.344a191.533,191.533,0,0,1-9.213-19.76c-2.183-5.37-2.9-12.082-3.6-18.573a108.179,108.179,0,0,0-1.671-11.725l.779-.174a108.731,108.731,0,0,1,1.685,11.814c.69,6.436,1.4,13.091,3.545,18.357a174.24,174.24,0,0,0,9.79,20.769Z" transform="translate(-533.042 -912.972)" fill="#35ba9b"/>
      </g>
      <g id="Group_40758" data-name="Group 40758" transform="translate(62.361 110.018)">
        <path id="Path_302654" data-name="Path 302654" d="M556.753,1117c-.121-.053-12.221-5.415-19.382-16.18a37.118,37.118,0,0,1-4.166-8.515l-.065-.183c-.038-.108-.08-.226-.1-.279l.756-.254c.017.051.057.164.094.267l.067.191a36.328,36.328,0,0,0,4.076,8.332c7.033,10.571,18.917,15.838,19.037,15.89Z" transform="translate(-533.042 -1091.589)" fill="#0c2238"/>
      </g>
      <g id="Group_40759" data-name="Group 40759" transform="translate(72.414 93.984)">
        <rect id="Rectangle_12884" data-name="Rectangle 12884" width="0.798" height="18.89" transform="translate(0 0.592) rotate(-47.89)" fill="#35ba9b"/>
      </g>
      <g id="Group_40760" data-name="Group 40760" transform="translate(68.576 105.913)">
        <rect id="Rectangle_12885" data-name="Rectangle 12885" width="16.48" height="0.798" transform="matrix(0.317, -0.948, 0.948, 0.317, 0, 15.628)" fill="#35ba9b"/>
      </g>
      <g id="Group_40761" data-name="Group 40761" transform="translate(78.68 119.817)">
        <rect id="Rectangle_12886" data-name="Rectangle 12886" width="0.798" height="7.255" transform="translate(0 0.659) rotate(-55.708)" fill="#9ed26a"/>
      </g>
      <g id="Group_40762" data-name="Group 40762" transform="translate(54.643 3.04)">
        <path id="Path_302655" data-name="Path 302655" d="M480.284,466.984a150.556,150.556,0,0,1,1.5-25.621c1.872-12.851,6.366-30.348,17.146-40.721,16.531-15.908,24.229-30.393,28.828-39.047q.615-1.157,1.171-2.194l.7.379q-.557,1.033-1.169,2.189c-4.621,8.7-12.356,23.252-28.979,39.248-20.345,19.577-18.423,65.27-18.4,65.73Z" transform="translate(-480.22 -359.4)" fill="#35ba9b"/>
      </g>
      <g id="Group_40763" data-name="Group 40763" transform="translate(54.648 55.218)">
        <path id="Path_302656" data-name="Path 302656" d="M480.309,771.928c-.016-.331-1.432-33.333,10.522-55.406l.7.38c-11.846,21.876-10.442,54.66-10.426,54.988Z" transform="translate(-480.25 -716.522)" fill="#0c2238"/>
      </g>
      <g id="Group_40764" data-name="Group 40764" transform="translate(64.163 33.331)">
        <rect id="Rectangle_12887" data-name="Rectangle 12887" width="0.798" height="17.872" transform="translate(0 0.169) rotate(-12.213)" fill="#35ba9b"/>
      </g>
      <g id="Group_40765" data-name="Group 40765" transform="translate(76.567 37.385)">
        <rect id="Rectangle_12888" data-name="Rectangle 12888" width="20.926" height="0.798" transform="translate(0 3.811) rotate(-10.493)" fill="#35ba9b"/>
      </g>
      <g id="Group_40766" data-name="Group 40766" transform="translate(86.297 15.896)">
        <rect id="Rectangle_12889" data-name="Rectangle 12889" width="0.798" height="13.076" transform="translate(0 0.062) rotate(-4.433)" fill="#35ba9b"/>
      </g>
      <g id="Group_40767" data-name="Group 40767" transform="translate(76.141 80.705)">
        <path id="Path_302657" data-name="Path 302657" d="M637.06,945.4c-2.832-13.118-.735-22.812,1.292-32.186l.025-.113a20.043,20.043,0,0,0-3.322-16.719c-2.311-3.053-4.926-4.517-6.493-4.614a6.445,6.445,0,0,0-.778,0l-.423-.4v-.083h.394l-.019-.316a7.328,7.328,0,0,1,.876,0c2.134.132,4.913,2.067,7.08,4.929a20.829,20.829,0,0,1,3.466,17.369l-.025.114c-2.01,9.292-4.089,18.9-1.292,31.85Z" transform="translate(-627.36 -890.961)" fill="#0c2238"/>
      </g>
      <g id="Group_40768" data-name="Group 40768" transform="translate(87.723 144.485)">
        <rect id="Rectangle_12890" data-name="Rectangle 12890" width="12.296" height="0.798" fill="#0c2238"/>
      </g>
      <g id="Group_40769" data-name="Group 40769" transform="translate(90.711 81.658)">
        <path id="Path_302658" data-name="Path 302658" d="M730.188,903.7a3.107,3.107,0,1,1,3.107-3.107A3.11,3.11,0,0,1,730.188,903.7Zm0-5.415a2.309,2.309,0,1,0,2.309,2.309A2.312,2.312,0,0,0,730.188,898.285Z" transform="translate(-727.081 -897.487)" fill="#0c2238"/>
      </g>
      <g id="Group_40770" data-name="Group 40770" transform="translate(90.711 119.748)">
        <path id="Path_302659" data-name="Path 302659" d="M730.188,1164.4a3.107,3.107,0,1,1,3.107-3.107A3.11,3.11,0,0,1,730.188,1164.4Zm0-5.415a2.309,2.309,0,1,0,2.309,2.308A2.311,2.311,0,0,0,730.188,1158.982Z" transform="translate(-727.081 -1158.184)" fill="#0c2238"/>
      </g>
      <g id="Group_40771" data-name="Group 40771" transform="translate(87.324 144.485)">
        <path id="Path_302660" data-name="Path 302660" d="M712.283,1337.8h-3.675a4.715,4.715,0,0,1-4.709-4.709v-5.193l.4-.4h12.3l.4.4v5.193A4.715,4.715,0,0,1,712.283,1337.8Zm-7.586-9.5v4.794a3.916,3.916,0,0,0,3.912,3.912h3.675a3.916,3.916,0,0,0,3.912-3.912v-4.794Z" transform="translate(-703.899 -1327.494)" fill="#0c2238"/>
      </g>
      <g id="Group_40772" data-name="Group 40772" transform="translate(283.647 62.116)">
        <path id="Path_302661" data-name="Path 302661" d="M2054.712,841.657c-4.381-15.245-13.211-52.591-.612-70.08,3.7-5.133,8.036-7.772,12.894-7.841l.012.8c-4.592.066-8.716,2.593-12.258,7.51-5.391,7.484-7.348,19.616-5.817,36.061a191.6,191.6,0,0,0,6.548,33.333Z" transform="translate(-2047.6 -763.735)" fill="#0c2238"/>
      </g>
      <g id="Group_40773" data-name="Group 40773" transform="translate(296.899 144.485)">
        <rect id="Rectangle_12891" data-name="Rectangle 12891" width="12.296" height="0.798" fill="#0c2238"/>
      </g>
      <g id="Group_40774" data-name="Group 40774" transform="translate(299.888 81.658)">
        <path id="Path_302662" data-name="Path 302662" d="M2161.86,903.7a3.107,3.107,0,1,1,3.107-3.107A3.11,3.11,0,0,1,2161.86,903.7Zm0-5.415a2.309,2.309,0,1,0,2.309,2.309A2.312,2.312,0,0,0,2161.86,898.285Z" transform="translate(-2158.753 -897.487)" fill="#0c2238"/>
      </g>
      <g id="Group_40775" data-name="Group 40775" transform="translate(265.588 48.121)">
        <path id="Path_302663" data-name="Path 302663" d="M1927.1,674.162a3.107,3.107,0,1,1,3.107-3.107A3.11,3.11,0,0,1,1927.1,674.162Zm0-5.416a2.309,2.309,0,1,0,2.309,2.309A2.312,2.312,0,0,0,1927.1,668.747Z" transform="translate(-1923.994 -667.949)" fill="#0c2238"/>
      </g>
      <g id="Group_40776" data-name="Group 40776" transform="translate(195.729 48.598)">
        <path id="Path_302664" data-name="Path 302664" d="M1448.967,677.425a3.107,3.107,0,1,1,3.106-3.107A3.11,3.11,0,0,1,1448.967,677.425Zm0-5.416a2.309,2.309,0,1,0,2.309,2.309A2.312,2.312,0,0,0,1448.967,672.009Z" transform="translate(-1445.86 -671.211)" fill="#0c2238"/>
      </g>
      <g id="Group_40777" data-name="Group 40777" transform="translate(299.888 119.748)">
        <path id="Path_302665" data-name="Path 302665" d="M2161.86,1164.4a3.107,3.107,0,1,1,3.107-3.107A3.11,3.11,0,0,1,2161.86,1164.4Zm0-5.415a2.309,2.309,0,1,0,2.309,2.308A2.311,2.311,0,0,0,2161.86,1158.982Z" transform="translate(-2158.753 -1158.184)" fill="#0c2238"/>
      </g>
      <g id="Group_40778" data-name="Group 40778" transform="translate(176.805 113.003)">
        <rect id="Rectangle_12892" data-name="Rectangle 12892" width="108.442" height="0.798" fill="#0c2238"/>
      </g>
      <g id="Group_40779" data-name="Group 40779" transform="translate(42.69 114.111)">
        <rect id="Rectangle_12893" data-name="Rectangle 12893" width="16.816" height="0.798" fill="#0c2238"/>
      </g>
      <g id="Group_40780" data-name="Group 40780" transform="translate(209.079 69.83)">
        <path id="Path_302666" data-name="Path 302666" d="M1538.186,833.641c-.075-.258-1.818-6.375-.4-11.882a7.564,7.564,0,0,0,.067-2.517l-.2-2.317.567-.4,1.312.618a11.162,11.162,0,0,0,6.649.906c5.738-.972,16.6-2.28,24.829-.125a11.373,11.373,0,0,0,9.01-1.374l.607.409-.973,5.184-.784-.147.811-4.322a12.227,12.227,0,0,1-8.873,1.021c-8.09-2.118-18.818-.822-24.494.14a11.951,11.951,0,0,1-7.121-.972l-.685-.323.141,1.627a8.209,8.209,0,0,1-.088,2.784c-1.358,5.291.38,11.4.4,11.46Z" transform="translate(-1537.23 -816.53)" fill="#0c2238"/>
      </g>
      <g id="Group_40781" data-name="Group 40781" transform="translate(229.935 72.553)">
        <path id="Path_302667" data-name="Path 302667" d="M1695.52,837.939c-6.834-2.449-15.408-1.932-15.494-1.927l-.052-.8c.087-.006,8.823-.533,15.815,1.972Z" transform="translate(-1679.974 -835.166)" fill="#0c2238"/>
      </g>
      <g id="Group_40782" data-name="Group 40782" transform="translate(243.473 63.233)">
        <path id="Path_302668" data-name="Path 302668" d="M1772.714,806.539c-.017-.154-1.6-15.45,9.816-25.924a14.469,14.469,0,0,0,4.274-7.007l.52-2,.609-.231.819.551a14.156,14.156,0,0,0,8.134,2.438c5.261-.061,14.952.818,20.807,7.463l-.6.527c-5.645-6.406-15.076-7.261-20.2-7.193a14.946,14.946,0,0,1-8.59-2.574l-.351-.237-.378,1.455a15.268,15.268,0,0,1-4.507,7.394c-11.109,10.193-9.578,25.1-9.562,25.246Z" transform="translate(-1772.63 -771.377)" fill="#0c2238"/>
      </g>
      <g id="Group_40783" data-name="Group 40783" transform="translate(263.406 69.263)">
        <path id="Path_302669" data-name="Path 302669" d="M1927.029,816.681a26.111,26.111,0,0,0-17.77-2.718l-.2-.772a26.939,26.939,0,0,1,18.364,2.8Z" transform="translate(-1909.059 -812.649)" fill="#0c2238"/>
      </g>
      <g id="Group_40784" data-name="Group 40784" transform="translate(276.831 107.345)">
        <path id="Path_302670" data-name="Path 302670" d="M2000.946,1079.754v-.8c4.575,0,7.464-5.6,7.493-5.658l.712.361C2009.024,1073.907,2006.006,1079.754,2000.946,1079.754Z" transform="translate(-2000.946 -1073.298)" fill="#0c2238"/>
      </g>
      <g id="Group_40785" data-name="Group 40785" transform="translate(149.675 63.371)">
        <path id="Path_302671" data-name="Path 302671" d="M1133.76,784.945l-3.112-3.805.166-.625,21.267-8.166.131-.026c.2-.005,5.064-.069,12.323,6.524l-.093.654-10.547,5.158-.35-.717,10.015-4.9c-6.324-5.58-10.7-5.905-11.265-5.923l-20.681,7.941,2.763,3.378Z" transform="translate(-1130.647 -772.322)" fill="#0c2238"/>
      </g>
      <g id="Group_40786" data-name="Group 40786" transform="translate(182.593 53.715)">
        <path id="Path_302672" data-name="Path 302672" d="M1356.816,721.756c-.073-.451-1.62-10.309.95-14.508l-1.648.359-.17-.779,2.73-.6.362.677c-3.258,3.141-1.456,14.6-1.437,14.72Z" transform="translate(-1355.949 -706.232)" fill="#0c2238"/>
      </g>
      <g id="Group_40787" data-name="Group 40787" transform="translate(170.94 59.264)">
        <path id="Path_302673" data-name="Path 302673" d="M1288.193,755.133c-.045-.086-4.371-8.234-10.781-9.931.641,1.022,1.438,2.719.6,3.885l-.647-.466c.722-1-.6-3.058-1.171-3.766l.371-.645c7.341,1.134,12.136,10.17,12.336,10.554Z" transform="translate(-1276.192 -744.21)" fill="#0c2238"/>
      </g>
      <g id="Group_40788" data-name="Group 40788" transform="translate(149.415 59.29)">
        <path id="Path_302674" data-name="Path 302674" d="M1130.067,756.742a6.927,6.927,0,0,0-1.2-2.646l.121-.657,21.561-9.047.309.735-21.068,8.841a9.271,9.271,0,0,1,1.053,2.584Z" transform="translate(-1128.867 -744.392)" fill="#0c2238"/>
      </g>
      <g id="Group_40789" data-name="Group 40789" transform="translate(155.797 52.724)">
        <path id="Path_302675" data-name="Path 302675" d="M1199.718,717.146a24.016,24.016,0,0,1-3.368-16.664l-22.882,9.825a3.239,3.239,0,0,0,.07,2.013l-.759.245a3.8,3.8,0,0,1,.023-2.739l.2-.188,23.732-10.19.547.452a23.091,23.091,0,0,0,2.713,16.184l.239-.509.722.338-.549,1.171Z" transform="translate(-1172.547 -699.449)" fill="#0c2238"/>
      </g>
      <g id="Group_40790" data-name="Group 40790" transform="translate(179.843 52.704)">
        <path id="Path_302676" data-name="Path 302676" d="M1340.215,716.774c-.191-.437-4.41-10.254-.146-16.384l-2.739.712-.2-.772,3.9-1.014.395.655c-5.145,5.618-.525,16.375-.478,16.483Z" transform="translate(-1337.129 -699.316)" fill="#0c2238"/>
      </g>
      <g id="Group_40791" data-name="Group 40791" transform="translate(143.418 74.341)">
        <path id="Path_302677" data-name="Path 302677" d="M1087.844,849.887a5.726,5.726,0,0,1,.334-2.481l.735.311-.367-.155.368.154a5.021,5.021,0,0,0-.274,2.108Z" transform="translate(-1087.825 -847.406)" fill="#0c2238"/>
      </g>
      <path id="Path_302678" data-name="Path 302678" d="M1025.315,620.675l2.452,4.117,1.372-3.067Z" transform="translate(-891.03 -579.461)" fill="#0c2238"/>
      <path id="Path_302679" data-name="Path 302679" d="M536.734,1095.609s2.814,15.254,8.119,21.892l.911-7.641S540.2,1101.41,536.734,1095.609Z" transform="translate(-473.834 -985.004)" fill="#0c2238"/>
      <path id="Path_302680" data-name="Path 302680" d="M1178.7,886.206a6.218,6.218,0,0,1,3.775-3.206,14.253,14.253,0,0,1,4.536-.994Z" transform="translate(-1022.001 -802.609)" fill="#0c2238"/>
      <g id="Group_40792" data-name="Group 40792" transform="translate(212.882 96.042)">
        <path id="Path_302681" data-name="Path 302681" d="M1589.207,1013.306l-.8-.03c0-.085.24-8.569-5.989-13.648a12.989,12.989,0,0,0-5.139-2.559,12.007,12.007,0,0,0-4.139-.27,11.323,11.323,0,0,0-4.046,1.236l-.214.115a12,12,0,0,0-4.914,5.23l-.712-.36a12.786,12.786,0,0,1,5.239-5.568q.113-.063.229-.124a12.123,12.123,0,0,1,4.329-1.323,12.816,12.816,0,0,1,4.414.287,13.806,13.806,0,0,1,5.457,2.716C1589.468,1004.345,1589.221,1012.943,1589.207,1013.306Z" transform="translate(-1563.258 -995.93)" fill="#fdece4"/>
      </g>
      <g id="Group_40793" data-name="Group 40793" transform="translate(239.05 99.754)">
        <path id="Path_302682" data-name="Path 302682" d="M1743.079,1024.632l-.718-.348a14.658,14.658,0,0,1,1.87-2.944l.616.508A13.836,13.836,0,0,0,1743.079,1024.632Z" transform="translate(-1742.361 -1021.34)" fill="#fdece4"/>
      </g>
      <path id="Path_302683" data-name="Path 302683" d="M1106.554,1263.015l-1.065,19.325h-9.832l-.4-7.18-.215-3.825-.056-.969-.212-3.793-.2-3.558Z" transform="translate(-950.168 -1127.951)" fill="#e3b692"/>
      <path id="Path_302684" data-name="Path 302684" d="M1059.681,1294.3a4.578,4.578,0,0,1-2.086.495,4.683,4.683,0,1,1,1.6-9.082l.211,3.793a2.2,2.2,0,1,0,.056.969Z" transform="translate(-914.595 -1147.089)" fill="#e3b692"/>
      <path id="Path_302685" data-name="Path 302685" d="M1041.013,1172.455h-4.261a1.059,1.059,0,0,1-1.059-1.059v-.369a1.059,1.059,0,0,1,1.059-1.059h0a1.292,1.292,0,0,0,1.292-1.292v-1.742a1.292,1.292,0,0,0-1.292-1.292h-17.239a1.292,1.292,0,0,0-1.292,1.292v1.742a1.292,1.292,0,0,0,1.292,1.292h13.674a1.059,1.059,0,0,1,1.059,1.059v.369a1.059,1.059,0,0,1-1.059,1.059h-1.81a1.094,1.094,0,0,0-1.094,1.094h0a1.094,1.094,0,0,0,1.094,1.094h1.1a.723.723,0,0,1,.723.724v1.8a.723.723,0,0,0,.724.724h0a.723.723,0,0,0,.724-.724v-1.8a.723.723,0,0,1,.724-.724h5.645a1.094,1.094,0,0,0,1.094-1.094h0A1.093,1.093,0,0,0,1041.013,1172.455Z" transform="translate(-884.972 -1044.805)" fill="#e3b692"/>
      <g id="Group_40794" data-name="Group 40794" transform="translate(149.062 136.756)">
        <path id="Path_302686" data-name="Path 302686" d="M1126.451,1277.322h0Z" transform="translate(-1126.451 -1276.923)" fill="#c27261"/>
        <rect id="Rectangle_12894" data-name="Rectangle 12894" width="7.209" height="0.798" fill="#0c2238"/>
      </g>
      <g id="Group_40795" data-name="Group 40795" transform="translate(144.205 138.6)">
        <path id="Path_302687" data-name="Path 302687" d="M1095.937,1287.366l.483,8.588Z" transform="translate(-1095.539 -1287.344)" fill="#c27261"/>
        <rect id="Rectangle_12895" data-name="Rectangle 12895" width="0.798" height="8.601" transform="translate(0 0.045) rotate(-3.218)" fill="#0c2238"/>
      </g>
      <g id="Group_40796" data-name="Group 40796" transform="translate(0 153.989)">
        <rect id="Rectangle_12896" data-name="Rectangle 12896" width="328.561" height="0.798" fill="#0c2238"/>
      </g>
    </g>
  </g>
</svg>
