<svg xmlns="http://www.w3.org/2000/svg" width="172.3" height="40.49" viewBox="0 0 172.3 40.49">
  <g id="logo_new" transform="translate(-147.16 -800)">
    <g id="Group_55227" data-name="Group 55227" transform="translate(147.16 800)">
      <ellipse id="Ellipse_4264" data-name="Ellipse 4264" cx="5.051" cy="5.061" rx="5.051" ry="5.061" transform="translate(20.222)" fill="#fd6048"/>
      <path id="Path_682304" data-name="Path 682304" d="M148.862,820.144a1.675,1.675,0,0,0,.752-.177l8.968-3.641h0a8.432,8.432,0,1,0-11.4-7.889v10.122h0A1.683,1.683,0,0,0,148.862,820.144Z" transform="translate(-147.178 -800)" fill="#fd6048"/>
      <path id="Path_682305" data-name="Path 682305" d="M179.152,917.43a8.382,8.382,0,0,0-3.442.735v0l-12.128,4.924h0l-12.144,4.93h0a6.75,6.75,0,0,0-4.276,6.284v4.983a6.742,6.742,0,0,0,6.735,6.749h3.367A6.742,6.742,0,0,0,164,939.283v-3.373a3.367,3.367,0,1,1,6.734,0v3.374a6.742,6.742,0,0,0,6.735,6.749h3.367a6.742,6.742,0,0,0,6.735-6.749V925.866A8.426,8.426,0,0,0,179.152,917.43Z" transform="translate(-147.16 -905.543)" fill="#fd6048"/>
    </g>
    <g id="Group_55228" data-name="Group 55228" transform="translate(197.542 806.779)">
      <path id="Path_682306" data-name="Path 682306" d="M664.366,879.49h-2.16a1.266,1.266,0,0,0-1.264,1.266v8.107a.558.558,0,0,1-.557.558h-9.273a.557.557,0,0,1-.556-.558v-8.107a1.266,1.266,0,0,0-1.264-1.266h-2.16a1.265,1.265,0,0,0-1.263,1.266v22.476a1.266,1.266,0,0,0,1.263,1.266h2.16a1.266,1.266,0,0,0,1.264-1.266v-8.777a.556.556,0,0,1,.556-.557h9.273a.557.557,0,0,1,.557.557v8.777a1.266,1.266,0,0,0,1.264,1.266h2.16a1.265,1.265,0,0,0,1.263-1.266V880.756A1.265,1.265,0,0,0,664.366,879.49Z" transform="translate(-645.87 -878.223)" fill="#212830"/>
      <path id="Path_682307" data-name="Path 682307" d="M888.137,930.875h-1.362a1.236,1.236,0,0,0-1.211,1l-.024.128a.526.526,0,0,1-.831.323,9.911,9.911,0,0,0-5.953-1.9,10.055,10.055,0,0,0-7.211,2.9,10.212,10.212,0,0,0-2.883,7.272,10.131,10.131,0,0,0,15.951,8.355.526.526,0,0,1,.517-.063.514.514,0,0,1,.316.4,1.23,1.23,0,0,0,1.216,1.034h1.476a1.236,1.236,0,0,0,1.234-1.236V932.111A1.237,1.237,0,0,0,888.137,930.875ZM879.058,946.4a5.8,5.8,0,0,1,0-11.592,5.8,5.8,0,0,1,0,11.592Z" transform="translate(-846.153 -924.006)" fill="#212830"/>
      <path id="Path_682308" data-name="Path 682308" d="M1116.321,874.813a10.073,10.073,0,0,0-4.989,1.284.532.532,0,0,1-.542,0,.555.555,0,0,1-.278-.483v-5.8a1.264,1.264,0,0,0-1.262-1.264h-2.029a1.264,1.264,0,0,0-1.262,1.264v23.645a1.264,1.264,0,0,0,1.262,1.264h1.28a1.256,1.256,0,0,0,1.228-.977.555.555,0,0,1,.861-.327,9.9,9.9,0,0,0,5.731,1.76,10.021,10.021,0,0,0,7.24-2.913,10.74,10.74,0,0,0,0-14.55A10.031,10.031,0,0,0,1116.321,874.813Zm-.3,15.969a5.791,5.791,0,0,1,0-11.582,5.791,5.791,0,0,1,0,11.582Z" transform="translate(-1059.479 -868.39)" fill="#212830"/>
      <path id="Path_682309" data-name="Path 682309" d="M1336.133,866.97h-.006a2.341,2.341,0,1,0,.006,0Z" transform="translate(-1264.292 -866.97)" fill="#212830"/>
      <path id="Path_682310" data-name="Path 682310" d="M1337.7,934.93h-2.041a1.259,1.259,0,0,0-1.257,1.258v16.936a1.259,1.259,0,0,0,1.257,1.258h2.041a1.258,1.258,0,0,0,1.256-1.258V936.188A1.258,1.258,0,0,0,1337.7,934.93Z" transform="translate(-1264.841 -928.051)" fill="#212830"/>
      <path id="Path_682311" data-name="Path 682311" d="M1420.863,880.06h-7.644a1.263,1.263,0,0,0-1.26,1.262v22.483a1.262,1.262,0,0,0,1.26,1.262h7.644c7.331,0,12.652-5.263,12.652-12.514S1428.195,880.06,1420.863,880.06Zm-.114,20.581h-3.55a.553.553,0,0,1-.553-.554V885.042a.554.554,0,0,1,.553-.554h3.55a8.077,8.077,0,0,1,0,16.152Z" transform="translate(-1334.565 -878.735)" fill="#212830"/>
      <path id="Path_682312" data-name="Path 682312" d="M1658,930.42a10.457,10.457,0,0,0-7.394,2.89,10.262,10.262,0,0,0,7.041,17.471v.006H1658a10.185,10.185,0,1,0,0-20.367Zm0,15.979a5.8,5.8,0,1,1,5.734-5.8A5.515,5.515,0,0,1,1658,946.4Z" transform="translate(-1546.436 -923.997)" fill="#212830"/>
    </g>
  </g>
</svg>
