<svg xmlns="http://www.w3.org/2000/svg" width="11.241" height="12.49" viewBox="0 0 11.241 12.49">
  <g id="Group_45420" data-name="Group 45420" transform="translate(0 0)">
    <path id="Path_136492" data-name="Path 136492" d="M11.54,2.007h0a.773.773,0,0,1,.766.78v2.6a.774.774,0,0,1-.766.781h0a.774.774,0,0,1-.766-.781v-2.6A.773.773,0,0,1,11.54,2.007Z" transform="translate(-5.922 -2.007)" fill="#fff"/>
    <path id="Path_136493" data-name="Path 136493" d="M10.411,5.651h0a.76.76,0,0,0,.343.648,4.2,4.2,0,0,1,1.356,5.72A4.045,4.045,0,0,1,6.492,13.4,4.2,4.2,0,0,1,5.135,7.68,4.127,4.127,0,0,1,6.483,6.3a.768.768,0,0,0,.352-.653h0a.774.774,0,0,0-.764-.783.757.757,0,0,0-.411.121,5.782,5.782,0,0,0-1.809,7.879A5.562,5.562,0,0,0,11.59,14.71,5.783,5.783,0,0,0,13.4,6.83,5.674,5.674,0,0,0,11.59,4.989a.761.761,0,0,0-1.06.244A.793.793,0,0,0,10.411,5.651Z" transform="translate(-3.005 -3.081)" fill="#fff"/>
  </g>
</svg>
