<svg xmlns="http://www.w3.org/2000/svg" width="81.385" height="19.127" viewBox="0 0 81.385 19.127">
  <g id="logo_svg" data-name="logo svg" transform="translate(-147.16 -800)">
    <g id="Group_55218" data-name="Group 55218" transform="translate(147.16 800)">
      <circle id="Ellipse_4263" data-name="Ellipse 4263" cx="2.391" cy="2.391" r="2.391" transform="translate(9.572 0)" fill="#fd6048"/>
      <path id="Path_682296" data-name="Path 682296" d="M147.976,809.516a.793.793,0,0,0,.356-.084l4.245-1.72h0a3.985,3.985,0,1,0-5.4-3.727v4.782h0A.8.8,0,0,0,147.976,809.516Z" transform="translate(-147.179 -800)" fill="#fd6048"/>
      <path id="Path_682297" data-name="Path 682297" d="M162.3,917.43a3.975,3.975,0,0,0-1.629.347h0l-5.74,2.326h0l-5.748,2.329h0a3.189,3.189,0,0,0-2.024,2.968v2.354a3.188,3.188,0,0,0,3.188,3.188h1.594a3.188,3.188,0,0,0,3.188-3.188V926.16a1.594,1.594,0,1,1,3.188,0v1.594a3.188,3.188,0,0,0,3.188,3.188H163.1a3.188,3.188,0,0,0,3.188-3.188v-6.339A3.984,3.984,0,0,0,162.3,917.43Z" transform="translate(-147.16 -911.815)" fill="#fd6048"/>
    </g>
    <path id="Path_682298" data-name="Path 682298" d="M658.369,883.421v10.617a.431.431,0,0,1-.431.431h-1.022a.431.431,0,0,1-.431-.431v-4.146a.431.431,0,0,0-.431-.431h-4.389a.431.431,0,0,0-.431.431v4.146a.431.431,0,0,1-.431.431h-1.022a.431.431,0,0,1-.431-.431V883.421a.431.431,0,0,1,.431-.431H650.8a.431.431,0,0,1,.431.431v3.83a.431.431,0,0,0,.431.431h4.389a.431.431,0,0,0,.431-.431v-3.83a.431.431,0,0,1,.431-.431h1.022A.431.431,0,0,1,658.369,883.421Z" transform="translate(-478.177 -79.022)" fill="#212830"/>
    <path id="Path_682299" data-name="Path 682299" d="M881.627,934.547v8.022a.416.416,0,0,1-.416.417h-.7a.417.417,0,0,1-.411-.349h0a.417.417,0,0,0-.657-.268,4.641,4.641,0,1,1,.044-7.586.416.416,0,0,0,.657-.255l.011-.06a.416.416,0,0,1,.409-.338h.645A.416.416,0,0,1,881.627,934.547Zm-1.825,4.011a2.895,2.895,0,1,0-2.889,2.905A2.813,2.813,0,0,0,879.8,938.559Z" transform="translate(-690.333 -127.516)" fill="#212830"/>
    <path id="Path_682300" data-name="Path 682300" d="M1118.781,879.652a4.62,4.62,0,0,1-7.22,3.842.43.43,0,0,0-.666.253h0a.43.43,0,0,1-.419.332h-.606a.43.43,0,0,1-.43-.43V872.48a.43.43,0,0,1,.43-.43h.961a.429.429,0,0,1,.43.43v2.738a.429.429,0,0,0,.638.376,4.577,4.577,0,0,1,2.279-.584A4.477,4.477,0,0,1,1118.781,879.652Zm-1.858,0a2.895,2.895,0,1,0-2.889,2.9A2.813,2.813,0,0,0,1116.923,879.651Z" transform="translate(-916.266 -68.605)" fill="#212830"/>
    <path id="Path_682301" data-name="Path 682301" d="M1338.219,870.47h0a.939.939,0,0,1,.939.939h0a.939.939,0,0,1-.939.939h0a.939.939,0,0,1-.939-.939h0A.939.939,0,0,1,1338.219,870.47Zm-.481,3.25h.966a.427.427,0,0,1,.427.427v8a.427.427,0,0,1-.427.427h-.966a.427.427,0,0,1-.427-.427v-8A.427.427,0,0,1,1337.738,873.72Z" transform="translate(-1133.212 -67.1)" fill="#212830"/>
    <path id="Path_682302" data-name="Path 682302" d="M1425.328,889.295a5.593,5.593,0,0,1-5.821,5.744h-3.618a.429.429,0,0,1-.429-.429V883.989a.429.429,0,0,1,.429-.429h3.618A5.585,5.585,0,0,1,1425.328,889.295Zm-1.926,0a3.81,3.81,0,0,0-3.95-3.978h-1.68a.429.429,0,0,0-.429.429v7.107a.429.429,0,0,0,.429.429h1.68A3.82,3.82,0,0,0,1423.4,889.295Z" transform="translate(-1207.653 -79.564)" fill="#212830"/>
    <path id="Path_682303" data-name="Path 682303" d="M1655.865,943.206a4.644,4.644,0,1,1,4.734-4.643,4.573,4.573,0,0,1-4.734,4.643Zm2.882-4.643a2.882,2.882,0,1,0-2.882,2.9A2.788,2.788,0,0,0,1658.747,938.563Z" transform="translate(-1432.054 -127.516)" fill="#212830"/>
  </g>
</svg>
