<svg id="Group_55227" data-name="Group 55227" xmlns="http://www.w3.org/2000/svg" width="375" height="265.255" viewBox="0 0 375 265.255">
  <g id="Group_52324" data-name="Group 52324" transform="translate(0.1 20.253)">
    <g id="Characters" transform="translate(-0.099 49.388)">
      <g id="Group_52158" data-name="Group 52158" transform="translate(60.006 23.529)">
        <path id="Path_565771" data-name="Path 565771" d="M397.794,513.014a2.226,2.226,0,0,0,.031-2.455l-4.406-.054a2.648,2.648,0,0,0,.1,2.454Z" transform="translate(-393.161 -510.506)" fill="#cad0d7"/>
      </g>
      <g id="Group_52159" data-name="Group 52159" transform="translate(58.654 27.582)">
        <path id="Path_565772" data-name="Path 565772" d="M397.71,557.1s-1.088-8.651-4.021-14.943q-.111-.239-.225-.47c-1.694-3.441-3.834-5.636-6.4-4.171-7.221,4.129,1.586,22.269,4.868,25.671s15.433,10.626,16.7,12.554-.613,2.462-.193,3.038,4.367-.705,4.394-3.328-3.764-4.982-3.764-4.982Z" transform="translate(-384.299 -537.057)" fill="#cad0d7"/>
      </g>
      <g id="Group_52160" data-name="Group 52160" transform="translate(57.031 25.938)">
        <path id="Path_565773" data-name="Path 565773" d="M377.038,526.285a13.55,13.55,0,0,0-2.135,5.338c-.728,3.558-1.774,18.412-.9,22.815s11.059-2.8,11.059-2.8l-.926-19.712s-1.8-4.5-2.949-5.643Z" transform="translate(-373.669 -526.285)" fill="#cad0d7"/>
      </g>
      <g id="Group_52161" data-name="Group 52161" transform="translate(52.125 31.276)">
        <path id="Path_565774" data-name="Path 565774" d="M347.663,561.26s-5.588,14.678-6.1,18.078,4.294,15.775,4.294,15.775Z" transform="translate(-341.523 -561.26)" fill="#fff"/>
      </g>
      <g id="Group_52162" data-name="Group 52162" transform="translate(57.219 52.757)">
        <path id="Path_565775" data-name="Path 565775" d="M388.7,706.914l-3.408-2.746-2.113-2.159-8.283.019,2.916,4.348,10.195,2.405Z" transform="translate(-374.896 -702.008)" fill="#0c2238"/>
      </g>
      <g id="Group_52163" data-name="Group 52163" transform="translate(43.647 52.776)">
        <path id="Path_565776" data-name="Path 565776" d="M313.35,707.015a82.415,82.415,0,0,1-2.417,12.971c-.983,3.8-1.875,6.508-1.875,6.508l-1.992,7.417a37.092,37.092,0,0,1-5.554,11.788l-9.342,13-6.2-4.9,6.675-11.671a37.207,37.207,0,0,0,4.667-14.263l1.913-25.733Z" transform="translate(-285.975 -702.128)" fill="#0c2238"/>
      </g>
      <g id="Group_52164" data-name="Group 52164" transform="translate(80.427 111.333)">
        <path id="Path_565777" data-name="Path 565777" d="M534.687,1085.8l.415,2.2a7.792,7.792,0,0,1,3.709-.812c1.508.217,2.624.725,3.732,2.8a9.246,9.246,0,0,1,1.083,3.121l-14.653,2.953-2.014-8.534Z" transform="translate(-526.959 -1085.797)" fill="#fa6c51"/>
      </g>
      <g id="Group_52165" data-name="Group 52165" transform="translate(85.975 113.208)">
        <path id="Path_565778" data-name="Path 565778" d="M563.876,1101.167l-.567-.263a6.6,6.6,0,0,1,2.525-2.822l.326.533A5.969,5.969,0,0,0,563.876,1101.167Z" transform="translate(-563.309 -1098.082)" fill="#0c2238"/>
      </g>
      <g id="Group_52166" data-name="Group 52166" transform="translate(38.312 104.444)">
        <path id="Path_565779" data-name="Path 565779" d="M262.553,1045.554l-1.314,1.815a7.2,7.2,0,0,1,2.9,2.236c.8,1.294,1.132,2.476.258,4.657a9.244,9.244,0,0,1-1.694,2.836l-11.683-9.324,5.335-7.119Z" transform="translate(-251.022 -1040.656)" fill="#fa6c51"/>
      </g>
      <g id="Group_52167" data-name="Group 52167" transform="translate(44.844 110.471)">
        <path id="Path_565780" data-name="Path 565780" d="M297.406,1081.081a5.956,5.956,0,0,0-3.423-.109l-.164-.6a6.588,6.588,0,0,1,3.785.12Z" transform="translate(-293.82 -1080.148)" fill="#0c2238"/>
      </g>
      <g id="Group_52168" data-name="Group 52168" transform="translate(66.957 57.662)">
        <path id="Path_565781" data-name="Path 565781" d="M442.767,734.146l6.749,16.132a75.848,75.848,0,0,1,5.963,17.532c.126.569.264,1.136.389,1.706,1.764,8.091,4.02,18.214,4.02,18.214l-7.712,1.93-5.307-16.843c-1.859-7.308-4.548-13.159-8.168-20.1Z" transform="translate(-438.7 -734.146)" fill="#0c2238"/>
      </g>
      <g id="Group_52169" data-name="Group 52169" transform="translate(49.349 55.041)">
        <path id="Path_565782" data-name="Path 565782" d="M323.843,764.914l-.511-.36c.05-.071,5.081-7.215,7.084-10.753q.126-.223.245-.442a26.277,26.277,0,0,0,2.892-8.883l3.9-27.508.619.088-3.9,27.508a26.9,26.9,0,0,1-2.962,9.093c-.082.15-.165.3-.251.452C328.942,757.673,323.893,764.842,323.843,764.914Z" transform="translate(-323.332 -716.967)" fill="#fff"/>
      </g>
      <g id="Group_52170" data-name="Group 52170" transform="translate(62.862 55.244)">
        <path id="Path_565783" data-name="Path 565783" d="M412.149,723.936l-.274-.562c2.489-1.216,3.785-5.036,3.8-5.074l.593.2C416.21,718.664,414.876,722.6,412.149,723.936Z" transform="translate(-411.875 -718.3)" fill="#fff"/>
      </g>
      <g id="Group_52171" data-name="Group 52171" transform="translate(66.437 57.624)">
        <path id="Path_565784" data-name="Path 565784" d="M435.9,753.517l-.6-.173a144.251,144.251,0,0,0,4.275-19.452l.62.079A144.882,144.882,0,0,1,435.9,753.517Z" transform="translate(-435.295 -733.891)" fill="#fff"/>
      </g>
      <g id="Group_52172" data-name="Group 52172" transform="translate(286.941 31.275)">
        <path id="Path_565785" data-name="Path 565785" d="M1886.185,561.258s-1.742,4.571-3.371,9.2c-.617,1.758-1.221,3.529-1.7,5.058a30.507,30.507,0,0,0-1.029,3.817c-.512,3.4,3.558,13.879,3.558,13.879S1884.836,567.244,1886.185,561.258Z" transform="translate(-1880.036 -561.258)" fill="#fa6c51"/>
      </g>
      <g id="Group_52173" data-name="Group 52173" transform="translate(278.223 45.117)">
        <path id="Path_565786" data-name="Path 565786" d="M1850.292,664.495a82.4,82.4,0,0,1-2.417,12.971c-.983,3.8-1.875,6.508-1.875,6.508l-1.992,7.417a37.1,37.1,0,0,1-5.554,11.788l-9.342,13-6.2-4.9,6.675-11.671a37.212,37.212,0,0,0,4.667-14.263l1.771-26.742c0-.267.008-.533.017-.8q.063-3.187.2-5.854Z" transform="translate(-1822.917 -651.949)" fill="#0c2238"/>
      </g>
      <g id="Group_52174" data-name="Group 52174" transform="translate(293.491 27.583)">
        <path id="Path_565787" data-name="Path 565787" d="M1933.514,545.077a65.358,65.358,0,0,1,2.838,12.029,54.953,54.953,0,0,1,7.617-15.317l3.971,1.471s-.121,2.642-.6,6.154c-.237,1.779-.571,3.779-1.029,5.771-1.117,4.9-2.975,9.767-6.029,11.15a8.023,8.023,0,0,1-6.483.371,7.833,7.833,0,0,1-3.267-2.425c-.267-.346-.579-.8-.917-1.338-3.629-5.779-10.512-21.646-3.9-25.421,2.154-1.229,4.012.129,5.558,2.642Z" transform="translate(-1922.953 -537.064)" fill="#fa6c51"/>
      </g>
      <g id="Group_52175" data-name="Group 52175" transform="translate(291.269 25.848)">
        <path id="Path_565788" data-name="Path 565788" d="M1918.931,530.532s-1.045-3.531-2.458-4.836h-4.27s-2.365,2.725-3.036,13.5-.773,13.089-.773,13.089a22.629,22.629,0,0,0,8.484.177C1921.018,551.614,1918.931,530.532,1918.931,530.532Z" transform="translate(-1908.393 -525.696)" fill="#fa6c51"/>
      </g>
      <g id="Group_52176" data-name="Group 52176" transform="translate(142.171 149.721)">
        <path id="Path_565789" data-name="Path 565789" d="M931.5,1338.337s8.743,9.952,33.272,8.774l1.069-2.824-33.386-6.977Z" transform="translate(-931.501 -1337.31)" fill="#f268b7"/>
      </g>
      <g id="Group_52177" data-name="Group 52177" transform="translate(176.029 25.847)">
        <path id="Path_565790" data-name="Path 565790" d="M1155.811,525.693h5.205a26.463,26.463,0,0,1,3.45,7.494c1.532,4.944-11.122-5.939-11.122-5.939Z" transform="translate(-1153.344 -525.693)" fill="#fa6c51"/>
      </g>
      <g id="Group_52178" data-name="Group 52178" transform="translate(169.986 35.823)">
        <path id="Path_565791" data-name="Path 565791" d="M1134.355,613.271l8.982,21.466.854,2.044.2.469a26.765,26.765,0,0,1-10.334,4.244,32.13,32.13,0,0,1-4.369.511c-1.144.057-2.258.054-3.329.008q-.761-.033-1.492-.094c-.82-.07-1.613-.163-2.372-.274a43.716,43.716,0,0,1-6.5-1.446c-1.423-.435-2.245-.773-2.245-.773.462-1.79.9-3.763,1.307-5.859q.218-1.125.428-2.293c1.4-7.815,2.465-16.914,3.2-24.464.077-.8.152-1.577.222-2.334.716-7.688,1.063-13.262,1.063-13.262l1.257-.164s4.881,15.413,13.1,22.2Z" transform="translate(-1113.748 -591.052)" fill="#cad0d7"/>
      </g>
      <g id="Group_52179" data-name="Group 52179" transform="translate(170.921 32.715)">
        <path id="Path_565792" data-name="Path 565792" d="M1122.806,599.382l2.682-28.694s-2.095,5.49-3.912,10.928c-.265.791-.512,1.55-.73,2.25a27.653,27.653,0,0,0-.918,3.462c-.512,3.4,2.878,12.054,2.878,12.054Z" transform="translate(-1119.876 -570.688)" fill="#fff"/>
      </g>
      <g id="Group_52180" data-name="Group 52180" transform="translate(162.211 84.877)">
        <path id="Path_565793" data-name="Path 565793" d="M1072.882,912.563a37.945,37.945,0,0,0,10.19,1.792l.162-.029a37.159,37.159,0,0,1-4.888,9.6L1069,936.918l-6.2-4.9,6.676-11.673a37.169,37.169,0,0,0,3.372-7.894Z" transform="translate(-1062.809 -912.453)" fill="#efc7a4"/>
      </g>
      <g id="Group_52181" data-name="Group 52181" transform="translate(314.751 22.177)">
        <path id="Path_565794" data-name="Path 565794" d="M2062.251,511.683s.941-3.14,1.039-3.544,1.217-4.1,1.563-3.105a9.044,9.044,0,0,1,.271,2.661,7.929,7.929,0,0,0,3.039-4.61c.821-3.222,1.346-.12,1.094.55a35.864,35.864,0,0,0-.547,4.178,10.6,10.6,0,0,1-1.513,3.739c-1.111,1.525-1.564,1.569-1.564,1.569Z" transform="translate(-2062.251 -501.647)" fill="#efc7a4"/>
      </g>
      <g id="Group_52182" data-name="Group 52182" transform="translate(300.152 51.788)">
        <path id="Path_565795" data-name="Path 565795" d="M1972.184,698.594a2.924,2.924,0,0,1-1.4,2.5,7.832,7.832,0,0,1-3.267-2.425c-.267-.346-.579-.8-.917-1.337a2.936,2.936,0,0,1,5.588,1.262Z" transform="translate(-1966.596 -695.656)" fill="#f7dc10"/>
      </g>
      <g id="Group_52183" data-name="Group 52183" transform="translate(293.092 8.359)">
        <path id="Path_565796" data-name="Path 565796" d="M1932.8,411.879l-4.206-.77-4.941,1.691-3.315,5.576s.289,1.42.432,1.933a9.781,9.781,0,0,0,.785,1.58l1.257,1.326.253.065-.5,5.407h4.18l.428-4.351.227.058,1.946-.672a5.791,5.791,0,0,0,3.13-4.691.884.884,0,0,0,.885-.567.762.762,0,0,0-.446-.914l.54-2.392C1933.663,412.449,1932.8,411.879,1932.8,411.879Z" transform="translate(-1920.337 -411.109)" fill="#efc7a4"/>
      </g>
      <g id="Group_52184" data-name="Group 52184" transform="translate(80.775 60.996)">
        <path id="Path_565797" data-name="Path 565797" d="M531.893,755.988a14.311,14.311,0,0,1,2.529,2.186c1.346,1.442,1.585,3.028.706,4.356a3.783,3.783,0,0,1-3.364,1.835c-.918-.206-.149-.976-.149-.976a1.955,1.955,0,0,0-.158-2.129,13.392,13.392,0,0,0-2.22-1.953A8.008,8.008,0,0,0,531.893,755.988Z" transform="translate(-529.236 -755.988)" fill="#efc7a4"/>
      </g>
      <g id="Group_52185" data-name="Group 52185" transform="translate(56.694 7.537)">
        <path id="Path_565798" data-name="Path 565798" d="M384.148,412.007c.068-.652-.644-.787-.644-.787l-.026-2.452c-.415-2.686-1.388-3.042-1.388-3.042l-4.27.219-4.419,2.784-1.942,6.189s.609,1.315.866,1.782a9.762,9.762,0,0,0,1.128,1.357l1.528,1,.049,2.66,4.406.054v-2.626l.277.005,1.739-1.1a5.791,5.791,0,0,0,1.965-5.286A.884.884,0,0,0,384.148,412.007Z" transform="translate(-371.46 -405.726)" fill="#efc7a4"/>
      </g>
      <g id="Group_52186" data-name="Group 52186" transform="translate(199.641 61.142)">
        <path id="Path_565799" data-name="Path 565799" d="M1310.31,756.944a9.436,9.436,0,0,1,2.658,2.04c1.346,1.442,1.585,3.028.706,4.356a3.782,3.782,0,0,1-3.364,1.835c-.918-.206-.15-.976-.15-.976a1.955,1.955,0,0,0-.158-2.129c-.816-.979-1.954-2.12-1.954-2.12A6.6,6.6,0,0,0,1310.31,756.944Z" transform="translate(-1308.048 -756.944)" fill="#efc7a4"/>
      </g>
      <g id="Group_52187" data-name="Group 52187" transform="translate(175.294 7.537)">
        <path id="Path_565800" data-name="Path 565800" d="M1161.218,412.007c.068-.652-.644-.787-.644-.787l-.026-2.452c-.415-2.686-1.388-3.042-1.388-3.042l-4.27.219-4.419,2.784-1.941,6.189s.609,1.315.866,1.782a9.774,9.774,0,0,0,1.128,1.357l1.528,1,.407,5.069h4.212l-.164-4.981.276.005,1.739-1.1a5.792,5.792,0,0,0,1.965-5.286A.884.884,0,0,0,1161.218,412.007Z" transform="translate(-1148.529 -405.726)" fill="#efc7a4"/>
      </g>
      <g id="Group_52188" data-name="Group 52188" transform="translate(317.247 19.767)">
        <rect id="Rectangle_23969" data-name="Rectangle 23969" width="9.748" height="0.625" transform="matrix(0.491, -0.871, 0.871, 0.491, 0, 8.49)" fill="#0c2238"/>
      </g>
      <g id="Group_52189" data-name="Group 52189" transform="translate(178.73 85.383)">
        <path id="Path_565801" data-name="Path 565801" d="M1173.415,916.964a.888.888,0,0,1-.007.111c-.82-.07-1.613-.163-2.372-.274a1.2,1.2,0,0,1,2.379.163Z" transform="translate(-1171.036 -915.768)" fill="#f268b7"/>
      </g>
      <g id="Group_52190" data-name="Group 52190" transform="translate(174.923 49.241)">
        <path id="Path_565802" data-name="Path 565802" d="M1147.638,680.166a1.2,1.2,0,0,1-1.194,1.2,1.17,1.17,0,0,1-.347-.052c.077-.8.152-1.577.222-2.334a1.122,1.122,0,0,1,.125-.007A1.2,1.2,0,0,1,1147.638,680.166Z" transform="translate(-1146.097 -678.97)" fill="#f268b7"/>
      </g>
      <g id="Group_52191" data-name="Group 52191" transform="translate(59.398 12.083)">
        <path id="Path_565803" data-name="Path 565803" d="M390.727,437.031l-.491-.387a1.618,1.618,0,0,1,.544-.458,1.549,1.549,0,0,0-1.287.23l-.318-.538a1.947,1.947,0,0,1,2.671.323l-.351.481A.747.747,0,0,0,390.727,437.031Z" transform="translate(-389.174 -435.507)" fill="#0c2238"/>
      </g>
      <g id="Group_52192" data-name="Group 52192" transform="translate(66.782 11.919)">
        <path id="Path_565804" data-name="Path 565804" d="M437.565,434.793a.461.461,0,1,0,.552-.347A.461.461,0,0,0,437.565,434.793Z" transform="translate(-437.553 -434.434)" fill="#0c2238"/>
      </g>
      <g id="Group_52193" data-name="Group 52193" transform="translate(65.511 14.296)">
        <path id="Path_565805" data-name="Path 565805" d="M431.288,451.762a2.121,2.121,0,0,1-2.057-1.54l.588-.212a1.507,1.507,0,0,0,1.864,1.075l.172.6A2.079,2.079,0,0,1,431.288,451.762Z" transform="translate(-429.231 -450.01)" fill="#0c2238"/>
      </g>
      <g id="Group_52194" data-name="Group 52194" transform="translate(65.735 10.301)">
        <path id="Path_565806" data-name="Path 565806" d="M430.714,424.841c.1.224.6.218,1.118-.014s.854-.6.753-.826-.6-.218-1.118.015S430.613,424.617,430.714,424.841Z" transform="translate(-430.696 -423.837)" fill="#0c2238"/>
      </g>
      <g id="Group_52195" data-name="Group 52195" transform="translate(53.402)">
        <path id="Path_565807" data-name="Path 565807" d="M366.164,359.934a5.137,5.137,0,0,0-2.429-2.788,7.2,7.2,0,0,0-3.483-.8c-3.071.117-5.279,2.392-6.387,3.85a.015.015,0,0,0,0,.012,11.894,11.894,0,0,0-.679.992c-.075-.008-.167-.013-.267-.017a2.485,2.485,0,0,0-1.433.408,3.83,3.83,0,0,0-1.475,2.821c-.608,4.167,1.213,8.571,3.133,9.187a1.441,1.441,0,0,0,.179.05c.046.008.1.017.146.021.112.013.237.025.367.029.063,0,.121,0,.183,0a2.888,2.888,0,0,0,2.913-1.65,2.46,2.46,0,0,0,1.692-.4l-.35-.521a1.866,1.866,0,0,1-2.875-1.9,1.866,1.866,0,0,1,3.379-.687l.513.013a3.9,3.9,0,0,0,.525-3.229,6.7,6.7,0,0,0,4.221-.879c.083-.054.162-.1.237-.158.1-.067.188-.133.275-.2a5.263,5.263,0,0,0,.65-.608A3.77,3.77,0,0,0,366.164,359.934Zm-2.425,3.95a6.146,6.146,0,0,1-4.321.754l-.342.425A3.673,3.673,0,0,1,359,367.83a2.5,2.5,0,0,0-3.167-.313,2.494,2.494,0,0,0,.487,4.388c-.6,1.475-2.8,1.146-2.892,1.133a.852.852,0,0,1-.212-.071c-1.442-.612-3.163-4.533-2.592-8.467a3.285,3.285,0,0,1,1.192-2.383,1.9,1.9,0,0,1,1.063-.308,1.792,1.792,0,0,1,.383.037l.358-.15c.025-.046,2.575-4.571,6.654-4.729a6.625,6.625,0,0,1,3.183.742,4.54,4.54,0,0,1,2.1,2.392,3.151,3.151,0,0,1-.829,2.954A4.529,4.529,0,0,1,363.739,363.884Z" transform="translate(-349.887 -356.341)" fill="#0c2238"/>
      </g>
      <g id="Group_52196" data-name="Group 52196" transform="translate(56.602 7.328)">
        <path id="Path_565808" data-name="Path 565808" d="M376.967,418.748a6.359,6.359,0,0,1-6.111-4.64l.6-.167a5.73,5.73,0,0,0,5.5,4.183,5.86,5.86,0,0,0,5.608-4.594,5.775,5.775,0,0,0,.11-1.116v-.9l.293-.312a.35.35,0,0,0,.114-.025.315.315,0,0,0,.2-.166.391.391,0,0,0,.016-.308.334.334,0,0,0-.31-.241l-.311-.313v-1.971a5.663,5.663,0,0,0-1.155-3.449l.5-.377a6.285,6.285,0,0,1,1.282,3.826v1.712a.975.975,0,0,1,.581.594,1.019,1.019,0,0,1-.042.8.929.929,0,0,1-.541.476v.646a6.4,6.4,0,0,1-.121,1.234A6.5,6.5,0,0,1,376.967,418.748Z" transform="translate(-370.856 -404.355)" fill="#0c2238"/>
      </g>
      <g id="Group_52197" data-name="Group 52197" transform="translate(53.732 0.303)">
        <path id="Path_565809" data-name="Path 565809" d="M355.268,363.271s.684-2.29,4.4-4.335a6.136,6.136,0,0,1,5.438.018c3.108,1.406,2.7,3.929,2.643,4.175s-.212,2.486-4.108,3.5l-1.132.1-1.178-.084.136,1.28-.107,1.1-.424.932-.253-.158a2.109,2.109,0,0,0-2.109-.659,2.149,2.149,0,0,0-1.685,2.075,2.273,2.273,0,0,0,1.254,2.022l.341.216s-.1,1.179-1.8,1.49-2.262-.322-2.262-.322a8.285,8.285,0,0,1-2.009-3.812,12.483,12.483,0,0,1-.064-5.572A2.453,2.453,0,0,1,355.268,363.271Z" transform="translate(-352.054 -358.325)" fill="#0c2238"/>
      </g>
      <g id="Group_52199" data-name="Group 52199" transform="translate(64.657 12.723)">
        <g id="Group_52198" data-name="Group 52198">
          <path id="Path_565810" data-name="Path 565810" d="M423.636,440.488a.713.713,0,1,0,.636-.783A.713.713,0,0,0,423.636,440.488Z" transform="translate(-423.633 -439.701)" fill="#e64580"/>
        </g>
      </g>
      <g id="Group_52200" data-name="Group 52200" transform="translate(60.326 25.69)">
        <rect id="Rectangle_23970" data-name="Rectangle 23970" width="4.342" height="0.625" fill="#0c2238"/>
      </g>
      <g id="Group_52201" data-name="Group 52201" transform="translate(60.239 23.271)">
        <rect id="Rectangle_23971" data-name="Rectangle 23971" width="4.429" height="0.625" fill="#0c2238"/>
      </g>
      <g id="Group_52202" data-name="Group 52202" transform="translate(82.426 60.731)">
        <path id="Path_565811" data-name="Path 565811" d="M540.869,763.274a.814.814,0,0,1-.691-.266c-.285-.391-.013-.765.186-1.038a1.462,1.462,0,0,0,0-2.012l.522-.344a2.059,2.059,0,0,1-.015,2.723,1.238,1.238,0,0,0-.189.308,3.555,3.555,0,0,0,1.971-.575,3.3,3.3,0,0,0,1.861-2.578c.025-2.419-3.58-4.69-3.617-4.713l.33-.531c.161.1,3.941,2.483,3.912,5.25-.019,1.764-1.648,3.073-3.255,3.587A3.567,3.567,0,0,1,540.869,763.274Z" transform="translate(-540.055 -754.249)" fill="#0c2238"/>
      </g>
      <g id="Group_52203" data-name="Group 52203" transform="translate(58.344 27.269)">
        <path id="Path_565812" data-name="Path 565812" d="M394.766,565.5a37.472,37.472,0,0,1-4.774-3.825c-2.777-2.879-8.594-14.674-7.611-21.544a5.93,5.93,0,0,1,2.813-4.615,3.265,3.265,0,0,1,2.656-.366c1.466.449,2.871,2.02,4.175,4.669l-.561.276c-1.225-2.489-2.5-3.952-3.8-4.348a2.633,2.633,0,0,0-2.163.31,5.339,5.339,0,0,0-2.5,4.161c-.957,6.7,4.728,18.208,7.442,21.022a36.968,36.968,0,0,0,4.688,3.75Z" transform="translate(-382.27 -535.01)" fill="#0c2238"/>
      </g>
      <g id="Group_52204" data-name="Group 52204" transform="translate(80.615 60.923)">
        <path id="Path_565813" data-name="Path 565813" d="M528.51,759.171l-.319-.538a5.555,5.555,0,0,0,2.513-3.123l.608.145A6.08,6.08,0,0,1,528.51,759.171Z" transform="translate(-528.191 -755.51)" fill="#0c2238"/>
      </g>
      <g id="Group_52205" data-name="Group 52205" transform="translate(77.439 57.953)">
        <path id="Path_565814" data-name="Path 565814" d="M507.722,740.423l-.343-.522a11.061,11.061,0,0,0,3.24-3.851l.562.273A11.5,11.5,0,0,1,507.722,740.423Z" transform="translate(-507.379 -736.05)" fill="#0c2238"/>
      </g>
      <g id="Group_52206" data-name="Group 52206" transform="translate(80.719 59.33)">
        <rect id="Rectangle_23972" data-name="Rectangle 23972" width="0.625" height="2.506" transform="translate(0 0.397) rotate(-39.442)" fill="#0c2238"/>
      </g>
      <g id="Group_52207" data-name="Group 52207" transform="translate(80.033 60.577)">
        <rect id="Rectangle_23973" data-name="Rectangle 23973" width="0.625" height="2.166" transform="matrix(0.677, -0.736, 0.736, 0.677, 0, 0.46)" fill="#0c2238"/>
      </g>
      <g id="Group_52208" data-name="Group 52208" transform="translate(79.096 61.546)">
        <rect id="Rectangle_23974" data-name="Rectangle 23974" width="0.625" height="2.108" transform="translate(0 0.497) rotate(-52.608)" fill="#0c2238"/>
      </g>
      <g id="Group_52209" data-name="Group 52209" transform="translate(57.182 52.465)">
        <path id="Path_565815" data-name="Path 565815" d="M379.041,700.913a42.627,42.627,0,0,1-4.382-.2l.072-.621a47.991,47.991,0,0,0,8.27.043l.048.623C381.581,700.874,380.22,700.913,379.041,700.913Z" transform="translate(-374.659 -700.094)" fill="#0c2238"/>
      </g>
      <g id="Group_52210" data-name="Group 52210" transform="translate(58.662 51.066)">
        <rect id="Rectangle_23975" data-name="Rectangle 23975" width="1.744" height="0.625" transform="translate(0 1.721) rotate(-80.632)" fill="#0c2238"/>
      </g>
      <g id="Group_52211" data-name="Group 52211" transform="translate(54.531 58.708)">
        <path id="Path_565816" data-name="Path 565816" d="M357.374,742.672l-.086-.619.043.31-.044-.309a3.644,3.644,0,0,0,1.932-1.06l.459.424A4.219,4.219,0,0,1,357.374,742.672Z" transform="translate(-357.287 -740.993)" fill="#0c2238"/>
      </g>
      <g id="Group_52212" data-name="Group 52212" transform="translate(198.969 111.333)">
        <path id="Path_565817" data-name="Path 565817" d="M1311.371,1085.8l.415,2.2a7.792,7.792,0,0,1,3.709-.812c1.508.217,2.624.725,3.732,2.8a9.245,9.245,0,0,1,1.083,3.121l-14.653,2.953-2.014-8.534Z" transform="translate(-1303.643 -1085.797)" fill="#fa6c51"/>
      </g>
      <g id="Group_52213" data-name="Group 52213" transform="translate(204.517 113.208)">
        <path id="Path_565818" data-name="Path 565818" d="M1340.56,1101.167l-.567-.263a6.6,6.6,0,0,1,2.525-2.822l.326.533A5.967,5.967,0,0,0,1340.56,1101.167Z" transform="translate(-1339.993 -1098.082)" fill="#0c2238"/>
      </g>
      <g id="Group_52214" data-name="Group 52214" transform="translate(198.905 112.285)">
        <path id="Path_565819" data-name="Path 565819" d="M1303.227,1092.665l3.443-.632-2.607,3.692Z" transform="translate(-1303.227 -1092.033)" fill="#0c2238"/>
      </g>
      <g id="Group_52215" data-name="Group 52215" transform="translate(190.292 82.577)">
        <path id="Path_565820" data-name="Path 565820" d="M1256.239,897.388a93.239,93.239,0,0,1,2.926,10.455c1.764,8.091,4.02,18.214,4.02,18.214l-7.712,1.93-5.307-16.843a71.764,71.764,0,0,0-3.374-10.07,27.674,27.674,0,0,0,9.447-3.687Z" transform="translate(-1246.791 -897.388)" fill="#efc7a4"/>
      </g>
      <g id="Group_52216" data-name="Group 52216" transform="translate(62.316 21.033)">
        <path id="Path_565821" data-name="Path 565821" d="M408.294,494.525l2.361,1.1.016-1.473A11.378,11.378,0,0,1,408.294,494.525Z" transform="translate(-408.294 -494.15)" fill="#0c2238"/>
      </g>
      <g id="Group_52217" data-name="Group 52217" transform="translate(62.378 47.348)">
        <path id="Path_565822" data-name="Path 565822" d="M408.7,666.563l1.156,5.6,1.967-.186A35.189,35.189,0,0,1,408.7,666.563Z" transform="translate(-408.703 -666.563)" fill="#0c2238"/>
      </g>
      <g id="Group_52218" data-name="Group 52218" transform="translate(56.382 1.502)">
        <path id="Path_565823" data-name="Path 565823" d="M370.041,369.878l-.623-.044a7.112,7.112,0,0,1,1.682-3.649l.486.394A6.639,6.639,0,0,0,370.041,369.878Z" transform="translate(-369.418 -366.185)" fill="#0c2238"/>
      </g>
      <g id="Group_52219" data-name="Group 52219" transform="translate(85.511 65.972)">
        <path id="Path_565824" data-name="Path 565824" d="M560.58,791.4l-.31-.543c.623-.355.549-1.683.468-2.165l.616-.1C561.392,788.813,561.69,790.772,560.58,791.4Z" transform="translate(-560.27 -788.592)" fill="#0c2238"/>
      </g>
      <g id="Group_52220" data-name="Group 52220" transform="translate(84.156 66.652)">
        <path id="Path_565825" data-name="Path 565825" d="M551.857,795.792l-.468-.415a2.924,2.924,0,0,0,.58-2.219l.615-.111A3.51,3.51,0,0,1,551.857,795.792Z" transform="translate(-551.389 -793.047)" fill="#0c2238"/>
      </g>
      <g id="Group_52221" data-name="Group 52221" transform="translate(56.458 31.276)">
        <path id="Path_565826" data-name="Path 565826" d="M369.912,566.116l.969,6.3.838-11.154Z" transform="translate(-369.912 -561.26)" fill="#0c2238"/>
      </g>
      <g id="Group_52222" data-name="Group 52222" transform="translate(69.158 48.338)">
        <path id="Path_565827" data-name="Path 565827" d="M454.941,674.639l-.289-.444a5.263,5.263,0,0,1-1.478.361l-.049-.623a3.148,3.148,0,0,0,2.058-.878l.557.27A2.883,2.883,0,0,1,454.941,674.639Z" transform="translate(-453.124 -673.055)" fill="#0c2238"/>
      </g>
      <g id="Group_52223" data-name="Group 52223" transform="translate(156.876 104.444)">
        <path id="Path_565828" data-name="Path 565828" d="M1039.384,1045.554l-1.314,1.815a7.2,7.2,0,0,1,2.9,2.236c.8,1.294,1.132,2.476.258,4.657a9.244,9.244,0,0,1-1.694,2.836l-11.683-9.324,5.335-7.119Z" transform="translate(-1027.853 -1040.656)" fill="#fa6c51"/>
      </g>
      <g id="Group_52224" data-name="Group 52224" transform="translate(163.408 110.471)">
        <path id="Path_565829" data-name="Path 565829" d="M1074.237,1081.082a5.962,5.962,0,0,0-3.422-.109l-.163-.6a6.6,6.6,0,0,1,3.785.12Z" transform="translate(-1070.651 -1080.149)" fill="#0c2238"/>
      </g>
      <g id="Group_52225" data-name="Group 52225" transform="translate(160.378 104.393)">
        <path id="Path_565830" data-name="Path 565830" d="M1052.6,1040.322l2.7,2.231-4.5.377Z" transform="translate(-1050.797 -1040.322)" fill="#0c2238"/>
      </g>
      <g id="Group_52226" data-name="Group 52226" transform="translate(178.208 12.083)">
        <path id="Path_565831" data-name="Path 565831" d="M1169.174,437.032l-.491-.387a1.619,1.619,0,0,1,.544-.458,1.548,1.548,0,0,0-1.288.23l-.318-.538a1.947,1.947,0,0,1,2.671.323l-.351.481A.747.747,0,0,0,1169.174,437.032Z" transform="translate(-1167.621 -435.507)" fill="#0c2238"/>
      </g>
      <g id="Group_52227" data-name="Group 52227" transform="translate(185.592 11.919)">
        <path id="Path_565832" data-name="Path 565832" d="M1216.013,434.793a.461.461,0,1,0,.552-.347A.461.461,0,0,0,1216.013,434.793Z" transform="translate(-1216.001 -434.434)" fill="#0c2238"/>
      </g>
      <g id="Group_52228" data-name="Group 52228" transform="translate(184.314 14.322)">
        <path id="Path_565833" data-name="Path 565833" d="M1209.619,451.927a1.986,1.986,0,0,1-1.99-1.591l.6-.161a1.39,1.39,0,0,0,1.65,1.1l.124.613A1.961,1.961,0,0,1,1209.619,451.927Z" transform="translate(-1207.628 -450.176)" fill="#0c2238"/>
      </g>
      <g id="Group_52229" data-name="Group 52229" transform="translate(184.546 10.301)">
        <path id="Path_565834" data-name="Path 565834" d="M1209.162,424.841c.1.224.6.218,1.118-.014s.854-.6.753-.826-.6-.218-1.118.015S1209.061,424.617,1209.162,424.841Z" transform="translate(-1209.144 -423.837)" fill="#0c2238"/>
      </g>
      <g id="Group_52230" data-name="Group 52230" transform="translate(175.644 15.285)">
        <path id="Path_565835" data-name="Path 565835" d="M1151.512,458.567a4.475,4.475,0,0,1-.7-.052l.1-.617c.1.016,2.569.384,2.986-1.409l.609.141A2.8,2.8,0,0,1,1151.512,458.567Z" transform="translate(-1150.817 -456.488)" fill="#0c2238"/>
      </g>
      <g id="Group_52231" data-name="Group 52231" transform="translate(175.413 7.328)">
        <path id="Path_565836" data-name="Path 565836" d="M1155.417,418.748a6.359,6.359,0,0,1-6.111-4.64l.6-.167a5.729,5.729,0,0,0,5.5,4.183,5.86,5.86,0,0,0,5.607-4.595,5.715,5.715,0,0,0,.109-1.115v-.9l.293-.312a.347.347,0,0,0,.114-.025.315.315,0,0,0,.2-.167.39.39,0,0,0,.016-.308.334.334,0,0,0-.31-.241l-.31-.313v-1.971a5.655,5.655,0,0,0-.9-3.086c-.674.96-2.579,3.424-4.872,4.248l-.365-.119a1.867,1.867,0,1,0-.5,2.592l.349.518a2.492,2.492,0,1,1,.522-3.662c2.516-1.039,4.58-4.263,4.6-4.3l.513-.021a6.283,6.283,0,0,1,1.282,3.826v1.712a.974.974,0,0,1,.582.594,1.02,1.02,0,0,1-.041.8.928.928,0,0,1-.541.476v.646a6.344,6.344,0,0,1-.121,1.234A6.5,6.5,0,0,1,1155.417,418.748Z" transform="translate(-1149.306 -404.355)" fill="#0c2238"/>
      </g>
      <g id="Group_52233" data-name="Group 52233" transform="translate(183.468 12.723)">
        <g id="Group_52232" data-name="Group 52232">
          <path id="Path_565837" data-name="Path 565837" d="M1202.085,440.488a.713.713,0,1,0,.636-.783A.713.713,0,0,0,1202.085,440.488Z" transform="translate(-1202.082 -439.701)" fill="#e64580"/>
        </g>
      </g>
      <g id="Group_52234" data-name="Group 52234" transform="translate(178.864 20.968)">
        <rect id="Rectangle_23976" data-name="Rectangle 23976" width="0.625" height="2.612" fill="#0c2238"/>
      </g>
      <g id="Group_52235" data-name="Group 52235" transform="translate(179.176 25.625)">
        <rect id="Rectangle_23977" data-name="Rectangle 23977" width="4.305" height="0.625" fill="#0c2238"/>
      </g>
      <g id="Group_52236" data-name="Group 52236" transform="translate(177.465 27.582)">
        <path id="Path_565838" data-name="Path 565838" d="M1185.14,573.992c-.959-.932-2.751-1.981-6.755-4.734-.587-.4-1.174-.809-1.751-1.212a49.675,49.675,0,0,1-6.247-4.858c-1.541-1.6-4.3-6.448-6.047-11.571-.2-.587-.388-1.178-.558-1.767-1.5-5.218-1.7-10.366,1.738-12.333,2.563-1.464,4.7.73,6.4,4.171q.112.231.224.469c2.935,6.292,4.022,14.945,4.022,14.945l11.365,13.368Z" transform="translate(-1162.751 -537.056)" fill="#cad0d7"/>
      </g>
      <g id="Group_52237" data-name="Group 52237" transform="translate(199.436 60.731)">
        <path id="Path_565839" data-name="Path 565839" d="M1309.316,763.275a.813.813,0,0,1-.69-.266c-.215-.3-.071-.616.056-.9.3-.666.8-1.78-1.979-4.209l.411-.471c3.132,2.734,2.486,4.167,2.138,4.937a2.02,2.02,0,0,0-.107.266,3.528,3.528,0,0,0,1.959-.565,3.3,3.3,0,0,0,1.858-2.575c.025-2.416-3.582-4.691-3.619-4.714l.33-.531c.161.1,3.942,2.483,3.913,5.251-.018,1.764-1.649,3.073-3.257,3.587A3.555,3.555,0,0,1,1309.316,763.275Z" transform="translate(-1306.702 -754.249)" fill="#0c2238"/>
      </g>
      <g id="Group_52238" data-name="Group 52238" transform="translate(199.426 60.924)">
        <path id="Path_565840" data-name="Path 565840" d="M1306.96,759.175l-.319-.538a5.514,5.514,0,0,0,2.512-3.122l.608.144A6.081,6.081,0,0,1,1306.96,759.175Z" transform="translate(-1306.641 -755.515)" fill="#0c2238"/>
      </g>
      <g id="Group_52239" data-name="Group 52239" transform="translate(181.127 21.052)">
        <path id="Path_565841" data-name="Path 565841" d="M1186.742,494.63l2.218,1.784.039-2.14A10.184,10.184,0,0,1,1186.742,494.63Z" transform="translate(-1186.742 -494.274)" fill="#0c2238"/>
      </g>
      <g id="Group_52240" data-name="Group 52240" transform="translate(204.323 65.972)">
        <path id="Path_565842" data-name="Path 565842" d="M1339.03,791.4l-.309-.543c.622-.355.544-1.716.468-2.165l.616-.1C1339.842,788.813,1340.141,790.772,1339.03,791.4Z" transform="translate(-1338.721 -788.592)" fill="#0c2238"/>
      </g>
      <g id="Group_52241" data-name="Group 52241" transform="translate(202.967 66.652)">
        <path id="Path_565843" data-name="Path 565843" d="M1330.308,795.792l-.467-.415a2.923,2.923,0,0,0,.58-2.219l.615-.111A3.512,3.512,0,0,1,1330.308,795.792Z" transform="translate(-1329.841 -793.047)" fill="#0c2238"/>
      </g>
      <g id="Group_52242" data-name="Group 52242" transform="translate(175.269 32.214)">
        <path id="Path_565844" data-name="Path 565844" d="M1148.361,571.324l.522,4.9,1-8.818Z" transform="translate(-1148.361 -567.406)" fill="#0c2238"/>
      </g>
      <g id="Group_52243" data-name="Group 52243" transform="translate(187.969 48.338)">
        <path id="Path_565845" data-name="Path 565845" d="M1233.39,674.639l-.289-.444a5.26,5.26,0,0,1-1.479.361l-.048-.623a3.149,3.149,0,0,0,2.058-.878l.557.27A2.879,2.879,0,0,1,1233.39,674.639Z" transform="translate(-1231.574 -673.055)" fill="#0c2238"/>
      </g>
      <g id="Group_52244" data-name="Group 52244" transform="translate(163.103 4.187)">
        <path id="Path_565846" data-name="Path 565846" d="M1091.708,387.358s.876-.185-1.162-2.017a6.188,6.188,0,0,0-5.756-1.355c-1.318.352-3.709.564-5.194,3.634s-2.016,5.666-3.07,8.659a110.715,110.715,0,0,1-5.4,13.353c-2.042,3.771-2.48,3.873-2.48,3.873a20.842,20.842,0,0,0,9.269,2.671c5,.089,7.384-1.192,7.384-1.192s-.7-8.346-.557-12.063.719-7.979.719-7.979-1.526.532-2.546-1.6a2.392,2.392,0,0,1,1.559-2.6,2.325,2.325,0,0,1,2.522.836A10.945,10.945,0,0,0,1091.708,387.358Z" transform="translate(-1068.649 -383.774)" fill="#0c2238"/>
      </g>
      <g id="Group_52245" data-name="Group 52245" transform="translate(173.547 35.967)">
        <path id="Path_565847" data-name="Path 565847" d="M1137.7,617.477l-.62-.075c.373-3.095.731-6.4,1.065-9.82q.115-1.2.222-2.332c.707-7.594,1.058-13.2,1.062-13.252l.624.039c0,.056-.355,5.667-1.063,13.271-.07.757-.145,1.537-.223,2.335C1138.435,611.069,1138.076,614.377,1137.7,617.477Z" transform="translate(-1137.082 -591.998)" fill="#0c2238"/>
      </g>
      <g id="Group_52246" data-name="Group 52246" transform="translate(172.14 84.672)">
        <path id="Path_565848" data-name="Path 565848" d="M1138.347,913.533c-.545-.022-1.008-.05-1.548-.095-.8-.068-1.609-.161-2.392-.276a44.268,44.268,0,0,1-6.544-1.456l.182-.6a43.662,43.662,0,0,0,6.451,1.435c.771.113,1.563.2,2.354.272.53.044.985.072,1.521.093Z" transform="translate(-1127.863 -911.109)" fill="#0c2238"/>
      </g>
      <g id="Group_52247" data-name="Group 52247" transform="translate(190.216 82.309)">
        <path id="Path_565849" data-name="Path 565849" d="M1246.445,899.887l-.152-.606a32.146,32.146,0,0,0,9.4-3.653l.33.531A32.7,32.7,0,0,1,1246.445,899.887Z" transform="translate(-1246.293 -895.628)" fill="#0c2238"/>
      </g>
      <g id="Group_52248" data-name="Group 52248" transform="translate(184.696 53.426)">
        <path id="Path_565850" data-name="Path 565850" d="M1210.129,706.389s3.721,5.392,7.4,8.218l-1.539-3.624-4.217-3.169S1210.6,706.824,1210.129,706.389Z" transform="translate(-1210.129 -706.389)" fill="#0c2238"/>
      </g>
      <g id="Group_52249" data-name="Group 52249" transform="translate(198.219 59.846)">
        <path id="Path_565851" data-name="Path 565851" d="M1298.988,752.3l-.255-.571a6.674,6.674,0,0,0,2.851-3.282l.582.228A7.207,7.207,0,0,1,1298.988,752.3Z" transform="translate(-1298.733 -748.45)" fill="#0c2238"/>
      </g>
      <g id="Group_52250" data-name="Group 52250" transform="translate(171.425 84.986)">
        <path id="Path_565852" data-name="Path 565852" d="M1128.125,914.2l-4.951,1.284.86-2.309Z" transform="translate(-1123.174 -913.173)" fill="#0c2238"/>
      </g>
      <g id="Group_52251" data-name="Group 52251" transform="translate(190.292 85.213)">
        <path id="Path_565853" data-name="Path 565853" d="M1250.921,914.656l-3.19,3.446-.939-2.395Z" transform="translate(-1246.791 -914.656)" fill="#0c2238"/>
      </g>
      <g id="Group_52252" data-name="Group 52252" transform="translate(182.304 29.563)">
        <path id="Path_565854" data-name="Path 565854" d="M1196.848,551.233a1.2,1.2,0,1,1-1.2-1.2A1.2,1.2,0,0,1,1196.848,551.233Z" transform="translate(-1194.456 -550.037)" fill="#f268b7"/>
      </g>
      <g id="Group_52253" data-name="Group 52253" transform="translate(181.108 57.056)">
        <path id="Path_565855" data-name="Path 565855" d="M1189.011,731.366a1.2,1.2,0,1,1-1.2-1.2A1.2,1.2,0,0,1,1189.011,731.366Z" transform="translate(-1186.619 -730.17)" fill="#f268b7"/>
      </g>
      <g id="Group_52254" data-name="Group 52254" transform="translate(190.54 66.073)">
        <circle id="Ellipse_3958" data-name="Ellipse 3958" cx="1.196" cy="1.196" r="1.196" fill="#f268b7"/>
      </g>
      <g id="Group_52255" data-name="Group 52255" transform="translate(175.269 67.317)">
        <path id="Path_565856" data-name="Path 565856" d="M1150.753,798.6a1.2,1.2,0,1,1-1.2-1.2A1.2,1.2,0,0,1,1150.753,798.6Z" transform="translate(-1148.361 -797.405)" fill="#f268b7"/>
      </g>
      <g id="Group_52256" data-name="Group 52256" transform="translate(185.318 75.616)">
        <path id="Path_565857" data-name="Path 565857" d="M1216.6,852.973a1.2,1.2,0,1,1-1.2-1.2A1.2,1.2,0,0,1,1216.6,852.973Z" transform="translate(-1214.205 -851.777)" fill="#f268b7"/>
      </g>
      <g id="Group_52257" data-name="Group 52257" transform="translate(198.39 79.507)">
        <path id="Path_565858" data-name="Path 565858" d="M1301.889,879.318a1.2,1.2,0,1,1-.854-2.044Z" transform="translate(-1299.85 -877.274)" fill="#f268b7"/>
      </g>
      <g id="Group_52258" data-name="Group 52258" transform="translate(171.293 76.045)">
        <path id="Path_565859" data-name="Path 565859" d="M1123.46,855.689a1.193,1.193,0,0,1-1.146,1.194c.145-.75.288-1.516.428-2.293A1.2,1.2,0,0,1,1123.46,855.689Z" transform="translate(-1122.314 -854.59)" fill="#f268b7"/>
      </g>
      <g id="Group_52259" data-name="Group 52259" transform="translate(171.892 43.642)">
        <path id="Path_565860" data-name="Path 565860" d="M1127.962,643.465a1.2,1.2,0,0,1-1.729,1.072c.218-.7.464-1.459.73-2.25A1.2,1.2,0,0,1,1127.962,643.465Z" transform="translate(-1126.233 -642.287)" fill="#f268b7"/>
      </g>
      <g id="Group_52260" data-name="Group 52260" transform="translate(178.496 39.836)">
        <path id="Path_565861" data-name="Path 565861" d="M1171.706,618.542a1.2,1.2,0,0,1-1.2,1.2,1.165,1.165,0,0,1-.444-.086c-.2-.587-.388-1.178-.557-1.767a1.2,1.2,0,0,1,2.2.657Z" transform="translate(-1169.508 -617.346)" fill="#f268b7"/>
      </g>
      <g id="Group_52261" data-name="Group 52261" transform="translate(186.432 44.087)">
        <circle id="Ellipse_3959" data-name="Ellipse 3959" cx="1.196" cy="1.196" r="1.196" transform="translate(0 0.911) rotate(-22.387)" fill="#f268b7"/>
      </g>
      <g id="Group_52262" data-name="Group 52262" transform="translate(191.348 57.536)">
        <path id="Path_565862" data-name="Path 565862" d="M1256.092,734.512a1.2,1.2,0,0,1-.63,1.054c-.587-.4-1.174-.809-1.751-1.212a1.2,1.2,0,0,1,2.381.159Z" transform="translate(-1253.711 -733.318)" fill="#f268b7"/>
      </g>
      <g id="Group_52263" data-name="Group 52263" transform="translate(175.388 61.064)">
        <path id="Path_565863" data-name="Path 565863" d="M1156.31,762.931l-4.236-.261a3.13,3.13,0,0,1-2.923-3.306h0a3.13,3.13,0,0,1,3.307-2.923l4.236.261a3.13,3.13,0,0,1,2.923,3.306h0A3.13,3.13,0,0,1,1156.31,762.931Z" transform="translate(-1149.145 -756.435)" fill="#fa6c51"/>
      </g>
      <g id="Group_52264" data-name="Group 52264" transform="translate(183.236 54.41)">
        <path id="Path_565864" data-name="Path 565864" d="M1201.092,721.25l-.527-.335c1.439-2.267,2.184-8.02,2.191-8.078l.62.079C1203.346,713.158,1202.606,718.865,1201.092,721.25Z" transform="translate(-1200.565 -712.837)" fill="#fa6c51"/>
      </g>
      <g id="Group_52265" data-name="Group 52265" transform="translate(175.717 36.357)">
        <path id="Path_565865" data-name="Path 565865" d="M1153.1,619.672c-1.5-6.818-1.8-24.927-1.806-25.109l.625-.01c0,.181.3,18.228,1.792,24.983Z" transform="translate(-1151.297 -594.553)" fill="#fa6c51"/>
      </g>
      <g id="Group_52269" data-name="Group 52269" transform="translate(315.003 111.333)">
        <path id="Path_565870" data-name="Path 565870" d="M2071.629,1085.8l.415,2.2a7.791,7.791,0,0,1,3.709-.812c1.508.217,2.625.725,3.733,2.8a9.237,9.237,0,0,1,1.083,3.121l-14.653,2.953-2.015-8.534Z" transform="translate(-2063.901 -1085.797)" fill="#fa6c51"/>
      </g>
      <g id="Group_52270" data-name="Group 52270" transform="translate(320.551 113.208)">
        <path id="Path_565871" data-name="Path 565871" d="M2100.819,1101.166l-.567-.262a6.594,6.594,0,0,1,2.525-2.822l.327.533A5.965,5.965,0,0,0,2100.819,1101.166Z" transform="translate(-2100.252 -1098.082)" fill="#0c2238"/>
      </g>
      <g id="Group_52271" data-name="Group 52271" transform="translate(272.888 104.444)">
        <path id="Path_565872" data-name="Path 565872" d="M1799.5,1045.554l-1.313,1.815a7.2,7.2,0,0,1,2.9,2.236c.8,1.294,1.132,2.476.258,4.657a9.244,9.244,0,0,1-1.694,2.836l-11.683-9.324,5.335-7.119Z" transform="translate(-1787.965 -1040.656)" fill="#fa6c51"/>
      </g>
      <g id="Group_52272" data-name="Group 52272" transform="translate(279.421 110.471)">
        <path id="Path_565873" data-name="Path 565873" d="M1834.349,1081.081a5.96,5.96,0,0,0-3.422-.109l-.164-.6a6.587,6.587,0,0,1,3.785.12Z" transform="translate(-1830.763 -1080.148)" fill="#0c2238"/>
      </g>
      <g id="Group_52273" data-name="Group 52273" transform="translate(296.707 11.956)">
        <path id="Path_565874" data-name="Path 565874" d="M1945.272,436.291l-.389-.489a1.621,1.621,0,0,1,.635-.321,1.544,1.544,0,0,0-1.306-.072l-.186-.6a1.947,1.947,0,0,1,2.525.93l-.452.387A.745.745,0,0,0,1945.272,436.291Z" transform="translate(-1944.026 -434.679)" fill="#0c2238"/>
      </g>
      <g id="Group_52274" data-name="Group 52274" transform="translate(303.897 13.361)">
        <path id="Path_565875" data-name="Path 565875" d="M1991.182,444.144a.461.461,0,1,0,.616-.211A.461.461,0,0,0,1991.182,444.144Z" transform="translate(-1991.135 -443.885)" fill="#0c2238"/>
      </g>
      <g id="Group_52275" data-name="Group 52275" transform="translate(302.184 15.424)">
        <path id="Path_565876" data-name="Path 565876" d="M1982.042,459.5a2.13,2.13,0,0,1-2.134-2.032l.621-.07a1.5,1.5,0,0,0,1.566,1.476l.029.624Z" transform="translate(-1979.908 -457.398)" fill="#0c2238"/>
      </g>
      <g id="Group_52276" data-name="Group 52276" transform="translate(303.152 11.763)">
        <path id="Path_565877" data-name="Path 565877" d="M1986.257,434.084c.046.241.535.35,1.091.243s.97-.389.923-.631-.535-.35-1.091-.243S1986.211,433.843,1986.257,434.084Z" transform="translate(-1986.254 -433.412)" fill="#0c2238"/>
      </g>
      <g id="Group_52277" data-name="Group 52277" transform="translate(295.341 8.948)">
        <path id="Path_565878" data-name="Path 565878" d="M1937.567,421.676a2.492,2.492,0,1,1,2.155-3.739,4.533,4.533,0,0,0,1.671-2.667l.418-.245c.022.008,2.152.784,3.534-.056l.325.534a4.979,4.979,0,0,1-3.731.218,5.4,5.4,0,0,1-2.167,2.956l-.46-.153a1.867,1.867,0,1,0-1.088,2.406l.221.585A2.481,2.481,0,0,1,1937.567,421.676Z" transform="translate(-1935.072 -414.969)" fill="#0c2238"/>
      </g>
      <g id="Group_52278" data-name="Group 52278" transform="translate(292.852 4.227)">
        <path id="Path_565879" data-name="Path 565879" d="M1932.075,389.142a2.813,2.813,0,0,0-.737-4.792,3.122,3.122,0,0,0-3.354.4c-.892-.258-4.888-1.2-7.3,1.854-2.4,3.042-1.883,8.8-1.85,9.163a6.372,6.372,0,0,0,4.879,5.912c.013,0,.029,0,.042.008a6.27,6.27,0,0,0,1.346.142,5.473,5.473,0,0,0,.7-.042,6.5,6.5,0,0,0,5.138-3.637,6.419,6.419,0,0,0,.4-1.175l.15-.629a.922.922,0,0,0,.633-.337.994.994,0,0,0,.225-.771.958.958,0,0,0-.429-.713l.4-1.667A6.1,6.1,0,0,0,1932.075,389.142Zm-.371,3.571-.454,1.921.233.375a.329.329,0,0,1,.242.3.373.373,0,0,1-.083.3.32.32,0,0,1-.234.117.528.528,0,0,1-.117,0l-.354.233-.208.871a5.7,5.7,0,0,1-6.879,4.242,5.729,5.729,0,0,1-4.033-3.571q-.069-.175-.125-.362l-.075-.275a6.008,6.008,0,0,1-.158-1.129v-.017c0-.017-.038-.375-.054-.95v0c-.054-1.779.058-5.6,1.771-7.771a5.341,5.341,0,0,1,4.367-1.962,8.321,8.321,0,0,1,2.417.367l.317-.067a2.3,2.3,0,0,1,.329-.258,2.377,2.377,0,0,1,1.7-.375,2.762,2.762,0,0,1,.771.225,2.208,2.208,0,0,1,1.408,2.029,2.1,2.1,0,0,1-.942,1.8l-.008.025-.058.171-.071.208.013.025v0c.042.092.079.187.113.279A5.489,5.489,0,0,1,1931.7,392.712Z" transform="translate(-1918.765 -384.039)" fill="#0c2238"/>
      </g>
      <g id="Group_52280" data-name="Group 52280" transform="translate(301.58 13.706)">
        <g id="Group_52279" data-name="Group 52279">
          <path id="Path_565880" data-name="Path 565880" d="M1975.956,446.763a.714.714,0,1,0,.8-.616A.713.713,0,0,0,1975.956,446.763Z" transform="translate(-1975.95 -446.141)" fill="#e64580"/>
        </g>
      </g>
      <g id="Group_52281" data-name="Group 52281" transform="translate(295.188 25.625)">
        <rect id="Rectangle_23978" data-name="Rectangle 23978" width="4.305" height="0.625" fill="#0c2238"/>
      </g>
      <g id="Group_52282" data-name="Group 52282" transform="translate(301.533 57.662)">
        <path id="Path_565881" data-name="Path 565881" d="M1979.709,734.146l6.749,16.132a75.864,75.864,0,0,1,5.963,17.532c.126.569.264,1.136.389,1.706,1.764,8.091,4.02,18.214,4.02,18.214l-7.712,1.93-5.307-16.843c-1.859-7.308-4.548-13.159-8.168-20.1Z" transform="translate(-1975.642 -734.146)" fill="#0c2238"/>
      </g>
      <g id="Group_52283" data-name="Group 52283" transform="translate(293.173 27.261)">
        <path id="Path_565882" data-name="Path 565882" d="M1931.919,565.213a8.092,8.092,0,0,1-3.407-2.535c-.283-.366-.606-.838-.927-1.354-2.79-4.443-8.029-15.711-6.409-22.175a5.583,5.583,0,0,1,2.615-3.682c2.106-1.2,4.118-.277,5.979,2.749l-.532.328c-1.675-2.722-3.356-3.55-5.137-2.534a4.981,4.981,0,0,0-2.319,3.292c-1.556,6.207,3.7,17.5,6.333,21.692.311.5.622.953.9,1.313a7.6,7.6,0,0,0,3.133,2.325Z" transform="translate(-1920.871 -534.957)" fill="#0c2238"/>
      </g>
      <g id="Group_52284" data-name="Group 52284" transform="translate(314.398 32.016)">
        <rect id="Rectangle_23979" data-name="Rectangle 23979" width="0.625" height="4.234" transform="translate(0 0.586) rotate(-69.675)" fill="#0c2238"/>
      </g>
      <g id="Group_52285" data-name="Group 52285" transform="translate(293.173 27.261)">
        <path id="Path_565883" data-name="Path 565883" d="M1933.6,565.694a9.661,9.661,0,0,1-1.679-.483,8.087,8.087,0,0,1-3.406-2.534c-.283-.366-.606-.838-.927-1.354-2.79-4.443-8.029-15.711-6.409-22.175a5.583,5.583,0,0,1,2.615-3.682c2.106-1.2,4.118-.277,5.979,2.749l-.532.328c-1.675-2.722-3.356-3.55-5.137-2.534a4.981,4.981,0,0,0-2.319,3.292c-1.556,6.207,3.7,17.5,6.333,21.692.311.5.622.953.9,1.313a7.6,7.6,0,0,0,3.133,2.325,9.112,9.112,0,0,0,1.558.448Z" transform="translate(-1920.871 -534.957)" fill="#0c2238"/>
      </g>
      <g id="Group_52286" data-name="Group 52286" transform="translate(314.398 32.016)">
        <rect id="Rectangle_23980" data-name="Rectangle 23980" width="0.625" height="4.234" transform="translate(0 0.586) rotate(-69.675)" fill="#0c2238"/>
      </g>
      <g id="Group_52287" data-name="Group 52287" transform="translate(291.233 52.3)">
        <path id="Path_565884" data-name="Path 565884" d="M1913.439,699.956a38.655,38.655,0,0,1-5.278-.33l.1-.618a40.97,40.97,0,0,0,8.4.2l.048.623C1915.543,699.922,1914.442,699.956,1913.439,699.956Z" transform="translate(-1908.161 -699.009)" fill="#0c2238"/>
      </g>
      <g id="Group_52288" data-name="Group 52288" transform="translate(283.925 55.041)">
        <path id="Path_565885" data-name="Path 565885" d="M1860.785,764.914l-.511-.36c.051-.071,5.082-7.215,7.085-10.753q.125-.222.245-.442a26.268,26.268,0,0,0,2.893-8.883l3.9-27.508.618.088-3.9,27.508a26.9,26.9,0,0,1-2.962,9.093q-.122.225-.25.452C1865.885,757.673,1860.836,764.842,1860.785,764.914Z" transform="translate(-1860.274 -716.967)" fill="#fff"/>
      </g>
      <g id="Group_52289" data-name="Group 52289" transform="translate(297.439 55.244)">
        <path id="Path_565886" data-name="Path 565886" d="M1949.091,723.936l-.274-.562c2.489-1.216,3.785-5.036,3.8-5.074l.593.2C1953.152,718.664,1951.818,722.6,1949.091,723.936Z" transform="translate(-1948.817 -718.3)" fill="#fff"/>
      </g>
      <g id="Group_52290" data-name="Group 52290" transform="translate(297.485 21.473)">
        <path id="Path_565887" data-name="Path 565887" d="M1949.118,497.034l2.2,2.478.228-2.313A11.2,11.2,0,0,1,1949.118,497.034Z" transform="translate(-1949.118 -497.034)" fill="#0c2238"/>
      </g>
      <g id="Group_52291" data-name="Group 52291" transform="translate(297.097 47.619)">
        <path id="Path_565888" data-name="Path 565888" d="M1946.577,668.342l1.261,5.324,1.395-.132A56.975,56.975,0,0,1,1946.577,668.342Z" transform="translate(-1946.577 -668.342)" fill="#0c2238"/>
      </g>
      <g id="Group_52292" data-name="Group 52292" transform="translate(291.281 32.301)">
        <path id="Path_565889" data-name="Path 565889" d="M1908.473,571.807l.522,4.9.9-8.731Z" transform="translate(-1908.473 -567.977)" fill="#0c2238"/>
      </g>
      <g id="Group_52293" data-name="Group 52293" transform="translate(303.959 48.151)">
        <path id="Path_565890" data-name="Path 565890" d="M1993.812,674.1l-.554-.288a9.358,9.358,0,0,0,.407-.916,7.476,7.476,0,0,1-2.032.616l-.093-.618c.554-.084,2.083-.439,2.5-1.069l.56.26A12.474,12.474,0,0,1,1993.812,674.1Z" transform="translate(-1991.54 -671.826)" fill="#0c2238"/>
      </g>
      <g id="Group_52294" data-name="Group 52294" transform="translate(314.224 22.141)">
        <path id="Path_565891" data-name="Path 565891" d="M2059.364,511.706l-.568-.26a22.314,22.314,0,0,0,1.121-2.964l.042-.182c.586-2.575,1.076-3.7,1.69-3.873a.444.444,0,0,1,.449.118c.383.383.287,1.775.125,2.825a13.5,13.5,0,0,0,2.343-3.726c.762-1.841,1.065-2.186,1.419-2.23a.5.5,0,0,1,.472.225c.6.8-.295,4.5-2.044,6.33l-.451-.432a8.392,8.392,0,0,0,2.035-5.408,9.334,9.334,0,0,0-.853,1.754,13.518,13.518,0,0,1-3.232,4.7l-.505-.322a9.25,9.25,0,0,0,.291-3.144c-.209.222-.591.961-1.13,3.323l-.042.185A22.267,22.267,0,0,1,2059.364,511.706Z" transform="translate(-2058.796 -501.41)" fill="#0c2238"/>
      </g>
      <g id="Group_52295" data-name="Group 52295" transform="translate(320.079 25.321)">
        <path id="Path_565892" data-name="Path 565892" d="M2097.639,526.408l-.482-.4a6.075,6.075,0,0,0,.968-3.717l.623-.046A6.616,6.616,0,0,1,2097.639,526.408Z" transform="translate(-2097.157 -522.247)" fill="#0c2238"/>
      </g>
      <g id="Group_52296" data-name="Group 52296" transform="translate(318.212 27.525)">
        <path id="Path_565893" data-name="Path 565893" d="M2085.455,543.105l-.531-.33c.236-.38.524-.765.829-1.172,1.007-1.342,2.147-2.863,1.789-4.8l.615-.113c.408,2.211-.874,3.92-1.9,5.293C2085.956,542.375,2085.676,542.748,2085.455,543.105Z" transform="translate(-2084.923 -536.686)" fill="#0c2238"/>
      </g>
      <g id="Group_52297" data-name="Group 52297" transform="translate(293.406 14.947)">
        <path id="Path_565894" data-name="Path 565894" d="M1922.935,457.013a3.382,3.382,0,0,1-.538-.045l.1-.617c2.19.35,2.636-1.981,2.654-2.08l.615.111A3.02,3.02,0,0,1,1922.935,457.013Z" transform="translate(-1922.397 -454.271)" fill="#0c2238"/>
      </g>
      <g id="Group_52298" data-name="Group 52298" transform="translate(293.167 4.589)">
        <path id="Path_565895" data-name="Path 565895" d="M1929.809,387.109a3.076,3.076,0,0,1,2.8-.6c1.934.462,1.92,2.735,1.92,2.735a2.373,2.373,0,0,1-2.079,2.157,3.838,3.838,0,0,1-2.821-.285,5.322,5.322,0,0,1-1.256,2.381,4.783,4.783,0,0,0-.861.666,2.263,2.263,0,0,0-2.2-1.354c-1.668.044-2,1.834-2,2.193a2.6,2.6,0,0,0,.814,1.727s-.246,1.441-1.012,1.918a2.68,2.68,0,0,1-1.968.438,15.7,15.7,0,0,1-.32-3.235,18.485,18.485,0,0,1,.827-5.181,5.348,5.348,0,0,1,3.572-3.644A7.491,7.491,0,0,1,1929.809,387.109Z" transform="translate(-1920.827 -386.407)" fill="#0c2238"/>
      </g>
      <g id="Group_52299" data-name="Group 52299" transform="translate(302.012 4.427)">
        <path id="Path_565896" data-name="Path 565896" d="M1979.345,387.321l-.562-.273a3.426,3.426,0,0,1,2.281-1.7l.13.611A2.811,2.811,0,0,0,1979.345,387.321Z" transform="translate(-1978.783 -385.344)" fill="#0c2238"/>
      </g>
      <g id="Group_52300" data-name="Group 52300" transform="translate(315.265 34.219)">
        <rect id="Rectangle_23981" data-name="Rectangle 23981" width="0.625" height="3.249" transform="translate(0 0.588) rotate(-70.216)" fill="#0c2238"/>
      </g>
      <g id="Group_52301" data-name="Group 52301" transform="translate(0 121.797)">
        <path id="Path_565897" data-name="Path 565897" d="M113.05,1155.718l-17.108,73.608H0v-73.608Z" transform="translate(0 -1155.51)" fill="#0c2238"/>
        <path id="Path_565898" data-name="Path 565898" d="M113.05,1154.353H0v.417H112.788l-17.017,73.2-3.65.2h4.033l17.1-73.562Z" transform="translate(0 -1154.353)" fill="#0c2238"/>
      </g>
      <g id="Group_52302" data-name="Group 52302" transform="translate(251.725 121.797)">
        <path id="Path_565899" data-name="Path 565899" d="M1773.711,1155.718v73.608H1667.748l-17.108-73.608Z" transform="translate(-1650.436 -1155.51)" fill="#0c2238"/>
        <path id="Path_565900" data-name="Path 565900" d="M1649.506,1154.353l-.2.255,17.1,73.562h4.338l-3.954-.2-17.013-73.2h122.617l.192,2.129v-2.546Z" transform="translate(-1649.302 -1154.353)" fill="#0c2238"/>
      </g>
      <g id="Group_52303" data-name="Group 52303" transform="translate(132.108 121.797)">
        <rect id="Rectangle_23982" data-name="Rectangle 23982" width="99.975" height="5.853" transform="translate(0.21 0.21)" fill="#0c2238"/>
        <path id="Path_565901" data-name="Path 565901" d="M965.757,1154.353H865.782l-.208.208v5.854l.208.208h99.975l.208-.208v-5.854Zm-.208,5.854H865.991v-5.438h99.558Z" transform="translate(-865.574 -1154.353)" fill="#0c2238"/>
      </g>
      <g id="Group_52304" data-name="Group 52304" transform="translate(142.14 127.806)">
        <path id="Path_565902" data-name="Path 565902" d="M931.3,1216.756a128.5,128.5,0,0,1,5.131-13.061c2.1-3.778,3.249-10.638,31.769-9.913,30.712.78,49.7-2.275,49.083,4.365s-23.2,10.562-34.217,14.086-14.944,3.731-18.231,12.5c-.078.209-.156.446-.233.708Z" transform="translate(-931.302 -1193.729)" fill="#efc7a4"/>
      </g>
      <g id="Group_52305" data-name="Group 52305" transform="translate(141.213 144.329)">
        <path id="Path_565903" data-name="Path 565903" d="M928.531,1301.983s15.416,9.479,33.608,9.647a20.981,20.981,0,0,0-2.793,7.174l-34.118-7.827Z" transform="translate(-925.228 -1301.983)" fill="#fff"/>
      </g>
      <g id="Group_52306" data-name="Group 52306" transform="translate(172.154 127.195)">
        <path id="Path_565904" data-name="Path 565904" d="M1128.062,1204.039l-.108-.615c4.992-.875,18.165-3.813,19.165-6.86a2.361,2.361,0,0,0-.406-2.216c-1.8-2.474-7.634-4-12.037-4h-.055l0-.625h.059c4.656,0,10.6,1.585,12.541,4.254a2.958,2.958,0,0,1,.494,2.778C1146.392,1200.783,1128.809,1203.908,1128.062,1204.039Z" transform="translate(-1127.954 -1189.726)" fill="#0c2238"/>
      </g>
      <g id="Group_52307" data-name="Group 52307" transform="translate(144.348 143.945)">
        <path id="Path_565905" data-name="Path 565905" d="M979.664,1309.645c-18.8-.088-33.75-9.554-33.9-9.65l.338-.526c.147.095,14.948,9.464,33.564,9.55Z" transform="translate(-945.766 -1299.47)" fill="#0c2238"/>
      </g>
      <g id="Group_52308" data-name="Group 52308" transform="translate(120.604 148.026)">
        <path id="Path_565906" data-name="Path 565906" d="M851.615,1338.6s-3.542,18.821-6.408,36.121H791.482l17.175-47.421a39.545,39.545,0,0,0,4.188,2.55s0,0,.008,0c.108.063.221.117.338.183,0,0,0,0,.008,0a76.66,76.66,0,0,0,32.683,8.525h.008c.083,0,.163.008.25.008h.008c.1,0,.192.008.287.008Q848.955,1338.67,851.615,1338.6Z" transform="translate(-791.286 -1327.132)" fill="#0c2238"/>
        <path id="Path_565907" data-name="Path 565907" d="M850.52,1337.465c-1.7.05-3.421.042-5.113-.017h-.058c-.042,0-.079,0-.121,0h-.092a.045.045,0,0,1-.021,0h-.058c-.083,0-.167,0-.246-.008q-.5-.019-1-.05h0a77.079,77.079,0,0,1-30.8-8.033s0,0-.008,0c-.275-.142-.542-.279-.787-.413l-.3-.162-.046-.025-.012,0s-.013,0-.017-.008,0,0-.008,0a41.878,41.878,0,0,1-4.117-2.508H807.7l-.012-.012-.317.1L790.2,1373.724l.05.071h54.079c2.833-17.092,6.367-35.9,6.4-36.083Zm-6.579,36.121h-53.25L807.67,1326.7a44.467,44.467,0,0,0,3.987,2.409h0v0l.021.013.329.175c.092.046.171.1.267.133l0,0a0,0,0,0,0,0,0,77.032,77.032,0,0,0,30.937,8.329h.025c.508.033,1.025.058,1.542.079.087,0,.175,0,.263.009s.163.008.237.008h.05c1.629.054,3.287.063,4.933.025C849.845,1340.186,846.591,1357.611,843.941,1373.586Z" transform="translate(-790.199 -1326.207)" fill="#0c2238"/>
      </g>
      <g id="Group_52309" data-name="Group 52309" transform="translate(145.046 147.297)">
        <path id="Path_565908" data-name="Path 565908" d="M955.45,1324.673a1.867,1.867,0,1,1-1.867-1.867A1.867,1.867,0,0,1,955.45,1324.673Z" transform="translate(-951.505 -1322.596)" fill="#0c2238"/>
        <path id="Path_565909" data-name="Path 565909" d="M952.415,1321.429a2.082,2.082,0,0,0-2.075,2.079,2.03,2.03,0,0,0,.154.779,2.076,2.076,0,1,0,1.921-2.858Zm0,3.738a1.65,1.65,0,0,1-1.4-.771,1.63,1.63,0,0,1-.263-.887,1.66,1.66,0,1,1,1.658,1.658Z" transform="translate(-950.34 -1321.429)" fill="#0c2238"/>
      </g>
      <g id="Group_52310" data-name="Group 52310" transform="translate(138.096 147.875)">
        <path id="Path_565910" data-name="Path 565910" d="M909.836,1325.383a19.688,19.688,0,0,0-5.03,0c.332.595,2.321,1.688,4.074,2.71Z" transform="translate(-904.806 -1325.222)" fill="#0c2238"/>
      </g>
      <g id="Group_52311" data-name="Group 52311" transform="translate(175.597 156.697)">
        <path id="Path_565911" data-name="Path 565911" d="M1151.427,1383.02a20.082,20.082,0,0,1,4.416,2.589c-.6.331-3.3.14-5.33.088Z" transform="translate(-1150.513 -1383.02)" fill="#0c2238"/>
      </g>
      <g id="Group_52312" data-name="Group 52312" transform="translate(298.944 30.684)">
        <path id="Path_565912" data-name="Path 565912" d="M1963.787,562.294a2.937,2.937,0,1,1-2.246-4.913c.292.471.571.983.837,1.529.075.154.15.312.225.471C1963.037,560.311,1963.433,561.295,1963.787,562.294Z" transform="translate(-1958.679 -557.382)" fill="#f7dc10"/>
      </g>
      <g id="Group_52313" data-name="Group 52313" transform="translate(288.015 40.48)">
        <path id="Path_565913" data-name="Path 565913" d="M1887.41,626.564a3.163,3.163,0,0,1-.338.058c.483-1.529,1.088-3.3,1.7-5.058a2.9,2.9,0,0,1,.85,1.488A2.934,2.934,0,0,1,1887.41,626.564Z" transform="translate(-1887.072 -621.564)" fill="#f7dc10"/>
      </g>
      <g id="Group_52314" data-name="Group 52314" transform="translate(314.581 39.909)">
        <path id="Path_565914" data-name="Path 565914" d="M2064.432,617.849c-.237,1.779-.571,3.779-1.03,5.771a2.937,2.937,0,0,1,.671-5.8A2.527,2.527,0,0,1,2064.432,617.849Z" transform="translate(-2061.136 -617.824)" fill="#f7dc10"/>
      </g>
      <g id="Group_52315" data-name="Group 52315" transform="translate(291.352 45.117)">
        <path id="Path_565915" data-name="Path 565915" d="M1911.806,654.87a2.932,2.932,0,0,1-2.867,2.933q.063-3.187.2-5.854A2.933,2.933,0,0,1,1911.806,654.87Z" transform="translate(-1908.939 -651.949)" fill="#f7dc10"/>
      </g>
      <g id="Group_52316" data-name="Group 52316" transform="translate(162.871 3.901)">
        <path id="Path_565916" data-name="Path 565916" d="M1077.3,414.9a19.863,19.863,0,0,1-10.115-2.724l-.058-.469c2.425-2.691,5.615-10.146,9.482-22.158.1-.325.188-.583.247-.763,1.083-3.293,2.37-6.077,7.168-6.8a6.363,6.363,0,0,1,6.851,3.4l-.573.251a5.647,5.647,0,0,0-6.185-3.033c-4.454.668-5.614,3.171-6.667,6.374-.059.179-.142.436-.246.759-3.767,11.7-6.917,19.132-9.367,22.1a19.517,19.517,0,0,0,15.842,1.342c-.186-2.024-1.311-15.172.354-19.932l.59.206c-1.723,4.926-.314,19.759-.3,19.909l-.2.324A19.9,19.9,0,0,1,1077.3,414.9Z" transform="translate(-1067.129 -381.901)" fill="#0c2238"/>
      </g>
      <g id="Group_52317" data-name="Group 52317" transform="translate(164.042 30.734)">
        <path id="Path_565917" data-name="Path 565917" d="M1075.263,563.01l-.462-.421a19.407,19.407,0,0,0,2.872-4.879l.573.25A19.556,19.556,0,0,1,1075.263,563.01Z" transform="translate(-1074.801 -557.71)" fill="#96e3f5"/>
      </g>
      <g id="Group_52318" data-name="Group 52318" transform="translate(165.271 33.692)">
        <path id="Path_565918" data-name="Path 565918" d="M1083.34,579.865l-.484-.4a11.259,11.259,0,0,0,1.457-2.381l.579.237A11.687,11.687,0,0,1,1083.34,579.865Z" transform="translate(-1082.856 -577.089)" fill="#96e3f5"/>
      </g>
      <g id="Group_52319" data-name="Group 52319" transform="translate(177.147 27.269)">
        <path id="Path_565919" data-name="Path 565919" d="M1174.689,566.568a51.362,51.362,0,0,1-6.293-4.9c-1.586-1.644-4.376-6.581-6.118-11.687-.211-.623-.4-1.222-.562-1.782-1.311-4.548-2.049-10.441,1.883-12.69a3.269,3.269,0,0,1,2.657-.365c1.466.449,2.871,2.02,4.175,4.669l-.561.276c-1.225-2.489-2.5-3.951-3.8-4.348a2.633,2.633,0,0,0-2.164.31c-3.58,2.047-2.842,7.642-1.592,11.974.159.551.345,1.141.553,1.754,1.714,5.025,4.437,9.858,5.976,11.455a51,51,0,0,0,6.2,4.818Z" transform="translate(-1160.667 -535.01)" fill="#0c2238"/>
      </g>
      <g id="Group_52320" data-name="Group 52320" transform="translate(301.013 57.624)">
        <path id="Path_565920" data-name="Path 565920" d="M1972.837,753.517l-.6-.173a144.1,144.1,0,0,0,4.275-19.452l.62.079A144.955,144.955,0,0,1,1972.837,753.517Z" transform="translate(-1972.236 -733.891)" fill="#fff"/>
      </g>
      <g id="Group_52321" data-name="Group 52321" transform="translate(291.116 36.135)">
        <path id="Path_565921" data-name="Path 565921" d="M1908.044,609.525l-.625-.01c0-.119,0-.4-.011-.694-.008-.367-.016-.756-.011-.9.014-.708.022-1.4.03-2.071.015-1.335.03-2.6.088-3.785.151-2.24.19-3.68.224-4.95.038-1.37.067-2.452.22-4.017l.622.061c-.151,1.543-.18,2.616-.217,3.973-.035,1.276-.075,2.723-.225,4.97-.058,1.171-.072,2.427-.087,3.756-.008.674-.016,1.367-.03,2.08,0,.145,0,.519.011.873C1908.039,609.112,1908.045,609.4,1908.044,609.525Z" transform="translate(-1907.395 -593.095)" fill="#0c2238"/>
      </g>
      <g id="Group_52322" data-name="Group 52322" transform="translate(56.906 37.03)">
        <rect id="Rectangle_23983" data-name="Rectangle 23983" width="0.625" height="15.745" fill="#0c2238"/>
      </g>
      <g id="Group_52323" data-name="Group 52323" transform="translate(170.715 1.61)">
        <circle id="Ellipse_3960" data-name="Ellipse 3960" cx="3.37" cy="3.37" r="3.37" transform="matrix(0.063, -0.998, 0.998, 0.063, 0, 6.726)" fill="#0c2238"/>
      </g>
    </g>
  </g>
  <rect id="Rectangle_24694" data-name="Rectangle 24694" width="375" height="265" fill="none"/>
</svg>
