<svg xmlns="http://www.w3.org/2000/svg" xmlns:xlink="http://www.w3.org/1999/xlink" width="251.91" height="251.242" viewBox="0 0 251.91 251.242">
  <defs>
    <clipPath id="clip-path">
      <rect id="Rectangle_24059" data-name="Rectangle 24059" width="251.91" height="251.242" transform="translate(0 0)" fill="none"/>
    </clipPath>
  </defs>
  <g id="Group_52533" data-name="Group 52533" transform="translate(0 0.001)">
    <g id="Group_52532" data-name="Group 52532" transform="translate(0 -0.001)" clip-path="url(#clip-path)">
      <path id="Path_566096" data-name="Path 566096" d="M390.892,203.551l6.61,22.97,2.023,23.627s2.286,6.381,7.381,3.164,6-4.794,11.442-4.1,22.717-1.91,29.537-17.287,9.552-19.88,6.523-19.757-5.245,4.9-12.092,6.253-15.768-1.563-16.077,3.214l-.309,4.776s-1.127-5.24-8.986-5.732-22.589-11.521-26.05-17.124" transform="translate(-218.199 -110.764)" fill="#fff7f6"/>
      <path id="Path_566097" data-name="Path 566097" d="M273.43,73.123a10.544,10.544,0,0,0,0,10.637c3.26,5.677,11.117,2.978,14.639,7.45s5.59,12.922,5.516,17.352l-19.35-5.5L253,98.77l.137-1.619s7.721-9.351,10.169-14.676,7.77-9.42,10.119-9.353" transform="translate(-141.229 -39.79)" fill="#fff7f6"/>
      <path id="Path_566098" data-name="Path 566098" d="M268.63,405.276s15.193-14.545,28.324-20.541,23.563-11.223,25.39-8.834,2.334,2.767,1.872,6.775,1.512,7.787,5.87,8.789a7.712,7.712,0,0,1-3.342,5.7c-3.263,2.28-5.454,3.463-3.437,4.163s6.9,1.886,6.715,4.406S328.73,422.53,318.767,434.8,299.859,453,299.859,453s4.179-14.726-.5-22.515-5.537-9.53-4.585-14.405-7.074-9.35-7.074-9.35l-3.3,3.723s-.186-7.193-2.952-7.193-1.518,3.293-5.233,2.931-7.585-.919-7.585-.919" transform="translate(-149.951 -204.228)" fill="#fff7f6"/>
      <path id="Path_566099" data-name="Path 566099" d="M138.483,382.029a17.79,17.79,0,0,1-2.649,14.08c-4.748,6.751-2.659,5.709-2.659,5.709s3.105,2.518,1.945,3.222-6.141.092-7.146,2.08-.5,7.319-5.457,9.2-6.134.663-6.134.663,9.112,10.721,23.477,8,19.956-12.54,20.112-16.807l-5.042-9.61s-9.129-12.684-16.448-16.53" transform="translate(-64.966 -207.885)" fill="#fff7f6"/>
      <path id="Path_566100" data-name="Path 566100" d="M113.021,175.019s-16.53,9.806-30.634,6.066-17.434-21.591-17.434-21.591-5.418,11.745,2.531,35.111c0,0,4.005,10.429,11.805,5.275,0,0-1.429,6.022-5.532,8.318,0,0,4.877,2.84,5.481,6.155,0,0,.013,1.075,2.554,1.248s5.844-.176,8.558,5.089,5.629,3.228,5.684,2.416-1.415-9.492,4.125-25,12.863-23.089,12.863-23.089" transform="translate(-35.251 -86.79)" fill="#fff7f6"/>
      <path id="Path_566101" data-name="Path 566101" d="M392.5,233.987s-2.443-4.7-6.137-2.057,3.069,8.638,3.069,8.638a2.467,2.467,0,0,1,1.224,2.485c-.2,1.771,1.342,5.22,3.425,6.059,0,0-3.369,2.746-.789,7.786s10.326,6.992,10.326,6.992,3.2,1.338,3.31-1.428-4.942-3.757-4.942-3.757-4.832-3.754-3.7-5.474.215-2.114,2.768-1.71,6.439.72,6.239-1.522-5.531-5.317-6.536-5.422-3.288-1.988-3.288-1.988l-4.231-5.6Z" transform="translate(-215.055 -125.768)" fill="#efc7a4"/>
      <path id="Path_566102" data-name="Path 566102" d="M157.966,188.545l-3.555,25.272.414,5.9s-9.143-7.6-17.065,1.476l-4.022,7.022H132.2l-.85,8.484.9,2.968s-3.292,5.03-2.323,7.744,1.147,4.028.478,4.847-4.531,6.108-3.023,9.162,4.207-1.946,4.207-1.946,3.279-4.684,3.614-.88-2.513,4.954-2.058,7.661.971,6.076,3.262,3.788,4.12-12.177,4.12-12.177.462-3.6-.921-5.319-.8-5.048-.8-5.048-1.465-6.4-.33-6.893,2.792,3.339,8.174,3.284,10.247-4.72,10.419-3.007.7,12.307,7.535,19.648,9.694,7.217,9.694,7.217V296.05l14.7,3.519s8.09-7.138,13.823-10.465V276.787s-.51-8.285,1.676-9.528,9.994-5.954,13.131-15.343,3.009-12.758,4.235-11.411,12.394,9.4,20.269-5.019c0,0,3.607-12.163-3.89-15.53,0,0-3.9-4.369-12.77-2.647l-4.384,2.2-.077-26.584-52.595-10.469Z" transform="translate(-70.911 -99.285)" fill="#efc7a4"/>
      <path id="Path_566103" data-name="Path 566103" d="M211.576,430.728l10.6-4.271s7.744,4.34,16.186,4.409c0,0-11.362,5.923-12.56,22.6s-2.413,21.312-2.413,21.312l-6.434-21.989a4.976,4.976,0,0,1-2.761-6.422c1.513-4.769-2.621-15.643-2.621-15.643" transform="translate(-118.103 -232.061)" fill="#0c2238"/>
      <path id="Path_566104" data-name="Path 566104" d="M147.462,310.325s5.641,4.006,11.692,2.62,7.115-3.143,7.115-3.143a32.153,32.153,0,0,0,6.285,17.98c6.338,8.18,11.98,10.139,11.98,10.139l-1.214,24.595-9.619,3.272s-7.545-15.736-16.525-20.289-13.039-2.477-13.039-2.477l.436-2.362,5.9-11.2-1.82-10.509Z" transform="translate(-80.459 -168.581)" fill="#fa6c51"/>
      <path id="Path_566105" data-name="Path 566105" d="M165.606,195.456l-9.284-1.9s-12.884,17.31-14.762,30.135-.017,9.826-.017,9.826,4.258-10.652,12.058-10.847,9.888,2.2,9.888,2.2Z" transform="translate(-78.552 -105.323)" fill="#fa6c51"/>
      <path id="Path_566106" data-name="Path 566106" d="M314.113,147.688l9.519,2.521s4.462-.892,4.851,3.747S339.552,156,339.552,156l5.093,29.59s-8.106-.195-6.907,3.5,7.429,8.557,7.429,8.557-2.165.738-.523,3.515,1.147,3.685,1.147,3.685-1.531,5.486,1.878,8.369a5.592,5.592,0,0,1,1.71,6.529,3.783,3.783,0,0,1,.423,4.589c-1.473,2.822-1.225,7.184-1.225,7.184a14.7,14.7,0,0,0,1.53,10.294,34.813,34.813,0,0,1,3.644,11.213s-5.955-3.3-9.987-2.268-3.89-.015-7.06,1.357-14.755,3.846-21.649,8.753a128.738,128.738,0,0,1-14,8.549V248.86s10.283-6.3,12.975-13.728a75.409,75.409,0,0,0,3.57-13.817s8.24,8.211,17.38,1.053,4.212-20.551.061-22.062-7.212-3.246-11.471-2.2-5.077,1.849-5.077,1.849l-1.436-32.1Z" transform="translate(-168.055 -80.366)" fill="#fa6c51"/>
      <path id="Path_566107" data-name="Path 566107" d="M233.535,271.26a2.388,2.388,0,1,1-2.387-2.463,2.426,2.426,0,0,1,2.387,2.463" transform="translate(-127.696 -146.268)" fill="#0c2238"/>
      <path id="Path_566108" data-name="Path 566108" d="M292.125,271.26a2.388,2.388,0,1,1-2.387-2.463,2.426,2.426,0,0,1,2.387,2.463" transform="translate(-160.401 -146.268)" fill="#0c2238"/>
      <path id="Path_566109" data-name="Path 566109" d="M257.979,280.495a4.477,4.477,0,0,1-3-1.1,3.035,3.035,0,0,1-1.048-2.487l.913-12.761,1.762.134-.913,12.762a1.233,1.233,0,0,0,.455.984,2.9,2.9,0,0,0,2.483.573l1.773-.371.352,1.787-1.774.371a4.91,4.91,0,0,1-1,.1" transform="translate(-141.742 -143.74)" fill="#0c2238"/>
      <path id="Path_566110" data-name="Path 566110" d="M296.1,240.8c-.419,1.256-3.225,1.4-6.267.32s-5.169-2.973-4.751-4.23,3.225-1.4,6.267-.32,5.169,2.973,4.751,4.23" transform="translate(-159.105 -128.338)" fill="#0c2238"/>
      <path id="Path_566111" data-name="Path 566111" d="M217.365,238.776c.333,1.283,3.123,1.627,6.231.768s5.357-2.6,5.024-3.879-3.123-1.627-6.231-.768-5.357,2.6-5.024,3.879" transform="translate(-121.316 -127.564)" fill="#0c2238"/>
      <path id="Path_566112" data-name="Path 566112" d="M142.352,241.76l-1.75-.254c1-7.378,7.185-13.158,14.073-13.158a13.953,13.953,0,0,1,8.694,2.918v-7.13a34.6,34.6,0,0,1,5.225-18.36l1.485.988a32.733,32.733,0,0,0-4.944,17.372V233.3l-1.52.632a12.05,12.05,0,0,0-8.941-3.756c-6.026,0-11.439,5.09-12.323,11.588" transform="translate(-78.485 -111.975)" fill="#0c2238"/>
      <path id="Path_566113" data-name="Path 566113" d="M201.445,312.339a32.19,32.19,0,0,1-22.958-9.638,34.173,34.173,0,0,1-9.812-21.432A13.815,13.815,0,0,1,149.9,280.2l1.246-1.293a12.107,12.107,0,0,0,17.668-.232l1.522.605c.452,17.515,14.116,31.236,31.107,31.236,16.867,0,30.449-13.721,30.921-31.236l1.522-.6a12.074,12.074,0,0,0,8.938,3.946,12.758,12.758,0,0,0,0-25.5,11.457,11.457,0,0,0-8.744,3.593l-1.272-1.265a13.305,13.305,0,0,1,10.016-4.152,14.582,14.582,0,0,1,0,29.15,13.72,13.72,0,0,1-8.8-3.169,34.346,34.346,0,0,1-9.727,21.417,31.893,31.893,0,0,1-22.856,9.647" transform="translate(-83.676 -138.92)" fill="#0c2238"/>
      <path id="Path_566114" data-name="Path 566114" d="M386.426,165.921c-2.406,5.617,1.222,25.356,29.1,33.935,0,0-16.417-1.25-25.836-11.83s-12.593-16.046-3.267-22.1" transform="translate(-212.58 -90.287)" fill="#fff"/>
      <path id="Path_566115" data-name="Path 566115" d="M148.551,380.975s10.038,1.058,2.409,17.249c0,0,6.81-6.578,6.337-13.292s-6.337-4.576-6.337-4.576Z" transform="translate(-82.922 -206.798)" fill="#fff"/>
      <path id="Path_566116" data-name="Path 566116" d="M347.655,275.419c-4.165-2.089-6.3-.81-6.384-.754l-1.168-1.332c5.631-7.477,14.582-2.759,14.672-2.71l-.818,1.615c-.272-.145-5.845-3.059-10.4.18a11.641,11.641,0,0,1,4.869,1.361Z" transform="translate(-189.848 -146.439)" fill="#0c2238"/>
      <path id="Path_566117" data-name="Path 566117" d="M164.491,275.42l-.773-1.64a11.66,11.66,0,0,1,4.854-1.36c-4.607-3.227-10.316-.216-10.382-.181l-.82-1.615c.09-.049,9.042-4.765,14.672,2.71l-1.179,1.324c-.077-.048-2.208-1.327-6.372.762" transform="translate(-87.845 -146.439)" fill="#0c2238"/>
      <path id="Path_566118" data-name="Path 566118" d="M187.557,230.972C180.738,219.5,185,201.4,185.185,200.631l1.715.44c-.044.18-4.266,18.131,2.163,28.948Z" transform="translate(-102.543 -109.175)" fill="#0c2238"/>
      <rect id="Rectangle_24053" data-name="Rectangle 24053" width="1.767" height="20.191" transform="translate(131.524 168.987)" fill="#0c2238"/>
      <path id="Path_566119" data-name="Path 566119" d="M247.913,401.307a28.242,28.242,0,0,1-15.525-4.9l-.369-.741V370.714h1.767v24.459a26.666,26.666,0,0,0,16.189,4.218l.156,1.816c-.754.069-1.494.1-2.218.1" transform="translate(-129.515 -201.727)" fill="#0c2238"/>
      <path id="Path_566120" data-name="Path 566120" d="M268.63,374.581l13.479,9.092V370.944a34.149,34.149,0,0,1-6.022,2.268c-2.7.628-7.458,1.368-7.458,1.368" transform="translate(-149.951 -201.853)" fill="#0c2238"/>
      <path id="Path_566122" data-name="Path 566122" d="M188.194,197.728s-4.458,4.413-2.878,19.39l2.878,10.017.829-.744.307-11.223,1.459-7.323,4.854-8.232Z" transform="translate(-103.255 -107.595)" fill="#0c2238"/>
      <path id="Path_566123" data-name="Path 566123" d="M271.556,319.457c-3.533,0-6.7-3.446-7.2-8.005a9.875,9.875,0,0,1,1.789-7.1,6.069,6.069,0,0,1,4.091-2.421c3.776-.421,7.276,3.153,7.81,7.972a9.874,9.874,0,0,1-1.79,7.1,6.067,6.067,0,0,1-4.091,2.419,5.485,5.485,0,0,1-.608.034m-.7-15.736a3.8,3.8,0,0,0-.425.024,4.272,4.272,0,0,0-2.9,1.746,8,8,0,0,0-1.414,5.753c.424,3.825,3.055,6.681,5.863,6.366a4.275,4.275,0,0,0,2.9-1.745,8,8,0,0,0,1.415-5.754c-.4-3.633-2.793-6.39-5.438-6.39" transform="translate(-147.526 -164.281)" fill="#0c2238"/>
      <path id="Path_566124" data-name="Path 566124" d="M272.068,325.9l-1.586-.805c.148-.311,3.7-7.628,10.172-7.413l-.056,1.822c-5.321-.168-8.5,6.33-8.531,6.4" transform="translate(-150.985 -172.868)" fill="#0c2238"/>
      <path id="Path_566125" data-name="Path 566125" d="M269.165,317.351l-1.78-2.468-.091-6.208,2.571-3.8,3.445-.423,3.633,1.76,1.474,3.856.43,1.327-4.141,1-4.038,2.989Z" transform="translate(-149.205 -165.672)" fill="#0c2238"/>
      <path id="Path_566126" data-name="Path 566126" d="M410.983,265.564a7.894,7.894,0,0,1-1.158-.093c-8.744-1.3-9.727-1.731-13.144-5.754a4.168,4.168,0,0,1-.311-5.534l1.318,1.214c-.192.231-1.081,1.466.321,3.117,2.987,3.517,3.509,3.879,12.067,5.152,1.348.2,1.881-.042,1.984-.218.136-.232-.02-.893-.515-1.6a9.674,9.674,0,0,0-3.921-3.233,7.607,7.607,0,0,0-3.284-.763l-.225-1.809a9.269,9.269,0,0,1,4.124.862,11.272,11.272,0,0,1,4.738,3.872c.926,1.317,1.15,2.666.6,3.61a2.751,2.751,0,0,1-2.59,1.173" transform="translate(-220.755 -138.316)" fill="#0c2238"/>
      <path id="Path_566127" data-name="Path 566127" d="M127.4,332.747a1.979,1.979,0,0,1-.44-.049,2.056,2.056,0,0,1-1.457-1.274c-.962-2.488-.234-7.115,4.987-11.968l1.183,1.354c-4.861,4.52-5.134,8.374-4.529,9.938a.266.266,0,0,0,.194.168.272.272,0,0,0,.254-.073c5.136-5.034,8.548-9.41,9.127-11.708a11.414,11.414,0,0,0-1.042-7.71l1.517-.935a13.217,13.217,0,0,1,1.235,9.1c-.916,3.631-6.421,9.435-9.62,12.572a2.014,2.014,0,0,1-1.41.581" transform="translate(-69.856 -168.957)" fill="#0c2238"/>
      <path id="Path_566128" data-name="Path 566128" d="M478.088,362.787c-3.377-.528-6.374-2.38-10.691-6.606-3.105-3.04-10.886-4.7-20.812-4.446a40.284,40.284,0,0,1-14.611-2.386l-8.194.713-.266-.019c-7.572-1.736-13.317-10.175-13.426-13.907a9.944,9.944,0,0,0-1.676-4.072,17.013,17.013,0,0,1-2.68-7.149c-.219-2.654.065-4.33.869-5.119-1.207-3.964,1.79-9.092,1.928-9.324l1.508.951c-.031.052-3.079,5.276-1.522,8.4l-.957,1.311c.18.037.252-.013.265-.023-.006,0-.584.566-.33,3.646a15.537,15.537,0,0,0,2.441,6.379c.963,1.685,1.871,3.278,1.92,4.942.082,2.811,5.18,10.525,11.913,12.152l8.258-.718.4.061a39.061,39.061,0,0,0,14.116,2.337c4.985-.131,17.117.1,22.072,4.945,4.027,3.943,6.758,5.66,9.74,6.126Z" transform="translate(-226.443 -168.947)" fill="#0c2238"/>
      <path id="Path_566129" data-name="Path 566129" d="M95.373,225.206l-1.71-.462c.675-2.66.129-2.935-1.328-3.67a8.2,8.2,0,0,1-4.542-4.872c-1.245-3.21-4.124-3.35-6.664-3.473-1.89-.092-3.844-.186-4.051-2.092-.187-1.727-3.21-4.28-5.072-5.484l.077-1.59c.026-.013,2.8-1.51,4.762-5.889a6.646,6.646,0,0,1-5.523.461c-2.741-1.079-5.091-4.317-6.984-9.624-6.417-17.992-2.041-35.3-1.851-36.033l1.737.211c0,.17.649,17.127,15.278,23.153,16.691,6.878,35.776-9.039,35.968-9.2l1.121,1.409c-.811.688-20.077,16.764-37.744,9.485C68.521,173.283,64.691,164,63.277,158.079c-.857,6.45-1.453,18.1,2.72,29.8,1.708,4.79,3.712,7.667,5.955,8.55,2,.787,3.825-.217,4.918-.817.714-.392,1.389-.763,1.966-.222.617.577.256,1.482-.063,2.281a16.131,16.131,0,0,1-4.716,6.712c1.657,1.231,4.521,3.68,4.777,6.049.039.36,1.336.423,2.378.473,2.61.127,6.555.318,8.222,4.616a6.473,6.473,0,0,0,3.677,3.911c1.934.975,3.228,1.961,2.262,5.77" transform="translate(-33.97 -82.973)" fill="#0c2238"/>
      <path id="Path_566130" data-name="Path 566130" d="M1.5,412.686,0,411.722c1.662-2.752,5.75-2.35,9.7-1.961,2.651.26,5.393.53,6.741-.281,1.51-.909,2.382-3.205,3.3-5.636,1.068-2.814,2.279-6,4.814-8.072,2.869-2.341,6.319-1.578,9.971-.771,2.737.605,5.568,1.231,8.351.6,3.122-.712,5.275-3.046,7.554-5.518,2.331-2.527,4.742-5.14,8.349-6.139a4.955,4.955,0,0,0,3.262-2.473c1.491-2.8.294-6.815.282-6.855l1.685-.551c.06.193,1.439,4.78-.413,8.274a6.729,6.729,0,0,1-4.358,3.366c-3.127.866-5.264,3.182-7.526,5.635-2.362,2.561-4.8,5.209-8.453,6.041-3.158.72-6.316.022-9.1-.594-3.375-.745-6.29-1.389-8.5.418-2.16,1.763-3.23,4.582-4.265,7.308s-2.019,5.317-4.06,6.546c-1.84,1.107-4.735.822-7.8.521-3.417-.336-6.95-.683-8.034,1.11" transform="translate(0 -203.549)" fill="#0c2238"/>
      <path id="Path_566131" data-name="Path 566131" d="M397.119,214.905a3.533,3.533,0,0,1-1.486-.324c-3.695-1.686-4.08-9.405-4.112-10.28l1.766-.069c.071,1.923.787,7.644,3.061,8.681.994.455,2.327-.036,3.957-1.455,4.1-3.568,7.721-3.711,11.911-3.877a33.218,33.218,0,0,0,16.534-4.283c10.952-5.919,17.123-23.2,19.269-30.361a.351.351,0,0,0-.126-.4.323.323,0,0,0-.4-.013,51.25,51.25,0,0,1-15.444,7l-.333.05a39.1,39.1,0,0,1-9.777-.134,1.326,1.326,0,0,0-1.107.377,1.421,1.421,0,0,0-.417,1.125,38.359,38.359,0,0,1,.072,4.315c-.1,2.421-.251,2.525-.591,2.755l-.911.039c-.5-.282-.5-.785-.5-1.423,0-1.632-2.735-4.017-4.584-5.237-16.419-.885-27.869-13.96-33.236-21.68a9.925,9.925,0,0,1-.561-10.429,9.033,9.033,0,0,1,8.615-4.868c.2.014.407.033.615.057,5.892.668,6.494-.252,8.279-2.986a28.511,28.511,0,0,1,4.031-5.085c6.368-6.343,20.645-7.438,21.249-7.482l.123,1.819c-.142.01-14.241,1.094-20.144,6.975a26.873,26.873,0,0,0-3.793,4.793c-2.069,3.168-3.266,4.537-9.938,3.778q-.276-.031-.542-.05a7.2,7.2,0,0,0-6.951,3.935,8.07,8.07,0,0,0,.452,8.48c5.186,7.46,16.23,20.1,31.93,20.923l.187.01.421.134a19.333,19.333,0,0,1,4.111,3.54c-.008-.7-.035-1.442-.092-2.166a3.265,3.265,0,0,1,.956-2.591,3.056,3.056,0,0,1,2.552-.868,37.421,37.421,0,0,0,9.337.133l.159-.02a49.485,49.485,0,0,0,14.858-6.741,2.038,2.038,0,0,1,2.436.074,2.2,2.2,0,0,1,.755,2.4c-2.21,7.375-8.6,25.2-20.137,31.437a35.133,35.133,0,0,1-17.286,4.49c-4.023.159-7.2.285-10.84,3.449a6.921,6.921,0,0,1-4.326,2.051" transform="translate(-211.496 -70.155)" fill="#0c2238"/>
      <path id="Path_566132" data-name="Path 566132" d="M211.381,454.567l-.664-1.669c.038-.023.512-.317,1.32-.868,1.83-2.322,2.067-9.172,2.279-15.321.132-3.8-1.789-6.733-3.646-9.57-1.994-3.048-4.057-6.2-3.249-10.2,1.025-5.077-3.632-8.577-5.6-9.8a9.326,9.326,0,0,1-3.8,3.969l-1.093-1.375a3.239,3.239,0,0,0,.61-2.49A6.5,6.5,0,0,0,195.1,403.3a.508.508,0,0,0-.044-.029,4.6,4.6,0,0,0-.808.759c-1.39,1.493-3.716,3.995-9.087,1.436a3.624,3.624,0,0,0-3.162-.023,7.142,7.142,0,0,0-1.723,1.1l-.092.088,0-.005c-4.109,3.548-7.219,11.993-7.6,13.064l-2.3,31.973-1.764-.107c.266-6.306-4.108-20.018-6-25.62a3.133,3.133,0,0,0-1.77-2.064c-1.809-1-2.45-2.189-1.444-6.555a41.259,41.259,0,0,0-1.183-10.335c-.861,3.755-3.146,8.351-13.635,12.594a28.334,28.334,0,0,1-10.679,2.189c-12.363,0-19.729-9.1-19.821-9.214l.887-1.464c3.306.8,5.948.341,7.856-1.369a10.542,10.542,0,0,0,3.03-7.08c-.2-2.217,3.342-2.579,6.463-2.9.283-.029.547-.056.786-.083a20.741,20.741,0,0,0-2.9-2.67l-.057-1.411c.068-.062,6.8-6.333,7.075-14.155.055-1.59-.328-2.647-1.17-3.231-2.1-1.457-6.689.144-8.279.884l-.726-1.662c.676-.315,6.706-3.012,9.991-.736,1.372.95,2.028,2.569,1.951,4.809-.243,7.036-5,12.705-6.9,14.7,3.423,2.818,3.168,3.864,3.08,4.225a1.294,1.294,0,0,1-1.147.97c-.4.063-.92.116-1.52.177-1.194.122-4.316.442-4.871,1.013a12.37,12.37,0,0,1-3.637,8.527,8.944,8.944,0,0,1-6.749,2.182c3.738,3.488,13.146,10.088,26.7,4.6,11.491-4.648,12.279-9.381,12.911-13.185.084-.505.163-.982.266-1.448l1.674-.158c2.641,6.357,2.387,14.06,2.375,14.384l-.024.178c-.892,3.823-.353,4.121.54,4.614a4.892,4.892,0,0,1,2.6,3.071,172.854,172.854,0,0,1,4.973,17.294l1.666-23.2.048-.237c.156-.452,3.382-9.707,8.106-13.889l0,0c.064-.062,1.594-1.538,4.352-3.88,9.319-7.915,28.171-22.011,49.719-27.488,1.965-.5,3.389-.351,4.356.449,1.514,1.254,1.456,3.694,1.4,6.276-.059,2.513-.12,5.112,1.131,6.776,1.738,2.312,2.513,2.239,2.6,2.224.2-.039.343-.387.357-.434l1.726.15c.026.233.593,5.726-3.49,7.71a13.4,13.4,0,0,0-3.718,2.473c.078.005.168.008.272.008,3.541,0,6.607,3.735,6.736,3.893l.205.612c-.45,15.951-9.41,28.812-16.847,36.792a90.177,90.177,0,0,1-14.538,12.544,3.65,3.65,0,0,1-1.844,1.157m-9.624-49.558c.367.182,8.958,4.559,7.394,12.3-.656,3.246,1.031,5.823,2.984,8.807,1.921,2.936,4.1,6.264,3.947,10.656-.178,5.166-.343,9.925-1.237,13.239,8.486-6.383,27.155-22.946,27.986-45.629-.687-.759-2.9-2.991-5.163-2.991-1.321,0-2.082-.417-2.26-1.239-.408-1.885,3.328-3.925,4.954-4.714a4.89,4.89,0,0,0,2.437-3.975c-1.245.211-2.642-.741-4.27-2.907s-1.564-5.237-1.5-7.937c.05-2.119.1-4.12-.735-4.81-.5-.417-1.453-.449-2.826-.1-22,5.592-41.609,20.832-49.018,27.125-.18.152-.355.3-.524.448a5.423,5.423,0,0,1,1.976.532c4.227,2.013,5.8.318,7.071-1.043.763-.82,1.808-1.944,3.154-.95a8.24,8.24,0,0,1,3.164,5.156,5.747,5.747,0,0,1,.057.737,5.909,5.909,0,0,0,1.18-2.144Z" transform="translate(-63.626 -203.325)" fill="#0c2238"/>
      <path id="Path_566133" data-name="Path 566133" d="M404.084,376.05c-4.266-2.015-11.852-4.392-14.037-2.2l-1.233-1.306c3.765-3.782,14.764,1.258,16.006,1.844Z" transform="translate(-217.039 -201.966)" fill="#0c2238"/>
      <path id="Path_566134" data-name="Path 566134" d="M302.424,115.149c-3.095,0-6.577-.392-8.36-1.923a3.46,3.46,0,0,1-1.269-2.549,1.887,1.887,0,0,0-.41-1.311c-.425-.385-1.394-.3-2.33-.217-1.661.146-4.172.366-4.635-2.657-.057-.375-.117-.813-.182-1.3-.717-5.325-2.208-16.406-11.252-17.217-6.831-.613-9.975-5.328-10.593-9.179a8.279,8.279,0,0,1,.959-5.677,12.154,12.154,0,0,0-6.812,6.27C254.584,85.3,246.909,99.182,239.53,100.4l-.278-1.8c6.767-1.113,14.508-15.624,16.719-20.045,3.894-7.785,11.1-7.874,11.4-7.874l.356,1.746c-2.018.916-3.034,3.3-2.589,6.074.514,3.207,3.18,7.137,9,7.659,10.448.938,12.13,13.443,12.849,18.783.064.476.121.9.178,1.269.182,1.188.716,1.3,2.74,1.125,1.244-.11,2.655-.233,3.645.664a3.529,3.529,0,0,1,1.009,2.6,1.644,1.644,0,0,0,.635,1.23c2.414,2.073,10.161,1.5,12.943,1.1l.241,1.806a45.658,45.658,0,0,1-5.955.414" transform="translate(-133.552 -38.459)" fill="#0c2238"/>
      <path id="Path_566135" data-name="Path 566135" d="M387.847,208.838c-.125-5.451-8.659-22.972-8.745-23.148l1.578-.821c.359.735,8.8,18.069,8.934,23.926Z" transform="translate(-211.617 -100.598)" fill="#0c2238"/>
      <path id="Path_566136" data-name="Path 566136" d="M138.606,231.845l-1.76-.166c2.346-26.457,18.118-41.145,18.277-41.291l1.172,1.365c-.154.141-15.409,14.385-17.689,40.092" transform="translate(-76.388 -103.601)" fill="#0c2238"/>
      <path id="Path_566148" data-name="Path 566148" d="M.019.112,10.672,0l-.019,1.816L0,1.928Z" transform="translate(93.101 196.882) rotate(-20.855)" fill="#0c2238"/>
      <path id="Path_566149" data-name="Path 566149" d="M.1.02,1.919,0l-.1,9.234L0,9.254Z" transform="translate(144.373 66.415) rotate(-67.213)" fill="#0c2238"/>
      <path id="Path_566140" data-name="Path 566140" d="M185.794,408.24c-4.966-16.568-20.133-24.579-20.286-24.658l.792-1.63c.651.337,16,8.446,21.182,25.75Z" transform="translate(-92.388 -207.843)" fill="#0c2238"/>
      <path id="Path_566141" data-name="Path 566141" d="M134.236,303.738c-.053,0-.105,0-.158-.007a1.806,1.806,0,0,1-1.395-.885,8.418,8.418,0,0,1-.317-7.778,40.157,40.157,0,0,1,2.009-4.272,6.541,6.541,0,0,1-1-1.61l-.086-.46.659-9.7,1.522-.565c.279.3,6.806,7.464,5.754,13.8-.8,4.819-4.214,9.2-5.645,10.854a1.763,1.763,0,0,1-1.342.624M136.46,289.3l.6.671c-.011.011-1.16,1.174-3.063,5.808a6.528,6.528,0,0,0,.191,6.1.06.06,0,0,0,.045.032c1.359-1.554,4.528-5.608,5.252-9.962.628-3.78-2.155-8.194-3.924-10.549l-.49,7.2c.1.2.22.4.331.574a4.049,4.049,0,0,1,.478-.56Z" transform="translate(-73.451 -151.529)" fill="#0c2238"/>
      <path id="Path_566142" data-name="Path 566142" d="M141.826,351.839a2.161,2.161,0,0,1-1.928-1.2,7.855,7.855,0,0,1-.594-6.483c1.548-4.042,1.487-6.9,1.2-7.36l1.4-1.117c.966,1.273.555,5.205-.955,9.147a6.153,6.153,0,0,0,.515,4.964.393.393,0,0,0,.364.223.418.418,0,0,0,.389-.245c1.4-2.853,3.831-8.039,4.434-10.717.791-3.51-2.244-8.258-2.275-8.305l1.469-1.013c.143.22,3.492,5.449,2.527,9.732-.645,2.864-3.146,8.2-4.578,11.127a2.188,2.188,0,0,1-1.947,1.245h-.019" transform="translate(-77.509 -179.428)" fill="#0c2238"/>
      <path id="Path_566143" data-name="Path 566143" d="M395.9,245.022a4.581,4.581,0,0,1-.757-.072c-5.6-.913-12.461-9.128-13.1-11.446-.743-2.683,3.236-4.286,3.828-4.508,1.2-.523,3.257.336,4.489,1.447a3.548,3.548,0,0,1,1.312,3.677c-.111.7,1.93,3.237,3.026,4.6,2.273,2.82,3.427,4.347,2.769,5.543a1.666,1.666,0,0,1-1.562.761m-9.41-14.32c-1.256.466-2.959,1.554-2.752,2.3.441,1.59,6.793,9.351,11.68,10.147.134.022.244.035.334.041a25.73,25.73,0,0,0-2.417-3.307c-2.372-2.944-3.782-4.837-3.36-6.288a1.767,1.767,0,0,0-.654-1.659,4.116,4.116,0,0,0-2.768-1.26Z" transform="translate(-213.206 -124.524)" fill="#0c2238"/>
      <path id="Path_566144" data-name="Path 566144" d="M398.348,238.986a4.7,4.7,0,0,0-1.757-1.744l.778-1.638a6.483,6.483,0,0,1,2.519,2.488Z" transform="translate(-221.38 -128.206)" fill="#0c2238"/>
      <path id="Path_566145" data-name="Path 566145" d="M412.789,285.357c-2.616,0-7.831-1.7-11.872-6.532A8.34,8.34,0,0,1,398.911,274a7.84,7.84,0,0,1,1.7-5.4l1.384,1.134a6.028,6.028,0,0,0-1.32,4.147,6.51,6.51,0,0,0,1.58,3.753c4.561,5.452,10.713,6.376,11.461,5.73.542-.847-3.746-3.818-5.156-4.794a17.358,17.358,0,0,1-2.629-2.02c-1.64-1.858-.592-5.021-.547-5.155l1.669.6c-.21.629-.586,2.452.185,3.326a19.087,19.087,0,0,0,2.307,1.734c3.191,2.21,7.161,4.96,5.616,7.351a2.443,2.443,0,0,1-2.03.94c-.108.007-.223.01-.341.01" transform="translate(-222.666 -146.16)" fill="#0c2238"/>
      <path id="Path_566146" data-name="Path 566146" d="M202.666,158.306a15.884,15.884,0,0,1-8.919,4.411c-5.512.713-13.681-1.589-16.659-6.748s-3.048-13.582,3.5-18.012a14.9,14.9,0,0,1,13.167-1.744s11.461-11.526,27.8-10.229,33.11,11.708,32.845,31.177-6.153,31.674-7.346,31.766-2.706-7.716-2.706-7.716l-2.018-5.414.335-2.115-4.036.51s-9.382,1.084-17.174-1.062-15.506-9.934-15.506-9.934Z" transform="translate(-97.768 -68.5)" fill="#0c2238"/>
      <path id="Path_566147" data-name="Path 566147" d="M245.672,189.136c-.189-.248-4.486-5.98-4.913-15.7a44.3,44.3,0,0,1-14.369.752,33.914,33.914,0,0,1-25.568-15.9c-2.145,2.132-8.377,6.9-18.4,3.035a14.257,14.257,0,0,1-8.666-9.058,14.472,14.472,0,0,1,3.092-14.25,14.32,14.32,0,0,1,14.279-4.357,11.294,11.294,0,0,1,1.241.4,36.16,36.16,0,0,1,12.573-7.916c7.568-2.84,19.729-4.411,34.685,4.235,11.224,6.489,16.069,18.724,14.014,35.383a88.341,88.341,0,0,1-6.474,23.209Zm-4.3-17.732,1.124.866a29.9,29.9,0,0,0,3.718,14.406,86.713,86.713,0,0,0,5.677-21.192c1.972-16.066-2.445-27.344-13.13-33.522-14.372-8.308-26-6.822-33.218-4.112a33.878,33.878,0,0,0-12.314,7.9l-1.01.214a9.281,9.281,0,0,0-1.529-.542,12.783,12.783,0,0,0-15.258,16.268,12.316,12.316,0,0,0,7.606,7.922c11.352,4.372,17.159-3.282,17.217-3.36l1.456.074c13.369,22.456,39.4,15.157,39.66,15.08" transform="translate(-96.595 -67.414)" fill="#0c2238"/>
    </g>
  </g>
</svg>
