<svg xmlns="http://www.w3.org/2000/svg" xmlns:xlink="http://www.w3.org/1999/xlink" width="375" height="255" viewBox="0 0 375 255">
  <defs>
    <clipPath id="clip-path">
      <path id="Rectangle_23927" data-name="Rectangle 23927" d="M0,0H375a0,0,0,0,1,0,0V205a50,50,0,0,1-50,50H50A50,50,0,0,1,0,205V0A0,0,0,0,1,0,0Z"/>
    </clipPath>
  </defs>
  <g id="Mask_Group_227" data-name="Mask Group 227" clip-path="url(#clip-path)">
    <g id="Background" transform="translate(-0.17)">
      <rect id="Rectangle_23868" data-name="Rectangle 23868" width="415" height="277" transform="translate(0.17)" fill="#ffc985"/>
      <g id="Group_51927" data-name="Group 51927" transform="translate(238.887 3.093)">
        <path id="Path_564156" data-name="Path 564156" d="M1413.895,40.741l-.15-.675a49.282,49.282,0,0,0,30.831-21.759l.588.366A49.981,49.981,0,0,1,1413.895,40.741Z" transform="translate(-1413.745 -18.306)" fill="#fff"/>
      </g>
      <g id="Group_51928" data-name="Group 51928" transform="translate(262.841 6.567)">
        <path id="Path_564157" data-name="Path 564157" d="M1563.159,46.867l-7.651-2.117.185-.667,6.988,1.933-2.662-6.9.646-.249,2.909,7.544Z" transform="translate(-1555.508 -38.865)" fill="#fff"/>
      </g>
      <g id="Group_51929" data-name="Group 51929" transform="translate(253.645 14.969)">
        <path id="Path_564158" data-name="Path 564158" d="M1508.155,96.925l-7.068-3.612.315-.616,6.456,3.3-1.219-7.3.682-.114,1.333,7.975Z" transform="translate(-1501.086 -88.585)" fill="#fff"/>
      </g>
      <g id="Group_51930" data-name="Group 51930" transform="translate(242.764 21.547)">
        <path id="Path_564159" data-name="Path 564159" d="M1442.365,135.821l-5.676-5.549.484-.495,5.184,5.069,1-7.329.686.094-1.1,8.01Z" transform="translate(-1436.689 -127.517)" fill="#fff"/>
      </g>
      <g id="Group_51931" data-name="Group 51931" transform="translate(343.553 3.795)">
        <path id="Path_564160" data-name="Path 564160" d="M2065.8,42.855a49.98,49.98,0,0,1-32.636-19.99l.562-.4a49.28,49.28,0,0,0,32.179,19.71Z" transform="translate(-2033.165 -22.461)" fill="#fff"/>
      </g>
      <g id="Group_51932" data-name="Group 51932" transform="translate(343.644 7.15)">
        <path id="Path_564161" data-name="Path 564161" d="M2034.147,50.463l-.444-.43,2.413-7.717.66.206-2.208,7.061,6.848-2.383.227.654Z" transform="translate(-2033.703 -42.316)" fill="#fff"/>
      </g>
      <g id="Group_51933" data-name="Group 51933" transform="translate(353.892 15.006)">
        <path id="Path_564162" data-name="Path 564162" d="M2094.876,97.185l-.521-.332.811-8.044.688.069-.742,7.361,6.229-3.712.354.594Z" transform="translate(-2094.355 -88.809)" fill="#fff"/>
      </g>
      <g id="Group_51934" data-name="Group 51934" transform="translate(364.874 20.892)">
        <path id="Path_564163" data-name="Path 564163" d="M2161.559,131.864l-.6-.162-1.615-7.922.678-.138,1.478,7.249,4.844-5.4.515.462Z" transform="translate(-2159.347 -123.642)" fill="#fff"/>
      </g>
      <g id="Group_51943" data-name="Group 51943" transform="translate(28.765 60.311)">
        <g id="Group_51935" data-name="Group 51935" transform="translate(0 0.088)">
          <path id="Path_564164" data-name="Path 564164" d="M178.393,389.359a1.465,1.465,0,0,1-1.409-1.069l-6.7-23.95a1.464,1.464,0,0,1,1.014-1.8l3.377-.945.187.666-3.377.945a.771.771,0,0,0-.534.949l6.7,23.949a.771.771,0,0,0,.949.535l18.008-5.037a.77.77,0,0,0,.535-.949l-6.7-23.95a.77.77,0,0,0-.949-.534l-3.273.915-.187-.666,3.273-.915a1.462,1.462,0,0,1,1.8,1.014l6.7,23.95a1.464,1.464,0,0,1-1.014,1.8l-18.008,5.037A1.464,1.464,0,0,1,178.393,389.359Z" transform="translate(-170.231 -357.448)" fill="#fff"/>
        </g>
        <g id="Group_51936" data-name="Group 51936" transform="translate(3.805)">
          <path id="Path_564165" data-name="Path 564165" d="M194.251,364.633l-.426-.24-1.072-3.834.24-.426,11.463-3.206.426.24L205.953,361l-.24.426Zm-.739-3.927.886,3.168,10.8-3.02-.886-3.168Z" transform="translate(-192.752 -356.926)" fill="#fff"/>
        </g>
        <g id="Group_51937" data-name="Group 51937" transform="translate(4.745 10.053)">
          <path id="Path_564166" data-name="Path 564166" d="M199.959,421l-1.646-1.926.526-.45L200,419.981l.55-3.562.684.105-.665,4.308Z" transform="translate(-198.313 -416.418)" fill="#fff"/>
        </g>
        <g id="Group_51938" data-name="Group 51938" transform="translate(9.335 8.401)">
          <rect id="Rectangle_23869" data-name="Rectangle 23869" width="10.546" height="0.692" transform="translate(0 2.843) rotate(-15.638)" fill="#fff"/>
        </g>
        <g id="Group_51939" data-name="Group 51939" transform="translate(6.448 16.141)">
          <path id="Path_564167" data-name="Path 564167" d="M210.036,457.032l-1.646-1.926.526-.45,1.156,1.353.55-3.562.684.105-.664,4.308Z" transform="translate(-208.391 -452.447)" fill="#fff"/>
        </g>
        <g id="Group_51940" data-name="Group 51940" transform="translate(11.038 14.489)">
          <rect id="Rectangle_23870" data-name="Rectangle 23870" width="10.546" height="0.692" transform="translate(0 2.843) rotate(-15.638)" fill="#fff"/>
        </g>
        <g id="Group_51941" data-name="Group 51941" transform="translate(8.294 22.743)">
          <path id="Path_564168" data-name="Path 564168" d="M220.964,496.1l-1.646-1.926.526-.45L221,495.082l.55-3.562.684.105-.665,4.307Z" transform="translate(-219.318 -491.52)" fill="#fff"/>
        </g>
        <g id="Group_51942" data-name="Group 51942" transform="translate(12.884 21.092)">
          <rect id="Rectangle_23871" data-name="Rectangle 23871" width="10.546" height="0.692" transform="translate(0 2.843) rotate(-15.638)" fill="#fff"/>
        </g>
      </g>
      <g id="Group_51956" data-name="Group 51956" transform="translate(143.787 27.32)">
        <g id="Group_51944" data-name="Group 51944" transform="translate(7.666 6.569)">
          <path id="Path_564169" data-name="Path 564169" d="M900.464,212.049a7.186,7.186,0,0,0-2.229-2.69,5.007,5.007,0,0,1-1.784-2.763,4.851,4.851,0,0,1,3.48-5.9,4.681,4.681,0,0,1,3.628.6,4.947,4.947,0,0,1,2.178,3.039,5,5,0,0,1-.335,3.324,7,7,0,0,0-.727,3.367l-.678.139a7.531,7.531,0,0,1,.781-3.8,4.3,4.3,0,0,0,.287-2.861,4.259,4.259,0,0,0-1.874-2.617,4,4,0,0,0-3.1-.513,4.159,4.159,0,0,0-2.971,5.067,4.31,4.31,0,0,0,1.532,2.378,7.72,7.72,0,0,1,2.474,3.051Z" transform="translate(-896.307 -200.557)" fill="#fff"/>
        </g>
        <g id="Group_51945" data-name="Group 51945" transform="translate(11.734 16.799)">
          <path id="Path_564170" data-name="Path 564170" d="M921.543,265.1a.712.712,0,0,1-.411-.133.816.816,0,0,1-.316-.472.827.827,0,0,1,.015-.45l-.03-.031a.84.84,0,0,1-.191-.362.924.924,0,0,0-.215-.89.754.754,0,0,1,.538-.884l3.114-.759a.753.753,0,0,1,.884.537.834.834,0,0,1,0,.5l.031.033a.837.837,0,0,1,.175.81l.031.033h0a.834.834,0,0,1,.188.36.811.811,0,0,1-.062.564.7.7,0,0,1-.453.364l-3.139.765A.657.657,0,0,1,921.543,265.1Zm2.668-3.309h0l-3.113.759a.089.089,0,0,0-.021.086.114.114,0,0,0,.056.087.4.4,0,0,1,.167.667.106.106,0,0,0-.016.1.141.141,0,0,0,.031.061.442.442,0,0,1,.3.307.4.4,0,0,1-.108.381.108.108,0,0,0-.013.095.122.122,0,0,0,.045.073l3.143-.76a.135.135,0,0,0,.007-.091.142.142,0,0,0-.03-.06.068.068,0,0,0-.024-.018.4.4,0,0,1-.165-.671.11.11,0,0,0,.013-.095.14.14,0,0,0-.03-.059.447.447,0,0,1-.3-.31.4.4,0,0,1,.111-.381.117.117,0,0,0,.008-.1C924.254,261.809,924.219,261.793,924.211,261.793Zm-3.285,1.592.008,0Zm3.826-.937-.008.008Z" transform="translate(-920.382 -261.101)" fill="#fff"/>
        </g>
        <g id="Group_51946" data-name="Group 51946" transform="translate(12.928 19.373)">
          <path id="Path_564171" data-name="Path 564171" d="M928.6,277.981a1.765,1.765,0,0,1-1.152-.358l.144-.6,2.835-.691.4.464a2.138,2.138,0,0,1-1.524,1.1A2.991,2.991,0,0,1,928.6,277.981Z" transform="translate(-927.449 -276.333)" fill="#fff"/>
        </g>
        <g id="Group_51947" data-name="Group 51947" transform="translate(8.526 7.632)">
          <path id="Path_564172" data-name="Path 564172" d="M902.066,209.62l-.668-.18a4.362,4.362,0,0,1,2.4-2.59l.29.628A3.7,3.7,0,0,0,902.066,209.62Z" transform="translate(-901.398 -206.851)" fill="#fff"/>
        </g>
        <g id="Group_51948" data-name="Group 51948" transform="translate(0.452 12.403)">
          <rect id="Rectangle_23872" data-name="Rectangle 23872" width="4.594" height="0.692" transform="translate(0 1.089) rotate(-13.709)" fill="#fff"/>
        </g>
        <g id="Group_51949" data-name="Group 51949" transform="translate(1.353 5.211)">
          <rect id="Rectangle_23873" data-name="Rectangle 23873" width="0.692" height="5.159" transform="translate(0 0.591) rotate(-58.703)" fill="#fff"/>
        </g>
        <g id="Group_51950" data-name="Group 51950" transform="translate(0 12.38)">
          <rect id="Rectangle_23874" data-name="Rectangle 23874" width="5.159" height="0.692" transform="matrix(0.972, -0.237, 0.237, 0.972, 0, 1.223)" fill="#fff"/>
        </g>
        <g id="Group_51951" data-name="Group 51951" transform="translate(19.551 7.52)">
          <rect id="Rectangle_23875" data-name="Rectangle 23875" width="5.159" height="0.692" transform="translate(0 1.223) rotate(-13.712)" fill="#fff"/>
        </g>
        <g id="Group_51952" data-name="Group 51952" transform="translate(9.366)">
          <rect id="Rectangle_23876" data-name="Rectangle 23876" width="0.692" height="5.159" transform="translate(0 0.164) rotate(-13.703)" fill="#fff"/>
        </g>
        <g id="Group_51953" data-name="Group 51953" transform="translate(16.856 0.865)">
          <rect id="Rectangle_23877" data-name="Rectangle 23877" width="5.159" height="0.692" transform="matrix(0.52, -0.854, 0.854, 0.52, 0, 4.408)" fill="#fff"/>
        </g>
        <g id="Group_51954" data-name="Group 51954" transform="translate(4.954 16.168)">
          <rect id="Rectangle_23878" data-name="Rectangle 23878" width="5.159" height="0.692" transform="translate(0 4.408) rotate(-58.692)" fill="#fff"/>
        </g>
        <g id="Group_51955" data-name="Group 51955" transform="translate(18.962 13.318)">
          <rect id="Rectangle_23879" data-name="Rectangle 23879" width="0.692" height="5.159" transform="translate(0 0.591) rotate(-58.704)" fill="#fff"/>
        </g>
      </g>
      <g id="Group_51957" data-name="Group 51957" transform="translate(55.704 27.694)">
        <rect id="Rectangle_23880" data-name="Rectangle 23880" width="0.692" height="7.007" fill="#fff"/>
      </g>
      <g id="Group_51958" data-name="Group 51958" transform="translate(64.972 113.19)">
        <rect id="Rectangle_23881" data-name="Rectangle 23881" width="0.692" height="7.007" fill="#fff"/>
      </g>
      <g id="Group_51959" data-name="Group 51959" transform="translate(61.815 116.348)">
        <rect id="Rectangle_23882" data-name="Rectangle 23882" width="7.007" height="0.692" fill="#fff"/>
      </g>
      <g id="Group_51960" data-name="Group 51960" transform="translate(88.813 24.054)">
        <path id="Path_564173" data-name="Path 564173" d="M528.589,158.44a12.361,12.361,0,0,1-2.988-.394l.168-.671a9.959,9.959,0,0,0,4.678.168c3.257-.765,6.2-3.749,9.312-6.908,3.471-3.522,7.061-7.164,11.445-8.035a12.916,12.916,0,0,1,2.106-.245l.022.691a12.213,12.213,0,0,0-1.993.232c-4.176.829-7.689,4.394-11.087,7.841-3.186,3.232-6.2,6.286-9.647,7.1A8.807,8.807,0,0,1,528.589,158.44Z" transform="translate(-525.601 -142.355)" fill="#fff"/>
      </g>
      <g id="Group_51961" data-name="Group 51961" transform="translate(88.583 37.608)">
        <path id="Path_564174" data-name="Path 564174" d="M526.082,226.262a1.855,1.855,0,1,1,.328-.029A1.835,1.835,0,0,1,526.082,226.262Zm0-3.006a1.157,1.157,0,1,0,1.139.955A1.155,1.155,0,0,0,526.087,223.256Z" transform="translate(-524.237 -222.564)" fill="#fff"/>
      </g>
      <g id="Group_51962" data-name="Group 51962" transform="translate(100.838 31.233)">
        <path id="Path_564175" data-name="Path 564175" d="M598.609,188.539a1.852,1.852,0,1,1,.327-.029A1.854,1.854,0,0,1,598.609,188.539Zm0-3.007a1.157,1.157,0,0,0-.663,2.106,1.144,1.144,0,0,0,.865.19,1.157,1.157,0,0,0-.2-2.3Z" transform="translate(-596.764 -184.84)" fill="#fff"/>
      </g>
      <g id="Group_51963" data-name="Group 51963" transform="translate(113.037 22.715)">
        <path id="Path_564176" data-name="Path 564176" d="M670.8,138.13a1.849,1.849,0,1,1,1.824-2.173h0a1.852,1.852,0,0,1-1.824,2.173Zm0-3.007a1.171,1.171,0,0,0-.2.018,1.157,1.157,0,1,0,.2-.018Z" transform="translate(-668.957 -134.431)" fill="#fff"/>
      </g>
      <g id="Group_51964" data-name="Group 51964" transform="translate(186.394 58.986)">
        <path id="Path_564177" data-name="Path 564177" d="M1105.38,353.669a2.3,2.3,0,1,1,.406-.036A2.31,2.31,0,0,1,1105.38,353.669Zm.005-3.893a1.62,1.62,0,0,0-.281.025,1.6,1.6,0,1,0,.281-.025Z" transform="translate(-1103.092 -349.084)" fill="#fff"/>
      </g>
      <g id="Group_51965" data-name="Group 51965" transform="translate(96.669 62.245)">
        <path id="Path_564178" data-name="Path 564178" d="M574.383,372.953a2.292,2.292,0,1,1,2.262-2.694h0a2.292,2.292,0,0,1-1.856,2.658A2.309,2.309,0,0,1,574.383,372.953Zm.006-3.893a1.606,1.606,0,0,0-.281.025,1.6,1.6,0,1,0,.281-.025Z" transform="translate(-572.095 -368.368)" fill="#fff"/>
      </g>
      <g id="Group_51966" data-name="Group 51966" transform="translate(25.903 151.758)">
        <path id="Path_564179" data-name="Path 564179" d="M153.982,906.448l-.364-.327-.317-6.09a1.825,1.825,0,1,1,3.644-.19l.317,6.091-.327.364Zm1.142-7.645h-.059a1.134,1.134,0,0,0-1.072,1.19l.3,5.745,2.262-.118-.3-5.745A1.134,1.134,0,0,0,155.123,898.8Z" transform="translate(-153.298 -898.11)" fill="#fff"/>
      </g>
      <g id="Group_51967" data-name="Group 51967" transform="translate(31.962 147.069)">
        <path id="Path_564180" data-name="Path 564180" d="M190.066,883.064l-.363-.328-.544-10.451a1.825,1.825,0,1,1,3.644-.19l.544,10.451-.327.364Zm.915-12.006h-.059a1.135,1.135,0,0,0-1.072,1.19l.527,10.105,2.262-.118-.526-10.106A1.134,1.134,0,0,0,190.98,871.058Z" transform="translate(-189.155 -870.365)" fill="#fff"/>
      </g>
      <g id="Group_51968" data-name="Group 51968" transform="translate(38.202 141.941)">
        <path id="Path_564181" data-name="Path 564181" d="M227.244,857.5l-.364-.327-.794-15.242a1.827,1.827,0,0,1,1.727-1.917,1.824,1.824,0,0,1,1.917,1.727l.794,15.242-.327.364Zm.666-16.8-.061,0a1.134,1.134,0,0,0-1.072,1.19l.776,14.9,2.262-.118-.776-14.9a1.132,1.132,0,0,0-1.129-1.074Z" transform="translate(-226.084 -840.013)" fill="#fff"/>
      </g>
      <g id="Group_51969" data-name="Group 51969" transform="translate(22.948 158.339)">
        <rect id="Rectangle_23883" data-name="Rectangle 23883" width="24.086" height="0.692" transform="translate(0 1.254) rotate(-2.984)" fill="#fff"/>
      </g>
      <g id="Group_51970" data-name="Group 51970" transform="translate(52.547 30.852)">
        <rect id="Rectangle_23884" data-name="Rectangle 23884" width="7.007" height="0.692" fill="#fff"/>
      </g>
      <g id="Group_51971" data-name="Group 51971" transform="translate(354.981 93.291)">
        <path id="Path_564182" data-name="Path 564182" d="M2103.218,556.939a2.419,2.419,0,1,1,.579-.071A2.423,2.423,0,0,1,2103.218,556.939Zm0-4.145a1.727,1.727,0,1,0,1.676,1.313A1.725,1.725,0,0,0,2103.217,552.794Z" transform="translate(-2100.799 -552.102)" fill="#fff"/>
      </g>
      <g id="Group_51972" data-name="Group 51972" transform="translate(272.623 174.05)">
        <path id="Path_564183" data-name="Path 564183" d="M1616.947,1040.321l-3.547-4.88.559-.407,3.252,4.474,6.181-9.469.579.378-6.455,9.889Z" transform="translate(-1613.401 -1030.039)" fill="#fff"/>
      </g>
    </g>
    <g id="Characters" transform="translate(27.246 26.354)">
      <g id="Group_51973" data-name="Group 51973" transform="translate(121.535 84.684)">
        <path id="Path_564184" data-name="Path 564184" d="M1023.034,658.919l-38.119,20.96,4.748,5.082L882.925,787.341l6.157,5.87L995.82,690.83l4.685,5.3Z" transform="translate(-882.685 -658.615)" fill="#ffd59e"/>
        <path id="Path_564185" data-name="Path 564185" d="M887.665,791.971l-6.157-5.87v-.5L988,683.456l-4.515-4.832.086-.539,38.119-20.96.463.482-22.53,37.213-.555.05-4.447-5.031L888.143,791.971Zm-5.418-6.121,5.656,5.392L994.4,689.09l.5.02,4.374,4.949,21.617-35.706-36.6,20.124,4.445,4.757-.013.486Z" transform="translate(-881.507 -657.125)" fill="#fff"/>
      </g>
      <path id="Path_564186" data-name="Path 564186" d="M1686.126,163.737l-.035,18.655s10.615-5.291,16.738-5.905,6.851,2.48,6.851,2.48.952,4.089,9.183,2.452a49.02,49.02,0,0,0,14.094-5.128l-11.043-5.813,10.948-12.571s-17.1,7.9-21.77,3.88c0,0-2.367-4.3-5.646-4.174S1697.133,158.212,1686.126,163.737Z" transform="translate(-1428.602 -157.332)" fill="#e86f75"/>
      <g id="Group_51975" data-name="Group 51975" transform="translate(0 60.584)">
        <g id="Group_51974" data-name="Group 51974">
          <path id="Path_564187" data-name="Path 564187" d="M268.866,662.309H162.255v-.461h106.38V625.241l.231-.231h36.606V588.4l.231-.231h36.606V551.567l.231-.231h36.606V514.73l.231-.231H468.4v.461H379.607v36.606l-.231.231H342.77V588.4l-.231.231H305.934v36.606l-.231.231H269.1v36.606Z" transform="translate(-162.255 -514.5)" fill="#0c2238"/>
        </g>
      </g>
      <g id="Group_51976" data-name="Group 51976" transform="translate(257.033)">
        <path id="Path_564188" data-name="Path 564188" d="M1683.853,216.774h-.461V162.508l.119-.2c.592-.331,14.594-8.073,21.271-5.993a4.54,4.54,0,0,1,2.862,2.349,4.386,4.386,0,0,0,2.684,2.228c6.471,2.155,20.344-4.833,20.483-4.9l.278.357-11.163,12.819,11.094,5.655-.21.411-11.357-5.789-.069-.357L1730,156.9c-3.379,1.6-14.133,6.323-19.814,4.432a4.831,4.831,0,0,1-2.952-2.461,4.094,4.094,0,0,0-2.585-2.113c-6.179-1.925-19.4,5.131-20.791,5.89Z" transform="translate(-1683.392 -155.96)" fill="#0c2238"/>
      </g>
      <g id="Group_51977" data-name="Group 51977" transform="translate(257.152 18.83)">
        <path id="Path_564189" data-name="Path 564189" d="M1684.317,274.146l-.224-.4c.593-.331,14.589-8.072,21.271-5.992a4.539,4.539,0,0,1,2.862,2.349,4.387,4.387,0,0,0,2.685,2.228c6.471,2.155,20.344-4.833,20.483-4.9l.209.411c-.5.252-10.661,5.37-17.722,5.371a9.927,9.927,0,0,1-3.116-.44,4.83,4.83,0,0,1-2.952-2.461,4.1,4.1,0,0,0-2.586-2.113C1698.736,266.17,1684.461,274.066,1684.317,274.146Z" transform="translate(-1684.093 -267.396)" fill="#0c2238"/>
      </g>
      <g id="Group_51978" data-name="Group 51978" transform="translate(266.817 3.35)">
        <path id="Path_564190" data-name="Path 564190" d="M1741.493,178.754l-.2-.415c.321-.155,7.894-3.783,10.611-2.118l-.241.393C1749.159,175.081,1741.569,178.717,1741.493,178.754Z" transform="translate(-1741.292 -175.784)" fill="#0c2238"/>
      </g>
      <path id="Path_564191" data-name="Path 564191" d="M1640.546,479.125a7.47,7.47,0,0,1,14.941,0Z" transform="translate(-1390.753 -418.311)" fill="#0c2238"/>
      <g id="Group_51979" data-name="Group 51979" transform="translate(152.119 55.394)">
        <rect id="Rectangle_23885" data-name="Rectangle 23885" width="32.935" height="0.692" transform="matrix(0.794, -0.608, 0.608, 0.794, 0, 20.009)" fill="#fff"/>
      </g>
      <g id="Group_51980" data-name="Group 51980" transform="translate(132.597 58.127)">
        <rect id="Rectangle_23886" data-name="Rectangle 23886" width="25.358" height="0.692" transform="translate(0 15.405) rotate(-37.41)" fill="#fff"/>
      </g>
      <g id="Group_51981" data-name="Group 51981" transform="translate(141.375 84.458)">
        <rect id="Rectangle_23887" data-name="Rectangle 23887" width="25.358" height="0.692" transform="matrix(0.794, -0.607, 0.607, 0.794, 0, 15.404)" fill="#fff"/>
      </g>
      <g id="Group_51982" data-name="Group 51982" transform="translate(34.186 158.1)">
        <rect id="Rectangle_23888" data-name="Rectangle 23888" width="25.359" height="0.692" transform="matrix(0.794, -0.607, 0.607, 0.794, 0, 15.404)" fill="#fff"/>
      </g>
      <g id="Group_51983" data-name="Group 51983" transform="translate(44.423 134.037)">
        <rect id="Rectangle_23889" data-name="Rectangle 23889" width="25.358" height="0.692" transform="translate(0 15.405) rotate(-37.408)" fill="#fff"/>
      </g>
      <g id="Group_51984" data-name="Group 51984" transform="translate(173.766 55.154)">
        <path id="Path_564192" data-name="Path 564192" d="M1194.865,487.441l-.677-.142.889-4.227-4.439.141-.022-.692,4.879-.155.35.417Z" transform="translate(-1190.615 -482.366)" fill="#fff"/>
      </g>
      <path id="Path_564193" data-name="Path 564193" d="M654.5,774.358l13.108,3.419a39.925,39.925,0,0,0,8.155,7.551c5.289,3.749,9.2,6.309,9.2,6.309s-7.782,12.887-18.471,16.539a30.226,30.226,0,0,1-22.545-.765s.279-13.462,3.893-21.252S651.977,777.625,654.5,774.358Z" transform="translate(-562.554 -669.865)" fill="#5897d1"/>
      <path id="Path_564194" data-name="Path 564194" d="M807.6,639.419l4.127,9.549s-2.656-.877-4.805,2.226Z" transform="translate(-697.99 -557.727)" fill="#5897d1"/>
      <path id="Path_564195" data-name="Path 564195" d="M703.177,613.037s4.39,1.725,6.913.923a10.752,10.752,0,0,1,1.545,3.3c.673,2.2,4.251,9.808,4.251,9.808s-2.432-1.045-4.543,1.625l-4.14,15.022L694.094,640.3l1.453-11.14a13.741,13.741,0,0,0-.908-7.423,26.828,26.828,0,0,0-3.047-5.257l3.469-1.225Z" transform="translate(-602.148 -535.803)" fill="#fff"/>
      <path id="Path_564196" data-name="Path 564196" d="M613.579,982.74l.412,8.409L597.222,1015.3l9.97,6.683,15.088-21.474a22.821,22.821,0,0,0,3.346-9.888c.307-5.273.384-12.789.384-12.789s-6.012,1.392-8.126,1.263Z" transform="translate(-523.724 -838.958)" fill="#e86f75"/>
      <path id="Path_564197" data-name="Path 564197" d="M847.012,885.313s4.343,2.918,4.987,7.929a113.339,113.339,0,0,1,.4,13.494l.031,12.69h-12.02l-.339-23.162,1.525-4.091A28.841,28.841,0,0,0,847.012,885.313Z" transform="translate(-725.538 -762.071)" fill="#e86f75"/>
      <path id="Path_564198" data-name="Path 564198" d="M799.263,658.7l3.082,5.841s12.468-7.537,13.794-8.6,3.069-3.428,4.65-4.373.651,1.4.651,1.4l1.714-1.082s3.9-2.548,4.032-1.563-.486,1.123-.486,1.123,1.193-.49,1.13.371-.206.921-.206.921.255.311-.38,1.566a22.863,22.863,0,0,1-4.793,5.384,42.736,42.736,0,0,0-3.88,3.107l-12.579,8.808a5.345,5.345,0,0,1-4.658,1.086c-2.829-.639-3.819-3.057-5.13-5.5l2.079-7.491Z" transform="translate(-689.084 -566.607)" fill="#e86f75"/>
      <path id="Path_564199" data-name="Path 564199" d="M646.566,647.472l-7.806,2.234s-3.776.917-3.381,6.04l3.04,18.2s.788,4.6,2.54,7.267c0,0,.83,1.306,1.772,1.344,0,0,.878,1.4,1.593.532,0,0,.645.739.815.052s-.1-5.533-.1-5.533.558.472.76-.456-.76-4.808-.76-4.808-.713-1.552-1.093-6.771-.925-9.565-.925-9.565l5.908-1.492S649.162,652.473,646.566,647.472Z" transform="translate(-555.409 -564.419)" fill="#e86f75"/>
      <path id="Path_564200" data-name="Path 564200" d="M765.223,494.632s-5.2-1.393-5.685.664.612,16.73.612,16.73a14.149,14.149,0,0,0,4.148.875c1.917.017,2.393-.6,2.393-.6l.627-6.289s3.071-1.094,3.9-3.864.417-3.045.417-3.045.776-.259.767-.824-.684-.911-.684-.911a17.3,17.3,0,0,0,0-4.352,3.815,3.815,0,0,0-1.678-1.888Z" transform="translate(-658.509 -434.496)" fill="#e86f75"/>
      <g id="Group_51985" data-name="Group 51985" transform="translate(133.919 84.474)">
        <path id="Path_564201" data-name="Path 564201" d="M955.1,662.025l-.3-.349a37.559,37.559,0,0,0,4.116-4.1c.591-.827.487-1.081.46-1.123-.075-.118-.373-.119-.516-.093l-.082-.454c.073-.014.723-.117.987.3.22.348.065.883-.474,1.638A37.026,37.026,0,0,1,955.1,662.025Z" transform="translate(-954.795 -655.883)" fill="#0c2238"/>
      </g>
      <path id="Path_564202" data-name="Path 564202" d="M671.474,459.675s-4.518-4.746-11.061-.419c-7.821,5.172-11.5,14.881-16.485,21.88,0,0,5.455,8.44,22.026,6.536,0,0-1.776-8.328,0-16.038,0,0-2.877-.9-1.462-3.575s4.236-.336,4.236-.336Z" transform="translate(-562.539 -406.494)" fill="#0c2238"/>
      <g id="Group_51986" data-name="Group 51986" transform="translate(102.693 61.569)">
        <path id="Path_564203" data-name="Path 564203" d="M771.548,521.875l-.349-.3a1.6,1.6,0,0,1,.864-.547,1.745,1.745,0,0,0-1.848.058l-.216-.408a2.094,2.094,0,0,1,2.851.468l-.275.342A.969.969,0,0,0,771.548,521.875Z" transform="translate(-770 -520.331)" fill="#0c2238"/>
      </g>
      <path id="Path_564204" data-name="Path 564204" d="M819.219,520.689a.523.523,0,1,0,.644-.365A.523.523,0,0,0,819.219,520.689Z" transform="translate(-708.193 -458.74)" fill="#0c2238"/>
      <path id="Path_564205" data-name="Path 564205" d="M803.638,524.3a.824.824,0,1,0,1.014-.574A.824.824,0,0,0,803.638,524.3Z" transform="translate(-695.236 -461.56)" fill="#fab5a0"/>
      <g id="Group_51987" data-name="Group 51987" transform="translate(109.791 63.977)">
        <path id="Path_564206" data-name="Path 564206" d="M814.343,536.85A2.321,2.321,0,0,1,812,534.623l.459-.046a1.855,1.855,0,0,0,1.882,1.812l.016.461Z" transform="translate(-812.002 -534.577)" fill="#0c2238"/>
      </g>
      <path id="Path_564207" data-name="Path 564207" d="M813.4,509.3c.165.264.784.173,1.381-.2s.948-.893.783-1.156-.784-.173-1.382.2S813.236,509.032,813.4,509.3Z" transform="translate(-703.34 -448.337)" fill="#0c2238"/>
      <g id="Group_51988" data-name="Group 51988" transform="translate(102.664 56.782)">
        <path id="Path_564208" data-name="Path 564208" d="M773.287,507.589q-.113,0-.224,0a7.416,7.416,0,0,1-3.238-.96l.25-.388a7.009,7.009,0,0,0,3.01.887,7.535,7.535,0,0,0,1.6-.138,6.126,6.126,0,0,0,5.124-4.849,6.826,6.826,0,0,0,.191-1.3l.048-1.016.227-.22a.465.465,0,0,0,.157-.025.483.483,0,0,0,.314-.238.569.569,0,0,0,.044-.447.494.494,0,0,0-.451-.376l-.218-.241.106-2.236a6.574,6.574,0,0,0-.98-3.791l.392-.243a7.034,7.034,0,0,1,1.048,4.056l-.1,2.034a.975.975,0,0,1,.638.657,1.032,1.032,0,0,1-.081.812.929.929,0,0,1-.586.457l-.064.016-.039.824a7.13,7.13,0,0,1-.2,1.37,6.6,6.6,0,0,1-5.492,5.216A8.825,8.825,0,0,1,773.287,507.589Z" transform="translate(-769.825 -491.998)" fill="#0c2238"/>
      </g>
      <g id="Group_51989" data-name="Group 51989" transform="translate(101.411 52.308)">
        <path id="Path_564209" data-name="Path 564209" d="M765.123,478.689a2.705,2.705,0,1,1,1.136-5.158c1.122-4.573,3.239-7.776,5.3-8,.77-.08,1.878.223,2.791,2.14,1.394,2.926-6.667,7.054-7.011,7.228l-.3-.086a2.245,2.245,0,1,0-.751,3.084l.24.394A2.691,2.691,0,0,1,765.123,478.689Zm1.553-4.918a2.68,2.68,0,0,1,.635.627c2.336-1.215,7.593-4.486,6.621-6.525-.44-.923-1.2-2-2.326-1.879C769.75,466.192,767.727,469.386,766.676,473.771Z" transform="translate(-762.413 -465.524)" fill="#0c2238"/>
      </g>
      <path id="Path_564210" data-name="Path 564210" d="M786.239,475.075l.984.655,2.174-1.177,2.117-1.631,1.717-1.727.78-1.206-.262-1.167-.35-.66-.977-.878-1.193-.4-1.341,1.045-1.433,1.628-1.295,2.271L786.5,473.9Z" transform="translate(-680.802 -414.348)" fill="#0c2238"/>
      <path id="Path_564211" data-name="Path 564211" d="M785.839,581.73l3.061,2.406.237-2.757Z" transform="translate(-680.469 -509.495)" fill="#0c2238"/>
      <g id="Group_51990" data-name="Group 51990" transform="translate(98.509 52.539)">
        <path id="Path_564212" data-name="Path 564212" d="M752.62,492.991a7.961,7.961,0,0,1-3.751-.907l-.121-.223.527-6.171c-2.352-1.426-3.851-4.559-4.021-8.42-.176-4,1.1-7.546,3.242-9.04a6.546,6.546,0,0,1,7.994.056l-.3.348a5.994,5.994,0,0,0-7.428-.026c-1.988,1.385-3.212,4.857-3.045,8.641s1.631,6.806,3.917,8.115l.115.22-.526,6.162a8.029,8.029,0,0,0,5.368.543l.641-6.249.459.047-.657,6.406-.159.2A8.019,8.019,0,0,1,752.62,492.991Z" transform="translate(-745.237 -466.89)" fill="#0c2238"/>
      </g>
      <path id="Path_564213" data-name="Path 564213" d="M751.972,481.45s-4.143,1.963-4.7-1.9,1.643-8.69,3.1-9.7a7.223,7.223,0,0,1,7.97.562l-4.128,6.02s-2.392-.7-3.4.524S749.281,480.045,751.972,481.45Z" transform="translate(-648.344 -416.026)" fill="#0c2238"/>
      <g id="Group_51991" data-name="Group 51991" transform="translate(89.121 78.718)">
        <path id="Path_564214" data-name="Path 564214" d="M694.437,637.075l-.366-.192a19.03,19.03,0,0,0-4.391-12.925l.116-.369c.454-.127,11.165-3.091,14.72-1.069a2.183,2.183,0,0,1,1.1,1.336C706.759,628.1,694.94,636.711,694.437,637.075Zm-4.176-13.134a19.414,19.414,0,0,1,4.277,12.485c2.026-1.518,11.586-8.906,10.631-12.45a1.717,1.717,0,0,0-.883-1.055C701.24,621.188,692.141,623.447,690.261,623.942Z" transform="translate(-689.68 -621.816)" fill="#0c2238"/>
      </g>
      <g id="Group_51992" data-name="Group 51992" transform="translate(91.888 104.27)">
        <rect id="Rectangle_23890" data-name="Rectangle 23890" width="0.461" height="13.547" transform="matrix(0.252, -0.968, 0.968, 0.252, 0, 0.446)" fill="#0c2238"/>
      </g>
      <g id="Group_51993" data-name="Group 51993" transform="translate(106.792 81.645)">
        <path id="Path_564215" data-name="Path 564215" d="M794.7,658.545l-.445-.121c.968-3.562,2.244-8.518,2.829-11.9a21.319,21.319,0,0,0-.236-7.289l.451-.095a21.83,21.83,0,0,1,.24,7.462C796.951,650,795.671,654.973,794.7,658.545Z" transform="translate(-794.255 -639.139)" fill="#0c2238"/>
      </g>
      <g id="Group_51994" data-name="Group 51994" transform="translate(98.562 77.301)">
        <path id="Path_564216" data-name="Path 564216" d="M745.9,615.224l-.357-.292c1.05-1.28,3.564-1.494,3.67-1.5l.037.46C749.231,613.891,746.83,614.1,745.9,615.224Z" transform="translate(-745.548 -613.429)" fill="#0c2238"/>
      </g>
      <g id="Group_51995" data-name="Group 51995" transform="translate(81.29 121.652)">
        <path id="Path_564217" data-name="Path 564217" d="M655.829,894.622a30.554,30.554,0,0,1-12.5-2.62l.208-.412a30.242,30.242,0,0,0,13.985,2.522c7.34-.426,17.935-3.931,26.73-18.211l.393.242c-8.905,14.458-19.662,18-27.118,18.43C656.953,894.607,656.385,894.622,655.829,894.622Z" transform="translate(-643.333 -875.901)" fill="#0c2238"/>
      </g>
      <g id="Group_51996" data-name="Group 51996" transform="translate(126.663 157.341)">
        <rect id="Rectangle_23891" data-name="Rectangle 23891" width="0.461" height="2.947" transform="translate(0 0.029) rotate(-3.545)" fill="#0c2238"/>
      </g>
      <g id="Group_51997" data-name="Group 51997" transform="translate(97.173 103.342)">
        <rect id="Rectangle_23892" data-name="Rectangle 23892" width="0.461" height="8.736" transform="translate(0 0.448) rotate(-76.161)" fill="#fff"/>
      </g>
      <path id="Path_564218" data-name="Path 564218" d="M688.975,634.668a4.816,4.816,0,0,0,.211,2.695l1.7-.487S689.486,634.621,688.975,634.668Z" transform="translate(-599.887 -553.778)" fill="#0c2238"/>
      <path id="Path_564219" data-name="Path 564219" d="M701.242,689.778a6.536,6.536,0,0,0,2.393,3.073l.248-1.744-.2-1.947Z" transform="translate(-610.167 -599.063)" fill="#0c2238"/>
      <path id="Path_564220" data-name="Path 564220" d="M817.53,695.117a9.992,9.992,0,0,1-2.4,3.06l-1.229-2.331A4.237,4.237,0,0,1,817.53,695.117Z" transform="translate(-703.793 -603.876)" fill="#0c2238"/>
      <g id="Group_51998" data-name="Group 51998" transform="translate(105.425 53.947)">
        <path id="Path_564221" data-name="Path 564221" d="M786.622,481.308l-.458-.055c.306-2.539,2.922-5.888,3.033-6.029l.363.285C789.533,475.543,786.913,478.9,786.622,481.308Z" transform="translate(-786.164 -475.224)" fill="#0c2238"/>
      </g>
      <path id="Path_564222" data-name="Path 564222" d="M698.727,984.281l-5.407,3.671-.143-3.847Z" transform="translate(-603.465 -844.17)" fill="#0c2238"/>
      <path id="Path_564223" data-name="Path 564223" d="M828.489,921.836l-2.152,5.771-2.81-1.056Z" transform="translate(-711.79 -792.422)" fill="#0c2238"/>
      <g id="Group_51999" data-name="Group 51999" transform="translate(91.748 105.289)">
        <rect id="Rectangle_23893" data-name="Rectangle 23893" width="6.274" height="0.461" transform="matrix(0.432, -0.902, 0.902, 0.432, 0, 5.66)" fill="#0c2238"/>
      </g>
      <g id="Group_52000" data-name="Group 52000" transform="translate(95.951 105.873)">
        <rect id="Rectangle_23894" data-name="Rectangle 23894" width="2.841" height="0.461" transform="translate(0 2.798) rotate(-79.982)" fill="#0c2238"/>
      </g>
      <g id="Group_52001" data-name="Group 52001" transform="translate(81.439 120.259)">
        <path id="Path_564224" data-name="Path 564224" d="M656.739,885.193a35.417,35.417,0,0,1-12.523-2.463l.163-.432c16.925,6.374,26.591-1.519,29.767-4.112,4.3-3.514,8.639-10.46,8.683-10.53l.392.243c-.044.07-4.418,7.08-8.782,10.644A26.85,26.85,0,0,1,656.739,885.193Z" transform="translate(-644.216 -867.657)" fill="#fff"/>
      </g>
      <g id="Group_52002" data-name="Group 52002" transform="translate(114.642 157.352)">
        <path id="Path_564225" data-name="Path 564225" d="M862.38,1101.3H841.124l-.231-.228-.178-13.89.461-.006.175,13.662h20.823c.123-1.174.542-7.268-3.585-9.992a5.811,5.811,0,0,0-5.538-.572,7.043,7.043,0,0,0-2.856,2.393l-.374-.269a7.507,7.507,0,0,1,3.045-2.546,6.268,6.268,0,0,1,5.978.61c4.8,3.168,3.775,10.566,3.764,10.641Z" transform="translate(-840.716 -1087.18)" fill="#0c2238"/>
      </g>
      <g id="Group_52003" data-name="Group 52003" transform="translate(65.687 176.152)">
        <path id="Path_564226" data-name="Path 564226" d="M568.576,1222.4l-17.525-12.61-.055-.319,7.622-10.977.318-.06,9.97,6.683.06.324-1.422,2.018a6.973,6.973,0,0,1,4.433,4.1c2.211,4.932-2.878,10.573-3.1,10.811ZM551.5,1209.549l17.171,12.355c.795-.936,4.774-5.936,2.881-10.157a6.412,6.412,0,0,0-4.443-3.912,5.277,5.277,0,0,0-3.206.552l-.183-.423a5.839,5.839,0,0,1,3.329-.607l1.4-1.986-9.585-6.425Z" transform="translate(-550.996 -1198.435)" fill="#0c2238"/>
      </g>
      <g id="Group_52004" data-name="Group 52004" transform="translate(88.905 106.113)">
        <path id="Path_564227" data-name="Path 564227" d="M689.528,791.428a1.318,1.318,0,0,1-.773-.423l.317-.335c.35.332.468.293.469.293.407-.249-.114-3.4-1.137-6.888l.443-.13c.6,2.035,1.884,6.831.935,7.412A.482.482,0,0,1,689.528,791.428Z" transform="translate(-688.403 -783.945)" fill="#0c2238"/>
      </g>
      <g id="Group_52005" data-name="Group 52005" transform="translate(86.913 111.282)">
        <path id="Path_564228" data-name="Path 564228" d="M679.052,822.512a.53.53,0,0,1-.3-.095c-1.052-.693-2.036-6.336-2.145-6.977l.455-.077c.4,2.346,1.277,6.23,1.943,6.669.022.015.038.021.043.018.7-.169.28-3.981-.506-7.415l.45-.1c.407,1.779,1.622,7.611.165,7.966A.474.474,0,0,1,679.052,822.512Z" transform="translate(-676.612 -814.533)" fill="#0c2238"/>
      </g>
      <g id="Group_52006" data-name="Group 52006" transform="translate(85.181 112.406)">
        <path id="Path_564229" data-name="Path 564229" d="M669.392,828c-.4,0-.778-.356-1.155-1.086a39.942,39.942,0,0,1-1.876-5.61l.446-.117a40.516,40.516,0,0,0,1.84,5.516c.4.769.667.837.748.837h.005c.163-.006.318-.253.368-.371l.426.176c-.027.065-.274.634-.773.656Z" transform="translate(-666.361 -821.188)" fill="#0c2238"/>
      </g>
      <g id="Group_52007" data-name="Group 52007" transform="translate(82.43 107.353)">
        <path id="Path_564230" data-name="Path 564230" d="M654.659,802.3a1.784,1.784,0,0,1-1.116-.639c-.118-.117-.476-.472-1.716-3.252a30.471,30.471,0,0,1-1.749-7.065l.458-.059a30.685,30.685,0,0,0,1.71,6.931,13.882,13.882,0,0,0,1.622,3.116c.563.556.821.526.859.488l.379.261a.5.5,0,0,1-.373.214A.652.652,0,0,1,654.659,802.3Z" transform="translate(-650.078 -791.282)" fill="#0c2238"/>
      </g>
      <g id="Group_52008" data-name="Group 52008" transform="translate(126.453 84.529)">
        <path id="Path_564231" data-name="Path 564231" d="M914.335,667.441c-2.238-2.226-3.386-4.07-3.724-5.979l.069-.208.047-.045c1.487-1.671,5.077-5.528,5.982-4.943.4.257.286.977-.386,2.486l-.422-.187c.735-1.652.56-1.905.553-1.915-.423-.153-2.88,2.057-5.368,4.849.346,1.769,1.454,3.507,3.573,5.616Z" transform="translate(-910.611 -656.206)" fill="#0c2238"/>
      </g>
      <g id="Group_52009" data-name="Group 52009" transform="translate(126.453 89.532)">
        <path id="Path_564232" data-name="Path 564232" d="M914.335,692.047c-2.238-2.226-3.386-4.07-3.724-5.979l.069-.208.047-.045.188.2.15-.027c.32,1.809,1.429,3.577,3.595,5.732Z" transform="translate(-910.611 -685.815)" fill="#fff"/>
      </g>
      <g id="Group_52010" data-name="Group 52010" transform="translate(130.631 83.357)">
        <path id="Path_564233" data-name="Path 564233" d="M936.142,657.578l-.429-.169a3.5,3.5,0,0,0-.376-3.386l.023-.314.556-.512c1.422-1.166,6.1-4.851,7.068-3.705a.505.505,0,0,1,.108.4c-.151,1.251-4.765,4.645-5.291,5.028l-.272-.373c1.923-1.4,5.009-3.919,5.1-4.711a.082.082,0,0,0,0-.047c-.462-.549-3.689,1.523-6.413,3.756l-.4.366A3.991,3.991,0,0,1,936.142,657.578Z" transform="translate(-935.336 -649.274)" fill="#0c2238"/>
      </g>
      <g id="Group_52011" data-name="Group 52011" transform="translate(130.046 85.835)">
        <path id="Path_564234" data-name="Path 564234" d="M932.155,673.99l-.281-.366a46.319,46.319,0,0,0,5.957-5.381,20.264,20.264,0,0,0,2.311-3.164c.181-.552.074-.668.073-.669-.023-.022-.1-.016-.146,0l-.15-.436a.627.627,0,0,1,.619.109c.213.208.227.582.043,1.143a22.857,22.857,0,0,1-2.39,3.309A45.694,45.694,0,0,1,932.155,673.99Z" transform="translate(-931.874 -663.934)" fill="#0c2238"/>
      </g>
      <g id="Group_52012" data-name="Group 52012" transform="translate(82.647 106.003)">
        <path id="Path_564235" data-name="Path 564235" d="M653,785.207a10.532,10.532,0,0,1-1.635-.13l.072-.456a8.119,8.119,0,0,0,6.258-1.327l.3.35A7.965,7.965,0,0,1,653,785.207Z" transform="translate(-651.364 -783.293)" fill="#fff"/>
      </g>
      <path id="Path_564236" data-name="Path 564236" d="M662.918,788.852c.037.356-.678.721-1.6.817s-1.694-.115-1.732-.471.678-.721,1.6-.816S662.882,788.5,662.918,788.852Z" transform="translate(-575.551 -681.499)" fill="#fff"/>
      <g id="Group_52013" data-name="Group 52013" transform="translate(115.013 157.125)">
        <rect id="Rectangle_23895" data-name="Rectangle 23895" width="12.023" height="0.461" fill="#0c2238"/>
      </g>
      <g id="Group_52014" data-name="Group 52014" transform="translate(80.051 60.144)">
        <path id="Path_564237" data-name="Path 564237" d="M636.305,525.188l-.3-.349c3.132-2.716,10.542-12.844,10.616-12.945l.373.272C646.686,512.584,639.477,522.437,636.305,525.188Z" transform="translate(-636.003 -511.894)" fill="#0c2238"/>
      </g>
      <g id="Group_52015" data-name="Group 52015" transform="translate(103.849 52.716)">
        <path id="Path_564238" data-name="Path 564238" d="M777.295,474.457l-.455-.075a12.307,12.307,0,0,1,2.917-6.444l.325.327A12.088,12.088,0,0,0,777.295,474.457Z" transform="translate(-776.84 -467.938)" fill="#0c2238"/>
      </g>
      <g id="Group_52016" data-name="Group 52016" transform="translate(124.186 90.975)">
        <path id="Path_564239" data-name="Path 564239" d="M903.286,699.2a12.691,12.691,0,0,1-6.09-4.584l.38-.262c.024.034,2.394,3.415,5.837,4.4Z" transform="translate(-897.196 -694.356)" fill="#fff"/>
      </g>
      <circle id="Ellipse_3954" data-name="Ellipse 3954" cx="0.529" cy="0.529" r="0.529" transform="translate(125.754 93.231)" fill="#fff"/>
      <path id="Path_564240" data-name="Path 564240" d="M908.972,693.017a.529.529,0,1,1-.529-.529A.529.529,0,0,1,908.972,693.017Z" transform="translate(-781.917 -601.828)" fill="#fff"/>
      <g id="Group_52018" data-name="Group 52018" transform="translate(93.187 82.807)">
        <g id="Group_52017" data-name="Group 52017">
          <path id="Path_564241" data-name="Path 564241" d="M796.683,646.558a.543.543,0,1,1-.543-.543A.543.543,0,0,1,796.683,646.558Z" transform="translate(-781.765 -646.015)" fill="#b3cce3"/>
          <path id="Path_564242" data-name="Path 564242" d="M767,678.385a.543.543,0,1,1-.543-.543A.543.543,0,0,1,767,678.385Z" transform="translate(-757.099 -672.464)" fill="#b3cce3"/>
          <path id="Path_564243" data-name="Path 564243" d="M788.458,717.686a.543.543,0,1,1-.543-.543A.543.543,0,0,1,788.458,717.686Z" transform="translate(-774.93 -705.124)" fill="#b3cce3"/>
          <path id="Path_564244" data-name="Path 564244" d="M821.811,678.385a.543.543,0,1,1-.543-.543A.543.543,0,0,1,821.811,678.385Z" transform="translate(-802.647 -672.464)" fill="#b3cce3"/>
          <path id="Path_564245" data-name="Path 564245" d="M760.576,654.813a.543.543,0,1,1-.543-.543A.543.543,0,0,1,760.576,654.813Z" transform="translate(-751.759 -652.875)" fill="#b3cce3"/>
          <circle id="Ellipse_3955" data-name="Ellipse 3955" cx="0.543" cy="0.543" r="0.543" fill="#b3cce3"/>
          <path id="Path_564246" data-name="Path 564246" d="M735.532,719.057a.543.543,0,1,1-.543-.543A.543.543,0,0,1,735.532,719.057Z" transform="translate(-730.947 -706.263)" fill="#b3cce3"/>
          <path id="Path_564247" data-name="Path 564247" d="M763.789,757.858a.543.543,0,1,1-.543-.543A.543.543,0,0,1,763.789,757.858Z" transform="translate(-754.429 -738.508)" fill="#b3cce3"/>
        </g>
      </g>
      <g id="Group_52019" data-name="Group 52019" transform="translate(108.777 90.97)">
        <path id="Path_564248" data-name="Path 564248" d="M806.313,696.628l-.31-.341c2.789-2.535,4.939-1.9,5.029-1.874l-.138.44.069-.22-.068.221C810.876,694.848,808.892,694.285,806.313,696.628Z" transform="translate(-806.003 -694.323)" fill="#0c2238"/>
      </g>
    </g>
  </g>
</svg>
