<svg xmlns="http://www.w3.org/2000/svg" xmlns:xlink="http://www.w3.org/1999/xlink" width="375" height="255" viewBox="0 0 375 255">
  <defs>
    <clipPath id="clip-path">
      <path id="Rectangle_23927" data-name="Rectangle 23927" d="M0,0H375a0,0,0,0,1,0,0V205a50,50,0,0,1-50,50H50A50,50,0,0,1,0,205V0A0,0,0,0,1,0,0Z"/>
    </clipPath>
  </defs>
  <g id="Mask_Group_228" data-name="Mask Group 228" clip-path="url(#clip-path)">
    <g id="Group_52101" data-name="Group 52101" transform="translate(-17.5 -9.333)">
      <g id="Background" transform="translate(0.5 0.333)">
        <rect id="Rectangle_23928" data-name="Rectangle 23928" width="409" height="272" transform="translate(0 0)" fill="#85cef2"/>
        <g id="Group_52020" data-name="Group 52020" transform="translate(299.642 81.108)">
          <path id="Path_564249" data-name="Path 564249" d="M675.265,196.1a7.437,7.437,0,0,1-1.861-.238l-4.832-1.248-4.928,1.26a1.012,1.012,0,0,1-1.06-1.588l1.078-1.436c-.073-.052-.144-.1-.215-.158a7.394,7.394,0,0,1,6.337-13.035l7.315,1.888a7.4,7.4,0,0,1-1.835,14.555Zm-6.805-2.4h.227l4.945,1.276a6.484,6.484,0,1,0,3.241-12.556l-7.315-1.888A6.485,6.485,0,0,0,664,191.971a6.6,6.6,0,0,0,.553.379l.127.661-1.368,1.823a.1.1,0,0,0,.107.161Z" transform="translate(-660.542 -179.421)" fill="#fff"/>
        </g>
        <g id="Group_52021" data-name="Group 52021" transform="translate(304.087 86.687)">
          <path id="Path_564250" data-name="Path 564250" d="M672.309,195.673a1.991,1.991,0,1,1,1.929-1.494h0A1.994,1.994,0,0,1,672.309,195.673Zm0-3.073a1.082,1.082,0,1,0,1.047,1.352h0a1.081,1.081,0,0,0-1.047-1.352Z" transform="translate(-670.318 -191.69)" fill="#fff"/>
        </g>
        <g id="Group_52022" data-name="Group 52022" transform="translate(308.596 87.85)">
          <path id="Path_564251" data-name="Path 564251" d="M682.228,198.232a2.011,2.011,0,0,1-.5-.064,1.992,1.992,0,1,1,2.426-1.431h0a1.993,1.993,0,0,1-1.925,1.495Zm0-3.074a1.082,1.082,0,1,0,.549,2.014,1.072,1.072,0,0,0,.5-.661h0a1.083,1.083,0,0,0-1.048-1.352Z" transform="translate(-680.233 -194.248)" fill="#fff"/>
        </g>
        <g id="Group_52023" data-name="Group 52023" transform="translate(313.02 88.992)">
          <path id="Path_564252" data-name="Path 564252" d="M691.953,200.743a1.992,1.992,0,1,1,1.928-1.494h0A2,2,0,0,1,691.953,200.743Zm0-3.074a1.081,1.081,0,1,0,.27.034A1.084,1.084,0,0,0,691.954,197.669Z" transform="translate(-689.962 -196.759)" fill="#fff"/>
        </g>
        <g id="Group_52024" data-name="Group 52024" transform="translate(119.464 15.909)">
          <path id="Path_564253" data-name="Path 564253" d="M271.686,53.091a7.395,7.395,0,0,1-2.2-14.451l7.209-2.26a7.394,7.394,0,0,1,6.995,12.693q-.1.086-.206.169l1.15,1.38a1.012,1.012,0,0,1-.978,1.64l-4.986-1.006-4.762,1.493A7.417,7.417,0,0,1,271.686,53.091Zm7.225-16.143a6.5,6.5,0,0,0-1.947.3l-7.209,2.26a6.483,6.483,0,1,0,3.878,12.373l4.874-1.528.226-.012,5.1,1.029a.1.1,0,0,0,.1-.166l-1.459-1.751.092-.667a6.488,6.488,0,0,0-3.655-11.839Z" transform="translate(-264.298 -36.038)" fill="#fff"/>
        </g>
        <g id="Group_52025" data-name="Group 52025" transform="translate(133.042 21.439)">
          <path id="Path_564254" data-name="Path 564254" d="M296.153,52.182a2,2,0,0,1-1.9-1.4h0a1.991,1.991,0,1,1,1.9,1.4Zm-1.034-1.668a1.083,1.083,0,1,0,.074-.825,1.076,1.076,0,0,0-.074.825Z" transform="translate(-294.159 -48.198)" fill="#fff"/>
        </g>
        <g id="Group_52026" data-name="Group 52026" transform="translate(128.599 22.831)">
          <path id="Path_564255" data-name="Path 564255" d="M286.378,55.245a2,2,0,0,1-1.9-1.4h0a1.986,1.986,0,1,1,1.9,1.4Zm0-3.075a1.083,1.083,0,0,0-1.034,1.406h0a1.081,1.081,0,1,0,1.034-1.406Z" transform="translate(-284.388 -51.26)" fill="#fff"/>
        </g>
        <g id="Group_52027" data-name="Group 52027" transform="translate(124.24 24.197)">
          <path id="Path_564256" data-name="Path 564256" d="M276.791,58.25a2,2,0,1,1,.6-.092A1.983,1.983,0,0,1,276.791,58.25Zm0-3.075a1.084,1.084,0,1,0,.5.124A1.08,1.08,0,0,0,276.8,55.175Z" transform="translate(-274.801 -54.265)" fill="#fff"/>
        </g>
        <g id="Group_52028" data-name="Group 52028" transform="translate(156.987 52.092)">
          <rect id="Rectangle_23929" data-name="Rectangle 23929" width="0.909" height="6.907" fill="#fff"/>
        </g>
        <g id="Group_52029" data-name="Group 52029" transform="translate(310.445 24.656)">
          <rect id="Rectangle_23930" data-name="Rectangle 23930" width="9.298" height="0.91" transform="translate(0 8.57) rotate(-67.19)" fill="#fff"/>
        </g>
        <g id="Group_52030" data-name="Group 52030" transform="translate(312.815 25.654)">
          <rect id="Rectangle_23931" data-name="Rectangle 23931" width="9.297" height="0.909" transform="translate(0 8.57) rotate(-67.19)" fill="#fff"/>
        </g>
        <g id="Group_52031" data-name="Group 52031" transform="translate(309.889 26.209)">
          <rect id="Rectangle_23932" data-name="Rectangle 23932" width="0.91" height="9.297" transform="translate(0 0.838) rotate(-67.178)" fill="#fff"/>
        </g>
        <g id="Group_52032" data-name="Group 52032" transform="translate(308.891 28.579)">
          <rect id="Rectangle_23933" data-name="Rectangle 23933" width="0.91" height="9.297" transform="translate(0 0.838) rotate(-67.178)" fill="#fff"/>
        </g>
        <g id="Group_52033" data-name="Group 52033" transform="translate(120.608 106.965)">
          <rect id="Rectangle_23934" data-name="Rectangle 23934" width="0.909" height="9.297" transform="translate(0 0.139) rotate(-8.765)" fill="#fff"/>
        </g>
        <g id="Group_52034" data-name="Group 52034" transform="translate(123.15 106.573)">
          <rect id="Rectangle_23935" data-name="Rectangle 23935" width="0.909" height="9.297" transform="translate(0 0.139) rotate(-8.764)" fill="#fff"/>
        </g>
        <g id="Group_52035" data-name="Group 52035" transform="translate(118.177 109.004)">
          <rect id="Rectangle_23936" data-name="Rectangle 23936" width="9.297" height="0.909" transform="matrix(0.988, -0.152, 0.152, 0.988, 0, 1.416)" fill="#fff"/>
        </g>
        <g id="Group_52036" data-name="Group 52036" transform="translate(118.569 111.546)">
          <rect id="Rectangle_23937" data-name="Rectangle 23937" width="9.297" height="0.909" transform="matrix(0.988, -0.152, 0.152, 0.988, 0, 1.417)" fill="#fff"/>
        </g>
        <g id="Group_52037" data-name="Group 52037" transform="translate(153.988 55.091)">
          <rect id="Rectangle_23938" data-name="Rectangle 23938" width="6.907" height="0.909" fill="#fff"/>
        </g>
        <g id="Group_52038" data-name="Group 52038" transform="translate(211.576 78.11)">
          <rect id="Rectangle_23939" data-name="Rectangle 23939" width="0.909" height="6.907" fill="#fff"/>
        </g>
        <g id="Group_52039" data-name="Group 52039" transform="translate(208.578 81.109)">
          <rect id="Rectangle_23940" data-name="Rectangle 23940" width="6.907" height="0.909" fill="#fff"/>
        </g>
        <g id="Group_52040" data-name="Group 52040" transform="translate(320.837 65.622)">
          <rect id="Rectangle_23941" data-name="Rectangle 23941" width="0.909" height="6.907" fill="#fff"/>
        </g>
        <g id="Group_52041" data-name="Group 52041" transform="translate(317.838 68.621)">
          <rect id="Rectangle_23942" data-name="Rectangle 23942" width="6.907" height="0.909" fill="#fff"/>
        </g>
        <g id="Group_52042" data-name="Group 52042" transform="translate(73.627 104.807)">
          <rect id="Rectangle_23943" data-name="Rectangle 23943" width="0.909" height="6.907" fill="#fff"/>
        </g>
        <g id="Group_52043" data-name="Group 52043" transform="translate(70.628 107.806)">
          <rect id="Rectangle_23944" data-name="Rectangle 23944" width="6.907" height="0.909" fill="#fff"/>
        </g>
        <g id="Group_52044" data-name="Group 52044" transform="translate(73.971 58.798)">
          <path id="Path_564257" data-name="Path 564257" d="M168.069,150.914a15.793,15.793,0,0,1-3.817-.5l.221-.882a12.677,12.677,0,0,0,5.964.214c4.153-.975,7.906-4.783,11.879-8.814,4.432-4.5,9.015-9.146,14.615-10.258a16.53,16.53,0,0,1,2.691-.313l.028.909a15.628,15.628,0,0,0-2.542.3c-5.325,1.058-9.809,5.606-14.144,10-4.068,4.127-7.911,8.026-12.319,9.061A11.226,11.226,0,0,1,168.069,150.914Z" transform="translate(-164.252 -130.357)" fill="#fff"/>
        </g>
        <g id="Group_52045" data-name="Group 52045" transform="translate(73.667 76.096)">
          <path id="Path_564258" data-name="Path 564258" d="M168.39,170.982a1.918,1.918,0,1,1-2.224-1.553A1.918,1.918,0,0,1,168.39,170.982Z" transform="translate(-164.129 -168.945)" fill="#fdece4"/>
          <path id="Path_564259" data-name="Path 564259" d="M165.956,173.146a2.375,2.375,0,1,1,.417-.037A2.406,2.406,0,0,1,165.956,173.146Zm0-3.837a1.477,1.477,0,0,0-.26.023,1.453,1.453,0,1,0,.26-.023Z" transform="translate(-163.584 -168.4)" fill="#fff"/>
        </g>
        <g id="Group_52046" data-name="Group 52046" transform="translate(89.309 67.961)">
          <path id="Path_564260" data-name="Path 564260" d="M202.79,153.091a1.918,1.918,0,1,1-2.224-1.553A1.919,1.919,0,0,1,202.79,153.091Z" transform="translate(-198.528 -151.054)" fill="#fdece4"/>
          <path id="Path_564261" data-name="Path 564261" d="M200.355,155.255a2.374,2.374,0,1,1,.417-.037A2.377,2.377,0,0,1,200.355,155.255Zm0-3.837a1.464,1.464,0,1,0,.834.264A1.467,1.467,0,0,0,200.359,151.418Z" transform="translate(-197.983 -150.508)" fill="#fff"/>
        </g>
        <g id="Group_52047" data-name="Group 52047" transform="translate(104.879 57.088)">
          <path id="Path_564262" data-name="Path 564262" d="M237.03,129.182a1.918,1.918,0,1,1-2.224-1.553A1.919,1.919,0,0,1,237.03,129.182Z" transform="translate(-232.768 -127.144)" fill="#fdece4"/>
          <path id="Path_564263" data-name="Path 564263" d="M234.6,131.345a2.376,2.376,0,1,1,.416-.037A2.377,2.377,0,0,1,234.6,131.345Zm0-3.837a1.472,1.472,0,0,0-.259.023,1.461,1.461,0,1,0,.259-.023Z" transform="translate(-232.223 -126.598)" fill="#fff"/>
        </g>
        <g id="Group_52048" data-name="Group 52048" transform="translate(63.71 41.311)">
          <path id="Path_564264" data-name="Path 564264" d="M144.055,96.649a2.381,2.381,0,1,1,.42-.037A2.388,2.388,0,0,1,144.055,96.649Zm.008-3.838a1.473,1.473,0,0,0-.259.023,1.455,1.455,0,1,0,.259-.023Z" transform="translate(-141.687 -91.901)" fill="#fff"/>
        </g>
        <g id="Group_52049" data-name="Group 52049" transform="translate(330.636 35.961)">
          <path id="Path_564265" data-name="Path 564265" d="M731.073,84.882a2.373,2.373,0,1,1,2.341-2.789h0a2.376,2.376,0,0,1-2.341,2.789Zm.005-3.837a1.464,1.464,0,1,0,1.441,1.208A1.456,1.456,0,0,0,731.078,81.045Z" transform="translate(-728.704 -80.135)" fill="#fff"/>
        </g>
        <g id="Group_52050" data-name="Group 52050" transform="translate(261.111 94.959)">
          <path id="Path_564266" data-name="Path 564266" d="M578.173,214.629a2.373,2.373,0,1,1,2.341-2.789h0a2.377,2.377,0,0,1-2.341,2.788Zm.005-3.837A1.464,1.464,0,1,0,579.619,212h0A1.466,1.466,0,0,0,578.179,210.792Z" transform="translate(-575.805 -209.883)" fill="#fff"/>
        </g>
        <g id="Group_52051" data-name="Group 52051" transform="translate(261.191 23.457)">
          <path id="Path_564267" data-name="Path 564267" d="M578.355,57.384a2.373,2.373,0,1,1,2.337-2.789h0a2.376,2.376,0,0,1-1.921,2.752A2.4,2.4,0,0,1,578.355,57.384Zm0-3.837a1.464,1.464,0,1,0,1.44,1.207h0A1.466,1.466,0,0,0,578.356,53.547Z" transform="translate(-575.982 -52.638)" fill="#fff"/>
        </g>
        <g id="Group_52052" data-name="Group 52052" transform="translate(251.886 55.908)">
          <path id="Path_564268" data-name="Path 564268" d="M559.061,132.827h-3.089l-.455-.455V126a2,2,0,1,1,4,0v6.37Zm-2.634-.909h2.179V126a1.089,1.089,0,1,0-2.179,0Z" transform="translate(-555.518 -124.003)" fill="#fff"/>
        </g>
        <g id="Group_52053" data-name="Group 52053" transform="translate(258.461 51.347)">
          <path id="Path_564269" data-name="Path 564269" d="M573.52,127.358h-3.089l-.455-.455V115.972a2,2,0,0,1,4,0V126.9Zm-2.634-.909h2.179V115.972a1.089,1.089,0,1,0-2.179,0Z" transform="translate(-569.977 -113.973)" fill="#fff"/>
        </g>
        <g id="Group_52054" data-name="Group 52054" transform="translate(265.248 46.336)">
          <path id="Path_564270" data-name="Path 564270" d="M588.447,121.349h-3.089l-.455-.455V104.952a2,2,0,0,1,4,0v15.942Zm-2.634-.909h2.179V104.952a1.09,1.09,0,0,0-2.179,0Z" transform="translate(-584.903 -102.953)" fill="#fff"/>
        </g>
        <g id="Group_52055" data-name="Group 52055" transform="translate(232.262 11.446)">
          <rect id="Rectangle_23945" data-name="Rectangle 23945" width="0.91" height="16.159" transform="translate(0 0.733) rotate(-53.656)" fill="#fff"/>
        </g>
        <g id="Group_52056" data-name="Group 52056" transform="translate(231.896 10.889)">
          <path id="Path_564271" data-name="Path 564271" d="M513.047,30.525l-1.492-4.575.4-.594L516.632,25l.069.907-4.1.313,1.312,4.025Z" transform="translate(-511.556 -24.999)" fill="#fff"/>
        </g>
        <g id="Group_52057" data-name="Group 52057" transform="translate(149.895 74.194)">
          <rect id="Rectangle_23946" data-name="Rectangle 23946" width="16.159" height="0.909" transform="matrix(0.815, -0.58, 0.58, 0.815, 0, 9.365)" fill="#fff"/>
        </g>
        <g id="Group_52058" data-name="Group 52058" transform="translate(158.683 73.936)">
          <path id="Path_564272" data-name="Path 564272" d="M354.679,168.782l-.883-.218.984-3.993-4.233-.012,0-.909,4.812.013.44.564Z" transform="translate(-350.547 -163.65)" fill="#fff"/>
        </g>
        <g id="Group_52059" data-name="Group 52059" transform="translate(77.269 26.921)">
          <path id="Path_564273" data-name="Path 564273" d="M190.839,144.323a30.944,30.944,0,0,1-5.856-.551l.172-.893c12.37,2.381,26.265-3.31,35.4-14.5a30.627,30.627,0,0,0,2.4-3.312,62.252,62.252,0,0,1-8.1.777c-6.243.286-10.7-.567-13.627-2.608a7.258,7.258,0,0,1-2.564-7.67c.633-2.363,3.008-6.441,11.792-7.192l.447-.038c.32-.028.643-.056.968-.082a11.124,11.124,0,0,1,.648-7.75,10.59,10.59,0,0,1,12.518-5.915l.312.083a19.475,19.475,0,0,1,11.589,9.153,12.819,12.819,0,0,1,1.214,10.162,14.748,14.748,0,0,1-6.177,7.723c14.712,4.831,31.823,2.157,43.991-7.653,4.669-3.765,7.452-7.761,8.269-11.878a4.364,4.364,0,0,0,.048-1.8,16.82,16.82,0,0,1-2.442.12l-.437-.371a1.38,1.38,0,0,1,.778-1.481,2,2,0,0,1,2.284.236,2.382,2.382,0,0,1,.391.5A16.675,16.675,0,0,0,297.9,77.1q-.151-.407-.315-.774a17.15,17.15,0,0,1-3.288,2.751,30.4,30.4,0,0,1-16.025,4.77h-.034a5.193,5.193,0,0,1-4.74-2.892,3.931,3.931,0,0,1-.005-3.5c1.074-2.266,4.133-3.931,6.688-4.576a53.792,53.792,0,0,1,8.455-1.427c2.452-.216,5.545-.23,7.7,1.577a6.887,6.887,0,0,1,1.418,1.67c2.109-2.681,3.3-6.033,1.572-8.947-1.675-2.831-5.39-4.033-11.355-3.68-22.789,1.356-45.158,9.181-64.335,16.408C212.558,82.663,200,87.4,188.077,83.8a4.407,4.407,0,0,1-2.8-1.85c-.032-.06-.062-.12-.09-.181q-.671.029-1.338.054a20.355,20.355,0,0,1-7.263-.613,7.152,7.152,0,0,1-5.01-5.289c-.383-2.443.961-4.712,2.156-6.185,4.355-5.369,11.084-7.471,18.786-9.484l.23.88c-7.544,1.97-14.128,4.021-18.31,9.176-1.079,1.33-2.3,3.359-1.964,5.472a6.244,6.244,0,0,0,4.4,4.568,19.373,19.373,0,0,0,6.938.565q.57-.022,1.143-.045a5.069,5.069,0,0,1,.454-2.375,12.086,12.086,0,0,1,15.444-6.211l.263.507c-.646,3.18-3.339,6.048-7.029,7.484A25.4,25.4,0,0,1,186.2,81.72a4.043,4.043,0,0,0,2.139,1.21c11.63,3.5,24.034-1.17,34.977-5.294,19.24-7.251,41.686-15.1,64.6-16.465,6.34-.378,10.327.972,12.192,4.124,1.894,3.2.717,7.125-1.874,10.285a13.071,13.071,0,0,1,.513,1.206,17.582,17.582,0,0,1-13.565,23.456,5.356,5.356,0,0,1-.057,2.113c-.86,4.332-3.751,8.506-8.591,12.408A47.511,47.511,0,0,1,246.8,124.958a48.438,48.438,0,0,1-15.833-2.631,20.572,20.572,0,0,1-2.533,1.217,26.734,26.734,0,0,1-4.284,1.288,29.526,29.526,0,0,1-2.888,4.123C213.333,138.664,201.88,144.322,190.839,144.323Zm21.337-35.182c-.4.032-.8.066-1.195.1l-.448.039c-8.232.7-10.42,4.388-10.991,6.522a6.313,6.313,0,0,0,2.206,6.688c2.718,1.9,7.114,2.718,13.065,2.445a57.332,57.332,0,0,0,8.739-.908,15.18,15.18,0,0,0,1.557-4.2,43.6,43.6,0,0,1-3.947-2.292c-1.435-.937-2.895-1.984-4.308-3l-.819-.587A10.78,10.78,0,0,1,212.176,109.141Zm13.775,11.107a15.673,15.673,0,0,1-1.245,3.522,25.028,25.028,0,0,0,3.388-1.072q.89-.355,1.721-.788Q227.847,121.17,225.951,120.248Zm.169-.929a44.534,44.534,0,0,0,4.738,2.007,14.3,14.3,0,0,0,6.428-7.615,11.928,11.928,0,0,0-1.146-9.453,18.536,18.536,0,0,0-11.031-8.709c-.1-.028-.2-.054-.3-.08a9.7,9.7,0,0,0-11.466,5.42,10.172,10.172,0,0,0-.537,7.292c4.315-.308,8.83-.19,11.611,3.5a9.691,9.691,0,0,1,1.836,5.971A12.946,12.946,0,0,1,226.12,119.319ZM213.139,109.07a9.933,9.933,0,0,0,3.425,4.142l.82.588c1.4,1.007,2.856,2.049,4.275,2.975q1.752,1.145,3.6,2.108a11.945,11.945,0,0,0,.084-1.247,8.777,8.777,0,0,0-1.653-5.41C221.246,108.983,217.135,108.806,213.139,109.07Zm70.055-9.764a1.259,1.259,0,0,0-.581.139.8.8,0,0,0-.2.145q.7-.008,1.4-.077A.923.923,0,0,0,283.194,99.306Zm7.461-27.036c-.67,0-1.327.041-1.942.1a52.844,52.844,0,0,0-8.312,1.4c-2.349.592-5.142,2.085-6.089,4.083a3.059,3.059,0,0,0,.007,2.721,4.283,4.283,0,0,0,3.916,2.369h.029A29.473,29.473,0,0,0,293.8,78.314a16.484,16.484,0,0,0,3.334-2.87,6.2,6.2,0,0,0-1.383-1.711A7.827,7.827,0,0,0,290.655,72.269Zm-94.147.038a11.5,11.5,0,0,0-4.279.843,10.727,10.727,0,0,0-5.982,5.692,4.125,4.125,0,0,0-.384,1.984,25.207,25.207,0,0,0,7.892-1.4c2.573-1,5.548-3.211,6.384-6.455A9.966,9.966,0,0,0,196.508,72.308Z" transform="translate(-171.505 -60.254)" fill="#fff"/>
        </g>
        <g id="Group_52060" data-name="Group 52060" transform="translate(191.565 47.412)">
          <path id="Path_564274" data-name="Path 564274" d="M454.925,168.464a18.153,18.153,0,0,1-6.631-1.226c-2.216-.87-3.626-2.075-4.192-3.582-1.6-4.264,3.835-7.686,5.538-8.633q4.566-2.539,9.3-4.7a52.554,52.554,0,0,0-14.029,1.352c-.861.2-1.736.429-2.582.65a37.631,37.631,0,0,1-7.618,1.43c-4.13.195-7.672-1.128-9.72-3.638a10.05,10.05,0,0,1-2.1-5.611c-.651-9.1,8.408-15.247,12.332-17.47a57.066,57.066,0,0,1,9.37-4.24,7.942,7.942,0,0,1,.036-2.268c1.12-6.846,9.118-9.944,15.037-11.678,3.5-1.027,7.475-2.191,11.376-1.322,3.834.854,7.5,4.474,6.847,8.5l-.9-.146c.571-3.522-2.717-6.706-6.147-7.47-3.671-.817-7.523.311-10.922,1.307-6.164,1.806-13.37,4.684-14.4,10.952a6.961,6.961,0,0,0-.053,1.823q2.143-.707,4.341-1.243a13.2,13.2,0,0,1,6.228-.372,5.558,5.558,0,0,1,4.377,4.435c.339,3.066-2.665,5.49-5.683,5.831a9.146,9.146,0,0,1-7.514-2.97,9.812,9.812,0,0,1-2.467-4.477,56.07,56.07,0,0,0-9.086,4.126c-7.861,4.451-12.3,10.661-11.874,16.613a9.133,9.133,0,0,0,1.9,5.1c1.864,2.284,5.137,3.49,8.972,3.3a36.963,36.963,0,0,0,7.432-1.4c.852-.222,1.732-.451,2.6-.655a53.461,53.461,0,0,1,16.051-1.277,130.113,130.113,0,0,1,27.613-8.574q.553-.107,1.119-.209a33.98,33.98,0,0,1,11.459-13.405c8.87-6.2,19.769-8.538,28.274-9.879,2.555-.4,5.22-.964,7.8-1.505,3.331-.7,6.7-1.41,10.055-1.84a24.081,24.081,0,0,1,5.541-5.542,16.252,16.252,0,0,1,13.737-2.686l-.261.871a15.34,15.34,0,0,0-12.955,2.559,22.684,22.684,0,0,0-4.811,4.65c4.966-.528,9.856-.358,14.452,1.455,3.472,1.37,4.8,6.17,3.226,11.673-1.807,6.323-7.312,12.476-15.123,11.048-2.474-.453-4.69-2.392-6.241-5.46-2.165-4.283-2.517-9.652-.857-13.056a37.187,37.187,0,0,1,2.576-4.5c-3.048.43-6.119,1.076-9.153,1.714-2.588.544-5.265,1.107-7.843,1.513-8.408,1.325-19.178,3.629-27.895,9.725a33.252,33.252,0,0,0-10.885,12.47c5.334-.893,11.259-1.308,16.7.644,5.789,2.075,11.343,7.754,10.759,14.592a13.392,13.392,0,0,1-8.37,10.8,17.924,17.924,0,0,1-13.857-.534,15.052,15.052,0,0,1-5.192-3.586,15.655,15.655,0,0,1-3.571-9.5,25.159,25.159,0,0,1,1.992-11.223l-.506.1a129.262,129.262,0,0,0-25.879,7.851q.9.1,1.793.223a9.529,9.529,0,0,1,4.472,1.508,5.478,5.478,0,0,1,2.17,4.384,11.165,11.165,0,0,1-3.952,8.286A19,19,0,0,1,454.925,168.464Zm5.991-18.026q-5.528,2.43-10.834,5.38c-1.543.858-6.473,3.936-5.129,7.518.471,1.256,1.707,2.284,3.672,3.056a18.127,18.127,0,0,0,17.93-3,10.361,10.361,0,0,0,3.633-7.565,4.6,4.6,0,0,0-1.806-3.685,8.772,8.772,0,0,0-4.053-1.336Q462.624,150.568,460.917,150.438Zm29.2-8.895a24.419,24.419,0,0,0-2.155,11.361,14.766,14.766,0,0,0,3.339,8.947,14.159,14.159,0,0,0,4.883,3.363,17.014,17.014,0,0,0,13.148.524,12.465,12.465,0,0,0,7.807-10.039c.539-6.312-4.833-11.748-10.161-13.658C501.52,140.082,495.492,140.6,490.119,141.543Zm57.461-26.585a35.339,35.339,0,0,0-2.978,5.057c-1.519,3.115-1.161,8.265.851,12.247,1.419,2.808,3.405,4.575,5.593,4.975,7.257,1.331,12.387-4.462,14.085-10.4,1.177-4.119.839-9.186-2.685-10.577C557.765,114.41,552.716,114.334,547.58,114.958Zm-101.955,8.451a8.873,8.873,0,0,0,2.261,4.145,8.238,8.238,0,0,0,6.753,2.694c2.53-.286,5.156-2.339,4.881-4.828-.214-1.942-2.063-3.254-3.689-3.651a12.428,12.428,0,0,0-5.8.373Q447.8,122.684,445.625,123.409Z" transform="translate(-422.861 -105.318)" fill="#fff"/>
        </g>
        <g id="Group_52061" data-name="Group 52061" transform="translate(166.933 8.605)">
          <path id="Path_564275" data-name="Path 564275" d="M482.085,58.615a14.41,14.41,0,0,1-4.436-.694,11.285,11.285,0,0,1-6.793-5.6l.815-.4a10.384,10.384,0,0,0,6.258,5.137,13.31,13.31,0,0,0,10.1-.76c5.2-2.726,8.748-8.781,9.263-15.8A2.653,2.653,0,0,0,497,38.717a2.818,2.818,0,0,0-1.887-.748c-2.947-.425-6-.865-8.92-.184a10.181,10.181,0,0,0-1.21.361,8.777,8.777,0,0,1,.208,5.277,4.855,4.855,0,0,1-3.306,3.217,2.224,2.224,0,0,1-2.266-.749,3.307,3.307,0,0,1-.477-2.909,8.16,8.16,0,0,1,4.647-5.319,10.259,10.259,0,0,0-3.9-4.475c-3.834-2.387-8.421-2.227-11.6-1.672a27.277,27.277,0,0,0-14.441,7.5c-.9.9-1.764,1.89-2.6,2.846a30.336,30.336,0,0,1-5.146,5.036,14.155,14.155,0,0,1-14.153,1.332,12.1,12.1,0,0,1-6.315-8.371,6.421,6.421,0,0,1-1.426-.791c-2.161-1.6-3.589-4.348-4.244-8.161-.045-.258-.086-.518-.127-.778a10.346,10.346,0,0,0-1.192-4c-1.419-2.211-4.281-2.917-7.09-3.452-10.266-1.952-21.961-3.55-30.841,2.233-6.875,4.477-11.135,13.245-11.116,22.881l-.909,0c-.019-9.941,4.4-19,11.529-23.645,9.163-5.967,21.067-4.349,31.507-2.364,2.872.546,6.072,1.34,7.686,3.854a11.008,11.008,0,0,1,1.324,4.343c.041.257.082.513.125.767.614,3.575,1.922,6.127,3.889,7.585a5.39,5.39,0,0,0,.729.453,10.127,10.127,0,0,1,.16-3.038c.233-1.116.891-3.1,2.679-3.881a3.349,3.349,0,0,1,3.91,1.127,4.393,4.393,0,0,1,.672,5.057,5,5,0,0,1-3.392,2.206,6.937,6.937,0,0,1-2.879-.085,11.173,11.173,0,0,0,5.728,7.241,13.223,13.223,0,0,0,13.218-1.261,29.652,29.652,0,0,0,4.986-4.891c.843-.968,1.715-1.969,2.64-2.893A28.185,28.185,0,0,1,468.13,30.62c3.33-.582,8.155-.743,12.233,1.8a11.147,11.147,0,0,1,4.282,4.885,11.139,11.139,0,0,1,1.337-.4c3.091-.72,6.367-.247,9.256.17a3.556,3.556,0,0,1,2.478,1.093,3.4,3.4,0,0,1,.478,2.4c-.537,7.332-4.271,13.67-9.746,16.541A13.774,13.774,0,0,1,482.085,58.615Zm2.033-20.1a7.226,7.226,0,0,0-4.093,4.675,2.546,2.546,0,0,0,.289,2.124,1.318,1.318,0,0,0,1.38.441,3.928,3.928,0,0,0,2.619-2.578A7.835,7.835,0,0,0,484.118,38.511Zm-57.679.667a6.057,6.057,0,0,0,2.9.184,4.1,4.1,0,0,0,2.79-1.793,3.52,3.52,0,0,0-.589-3.982,2.444,2.444,0,0,0-2.859-.887c-1.465.637-1.993,2.473-2.151,3.233A9.377,9.377,0,0,0,426.439,39.178Z" transform="translate(-368.691 -19.975)" fill="#fff"/>
        </g>
        <g id="Group_52062" data-name="Group 52062" transform="translate(136.092 103.297)">
          <path id="Path_564276" data-name="Path 564276" d="M311.994,249.081c-.473,0-.939-.017-1.387-.041-4.274-.227-7.074-1.412-8.556-3.625-1.7-2.537-1.246-5.786-.633-8.9l.892.175c-.575,2.924-1.011,5.966.5,8.215,1.313,1.958,3.881,3.012,7.849,3.223a11.456,11.456,0,0,0,5.58-.763,6.775,6.775,0,0,0,1.96-1.449,10.725,10.725,0,0,1-5.323-3.069,7.851,7.851,0,0,1-1.9-5.934,5.711,5.711,0,0,1,2.258-4.131,9.78,9.78,0,0,1,5.565-1.4,4.38,4.38,0,0,1,2.445.438c1.64.993,1.518,3.227,1.284,4.821-.469,3.194-1.154,6.348-2.7,8.682a18.286,18.286,0,0,0,3.074.238,12.98,12.98,0,0,0,6.276-1.346c2.592-1.417,4.33-4.066,5.863-6.4l6.3-9.6.761.5-6.3,9.6c-1.591,2.426-3.394,5.176-6.186,6.7a13.856,13.856,0,0,1-6.709,1.458,19.962,19.962,0,0,1-3.689-.326,7.776,7.776,0,0,1-2.578,2.035A10.525,10.525,0,0,1,311.994,249.081Zm7.234-16.79c-.133,0-.268,0-.4.007a9.027,9.027,0,0,0-5.059,1.226,4.815,4.815,0,0,0-1.887,3.489,6.92,6.92,0,0,0,1.669,5.229,10.156,10.156,0,0,0,5.3,2.893c1.612-2.215,2.305-5.392,2.779-8.619.312-2.126.041-3.369-.855-3.911A2.966,2.966,0,0,0,319.228,232.291Z" transform="translate(-300.866 -228.219)" fill="#fff"/>
        </g>
        <g id="Group_52063" data-name="Group 52063" transform="translate(48.241 52.698)">
          <path id="Path_564277" data-name="Path 564277" d="M167.386,178.976a19.932,19.932,0,0,1-4.706-.5c-3.853-.936-6.868-3.441-7.867-6.537a17.555,17.555,0,0,1-.6-4.729c-.091-2.522-.177-4.9-1.9-6.385a7.084,7.084,0,0,0-3.358-1.357c-4.043-.741-8.266-.286-12.351.155l-1.174.126c-4.514.476-9.3.822-13.78-.6-5.014-1.6-8.676-5.419-9.329-9.741a8.225,8.225,0,0,1,.156-3.145,13.115,13.115,0,0,1-4.381-7,17.98,17.98,0,0,1,1.841-12.5c3.178-6.132,8.958-9.988,14.76-9.813a11.917,11.917,0,0,1,8.876,4.756,9.211,9.211,0,0,1,1.835,7.875,6.856,6.856,0,0,1-4.929,5.174,4.951,4.951,0,0,1-3.984-1.013,3.979,3.979,0,0,1-1.6-2.987l.909-.03a3.084,3.084,0,0,0,1.257,2.3,4.082,4.082,0,0,0,3.239.834,5.983,5.983,0,0,0,4.227-4.5,8.322,8.322,0,0,0-1.678-7.1,10.988,10.988,0,0,0-8.177-4.4c-6.192-.178-11.453,4.55-13.926,9.323a17.078,17.078,0,0,0-1.765,11.859,12.243,12.243,0,0,0,3.781,6.268,9.314,9.314,0,0,1,1.975-3.231,6.911,6.911,0,0,1,5.693-2.346,4.768,4.768,0,0,1,3.412,1.717c1.441,1.907.578,4.686-1.1,5.988a7.138,7.138,0,0,1-6.164.937,10.72,10.72,0,0,1-3.3-1.521,7.219,7.219,0,0,0-.057,2.413c.6,3.982,4.019,7.519,8.706,9.01,4.314,1.373,8.99,1.033,13.408.567l1.172-.125c4.149-.448,8.439-.91,12.612-.146a7.907,7.907,0,0,1,3.787,1.562c2.02,1.741,2.117,4.436,2.211,7.042a16.909,16.909,0,0,0,.555,4.483c1.079,3.343,4.436,5.257,7.217,5.932,3.273.8,6.7.445,10.019.106l.092.9A55.259,55.259,0,0,1,167.386,178.976Zm-53.865-33.068a9.913,9.913,0,0,0,3.3,1.584,6.238,6.238,0,0,0,5.374-.776c1.338-1.039,2.02-3.279.931-4.722a3.87,3.87,0,0,0-2.77-1.36A6.036,6.036,0,0,0,115.4,142.7,8.4,8.4,0,0,0,113.521,145.908Z" transform="translate(-107.667 -116.942)" fill="#fff"/>
        </g>
        <g id="Group_52064" data-name="Group 52064" transform="translate(263.029 99.927)">
          <path id="Path_564278" data-name="Path 564278" d="M584.539,247.4c-1.6,0-3.538-.391-4.283-2.65a5.362,5.362,0,0,1-.095-2.8,9.986,9.986,0,0,1,8.811-7.639l.066.908a9.048,9.048,0,0,0-7.987,6.918,4.465,4.465,0,0,0,.069,2.328c.5,1.521,1.683,2.126,3.941,2.012a17.36,17.36,0,0,0,12.345-6.506,4.1,4.1,0,0,1-2.236-3.349,5.019,5.019,0,0,1,.462-2.515,2.634,2.634,0,0,1,3.606-1.274,2.688,2.688,0,0,1,1.4,3.642,18.4,18.4,0,0,1-1.7,2.975c.068,0,.137,0,.2,0,1.775-.081,2.822-1.739,3.743-3.43l2.849-5.232c1.2-2.205,2.456-4.258,4.6-5.133a5.564,5.564,0,0,1,7.061,3.117l.018.049c4.112-2.419,9.029-3.184,13.81-3.928,4.88-.759,9.926-1.545,14.063-4.082l.475.775c-4.292,2.633-9.429,3.432-14.4,4.206-5,.778-9.757,1.519-13.724,3.95a5.652,5.652,0,0,1-1.069,4.093,1.617,1.617,0,0,1-2.292.366,1.643,1.643,0,0,1-.464-2.312,7.032,7.032,0,0,1,1.414-1.552,17.183,17.183,0,0,1,1.391-1.02q-.035-.117-.076-.231a4.656,4.656,0,0,0-5.865-2.588c-1.87.762-3.029,2.67-4.148,4.725l-2.849,5.232c-1,1.835-2.253,3.8-4.5,3.9a3.474,3.474,0,0,1-.869-.07,18.327,18.327,0,0,1-13.209,7.1C584.924,247.392,584.733,247.4,584.539,247.4Zm13.454-13.938a1.655,1.655,0,0,0-1.539,1.034,4.116,4.116,0,0,0-.377,2.064,3.167,3.167,0,0,0,1.9,2.676,17.6,17.6,0,0,0,1.833-3.136,1.789,1.789,0,0,0-.95-2.442A2.075,2.075,0,0,0,597.992,233.46Zm18.789-3.159q-.5.349-.977.738a6.2,6.2,0,0,0-1.23,1.348.736.736,0,0,0,.225,1.064.711.711,0,0,0,1.039-.156A4.8,4.8,0,0,0,616.781,230.3Z" transform="translate(-580.022 -220.807)" fill="#fff"/>
        </g>
        <g id="Group_52065" data-name="Group 52065" transform="translate(248.572 63.823)">
          <rect id="Rectangle_23947" data-name="Rectangle 23947" width="25.158" height="0.909" fill="#fff"/>
        </g>
      </g>
      <g id="Character" transform="translate(159.93 116.782)">
        <g id="Group_52066" data-name="Group 52066" transform="translate(49.788 95.738)">
          <path id="Path_564279" data-name="Path 564279" d="M467.917,467.863s5.2-2.092,4.61,8.128l.083,21.518a7.287,7.287,0,0,1,5.125,5.1c.735,2.932.42,4.111.42,4.111l-15.992-.186-.479.1.183-26.542Z" transform="translate(-461.683 -467.687)" fill="#3381a8"/>
        </g>
        <g id="Group_52067" data-name="Group 52067" transform="translate(21.64 95.738)">
          <path id="Path_564280" data-name="Path 564280" d="M410.086,467.863s-5.2-2.092-4.611,8.128l-.083,21.518a7.288,7.288,0,0,0-5.125,5.1c-.735,2.932-.419,4.111-.419,4.111l15.992-.186.479.1-.183-26.542Z" transform="translate(-399.781 -467.687)" fill="#3381a8"/>
        </g>
        <g id="Group_52068" data-name="Group 52068" transform="translate(38.592 61.168)">
          <path id="Path_564281" data-name="Path 564281" d="M442.5,391.68a40.015,40.015,0,0,0-5.443.564,20.628,20.628,0,0,1,3.088-.509,17.689,17.689,0,0,1,2.3-.059A.261.261,0,0,1,442.5,391.68Z" transform="translate(-437.06 -391.66)" fill="#fff"/>
        </g>
        <g id="Group_52069" data-name="Group 52069" transform="translate(44.035 92.627)">
          <path id="Path_564282" data-name="Path 564282" d="M466.509,460.844a25.8,25.8,0,0,1-4.5.659l-12.978-.218,12.978-.214A16.893,16.893,0,0,0,466.509,460.844Z" transform="translate(-449.03 -460.844)" fill="#fff"/>
        </g>
        <g id="Group_52070" data-name="Group 52070" transform="translate(68.571 84.223)">
          <path id="Path_564283" data-name="Path 564283" d="M502.99,444.337c.046-.282.082-.573.1-.878.027-.373.041-.737.046-1.1A9.166,9.166,0,0,1,502.99,444.337Z" transform="translate(-502.99 -442.364)" fill="#fff"/>
        </g>
        <g id="Group_52071" data-name="Group 52071" transform="translate(19.341 61.188)">
          <path id="Path_564284" data-name="Path 564284" d="M444.1,414.713a.029.029,0,0,1,0,.027c0,.359-.018.723-.045,1.1-.023.3-.059.6-.1.878-.018.1-.036.2-.055.291a.2.2,0,0,1-.009.046c-.828,4.024-4.138,5.543-6.993,6.093a16.891,16.891,0,0,1-4.5.227l-12.978.214-12.978-.214a16.892,16.892,0,0,1-4.5-.227c-2.824-.541-6.093-2.033-6.966-5.961a.034.034,0,0,1,0-.018,9.612,9.612,0,0,1-.191-1.328c-.027-.368-.045-.737-.05-1.1v-.032a19.849,19.849,0,0,1,5.216-13.4.1.1,0,0,0,.014-.023,33.073,33.073,0,0,1,6.5-5.684,23.132,23.132,0,0,1,7.516-3.333,26.6,26.6,0,0,1,10.895,0,23.106,23.106,0,0,1,7.5,3.333,33.03,33.03,0,0,1,6.507,5.693s.009.009.009.014A19.861,19.861,0,0,1,444.1,414.713Z" transform="translate(-394.725 -391.704)" fill="#fff"/>
        </g>
        <g id="Group_52072" data-name="Group 52072" transform="translate(19.34 84.223)">
          <path id="Path_564285" data-name="Path 564285" d="M394.776,443.46a9.615,9.615,0,0,0,.191,1.328,8.988,8.988,0,0,1-.241-2.424C394.73,442.723,394.748,443.091,394.776,443.46Z" transform="translate(-394.722 -442.364)" fill="#fff"/>
        </g>
        <g id="Group_52073" data-name="Group 52073" transform="translate(26.555 92.627)">
          <path id="Path_564286" data-name="Path 564286" d="M415.092,461.071l12.978.214-12.982.218a25.719,25.719,0,0,1-4.5-.659A16.893,16.893,0,0,0,415.092,461.071Z" transform="translate(-410.59 -460.844)" fill="#fff"/>
        </g>
        <g id="Group_52074" data-name="Group 52074" transform="translate(44.035 61.168)">
          <path id="Path_564287" data-name="Path 564287" d="M454.482,392.244a40,40,0,0,0-5.452-.564.223.223,0,0,1,.055,0,17.668,17.668,0,0,1,2.3.059A21,21,0,0,1,454.482,392.244Z" transform="translate(-449.03 -391.66)" fill="#fff"/>
        </g>
        <g id="Group_52075" data-name="Group 52075" transform="translate(32.88 45.895)">
          <path id="Path_564288" data-name="Path 564288" d="M429.974,359.544s-2.466-2.766-4.85-.184,2.692,5.859,4.33,2.862c0,0,.462,3.831,2.848,5.991l.48.642v4.276s1.762.183,3.312.231a12.68,12.68,0,0,0,2.7-.191l.168-4.815s2.452-1.69,2.882-3.248.264-2.19,1.057-1.869a2.763,2.763,0,0,0,3.681-1.324,2.525,2.525,0,0,0-1.495-3.607c-.8,0-1.157-.805-2.7.575S429.974,359.544,429.974,359.544Z" transform="translate(-424.498 -358.074)" fill="#ffb8b8"/>
        </g>
        <g id="Group_52076" data-name="Group 52076" transform="translate(36.677 39.711)">
          <path id="Path_564289" data-name="Path 564289" d="M433.758,351.176h-.909c0-1.378.093-6.649.094-6.7l.909.016C433.851,344.543,433.758,349.805,433.758,351.176Z" transform="translate(-432.849 -344.474)" fill="#0c2238"/>
        </g>
        <g id="Group_52077" data-name="Group 52077" transform="translate(32.611 41.068)">
          <path id="Path_564290" data-name="Path 564290" d="M438.431,368.152a34.078,34.078,0,0,0-5.92,0l-.506-.452v-4.726a6.822,6.822,0,0,1-3.566-5.094,2.371,2.371,0,0,1-1.335.377,3.2,3.2,0,1,1,0-6.392,2.43,2.43,0,0,1,1.254.307v-.881a7.056,7.056,0,0,1,1.125-3.831l.764.493a6.145,6.145,0,0,0-.98,3.339v1.838l-.782.316a1.692,1.692,0,0,0-1.381-.67,2.287,2.287,0,1,0,0,4.574,1.723,1.723,0,0,0,1.382-.708l.784.3a5.985,5.985,0,0,0,3.389,5.344l.257.409V367.2a36.34,36.34,0,0,1,5.1.006L438,362.668l.246-.4a6.183,6.183,0,0,0,3.322-5.323l.784-.3a1.72,1.72,0,0,0,1.379.708,2.287,2.287,0,0,0,0-4.574,1.592,1.592,0,0,0-1.34.638l-.656-.631a2.48,2.48,0,0,1,2-.916,3.2,3.2,0,0,1,0,6.392,2.368,2.368,0,0,1-1.338-.38,7.089,7.089,0,0,1-3.482,5.061l.012,4.76Z" transform="translate(-423.907 -347.458)" fill="#0c2238"/>
        </g>
        <g id="Group_52078" data-name="Group 52078" transform="translate(35.314 33.458)">
          <path id="Path_564291" data-name="Path 564291" d="M432.215,344.211l.384,4.624s1.058,5.651,6.605,5.651,6.605-6.125,6.605-6.125l.041-3.858a5.71,5.71,0,0,1-.984-3.269s-5.544,1.57-8.417-3.106a3.208,3.208,0,0,1-3.774.735,2.7,2.7,0,0,1-1.685-1.7,2.784,2.784,0,0,1,3.378-3.5,2.169,2.169,0,0,1,.346.119s3.773-4.087,9.65-.795c5.511,3.088,1.486,11.519,1.486,11.519Z" transform="translate(-430.397 -331.256)" fill="#0c2238"/>
          <path id="Path_564292" data-name="Path 564292" d="M438.659,354.407c-5.857,0-7.041-5.962-7.052-6.023l-.006-.046-.384-4.624.907-.076.382,4.6c.085.417,1.173,5.259,6.154,5.259,4.941,0,6.052-5.193,6.151-5.714l.039-3.672a6.22,6.22,0,0,1-.955-2.858c-1.471.253-5.553.574-8.064-2.948a3.86,3.86,0,0,1-3.859.45,3.167,3.167,0,0,1-1.957-1.987,3.1,3.1,0,0,1,.7-3.129,3.292,3.292,0,0,1,3.222-.953l.126.035c.934-.831,4.68-3.637,9.981-.667,5.487,3.075,2.146,11.052,1.717,12.016l-.047,3.835C445.7,347.969,444.521,354.407,438.659,354.407Zm5.538-14.145.578.432a5.763,5.763,0,0,0,.467,2.237c.808-2.143,2.447-7.791-1.645-10.084-5.5-3.082-9.058.668-9.094.707l-.52.107a1.661,1.661,0,0,0-.273-.094,2.388,2.388,0,0,0-2.333.691,2.209,2.209,0,0,0-.5,2.224,2.239,2.239,0,0,0,1.411,1.421,2.772,2.772,0,0,0,3.253-.585l.75.037C438.945,341.674,443.985,340.322,444.2,340.261Z" transform="translate(-429.853 -330.721)" fill="#0c2238"/>
        </g>
        <g id="Group_52079" data-name="Group 52079" transform="translate(36.733 38.185)">
          <path id="Path_564293" data-name="Path 564293" d="M434.011,343.188a64.284,64.284,0,0,0,.122,6.694c.26,2.567.821,1.95.821,1.95l12.3-.711.508-2.134-.33-4.2-7.571-2.682Z" transform="translate(-433.519 -341.655)" fill="#0c2238"/>
          <path id="Path_564294" data-name="Path 564294" d="M434.261,351.817a.648.648,0,0,1-.2-.034c-.5-.165-.768-.858-.924-2.391a63.574,63.574,0,0,1-.124-6.755l.372-.432,5.846-1.087.235.019,7.571,2.682.3.393.33,4.2-.011.141-.508,2.134-.417.349-12.171.7A.644.644,0,0,1,434.261,351.817Zm-.022-.909a.24.24,0,0,0-.158.072Zm-.33-7.875a60.191,60.191,0,0,0,.13,6.268,5.263,5.263,0,0,0,.312,1.556l.03-.014,11.959-.692.413-1.735-.3-3.837-7.177-2.543Z" transform="translate(-432.972 -341.118)" fill="#0c2238"/>
        </g>
        <g id="Group_52080" data-name="Group 52080" transform="translate(27.604 71.903)">
          <path id="Path_564295" data-name="Path 564295" d="M443.975,454.191H415.817L413.9,416.27h32Z" transform="translate(-413.442 -415.815)" fill="#0c2238"/>
          <path id="Path_564296" data-name="Path 564296" d="M443.43,454.1H415.272l-.454-.432L412.9,415.747l.454-.477h32l.455.477-1.921,37.921Zm-27.725-.909H443l1.875-37.012H413.83Z" transform="translate(-412.897 -415.27)" fill="#0c2238"/>
        </g>
        <g id="Group_52081" data-name="Group 52081" transform="translate(32.885 110.279)">
          <rect id="Rectangle_23948" data-name="Rectangle 23948" width="0.909" height="24.403" fill="#0c2238"/>
        </g>
        <g id="Group_52082" data-name="Group 52082" transform="translate(54.333 110.279)">
          <rect id="Rectangle_23949" data-name="Rectangle 23949" width="0.909" height="24.403" fill="#0c2238"/>
        </g>
        <g id="Group_52083" data-name="Group 52083" transform="translate(26.083 104.481)">
          <path id="Path_564297" data-name="Path 564297" d="M442.533,487.914h2.944v5.344H410.551v-5.344h31.982Z" transform="translate(-410.097 -487.459)" fill="#0c2238"/>
          <path id="Path_564298" data-name="Path 564298" d="M444.932,493.167H410.006l-.455-.455v-5.343l.455-.455h3.276v.909h-2.821v4.434h34.017v-4.434h-2.489v-.909h2.944l.455.455v5.343Z" transform="translate(-409.551 -486.914)" fill="#0c2238"/>
        </g>
        <g id="Group_52084" data-name="Group 52084" transform="translate(38.842)">
          <path id="Path_564299" data-name="Path 564299" d="M441.051,278c0-.005-.01-1.4-.053-3.779-.035-1.923,1.779-3.047,3.7-4.237,1.367-.847,3.068-1.9,3.324-2.9a6.654,6.654,0,0,0-1.037-5.312,3.961,3.961,0,0,0-3.464-1.441,2.861,2.861,0,0,0-2.333.874,3.611,3.611,0,0,0-.252,2.647l-3.053.9a6.683,6.683,0,0,1,.726-5.413,5.777,5.777,0,0,1,4.812-2.19,7.109,7.109,0,0,1,6.048,2.633,9.851,9.851,0,0,1,1.634,8.094c-.575,2.236-2.782,3.6-4.73,4.811a10.527,10.527,0,0,0-2.192,1.587c.042,2.335.052,3.7.052,3.7Z" transform="translate(-437.61 -257.142)" fill="#0c2238"/>
        </g>
        <g id="Group_52085" data-name="Group 52085" transform="translate(42.193 23.689)">
          <path id="Path_564300" data-name="Path 564300" d="M448.785,311.39a1.653,1.653,0,1,1-1.653-1.653A1.653,1.653,0,0,1,448.785,311.39Z" transform="translate(-445.252 -309.51)" fill="#0c2238"/>
          <path id="Path_564301" data-name="Path 564301" d="M446.859,313a1.88,1.88,0,1,1,1.88-1.88A1.882,1.882,0,0,1,446.859,313Zm0-3.306a1.426,1.426,0,1,0,1.426,1.426A1.427,1.427,0,0,0,446.859,309.692Z" transform="translate(-444.979 -309.237)" fill="#0c2238"/>
        </g>
        <g id="Group_52086" data-name="Group 52086" transform="translate(61.16 24.697)">
          <path id="Path_564302" data-name="Path 564302" d="M488.186,321.141l-1.494-1.038s.407-.586,1.087-1.586c.582-.856,1.744-.787,2.87-.72.758.045,1.795.108,2.164-.206a3.279,3.279,0,0,0,1.093-2.432,1.93,1.93,0,0,0-.974-1.539,1.381,1.381,0,0,0-1.135-.312,1.733,1.733,0,0,0-.826.973l-1.721-.591a3.5,3.5,0,0,1,1.953-2.1,3.034,3.034,0,0,1,2.731.513,3.714,3.714,0,0,1,1.787,2.946,5.12,5.12,0,0,1-1.731,3.928c-.926.788-2.265.708-3.45.637a5.93,5.93,0,0,0-1.309,0C488.575,320.581,488.186,321.141,488.186,321.141Z" transform="translate(-486.692 -311.455)" fill="#0c2238"/>
        </g>
        <g id="Group_52087" data-name="Group 52087" transform="translate(59.534 34.82)">
          <path id="Path_564303" data-name="Path 564303" d="M485.144,335.543a.841.841,0,1,1-.2-1.172A.841.841,0,0,1,485.144,335.543Z" transform="translate(-483.387 -333.989)" fill="#0c2238"/>
          <path id="Path_564304" data-name="Path 564304" d="M484.182,335.855a1.069,1.069,0,1,1,.618-1.943,1.069,1.069,0,0,1-.434,1.927A1.089,1.089,0,0,1,484.182,335.855Zm0-1.683a.65.65,0,0,0-.106.009.614.614,0,1,0,.606.959h0a.614.614,0,0,0-.5-.968Z" transform="translate(-483.115 -333.716)" fill="#0c2238"/>
        </g>
        <g id="Group_52088" data-name="Group 52088" transform="translate(66.374 44.874)">
          <path id="Path_564305" data-name="Path 564305" d="M503.361,362.4h-.022a4.093,4.093,0,0,1-2.6-1.5,6.353,6.353,0,0,0-.725-.642c-.887.238-1.4.372-1.4.372l-.455-1.761s.567-.146,1.525-.4c.914-.247,1.63.454,2.326,1.131.4.392,1.012.983,1.344.985h.01a2.514,2.514,0,0,0,1.842-.862,1.433,1.433,0,0,0,.192-1.336c-.076-.267-.215-.6-.447-.7a1.294,1.294,0,0,0-.884.15l-.923-1.567a3.044,3.044,0,0,1,2.483-.271,2.648,2.648,0,0,1,1.52,1.889,3.207,3.207,0,0,1-.495,2.934A4.314,4.314,0,0,1,503.361,362.4Z" transform="translate(-498.157 -355.828)" fill="#0c2238"/>
        </g>
        <g id="Group_52089" data-name="Group 52089" transform="translate(63.786 48.435)">
          <path id="Path_564306" data-name="Path 564306" d="M493.826,365.519a.691.691,0,1,1,.5-.838A.691.691,0,0,1,493.826,365.519Z" transform="translate(-492.74 -363.931)" fill="#0c2238"/>
          <path id="Path_564307" data-name="Path 564307" d="M493.383,365.5a.92.92,0,0,1-.888-.7.917.917,0,1,1,.888.7Zm0-1.382a.45.45,0,0,0-.112.014.463.463,0,0,0-.336.562.463.463,0,0,0,.561.337h0a.463.463,0,0,0,.337-.562A.466.466,0,0,0,493.385,364.113Z" transform="translate(-492.467 -363.659)" fill="#0c2238"/>
        </g>
        <g id="Group_52090" data-name="Group 52090" transform="translate(16.155 25.379)">
          <path id="Path_564308" data-name="Path 564308" d="M395.283,322.788s-.5-.507-1.359-1.359c-.736-.73-.453-1.861-.18-2.954.184-.736.436-1.744.2-2.164a3.279,3.279,0,0,0-2.19-1.522,1.929,1.929,0,0,0-1.692.674,1.378,1.378,0,0,0-.515,1.058,1.738,1.738,0,0,0,.8.992l-.9,1.582a3.5,3.5,0,0,1-1.706-2.306,3.036,3.036,0,0,1,1.006-2.59,3.708,3.708,0,0,1,3.225-1.214,5.12,5.12,0,0,1,3.543,2.423c.6,1.055.277,2.358-.01,3.508a6.047,6.047,0,0,0-.238,1.288c.829.822,1.307,1.308,1.307,1.308Z" transform="translate(-387.719 -312.955)" fill="#0c2238"/>
        </g>
        <g id="Group_52091" data-name="Group 52091" transform="translate(24.858 34.82)">
          <path id="Path_564309" data-name="Path 564309" d="M407.512,335.543a.841.841,0,1,0,.2-1.172A.842.842,0,0,0,407.512,335.543Z" transform="translate(-407.131 -333.989)" fill="#0c2238"/>
          <path id="Path_564310" data-name="Path 564310" d="M407.929,335.855a1.086,1.086,0,0,1-.184-.016,1.063,1.063,0,0,1-.692-.437h0a1.066,1.066,0,1,1,.875.453Zm0-1.684a.614.614,0,0,0-.5.969h0a.614.614,0,1,0,.606-.959A.647.647,0,0,0,407.926,334.171Z" transform="translate(-406.858 -333.716)" fill="#0c2238"/>
        </g>
        <g id="Group_52092" data-name="Group 52092" transform="translate(12.163 43.309)">
          <path id="Path_564311" data-name="Path 564311" d="M387.136,358.932s-.552-.194-1.491-.513c-.893-.3-1.1-1.286-1.3-2.235-.116-.55-.292-1.38-.567-1.567a2.513,2.513,0,0,0-2.018-.316,1.433,1.433,0,0,0-.9,1,1.053,1.053,0,0,0-.017.827,1.29,1.29,0,0,0,.818.368l-.107,1.815a3.047,3.047,0,0,1-2.213-1.158,2.646,2.646,0,0,1-.21-2.415,3.206,3.206,0,0,1,2.045-2.161,4.315,4.315,0,0,1,3.63.533,4.1,4.1,0,0,1,1.323,2.693,6.3,6.3,0,0,0,.244.937c.87.3,1.373.473,1.373.473Z" transform="translate(-378.939 -352.387)" fill="#0c2238"/>
        </g>
        <g id="Group_52093" data-name="Group 52093" transform="translate(21.33 48.434)">
          <path id="Path_564312" data-name="Path 564312" d="M400.121,365.519a.691.691,0,1,0-.5-.838A.691.691,0,0,0,400.121,365.519Z" transform="translate(-399.37 -363.93)" fill="#0c2238"/>
          <path id="Path_564313" data-name="Path 564313" d="M400.018,365.494a.928.928,0,0,1-.225-.028h0a.913.913,0,1,1,.225.028Zm0-1.382a.465.465,0,0,0-.45.351.463.463,0,0,0,.337.562h0a.463.463,0,1,0,.225-.9A.453.453,0,0,0,400.016,364.112Z" transform="translate(-399.098 -363.657)" fill="#0c2238"/>
        </g>
        <g id="Group_52094" data-name="Group 52094" transform="translate(27.335 134.228)">
          <rect id="Rectangle_23950" data-name="Rectangle 23950" width="10.661" height="0.909" fill="#0c2238"/>
        </g>
        <g id="Group_52095" data-name="Group 52095" transform="translate(26.88 125.547)">
          <rect id="Rectangle_23951" data-name="Rectangle 23951" width="0.909" height="2.655" fill="#0c2238"/>
        </g>
        <g id="Group_52096" data-name="Group 52096" transform="translate(60.178 125.547)">
          <rect id="Rectangle_23952" data-name="Rectangle 23952" width="0.909" height="2.655" fill="#0c2238"/>
        </g>
        <g id="Group_52097" data-name="Group 52097" transform="translate(32.885 108.93)">
          <rect id="Rectangle_23953" data-name="Rectangle 23953" width="2.056" height="25.297" transform="translate(0.455 0.455)" fill="#0c2238"/>
          <path id="Path_564314" data-name="Path 564314" d="M427.021,522.906h-2.056l-.455-.455v-25.3l.455-.455h2.056l.455.455v25.3Zm-1.6-.909h1.147V497.608h-1.147Z" transform="translate(-424.51 -496.699)" fill="#0c2238"/>
        </g>
        <g id="Group_52098" data-name="Group 52098" transform="translate(52.276 108.93)">
          <rect id="Rectangle_23954" data-name="Rectangle 23954" width="2.056" height="25.297" transform="translate(0.455 0.455)" fill="#0c2238"/>
          <path id="Path_564315" data-name="Path 564315" d="M469.666,522.906H467.61l-.455-.455v-25.3l.455-.455h2.056l.455.455v25.3Zm-1.6-.909h1.147V497.608h-1.147Z" transform="translate(-467.155 -496.699)" fill="#0c2238"/>
        </g>
        <g id="Group_52099" data-name="Group 52099" transform="translate(46.16 73.789)">
          <rect id="Rectangle_23955" data-name="Rectangle 23955" width="10.14" height="0.909" fill="#fff"/>
        </g>
        <g id="Group_52100" data-name="Group 52100" transform="translate(0 134.228)">
          <rect id="Rectangle_23956" data-name="Rectangle 23956" width="83.062" height="0.909" fill="#0c2238"/>
        </g>
      </g>
    </g>
  </g>
</svg>
