<svg xmlns="http://www.w3.org/2000/svg" xmlns:xlink="http://www.w3.org/1999/xlink" width="375" height="255" viewBox="0 0 375 255">
  <defs>
    <clipPath id="clip-path">
      <path id="Rectangle_23867" data-name="Rectangle 23867" d="M0,0H375a0,0,0,0,1,0,0V205a50,50,0,0,1-50,50H50A50,50,0,0,1,0,205V0A0,0,0,0,1,0,0Z" transform="translate(17577 -15339)" fill="#fff"/>
    </clipPath>
  </defs>
  <g id="Mask_Group_226" data-name="Mask Group 226" transform="translate(-17577 15339)" clip-path="url(#clip-path)">
    <g id="Group_51926" data-name="Group 51926" transform="translate(17554.895 -15351.404)">
      <g id="Background" transform="translate(0.106 0.404)">
        <g id="Group_51738" data-name="Group 51738">
          <rect id="Rectangle_23837" data-name="Rectangle 23837" width="411" height="273" transform="translate(0)" fill="#a9cef2"/>
        </g>
        <g id="Group_51739" data-name="Group 51739" transform="translate(225.146 15.135)">
          <rect id="Rectangle_23838" data-name="Rectangle 23838" width="0.684" height="42.091" fill="#fff"/>
        </g>
        <g id="Group_51740" data-name="Group 51740" transform="translate(278.242 150.538)">
          <rect id="Rectangle_23839" data-name="Rectangle 23839" width="55.623" height="0.684" fill="#fff"/>
        </g>
        <g id="Group_51741" data-name="Group 51741" transform="translate(333.523 15.135)">
          <path id="Path_563996" data-name="Path 563996" d="M767.857,250.11a4.268,4.268,0,0,1-2.875-.722,1.559,1.559,0,0,1-.426-1.5,1.177,1.177,0,0,0-.359-1.138c-3.154-3.068-22.716.069-32.618,2.156l-.413-.335V34.037h.684V248.151c3.691-.759,28.847-5.758,32.823-1.891a1.853,1.853,0,0,1,.555,1.751.871.871,0,0,0,.225.879c1.549,1.471,9.147-.325,15.852-1.909,8.37-1.978,13.545-3.075,14.835-1.625a1.4,1.4,0,0,1,.167,1.494l-.643-.234c.2-.544.023-.741-.035-.805-1.109-1.249-8.046.391-14.166,1.837C776.151,248.9,771.046,250.109,767.857,250.11Z" transform="translate(-731.167 -34.037)" fill="#fff"/>
        </g>
        <g id="Group_51742" data-name="Group 51742" transform="translate(366.642 176.734)">
          <rect id="Rectangle_23840" data-name="Rectangle 23840" width="0.684" height="51.098" fill="#fff"/>
        </g>
        <g id="Group_51743" data-name="Group 51743" transform="translate(288.493 15.135)">
          <rect id="Rectangle_23841" data-name="Rectangle 23841" width="0.684" height="135.745" fill="#fff"/>
        </g>
        <g id="Group_51744" data-name="Group 51744" transform="translate(281.091 156.774)">
          <rect id="Rectangle_23842" data-name="Rectangle 23842" width="52.775" height="0.684" fill="#fff"/>
        </g>
        <g id="Group_51745" data-name="Group 51745" transform="translate(303.804 132.978)">
          <path id="Path_563997" data-name="Path 563997" d="M679.114,310.757h-9.5l-.337-.281L666.035,292.7l.337-.4h15.5l.338.395-2.757,17.773Zm-9.213-.684h8.92l2.651-17.089H666.782Z" transform="translate(-666.035 -292.299)" fill="#fff"/>
        </g>
        <g id="Group_51746" data-name="Group 51746" transform="translate(310.596 98.273)">
          <path id="Path_563998" data-name="Path 563998" d="M681.876,251.334c-.1-.75-2.508-18.378.73-24.865-.034-.963-.006-8.415,8.807-10.23l.4.263c.058.27,1.379,6.628-2.74,9.15a9.16,9.16,0,0,1-5.945,1.3c-3.014,6.45-.6,24.108-.579,24.288Zm1.407-25.052a8.642,8.642,0,0,0,5.438-1.213c3.2-1.957,2.693-6.767,2.487-8.084C683.523,218.746,683.253,224.972,683.283,226.283Z" transform="translate(-680.92 -216.24)" fill="#fff"/>
        </g>
        <g id="Group_51747" data-name="Group 51747" transform="translate(293.746 108.554)">
          <path id="Path_563999" data-name="Path 563999" d="M660.906,249.495a11.033,11.033,0,0,0-4.019-3.738c-3.934,1.3-7.095,1.19-9.4-.32a8.621,8.621,0,0,1-3.495-6.036l.278-.366a21.868,21.868,0,0,1,8.973.466,5.259,5.259,0,0,1,4.026,5.679,11.616,11.616,0,0,1,4.218,3.956Zm-16.187-9.838a7.9,7.9,0,0,0,3.149,5.21c2.106,1.377,5.039,1.467,8.723.266a4.545,4.545,0,0,0-3.533-4.974A21.618,21.618,0,0,0,644.719,239.657Z" transform="translate(-643.993 -238.772)" fill="#fff"/>
        </g>
        <g id="Group_51748" data-name="Group 51748" transform="translate(311.002 115.619)">
          <path id="Path_564000" data-name="Path 564000" d="M682.436,266.676l-.626-.277a11.4,11.4,0,0,1,3.746-4.415,9.745,9.745,0,0,1,3.974-6.185c2.594-1.723,6.09-2,10.392-.841l.253.328c0,.238-.009,5.856-4.6,8.064-4.127,1.985-8.7-.231-9.692-.762A10.873,10.873,0,0,0,682.436,266.676Zm3.814-4.671c.987.513,5.3,2.525,9.03.728,3.663-1.762,4.14-6.082,4.2-7.184-3.981-1.03-7.2-.755-9.565.815A9.173,9.173,0,0,0,686.251,262.005Z" transform="translate(-681.81 -254.255)" fill="#fff"/>
        </g>
        <g id="Group_51749" data-name="Group 51749" transform="translate(314.82 118.775)">
          <path id="Path_564001" data-name="Path 564001" d="M690.662,266.191l-.484-.484c2.36-2.359,8.082-4.447,8.324-4.535l.233.643C698.677,261.837,692.914,263.94,690.662,266.191Z" transform="translate(-690.178 -261.173)" fill="#fff"/>
        </g>
        <g id="Group_51750" data-name="Group 51750" transform="translate(300.628 111.92)">
          <path id="Path_564002" data-name="Path 564002" d="M664.918,249.686a26.022,26.022,0,0,0-5.842-2.875l.17-.663a26.121,26.121,0,0,1,6.047,2.966Z" transform="translate(-659.076 -246.148)" fill="#fff"/>
        </g>
        <g id="Group_51751" data-name="Group 51751" transform="translate(312.319 103.06)">
          <path id="Path_564003" data-name="Path 564003" d="M685.315,232.4l-.618-.295a21.485,21.485,0,0,1,4.258-5.369l.461.506A21.21,21.21,0,0,0,685.315,232.4Z" transform="translate(-684.697 -226.732)" fill="#fff"/>
        </g>
        <g id="Group_51752" data-name="Group 51752" transform="translate(95.123 155.119)">
          <path id="Path_564004" data-name="Path 564004" d="M239.085,435.719H222.538a5.387,5.387,0,0,1-5.131-3.817c-4.162-13.932-16.561-61.032-1.332-82.172,6.016-8.352,13.678-10.9,22.16-7.357a20.318,20.318,0,0,1,5.653,3.525l-.453.512a19.651,19.651,0,0,0-5.463-3.406c-8.268-3.45-15.449-1.053-21.341,7.125-15.046,20.886-2.708,67.719,1.433,81.575a4.7,4.7,0,0,0,4.475,3.329h16.547a4.679,4.679,0,0,0,4.377-3.028A148.812,148.812,0,0,0,252.286,376l.684-.023a149.5,149.5,0,0,1-8.867,56.273A5.368,5.368,0,0,1,239.085,435.719Z" transform="translate(-208.697 -340.822)" fill="#fff"/>
        </g>
        <g id="Group_51753" data-name="Group 51753" transform="translate(113.665 177.46)">
          <path id="Path_564005" data-name="Path 564005" d="M252.773,396.664a3.44,3.44,0,1,1,3.44-3.44A3.444,3.444,0,0,1,252.773,396.664Zm0-6.2a2.755,2.755,0,1,0,2.756,2.756A2.759,2.759,0,0,0,252.773,390.468Z" transform="translate(-249.333 -389.784)" fill="#fff"/>
        </g>
        <g id="Group_51754" data-name="Group 51754" transform="translate(74.428 139.095)">
          <path id="Path_564006" data-name="Path 564006" d="M166.782,312.584a3.44,3.44,0,1,1,3.44-3.44A3.444,3.444,0,0,1,166.782,312.584Zm0-6.2a2.756,2.756,0,1,0,2.755,2.756A2.759,2.759,0,0,0,166.782,306.388Z" transform="translate(-163.342 -305.704)" fill="#fff"/>
        </g>
        <g id="Group_51755" data-name="Group 51755" transform="translate(19.603 139.095)">
          <path id="Path_564007" data-name="Path 564007" d="M46.63,312.584a3.44,3.44,0,1,1,3.44-3.44A3.444,3.444,0,0,1,46.63,312.584Zm0-6.2a2.756,2.756,0,1,0,2.755,2.756A2.758,2.758,0,0,0,46.63,306.388Z" transform="translate(-43.19 -305.704)" fill="#fff"/>
        </g>
        <g id="Group_51756" data-name="Group 51756" transform="translate(113.665 221.033)">
          <path id="Path_564008" data-name="Path 564008" d="M252.773,492.157a3.44,3.44,0,1,1,3.44-3.44A3.444,3.444,0,0,1,252.773,492.157Zm0-6.2a2.755,2.755,0,1,0,2.756,2.756A2.759,2.759,0,0,0,252.773,485.961Z" transform="translate(-249.333 -485.277)" fill="#fff"/>
        </g>
        <g id="Group_51757" data-name="Group 51757" transform="translate(109.791 249.331)">
          <path id="Path_564009" data-name="Path 564009" d="M250.319,558.853h-4.2a5.279,5.279,0,0,1-5.273-5.274v-5.941l.342-.342H255.25l.342.342v5.941A5.279,5.279,0,0,1,250.319,558.853Zm-8.793-10.873v5.6a4.594,4.594,0,0,0,4.589,4.589h4.2a4.594,4.594,0,0,0,4.589-4.589v-5.6Z" transform="translate(-240.842 -547.296)" fill="#fff"/>
        </g>
        <g id="Group_51758" data-name="Group 51758" transform="translate(17.167 213.317)">
          <rect id="Rectangle_23843" data-name="Rectangle 23843" width="79.635" height="0.684" fill="#fff"/>
        </g>
        <g id="Group_51759" data-name="Group 51759" transform="translate(17.167 243.662)">
          <rect id="Rectangle_23844" data-name="Rectangle 23844" width="86.38" height="0.684" fill="#fff"/>
        </g>
        <g id="Group_51760" data-name="Group 51760" transform="translate(17.167 114.801)">
          <path id="Path_564010" data-name="Path 564010" d="M138.192,293.106h-.684a40,40,0,0,0-39.959-39.96h-59.7v-.684h59.7A40.69,40.69,0,0,1,138.192,293.106Z" transform="translate(-37.851 -252.462)" fill="#fff"/>
        </g>
        <g id="Group_51761" data-name="Group 51761" transform="translate(17.135 163.939)">
          <path id="Path_564011" data-name="Path 564011" d="M78.728,366.435l-.673-.126.973-5.182A13.859,13.859,0,0,1,68.75,362.4c-6.172-1.616-24.873-1.473-30.9-.91l-.064-.682c5.867-.547,24.646-.772,31.142.929a13.127,13.127,0,0,0,10.4-1.587l.521.351Z" transform="translate(-37.781 -360.153)" fill="#fff"/>
        </g>
        <g id="Group_51762" data-name="Group 51762" transform="translate(33.535 167.043)">
          <path id="Path_564012" data-name="Path 564012" d="M91.538,369.906c-7.846-2.81-17.673-2.217-17.771-2.211l-.044-.683c.1-.007,10.069-.608,18.045,2.25Z" transform="translate(-73.723 -366.955)" fill="#fff"/>
        </g>
        <g id="Group_51763" data-name="Group 51763" transform="translate(44.112 156.362)">
          <path id="Path_564013" data-name="Path 564013" d="M133.742,401.186c-33.22-1.3-36.708-8.631-36.84-8.942l.212-.46c.969-.306,1.928-1.307,2.849-2.973a15.98,15.98,0,0,0,1.945-7.707c.005-5,1.116-17.649,11.29-26.992a16.694,16.694,0,0,0,4.931-8.079l.595-2.289.522-.2.936.631a16.3,16.3,0,0,0,9.371,2.808c6-.067,17.048.933,23.716,8.5l-.513.453c-6.488-7.362-17.315-8.335-23.194-8.268a16.984,16.984,0,0,1-9.762-2.925l-.535-.361-.473,1.821a17.387,17.387,0,0,1-5.131,8.411c-9.974,9.158-11.063,21.575-11.068,26.488a16.668,16.668,0,0,1-2.03,8.038,7.139,7.139,0,0,1-2.83,3.13c1.08,1.375,7.281,7.107,36.037,8.23Z" transform="translate(-96.902 -343.547)" fill="#fff"/>
        </g>
        <g id="Group_51764" data-name="Group 51764" transform="translate(71.846 163.279)">
          <path id="Path_564014" data-name="Path 564014" d="M178.268,363.106a29.977,29.977,0,0,0-20.412-3.121l-.172-.662a30.687,30.687,0,0,1,20.923,3.188Z" transform="translate(-157.684 -358.706)" fill="#fff"/>
        </g>
        <g id="Group_51765" data-name="Group 51765" transform="translate(87.176 206.783)">
          <path id="Path_564015" data-name="Path 564015" d="M191.279,461.266v-.684c5.3,0,8.64-6.469,8.673-6.535l.611.309C200.42,454.638,197,461.266,191.279,461.266Z" transform="translate(-191.279 -454.047)" fill="#fff"/>
        </g>
        <g id="Group_51766" data-name="Group 51766" transform="translate(33.535 209.39)">
          <path id="Path_564016" data-name="Path 564016" d="M76.174,464.455c-.8,0-1.616-.026-2.453-.083l.046-.683A34.744,34.744,0,0,0,92.6,459.762l.358.584A35.013,35.013,0,0,1,76.174,464.455Z" transform="translate(-73.721 -459.762)" fill="#fff"/>
        </g>
        <g id="Group_51767" data-name="Group 51767" transform="translate(86.191 17.732)">
          <path id="Path_564017" data-name="Path 564017" d="M224.212,75.161H189.464l-.342-.342V40.071l.342-.342h34.748l.342.342V74.818Zm-34.405-.684H223.87V40.413H189.806Z" transform="translate(-189.122 -39.729)" fill="#fff"/>
        </g>
        <g id="Group_51768" data-name="Group 51768" transform="translate(41.5 47.263)">
          <path id="Path_564018" data-name="Path 564018" d="M126.268,139.88H91.52l-.342-.342V104.79l.342-.342h34.748l.342.342v34.748ZM91.862,139.2h34.063V105.132H91.862Z" transform="translate(-91.178 -104.448)" fill="#fff"/>
        </g>
      </g>
      <g id="Characters" transform="translate(14.536 16.782)">
        <g id="Group_51769" data-name="Group 51769" transform="translate(168.234 122.556)">
          <path id="Path_564019" data-name="Path 564019" d="M408.557,310.824l-8.01,3.431s3.289,8.862,9.794,10.621l4.09-4.989-5.288,35.479s12.415,5.193,32.051-.24l-5.537-35.24,3.689,4.989c6.506-1.759,9.794-10.621,9.794-10.621l-8.009-3.431-15.346-5.472Z" transform="translate(-400.547 -305.352)" fill="#fff"/>
        </g>
        <g id="Group_51770" data-name="Group 51770" transform="translate(171.185 131.969)">
          <path id="Path_564020" data-name="Path 564020" d="M408.547,326.748a.766.766,0,1,1-.766-.766A.766.766,0,0,1,408.547,326.748Z" transform="translate(-407.015 -325.982)" fill="#a9cef2"/>
        </g>
        <g id="Group_51771" data-name="Group 51771" transform="translate(178.904 135.976)">
          <path id="Path_564021" data-name="Path 564021" d="M425.465,335.529a.766.766,0,1,1-.766-.766A.766.766,0,0,1,425.465,335.529Z" transform="translate(-423.933 -334.763)" fill="#a9cef2"/>
        </g>
        <g id="Group_51772" data-name="Group 51772" transform="translate(188.858 131.969)">
          <path id="Path_564022" data-name="Path 564022" d="M447.28,326.748a.766.766,0,1,1-.766-.766A.766.766,0,0,1,447.28,326.748Z" transform="translate(-445.748 -325.982)" fill="#a9cef2"/>
        </g>
        <g id="Group_51773" data-name="Group 51773" transform="translate(194.13 124.369)">
          <circle id="Ellipse_3947" data-name="Ellipse 3947" cx="0.766" cy="0.766" r="0.766" fill="#a9cef2"/>
        </g>
        <g id="Group_51774" data-name="Group 51774" transform="translate(198.939 137.781)">
          <circle id="Ellipse_3948" data-name="Ellipse 3948" cx="0.766" cy="0.766" r="0.766" fill="#a9cef2"/>
        </g>
        <g id="Group_51775" data-name="Group 51775" transform="translate(206.039 133.228)">
          <path id="Path_564023" data-name="Path 564023" d="M484.933,329.507a.766.766,0,1,1-.766-.766A.766.766,0,0,1,484.933,329.507Z" transform="translate(-483.401 -328.741)" fill="#a9cef2"/>
        </g>
        <g id="Group_51776" data-name="Group 51776" transform="translate(215.294 131.203)">
          <path id="Path_564024" data-name="Path 564024" d="M505.216,325.069a.766.766,0,1,1-.766-.766A.766.766,0,0,1,505.216,325.069Z" transform="translate(-503.684 -324.303)" fill="#a9cef2"/>
        </g>
        <g id="Group_51777" data-name="Group 51777" transform="translate(185.378 139.882)">
          <circle id="Ellipse_3949" data-name="Ellipse 3949" cx="0.766" cy="0.766" r="0.766" fill="#a9cef2"/>
        </g>
        <g id="Group_51778" data-name="Group 51778" transform="translate(194.337 144.995)">
          <path id="Path_564025" data-name="Path 564025" d="M459.287,355.294a.766.766,0,1,1-.766-.766A.766.766,0,0,1,459.287,355.294Z" transform="translate(-457.755 -354.528)" fill="#a9cef2"/>
        </g>
        <g id="Group_51779" data-name="Group 51779" transform="translate(203.832 149.886)">
          <path id="Path_564026" data-name="Path 564026" d="M480.1,366.015a.766.766,0,1,1-.766-.766A.766.766,0,0,1,480.1,366.015Z" transform="translate(-478.563 -365.249)" fill="#a9cef2"/>
        </g>
        <g id="Group_51780" data-name="Group 51780" transform="translate(183.459 149.12)">
          <path id="Path_564027" data-name="Path 564027" d="M435.447,364.336a.766.766,0,1,1-.766-.766A.766.766,0,0,1,435.447,364.336Z" transform="translate(-433.915 -363.57)" fill="#a9cef2"/>
        </g>
        <g id="Group_51781" data-name="Group 51781" transform="translate(194.842 154.95)">
          <path id="Path_564028" data-name="Path 564028" d="M460.393,377.112a.766.766,0,1,1-.766-.766A.766.766,0,0,1,460.393,377.112Z" transform="translate(-458.861 -376.346)" fill="#a9cef2"/>
        </g>
        <g id="Group_51782" data-name="Group 51782" transform="translate(185.273 159.465)">
          <path id="Path_564029" data-name="Path 564029" d="M439.422,387.007a.766.766,0,1,1-.766-.766A.766.766,0,0,1,439.422,387.007Z" transform="translate(-437.89 -386.241)" fill="#a9cef2"/>
        </g>
        <g id="Group_51783" data-name="Group 51783" transform="translate(177.571 166.523)">
          <circle id="Ellipse_3950" data-name="Ellipse 3950" cx="0.766" cy="0.766" r="0.766" fill="#a9cef2"/>
        </g>
        <g id="Group_51784" data-name="Group 51784" transform="translate(187.327 173.136)">
          <path id="Path_564030" data-name="Path 564030" d="M443.923,416.968a.766.766,0,1,1-.766-.766A.766.766,0,0,1,443.923,416.968Z" transform="translate(-442.391 -416.202)" fill="#a9cef2"/>
        </g>
        <g id="Group_51785" data-name="Group 51785" transform="translate(192.924 165.757)">
          <circle id="Ellipse_3951" data-name="Ellipse 3951" cx="0.766" cy="0.766" r="0.766" fill="#a9cef2"/>
        </g>
        <g id="Group_51786" data-name="Group 51786" transform="translate(201.837 171.932)">
          <path id="Path_564031" data-name="Path 564031" d="M475.724,414.329a.766.766,0,1,1-.766-.766A.766.766,0,0,1,475.724,414.329Z" transform="translate(-474.192 -413.563)" fill="#a9cef2"/>
        </g>
        <g id="Group_51787" data-name="Group 51787" transform="translate(203.54 162.081)">
          <path id="Path_564032" data-name="Path 564032" d="M479.455,392.74a.766.766,0,1,1-.766-.766A.766.766,0,0,1,479.455,392.74Z" transform="translate(-477.923 -391.974)" fill="#a9cef2"/>
        </g>
        <g id="Group_51788" data-name="Group 51788" transform="translate(131.216 45.365)">
          <path id="Path_564033" data-name="Path 564033" d="M361.031,202.585h32.116l-7.111-65.251s-9.616-5.056-30.458,6.029l-.808.425c-11.96,4.548-27.3,13.5-33.295,23.686-11.173,18.995,26.872,34.142,26.872,34.142s6.35-2.045,9.454-12.846l-17.143-13.677,17.8-12.523,2.467,39.879Z" transform="translate(-319.421 -136.184)" fill="#fff"/>
        </g>
        <g id="Group_51789" data-name="Group 51789" transform="translate(176.8 45.365)">
          <path id="Path_564034" data-name="Path 564034" d="M451.438,202.585H419.322l7.111-65.251s9.616-5.056,30.457,6.029l.808.425c11.96,4.548,27.3,13.5,33.295,23.686,11.174,18.995-26.872,34.142-26.872,34.142s-6.351-2.045-9.454-12.846l17.144-13.677-17.8-12.523-2.467,39.879Z" transform="translate(-419.322 -136.184)" fill="#fff"/>
        </g>
        <g id="Group_51790" data-name="Group 51790" transform="translate(206.795 222.745)">
          <path id="Path_564035" data-name="Path 564035" d="M486.548,526.929l20.123-2.006,1.092,5.387s5.235-.79,8.031,2.872,3.1,6.556,3.135,13.619l-25.818-.174-8.055-6.086Z" transform="translate(-485.057 -524.923)" fill="#ffd380"/>
        </g>
        <g id="Group_51791" data-name="Group 51791" transform="translate(150.012 222.745)">
          <path id="Path_564036" data-name="Path 564036" d="M393,526.929l-20.123-2.006-1.093,5.387s-5.235-.79-8.031,2.872-3.1,6.556-3.135,13.619l25.818-.174,8.055-6.086Z" transform="translate(-360.613 -524.923)" fill="#ffd380"/>
        </g>
        <g id="Group_51792" data-name="Group 51792" transform="translate(206.795 98.607)">
          <path id="Path_564037" data-name="Path 564037" d="M519.853,252.866s14.566,43.726,27.819,68.076c0,0-10.672-1.9-18.51,1.616s-7.174,5.177-9.707,7.428-6.3,5.348-8.964,5.506c0,0,6.748,14.344,8.817,16.232,0,0-7.893-2.65-16.328,7.874l-11.127,10.283-3.828-2.573-1.876-14.619-1.091-25.776,2.348-.608-.913-5.808s2.323,1.072,4.9-2.594,7.31-9,7.31-9,4.772-4.712,5.547-7.9.184-5.325-2.279-7.178-7.749-5.966-7.749-5.966l1.125-2.423-4.788-1.775-2.632-15.372s2.986.835,5-.745,5.1-4.079,5.1-4.079l1.767,1.238S514.906,258.712,519.853,252.866Z" transform="translate(-485.057 -252.866)" fill="#fa6c51"/>
        </g>
        <g id="Group_51793" data-name="Group 51793" transform="translate(112.45 99.1)">
          <path id="Path_564038" data-name="Path 564038" d="M305.864,253.946s11.575,8.681,20.122,11.7l2.291-1.151a14.723,14.723,0,0,0,5.419,4.231c3.3,1.391,5.111.257,5.111.257l-1.87,16.039-2.861,1.286,1.347,2.831-7.532,5.687s-4.13,2.46-1.767,7.756c0,0,1.707,3.643,3.4,4.773l7.73,9.432s2.667,4.072,4.19,4.372a2.6,2.6,0,0,0,2.172-.269l-.94,6.529,3.257,1.118-4.183,27.125,5.032,1.83-1.091,9.467S334.7,369,326.8,360.672s-11.476-9.418-17.21-7.895c0,0,6.53-8.481,9-15.816,0,0-7.263-.272-13.987-8.233s-19.224-7.542-19.224-7.542l-7.078.628s11.717-23.547,18.551-42.523S305.864,253.946,305.864,253.946Z" transform="translate(-278.293 -253.946)" fill="#fa6c51"/>
        </g>
        <g id="Group_51794" data-name="Group 51794" transform="translate(189.65 183.935)">
          <path id="Path_564039" data-name="Path 564039" d="M451.133,441.2l-1.207,17.911-2.069.734-.376,7.827s3.24-1.26,9.723-.3l-1.044-7.565-2.254-.4-2.47-19.534Z" transform="translate(-447.482 -439.868)" fill="#f05e74"/>
        </g>
        <g id="Group_51795" data-name="Group 51795" transform="translate(170.021 203.353)">
          <path id="Path_564040" data-name="Path 564040" d="M424.873,482.826l-.573,8.1-2.294,32.453-8.184.053-8.613.057s1.268-10.137,7.4-8.663l3.065-32.334Z" transform="translate(-404.869 -482.463)" fill="#ffd380"/>
          <path id="Path_564041" data-name="Path 564041" d="M404.806,523.8l-.342-.385c.031-.248.8-6.1,3.97-8.294a4.538,4.538,0,0,1,3.461-.739l3.029-31.954.681.064-3.065,32.335-.421.3a3.94,3.94,0,0,0-3.295.557c-2.477,1.712-3.394,6.1-3.621,7.428L421.282,523l2.845-40.241.683.048-2.867,40.557-.339.318Z" transform="translate(-404.464 -482.425)" fill="#0c2238"/>
        </g>
        <g id="Group_51796" data-name="Group 51796" transform="translate(198.235 202.829)">
          <path id="Path_564042" data-name="Path 564042" d="M467.043,482.393l4.177,40.378,16.8.109s-1.268-10.137-7.4-8.663l-4.1-32.848Z" transform="translate(-466.703 -481.327)" fill="#ffd380"/>
          <path id="Path_564043" data-name="Path 564043" d="M487.61,523.172l-16.8-.11-.338-.307L466.3,482.378l.681-.07,4.145,40.073,16.089.1c-.226-1.33-1.143-5.716-3.621-7.428a3.941,3.941,0,0,0-3.294-.557l-.419-.291-4.1-32.848.679-.085,4.055,32.481a4.532,4.532,0,0,1,3.471.737c3.174,2.2,3.938,8.045,3.97,8.294Z" transform="translate(-466.297 -481.276)" fill="#0c2238"/>
        </g>
        <g id="Group_51797" data-name="Group 51797" transform="translate(206.795 133.994)">
          <path id="Path_564044" data-name="Path 564044" d="M485.057,355.353a1.654,1.654,0,0,1,1.375-1.531,6.852,6.852,0,0,0,1.38-.191l7.915-11.13-6.741-5.441a26.676,26.676,0,0,0,4.917-6.64l.651.453,7.96,6a5.758,5.758,0,0,1,1.164,7.288c-2.377,4.411-10.476,13.3-11.516,14.733-.084.116-.17.237-.256.359l.008-.005-.2.282c-.933,1.321-1.985,2.8-3.078,3.157a3.689,3.689,0,0,1-.508.125,2.958,2.958,0,0,1-1.867-.1l-.065-.021Z" transform="translate(-485.057 -330.42)" fill="#ffd380"/>
        </g>
        <g id="Group_51798" data-name="Group 51798" transform="translate(184.834 93.787)">
          <path id="Path_564045" data-name="Path 564045" d="M437.393,245.862l-.465,12.051a9.353,9.353,0,0,0,3.837,6.322l-.35,7.465s1.129,1.36,5.15,1.185,4.43-2.086,4.43-2.086l1.015-7.9a13.984,13.984,0,0,0,2.452-5.023s3.153-.072,2.974-3.961-6.346-4.479-6.346-4.479L440.66,242.3Z" transform="translate(-436.928 -242.303)" fill="#ffd380"/>
        </g>
        <g id="Group_51799" data-name="Group 51799" transform="translate(208.684 101.779)">
          <path id="Path_564046" data-name="Path 564046" d="M493.92,259.891s-3.695-.778-4.247,2.733l-.44,8.138s-.484,1.784,2.071,1.8,6.076-2.6,6.076-2.6l2.172-2.554S494.287,262.174,493.92,259.891Z" transform="translate(-489.197 -259.817)" fill="#ffd380"/>
        </g>
        <g id="Group_51800" data-name="Group 51800" transform="translate(162.608 101.768)">
          <path id="Path_564047" data-name="Path 564047" d="M393.744,260s.72-.5,2.472.05,1.744,3.671,1.744,3.671l.367,8.362s-.762.808-3.374.3-6.714-4-6.735-5A29.051,29.051,0,0,0,393.744,260Z" transform="translate(-388.218 -259.794)" fill="#ffd380"/>
        </g>
        <g id="Group_51801" data-name="Group 51801" transform="translate(185.886 34.612)">
          <path id="Path_564048" data-name="Path 564048" d="M439.348,113.247l-.115,10.541s.355,3,5.558,2.63,4.11-3.827,4.11-3.827l-.088-9.974Z" transform="translate(-439.233 -112.616)" fill="#ffd380"/>
        </g>
        <g id="Group_51802" data-name="Group 51802" transform="translate(180.5 8.768)">
          <path id="Path_564049" data-name="Path 564049" d="M431.118,57.976s-4.369,16.533-3.6,19.608,2.412,5.961,5.776,7.391,8.533,1.937,12.274-1.644,2.889-5.265,2.889-5.265a4.553,4.553,0,0,0,5-4.738c.188-5.172-6.239-5.195-6.239-5.195l-1.471-10.158-10.5-2Z" transform="translate(-427.43 -55.977)" fill="#ffd380"/>
        </g>
        <g id="Group_51803" data-name="Group 51803" transform="translate(168.234 137.508)">
          <path id="Path_564050" data-name="Path 564050" d="M414.37,338.12l-3.152,20.788s-.624-1.156-2.755-1.091l-7.916-11.13,6.564-5.564a8.632,8.632,0,0,0,3.23,1.569Z" transform="translate(-400.547 -338.12)" fill="#f05e74"/>
        </g>
        <g id="Group_51804" data-name="Group 51804" transform="translate(203.369 137.508)">
          <path id="Path_564051" data-name="Path 564051" d="M477.55,338.12l3.152,20.788s.624-1.156,2.755-1.091l7.916-11.13-6.564-5.564a8.632,8.632,0,0,1-3.23,1.569Z" transform="translate(-477.55 -338.12)" fill="#f05e74"/>
        </g>
        <g id="Group_51805" data-name="Group 51805" transform="translate(209.345 71.75)">
          <path id="Path_564052" data-name="Path 564052" d="M490.646,225.057l3.894-1.334-1.238-3.514,17.144-13.677-17.8-12.523Z" transform="translate(-490.646 -194.008)" fill="#fa6c51"/>
        </g>
        <g id="Group_51806" data-name="Group 51806" transform="translate(152.453 71.75)">
          <path id="Path_564053" data-name="Path 564053" d="M383.76,194.008l-17.8,12.523,17.144,13.677-1.015,3.7,3.587,1.12Z" transform="translate(-365.963 -194.008)" fill="#fa6c51"/>
        </g>
        <g id="Group_51807" data-name="Group 51807" transform="translate(166.562 45.784)">
          <path id="Path_564054" data-name="Path 564054" d="M411.339,137.1,397.8,142.45s-1.858,1.19-.285,3.558,10.026,5.348,18.806,4.97c0,0,4.548-.438,4.983-.874a26.766,26.766,0,0,1-7.628-7.116C410.734,138.624,411.339,137.1,411.339,137.1Z" transform="translate(-396.883 -137.1)" fill="#fa6c51"/>
        </g>
        <g id="Group_51808" data-name="Group 51808" transform="translate(190.486 45.784)">
          <path id="Path_564055" data-name="Path 564055" d="M472.819,142.45s1.858,1.19.285,3.558-10.026,5.348-18.806,4.97c0,0-4.548-.438-4.983-.874a26.772,26.772,0,0,0,7.628-7.116c2.943-4.364,2.338-5.888,2.338-5.888Z" transform="translate(-449.314 -137.1)" fill="#fa6c51"/>
        </g>
        <g id="Group_51809" data-name="Group 51809" transform="translate(194.896 105.899)">
          <path id="Path_564056" data-name="Path 564056" d="M459.1,269.351a.979.979,0,1,0,1.331-.381A.978.978,0,0,0,459.1,269.351Z" transform="translate(-458.979 -268.847)" fill="#ffa857"/>
        </g>
        <g id="Group_51810" data-name="Group 51810" transform="translate(197.885 102.007)">
          <path id="Path_564057" data-name="Path 564057" d="M468.45,268.143a3.884,3.884,0,0,1-1.992-.551l.35-.588a3.226,3.226,0,1,0-.766-4.914l-.512-.454a3.911,3.911,0,1,1,3.9,6.382A3.936,3.936,0,0,1,468.45,268.143Z" transform="translate(-465.53 -260.318)" fill="#0c2238"/>
        </g>
        <g id="Group_51811" data-name="Group 51811" transform="translate(184.707 99.672)">
          <path id="Path_564058" data-name="Path 564058" d="M437.667,256.583a5.1,5.1,0,0,1,5.491.343,4.825,4.825,0,0,1,.98-.437,5.731,5.731,0,0,1,6.138,1.8l.657.773a3.814,3.814,0,0,1-3.221,3.046,5.339,5.339,0,0,1-3.288-.547,4.259,4.259,0,0,1-1.82-1.488s-2.6,2.357-5.207.511Z" transform="translate(-437.056 -255.6)" fill="#fa6c51"/>
          <path id="Path_564059" data-name="Path 564059" d="M446.5,262.119a5.881,5.881,0,0,1-2.632-.652,5.11,5.11,0,0,1-1.745-1.3,4.506,4.506,0,0,1-5.325.294l-.144-.3.27-4,.161-.268a5.494,5.494,0,0,1,5.69.23,5.8,5.8,0,0,1,.854-.359,6.107,6.107,0,0,1,6.506,1.9l.657.773.078.27a4.192,4.192,0,0,1-3.5,3.335A5.088,5.088,0,0,1,446.5,262.119Zm-4.529-2.7.529.088a3.86,3.86,0,0,0,1.674,1.348,4.966,4.966,0,0,0,3.076.516,3.489,3.489,0,0,0,2.911-2.615l-.548-.647a5.418,5.418,0,0,0-5.769-1.7,4.523,4.523,0,0,0-.9.4l-.383-.011a4.717,4.717,0,0,0-4.963-.412l-.244,3.617C439.651,261.479,441.944,259.441,441.967,259.42Z" transform="translate(-436.649 -255.201)" fill="#0c2238"/>
        </g>
        <g id="Group_51812" data-name="Group 51812" transform="translate(193.988 24.788)">
          <path id="Path_564060" data-name="Path 564060" d="M457.24,91.6a1.278,1.278,0,1,0,1.787-.267A1.278,1.278,0,0,0,457.24,91.6Z" transform="translate(-456.99 -91.087)" fill="#ffa857"/>
        </g>
        <g id="Group_51813" data-name="Group 51813" transform="translate(198.597 21.047)">
          <path id="Path_564061" data-name="Path 564061" d="M470.359,92.894a4.96,4.96,0,0,1-3.084-1.073l.423-.538a4.317,4.317,0,1,0-.16-6.653l-.449-.517a5,5,0,1,1,3.269,8.78Z" transform="translate(-467.09 -82.889)" fill="#0c2238"/>
        </g>
        <g id="Group_51814" data-name="Group 51814" transform="translate(181.29 16.185)">
          <path id="Path_564062" data-name="Path 564062" d="M430.878,73.4a6.279,6.279,0,0,1,6.647,1.314,7.189,7.189,0,0,1,7.6,1.479l2.676,2.274a6.84,6.84,0,0,1-7.839,3.053s-2.647-.831-3.318-2.551c0,0-3.867,1.949-6.752-.73Z" transform="translate(-429.561 -72.628)" fill="#fa6c51"/>
          <path id="Path_564063" data-name="Path 564063" d="M441.586,81.721a8.722,8.722,0,0,1-2.1-.269c-.126-.039-2.518-.807-3.4-2.438-1.025.409-4.288,1.423-6.816-.925l-.1-.319.982-4.839.195-.244a6.686,6.686,0,0,1,6.861,1.23,7.611,7.611,0,0,1,7.76,1.622l2.668,2.267.081.421A7.212,7.212,0,0,1,441.586,81.721Zm-5.492-3.457.473.181c.605,1.549,3.077,2.341,3.1,2.349a6.523,6.523,0,0,0,7.292-2.656l-2.453-2.084a6.8,6.8,0,0,0-7.239-1.43l-.378-.061a5.885,5.885,0,0,0-6.114-1.315l-.907,4.465C432.535,80.015,436.058,78.282,436.094,78.264Z" transform="translate(-429.161 -72.232)" fill="#0c2238"/>
        </g>
        <g id="Group_51815" data-name="Group 51815" transform="translate(176.256 122.263)">
          <path id="Path_564064" data-name="Path 564064" d="M428.409,304.711s-1.9,3.181,5.658,8.735l-.177.649s-7.41,1.147-13.125-1.475-.359-5.317-.359-5.317Z" transform="translate(-418.128 -304.711)" fill="#f05e74"/>
        </g>
        <g id="Group_51816" data-name="Group 51816" transform="translate(193.06 122.263)">
          <path id="Path_564065" data-name="Path 564065" d="M460.615,304.711s1.905,3.181-5.658,8.735l.177.649s7.41,1.147,13.125-1.475.359-5.317.359-5.317Z" transform="translate(-454.957 -304.711)" fill="#f05e74"/>
        </g>
        <g id="Group_51817" data-name="Group 51817" transform="translate(183.37 14.668)">
          <path id="Path_564066" data-name="Path 564066" d="M436.074,71.26c1.3.006,2.362-.516,2.365-1.165s-1.051-1.18-2.354-1.186-2.362.516-2.365,1.165S434.771,71.254,436.074,71.26Z" transform="translate(-433.72 -68.909)" fill="#0c2238"/>
        </g>
        <g id="Group_51818" data-name="Group 51818" transform="translate(192.079 16.047)">
          <path id="Path_564067" data-name="Path 564067" d="M454.611,74.42c1.212.479,2.388.377,2.626-.226s-.55-1.482-1.763-1.96-2.388-.377-2.626.226S453.4,73.941,454.611,74.42Z" transform="translate(-452.806 -71.931)" fill="#0c2238"/>
        </g>
        <g id="Group_51819" data-name="Group 51819" transform="translate(199.301 23.197)">
          <path id="Path_564068" data-name="Path 564068" d="M471.23,90.153a2.871,2.871,0,0,0-2.336-1.028l-.261-.591c1.965-1.836,4.3-.555,5.268.38l-.476.491c-.084-.08-1.836-1.738-3.6-.876a3.278,3.278,0,0,1,1.954,1.212Z" transform="translate(-468.633 -87.6)" fill="#0c2238"/>
        </g>
        <g id="Group_51820" data-name="Group 51820" transform="translate(180.248 12.065)">
          <path id="Path_564069" data-name="Path 564069" d="M437.953,90.463a11.087,11.087,0,0,1-10.9-13.044l2.7-14.215.673.127-2.7,14.212a10.4,10.4,0,0,0,8.408,12.074,10.444,10.444,0,0,0,11.48-6.333l.537-1.55.647.224-.543,1.567A11.149,11.149,0,0,1,437.953,90.463Z" transform="translate(-426.878 -63.204)" fill="#0c2238"/>
        </g>
        <g id="Group_51821" data-name="Group 51821" transform="translate(187.509 20.377)">
          <path id="Path_564070" data-name="Path 564070" d="M445.178,87.235l-1.124-.033a1.3,1.3,0,0,1-1.227-1.6l.988-4.183.666.157-.988,4.183a.616.616,0,0,0,.581.758l1.124.033Z" transform="translate(-442.791 -81.42)" fill="#0c2238"/>
        </g>
        <g id="Group_51822" data-name="Group 51822" transform="translate(185.682 37.586)">
          <path id="Path_564071" data-name="Path 564071" d="M443.414,130.386a5.81,5.81,0,0,1-4.524-2.1l-.085-.225-.019-8.929h.684l.019,8.8c3.274,3.588,7.862.774,8.738.182l-.018-8.47h.684l.019,8.649-.14.277A10.376,10.376,0,0,1,443.414,130.386Z" transform="translate(-438.786 -119.135)" fill="#0c2238"/>
        </g>
        <g id="Group_51823" data-name="Group 51823" transform="translate(198.854 29.912)">
          <path id="Path_564072" data-name="Path 564072" d="M467.655,102.317l1.809,3.8.868-2.852Z" transform="translate(-467.655 -102.317)" fill="#0c2238"/>
        </g>
        <g id="Group_51824" data-name="Group 51824" transform="translate(188.449 25.985)">
          <path id="Path_564073" data-name="Path 564073" d="M447.166,100.545a1.363,1.363,0,0,1-.85-.3c-1.194-.926-1.441-3.748-1.465-4.066l.379-.366a3.626,3.626,0,0,0,3.664-2.1l.656.136c0,1.052-.108,6.317-2.127,6.677A1.466,1.466,0,0,1,447.166,100.545ZM445.572,96.5c.118.953.462,2.656,1.164,3.2a.679.679,0,0,0,.568.147c.895-.16,1.382-2.575,1.521-4.752A4.468,4.468,0,0,1,445.572,96.5Z" transform="translate(-444.851 -93.709)" fill="#0c2238"/>
        </g>
        <g id="Group_51825" data-name="Group 51825" transform="translate(188.706 26.816)">
          <path id="Path_564074" data-name="Path 564074" d="M446.67,100.281a4.936,4.936,0,0,1,2.73-1.628l.285-2.487a14.27,14.27,0,0,1-3.536,1.64Z" transform="translate(-445.814 -95.876)" fill="#0c2238"/>
          <path id="Path_564075" data-name="Path 564075" d="M446.537,100.151l-.6-.145-.521-2.474.271-.407a14.012,14.012,0,0,0,3.418-1.594l.523.329-.285,2.487-.288.3A4.591,4.591,0,0,0,446.537,100.151Zm-.383-2.435.32,1.52a5.051,5.051,0,0,1,2.216-1.217l.178-1.549A13.605,13.605,0,0,1,446.153,97.716Z" transform="translate(-445.415 -95.531)" fill="#0c2238"/>
        </g>
        <g id="Group_51826" data-name="Group 51826" transform="translate(191.195 20.913)">
          <path id="Path_564076" data-name="Path 564076" d="M453.669,84.353a2.623,2.623,0,0,0-2.7-1.034l-.1-.678a3.282,3.282,0,0,1,3.391,1.367l-.592.344.3-.172Z" transform="translate(-450.868 -82.594)" fill="#0c2238"/>
        </g>
        <g id="Group_51827" data-name="Group 51827" transform="translate(183.244 19.553)">
          <path id="Path_564077" data-name="Path 564077" d="M433.8,80.719l-.362-.581a3.467,3.467,0,0,1,3.547-.061l-.36.582A2.786,2.786,0,0,0,433.8,80.719Z" transform="translate(-433.443 -79.614)" fill="#0c2238"/>
        </g>
        <g id="Group_51828" data-name="Group 51828" transform="translate(185.736 98.858)">
          <path id="Path_564078" data-name="Path 564078" d="M440.816,255.232c.99-.125,1.742-.627,1.68-1.121s-.916-.791-1.906-.666-1.742.627-1.68,1.12S439.825,255.358,440.816,255.232Z" transform="translate(-438.906 -253.417)" fill="#0c2238"/>
        </g>
        <g id="Group_51829" data-name="Group 51829" transform="translate(192.446 99.16)">
          <path id="Path_564079" data-name="Path 564079" d="M455.158,255.929c.968.243,1.851.048,1.972-.434s-.566-1.07-1.534-1.313-1.851-.048-1.972.434S454.19,255.686,455.158,255.929Z" transform="translate(-453.611 -254.078)" fill="#0c2238"/>
        </g>
        <g id="Group_51830" data-name="Group 51830" transform="translate(198.603 103.683)">
          <path id="Path_564080" data-name="Path 564080" d="M469.243,266.053a2.14,2.14,0,0,0-1.8-.526l-.334-.553a2.972,2.972,0,0,1,4.147-.25l-.407.549a2.726,2.726,0,0,0-2.526-.419,2.54,2.54,0,0,1,1.412.718Z" transform="translate(-467.104 -263.99)" fill="#0c2238"/>
        </g>
        <g id="Group_51831" data-name="Group 51831" transform="translate(184.456 99.37)">
          <path id="Path_564081" data-name="Path 564081" d="M444.671,272.372q-.2,0-.4-.01a8.583,8.583,0,0,1-8.164-8.964l.491-8.86.684.038-.491,8.858a7.89,7.89,0,0,0,15.518,2.351l.252-1.227.67.138-.256,1.244A8.615,8.615,0,0,1,444.671,272.372Z" transform="translate(-436.1 -254.538)" fill="#0c2238"/>
        </g>
        <g id="Group_51832" data-name="Group 51832" transform="translate(189.695 102.935)">
          <path id="Path_564082" data-name="Path 564082" d="M448.656,266.812a1.077,1.077,0,0,1-1.069-1.185l.333-3.275.681.069-.333,3.275a.392.392,0,0,0,.429.429l.857-.087.07.681-.857.087A1,1,0,0,1,448.656,266.812Z" transform="translate(-447.581 -262.352)" fill="#0c2238"/>
        </g>
        <g id="Group_51833" data-name="Group 51833" transform="translate(198.907 109.254)">
          <path id="Path_564083" data-name="Path 564083" d="M467.769,276.2l1.748,2.6.375-2.252Z" transform="translate(-467.769 -276.201)" fill="#0c2238"/>
        </g>
        <g id="Group_51834" data-name="Group 51834" transform="translate(190.777 106.784)">
          <path id="Path_564084" data-name="Path 564084" d="M452.095,276.26a1.153,1.153,0,0,1-.586-.164c-1.029-.6-1.505-2.751-1.556-2.995l.328-.412a2.7,2.7,0,0,0,2.5-1.9l.669.049c.106.81.554,4.875-1,5.369A1.138,1.138,0,0,1,452.095,276.26Zm-1.382-2.927a4.167,4.167,0,0,0,1.142,2.172.447.447,0,0,0,.381.047c.59-.187.72-1.9.637-3.459A3.5,3.5,0,0,1,450.713,273.334Z" transform="translate(-449.953 -270.787)" fill="#0c2238"/>
        </g>
        <g id="Group_51835" data-name="Group 51835" transform="translate(191.335 107.649)">
          <path id="Path_564085" data-name="Path 564085" d="M451.817,276.107a3.78,3.78,0,0,1,1.911-1.508l-.031-1.917a10.933,10.933,0,0,1-2.521,1.6Z" transform="translate(-451.175 -272.682)" fill="#0c2238"/>
        </g>
        <g id="Group_51836" data-name="Group 51836" transform="translate(192.188 103.015)">
          <path id="Path_564086" data-name="Path 564086" d="M455.254,263.857a1.938,1.938,0,0,0-2.051-.569l-.159-.666a2.59,2.59,0,0,1,2.766.836Z" transform="translate(-453.044 -262.528)" fill="#0c2238"/>
        </g>
        <g id="Group_51837" data-name="Group 51837" transform="translate(186.032 102.455)">
          <path id="Path_564087" data-name="Path 564087" d="M439.967,262.4l-.413-.546a2.743,2.743,0,0,1,2.786-.3l-.3.613A2.057,2.057,0,0,0,439.967,262.4Z" transform="translate(-439.554 -261.301)" fill="#0c2238"/>
        </g>
        <g id="Group_51838" data-name="Group 51838" transform="translate(184.959 97.266)">
          <path id="Path_564088" data-name="Path 564088" d="M437.882,252.09l-.68-.079a17.8,17.8,0,0,1,.362-2.083l.666.159A17.128,17.128,0,0,0,437.882,252.09Z" transform="translate(-437.202 -249.928)" fill="#0c2238"/>
        </g>
        <g id="Group_51839" data-name="Group 51839" transform="translate(181.216 46.187)">
          <path id="Path_564089" data-name="Path 564089" d="M429.177,139.971,429,139.31c1.838-.491,4.7-1.318,4.732-1.326l.19.658C433.893,138.65,431.021,139.478,429.177,139.971Z" transform="translate(-429 -137.984)" fill="#0c2238"/>
        </g>
        <g id="Group_51840" data-name="Group 51840" transform="translate(180.676 44.211)">
          <path id="Path_564090" data-name="Path 564090" d="M437.974,148.538c-4.178-2.015-9.385-8.509-10.078-11.708a1.908,1.908,0,0,1,.226-1.668c1.621-1.946,5.27-1.463,5.424-1.441l-.094.678c-.033-.005-3.427-.451-4.8,1.2a1.327,1.327,0,0,0-.083,1.085c.655,3.023,5.786,9.345,9.706,11.236Z" transform="translate(-427.815 -133.653)" fill="#0c2238"/>
        </g>
        <g id="Group_51841" data-name="Group 51841" transform="translate(166.219 50.668)">
          <path id="Path_564091" data-name="Path 564091" d="M413.772,157.138c-8.759,0-16.241-2.983-17.447-5.932a2.548,2.548,0,0,1,.013-1.982,2.667,2.667,0,0,1,1.453-1.419l.254.636a1.979,1.979,0,0,0-1.078,1.052,1.85,1.85,0,0,0-.021,1.425c1.272,3.111,12.327,7.246,24.138,4.8l.139.67A36.869,36.869,0,0,1,413.772,157.138Z" transform="translate(-396.131 -147.805)" fill="#0c2238"/>
        </g>
        <g id="Group_51842" data-name="Group 51842" transform="translate(179.46 49.063)">
          <path id="Path_564092" data-name="Path 564092" d="M431.643,152.26a18.249,18.249,0,0,1-6.492-7.71l.632-.262A17.886,17.886,0,0,0,432,151.679Z" transform="translate(-425.151 -144.288)" fill="#0c2238"/>
        </g>
        <g id="Group_51843" data-name="Group 51843" transform="translate(185.697 121.642)">
          <path id="Path_564093" data-name="Path 564093" d="M445.839,313.386c-2.885-1.391-6.482-5.882-6.962-8.094a1.407,1.407,0,0,1,.177-1.235c.977-1.173,2.52-.635,3.2-.186l-.376.572c-.059-.039-1.468-.943-2.3.053a.848.848,0,0,0-.034.651c.444,2.05,3.927,6.338,6.59,7.622Z" transform="translate(-438.82 -303.349)" fill="#0c2238"/>
        </g>
        <g id="Group_51844" data-name="Group 51844" transform="translate(175.794 121.946)">
          <path id="Path_564094" data-name="Path 564094" d="M429.33,314.376c-6.054,0-11.235-2.078-12.073-4.127a1.854,1.854,0,0,1,.01-1.441,1.936,1.936,0,0,1,1.054-1.029l9.411-3.763.254.635-9.411,3.763a1.246,1.246,0,0,0-.679.663,1.157,1.157,0,0,0-.013.894c.86,2.1,8.375,4.89,16.412,3.224l.139.67A25.251,25.251,0,0,1,429.33,314.376Z" transform="translate(-417.116 -304.015)" fill="#0c2238"/>
        </g>
        <g id="Group_51845" data-name="Group 51845" transform="translate(186.144 122.264)">
          <path id="Path_564095" data-name="Path 564095" d="M442.738,305.145l-.044,1.365-2.484.624s-1.065-2.017.234-2.336A3.085,3.085,0,0,1,442.738,305.145Z" transform="translate(-439.799 -304.711)" fill="#0c2238"/>
        </g>
        <g id="Group_51846" data-name="Group 51846" transform="translate(184.276 88.706)">
          <path id="Path_564096" data-name="Path 564096" d="M454.707,245.632l-.632-.263a14.044,14.044,0,0,0,.679-7.186,7.492,7.492,0,0,0-3.649-4.85,11.088,11.088,0,0,0-8.542-1.067,6.6,6.6,0,0,0-.945.345l-.287.006c-.058-.024-1.507-.591-3.277,1.249-1.614,1.678-2.2,6.788-1.11,9.765l-.643.235c-1.178-3.23-.531-8.613,1.259-10.474s3.394-1.6,3.888-1.456a8.2,8.2,0,0,1,.921-.328,11.8,11.8,0,0,1,9.086,1.136,8.2,8.2,0,0,1,3.967,5.3A14.832,14.832,0,0,1,454.707,245.632Z" transform="translate(-435.706 -231.167)" fill="#0c2238"/>
        </g>
        <g id="Group_51847" data-name="Group 51847" transform="translate(184.975 94.314)">
          <path id="Path_564097" data-name="Path 564097" d="M451.7,252.039c-4.442-1.744-9.049-6.757-10.015-7.846a8.118,8.118,0,0,0-3.8,4.051l-.648-.22c1.018-3,4.254-4.5,4.392-4.567l.4.088c.052.06,5.194,6,9.924,7.857Z" transform="translate(-437.237 -243.457)" fill="#0c2238"/>
        </g>
        <g id="Group_51848" data-name="Group 51848" transform="translate(188.447 115.716)">
          <path id="Path_564098" data-name="Path 564098" d="M448.959,299.439a7.292,7.292,0,0,1-3.966-1.044l-.146-.283.056-7.748.684,0-.054,7.554a8.1,8.1,0,0,0,6.8.189l.054-7.327.684,0-.056,7.561-.216.316A10.424,10.424,0,0,1,448.959,299.439Z" transform="translate(-444.846 -290.363)" fill="#0c2238"/>
        </g>
        <g id="Group_51849" data-name="Group 51849" transform="translate(178.375)">
          <path id="Path_564099" data-name="Path 564099" d="M448.319,58.862s3.709-10.105.8-13.238-5.76,0-5.76,0-2.055-8.155-6.772-7.825a4.082,4.082,0,0,0-2.174.854,3.344,3.344,0,0,0-1.476,2.814s-4.017-6.2-7.611-3.072-1.617,11.867,3.509,10.9c0,0,2.6-.463,3.439-1.256,0,0,2.048,5.472,10.723,3.665,0,0,.351,6.159,1.326,7.482A5.259,5.259,0,0,1,448.319,58.862Z" transform="translate(-423.168 -37.17)" fill="#0c2238"/>
          <path id="Path_564100" data-name="Path 564100" d="M444.1,59.083l-.439-.1c-.894-1.212-1.269-5.808-1.368-7.273-7.16,1.343-9.839-2.309-10.53-3.557a11.228,11.228,0,0,1-3.255,1.072c-2.062.388-3.854-.645-4.915-2.833-1.26-2.6-1.19-6.651,1.122-8.665a3.545,3.545,0,0,1,2.912-.932c2.033.286,3.813,2.232,4.671,3.33a3.992,3.992,0,0,1,1.521-2.154,4.4,4.4,0,0,1,2.357-.923c4.268-.309,6.406,5.66,6.974,7.537a4.563,4.563,0,0,1,2.783-1.106h.015a4.118,4.118,0,0,1,3.034,1.5c3.012,3.249-.58,13.167-.735,13.588l-.444.2A4.919,4.919,0,0,0,444.1,59.083Zm-1.561-8.117.412.316c.09,1.576.458,5.7,1.119,7.058a5.567,5.567,0,0,1,3.645-.318c.585-1.712,3.217-9.928.765-12.573a3.468,3.468,0,0,0-2.533-1.283h-.012a4.191,4.191,0,0,0-2.711,1.281l-.585-.147c-.02-.078-2.058-7.862-6.416-7.567a3.722,3.722,0,0,0-1.99.784,3.025,3.025,0,0,0-1.342,2.525l-.629.2c-.022-.034-2.246-3.423-4.733-3.771a2.854,2.854,0,0,0-2.366.771c-2.067,1.8-2.105,5.478-.955,7.851.915,1.889,2.438,2.786,4.176,2.458a8.755,8.755,0,0,0,3.268-1.169l.555.13C432.284,47.726,434.279,52.686,442.536,50.966Z" transform="translate(-422.772 -36.762)" fill="#0c2238"/>
        </g>
        <g id="Group_51850" data-name="Group 51850" transform="translate(197.347 2.514)">
          <path id="Path_564101" data-name="Path 564101" d="M465.77,48.854l-.348-.087-.1-.282a16.013,16.013,0,0,0-.966-5.972l.641-.24a18.838,18.838,0,0,1,.99,4.26,2.433,2.433,0,0,1,1.7-1.567l.117.674c-1.025.177-1.435,1.757-1.633,2.516C466.047,48.6,466,48.789,465.77,48.854Z" transform="translate(-464.351 -42.272)" fill="#0c2238"/>
        </g>
        <g id="Group_51851" data-name="Group 51851" transform="translate(180.978 9.693)">
          <path id="Path_564102" data-name="Path 564102" d="M430.357,58.755s-2.329,5.682-.276,8.89l1.721-8.89Z" transform="translate(-428.889 -58.413)" fill="#0c2238"/>
          <path id="Path_564103" data-name="Path 564103" d="M429.38,67.422c-2.124-3.32.151-8.966.248-9.2l.317-.213h1.445l.336.407L430,67.3Zm.8-8.733c-.346.937-1.632,4.766-.654,7.481l1.448-7.481Z" transform="translate(-428.477 -58.005)" fill="#0c2238"/>
        </g>
        <g id="Group_51852" data-name="Group 51852" transform="translate(146.091 80.693)">
          <path id="Path_564104" data-name="Path 564104" d="M353.375,218.068l-.105-.676,2.494-.39a6.629,6.629,0,0,1-3.742-3.124l.629-.271c.01.023,1.047,2.3,4.7,3.174l-.026.671Z" transform="translate(-352.021 -213.607)" fill="#0c2238"/>
        </g>
        <g id="Group_51853" data-name="Group 51853" transform="translate(189.085 58.541)">
          <path id="Path_564105" data-name="Path 564105" d="M446.863,175.957l-.618-.293a20.349,20.349,0,0,0,1.56-10.309l.575-.3c.168.16,4.111,3.975,3.985,7.727l-.684-.023c.085-2.532-1.971-5.215-3.084-6.475A20.977,20.977,0,0,1,446.863,175.957Z" transform="translate(-446.245 -165.058)" fill="#0c2238"/>
        </g>
        <g id="Group_51854" data-name="Group 51854" transform="translate(192.209 130.895)">
          <path id="Path_564106" data-name="Path 564106" d="M453.758,333.256l-.667-.156a25.456,25.456,0,0,0,.321-9.164l.579-.308a7.594,7.594,0,0,1,2.071,4.691l-.684.006a6.142,6.142,0,0,0-1.09-3.2A27.2,27.2,0,0,1,453.758,333.256Z" transform="translate(-453.091 -323.629)" fill="#0c2238"/>
        </g>
        <g id="Group_51855" data-name="Group 51855" transform="translate(184.632 89.042)">
          <path id="Path_564107" data-name="Path 564107" d="M436.76,243.166c.022-.109,2.645-5.345,4.6-5.679a64.54,64.54,0,0,0,9.075,8.415,6.266,6.266,0,0,1,4.205-.463c.933-1.631,1.158-4.008.87-6.926a8.509,8.509,0,0,0-6.031-6.065,11.18,11.18,0,0,0-7.59.256,4.179,4.179,0,0,0-4.383,2.256l-.613,1.449c-.862,2.04-.15,4.718.2,6.905Z" transform="translate(-436.485 -231.904)" fill="#0c2238"/>
        </g>
        <g id="Group_51856" data-name="Group 51856" transform="translate(161.613 223.848)">
          <path id="Path_564108" data-name="Path 564108" d="M397.791,528.965a88.5,88.5,0,0,1-11.754-.948l.1-.676c.11.016,11.064,1.68,17.017.528l.13.672A30.055,30.055,0,0,1,397.791,528.965Z" transform="translate(-386.037 -527.341)" fill="#0c2238"/>
        </g>
        <g id="Group_51857" data-name="Group 51857" transform="translate(181.04 44.458)">
          <path id="Path_564109" data-name="Path 564109" d="M433.46,134.43a5.347,5.347,0,0,0-3.482.108c-1.973.7-1.223,2.86-1.223,2.86l4.705-1.143Z" transform="translate(-428.614 -134.196)" fill="#0c2238"/>
        </g>
        <g id="Group_51858" data-name="Group 51858" transform="translate(159.167 134.017)">
          <path id="Path_564110" data-name="Path 564110" d="M393.274,359.467c-.924-1.35-2.38-3.055-4.225-5.215-1.651-1.934-3.707-4.342-5.944-7.167-3.108-4.382-3.231-7.891-.377-10.443.263-.235,7.35-5.565,8.157-6.173l.411.547c-3.143,2.364-7.9,5.948-8.112,6.136-2.587,2.313-2.434,5.428.469,9.521,2.218,2.8,4.269,5.2,5.917,7.132,1.858,2.175,3.325,3.893,4.269,5.272Z" transform="translate(-380.678 -330.47)" fill="#0c2238"/>
        </g>
        <g id="Group_51859" data-name="Group 51859" transform="translate(175.26 172.868)">
          <path id="Path_564111" data-name="Path 564111" d="M447.333,416.336l6.1,27.292s-5.882,5.328-16.354,2.96l-2.523-20.644-1.386,20.568c-10.972,2.177-16.483-2.2-16.483-2.2l4.489-27.489a52.105,52.105,0,0,0,26.158-.491Z" transform="translate(-416.348 -416.007)" fill="#0c2238"/>
          <path id="Path_564112" data-name="Path 564112" d="M441.876,447.138a23.866,23.866,0,0,1-5.276-.608l-.264-.292-2.085-17.057-1.143,16.964-.275.312c-11,2.184-16.532-2.081-16.762-2.263l-.125-.324,4.489-27.489.432-.274a52.231,52.231,0,0,0,25.969-.491l.429.255,6.1,27.291-.1.328C453.209,443.534,449.128,447.138,441.876,447.138Zm-4.89-1.224c9.141,1.98,14.7-2.036,15.664-2.808l-5.973-26.735a53.317,53.317,0,0,1-25.626.49l-4.395,26.909c.965.658,6.287,3.874,15.787,2.065l1.368-20.306.681-.018Z" transform="translate(-415.946 -415.615)" fill="#0c2238"/>
        </g>
        <g id="Group_51860" data-name="Group 51860" transform="translate(197.628 86.133)">
          <circle id="Ellipse_3952" data-name="Ellipse 3952" cx="4.56" cy="4.56" r="4.56" fill="#0c2238"/>
        </g>
        <g id="Group_51861" data-name="Group 51861" transform="translate(185.344 84.816)">
          <circle id="Ellipse_3953" data-name="Ellipse 3953" cx="3.9" cy="3.9" r="3.9" fill="#0c2238"/>
        </g>
        <g id="Group_51862" data-name="Group 51862" transform="translate(202.319 93.007)">
          <path id="Path_564113" data-name="Path 564113" d="M478.116,243.8a4.492,4.492,0,0,1-2.869-.953l.338-.579c.088.029,2.217.689,4.735-1.678l.469.5a6.771,6.771,0,0,1-3.659,1.915,4.836,4.836,0,0,0,2.742-.205l.227.646A5.942,5.942,0,0,1,478.116,243.8Z" transform="translate(-475.247 -240.593)" fill="#0c2238"/>
        </g>
        <g id="Group_51863" data-name="Group 51863" transform="translate(184.115 89.276)">
          <path id="Path_564114" data-name="Path 564114" d="M437.919,234.614a3.692,3.692,0,0,1-2.567-1.874l.6-.322a3,3,0,0,0,2.059,1.519Z" transform="translate(-435.352 -232.417)" fill="#0c2238"/>
        </g>
        <g id="Group_51864" data-name="Group 51864" transform="translate(194.401 93.983)">
          <rect id="Rectangle_23845" data-name="Rectangle 23845" width="3.634" height="0.685" transform="matrix(0.599, -0.8, 0.8, 0.599, 0, 2.909)" fill="#0c2238"/>
        </g>
        <g id="Group_51865" data-name="Group 51865" transform="translate(195.577 96.523)">
          <rect id="Rectangle_23846" data-name="Rectangle 23846" width="2.464" height="0.684" transform="translate(0 1.342) rotate(-32.987)" fill="#0c2238"/>
        </g>
        <g id="Group_51866" data-name="Group 51866" transform="translate(170.582 111.596)">
          <rect id="Rectangle_23847" data-name="Rectangle 23847" width="18.631" height="0.685" transform="translate(0 18.544) rotate(-84.469)" fill="#0c2238"/>
        </g>
        <g id="Group_51867" data-name="Group 51867" transform="translate(161.32 207.618)">
          <rect id="Rectangle_23848" data-name="Rectangle 23848" width="16.626" height="0.684" transform="translate(0 16.531) rotate(-83.872)" fill="#0c2238"/>
        </g>
        <g id="Group_51868" data-name="Group 51868" transform="translate(161.41 227.792)">
          <path id="Path_564115" data-name="Path 564115" d="M389.272,538.237a7.1,7.1,0,0,0-3.68-1.573l.082-.679a7.658,7.658,0,0,1,4.1,1.788Z" transform="translate(-385.592 -535.984)" fill="#0c2238"/>
        </g>
        <g id="Group_51869" data-name="Group 51869" transform="translate(210.878 223.969)">
          <path id="Path_564116" data-name="Path 564116" d="M497.571,530.1a24.747,24.747,0,0,1-3.566-.23l.1-.678c6.505.965,17.514-1.555,17.625-1.581l.154.667A74.83,74.83,0,0,1,497.571,530.1Z" transform="translate(-494.005 -527.607)" fill="#0c2238"/>
        </g>
        <g id="Group_51870" data-name="Group 51870" transform="translate(208.544 111.566)">
          <rect id="Rectangle_23849" data-name="Rectangle 23849" width="0.685" height="18.057" transform="matrix(0.983, -0.183, 0.183, 0.983, 0, 0.125)" fill="#0c2238"/>
        </g>
        <g id="Group_51871" data-name="Group 51871" transform="translate(224.895 204.403)">
          <rect id="Rectangle_23850" data-name="Rectangle 23850" width="0.685" height="20.138" transform="translate(0 0.117) rotate(-9.855)" fill="#0c2238"/>
        </g>
        <g id="Group_51872" data-name="Group 51872" transform="translate(225.203 227.792)">
          <path id="Path_564117" data-name="Path 564117" d="M525.9,538.237l-.5-.465a7.657,7.657,0,0,1,4.1-1.788l.082.679A7.1,7.1,0,0,0,525.9,538.237Z" transform="translate(-525.399 -535.984)" fill="#0c2238"/>
        </g>
        <g id="Group_51873" data-name="Group 51873" transform="translate(177.685 235.385)">
          <path id="Path_564118" data-name="Path 564118" d="M423.522,554.316a5.364,5.364,0,0,0-2.262-1.022l.142-.669a6.114,6.114,0,0,1,2.613,1.216Z" transform="translate(-421.26 -552.625)" fill="#0c2238"/>
        </g>
        <g id="Group_51874" data-name="Group 51874" transform="translate(209.83 235.387)">
          <path id="Path_564119" data-name="Path 564119" d="M492.268,554.279l-.559-.395a4.361,4.361,0,0,1,2.245-1.255l.158.666A3.751,3.751,0,0,0,492.268,554.279Z" transform="translate(-491.709 -552.629)" fill="#0c2238"/>
        </g>
        <g id="Group_51875" data-name="Group 51875" transform="translate(152.36 152.456)">
          <path id="Path_564120" data-name="Path 564120" d="M366.384,400.829l-.626-.277c5.881-13.354,10.846-29.51,10.9-29.671l.654.2C377.258,371.243,372.282,387.438,366.384,400.829Z" transform="translate(-365.758 -370.881)" fill="#0c2238"/>
        </g>
        <g id="Group_51876" data-name="Group 51876" transform="translate(192.046 121.636)">
          <path id="Path_564121" data-name="Path 564121" d="M453.03,313.379l-.3-.617c2.662-1.283,6.146-5.571,6.591-7.622a.853.853,0,0,0-.034-.651c-.829-.994-2.2-.11-2.261-.072l-.377-.571a2.388,2.388,0,0,1,3.164.2,1.407,1.407,0,0,1,.177,1.235C459.513,307.5,455.915,311.988,453.03,313.379Z" transform="translate(-452.733 -303.337)" fill="#0c2238"/>
        </g>
        <g id="Group_51877" data-name="Group 51877" transform="translate(191.948 121.946)">
          <path id="Path_564122" data-name="Path 564122" d="M457.619,314.376a25.244,25.244,0,0,1-5.1-.512l.139-.67c8.037,1.664,15.552-1.121,16.4-3.2a1.171,1.171,0,0,0,0-.914,1.251,1.251,0,0,0-.68-.663l-9.411-3.763.254-.635,9.411,3.763a1.936,1.936,0,0,1,1.055,1.029,1.838,1.838,0,0,1,.019,1.418C468.86,312.293,463.674,314.376,457.619,314.376Z" transform="translate(-452.519 -304.015)" fill="#0c2238"/>
        </g>
        <g id="Group_51878" data-name="Group 51878" transform="translate(196.327 122.248)">
          <path id="Path_564123" data-name="Path 564123" d="M462.287,304.993l-.172,1.442,2.178.68s1.066-2.017-.234-2.336S462.287,304.993,462.287,304.993Z" transform="translate(-462.115 -304.678)" fill="#0c2238"/>
        </g>
        <g id="Group_51879" data-name="Group 51879" transform="translate(167.913 127.713)">
          <path id="Path_564124" data-name="Path 564124" d="M423.408,364.075c-9.245,0-14.7-2.213-14.779-2.247l-.206-.366,5.106-34.253-3.3,4.03-.354.113c-6.6-1.784-9.889-10.463-10.026-10.832l.186-.433,8.01-3.431.269.629-7.7,3.3c.637,1.531,3.772,8.419,9.23,10.047l3.948-4.816.6.267L409.14,361.29c1.83.67,13.662,4.531,31.286-.267l-5.49-34.938.614-.256,3.548,4.8c5.455-1.636,8.582-8.514,9.218-10.043l-7.7-3.3.269-.629,8.009,3.431.186.433c-.137.369-3.425,9.048-10.026,10.832l-.364-.126-2.859-3.867,5.32,33.861-.247.383A65.564,65.564,0,0,1,423.408,364.075Z" transform="translate(-399.844 -316.655)" fill="#0c2238"/>
        </g>
        <g id="Group_51880" data-name="Group 51880" transform="translate(209.362 203.835)">
          <path id="Path_564125" data-name="Path 564125" d="M490.749,492.111l-.067-.681c4.714-.459,11.342-2.212,16.153-7.947l.524.44C502.4,489.834,495.589,491.638,490.749,492.111Z" transform="translate(-490.682 -483.482)" fill="#0c2238"/>
        </g>
        <g id="Group_51881" data-name="Group 51881" transform="translate(221.579 152.876)">
          <path id="Path_564126" data-name="Path 564126" d="M527.616,400.4c-5.569-13.046-10.112-28.252-10.158-28.4l.656-.195c.045.151,4.578,15.321,10.131,28.33Z" transform="translate(-517.458 -371.801)" fill="#0c2238"/>
        </g>
        <g id="Group_51882" data-name="Group 51882" transform="translate(172.491 111.287)">
          <rect id="Rectangle_23851" data-name="Rectangle 23851" width="12.871" height="0.684" fill="#0c2238"/>
        </g>
        <g id="Group_51883" data-name="Group 51883" transform="translate(200.698 71.471)">
          <path id="Path_564127" data-name="Path 564127" d="M479.877,233.9H471.7v-.684h7.861L482,193.654l.539-.259,17.8,12.523.016.548L483.39,220c2.805,9.515,8.215,12.018,9.056,12.355,1.257-.516,11.938-5.011,19.835-11.8l.446.519c-8.449,7.26-20.033,11.917-20.149,11.963l-.231.008c-.266-.086-6.56-2.226-9.678-13.078l.115-.362,16.787-13.392-16.923-11.908-2.429,39.267Z" transform="translate(-471.695 -193.395)" fill="#0c2238"/>
        </g>
        <g id="Group_51884" data-name="Group 51884" transform="translate(195.459 46.187)">
          <path id="Path_564128" data-name="Path 564128" d="M464.959,139.971c-1.845-.493-4.716-1.321-4.745-1.329l.19-.658c.028.008,2.894.835,4.732,1.326Z" transform="translate(-460.214 -137.984)" fill="#0c2238"/>
        </g>
        <g id="Group_51885" data-name="Group 51885" transform="translate(190.465 44.211)">
          <path id="Path_564129" data-name="Path 564129" d="M449.567,148.539l-.3-.616c3.92-1.89,9.051-8.212,9.707-11.236a1.327,1.327,0,0,0-.083-1.085c-1.38-1.656-4.77-1.207-4.8-1.2l-.094-.678c.155-.021,3.8-.5,5.424,1.441a1.908,1.908,0,0,1,.226,1.668C458.952,140.029,453.744,146.524,449.567,148.539Z" transform="translate(-449.269 -133.654)" fill="#0c2238"/>
        </g>
        <g id="Group_51886" data-name="Group 51886" transform="translate(190.286 50.668)">
          <path id="Path_564130" data-name="Path 564130" d="M456.323,157.137a36.82,36.82,0,0,1-7.446-.747l.139-.67c11.813,2.446,22.866-1.69,24.126-4.772a1.865,1.865,0,0,0-.009-1.454,1.981,1.981,0,0,0-1.078-1.052l.254-.636a2.667,2.667,0,0,1,1.454,1.419,2.525,2.525,0,0,1,.026,1.949C472.572,154.148,465.084,157.137,456.323,157.137Z" transform="translate(-448.877 -147.805)" fill="#0c2238"/>
        </g>
        <g id="Group_51887" data-name="Group 51887" transform="translate(195.283 49.063)">
          <path id="Path_564131" data-name="Path 564131" d="M460.19,152.26l-.362-.581a17.893,17.893,0,0,0,6.222-7.391l.632.262A18.249,18.249,0,0,1,460.19,152.26Z" transform="translate(-459.828 -144.288)" fill="#0c2238"/>
        </g>
        <g id="Group_51888" data-name="Group 51888" transform="translate(230.18 80.693)">
          <path id="Path_564132" data-name="Path 564132" d="M540.279,218.068l-3.946-.616-.026-.671c3.65-.869,4.687-3.151,4.7-3.174l.628.271A6.625,6.625,0,0,1,537.89,217l2.495.39Z" transform="translate(-536.307 -213.607)" fill="#0c2238"/>
        </g>
        <g id="Group_51889" data-name="Group 51889" transform="translate(195.711 44.458)">
          <path id="Path_564133" data-name="Path 564133" d="M460.767,134.43a5.346,5.346,0,0,1,3.482.108c1.973.7,1.223,2.86,1.223,2.86l-4.705-1.143Z" transform="translate(-460.767 -134.196)" fill="#0c2238"/>
        </g>
        <g id="Group_51890" data-name="Group 51890" transform="translate(193.247 116.599)">
          <path id="Path_564134" data-name="Path 564134" d="M455.365,292.56c.033,0,2.843,2.273,2.843,2.273l-.131-2.535Z" transform="translate(-455.365 -292.298)" fill="#0c2238"/>
        </g>
        <g id="Group_51891" data-name="Group 51891" transform="translate(190.983 38.124)">
          <path id="Path_564135" data-name="Path 564135" d="M450.4,121.319l4.571-1.006-.088,4.365Z" transform="translate(-450.405 -120.314)" fill="#0c2238"/>
        </g>
        <g id="Group_51892" data-name="Group 51892" transform="translate(171.094 111.767)">
          <path id="Path_564136" data-name="Path 564136" d="M408.549,281.708H421.14a7.072,7.072,0,0,0,3.525,4.1l-.1,6.395s-.541-.924-4.691.953-7.307,2.956-7.307,2.956a2.627,2.627,0,0,0-.851,1.856l-4.9,2.145Z" transform="translate(-406.816 -281.708)" fill="#0c2238"/>
        </g>
        <g id="Group_51893" data-name="Group 51893" transform="translate(195.869 111.857)">
          <path id="Path_564137" data-name="Path 564137" d="M474.167,281.914,465.9,281.9s-2.02,3.316-4.786,4.5l.292,6.236a6.805,6.805,0,0,1,4.869.671,54.73,54.73,0,0,0,7.362,3.042l.863,1.908,3.146,1.348Z" transform="translate(-461.112 -281.905)" fill="#0c2238"/>
        </g>
        <g id="Group_51894" data-name="Group 51894" transform="translate(161.864 207.926)">
          <path id="Path_564138" data-name="Path 564138" d="M388.279,492.447,386.587,508.4a38.479,38.479,0,0,0,10.933,1.243c7.028-.023,6.177-.73,6.177-.73l.871-12.181S394.694,497.291,388.279,492.447Z" transform="translate(-386.587 -492.447)" fill="#0c2238"/>
        </g>
        <g id="Group_51895" data-name="Group 51895" transform="translate(209.395 204.462)">
          <path id="Path_564139" data-name="Path 564139" d="M490.755,492.635s6.708-1.145,10.25-3.173a23.282,23.282,0,0,0,5.712-4.606l3.143,19.881a53.389,53.389,0,0,1-17.793,1.545Z" transform="translate(-490.755 -484.856)" fill="#0c2238"/>
        </g>
        <g id="Group_51896" data-name="Group 51896" transform="translate(201.435 174.462)">
          <path id="Path_564140" data-name="Path 564140" d="M478.719,422.746a9.218,9.218,0,0,1-5.408-3.227l.548-.412a8.671,8.671,0,0,0,4.978,2.964Z" transform="translate(-473.311 -419.108)" fill="#0c2238"/>
        </g>
        <g id="Group_51897" data-name="Group 51897" transform="translate(179.391 174.462)">
          <path id="Path_564141" data-name="Path 564141" d="M425.117,422.747l-.118-.675a8.638,8.638,0,0,0,4.979-2.963l.548.411A9.218,9.218,0,0,1,425.117,422.747Z" transform="translate(-424.999 -419.109)" fill="#0c2238"/>
        </g>
        <g id="Group_51898" data-name="Group 51898" transform="translate(162.285 109.445)">
          <path id="Path_564142" data-name="Path 564142" d="M395.941,282.039c-3.546,0-7.07-3.156-8.431-5.017l.553-.4c1.876,2.566,6.236,5.742,9.638,4.411l.249.638A5.483,5.483,0,0,1,395.941,282.039Z" transform="translate(-387.51 -276.618)" fill="#0c2238"/>
        </g>
        <g id="Group_51899" data-name="Group 51899" transform="translate(168.264 101.382)">
          <path id="Path_564143" data-name="Path 564143" d="M404.263,261.747a2.008,2.008,0,0,0-1.624-1.858,10.029,10.029,0,0,1-2.026-.282l.192-.657a9.607,9.607,0,0,0,1.875.256,2.673,2.673,0,0,1,2.264,2.47Z" transform="translate(-400.613 -258.949)" fill="#0c2238"/>
        </g>
        <g id="Group_51900" data-name="Group 51900" transform="translate(213.381 133.72)">
          <path id="Path_564144" data-name="Path 564144" d="M500.055,359.139l-.565-.387c.944-1.379,2.411-3.1,4.269-5.271,1.648-1.93,3.7-4.332,5.929-7.148,2.892-4.079,3.045-7.194.457-9.508-.223-.193-5.265-3.968-8.6-6.458l.41-.548c.856.64,8.383,6.261,8.645,6.5,2.854,2.552,2.73,6.06-.366,10.428-2.248,2.84-4.3,5.248-5.956,7.182C502.435,356.085,500.979,357.79,500.055,359.139Z" transform="translate(-499.49 -329.819)" fill="#0c2238"/>
        </g>
        <g id="Group_51901" data-name="Group 51901" transform="translate(207.816 162.645)">
          <path id="Path_564145" data-name="Path 564145" d="M488.583,397.433a3.517,3.517,0,0,1-1.289-.256l.25-.637c2.276.889,3.9-1.357,5.08-3l.241-.333.553.4-.24.33C492.141,395.382,490.661,397.433,488.583,397.433Z" transform="translate(-487.294 -393.21)" fill="#0c2238"/>
        </g>
        <g id="Group_51902" data-name="Group 51902" transform="translate(206.465 140.244)">
          <path id="Path_564146" data-name="Path 564146" d="M485.015,362.863l-.681-.07a1.992,1.992,0,0,1,1.7-1.837,7.729,7.729,0,0,0,1.2-.151l7.654-10.764-6.676-5.388.43-.533,6.926,5.59.064.465-7.915,11.13-.183.13a7.143,7.143,0,0,1-1.456.2A1.317,1.317,0,0,0,485.015,362.863Z" transform="translate(-484.334 -344.118)" fill="#0c2238"/>
        </g>
        <g id="Group_51903" data-name="Group 51903" transform="translate(208.874 109.445)">
          <path id="Path_564147" data-name="Path 564147" d="M491.623,282.039a5.477,5.477,0,0,1-2.009-.372l.25-.637c3.4,1.329,7.762-1.847,9.638-4.412l.553.4C498.693,278.883,495.168,282.039,491.623,282.039Z" transform="translate(-489.614 -276.618)" fill="#0c2238"/>
        </g>
        <g id="Group_51904" data-name="Group 51904" transform="translate(209.004 101.382)">
          <path id="Path_564148" data-name="Path 564148" d="M490.58,261.747l-.681-.071a2.674,2.674,0,0,1,2.264-2.47,9.606,9.606,0,0,0,1.875-.256l.192.657a10.045,10.045,0,0,1-2.027.282A2.008,2.008,0,0,0,490.58,261.747Z" transform="translate(-489.899 -258.949)" fill="#0c2238"/>
        </g>
        <g id="Group_51905" data-name="Group 51905" transform="translate(172.491 105.905)">
          <rect id="Rectangle_23852" data-name="Rectangle 23852" width="12.307" height="0.684" transform="translate(0 0)" fill="#0c2238"/>
        </g>
        <g id="Group_51906" data-name="Group 51906" transform="translate(204.381 105.905)">
          <rect id="Rectangle_23853" data-name="Rectangle 23853" width="4.779" height="0.684" transform="translate(0 0)" fill="#0c2238"/>
        </g>
        <g id="Group_51907" data-name="Group 51907" transform="translate(0 243.984)">
          <rect id="Rectangle_23854" data-name="Rectangle 23854" width="384.025" height="0.684" fill="#fff"/>
        </g>
        <g id="Group_51908" data-name="Group 51908" transform="translate(157.29 102.43)">
          <path id="Path_564149" data-name="Path 564149" d="M376.838,268.524l-.275-.627a15.382,15.382,0,0,0,7.143-6.654l.617.3A15.825,15.825,0,0,1,376.838,268.524Z" transform="translate(-376.563 -261.244)" fill="#0c2238"/>
        </g>
        <g id="Group_51909" data-name="Group 51909" transform="translate(216.678 102.43)">
          <path id="Path_564150" data-name="Path 564150" d="M514.2,268.524a15.825,15.825,0,0,1-7.485-6.985l.617-.3a15.422,15.422,0,0,0,7.143,6.654Z" transform="translate(-506.716 -261.244)" fill="#0c2238"/>
        </g>
        <g id="Group_51910" data-name="Group 51910" transform="translate(167.955 134.123)">
          <path id="Path_564151" data-name="Path 564151" d="M408.586,363.421c-2.077,0-3.558-2.051-4.6-3.489l-.24-.33.553-.4.242.334c1.152,1.6,2.717,3.765,4.9,3.062l1.1-7.093a1.309,1.309,0,0,0-1.05-1.183,7.162,7.162,0,0,1-1.456-.2l-.182-.13-7.916-11.13.064-.465,6.4-5.166a19.206,19.206,0,0,1-5.147-6.2l.607-.315.532.951a18.955,18.955,0,0,0,4.766,5.284l.012.542-6.491,5.239,7.656,10.764a7.717,7.717,0,0,0,1.195.151,1.994,1.994,0,0,1,1.7,1.837l0,.088-1.135,7.34-.214.266A3.52,3.52,0,0,1,408.586,363.421Z" transform="translate(-399.936 -330.703)" fill="#0c2238"/>
        </g>
        <g id="Group_51911" data-name="Group 51911" transform="translate(159.123 134.174)">
          <path id="Path_564152" data-name="Path 564152" d="M398,363.427a4.278,4.278,0,0,1-1.319-.2c-1.206-.392-2.3-1.939-3.265-3.3-.149-.21-.3-.417-.438-.614-.27-.374-1.074-1.314-2.092-2.506-2.876-3.368-7.69-9-9.448-12.267a6.141,6.141,0,0,1,1.25-7.716l7.97-6.005.412.546-7.961,6a5.38,5.38,0,0,0-1.069,6.853c1.723,3.2,6.508,8.8,9.366,12.147,1.068,1.25,1.839,2.153,2.125,2.548.144.2.292.408.442.621.9,1.278,1.927,2.726,2.917,3.048a3.912,3.912,0,0,0,2.224.01l.224.646A4.4,4.4,0,0,1,398,363.427Z" transform="translate(-380.582 -330.814)" fill="#0c2238"/>
        </g>
        <g id="Group_51912" data-name="Group 51912" transform="translate(159.124 134.036)">
          <path id="Path_564153" data-name="Path 564153" d="M400.765,355.706a1.654,1.654,0,0,0-1.375-1.531,6.845,6.845,0,0,1-1.38-.191l-7.916-11.13,6.742-5.441a19.042,19.042,0,0,1-5.394-6.343l-.174.156-7.961,6a5.758,5.758,0,0,0-1.164,7.288c2.377,4.411,10.476,13.3,11.515,14.733.084.116.17.237.256.359l-.008-.005.2.282c.933,1.32,1.984,2.8,3.078,3.157a3.725,3.725,0,0,0,.508.125,2.958,2.958,0,0,0,1.867-.1l.066-.021Z" transform="translate(-380.984 -330.814)" fill="#ffd380"/>
          <path id="Path_564154" data-name="Path 564154" d="M398.073,363.309a3.227,3.227,0,0,1-.871-.12,3.834,3.834,0,0,1-.521-.129c-1.206-.391-2.293-1.929-3.252-3.286l-.2-.277,0,0-.252-.352c-.27-.373-1.074-1.314-2.091-2.5-2.876-3.368-7.691-9.005-9.448-12.267a6.141,6.141,0,0,1,1.25-7.716l8.122-6.144.538.107a18.857,18.857,0,0,0,5.288,6.216l.012.542-6.491,5.239,7.656,10.764a7.722,7.722,0,0,0,1.195.151,1.994,1.994,0,0,1,1.7,1.838l0,.088-1.135,7.339-.229.272-.076.024A3.415,3.415,0,0,1,398.073,363.309Zm-4.284-4.2.2.271c.9,1.272,1.917,2.711,2.907,3.032a3.317,3.317,0,0,0,.461.113,2.622,2.622,0,0,0,1.568-.038l1.1-7.088a1.309,1.309,0,0,0-1.05-1.184,7.163,7.163,0,0,1-1.456-.2l-.182-.13-7.916-11.13.064-.465,6.4-5.166a19.525,19.525,0,0,1-4.947-5.818l-7.82,5.893a5.38,5.38,0,0,0-1.069,6.853c1.723,3.2,6.508,8.8,9.367,12.147,1.067,1.25,1.838,2.153,2.125,2.548q.127.177.259.362Z" transform="translate(-380.582 -330.511)" fill="#0c2238"/>
        </g>
        <g id="Group_51913" data-name="Group 51913" transform="translate(139.824 71.471)">
          <path id="Path_564155" data-name="Path 564155" d="M370.837,233.574l-2.429-39.267-16.923,11.908,16.787,13.392.115.362c-3.118,10.852-9.411,12.992-9.678,13.078l-.231-.008c-.117-.047-11.739-4.719-20.192-12l.447-.519c7.9,6.806,18.618,11.317,19.877,11.833.842-.337,6.251-2.84,9.057-12.355L350.7,206.466l.016-.548,17.8-12.523.538.259,2.467,39.878Z" transform="translate(-338.286 -193.395)" fill="#0c2238"/>
        </g>
        <g id="Group_51914" data-name="Group 51914" transform="translate(127.303 42.147)">
          <rect id="Rectangle_23855" data-name="Rectangle 23855" width="0.684" height="12.773" transform="translate(0 0.588) rotate(-59.185)" fill="#fff"/>
        </g>
        <g id="Group_51915" data-name="Group 51915" transform="translate(115.344 65.925)">
          <rect id="Rectangle_23856" data-name="Rectangle 23856" width="0.685" height="12.585" transform="translate(0 0.67) rotate(-78.245)" fill="#fff"/>
        </g>
        <g id="Group_51916" data-name="Group 51916" transform="translate(113.295 91.958)">
          <rect id="Rectangle_23857" data-name="Rectangle 23857" width="12.583" height="0.684" transform="matrix(0.98, -0.197, 0.197, 0.98, 0, 2.474)" fill="#fff"/>
        </g>
        <g id="Group_51917" data-name="Group 51917" transform="translate(241.762 42.149)">
          <rect id="Rectangle_23858" data-name="Rectangle 23858" width="12.773" height="0.684" transform="matrix(0.859, -0.512, 0.512, 0.859, 0, 6.539)" fill="#fff"/>
        </g>
        <g id="Group_51918" data-name="Group 51918" transform="translate(252.581 65.928)">
          <rect id="Rectangle_23859" data-name="Rectangle 23859" width="12.585" height="0.684" transform="translate(0 2.557) rotate(-11.72)" fill="#fff"/>
        </g>
        <g id="Group_51919" data-name="Group 51919" transform="translate(254.62 91.957)">
          <rect id="Rectangle_23860" data-name="Rectangle 23860" width="0.684" height="12.583" transform="translate(0 0.671) rotate(-78.653)" fill="#fff"/>
        </g>
        <g id="Group_51920" data-name="Group 51920" transform="translate(145.481 125.906)">
          <rect id="Rectangle_23861" data-name="Rectangle 23861" width="0.684" height="8.526" transform="translate(0 0.658) rotate(-74.043)" fill="#fff"/>
        </g>
        <g id="Group_51921" data-name="Group 51921" transform="translate(141.002 142.122)">
          <rect id="Rectangle_23862" data-name="Rectangle 23862" width="8.526" height="0.684" transform="translate(0 0.316) rotate(-2.125)" fill="#fff"/>
        </g>
        <g id="Group_51922" data-name="Group 51922" transform="translate(143.616 156.933)">
          <rect id="Rectangle_23863" data-name="Rectangle 23863" width="8.526" height="0.684" transform="translate(0 3.43) rotate(-23.726)" fill="#fff"/>
        </g>
        <g id="Group_51923" data-name="Group 51923" transform="translate(229.645 125.85)">
          <rect id="Rectangle_23864" data-name="Rectangle 23864" width="8.526" height="0.684" transform="matrix(0.952, -0.306, 0.306, 0.952, 0, 2.609)" fill="#fff"/>
        </g>
        <g id="Group_51924" data-name="Group 51924" transform="translate(234.436 142.182)">
          <rect id="Rectangle_23865" data-name="Rectangle 23865" width="0.684" height="8.526" transform="translate(0 0.684) rotate(-89.728)" fill="#fff"/>
        </g>
        <g id="Group_51925" data-name="Group 51925" transform="translate(232.768 157.049)">
          <rect id="Rectangle_23866" data-name="Rectangle 23866" width="0.685" height="8.526" transform="translate(0 0.635) rotate(-68.16)" fill="#fff"/>
        </g>
      </g>
    </g>
  </g>
</svg>
