<?xml version="1.0" encoding="UTF-8" standalone="no"?>
<!DOCTYPE svg PUBLIC "-//W3C//DTD SVG 1.1//EN" "http://www.w3.org/Graphics/SVG/1.1/DTD/svg11.dtd">
<svg width="100%" height="100%" viewBox="0 0 375 520" version="1.1" xmlns="http://www.w3.org/2000/svg" xmlns:xlink="http://www.w3.org/1999/xlink" xml:space="preserve" xmlns:serif="http://www.serif.com/" style="fill-rule:evenodd;clip-rule:evenodd;stroke-linejoin:round;stroke-miterlimit:2;">
    <g transform="matrix(1,0,0,1,-752.97,-211.515)">
        <g id="Mask_Group_163">
            <g id="Character">
                <g id="Path_302691" transform="matrix(1,0,0,1,277.917,217.254)">
                    <path d="M490.618,560.883C489.31,560.942 488.003,560.74 486.774,560.288C484.505,559.523 468.674,554.465 456.189,554.324C443.704,554.183 447.399,552.13 447.399,552.13C447.399,552.13 446.599,522.062 447.718,519.596C448.837,517.13 461.943,479.518 499.904,457.639C537.865,435.76 575.719,430.939 621.922,437.397C668.125,443.855 754.414,478.38 791.322,480.616C828.23,482.852 825.605,483.937 844.422,482.316L849.291,483.127L931.864,517.251C931.864,517.251 949.149,534.233 963.644,542.605L980.2,554.034L998.113,565.9C998.113,565.9 891.039,565.574 872.386,565.9C848.678,566.315 791.728,557.287 791.728,557.287C791.728,557.287 733.988,545.012 703.784,537.179C673.58,529.346 618.337,516.532 586.606,517.926C555.606,519.289 548.606,519.15 519.583,533.011C519.583,533.012 499.2,544.789 490.618,560.883Z" style="fill:white;fill-rule:nonzero;"/>
                </g>
                <g id="Path_302692" transform="matrix(1,0,0,1,291.497,237.829)">
                    <path d="M468.159,526.4C468.159,526.4 490.266,462.373 570.621,467.243C650.976,472.113 741.272,525.6 846,535.67C846,535.67 750.559,524.27 670.448,501.323C590.337,478.376 523.37,457.717 468.159,526.4Z" style="fill:rgb(12,34,56);fill-rule:nonzero;"/>
                </g>
                <g transform="matrix(1,0,0,1,65.011,224.583)">
                    <g id="Group_40802">
                        <path id="Path_302695" d="M1211.88,559.807L1090.3,559.807C1022.99,557.667 969.37,544.164 922.062,532.248C883.598,522.56 847.268,513.411 809.211,511.648C725.606,507.801 704.416,554.885 704.211,555.362L703.164,555.804C656.686,537.99 618.125,554.828 617.742,554.998L616.747,554.738C616.187,553.981 615.61,553.183 615.007,552.351C605.583,539.314 589.807,517.496 535.201,510.851C497.108,506.219 454.992,517.26 410.401,528.951C386.43,535.234 361.643,541.734 335.708,546.374C261.486,559.653 115.169,555.9 113.703,555.86L113.38,554.297C153.745,535.665 173.656,509.032 173.851,508.766L174.503,508.432L249.503,507.642C298.484,505.157 339.662,490.642 379.483,476.609C429.714,458.909 477.161,442.177 539.313,447.1C597.953,451.737 627.95,478.437 642.787,500.02C651.253,512.352 657.187,526.241 660.247,540.883C668,494.8 707.277,460.745 766.46,449.237C822.152,438.419 928.036,471.021 991.306,490.505L995.806,491.891C1056.56,510.582 1143.9,509.797 1144.77,509.782L1145.32,509.99C1168.68,530.79 1211.88,558.021 1212.32,558.29L1211.88,559.807ZM799.6,509.785C802.738,509.785 805.955,509.859 809.286,510.013C847.506,511.781 883.915,520.951 922.459,530.66C969.687,542.555 1023.22,556.035 1090.32,558.169L1209.07,558.169C1199.68,552.159 1164.79,529.45 1144.47,511.424C1138.6,511.444 1054.47,511.653 995.323,493.456L990.823,492.071C927.702,472.633 822.057,440.093 766.773,450.846C706.226,462.618 666.787,498.177 661.173,546.017C675.488,546.248 689.655,548.952 703.049,554.009C705.958,548.259 728.156,509.785 799.6,509.785ZM117.207,554.3C139.841,554.778 267.737,556.871 335.423,544.76C361.292,540.131 386.048,533.642 409.988,527.367C454.735,515.637 497,504.557 535.4,509.228C590.717,515.955 606.754,538.136 616.337,551.39C616.799,552.031 617.248,552.652 617.685,553.246C620.94,551.928 636.819,546 659.1,546L659.441,546C659.049,542.781 656.046,522.163 641.391,500.884C626.752,479.623 597.135,453.318 539.183,448.734C477.37,443.852 430.089,460.511 380.028,478.156C340.096,492.23 298.805,506.782 249.553,509.281L174.921,510.067C172.553,513.126 153.492,536.736 117.207,554.3Z" style="fill:rgb(12,34,56);fill-rule:nonzero;"/>
                    </g>
                </g>
                <g transform="matrix(1,0,0,1,286.067,232.067)">
                    <g id="Group_40803">
                        <path id="Path_302696" d="M461.245,527.974L459.654,527.581C459.81,526.952 476.254,464.59 565.846,457.951L565.967,459.586C477.609,466.131 461.4,527.358 461.245,527.974Z" style="fill:rgb(12,34,56);fill-rule:nonzero;"/>
                    </g>
                </g>
                <g transform="matrix(1,0,0,1,277.81,216.91)">
                    <g id="Group_40808">
                        <path id="Path_302699" d="M448.3,522.456L446.719,522.028C446.773,521.828 452.463,501.373 471.55,480.49C489.145,461.237 522.063,437.628 578.956,434.49C620.096,432.224 657.263,444.045 696.591,456.564C741.801,470.957 788.549,485.847 847.08,481.679L847.195,483.314C788.355,487.495 741.453,472.566 696.095,458.127C656.915,445.652 619.915,433.866 579.045,436.127C522.706,439.235 490.145,462.569 472.759,481.597C453.939,502.187 448.355,522.256 448.3,522.456Z" style="fill:rgb(12,34,56);fill-rule:nonzero;"/>
                    </g>
                </g>
                <g id="Path_302701" transform="matrix(1,0,0,1,308.78,182.39)">
                    <path d="M768.028,508.4L769.016,506.858C769.016,506.858 771.036,489.866 770.397,478.175C769.758,466.484 768.125,443.069 766.019,440.675L769.145,404.193C769.145,404.193 768.245,384.465 748.355,380.71C728.465,376.955 720.069,392.9 720.069,392.9L717.023,399.783L707.4,435.621L691.032,495.508L621.415,483.566C621.415,483.566 602.542,478.966 593.815,499.172C585.088,519.378 602.535,533.144 605.728,533.786C608.921,534.428 646.347,540.228 646.347,540.228L666.496,543.747L736.496,523.108L768.028,508.4Z" style="fill:rgb(190,174,242);fill-rule:nonzero;"/>
                </g>
                <g id="Path_302705" transform="matrix(1,0,0,1,308.694,182.39)">
                    <path d="M766.106,440.672L769.232,404.19C769.232,404.19 768.332,384.462 748.442,380.707C728.552,376.952 720.155,392.9 720.155,392.9L717.109,399.783L707.487,435.626L691.12,495.508L638.59,486.5L621.5,483.565C621.5,483.565 602.627,478.965 593.9,499.171C585.173,519.377 600.426,532.661 605.813,533.785C609.001,534.45 646.432,540.227 646.432,540.227L666.581,543.746L693.852,535.705L736.58,523.105L768.114,508.4C768.114,508.4 768.211,443.064 766.106,440.672Z" style="fill:rgb(70,206,172);fill-rule:nonzero;"/>
                </g>
                <g id="Path_302706" transform="matrix(1,0,0,1,335.289,229.895)">
                    <path d="M663.784,454.549L662.301,457.369L661.007,464.357C651.146,465.992 642.661,472.297 638.25,481.267C630.784,496.484 633.35,500.159 633.35,500.159L702.408,507.805L704.081,506.876L714.948,465L663.784,454.549Z" style="fill:rgb(251,131,111);fill-rule:nonzero;"/>
                </g>
                <g id="Path_302707" transform="matrix(1,0,0,1,363.502,230.737)">
                    <path d="M685.52,471.1L677.12,502.742L682.386,503.386C682.386,503.386 682.65,516.116 691.8,521.046C700.95,525.976 711.454,527.069 717,526.487C722.546,525.905 723.1,525.201 723.1,525.201L720.731,461.376L689.477,455.869L677.118,502.2L685.52,471.1Z" style="fill:rgb(251,131,111);fill-rule:nonzero;"/>
                </g>
                <g id="Path_302708" transform="matrix(1,0,0,1,278.563,147.008)">
                    <path d="M671.288,430.324L667.435,425.453C667.435,425.453 654.541,402.116 645.861,388.919C637.181,375.722 623.73,355.992 623.73,355.992L608.13,335.535C608.13,335.535 600.523,324.964 588.263,324.766C576.003,324.568 571.286,324.815 572.149,327.266C573.012,329.717 584.368,332.896 584.368,332.896L583.559,334.888C583.559,334.888 566.074,335.637 559.581,333.888C553.088,332.139 544.249,332.453 544.074,334.538C543.899,336.623 546.595,338.873 546.595,338.873C546.595,338.873 543.346,341.121 544.934,342.738C546.591,344.114 548.416,345.273 550.367,346.187C552.318,347.101 550.319,350.178 558.58,352.642C566.841,355.106 579.05,356.153 590.235,352.309L591.769,353.176L621.984,420.265C621.984,420.265 639.766,469.24 657.484,468.702L658.115,468.602C663.266,467.884 668.002,465.374 671.489,461.516C672.705,460.139 673.727,458.604 674.528,456.951C679.533,446.551 683.115,439.306 683.115,439.306L676.871,433.832L671.288,430.324Z" style="fill:rgb(244,208,181);fill-rule:nonzero;"/>
                </g>
                <g id="Path_302709" transform="matrix(1,0,0,1,362.799,187.702)">
                    <path d="M748.053,388.456C748.053,388.456 749.935,391.097 758.26,406.934C765.782,421.24 776.885,444.794 776.885,444.794C776.885,444.794 790.821,468.194 780.449,478.401C770.077,488.608 751.808,476.985 745.679,469.249C737.14,458.47 718.126,436.801 718.126,436.801L714.531,435.201C714.531,435.201 693.106,436.98 684.278,431.257C675.45,425.534 676.764,425.736 679.648,422.58L679.589,420.824C679.589,420.824 675.389,418.101 676.098,414.834C676.807,411.567 681.66,411.955 681.66,411.955C681.66,411.955 677.608,407.715 679.537,404.938C681.466,402.161 690.044,406.238 690.044,406.238L707.504,410.462L712.557,409.402L713.583,407.451L707.891,403.267C707.891,403.267 703.818,399.902 704.717,396.667C705.616,393.432 713.084,396.731 713.084,396.731L720.684,403.62L720.394,400.902L740.584,392.037L748.053,388.456Z" style="fill:rgb(244,208,181);fill-rule:nonzero;"/>
                </g>
                <g id="Path_302710" transform="matrix(1,0,0,1,349.143,152.049)">
                    <path d="M654.625,332.608L654.625,359.733C658.058,362.309 662.223,363.728 666.515,363.783C670.582,363.668 674.494,362.186 677.615,359.576L677.191,334.361L668.257,335.637L661.877,334.965L654.625,332.608Z" style="fill:rgb(244,208,181);fill-rule:nonzero;"/>
                </g>
                <g id="Path_302711" transform="matrix(1,0,0,1,343.084,126.737)">
                    <path d="M666,292.967C666,292.967 655.1,291.912 650.062,312.28C645.024,332.648 638.156,348.049 662.227,358.125C686.298,368.201 698.227,342.049 698.227,342.049C698.227,342.049 709.86,345.018 713.946,330.864C718.032,316.71 697.446,319.245 697.446,319.245L666,292.967Z" style="fill:rgb(244,208,181);fill-rule:nonzero;"/>
                </g>
                <g id="Path_302712" transform="matrix(1,0,0,1,346.926,135.36)">
                    <path d="M655.238,309.078C654.997,309.986 654.169,310.623 653.23,310.623C652.09,310.623 651.152,309.685 651.152,308.545C651.152,307.405 652.09,306.467 653.23,306.467C653.41,306.467 653.59,306.49 653.765,306.537C654.865,306.831 655.53,307.977 655.238,309.078Z" style="fill:rgb(12,34,56);fill-rule:nonzero;"/>
                </g>
                <g id="Path_302713" transform="matrix(1,0,0,1,355.119,137.54)">
                    <path d="M668.073,312.493C667.831,313.4 667.004,314.036 666.065,314.036C664.925,314.036 663.987,313.098 663.987,311.958C663.987,310.818 664.925,309.88 666.065,309.88C666.246,309.88 666.425,309.904 666.6,309.95C667.507,310.191 668.143,311.019 668.143,311.957C668.143,312.138 668.12,312.318 668.073,312.493Z" style="fill:rgb(12,34,56);fill-rule:nonzero;"/>
                </g>
                <g transform="matrix(1,0,0,1,349.802,135.37)">
                    <g id="Group_40809">
                        <path id="Path_302714" d="M660.889,321.7L659.311,321.628C658.068,321.582 656.913,320.964 656.185,319.955C655.666,319.228 655.523,318.296 655.8,317.447L659.537,306.476L661.09,307.005L657.349,317.976C657.24,318.339 657.312,318.733 657.541,319.034C657.975,319.619 658.656,319.973 659.384,319.992L660.96,320.064L660.889,321.7Z" style="fill:rgb(12,34,56);fill-rule:nonzero;"/>
                    </g>
                </g>
                <g transform="matrix(1,0,0,1,350.407,140.831)">
                    <g id="Group_40810">
                        <path id="Path_302715" d="M661.07,322.423C659.544,322.427 658.031,322.15 656.605,321.607L657.26,320.107C657.583,320.25 665.301,323.456 669.636,315.038L671.091,315.787C668.3,321.2 664.2,322.423 661.07,322.423Z" style="fill:rgb(12,34,56);fill-rule:nonzero;"/>
                    </g>
                </g>
                <g id="Path_302716" transform="matrix(1,0,0,1,355.396,134.493)">
                    <path d="M672.931,311.051C672.444,311.777 670.164,311.102 667.839,309.54C665.514,307.978 664.025,306.124 664.511,305.398C664.997,304.672 667.28,305.347 669.605,306.909C671.93,308.471 673.42,310.324 672.931,311.051Z" style="fill:rgb(12,34,56);fill-rule:nonzero;"/>
                </g>
                <g id="Path_302717" transform="matrix(1,0,0,1,346.26,132.724)">
                    <path d="M650.112,304.318C650.174,305.191 652.489,305.737 655.283,305.539C658.077,305.341 660.29,304.471 660.228,303.597C660.166,302.723 657.851,302.178 655.057,302.376C652.263,302.574 650.049,303.447 650.112,304.318Z" style="fill:rgb(12,34,56);fill-rule:nonzero;"/>
                </g>
                <g transform="matrix(1,0,0,1,363.553,139.529)">
                    <g id="Group_40811">
                        <path id="Path_302718" d="M681.718,318.652C680.624,317.605 679.216,316.946 677.711,316.778L677.198,315.364C677.252,315.312 682.726,310.249 688.547,315.087L687.497,316.349C685.375,314.398 682.199,314.079 679.731,315.568C680.912,315.963 681.988,316.622 682.877,317.495L681.718,318.652Z" style="fill:rgb(12,34,56);fill-rule:nonzero;"/>
                    </g>
                </g>
                <g id="Path_302719" transform="matrix(1,0,0,1,321.523,162.557)">
                    <path d="M611.416,386.859C610.351,385.64 624.846,370.026 644.661,360.759C664.476,351.492 680.417,349.064 680.417,349.064C680.417,349.064 687.217,353.784 692.531,354.443C697.845,355.102 705.894,349.708 705.894,349.708C705.894,349.708 737.164,357.877 751.502,370.018C765.84,382.159 779.602,395.88 789.328,413.598L759.073,427.208L756.859,423.208C756.859,423.208 754.403,402.513 734.433,400.081C714.463,397.649 708.033,410.663 705.08,417.073C702.127,423.483 683,498.886 683,498.886L678.57,514.352L676.827,515.088L626.687,506.088L632.641,481.788L645.46,432.703L641.944,426.041C641.944,426.041 633.105,415.531 626.844,414.987C626.847,414.99 617.575,393.912 611.416,386.859Z" style="fill:rgb(253,205,86);fill-rule:nonzero;"/>
                </g>
                <g transform="matrix(1,0,0,1,342.693,126.454)">
                    <g id="Group_40812">
                        <path id="Path_302720" d="M672.4,361.78C669.93,361.779 667.47,361.455 665.083,360.818C650.498,356.937 641.652,342.418 645.37,328.443L650.793,308.06C652.589,301.672 657.047,296.354 663.025,293.472L664.953,292.515L666.044,292.874C666.124,293.03 674.295,308.455 699.555,320.502C701.638,319.727 703.912,319.626 706.055,320.212C710.786,321.469 714.105,325.785 714.105,330.68C714.105,336.622 709.216,341.511 703.274,341.511C702.924,341.511 702.574,341.494 702.225,341.46C701.043,341.339 699.888,341.03 698.804,340.544L698.28,342.52C695.186,354.143 684.354,361.778 672.4,361.78ZM664.983,294.329L663.753,294.938C658.236,297.583 654.107,302.466 652.414,308.345L646.955,328.866C643.47,341.966 651.793,355.586 665.506,359.234C679.219,362.882 693.206,355.195 696.694,342.098L697.323,339.734C695.646,338.633 694.309,337.086 693.463,335.268L694.947,334.573C696.455,337.802 699.711,339.874 703.274,339.874C708.316,339.874 712.465,335.726 712.465,330.683C712.465,326.529 709.648,322.866 705.632,321.8C703.717,321.263 701.675,321.388 699.84,322.154L699.176,322.139C675.922,311.135 666.9,297.584 664.984,294.329L664.983,294.329Z" style="fill:rgb(12,34,56);fill-rule:nonzero;"/>
                    </g>
                </g>
                <g transform="matrix(1,0,0,1,331.915,119.98)">
                    <g id="Group_40813">
                        <path id="Path_302721" d="M769.656,441.491L769.091,439.956C783.253,434.728 790.051,427.34 791.463,425.661C788.733,418.868 755.754,337.296 734.493,307.823C708.944,272.408 681.53,286.923 681.257,287.07L680.657,287.147C680.157,287.021 668.264,284.298 658.429,303.223C652.513,314.603 639.977,356.336 629.238,406.478L627.638,406.136C638.406,355.859 651.011,313.945 656.978,302.468C666.692,283.781 678.623,285.091 680.751,285.491C683.811,284.003 710.84,272.236 735.821,306.865C758.021,337.636 792.814,424.623 793.163,425.498L793.063,426.291C792.784,426.66 786.145,435.408 769.656,441.491Z" style="fill:rgb(12,34,56);fill-rule:nonzero;"/>
                    </g>
                </g>
                <g id="Path_302722" transform="matrix(1,0,0,1,332.227,120.266)">
                    <path d="M769.061,440.437C785.511,434.368 792.09,425.516 792.09,425.516C792.09,425.516 757.241,338.1 734.844,307.059C708.574,270.641 680.55,286.066 680.55,286.066C680.55,286.066 667.688,282.752 657.393,302.558C651.339,314.205 638.655,356.872 628.128,406.021L641.04,399.448L653.34,394.854C653.34,394.854 664.022,392.187 666.85,391.89C668.319,391.788 669.761,391.441 671.115,390.863L670.833,365.389L669.714,363.819C664.296,360.495 660.002,355.616 657.393,349.819C652.963,340.061 657.485,331.626 659.262,324.943L662.293,313.622C662.293,313.622 665.031,306.595 669.774,302.964C674.517,299.333 675.946,299.736 675.946,299.736C675.946,299.736 683.43,310.484 690.439,315.543C697.448,320.602 708.591,326.909 708.591,326.909C708.591,326.909 711.561,327.787 712.834,326.886C714.107,325.985 723.113,327.986 723.749,336.346C724.385,344.706 715.624,346.699 715.624,346.699L712.134,346.75L708.959,346.05C708.959,346.05 706.659,352.795 705.232,354.891C703.805,356.987 703.091,358.551 700.468,360.583C697.845,362.615 694.534,365.139 694.534,365.139L695.19,392C695.19,392 720.661,397.274 736.156,409.147L745.764,416.047C745.764,416.047 755.38,424.436 757.295,426.441C759.21,428.446 764.617,434.641 764.617,434.641L769.06,440.441L769.061,440.437Z" style="fill:rgb(12,34,56);fill-rule:nonzero;"/>
                </g>
                <g transform="matrix(1,0,0,1,348.548,152.046)">
                    <g id="Group_40814">
                        <path id="Path_302723" d="M666.469,365.009C662.088,364.962 657.835,363.518 654.33,360.89L653.991,360.649L653.691,332.618L655.329,332.603L655.617,359.794C662.159,364.5 671.03,364.508 677.58,359.814L677.646,332.608L679.284,332.608L679.215,360.608L678.915,360.855C675.299,363.498 670.948,364.95 666.469,365.009Z" style="fill:rgb(12,34,56);fill-rule:nonzero;"/>
                    </g>
                </g>
                <g transform="matrix(1,0,0,1,331.758,162.299)">
                    <g id="Group_40815">
                        <path id="Path_302724" d="M628.26,365.408L627.393,364.019C651.276,349.106 671.371,348.667 671.571,348.664L671.594,350.302C671.4,350.306 651.73,350.755 628.26,365.408Z" style="fill:rgb(12,34,56);fill-rule:nonzero;"/>
                    </g>
                </g>
                <g transform="matrix(0.252,-0.968,0.968,0.252,947.141,668.133)">
                    <g id="Group_40816">
                        <rect id="Rectangle_12921" x="0" y="0" width="118.248" height="1.637" style="fill:rgb(12,34,56);"/>
                    </g>
                </g>
                <g transform="matrix(0.16904,-0.985609,0.985609,0.16904,947.144,669.695)">
                    <g id="Group_40817">
                        <rect id="Rectangle_12922" x="0" y="0" width="1.64" height="53.582" style="fill:rgb(12,34,56);"/>
                    </g>
                </g>
                <g transform="matrix(1,0,0,1,323.025,134.032)">
                    <g id="Group_40820">
                        <path id="Path_302726" d="M583.956,279.787L582.473,279.087C583.893,276.356 586.375,274.325 589.333,273.474C592.903,272.507 596.997,273.385 601.524,276.082C600.71,272.982 599.8,267.258 602.597,263.182C604.642,260.202 608.248,258.691 613.319,258.691L613.319,260.329C608.819,260.329 605.669,261.6 603.949,264.109C600.498,269.142 603.708,277.609 603.741,277.698L602.511,278.666C597.642,275.311 593.361,274.092 589.784,275.053C587.287,275.788 585.187,277.494 583.956,279.787Z" style="fill:rgb(244,246,248);fill-rule:nonzero;"/>
                    </g>
                </g>
                <g id="Path_302729" transform="matrix(1,0,0,1,354.04,152.129)">
                    <path d="M662.3,335.261L672.723,343.091L672.551,332.733C672.551,332.733 667.115,335.292 662.3,335.261Z" style="fill:rgb(12,34,56);fill-rule:nonzero;"/>
                </g>
                <g transform="matrix(1,0,0,1,345.697,181.929)">
                    <g id="Group_40823">
                        <path id="Path_302730" d="M650.809,512.535L649.228,512.109L679.314,400.025C682.274,388.861 691.918,380.666 703.414,379.548C706.654,379.223 709.925,379.486 713.071,380.326L713.271,380.377C724.59,383.438 732.787,393.381 733.633,405.077L732,405.2C731.205,394.196 723.492,384.84 712.842,381.961L712.86,381.12L712.65,381.913C709.693,381.123 706.617,380.875 703.572,381.181C692.757,382.234 683.685,389.945 680.902,400.449L650.809,512.535Z" style="fill:rgb(12,34,56);fill-rule:nonzero;"/>
                    </g>
                </g>
                <g transform="matrix(0.264,-0.965,0.965,0.264,1038.12,737.885)">
                    <g id="Group_40824">
                        <rect id="Rectangle_12924" x="0" y="0" width="119.041" height="1.639" style="fill:rgb(12,34,56);"/>
                    </g>
                </g>
                <g transform="matrix(1,0,0,1,358.127,162.493)">
                    <g id="Group_40825">
                        <path id="Path_302731" d="M742.8,399.1C713.145,357.663 669.145,350.654 668.7,350.587L668.944,348.968C669.391,349.035 714.075,356.152 744.128,398.144L742.8,399.1Z" style="fill:rgb(12,34,56);fill-rule:nonzero;"/>
                    </g>
                </g>
                <g transform="matrix(0.907,-0.422,0.422,0.907,1081.33,589.014)">
                    <g id="Group_40826">
                        <rect id="Rectangle_12925" x="0" y="0" width="32.191" height="1.638" style="fill:rgb(12,34,56);"/>
                    </g>
                </g>
                <g transform="matrix(1,0,0,1,362.356,196.702)">
                    <g id="Group_40827">
                        <path id="Path_302732" d="M703.957,419.049C699.666,418.864 680.309,415.415 676.17,409.727C675.415,408.796 675.149,407.557 675.456,406.398C675.797,405.059 676.703,403.932 677.937,403.31C679.941,402.454 682.182,402.325 684.271,402.945L683.72,404.487C682.06,404.021 680.291,404.118 678.692,404.764C677.863,405.178 677.257,405.936 677.034,406.835C676.869,407.514 677.041,408.233 677.494,408.765C681.08,413.693 699.553,417.221 704.028,417.412L703.957,419.049Z" style="fill:rgb(12,34,56);fill-rule:nonzero;"/>
                    </g>
                </g>
                <g transform="matrix(1,0,0,1,363.499,189.945)">
                    <g id="Group_40828">
                        <path id="Path_302733" d="M764.79,438.185L727.859,409.649C722.831,404.839 719.498,402.012 715.281,398.434L713.895,397.258C710.682,394.527 707.623,393.173 705.924,393.726C705.116,394.033 704.541,394.763 704.43,395.62C703.842,398.028 706.93,399.94 709.66,401.626C712.268,403.238 714.732,404.76 713.66,406.826L713.445,407.088C708.345,411.173 699.545,408.017 691.781,405.23C686.443,403.313 680.92,401.33 679.481,403.194C678.674,404.04 678.52,405.325 679.104,406.338C681.852,411.338 698.178,415.092 703.129,414.638L703.273,416.27C698.473,416.681 680.956,413.116 677.673,407.126C676.776,405.545 676.984,403.556 678.187,402.194C680.346,399.383 685.638,401.28 692.335,403.685C699.598,406.292 707.816,409.244 712.248,405.943C712.341,405.211 710.387,404.002 708.798,403.02C705.755,401.136 701.966,398.796 702.839,395.23C703.072,393.814 704.065,392.636 705.421,392.166C707.721,391.422 711.205,392.82 714.958,396.01L716.341,397.185C720.58,400.785 723.927,403.622 728.925,408.41L765.79,436.89L764.79,438.185Z" style="fill:rgb(12,34,56);fill-rule:nonzero;"/>
                    </g>
                </g>
                <g transform="matrix(1,0,0,1,327.167,187.421)">
                    <g id="Group_40829">
                        <path id="Path_302734" d="M635.093,411.409C633.098,411.365 631.128,410.955 629.282,410.198L629.87,408.668C634.952,410.626 637.685,409.468 638.552,408.945C638.193,406.904 635.752,397.789 620.202,389.46L620.977,388.017C639.424,397.9 640.223,408.817 640.246,409.277L639.996,409.914C638.6,410.996 636.855,411.528 635.093,411.409Z" style="fill:rgb(12,34,56);fill-rule:nonzero;"/>
                    </g>
                </g>
                <g id="Path_302735" transform="matrix(1,0,0,1,330.82,191.676)">
                    <path d="M630.4,394.681L625.927,405.181L628.287,405.3L632.337,405.621L635.222,404.921L635.368,403.726L633.678,399.734L630.4,394.681Z" style="fill:rgb(12,34,56);fill-rule:nonzero;"/>
                </g>
                <g id="Group_40842" transform="matrix(1,0,0,1,932.242,513.589)">
                    <g id="Group_40830" transform="matrix(1,0,0,1,44.239,11.878)">
                        <g id="Path_302736" transform="matrix(1,0,0,1,-637.651,-357.198)">
                            <path d="M650.689,377.075C650.689,377.075 632.577,363.475 640.456,359.8C640.456,359.8 643.708,359.073 646.097,362.9C646.097,362.9 645.817,358.057 649.456,358.019C650.404,358.017 651.332,358.295 652.122,358.819C653.721,359.851 654.618,361.692 654.444,363.587C654.27,365.482 657.48,357.45 661.72,359.627C668.059,362.88 650.689,377.075 650.689,377.075Z" style="fill:rgb(245,185,69);fill-rule:nonzero;"/>
                        </g>
                        <g id="Path_302737" transform="matrix(1,0,0,1,-637.971,-357.517)">
                            <path d="M650.517,378.049C649.173,377.041 637.417,368.04 637.991,362.486C638.162,361.078 639.103,359.877 640.429,359.375L640.596,359.318C642.518,359.029 644.464,359.703 645.796,361.118C645.972,360.214 646.384,359.373 646.989,358.68C647.707,357.914 648.718,357.489 649.768,357.513L649.819,357.513C650.91,357.522 651.976,357.844 652.889,358.442C654.026,359.18 654.875,360.288 655.289,361.579C656.166,360.364 657.374,359.427 658.769,358.879C659.976,358.477 661.296,358.595 662.413,359.203C663.422,359.667 664.113,360.633 664.228,361.738C664.787,367.017 652.884,376.908 651.528,378.019L650.517,378.049ZM641.031,360.905C640.268,361.171 639.72,361.851 639.622,362.653C639.232,366.402 647.257,373.46 650.987,376.353C654.773,373.178 662.975,365.489 662.6,361.922C662.539,361.367 662.18,360.887 661.664,360.672C660.937,360.267 660.071,360.186 659.282,360.451C657.422,361.064 655.918,363.413 655.496,364.268L653.943,363.868C654.098,362.263 653.344,360.699 651.992,359.82C651.334,359.395 650.568,359.166 649.785,359.158C649.184,359.134 648.6,359.369 648.185,359.805C647.504,360.791 647.169,361.975 647.233,363.172L645.721,363.654C643.855,360.659 641.476,360.841 641.03,360.905L641.031,360.905Z" style="fill:rgb(12,34,56);fill-rule:nonzero;"/>
                        </g>
                    </g>
                    <g id="Group_40831" transform="matrix(1,0,0,1,75.79,66.239)">
                        <g id="Path_302738" transform="matrix(1,0,0,1,-656.912,-390.378)">
                            <path d="M672.931,399.255L670.441,408.528C667.23,409.986 664.576,410.92 664.576,410.92C664.576,410.92 652.123,392 660.79,391.194C660.79,391.194 664.083,391.604 665.05,396.027C665.05,396.027 666.426,391.374 669.85,392.57C670.747,392.876 671.53,393.447 672.095,394.208C673.253,395.619 673.572,397.546 672.931,399.255Z" style="fill:rgb(245,185,69);fill-rule:nonzero;"/>
                        </g>
                        <g id="Path_302739" transform="matrix(1,0,0,1,-657.228,-390.696)">
                            <path d="M665.161,412.011L664.204,411.688C663.283,410.288 655.258,397.84 657.682,392.801C658.319,391.533 659.612,390.72 661.031,390.696L661.206,390.696C663.116,391.075 664.721,392.374 665.489,394.164C665.96,393.37 666.634,392.714 667.44,392.264C668.373,391.792 669.464,391.736 670.44,392.112C671.489,392.469 672.405,393.136 673.066,394.026C674.381,395.637 674.752,397.828 674.041,399.782L674.041,399.789L671.552,409.056L671.1,409.589C667.886,411.048 665.272,411.974 665.161,412.011ZM661.077,392.339C660.267,392.331 659.52,392.788 659.158,393.512C657.523,396.912 662.687,406.264 665.222,410.245C666.13,409.908 667.963,409.2 670.063,408.259L672.455,399.359C673.127,396.859 672.334,395.792 671.755,395.016C671.291,394.391 670.648,393.921 669.912,393.668C669.355,393.439 668.726,393.461 668.187,393.729C667.212,394.427 666.496,395.429 666.151,396.578L664.565,396.521C663.813,393.078 661.542,392.436 661.077,392.339Z" style="fill:rgb(12,34,56);fill-rule:nonzero;"/>
                        </g>
                    </g>
                    <g id="Group_40832" transform="matrix(1,0,0,1,25.923,104.217)">
                        <g id="Path_302740" transform="matrix(1,0,0,1,-626.482,-413.556)">
                            <path d="M639.727,433.328C639.727,433.328 629.927,426.905 627.275,421.745L628.586,416.715C629.258,416.584 631.961,416.305 634.238,419.468C634.238,419.468 633.664,414.668 637.285,414.389C638.233,414.331 639.177,414.547 640.005,415.012C641.663,415.946 642.669,417.73 642.61,419.632C642.551,421.534 645.264,413.308 649.622,415.208C656.16,418.058 639.727,433.328 639.727,433.328Z" style="fill:rgb(245,185,69);fill-rule:nonzero;"/>
                        </g>
                        <g id="Path_302741" transform="matrix(1,0,0,1,-626.791,-413.876)">
                            <path d="M639.587,434.333C639.179,434.066 629.576,427.733 626.855,422.44L626.791,421.858L628.103,416.828L628.739,416.228C630.567,415.928 632.436,416.488 633.798,417.744C633.918,416.832 634.276,415.967 634.835,415.236C635.504,414.427 636.486,413.938 637.535,413.891C638.643,413.815 639.75,414.066 640.717,414.614C641.903,415.274 642.821,416.328 643.311,417.594C644.113,416.328 645.262,415.319 646.621,414.686C647.794,414.209 649.115,414.242 650.263,414.776C651.3,415.175 652.052,416.095 652.237,417.191C653.128,422.427 641.882,433.052 640.598,434.247L639.587,434.333ZM628.457,421.96C630.8,426.144 637.937,431.223 639.95,432.605C643.527,429.196 651.221,421.005 650.618,417.466C650.523,416.915 650.133,416.458 649.604,416.278C648.858,415.922 647.996,415.896 647.23,416.206C645.044,417.079 643.686,420.238 643.675,420.269L642.101,419.969C642.163,418.355 641.314,416.835 639.907,416.042C639.22,415.66 638.438,415.482 637.653,415.528C637.054,415.546 636.49,415.82 636.105,416.28C635.487,417.304 635.225,418.505 635.36,419.693L633.882,420.268C632.97,418.744 631.325,417.801 629.549,417.786L628.457,421.96Z" style="fill:rgb(12,34,56);fill-rule:nonzero;"/>
                        </g>
                    </g>
                    <g id="Group_40833" transform="matrix(1,0,0,1,0,31.534)">
                        <g id="Path_302742" transform="matrix(1,0,0,1,-610.697,-369.227)">
                            <path d="M617.834,384.316C615.834,380.859 613.672,377.222 611.395,373.516C612.509,372.287 613.64,371.108 614.754,369.961C615.166,370.168 615.547,370.432 615.884,370.747C617.273,372.05 617.829,374.022 617.326,375.859C616.823,377.696 621.389,370.359 625.19,373.238C628.565,375.829 622.929,380.761 617.834,384.316Z" style="fill:rgb(245,185,69);fill-rule:nonzero;"/>
                        </g>
                        <g id="Path_302743" transform="matrix(1,0,0,1,-610.969,-369.514)">
                            <path d="M618.574,385.277L617.398,385.015C615.283,381.361 613.12,377.736 610.969,374.236L611.059,373.256C612.181,372.021 613.317,370.833 614.437,369.679L615.379,369.514C615.864,369.753 616.311,370.062 616.706,370.431C617.702,371.362 618.345,372.609 618.525,373.96C619.601,372.922 620.953,372.214 622.419,371.922C623.678,371.735 624.96,372.08 625.955,372.874C626.814,373.477 627.319,374.469 627.302,375.518C627.246,378.024 624.392,381.215 618.574,385.277ZM612.688,373.9C614.588,377 616.496,380.195 618.365,383.414C624.642,378.914 625.643,376.52 625.665,375.478C625.67,374.954 625.405,374.462 624.965,374.178C624.317,373.657 623.48,373.428 622.657,373.546C620.716,373.826 618.825,375.874 618.257,376.638L616.797,375.974C617.235,374.42 616.772,372.744 615.597,371.636C615.461,371.511 615.318,371.394 615.168,371.287C614.339,372.137 613.51,373.009 612.688,373.9Z" style="fill:rgb(12,34,56);fill-rule:nonzero;"/>
                        </g>
                    </g>
                    <g id="Group_40834" transform="matrix(1,0,0,1,111.32,32.307)">
                        <g id="Path_302744" transform="matrix(1,0,0,1,-678.599,-369.668)">
                            <path d="M693.789,386.868L693.589,386.819C690.536,386.003 687.361,385.748 684.217,386.065C680.907,380.565 676.304,371.238 682.349,370.484C682.349,370.484 685.675,370.779 686.773,375.153C686.773,375.153 687.985,370.467 691.459,371.553C692.36,371.843 693.158,372.39 693.753,373.126C694.966,374.598 695.257,376.631 694.507,378.385C693.757,380.139 699.275,373.47 702.634,376.845C705.667,379.888 699.327,384.033 693.789,386.868Z" style="fill:rgb(245,185,69);fill-rule:nonzero;"/>
                        </g>
                        <g id="Path_302745" transform="matrix(1,0,0,1,-678.914,-369.986)">
                            <path d="M693.909,387.982L693.801,387.954C690.811,387.147 687.7,386.891 684.618,387.197L683.833,386.805C680.895,381.918 677.733,375.394 679.354,372.069C679.977,370.853 681.204,370.058 682.568,369.988L682.74,369.988C684.659,370.295 686.308,371.531 687.14,373.288C687.583,372.487 688.23,371.817 689.014,371.345C689.932,370.839 691.023,370.744 692.014,371.085C693.067,371.425 694,372.062 694.699,372.92C695.566,373.971 696.038,375.292 696.033,376.654C697.238,375.766 698.673,375.245 700.167,375.154C701.439,375.125 702.663,375.645 703.526,376.579C704.3,377.293 704.669,378.348 704.509,379.389C704.116,381.866 700.832,384.655 694.47,387.914L693.909,387.982ZM687.161,385.431C689.471,385.432 691.772,385.73 694.006,386.316C701.344,382.516 702.729,380.19 702.898,379.133C702.976,378.607 702.776,378.077 702.37,377.733C701.803,377.133 701.012,376.792 700.186,376.791C697.842,376.801 695.436,379.242 695.412,379.265L694.057,378.411C694.703,376.929 694.463,375.203 693.438,373.953C692.945,373.342 692.285,372.887 691.538,372.644C690.974,372.438 690.348,372.483 689.819,372.767C688.861,373.485 688.178,374.512 687.886,375.673L686.298,375.666C685.443,372.266 683.136,371.703 682.671,371.624C681.898,371.661 681.198,372.101 680.829,372.781C679.854,374.781 681.365,379.408 684.976,385.516C685.705,385.459 686.433,385.43 687.16,385.431L687.161,385.431Z" style="fill:rgb(12,34,56);fill-rule:nonzero;"/>
                        </g>
                    </g>
                    <g id="Group_40835" transform="matrix(1,0,0,1,83.329,32.298)">
                        <g id="Ellipse_3362" transform="matrix(1,0,0,1,0.819,0.82)">
                            <circle cx="2.718" cy="2.718" r="2.718" style="fill:rgb(245,185,69);"/>
                        </g>
                        <g id="Path_302746" transform="matrix(1,0,0,1,-661.829,-369.98)">
                            <path d="M665.365,377.055C663.425,377.055 661.828,375.458 661.828,373.518C661.828,371.578 663.425,369.981 665.365,369.981C667.305,369.981 668.902,371.578 668.902,373.518C668.9,375.458 667.305,377.053 665.365,377.055ZM665.365,371.619C664.323,371.619 663.465,372.477 663.465,373.519C663.465,374.561 664.323,375.419 665.365,375.419C666.407,375.419 667.265,374.561 667.265,373.519L667.265,373.518C667.265,372.476 666.407,371.618 665.365,371.618L665.365,371.619Z" style="fill:rgb(12,34,56);fill-rule:nonzero;"/>
                        </g>
                    </g>
                    <g id="Group_40836" transform="matrix(1,0,0,1,97.771,0)">
                        <g id="Ellipse_3363" transform="matrix(1,0,0,1,0.819,0.818)">
                            <circle cx="2.718" cy="2.718" r="2.718" style="fill:rgb(245,185,69);"/>
                        </g>
                        <g id="Path_302747" transform="matrix(1,0,0,1,-670.644,-350.267)">
                            <path d="M674.181,357.34C672.241,357.34 670.645,355.744 670.645,353.804C670.645,351.864 672.241,350.268 674.181,350.268C676.12,350.268 677.716,351.864 677.717,353.803C677.715,355.742 676.12,357.337 674.181,357.34ZM674.181,351.905C673.139,351.905 672.281,352.763 672.281,353.805C672.281,354.847 673.139,355.705 674.181,355.705C675.223,355.705 676.081,354.847 676.081,353.805C676.081,352.763 675.223,351.905 674.181,351.905Z" style="fill:rgb(12,34,56);fill-rule:nonzero;"/>
                        </g>
                    </g>
                    <g id="Group_40837" transform="matrix(1,0,0,1,47.064,71.476)">
                        <g id="Ellipse_3364" transform="matrix(1,0,0,1,0.82,0.818)">
                            <circle cx="2.718" cy="2.718" r="2.718" style="fill:rgb(245,185,69);"/>
                        </g>
                        <g id="Path_302748" transform="matrix(1,0,0,1,-639.695,-393.893)">
                            <path d="M643.232,400.966C641.293,400.965 639.697,399.369 639.697,397.43C639.697,395.49 641.293,393.894 643.233,393.894C645.172,393.894 646.768,395.49 646.769,397.429C646.766,399.368 645.171,400.963 643.232,400.966ZM643.232,395.532C642.19,395.532 641.332,396.39 641.332,397.432C641.332,398.474 642.19,399.332 643.232,399.332C644.274,399.332 645.132,398.474 645.132,397.432L645.132,397.431C645.132,396.389 644.274,395.531 643.232,395.531L643.232,395.532Z" style="fill:rgb(12,34,56);fill-rule:nonzero;"/>
                        </g>
                    </g>
                    <g id="Group_40838" transform="matrix(1,0,0,1,27.687,53.521)">
                        <g id="Path_302749" transform="matrix(1,0,0,1,-627.549,-382.615)">
                            <path d="M633.8,386.151C633.8,387.642 632.573,388.869 631.082,388.869C629.591,388.869 628.364,387.642 628.364,386.151C628.364,384.66 629.591,383.433 631.082,383.433C632.573,383.434 633.799,384.66 633.8,386.151Z" style="fill:rgb(245,185,69);fill-rule:nonzero;"/>
                        </g>
                        <g id="Path_302750" transform="matrix(1,0,0,1,-627.868,-382.934)">
                            <path d="M631.405,390.007C629.465,390.007 627.869,388.411 627.869,386.471C627.869,384.531 629.465,382.935 631.405,382.935C633.344,382.935 634.94,384.531 634.941,386.47C634.938,388.409 633.344,390.004 631.405,390.007ZM631.405,384.572C630.363,384.572 629.505,385.43 629.505,386.472C629.505,387.514 630.363,388.372 631.405,388.372C632.447,388.372 633.305,387.514 633.305,386.472C633.305,385.43 632.447,384.572 631.405,384.572Z" style="fill:rgb(12,34,56);fill-rule:nonzero;"/>
                        </g>
                    </g>
                    <g id="Group_40839" transform="matrix(1,0,0,1,67.282,122.353)">
                        <g id="Ellipse_3365" transform="matrix(1,0,0,1,0.819,0.82)">
                            <circle cx="2.718" cy="2.718" r="2.718" style="fill:rgb(245,185,69);"/>
                        </g>
                        <g id="Path_302751" transform="matrix(1,0,0,1,-652.035,-424.946)">
                            <path d="M655.571,432.022L655.57,432.022C653.629,432.022 652.032,430.425 652.032,428.484C652.032,426.543 653.629,424.946 655.57,424.946C657.511,424.946 659.107,426.542 659.108,428.483C659.107,430.423 657.511,432.02 655.571,432.022ZM655.571,426.584C654.529,426.584 653.671,427.442 653.671,428.484C653.671,429.526 654.529,430.384 655.571,430.384C656.613,430.384 657.471,429.526 657.471,428.484C657.471,427.442 656.613,426.584 655.571,426.584Z" style="fill:rgb(12,34,56);fill-rule:nonzero;"/>
                        </g>
                    </g>
                    <g id="Group_40840" transform="matrix(1,0,0,1,33.535,148.492)">
                        <g id="Ellipse_3366" transform="matrix(1,0,0,1,0.819,0.82)">
                            <circle cx="2.718" cy="2.718" r="2.718" style="fill:rgb(245,185,69);"/>
                        </g>
                        <g id="Path_302752" transform="matrix(1,0,0,1,-631.437,-440.9)">
                            <path d="M634.974,447.974C633.034,447.974 631.437,446.377 631.437,444.437C631.437,442.497 633.034,440.9 634.974,440.9C636.914,440.9 638.511,442.497 638.511,444.437L638.511,444.438C638.509,446.377 636.913,447.972 634.974,447.974ZM634.974,442.538C633.932,442.538 633.074,443.396 633.074,444.438C633.074,445.48 633.932,446.338 634.974,446.338C636.016,446.338 636.874,445.48 636.874,444.438C636.874,443.396 636.016,442.538 634.974,442.538Z" style="fill:rgb(12,34,56);fill-rule:nonzero;"/>
                        </g>
                    </g>
                    <g id="Group_40841" transform="matrix(1,0,0,1,156.727,58.956)">
                        <g id="Ellipse_3367" transform="matrix(1,0,0,1,0.819,0.819)">
                            <circle cx="2.718" cy="2.718" r="2.718" style="fill:rgb(245,185,69);"/>
                        </g>
                        <g id="Path_302753" transform="matrix(1,0,0,1,-706.628,-386.251)">
                            <path d="M710.165,393.324C708.225,393.324 706.629,391.728 706.629,389.788C706.629,387.848 708.225,386.252 710.165,386.252C712.104,386.252 713.7,387.848 713.701,389.787C713.699,391.726 712.104,393.321 710.165,393.324ZM710.165,387.89C709.123,387.89 708.265,388.748 708.265,389.79C708.265,390.832 709.123,391.69 710.165,391.69C711.207,391.69 712.065,390.832 712.065,389.79L712.065,389.789C712.065,388.747 711.207,387.889 710.165,387.889L710.165,387.89Z" style="fill:rgb(12,34,56);fill-rule:nonzero;"/>
                        </g>
                    </g>
                </g>
                <g transform="matrix(1,0,0,1,363.045,200.403)">
                    <g id="Group_40843">
                        <path id="Path_302754" d="M707.908,423.7C702.436,423.7 695.841,423.3 691.318,422.075C680.772,419.216 676.453,416.475 676.402,412.613C676.361,409.464 681.013,408.396 681.211,408.352L681.568,409.952C681.53,409.96 678.018,410.801 678.041,412.593C678.066,414.551 679.647,417.217 691.748,420.493C699.048,422.471 712.448,422.2 716.325,421.653L716.554,423.275C713.683,423.59 710.796,423.732 707.908,423.7Z" style="fill:rgb(12,34,56);fill-rule:nonzero;"/>
                    </g>
                </g>
                <g transform="matrix(1,0,0,1,321.273,177.115)">
                    <g id="Group_40844">
                        <path id="Path_302755" d="M629.491,410.025C629.013,408.064 628.428,406.13 627.738,404.233C625.954,399.298 622.472,392.325 617.395,383.509C615.295,379.873 613.132,376.246 610.969,372.73L612.363,371.872C614.534,375.401 616.705,379.04 618.813,382.69C623.94,391.59 627.46,398.653 629.277,403.676C629.988,405.63 630.591,407.621 631.084,409.641L629.491,410.025Z" style="fill:rgb(12,34,56);fill-rule:nonzero;"/>
                    </g>
                </g>
                <g transform="matrix(1,0,0,1,290.62,157.304)">
                    <g id="Group_40845">
                        <path id="Path_302756" d="M562.953,345.551L562.953,343.913C570.177,343.913 573.437,343.281 578.804,340.839L579.482,342.33C573.924,344.858 570.37,345.551 562.953,345.551Z" style="fill:rgb(12,34,56);fill-rule:nonzero;"/>
                    </g>
                </g>
                <g transform="matrix(1,0,0,1,278.181,146.542)">
                    <g id="Group_40846">
                        <path id="Path_302757" d="M612.917,343.242C610.897,339.896 608.421,336.849 605.559,334.187C601.039,329.798 599.592,328.929 593.609,327.013C588.178,325.285 574.982,325.213 573.822,326.541C573.211,327.341 573.322,327.819 573.453,328.111C574.538,330.449 582.618,332.079 589.673,332.426L590.012,333.969C582.857,337.698 570.351,336.322 560.301,335.214C553.313,334.442 546.091,333.646 545.192,335.347C545.026,335.66 544.892,336.684 547.224,339.417L545.979,340.48C543.723,337.837 543.012,335.963 543.746,334.58C545.166,331.895 551.594,332.606 560.482,333.586C568.857,334.508 578.982,335.624 585.939,333.768C581.168,333.268 573.433,331.962 571.967,328.799C571.489,327.702 571.709,326.42 572.524,325.544C574.424,323.055 589.35,323.938 594.107,325.452C600.346,327.452 601.988,328.437 606.67,332.985C609.656,335.746 612.234,338.918 614.326,342.406L612.917,343.242Z" style="fill:rgb(12,34,56);fill-rule:nonzero;"/>
                    </g>
                </g>
                <g transform="matrix(1,0,0,1,297.34,154.016)">
                    <g id="Group_40847">
                        <path id="Path_302758" d="M573.734,348.237L573.48,346.617C573.637,346.594 589.109,344.097 595.22,335.689L596.545,336.651C590.033,345.616 574.4,348.134 573.734,348.237Z" style="fill:rgb(12,34,56);fill-rule:nonzero;"/>
                    </g>
                </g>
                <g id="Ellipse_3368" transform="matrix(1,0,0,1,889.813,486.634)">
                    <circle cx="1.988" cy="1.988" r="1.988" style="fill:rgb(12,34,56);"/>
                </g>
                <g id="Ellipse_3369" transform="matrix(1,0,0,1,876.608,494.906)">
                    <circle cx="1.988" cy="1.988" r="1.988" style="fill:rgb(12,34,56);"/>
                </g>
                <g id="Path_302759" transform="matrix(1,0,0,1,364.458,142.929)">
                    <path d="M682.591,320.309L682.591,320.31C682.591,321.401 681.694,322.298 680.603,322.298C679.512,322.298 678.615,321.401 678.615,320.31C678.615,319.219 679.512,318.322 680.603,318.322L680.604,318.322C681.694,318.322 682.591,319.219 682.591,320.309Z" style="fill:rgb(12,34,56);fill-rule:nonzero;"/>
                </g>
                <g id="Path_302760" transform="matrix(1,0,0,1,303.716,156.102)">
                    <path d="M587.443,340.945C587.442,342.035 586.545,342.932 585.455,342.932C584.364,342.932 583.467,342.035 583.467,340.944C583.467,339.853 584.364,338.956 585.455,338.956L585.456,338.956C586.546,338.956 587.443,339.853 587.443,340.943L587.443,340.945Z" style="fill:rgb(12,34,56);fill-rule:nonzero;"/>
                </g>
                <g id="Path_302761" transform="matrix(1,0,0,1,297.04,158.59)">
                    <path d="M576.986,344.841L576.986,344.842C576.986,345.933 576.089,346.83 574.998,346.83C573.907,346.83 573.01,345.933 573.01,344.842C573.01,343.751 573.907,342.854 574.998,342.854L575,342.854C576.089,342.855 576.985,343.752 576.986,344.841Z" style="fill:rgb(12,34,56);fill-rule:nonzero;"/>
                </g>
                <g transform="matrix(1,0,0,1,346.064,162.74)">
                    <g id="Group_40848">
                        <path id="Path_302762" d="M667.981,359.564C660.754,359.648 653.937,356.141 649.803,350.212L651.203,349.355C655.085,354.755 661.353,357.952 668.003,357.925L667.981,359.564Z" style="fill:rgb(12,34,56);fill-rule:nonzero;"/>
                    </g>
                </g>
                <g id="Path_302763" transform="matrix(1,0,0,1,361.76,143.119)">
                    <path d="M674.389,318.62L676.126,330.612L678.147,326.598L678.773,322.728L676.882,321.021L674.389,318.62Z" style="fill:rgb(12,34,56);fill-rule:nonzero;"/>
                </g>
                <g transform="matrix(1,0,0,1,334.904,233.397)">
                    <g id="Group_40858">
                        <path id="Path_302773" d="M703.9,505.516L632.32,497.316L632.389,496.523C634.349,473.766 649.033,458.786 668.06,460.111C678.331,460.824 685.692,465.164 691.227,473.774L689.849,474.66C684.549,466.411 677.792,462.428 667.949,461.746C650.049,460.488 636.241,474.503 634.097,495.869L704.087,503.884L703.9,505.516Z" style="fill:rgb(12,34,56);fill-rule:nonzero;"/>
                    </g>
                </g>
                <g transform="matrix(1,0,0,1,365.327,230.555)">
                    <g id="Group_40859">
                        <path id="Path_302775" d="M711.554,527.578C696.928,527.578 682.964,522.378 680.536,509.49C678.617,499.317 681.736,489.263 688.476,483.869L689.5,485.149C683.227,490.167 680.34,499.603 682.147,509.187C684.88,523.693 703.774,527.687 720.456,525.302L718.618,462.34L687.428,457.197L687.693,455.581L719.55,460.832L720.237,461.617L722.115,525.98L721.42,526.814C718.156,527.319 714.857,527.574 711.554,527.578Z" style="fill:rgb(12,34,56);fill-rule:nonzero;"/>
                    </g>
                </g>
                <g transform="matrix(1,0,0,1,280.699,154.5)">
                    <g id="Group_40860">
                        <path id="Path_302776" d="M572.844,348.354C557.476,347.822 549.197,345.067 547.534,339.931C547.273,339.226 547.422,338.431 547.921,337.868C550.821,334.614 568.293,337.868 571.766,338.559L571.45,340.166C563.192,338.534 550.815,337.079 549.15,338.957C549.089,339.024 548.999,339.124 549.096,339.426C550.481,343.704 558.715,346.226 572.907,346.715L572.844,348.354Z" style="fill:rgb(12,34,56);fill-rule:nonzero;"/>
                    </g>
                </g>
                <g transform="matrix(1,0,0,1,278.368,152.211)">
                    <g id="Group_40861">
                        <path id="Path_302777" d="M550.854,341.452C544.954,340.78 543.833,336.791 543.788,336.62C543.643,335.786 543.941,334.933 544.573,334.37C548.741,330.57 570.673,335.083 573.156,335.609L572.817,337.209C563.74,335.285 548.348,333.141 545.677,335.577C545.457,335.752 545.349,336.034 545.394,336.311C545.407,336.318 546.3,339.28 551.04,339.819L550.854,341.452Z" style="fill:rgb(12,34,56);fill-rule:nonzero;"/>
                    </g>
                </g>
                <g transform="matrix(1,0,0,1,641.909,254.768)">
                    <g id="Group_41019">
                        <g id="Group_40878">
                            <g transform="matrix(1,0,0,1,-278.143,-165.988)">
                                <g id="Group_40819">
                                    <path id="Path_302725" d="M451.245,330.914C445.085,330.914 440.663,326.348 439.014,324.333C424.593,324.733 289.77,328.509 284.281,328.433L282.251,326.385L282.251,316.316L286.351,316.316L286.351,324.316C305.151,323.969 438.528,320.251 439.951,320.216L441.699,321.107C441.746,321.174 446.727,328.255 453.463,326.537C461.504,324.469 460.705,318.684 460.588,318.03L461.656,315.83L603.856,242.096L597.909,237.181L600.517,234.024L608.852,240.91L608.49,244.31L464.764,318.824C464.826,322.602 462.801,328.358 454.477,330.498C453.421,330.772 452.336,330.912 451.245,330.914Z" style="fill:rgb(244,246,248);fill-rule:nonzero;"/>
                                </g>
                            </g>
                            <g transform="matrix(1,0,0,1,-229.924,-192.496)">
                                <g id="Group_40849">
                                    <path id="Path_302764" d="M403.607,342.4L402.18,342.313L357.84,250.1L357.786,249.536C357.83,249.369 362.372,232.692 379.652,217.571C395.552,203.661 425.814,188.213 479.697,193.598L480.221,193.863L542.468,262.394L541.788,263.76C541.352,263.724 497.841,260.08 462.767,282.708C427.59,305.4 403.843,342.034 403.607,342.4ZM359.452,249.666L403.033,340.308C407.488,333.733 430.033,301.871 461.879,281.328C493.076,261.2 530.813,261.577 539.9,262L479.22,195.193C426.12,189.958 396.355,205.131 380.731,218.801C365.052,232.52 360.119,247.445 359.452,249.666Z" style="fill:rgb(244,246,248);fill-rule:nonzero;"/>
                                </g>
                            </g>
                            <g transform="matrix(1,0,0,1,-209.816,-183.275)">
                                <g id="Group_40850">
                                    <path id="Path_302765" d="M390.517,333.279L389.285,332.199C389.66,331.771 427.107,289.322 456.544,278.43C468.132,274.144 479.644,271.352 489.795,268.89C509.275,264.165 524.735,260.418 532.436,249.152L479.352,208.237L480.352,206.937L534.042,248.318L534.23,249.409C526.325,261.715 509.575,265.777 490.182,270.48C480.072,272.931 468.611,275.711 457.113,279.965C428.061,290.716 390.889,332.854 390.517,333.279Z" style="fill:rgb(244,246,248);fill-rule:nonzero;"/>
                                </g>
                            </g>
                            <g transform="matrix(1,0,0,1,-274.971,-177.128)">
                                <g id="Group_40851">
                                    <path id="Path_302766" d="M447.087,327.672C362.603,269.872 293.481,315.64 292.795,316.11L291.514,315.473L287.221,229.19L287.734,228.39C360.805,199.117 403.722,233.39 404.147,233.741L403.106,235C402.69,234.658 360.677,201.179 288.886,229.688L293.08,313.988C297.51,311.28 313.819,302.134 337.593,298.358C363.345,294.269 403.407,295.799 448.012,326.319L447.087,327.672Z" style="fill:rgb(244,246,248);fill-rule:nonzero;"/>
                                </g>
                            </g>
                            <g transform="matrix(1,0,0,1,-279.744,-172.266)">
                                <g id="Group_40852">
                                    <path id="Path_302767" d="M445.349,325.89C444.91,325.7 401.165,306.89 373.134,306.863C347.927,306.804 332.764,312.342 319.406,317.198C306.746,321.798 295.813,325.775 280.388,322.529L279.744,321.629L292,224.185L293.625,224.385L281.463,321.073C296.033,323.947 306.126,320.273 318.846,315.653C331.665,310.993 347.603,305.169 373.136,305.22C401.508,305.246 445.559,324.191 446,324.381L445.349,325.89Z" style="fill:rgb(244,246,248);fill-rule:nonzero;"/>
                                </g>
                            </g>
                            <g transform="matrix(1,0,0,1,-171.364,-159.428)">
                                <g id="Group_40863">
                                    <path id="Path_302779" d="M449.976,252.307L449.517,250.734C463.401,246.681 474.278,244.318 474.386,244.293L474.732,245.893C474.625,245.919 463.8,248.272 449.976,252.307Z" style="fill:rgb(244,246,248);fill-rule:nonzero;"/>
                                </g>
                            </g>
                            <g transform="matrix(1,0,0,1,-206.013,-153.509)">
                                <g id="Group_40864">
                                    <path id="Path_302780" d="M396.411,298.445L395.241,297.298C407.647,285.277 421.346,274.666 436.088,265.661C442.742,261.611 451.588,257.541 462.381,253.566L462.948,255.104C452.254,259.041 443.504,263.063 436.939,267.059C422.313,275.993 408.72,286.519 396.411,298.445Z" style="fill:rgb(244,246,248);fill-rule:nonzero;"/>
                                </g>
                            </g>
                            <g transform="matrix(1,0,0,1,-249.374,-137.184)">
                                <g id="Group_40865">
                                    <path id="Path_302781" d="M403.222,290.868C402.966,290.834 377.568,287.326 365.536,289.161L365.29,287.542C373.946,286.223 388.85,287.542 397.253,288.481C362.624,275.621 328.023,282.704 327.659,282.781L327.32,281.181C327.712,281.099 366.751,273.11 403.664,289.309L403.222,290.868Z" style="fill:rgb(244,246,248);fill-rule:nonzero;"/>
                                </g>
                            </g>
                        </g>
                    </g>
                </g>
                <g id="Group_41020" transform="matrix(1,0,0,1,10.326,23.934)">
                    <g transform="matrix(1,0,0,1,491.317,129.677)">
                        <g id="Group_40853">
                            <path id="Path_302768" d="M648.645,171.9C645.614,171.5 572.045,158.967 563.922,157.582C562.636,158.753 559.044,161.482 554.876,159.753C550.454,157.921 549.753,154.595 550.066,152.488L476.9,100.338L476.972,98.29L482.092,95.152L483.376,97.252L479.839,99.418L552.167,150.973L552.613,152.38C552.505,152.709 551.642,155.758 555.821,157.488C559.327,158.94 562.578,155.476 562.61,155.44L563.722,155.06C564.497,155.193 637.135,167.571 647.767,169.283L648.38,164.977L650.811,165.323L650.025,170.861L648.645,171.9Z" style="fill:rgb(244,246,248);fill-rule:nonzero;"/>
                        </g>
                    </g>
                    <g transform="matrix(1,0,0,1,499.434,116.159)">
                        <g id="Group_40854">
                            <path id="Path_302769" d="M550.486,165.632L548.986,165.163C548.986,164.912 549.186,139.963 531.847,124.937C514.41,109.831 490.335,108.453 490.093,108.437L489.611,106.989L529.185,74.161L529.741,73.973C550.478,74.83 565.432,80.646 574.182,91.263C580.303,98.769 583.187,108.413 582.189,118.047L582.061,118.38L550.486,165.632ZM492.186,106.987C498.443,107.678 518.035,110.806 532.918,123.699C547.503,136.333 550.079,155.692 550.529,162.617L580.59,117.633C581.394,108.512 578.636,99.425 572.9,92.288C564.5,82.114 550.061,76.509 529.987,75.629L492.186,106.987Z" style="fill:rgb(244,246,248);fill-rule:nonzero;"/>
                        </g>
                    </g>
                    <g transform="matrix(1,0,0,1,492.837,116.791)">
                        <g id="Group_40855">
                            <path id="Path_302770" d="M551.816,164.44C551.646,164.178 534.541,138.185 519.489,130.053C513.73,127.078 507.79,124.467 501.704,122.235C491.015,118.083 481.785,114.499 479.276,106.986L479.558,106.075L520.487,74.967L521.745,75.321C522.974,77.82 525.036,79.816 527.574,80.962L526.863,82.438C524.294,81.243 522.143,79.302 520.693,76.867L481.031,107.013C483.559,113.429 491.861,116.653 502.297,120.707C508.446,122.963 514.448,125.601 520.267,128.607C535.686,136.937 552.479,162.458 553.189,163.539L551.816,164.44Z" style="fill:rgb(244,246,248);fill-rule:nonzero;"/>
                        </g>
                    </g>
                    <g transform="matrix(1,0,0,1,522.706,124.157)">
                        <g id="Group_40856">
                            <path id="Path_302771" d="M527,157.852L526.064,156.505C577.993,120.426 604.341,134.218 609.635,137.798L622.826,94.508C586.085,73.908 559.039,110.045 558.767,110.413L557.446,109.445C557.725,109.063 585.915,71.382 624.209,93.408L624.584,94.357L610.866,139.382L609.557,139.772C609.3,139.56 583.167,118.824 527,157.852Z" style="fill:rgb(244,246,248);fill-rule:nonzero;"/>
                        </g>
                    </g>
                    <g transform="matrix(1,0,0,1,524.142,133.468)">
                        <g id="Group_40857">
                            <path id="Path_302772" d="M619.721,162.116C609.491,161.466 603.191,156.891 596.521,152.048C588.857,146.481 580.928,140.727 566.021,140.33C549.221,139.896 529.314,150.899 529.115,151.009L528.315,149.58C529.139,149.116 548.737,138.205 566.067,138.691C581.479,139.101 589.614,145.009 597.483,150.722C603.792,155.301 609.759,159.635 619.09,160.422L628.49,103.922C626.162,104.535 621.183,105.308 616.753,102.464L617.639,101.084C622.818,104.412 629.154,102.006 629.219,101.984L630.325,102.884L620.585,161.432L619.721,162.116Z" style="fill:rgb(244,246,248);fill-rule:nonzero;"/>
                        </g>
                    </g>
                    <g transform="matrix(1,0,0,1,525.019,151.397)">
                        <g id="Group_40862">
                            <path id="Path_302778" d="M530.107,134.041L529.688,132.457C530.471,132.257 548.96,127.434 562.12,129.852L561.82,131.464C549.029,129.106 530.3,133.99 530.107,134.041Z" style="fill:rgb(244,246,248);fill-rule:nonzero;"/>
                        </g>
                    </g>
                    <g transform="matrix(1,0,0,1,504.357,137.793)">
                        <g id="Group_40866">
                            <path id="Path_302782" d="M528.571,133.534C519.817,123.519 509.205,115.296 497.322,109.32L498.071,107.863C510.141,113.935 520.921,122.289 529.813,132.463L528.571,133.534Z" style="fill:rgb(244,246,248);fill-rule:nonzero;"/>
                        </g>
                    </g>
                </g>
                <g transform="matrix(0.88,-0.475,0.475,0.88,1071.3,435.149)">
                    <g id="Group_40867">
                        <rect id="Rectangle_12926" x="0" y="0" width="1.639" height="121.393" style="fill:rgb(12,34,56);"/>
                    </g>
                </g>
                <g transform="matrix(0.344,-0.939,0.939,0.344,959.967,500.173)">
                    <g id="Group_40868">
                        <rect id="Rectangle_12927" x="0" y="0" width="74.252" height="1.639" style="fill:rgb(12,34,56);"/>
                    </g>
                </g>
                <g id="Path_302783" transform="matrix(1,0,0,1,364.997,204.25)">
                    <path d="M679.461,414.378L702.448,430.818L704.818,419.218L693.063,418.307L679.461,414.378Z" style="fill:rgb(12,34,56);fill-rule:nonzero;"/>
                </g>
                <g id="Path_302784" transform="matrix(1,0,0,1,365.944,230.994)">
                    <path d="M697.768,457.736L680.943,477.889L687.49,456.27L694.037,456.918L697.768,457.736Z" style="fill:rgb(12,34,56);fill-rule:nonzero;"/>
                </g>
                <g id="Path_302785" transform="matrix(1,0,0,1,385.378,187.733)">
                    <path d="M711.386,395L731.381,398.827C729.272,394.903 727.269,391.303 725.525,388.507L711.386,395Z" style="fill:rgb(12,34,56);fill-rule:nonzero;"/>
                </g>
                <g transform="matrix(0.255884,-0.966707,0.966707,0.255884,1043.16,675.375)">
                    <g id="Group_40869">
                        <rect id="Rectangle_12928" x="0" y="0" width="54.108" height="1.639" style="fill:rgb(12,34,56);"/>
                    </g>
                </g>
                <g transform="matrix(0.197,-0.98,0.98,0.197,998.187,685.247)">
                    <g id="Group_40870">
                        <rect id="Rectangle_12929" x="0" y="0" width="1.639" height="53.39" style="fill:rgb(12,34,56);"/>
                    </g>
                </g>
                <g transform="matrix(0.292756,-0.956187,0.956187,0.292756,1038.11,692.546)">
                    <g id="Group_40871">
                        <rect id="Rectangle_12930" x="0" y="0" width="9.707" height="1.64" style="fill:rgb(12,34,56);"/>
                    </g>
                </g>
                <g transform="matrix(0.103539,-0.994625,0.994625,0.103539,1031.9,691.281)">
                    <g id="Group_40872">
                        <rect id="Rectangle_12931" x="0" y="0" width="19.715" height="1.638" style="fill:rgb(12,34,56);"/>
                    </g>
                </g>
                <g transform="matrix(0.158,-0.988,0.988,0.158,940.219,681.495)">
                    <g id="Group_40873">
                        <rect id="Rectangle_12932" x="0" y="0" width="1.64" height="57.301" style="fill:rgb(12,34,56);"/>
                    </g>
                </g>
                <g transform="matrix(0.384183,-0.923257,0.923257,0.384183,1084.87,709.639)">
                    <g id="Group_40875">
                        <rect id="Rectangle_12934" x="0" y="0" width="1.64" height="68.457" style="fill:rgb(12,34,56);"/>
                    </g>
                </g>
            </g>
        </g>
    </g>
</svg>
