<svg xmlns="http://www.w3.org/2000/svg" xmlns:xlink="http://www.w3.org/1999/xlink" width="375" height="812" viewBox="0 0 375 812">
  <defs>
    <clipPath id="clip-path">
      <rect id="Rectangle_13834" data-name="Rectangle 13834" width="375" height="812" fill="#fff"/>
    </clipPath>
  </defs>
  <g id="Mask_Group_163" data-name="Mask Group 163" clip-path="url(#clip-path)">
    <g id="Character" transform="translate(-752.97 80.485)">
      <path id="Path_302688" data-name="Path 302688" d="M473.539,532.214s.85-14.842,34.393-34.02,92.228-10.808,92.228-10.808,56.669,8.028,85.825,17.352S790.225,527.4,790.225,527.4l45.415,6.075-57.8,1.991Z" transform="translate(294.931 249.698)" fill="#0c2238"/>
      <path id="Path_302689" data-name="Path 302689" d="M565.608,532.578s-4-13.9-33.114-32.355C499.863,479.536,436,485.932,436,485.932s-55.733,9.973-84.973,18.781A569.358,569.358,0,0,1,251.962,524.9l-53.7,4.6,63.049,6.326Z" transform="translate(119.196 249.334)" fill="#0c2238"/>
      <path id="Path_302690" data-name="Path 302690" d="M615.827,560.883a9.851,9.851,0,0,0,3.844-.595c2.268-.765,18.1-5.823,30.584-5.964s8.79-2.194,8.79-2.194.8-30.068-.32-32.534S644.5,479.519,606.539,457.64s-75.815-26.7-122.016-20.242S352.029,478.38,315.116,480.616s-34.282,3.321-53.1,1.7l-4.869.811L174.9,515.993s-16.546,19.784-31.041,28.156l-15.8,10.24-13,7.586s100.407.287,119.05-.395,82.554-5.97,82.554-5.97,55.792-10.6,86-18.429,84.5-24.261,115.348-20.888,39.829,2.859,68.853,16.72C586.86,533.012,607.246,544.789,615.827,560.883Z" transform="translate(66.081 217.254)" fill="#fff"/>
      <path id="Path_302691" data-name="Path 302691" d="M490.618,560.883a9.849,9.849,0,0,1-3.844-.595c-2.269-.765-18.1-5.823-30.585-5.964s-8.79-2.194-8.79-2.194-.8-30.068.319-32.534,14.225-40.078,52.186-61.957,75.815-26.7,122.018-20.242,132.492,40.983,169.4,43.219,34.283,3.321,53.1,1.7l4.869.811,82.573,34.124s17.285,16.982,31.78,25.354L980.2,554.034,998.113,565.9s-107.074-.326-125.727,0c-23.708.415-80.658-8.613-80.658-8.613s-57.74-12.275-87.944-20.108-85.447-20.647-117.178-19.253c-31,1.363-38,1.224-67.023,15.085C519.583,533.012,499.2,544.789,490.618,560.883Z" transform="translate(277.917 217.254)" fill="#fff"/>
      <path id="Path_302692" data-name="Path 302692" d="M468.159,526.4s22.107-64.027,102.462-59.157S741.272,525.6,846,535.67c0,0-95.441-11.4-175.552-34.347S523.37,457.717,468.159,526.4Z" transform="translate(291.497 237.829)" fill="#0c2238"/>
      <path id="Path_302693" data-name="Path 302693" d="M569.7,526.4s-22.107-64.027-102.462-59.157S296.584,525.6,191.856,535.67c0,0,95.441-11.4,175.55-34.347S514.486,457.717,569.7,526.4Z" transform="translate(115.107 237.829)" fill="#0c2238"/>
      <g id="Group_40801" data-name="Group 40801" transform="translate(151.975 741.534)">
        <path id="Path_302694" data-name="Path 302694" d="M670.551,546.089c-23.93,0-40.957-8.87-42.978-9.975H97.663l-.4-1.53,79.786-45.19.808,1.425-77.081,43.656H627.785l.41.112c.388.221,39.221,22.113,84.5-.028l.364-.084,532.187,2.332-.007,1.638-532-2.331A96.727,96.727,0,0,1,670.551,546.089Z" transform="translate(-97.258 -489.394)" fill="#0c2238"/>
      </g>
      <g id="Group_40802" data-name="Group 40802" transform="translate(178.394 670.81)">
        <path id="Path_302695" data-name="Path 302695" d="M1211.878,559.807H1090.3c-67.308-2.14-120.93-15.643-168.238-27.559-38.464-9.688-74.794-18.837-112.851-20.6-83.605-3.847-104.795,43.237-105,43.714l-1.047.442c-46.478-17.814-85.039-.976-85.422-.806l-.995-.26c-.56-.757-1.137-1.555-1.74-2.387-9.424-13.037-25.2-34.855-79.806-41.5-38.093-4.632-80.209,6.409-124.8,18.1-23.971,6.283-48.758,12.783-74.693,17.423-74.222,13.279-220.539,9.526-222.005,9.486l-.323-1.563c40.365-18.632,60.276-45.265,60.471-45.531l.652-.334,75-.79c48.981-2.485,90.159-17,129.98-31.033,50.231-17.7,97.678-34.432,159.83-29.509,58.64,4.637,88.637,31.337,103.474,52.92a113.063,113.063,0,0,1,17.46,40.863C668,494.8,707.277,460.745,766.46,449.237c55.692-10.818,161.576,21.784,224.846,41.268l4.5,1.386c60.75,18.691,148.092,17.906,148.959,17.891l.552.208c23.365,20.8,66.564,48.031,67,48.3ZM799.6,509.785c3.138,0,6.355.074,9.686.228,38.22,1.768,74.629,10.938,113.173,20.647,47.228,11.895,100.759,25.375,167.865,27.509h118.742c-9.381-6.01-44.279-28.719-64.6-46.745-5.87.02-90,.229-149.143-17.968l-4.5-1.385c-63.121-19.438-168.766-51.978-224.05-41.225-60.547,11.772-99.986,47.331-105.6,95.171a124.218,124.218,0,0,1,41.876,7.992C705.958,548.259,728.156,509.785,799.6,509.785ZM117.207,554.3c22.634.478,150.53,2.571,218.216-9.54,25.869-4.629,50.625-11.118,74.565-17.393C454.735,515.637,497,504.557,535.4,509.228c55.317,6.727,71.354,28.908,80.937,42.162.462.641.911,1.262,1.348,1.856C620.94,551.928,636.819,546,659.1,546h.341c-.392-3.219-3.395-23.837-18.05-45.116-14.639-21.261-44.256-47.566-102.208-52.15-61.813-4.882-109.094,11.777-159.155,29.422-39.932,14.074-81.223,28.626-130.475,31.125l-74.632.786C172.553,513.126,153.492,536.736,117.207,554.3Z" transform="translate(-113.383 -446.227)" fill="#0c2238"/>
      </g>
      <g id="Group_40803" data-name="Group 40803" transform="translate(745.721 690.018)">
        <path id="Path_302696" data-name="Path 302696" d="M461.245,527.974l-1.591-.393c.156-.629,16.6-62.991,106.192-69.63l.121,1.635C477.609,466.131,461.4,527.358,461.245,527.974Z" transform="translate(-459.654 -457.951)" fill="#0c2238"/>
      </g>
      <g id="Group_40804" data-name="Group 40804" transform="translate(593.768 690.018)">
        <path id="Path_302697" data-name="Path 302697" d="M471.632,527.974c-.154-.616-16.366-61.843-104.723-68.388l.121-1.635c89.59,6.639,106.035,69,106.191,69.63Z" transform="translate(-366.909 -457.951)" fill="#0c2238"/>
      </g>
      <g id="Group_40805" data-name="Group 40805" transform="translate(178.736 777.905)">
        <rect id="Rectangle_12919" data-name="Rectangle 12919" width="503.682" height="1.638" transform="matrix(1, -0.002, 0.002, 1, 0, 1.007)" fill="#0c2238"/>
      </g>
      <g id="Group_40806" data-name="Group 40806" transform="translate(768.464 778.803)">
        <rect id="Rectangle_12920" data-name="Rectangle 12920" width="1.638" height="508.435" transform="matrix(0.008, -1, 1, 0.008, 0, 1.638)" fill="#0c2238"/>
      </g>
      <g id="Group_40807" data-name="Group 40807" transform="translate(239.408 651.119)">
        <path id="Path_302698" data-name="Path 302698" d="M637.354,554.029h-1.638V522.356c-.452-1.568-6.327-20.981-24.489-40.824-17.388-19-49.933-42.3-106.227-45.406-40.861-2.261-77.869,9.527-117.05,22-45.311,14.424-92.161,29.335-150.915,25.2l-85.811,33.926-.6-1.524L236.6,481.735l.36-.056c58.53,4.16,105.278-10.72,150.488-25.115,39.33-12.521,76.475-24.345,117.638-22.074,56.891,3.137,89.808,26.747,107.4,46,19.086,20.883,24.776,41.333,24.832,41.538l.028.213Z" transform="translate(-150.623 -434.209)" fill="#0c2238"/>
      </g>
      <g id="Group_40808" data-name="Group 40808" transform="translate(724.53 651.12)">
        <path id="Path_302699" data-name="Path 302699" d="M448.3,522.456l-1.581-.428c.054-.2,5.744-20.655,24.831-41.538,17.595-19.253,50.513-42.862,107.406-46,41.14-2.266,78.307,9.555,117.635,22.074,45.21,14.393,91.958,29.283,150.489,25.115l.115,1.635c-58.84,4.181-105.742-10.748-151.1-25.187-39.18-12.475-76.18-24.261-117.05-22-56.339,3.108-88.9,26.442-106.286,45.47C453.939,502.187,448.355,522.256,448.3,522.456Z" transform="translate(-446.72 -434.21)" fill="#0c2238"/>
      </g>
      <path id="Path_302700" data-name="Path 302700" d="M173.124,490.992s-11.346,14.1-26.66,22.3l-10.494,6.6-11.541,6.175H236.158l273.225-.395H623.788l6.285-1.291s22.456-8.713,47.246-6.124,33.577,8.19,37.347,8.22,289.4,1.958,289.4,1.958l214.474,1.955,1.117-.968L1181.832,503.8l-13.479-10.964,71.085,41.13,3.275,2.332-528.379-2.019-3.76.727s-19.382,9.717-40.132,9.318-31.069-5.143-31.069-5.143l-6.2-1.915-7.17-3.314-527.242.328v-1.168Z" transform="translate(55.678 253.16)" fill="#0c2238"/>
      <path id="Path_302701" data-name="Path 302701" d="M768.028,508.4l.988-1.542s2.02-16.992,1.381-28.683-2.272-35.106-4.378-37.5l3.126-36.482s-.9-19.728-20.79-23.483S720.069,392.9,720.069,392.9l-3.046,6.883L707.4,435.621l-16.368,59.887-69.617-11.942s-18.873-4.6-27.6,15.606,8.72,33.972,11.913,34.614,40.619,6.442,40.619,6.442l20.149,3.519,70-20.639Z" transform="translate(308.78 182.39)" fill="#beaef2"/>
      <path id="Path_302705" data-name="Path 302705" d="M766.106,440.672l3.126-36.482s-.9-19.728-20.79-23.483S720.155,392.9,720.155,392.9l-3.046,6.883-9.622,35.843L691.12,495.508,638.59,486.5,621.5,483.565s-18.873-4.6-27.6,15.606,6.526,33.49,11.913,34.614c3.188.665,40.619,6.442,40.619,6.442l20.149,3.519,27.271-8.041,42.728-12.6L768.114,508.4S768.211,443.064,766.106,440.672Z" transform="translate(308.694 182.39)" fill="#46ceac"/>
      <path id="Path_302706" data-name="Path 302706" d="M663.784,454.549l-1.483,2.82-1.294,6.988a31.014,31.014,0,0,0-22.757,16.91c-7.466,15.217-4.9,18.892-4.9,18.892l69.058,7.646,1.673-.929L714.948,465Z" transform="translate(335.289 229.895)" fill="#fb836f"/>
      <path id="Path_302707" data-name="Path 302707" d="M685.52,471.1l-8.4,31.642,5.266.644s.264,12.73,9.414,17.66,19.654,6.023,25.2,5.441,6.1-1.286,6.1-1.286l-2.369-63.825-31.254-5.507L677.118,502.2Z" transform="translate(363.502 230.737)" fill="#fb836f"/>
      <path id="Path_302708" data-name="Path 302708" d="M671.288,430.324l-3.853-4.871s-12.894-23.337-21.574-36.534-22.131-32.927-22.131-32.927l-15.6-20.457s-7.607-10.571-19.867-10.769-16.977.049-16.114,2.5,12.219,5.63,12.219,5.63l-.809,1.992s-17.485.749-23.978-1-15.332-1.435-15.507.65,2.521,4.335,2.521,4.335-3.249,2.248-1.661,3.865a25.281,25.281,0,0,0,5.433,3.449s-.048,3.991,8.213,6.455,20.47,3.511,31.655-.333l1.534.867,30.215,67.089s17.782,48.975,35.5,48.437l.631-.1a22.145,22.145,0,0,0,13.374-7.086,20.226,20.226,0,0,0,3.039-4.565c5.005-10.4,8.587-17.645,8.587-17.645l-6.244-5.474Z" transform="translate(278.563 147.008)" fill="#f4d0b5"/>
      <path id="Path_302709" data-name="Path 302709" d="M748.053,388.456s1.882,2.641,10.207,18.478c7.522,14.306,18.625,37.86,18.625,37.86s13.936,23.4,3.564,33.607-28.641-1.416-34.77-9.152c-8.539-10.779-27.553-32.448-27.553-32.448l-3.595-1.6s-21.425,1.779-30.253-3.944-7.514-5.521-4.63-8.677l-.059-1.756s-4.2-2.723-3.491-5.99,5.562-2.879,5.562-2.879-4.052-4.24-2.123-7.017,10.507,1.3,10.507,1.3l17.46,4.224,5.053-1.06,1.026-1.951-5.692-4.184s-4.073-3.365-3.174-6.6,8.367.064,8.367.064l7.6,6.889-.29-2.718,20.19-8.865Z" transform="translate(362.799 187.702)" fill="#f4d0b5"/>
      <path id="Path_302710" data-name="Path 302710" d="M654.625,332.608v27.125a20.241,20.241,0,0,0,11.89,4.05,18.1,18.1,0,0,0,11.1-4.207l-.424-25.215-8.934,1.276-6.38-.672Z" transform="translate(349.143 152.049)" fill="#f4d0b5"/>
      <path id="Path_302711" data-name="Path 302711" d="M666,292.967s-10.9-1.055-15.938,19.313-11.906,35.769,12.165,45.845,36-16.076,36-16.076,11.633,2.969,15.719-11.185-16.5-11.619-16.5-11.619Z" transform="translate(343.084 126.737)" fill="#f4d0b5"/>
      <path id="Path_302712" data-name="Path 302712" d="M655.238,309.078a2.078,2.078,0,1,1-1.473-2.541A2.079,2.079,0,0,1,655.238,309.078Z" transform="translate(346.926 135.36)" fill="#0c2238"/>
      <path id="Path_302713" data-name="Path 302713" d="M668.073,312.493a2.078,2.078,0,1,1-1.473-2.543A2.077,2.077,0,0,1,668.073,312.493Z" transform="translate(355.119 137.54)" fill="#0c2238"/>
      <g id="Group_40809" data-name="Group 40809" transform="translate(1005.46 441.851)">
        <path id="Path_302714" data-name="Path 302714" d="M660.889,321.7l-1.578-.072a4.036,4.036,0,0,1-3.126-1.673,2.815,2.815,0,0,1-.385-2.508l3.737-10.971,1.553.529-3.741,10.971a1.185,1.185,0,0,0,.192,1.058,2.373,2.373,0,0,0,1.843.958l1.576.072Z" transform="translate(-655.658 -306.481)" fill="#0c2238"/>
      </g>
      <g id="Group_40810" data-name="Group 40810" transform="translate(1007.012 455.867)">
        <path id="Path_302715" data-name="Path 302715" d="M661.07,322.423a12.454,12.454,0,0,1-4.465-.816l.655-1.5c.323.143,8.041,3.349,12.376-5.069l1.455.749C668.3,321.2,664.2,322.423,661.07,322.423Z" transform="translate(-656.605 -315.036)" fill="#0c2238"/>
      </g>
      <path id="Path_302716" data-name="Path 302716" d="M672.931,311.051c-.487.726-2.767.051-5.092-1.511s-3.814-3.416-3.328-4.142,2.769-.051,5.094,1.511S673.42,310.324,672.931,311.051Z" transform="translate(355.396 134.493)" fill="#0c2238"/>
      <path id="Path_302717" data-name="Path 302717" d="M650.112,304.318c.062.873,2.377,1.419,5.171,1.221s5.007-1.068,4.945-1.942-2.377-1.419-5.171-1.221S650.049,303.447,650.112,304.318Z" transform="translate(346.26 132.724)" fill="#0c2238"/>
      <g id="Group_40811" data-name="Group 40811" transform="translate(1040.751 452.524)">
        <path id="Path_302718" data-name="Path 302718" d="M681.718,318.652a6.9,6.9,0,0,0-4.007-1.874l-.513-1.414c.054-.052,5.528-5.115,11.349-.277l-1.05,1.262a6.506,6.506,0,0,0-7.766-.781,8.2,8.2,0,0,1,3.146,1.927Z" transform="translate(-677.198 -312.995)" fill="#0c2238"/>
      </g>
      <path id="Path_302719" data-name="Path 302719" d="M611.416,386.859c-1.065-1.219,13.43-16.833,33.245-26.1s35.756-11.695,35.756-11.695,6.8,4.72,12.114,5.379,13.363-4.735,13.363-4.735,31.27,8.169,45.608,20.31,28.1,25.862,37.826,43.58l-30.255,13.61-2.214-4s-2.456-20.695-22.426-23.127-26.4,10.582-29.353,16.992S683,498.886,683,498.886l-4.43,15.466-1.743.736-50.14-9,5.954-24.3,12.819-49.085-3.516-6.662s-8.839-10.51-15.1-11.054C626.847,414.99,617.575,393.912,611.416,386.859Z" transform="translate(321.523 162.557)" fill="#fdcd56"/>
      <g id="Group_40812" data-name="Group 40812" transform="translate(987.215 418.969)">
        <path id="Path_302720" data-name="Path 302720" d="M672.4,361.78a28.415,28.415,0,0,1-7.317-.962c-14.585-3.881-23.431-18.4-19.713-32.375l5.423-20.383a23.149,23.149,0,0,1,12.232-14.588l1.928-.957,1.091.359c.08.156,8.251,15.581,33.511,27.628a10.616,10.616,0,0,1,6.5-.29,10.831,10.831,0,0,1-3.83,21.248,11.14,11.14,0,0,1-3.421-.916l-.524,1.976C695.186,354.143,684.354,361.778,672.4,361.78Zm-7.417-67.451-1.23.609a21.449,21.449,0,0,0-11.339,13.407l-5.459,20.521c-3.485,13.1,4.838,26.72,18.551,30.368s27.7-4.039,31.188-17.136l.629-2.364a10.789,10.789,0,0,1-3.86-4.466l1.484-.695A9.191,9.191,0,1,0,705.632,321.8a8.837,8.837,0,0,0-5.792.354l-.664-.015C675.922,311.135,666.9,297.584,664.984,294.329Z" transform="translate(-644.522 -292.515)" fill="#0c2238"/>
      </g>
      <g id="Group_40813" data-name="Group 40813" transform="translate(959.554 402.354)">
        <path id="Path_302721" data-name="Path 302721" d="M769.656,441.491l-.565-1.535c14.162-5.228,20.96-12.616,22.372-14.295-2.73-6.793-35.709-88.365-56.97-117.838-25.549-35.415-52.963-20.9-53.236-20.753l-.6.077c-.5-.126-12.393-2.849-22.228,16.076-5.916,11.38-18.452,53.113-29.191,103.255l-1.6-.342c10.768-50.277,23.373-92.191,29.34-103.668,9.714-18.687,21.645-17.377,23.773-16.977,3.06-1.488,30.089-13.255,55.07,21.374,22.2,30.771,56.993,117.758,57.342,118.633l-.1.793C792.784,426.66,786.145,435.408,769.656,441.491Z" transform="translate(-627.639 -282.374)" fill="#0c2238"/>
      </g>
      <path id="Path_302722" data-name="Path 302722" d="M769.061,440.437c16.45-6.069,23.029-14.921,23.029-14.921S757.241,338.1,734.844,307.059c-26.27-36.418-54.294-20.993-54.294-20.993s-12.862-3.314-23.157,16.492c-6.054,11.647-18.738,54.314-29.265,103.463l12.912-6.573,12.3-4.594s10.682-2.667,13.51-2.964a13.21,13.21,0,0,0,4.265-1.027l-.282-25.474-1.119-1.57a31.672,31.672,0,0,1-12.321-14c-4.43-9.758.092-18.193,1.869-24.876l3.031-11.321s2.738-7.027,7.481-10.658,6.172-3.228,6.172-3.228,7.484,10.748,14.493,15.807,18.152,11.366,18.152,11.366,2.97.878,4.243-.023,10.279,1.1,10.915,9.46-8.125,10.353-8.125,10.353l-3.49.051-3.175-.7s-2.3,6.745-3.727,8.841-2.141,3.66-4.764,5.692-5.934,4.556-5.934,4.556L695.19,392s25.471,5.274,40.966,17.147h0l9.608,6.9s9.616,8.389,11.531,10.394,7.322,8.2,7.322,8.2l4.443,5.8Z" transform="translate(332.227 120.266)" fill="#0c2238"/>
      <g id="Group_40814" data-name="Group 40814" transform="translate(1002.241 484.649)">
        <path id="Path_302723" data-name="Path 302723" d="M666.469,365.009a20.606,20.606,0,0,1-12.139-4.119l-.339-.241-.3-28.031,1.638-.015.288,27.191a18.828,18.828,0,0,0,21.963.02l.066-27.206,1.638,0-.069,28-.3.247A21.571,21.571,0,0,1,666.469,365.009Z" transform="translate(-653.693 -332.603)" fill="#0c2238"/>
      </g>
      <g id="Group_40815" data-name="Group 40815" transform="translate(959.151 510.963)">
        <path id="Path_302724" data-name="Path 302724" d="M628.26,365.408l-.867-1.389c23.883-14.913,43.978-15.352,44.178-15.355l.023,1.638C671.4,350.306,651.73,350.755,628.26,365.408Z" transform="translate(-627.393 -348.664)" fill="#0c2238"/>
      </g>
      <g id="Group_40816" data-name="Group 40816" transform="translate(947.141 553.706)">
        <rect id="Rectangle_12921" data-name="Rectangle 12921" width="118.248" height="1.637" transform="matrix(0.252, -0.968, 0.968, 0.252, 0, 114.427)" fill="#0c2238"/>
      </g>
      <g id="Group_40817" data-name="Group 40817" transform="translate(947.144 668.079)">
        <rect id="Rectangle_12922" data-name="Rectangle 12922" width="1.64" height="53.582" transform="translate(0 1.616) rotate(-80.268)" fill="#0c2238"/>
      </g>
      <g id="Group_40818" data-name="Group 40818" transform="translate(1039.28 732.925)">
        <rect id="Rectangle_12923" data-name="Rectangle 12923" width="1.639" height="6.8" transform="translate(0 1.629) rotate(-83.542)" fill="#0c2238"/>
      </g>
      <g id="Group_40820" data-name="Group 40820" transform="translate(905.498 392.721)">
        <path id="Path_302726" data-name="Path 302726" d="M583.956,279.787l-1.483-.7a11.231,11.231,0,0,1,6.86-5.613c3.57-.967,7.664-.089,12.191,2.608-.814-3.1-1.724-8.824,1.073-12.9,2.045-2.98,5.651-4.491,10.722-4.491v1.638c-4.5,0-7.65,1.271-9.37,3.78-3.451,5.033-.241,13.5-.208,13.589l-1.23.968c-4.869-3.355-9.15-4.574-12.727-3.613A9.734,9.734,0,0,0,583.956,279.787Z" transform="translate(-582.473 -258.689)" fill="#f4f6f8"/>
      </g>
      <g id="Group_40821" data-name="Group 40821" transform="translate(526.003 181.015)">
        <path id="Path_302727" data-name="Path 302727" d="M377.353,165.521l-1.383-.734c.018-.09,1.673-9.1-2.662-13.476-2.164-2.181-5.525-2.879-10-2.064l-.293-1.614c5.04-.913,8.89-.062,11.457,2.53,3.519,3.554,3.639,9.414,3.39,12.64,4.014-3.5,7.922-5.112,11.651-4.8a11.332,11.332,0,0,1,7.823,4.337l-1.335.95a9.835,9.835,0,0,0-6.65-3.657C385.627,159.323,381.587,161.307,377.353,165.521Z" transform="translate(-363.019 -147.279)" fill="#0c2238"/>
      </g>
      <g id="Group_40822" data-name="Group 40822" transform="translate(228.085 521.662)">
        <path id="Path_302728" data-name="Path 302728" d="M207.409,376.265l-1.532-.326c-.011-.131-1.306-13.312-9.129-17.688-3.93-2.2-8.923-1.833-14.839,1.094l-.726-1.47c6.431-3.178,11.939-3.536,16.369-1.052,6.521,3.65,8.852,12.383,9.617,16.612,4.181-6.75,8.991-10.7,14.321-11.751a15.8,15.8,0,0,1,12.142,2.8l-1.021,1.283a14.36,14.36,0,0,0-10.828-2.466C216.444,364.361,211.606,368.724,207.409,376.265Z" transform="translate(-181.183 -355.194)" fill="#0c2238"/>
      </g>
      <path id="Path_302729" data-name="Path 302729" d="M662.3,335.261l10.423,7.83-.172-10.358S667.115,335.292,662.3,335.261Z" transform="translate(354.04 152.129)" fill="#0c2238"/>
      <g id="Group_40823" data-name="Group 40823" transform="translate(994.925 561.342)">
        <path id="Path_302730" data-name="Path 302730" d="M650.809,512.535l-1.581-.426,30.086-112.084a27.708,27.708,0,0,1,24.1-20.477,26.988,26.988,0,0,1,9.657.778l.2.051a27.653,27.653,0,0,1,20.362,24.7L732,405.2a26.015,26.015,0,0,0-19.158-23.239l.018-.841-.21.793a25.371,25.371,0,0,0-9.078-.732,26.066,26.066,0,0,0-22.67,19.268Z" transform="translate(-649.228 -379.413)" fill="#0c2238"/>
      </g>
      <g id="Group_40824" data-name="Group 40824" transform="translate(1038.116 623.056)">
        <rect id="Rectangle_12924" data-name="Rectangle 12924" width="119.041" height="1.639" transform="matrix(0.264, -0.965, 0.965, 0.264, 0, 114.829)" fill="#0c2238"/>
      </g>
      <g id="Group_40825" data-name="Group 40825" transform="translate(1026.826 511.46)">
        <path id="Path_302731" data-name="Path 302731" d="M742.8,399.1c-29.655-41.437-73.655-48.446-74.1-48.513l.244-1.619c.447.067,45.131,7.184,75.184,49.176Z" transform="translate(-668.699 -348.967)" fill="#0c2238"/>
      </g>
      <g id="Group_40826" data-name="Group 40826" transform="translate(1081.327 575.427)">
        <rect id="Rectangle_12925" data-name="Rectangle 12925" width="32.191" height="1.638" transform="matrix(0.907, -0.422, 0.422, 0.907, 0, 13.587)" fill="#0c2238"/>
      </g>
      <g id="Group_40827" data-name="Group 40827" transform="translate(1037.679 599.254)">
        <path id="Path_302732" data-name="Path 302732" d="M703.957,419.049c-4.291-.185-23.648-3.634-27.787-9.322a3.76,3.76,0,0,1-.714-3.329,4.779,4.779,0,0,1,2.481-3.088,9.348,9.348,0,0,1,6.334-.365l-.551,1.542a7.8,7.8,0,0,0-5.028.277,3.166,3.166,0,0,0-1.658,2.071,2.182,2.182,0,0,0,.46,1.93c3.586,4.928,22.059,8.456,26.534,8.647Z" transform="translate(-675.323 -402.552)" fill="#0c2238"/>
      </g>
      <g id="Group_40828" data-name="Group 40828" transform="translate(1040.612 581.916)">
        <path id="Path_302733" data-name="Path 302733" d="M764.79,438.185l-36.931-28.536c-5.028-4.81-8.361-7.637-12.578-11.215l-1.386-1.176c-3.213-2.731-6.272-4.085-7.971-3.532a2.349,2.349,0,0,0-1.494,1.894c-.588,2.408,2.5,4.32,5.23,6.006,2.608,1.612,5.072,3.134,4,5.2l-.215.262c-5.1,4.085-13.9.929-21.664-1.858-5.338-1.917-10.861-3.9-12.3-2.036a2.643,2.643,0,0,0-.377,3.144c2.748,5,19.074,8.754,24.025,8.3l.144,1.632c-4.8.411-22.317-3.154-25.6-9.144a4.269,4.269,0,0,1,.514-4.932c2.159-2.811,7.451-.914,14.148,1.491,7.263,2.607,15.481,5.559,19.913,2.258.093-.732-1.861-1.941-3.45-2.923-3.043-1.884-6.832-4.224-5.959-7.79a3.916,3.916,0,0,1,2.582-3.064c2.3-.744,5.784.654,9.537,3.844l1.383,1.175c4.239,3.6,7.586,6.437,12.584,11.225l36.865,28.48Z" transform="translate(-677.113 -391.971)" fill="#0c2238"/>
      </g>
      <g id="Group_40829" data-name="Group 40829" transform="translate(947.369 575.437)">
        <path id="Path_302734" data-name="Path 302734" d="M635.093,411.409a16.255,16.255,0,0,1-5.811-1.211l.588-1.53c5.082,1.958,7.815.8,8.682.277-.359-2.041-2.8-11.156-18.35-19.485l.775-1.443c18.447,9.883,19.246,20.8,19.269,21.26l-.25.637A7.213,7.213,0,0,1,635.093,411.409Z" transform="translate(-620.202 -388.016)" fill="#0c2238"/>
      </g>
      <path id="Path_302735" data-name="Path 302735" d="M630.4,394.681l-4.473,10.5,2.36.119,4.05.321,2.885-.7.146-1.195-1.69-3.992Z" transform="translate(330.82 191.676)" fill="#0c2238"/>
      <g id="Group_40842" data-name="Group 40842" transform="translate(932.242 513.589)">
        <g id="Group_40830" data-name="Group 40830" transform="translate(44.239 11.878)">
          <path id="Path_302736" data-name="Path 302736" d="M650.689,377.075s-18.112-13.6-10.233-17.275c0,0,3.252-.727,5.641,3.1,0,0-.28-4.843,3.359-4.881a4.81,4.81,0,0,1,2.666.8,5.119,5.119,0,0,1,2.322,4.768s3.036-6.137,7.276-3.96C668.059,362.88,650.689,377.075,650.689,377.075Z" transform="translate(-637.651 -357.198)" fill="#f5b945"/>
          <path id="Path_302737" data-name="Path 302737" d="M650.517,378.049c-1.344-1.008-13.1-10.009-12.526-15.563a3.818,3.818,0,0,1,2.438-3.111l.167-.057a5.929,5.929,0,0,1,5.2,1.8,5.224,5.224,0,0,1,1.193-2.438,3.693,3.693,0,0,1,2.779-1.167h.051a5.686,5.686,0,0,1,3.07.929,5.881,5.881,0,0,1,2.4,3.137,7.815,7.815,0,0,1,3.48-2.7,4.589,4.589,0,0,1,3.644.324,3.148,3.148,0,0,1,1.815,2.535c.559,5.279-11.344,15.17-12.7,16.281Zm-9.486-17.144a2.123,2.123,0,0,0-1.409,1.748c-.39,3.749,7.635,10.807,11.365,13.7,3.786-3.175,11.988-10.864,11.613-14.431a1.534,1.534,0,0,0-.936-1.25,2.96,2.96,0,0,0-2.382-.221c-1.86.613-3.364,2.962-3.786,3.817l-1.553-.4a4.331,4.331,0,0,0-1.951-4.048,4.143,4.143,0,0,0-2.207-.662,2.093,2.093,0,0,0-1.6.647,5.409,5.409,0,0,0-.952,3.367l-1.512.482C643.855,360.659,641.476,360.841,641.03,360.905Z" transform="translate(-637.971 -357.517)" fill="#0c2238"/>
        </g>
        <g id="Group_40831" data-name="Group 40831" transform="translate(75.79 66.239)">
          <path id="Path_302738" data-name="Path 302738" d="M672.931,399.255h0l-2.49,9.273c-3.211,1.458-5.865,2.392-5.865,2.392S652.123,392,660.79,391.194c0,0,3.293.41,4.26,4.833,0,0,1.376-4.653,4.8-3.457a4.671,4.671,0,0,1,2.245,1.638A5.12,5.12,0,0,1,672.931,399.255Z" transform="translate(-656.912 -390.378)" fill="#f5b945"/>
          <path id="Path_302739" data-name="Path 302739" d="M665.161,412.011l-.957-.323c-.921-1.4-8.946-13.848-6.522-18.887a3.819,3.819,0,0,1,3.349-2.105l.175,0a5.912,5.912,0,0,1,4.283,3.468,5.24,5.24,0,0,1,1.951-1.9,3.7,3.7,0,0,1,3-.152,5.46,5.46,0,0,1,2.626,1.914,5.906,5.906,0,0,1,.975,5.756l0,.007-2.489,9.267-.452.533C667.886,411.048,665.272,411.974,665.161,412.011Zm-4.084-19.672a2.123,2.123,0,0,0-1.919,1.173c-1.635,3.4,3.529,12.752,6.064,16.733.908-.337,2.741-1.045,4.841-1.986l2.392-8.9c.672-2.5-.121-3.567-.7-4.343a3.85,3.85,0,0,0-1.843-1.348,2.092,2.092,0,0,0-1.725.061,5.421,5.421,0,0,0-2.036,2.849l-1.586-.057C663.813,393.078,661.542,392.436,661.077,392.339Z" transform="translate(-657.228 -390.696)" fill="#0c2238"/>
        </g>
        <g id="Group_40832" data-name="Group 40832" transform="translate(25.923 104.217)">
          <path id="Path_302740" data-name="Path 302740" d="M639.727,433.328s-9.8-6.423-12.452-11.583l1.311-5.03c.672-.131,3.375-.41,5.652,2.753,0,0-.574-4.8,3.047-5.079a4.935,4.935,0,0,1,2.72.623,5.122,5.122,0,0,1,2.605,4.62s2.654-6.324,7.012-4.424C656.16,418.058,639.727,433.328,639.727,433.328Z" transform="translate(-626.482 -413.556)" fill="#f5b945"/>
          <path id="Path_302741" data-name="Path 302741" d="M639.587,434.333c-.408-.267-10.011-6.6-12.732-11.893l-.064-.582,1.312-5.03.636-.6a6.026,6.026,0,0,1,5.059,1.516,5.258,5.258,0,0,1,1.037-2.508,3.717,3.717,0,0,1,2.7-1.345,5.668,5.668,0,0,1,3.182.723,5.808,5.808,0,0,1,2.594,2.98,7.837,7.837,0,0,1,3.31-2.908,4.564,4.564,0,0,1,3.642.09,3.15,3.15,0,0,1,1.974,2.415c.891,5.236-10.355,15.861-11.639,17.056Zm-11.13-12.373c2.343,4.184,9.48,9.263,11.493,10.645,3.577-3.409,11.271-11.6,10.668-15.139a1.528,1.528,0,0,0-1.014-1.188,2.944,2.944,0,0,0-2.374-.072c-2.186.873-3.544,4.032-3.555,4.063l-1.574-.3a4.316,4.316,0,0,0-2.194-3.927,4.146,4.146,0,0,0-2.254-.514,2.1,2.1,0,0,0-1.548.752,5.418,5.418,0,0,0-.745,3.413l-1.478.575a5.1,5.1,0,0,0-4.333-2.482Z" transform="translate(-626.791 -413.876)" fill="#0c2238"/>
        </g>
        <g id="Group_40833" data-name="Group 40833" transform="translate(0 31.534)">
          <path id="Path_302742" data-name="Path 302742" d="M617.834,384.316c-2-3.457-4.162-7.094-6.439-10.8,1.114-1.229,2.245-2.408,3.359-3.555a4.825,4.825,0,0,1,1.13.786,5.145,5.145,0,0,1,1.442,5.112s4.063-5.5,7.864-2.621C628.565,375.829,622.929,380.761,617.834,384.316Z" transform="translate(-610.697 -369.227)" fill="#f5b945"/>
          <path id="Path_302743" data-name="Path 302743" d="M618.574,385.277l-1.176-.262c-2.115-3.654-4.278-7.279-6.429-10.779l.09-.98c1.122-1.235,2.258-2.423,3.378-3.577l.942-.165a5.514,5.514,0,0,1,1.327.917,5.9,5.9,0,0,1,1.819,3.529,7.808,7.808,0,0,1,3.894-2.038,4.592,4.592,0,0,1,3.536.952,3.168,3.168,0,0,1,1.347,2.644C627.246,378.024,624.392,381.215,618.574,385.277ZM612.688,373.9c1.9,3.1,3.808,6.295,5.677,9.514,6.277-4.5,7.278-6.894,7.3-7.936a1.531,1.531,0,0,0-.7-1.3,3.007,3.007,0,0,0-2.308-.632c-1.941.28-3.832,2.328-4.4,3.092l-1.46-.664a4.343,4.343,0,0,0-1.2-4.338,4.453,4.453,0,0,0-.429-.349C614.339,372.137,613.51,373.009,612.688,373.9Z" transform="translate(-610.969 -369.514)" fill="#0c2238"/>
        </g>
        <g id="Group_40834" data-name="Group 40834" transform="translate(111.32 32.307)">
          <path id="Path_302744" data-name="Path 302744" d="M693.789,386.868l-.2-.049a26.134,26.134,0,0,0-9.372-.754c-3.31-5.5-7.913-14.827-1.868-15.581,0,0,3.326.295,4.424,4.669,0,0,1.212-4.686,4.686-3.6a4.869,4.869,0,0,1,2.294,1.573,5.11,5.11,0,0,1,.754,5.259s4.768-4.915,8.127-1.54C705.667,379.888,699.327,384.033,693.789,386.868Z" transform="translate(-678.599 -369.668)" fill="#f5b945"/>
          <path id="Path_302745" data-name="Path 302745" d="M693.909,387.982l-.108-.028a25.549,25.549,0,0,0-9.183-.757l-.785-.392c-2.938-4.887-6.1-11.411-4.479-14.736a3.833,3.833,0,0,1,3.214-2.081l.172,0a5.9,5.9,0,0,1,4.4,3.3,5.218,5.218,0,0,1,1.874-1.943,3.714,3.714,0,0,1,3-.26,5.733,5.733,0,0,1,2.685,1.835,5.834,5.834,0,0,1,1.334,3.734,7.768,7.768,0,0,1,4.134-1.5,4.437,4.437,0,0,1,3.359,1.425,3.171,3.171,0,0,1,.983,2.81c-.393,2.477-3.677,5.266-10.039,8.525Zm-6.748-2.551a27.025,27.025,0,0,1,6.845.885c7.338-3.8,8.723-6.126,8.892-7.183a1.539,1.539,0,0,0-.528-1.4,3.008,3.008,0,0,0-2.184-.942c-2.344.01-4.75,2.451-4.774,2.474l-1.355-.854a4.312,4.312,0,0,0-.619-4.458,4.053,4.053,0,0,0-1.9-1.309,2.109,2.109,0,0,0-1.719.123,5.227,5.227,0,0,0-1.933,2.906l-1.588-.007c-.855-3.4-3.162-3.963-3.627-4.042a2.218,2.218,0,0,0-1.842,1.157c-.975,2,.536,6.627,4.147,12.735Q686.069,385.43,687.16,385.431Z" transform="translate(-678.914 -369.986)" fill="#0c2238"/>
        </g>
        <g id="Group_40835" data-name="Group 40835" transform="translate(83.329 32.298)">
          <circle id="Ellipse_3362" data-name="Ellipse 3362" cx="2.718" cy="2.718" r="2.718" transform="translate(0.819 0.82)" fill="#f5b945"/>
          <path id="Path_302746" data-name="Path 302746" d="M665.365,377.055a3.537,3.537,0,1,1,3.537-3.537A3.541,3.541,0,0,1,665.365,377.055Zm0-5.436a1.9,1.9,0,1,0,1.9,1.9A1.9,1.9,0,0,0,665.365,371.618Z" transform="translate(-661.829 -369.98)" fill="#0c2238"/>
        </g>
        <g id="Group_40836" data-name="Group 40836" transform="translate(97.771)">
          <circle id="Ellipse_3363" data-name="Ellipse 3363" cx="2.718" cy="2.718" r="2.718" transform="translate(0.819 0.818)" fill="#f5b945"/>
          <path id="Path_302747" data-name="Path 302747" d="M674.181,357.34a3.536,3.536,0,1,1,3.536-3.537A3.541,3.541,0,0,1,674.181,357.34Zm0-5.435a1.9,1.9,0,1,0,1.9,1.9A1.9,1.9,0,0,0,674.181,351.905Z" transform="translate(-670.644 -350.267)" fill="#0c2238"/>
        </g>
        <g id="Group_40837" data-name="Group 40837" transform="translate(47.064 71.476)">
          <circle id="Ellipse_3364" data-name="Ellipse 3364" cx="2.718" cy="2.718" r="2.718" transform="translate(0.82 0.818)" fill="#f5b945"/>
          <path id="Path_302748" data-name="Path 302748" d="M643.232,400.966a3.536,3.536,0,1,1,3.537-3.537A3.542,3.542,0,0,1,643.232,400.966Zm0-5.434a1.9,1.9,0,1,0,1.9,1.9A1.9,1.9,0,0,0,643.232,395.531Z" transform="translate(-639.695 -393.893)" fill="#0c2238"/>
        </g>
        <g id="Group_40838" data-name="Group 40838" transform="translate(27.687 53.521)">
          <path id="Path_302749" data-name="Path 302749" d="M633.8,386.151a2.718,2.718,0,1,1-2.718-2.718A2.719,2.719,0,0,1,633.8,386.151Z" transform="translate(-627.549 -382.615)" fill="#f5b945"/>
          <path id="Path_302750" data-name="Path 302750" d="M631.405,390.007a3.536,3.536,0,1,1,3.536-3.537A3.542,3.542,0,0,1,631.405,390.007Zm0-5.435a1.9,1.9,0,1,0,1.9,1.9A1.9,1.9,0,0,0,631.405,384.572Z" transform="translate(-627.868 -382.934)" fill="#0c2238"/>
        </g>
        <g id="Group_40839" data-name="Group 40839" transform="translate(67.282 122.353)">
          <circle id="Ellipse_3365" data-name="Ellipse 3365" cx="2.718" cy="2.718" r="2.718" transform="translate(0.819 0.82)" fill="#f5b945"/>
          <path id="Path_302751" data-name="Path 302751" d="M655.571,432.022a3.538,3.538,0,1,1,3.537-3.539A3.541,3.541,0,0,1,655.571,432.022Zm0-5.438a1.9,1.9,0,1,0,1.9,1.9A1.9,1.9,0,0,0,655.571,426.584Z" transform="translate(-652.035 -424.946)" fill="#0c2238"/>
        </g>
        <g id="Group_40840" data-name="Group 40840" transform="translate(33.535 148.492)">
          <circle id="Ellipse_3366" data-name="Ellipse 3366" cx="2.718" cy="2.718" r="2.718" transform="translate(0.819 0.82)" fill="#f5b945"/>
          <path id="Path_302752" data-name="Path 302752" d="M634.974,447.974a3.537,3.537,0,1,1,3.537-3.536A3.54,3.54,0,0,1,634.974,447.974Zm0-5.436a1.9,1.9,0,1,0,1.9,1.9A1.9,1.9,0,0,0,634.974,442.538Z" transform="translate(-631.437 -440.9)" fill="#0c2238"/>
        </g>
        <g id="Group_40841" data-name="Group 40841" transform="translate(156.727 58.956)">
          <circle id="Ellipse_3367" data-name="Ellipse 3367" cx="2.718" cy="2.718" r="2.718" transform="translate(0.819 0.819)" fill="#f5b945"/>
          <path id="Path_302753" data-name="Path 302753" d="M710.165,393.324a3.536,3.536,0,1,1,3.536-3.537A3.541,3.541,0,0,1,710.165,393.324Zm0-5.434a1.9,1.9,0,1,0,1.9,1.9A1.9,1.9,0,0,0,710.165,387.889Z" transform="translate(-706.628 -386.251)" fill="#0c2238"/>
        </g>
      </g>
      <g id="Group_40843" data-name="Group 40843" transform="translate(1039.447 608.755)">
        <path id="Path_302754" data-name="Path 302754" d="M707.908,423.7c-5.472,0-12.067-.4-16.59-1.625-10.546-2.859-14.865-5.6-14.916-9.462-.041-3.149,4.611-4.217,4.809-4.261l.357,1.6c-.038.008-3.55.849-3.527,2.641.025,1.958,1.606,4.624,13.707,7.9,7.3,1.978,20.7,1.707,24.577,1.16l.229,1.622A71.959,71.959,0,0,1,707.908,423.7Z" transform="translate(-676.402 -408.352)" fill="#0c2238"/>
      </g>
      <g id="Group_40844" data-name="Group 40844" transform="translate(932.242 548.987)">
        <path id="Path_302755" data-name="Path 302755" d="M629.491,410.025a55.114,55.114,0,0,0-1.753-5.792c-1.784-4.935-5.266-11.908-10.343-20.724-2.1-3.636-4.263-7.263-6.426-10.779l1.394-.858c2.171,3.529,4.342,7.168,6.45,10.818,5.127,8.9,8.647,15.963,10.464,20.986a56.891,56.891,0,0,1,1.807,5.965Z" transform="translate(-610.969 -371.872)" fill="#0c2238"/>
      </g>
      <g id="Group_40845" data-name="Group 40845" transform="translate(853.573 498.143)">
        <path id="Path_302756" data-name="Path 302756" d="M562.953,345.551v-1.638c7.224,0,10.484-.632,15.851-3.074l.678,1.491C573.924,344.858,570.37,345.551,562.953,345.551Z" transform="translate(-562.953 -340.839)" fill="#0c2238"/>
      </g>
      <g id="Group_40846" data-name="Group 40846" transform="translate(821.648 470.523)">
        <path id="Path_302757" data-name="Path 302757" d="M612.917,343.242a42.04,42.04,0,0,0-7.358-9.055c-4.52-4.389-5.967-5.258-11.95-7.174-5.431-1.728-18.627-1.8-19.787-.472-.611.8-.5,1.278-.369,1.57,1.085,2.338,9.165,3.968,16.22,4.315l.339,1.543c-7.155,3.729-19.661,2.353-29.711,1.245-6.988-.772-14.21-1.568-15.109.133-.166.313-.3,1.337,2.032,4.07l-1.245,1.063c-2.256-2.643-2.967-4.517-2.233-5.9,1.42-2.685,7.848-1.974,16.736-.994,8.375.922,18.5,2.038,25.457.182-4.771-.5-12.506-1.806-13.972-4.969a3.012,3.012,0,0,1,.557-3.255c1.9-2.489,16.826-1.606,21.583-.092,6.239,2,7.881,2.985,12.563,7.533a42.845,42.845,0,0,1,7.656,9.421Z" transform="translate(-543.467 -323.981)" fill="#0c2238"/>
      </g>
      <g id="Group_40847" data-name="Group 40847" transform="translate(870.82 489.705)">
        <path id="Path_302758" data-name="Path 302758" d="M573.734,348.237l-.254-1.62c.157-.023,15.629-2.52,21.74-10.928l1.325.962C590.033,345.616,574.4,348.134,573.734,348.237Z" transform="translate(-573.48 -335.689)" fill="#0c2238"/>
      </g>
      <circle id="Ellipse_3368" data-name="Ellipse 3368" cx="1.988" cy="1.988" r="1.988" transform="translate(889.813 486.634)" fill="#0c2238"/>
      <circle id="Ellipse_3369" data-name="Ellipse 3369" cx="1.988" cy="1.988" r="1.988" transform="translate(876.608 494.906)" fill="#0c2238"/>
      <path id="Path_302759" data-name="Path 302759" d="M682.591,320.309a1.988,1.988,0,1,1-1.987-1.987A1.987,1.987,0,0,1,682.591,320.309Z" transform="translate(364.458 142.929)" fill="#0c2238"/>
      <path id="Path_302760" data-name="Path 302760" d="M587.443,340.945a1.988,1.988,0,1,1-1.987-1.989A1.987,1.987,0,0,1,587.443,340.945Z" transform="translate(303.716 156.102)" fill="#0c2238"/>
      <path id="Path_302761" data-name="Path 302761" d="M576.986,344.841A1.988,1.988,0,1,1,575,342.854,1.988,1.988,0,0,1,576.986,344.841Z" transform="translate(297.04 158.59)" fill="#0c2238"/>
      <g id="Group_40848" data-name="Group 40848" transform="translate(995.867 512.095)">
        <path id="Path_302762" data-name="Path 302762" d="M667.981,359.564a21.85,21.85,0,0,1-18.178-9.352l1.4-.857a20.591,20.591,0,0,0,16.8,8.57Z" transform="translate(-649.803 -349.355)" fill="#0c2238"/>
      </g>
      <path id="Path_302763" data-name="Path 302763" d="M674.389,318.62l1.737,11.992,2.021-4.014.626-3.87-1.891-1.707Z" transform="translate(361.76 143.119)" fill="#0c2238"/>
      <g id="Group_40858" data-name="Group 40858" transform="translate(967.225 693.43)">
        <path id="Path_302773" data-name="Path 302773" d="M703.9,505.516l-71.58-8.2.069-.793c1.96-22.757,16.644-37.737,35.671-36.412,10.271.713,17.632,5.053,23.167,13.663l-1.378.886c-5.3-8.249-12.057-12.232-21.9-12.914-17.9-1.258-31.708,12.757-33.852,34.123l69.99,8.015Z" transform="translate(-632.321 -460.033)" fill="#0c2238"/>
      </g>
      <path id="Path_302774" data-name="Path 302774" d="M718.788,498v4.972c-13.974,2.161-27.61-.061-34.886-7.2l20.9-4.1Z" transform="translate(367.833 253.59)" fill="#ff8080"/>
      <g id="Group_40859" data-name="Group 40859" transform="translate(1045.304 686.137)">
        <path id="Path_302775" data-name="Path 302775" d="M711.554,527.578c-14.626,0-28.59-5.2-31.018-18.088-1.919-10.173,1.2-20.227,7.94-25.621l1.024,1.28c-6.273,5.018-9.16,14.454-7.353,24.038,2.733,14.506,21.627,18.5,38.309,16.115l-1.838-62.962-31.19-5.143.265-1.616,31.857,5.251.687.785,1.878,64.363-.695.834A64.975,64.975,0,0,1,711.554,527.578Z" transform="translate(-679.977 -455.582)" fill="#0c2238"/>
      </g>
      <g id="Group_40860" data-name="Group 40860" transform="translate(828.112 490.948)">
        <path id="Path_302776" data-name="Path 302776" d="M572.844,348.354c-15.368-.532-23.647-3.287-25.31-8.423a2.043,2.043,0,0,1,.387-2.063c2.9-3.254,20.372,0,23.845.691l-.316,1.607c-8.258-1.632-20.635-3.087-22.3-1.209-.061.067-.151.167-.054.469,1.385,4.278,9.619,6.8,23.811,7.289Z" transform="translate(-547.413 -336.448)" fill="#0c2238"/>
      </g>
      <g id="Group_40861" data-name="Group 40861" transform="translate(822.129 485.073)">
        <path id="Path_302777" data-name="Path 302777" d="M550.854,341.452c-5.9-.672-7.021-4.661-7.066-4.832a2.452,2.452,0,0,1,.785-2.25c4.168-3.8,26.1.713,28.583,1.239l-.339,1.6c-9.077-1.924-24.469-4.068-27.14-1.632a.78.78,0,0,0-.283.734c.013.007.906,2.969,5.646,3.508Z" transform="translate(-543.761 -332.862)" fill="#0c2238"/>
      </g>
      <g id="Group_41019" data-name="Group 41019" transform="translate(8.384 5.875)">
        <g id="Group_40878" data-name="Group 40878" transform="translate(633.525 248.893)">
          <g id="Group_40819" data-name="Group 40819" transform="translate(4.109 68.03)">
            <path id="Path_302725" data-name="Path 302725" d="M451.245,330.914c-6.16,0-10.582-4.566-12.231-6.581-14.421.4-149.244,4.176-154.733,4.1l-2.03-2.048V316.316h4.1v8c18.8-.347,152.177-4.065,153.6-4.1l1.748.891c.047.067,5.028,7.148,11.764,5.43,8.041-2.068,7.242-7.853,7.125-8.507l1.068-2.2,142.2-73.734-5.947-4.915,2.608-3.157,8.335,6.886-.362,3.4L464.764,318.824c.062,3.778-1.963,9.534-10.287,11.674A12.949,12.949,0,0,1,451.245,330.914Z" transform="translate(-282.252 -234.018)" fill="#f4f6f8"/>
          </g>
          <g id="Group_40849" data-name="Group 40849" transform="translate(127.862)">
            <path id="Path_302764" data-name="Path 302764" d="M403.607,342.4l-1.427-.087L357.84,250.1l-.054-.564c.044-.167,4.586-16.844,21.866-31.965,15.9-13.91,46.162-29.358,100.045-23.973l.524.265,62.247,68.531-.68,1.366c-.436-.036-43.947-3.68-79.021,18.948C427.59,305.4,403.843,342.034,403.607,342.4Zm-44.155-92.734,43.581,90.642c4.455-6.575,27-38.437,58.846-58.98C493.076,261.2,530.813,261.577,539.9,262L479.22,195.193c-53.1-5.235-82.865,9.938-98.489,23.608C365.052,232.52,360.119,247.445,359.452,249.666Z" transform="translate(-357.786 -192.496)" fill="#f4f6f8"/>
          </g>
          <g id="Group_40850" data-name="Group 40850" transform="translate(179.469 23.664)">
            <path id="Path_302765" data-name="Path 302765" d="M390.517,333.279l-1.232-1.08c.375-.428,37.822-42.877,67.259-53.769,11.588-4.286,23.1-7.078,33.251-9.54,19.48-4.725,34.94-8.472,42.641-19.738l-53.084-40.915,1-1.3,53.69,41.381.188,1.091c-7.905,12.306-24.655,16.368-44.048,21.071-10.11,2.451-21.571,5.231-33.069,9.485C428.061,290.716,390.889,332.854,390.517,333.279Z" transform="translate(-389.285 -206.939)" fill="#f4f6f8"/>
          </g>
          <g id="Group_40851" data-name="Group 40851" transform="translate(12.25 39.441)">
            <path id="Path_302766" data-name="Path 302766" d="M447.087,327.672c-84.484-57.8-153.606-12.032-154.292-11.562l-1.281-.637-4.293-86.283.513-.8c73.071-29.273,115.988,5,116.413,5.351L403.106,235c-.416-.342-42.429-33.821-114.22-5.312l4.194,84.3c4.43-2.708,20.739-11.854,44.513-15.63,25.752-4.089,65.814-2.559,110.419,27.961Z" transform="translate(-287.221 -216.569)" fill="#f4f6f8"/>
          </g>
          <g id="Group_40852" data-name="Group 40852" transform="translate(0 51.919)">
            <path id="Path_302767" data-name="Path 302767" d="M445.349,325.89c-.439-.19-44.184-19-72.215-19.027-25.207-.059-40.37,5.479-53.728,10.335-12.66,4.6-23.593,8.577-39.018,5.331l-.644-.9L292,224.185l1.625.2-12.162,96.688c14.57,2.874,24.663-.8,37.383-5.42,12.819-4.66,28.757-10.484,54.29-10.433,28.372.026,72.423,18.971,72.864,19.161Z" transform="translate(-279.744 -224.185)" fill="#f4f6f8"/>
          </g>
          <g id="Group_40863" data-name="Group 40863" transform="translate(278.153 84.866)">
            <path id="Path_302779" data-name="Path 302779" d="M449.976,252.307l-.459-1.573c13.884-4.053,24.761-6.416,24.869-6.441l.346,1.6C474.625,245.919,463.8,248.272,449.976,252.307Z" transform="translate(-449.517 -244.294)" fill="#f4f6f8"/>
          </g>
          <g id="Group_40864" data-name="Group 40864" transform="translate(189.228 100.057)">
            <path id="Path_302780" data-name="Path 302780" d="M396.411,298.445l-1.17-1.147a233.96,233.96,0,0,1,40.847-31.637c6.654-4.05,15.5-8.12,26.293-12.095l.567,1.538c-10.694,3.937-19.444,7.959-26.009,11.955A232.176,232.176,0,0,0,396.411,298.445Z" transform="translate(-395.241 -253.566)" fill="#f4f6f8"/>
          </g>
          <g id="Group_40865" data-name="Group 40865" transform="translate(77.946 141.953)">
            <path id="Path_302781" data-name="Path 302781" d="M403.222,290.868c-.256-.034-25.654-3.542-37.686-1.707l-.246-1.619c8.656-1.319,23.56,0,31.963.939-34.629-12.86-69.23-5.777-69.594-5.7l-.339-1.6c.392-.082,39.431-8.071,76.344,8.128Z" transform="translate(-327.32 -279.137)" fill="#f4f6f8"/>
          </g>
        </g>
      </g>
      <g id="Group_41020" data-name="Group 41020" transform="translate(10.326 23.934)">
        <g id="Group_40853" data-name="Group 40853" transform="translate(968.213 224.829)">
          <path id="Path_302768" data-name="Path 302768" d="M648.645,171.9c-3.031-.4-76.6-12.933-84.723-14.318-1.286,1.171-4.878,3.9-9.046,2.171-4.422-1.832-5.123-5.158-4.81-7.265L476.9,100.338l.072-2.048,5.12-3.138,1.284,2.1-3.537,2.166,72.328,51.555.446,1.407c-.108.329-.971,3.378,3.208,5.108,3.506,1.452,6.757-2.012,6.789-2.048l1.112-.38c.775.133,73.413,12.511,84.045,14.223l.613-4.306,2.431.346-.786,5.538Z" transform="translate(-476.896 -95.152)" fill="#f4f6f8"/>
        </g>
        <g id="Group_40854" data-name="Group 40854" transform="translate(989.044 190.136)">
          <path id="Path_302769" data-name="Path 302769" d="M550.486,165.632l-1.5-.469c0-.251.2-25.2-17.139-40.226-17.437-15.106-41.512-16.484-41.754-16.5l-.482-1.448,39.574-32.828.556-.188c20.737.857,35.691,6.673,44.441,17.29a36.44,36.44,0,0,1,8.007,26.784l-.128.333Zm-58.3-58.645c6.257.691,25.849,3.819,40.732,16.712,14.585,12.634,17.161,31.993,17.611,38.918l30.061-44.984A35.484,35.484,0,0,0,572.9,92.288c-8.4-10.174-22.839-15.779-42.913-16.659Z" transform="translate(-489.61 -73.977)" fill="#f4f6f8"/>
        </g>
        <g id="Group_40855" data-name="Group 40855" transform="translate(972.113 191.758)">
          <path id="Path_302770" data-name="Path 302770" d="M551.816,164.44c-.17-.262-17.275-26.255-32.327-34.387a155.311,155.311,0,0,0-17.785-7.818c-10.689-4.152-19.919-7.736-22.428-15.249l.282-.911,40.929-31.108,1.258.354a12,12,0,0,0,5.829,5.641l-.711,1.476a14.1,14.1,0,0,1-6.17-5.571l-39.662,30.146c2.528,6.416,10.83,9.64,21.266,13.694a156.933,156.933,0,0,1,17.97,7.9c15.419,8.33,32.212,33.851,32.922,34.932Z" transform="translate(-479.276 -74.967)" fill="#f4f6f8"/>
        </g>
        <g id="Group_40856" data-name="Group 40856" transform="translate(1048.77 210.662)">
          <path id="Path_302771" data-name="Path 302771" d="M527,157.852l-.936-1.347c51.929-36.079,78.277-22.287,83.571-18.707l13.191-43.29c-36.741-20.6-63.787,15.537-64.059,15.905l-1.321-.968c.279-.382,28.469-38.063,66.763-16.037l.375.949-13.718,45.025-1.309.39C609.3,139.56,583.167,118.824,527,157.852Z" transform="translate(-526.064 -86.505)" fill="#f4f6f8"/>
        </g>
        <g id="Group_40857" data-name="Group 40857" transform="translate(1052.456 234.557)">
          <path id="Path_302772" data-name="Path 302772" d="M619.721,162.116c-10.23-.65-16.53-5.225-23.2-10.068-7.664-5.567-15.593-11.321-30.5-11.718-16.8-.434-36.707,10.569-36.906,10.679l-.8-1.429c.824-.464,20.422-11.375,37.752-10.889,15.412.41,23.547,6.318,31.416,12.031,6.309,4.579,12.276,8.913,21.607,9.7l9.4-56.5c-2.328.613-7.307,1.386-11.737-1.458l.886-1.38c5.179,3.328,11.515.922,11.58.9l1.106.9-9.74,58.548Z" transform="translate(-528.314 -101.089)" fill="#f4f6f8"/>
        </g>
        <g id="Group_40862" data-name="Group 40862" transform="translate(1054.707 280.572)">
          <path id="Path_302778" data-name="Path 302778" d="M530.107,134.041l-.419-1.584c.783-.2,19.272-5.023,32.432-2.605l-.3,1.612C549.029,129.106,530.3,133.99,530.107,134.041Z" transform="translate(-529.688 -129.175)" fill="#f4f6f8"/>
        </g>
        <g id="Group_40866" data-name="Group 40866" transform="translate(1001.679 245.657)">
          <path id="Path_302782" data-name="Path 302782" d="M528.571,133.534a102.917,102.917,0,0,0-31.249-24.214l.749-1.457a104.565,104.565,0,0,1,31.742,24.6Z" transform="translate(-497.322 -107.864)" fill="#f4f6f8"/>
        </g>
      </g>
      <g id="Group_40867" data-name="Group 40867" transform="translate(1071.303 434.371)">
        <rect id="Rectangle_12926" data-name="Rectangle 12926" width="1.639" height="121.393" transform="matrix(0.88, -0.475, 0.475, 0.88, 0, 0.778)" fill="#0c2238"/>
      </g>
      <g id="Group_40868" data-name="Group 40868" transform="translate(959.967 430.441)">
        <rect id="Rectangle_12927" data-name="Rectangle 12927" width="74.252" height="1.639" transform="matrix(0.344, -0.939, 0.939, 0.344, 0, 69.732)" fill="#0c2238"/>
      </g>
      <path id="Path_302783" data-name="Path 302783" d="M679.461,414.378l22.987,16.44,2.37-11.6-11.755-.911Z" transform="translate(364.997 204.25)" fill="#0c2238"/>
      <path id="Path_302784" data-name="Path 302784" d="M697.768,457.736l-16.825,20.153,6.547-21.619,6.547.648Z" transform="translate(365.944 230.994)" fill="#0c2238"/>
      <path id="Path_302785" data-name="Path 302785" d="M711.386,395l19.995,3.827c-2.109-3.924-4.112-7.524-5.856-10.32Z" transform="translate(385.378 187.733)" fill="#0c2238"/>
      <g id="Group_40869" data-name="Group 40869" transform="translate(1043.159 623.069)">
        <rect id="Rectangle_12928" data-name="Rectangle 12928" width="54.108" height="1.639" transform="translate(0 52.306) rotate(-75.174)" fill="#0c2238"/>
      </g>
      <g id="Group_40870" data-name="Group 40870" transform="translate(998.187 683.641)">
        <rect id="Rectangle_12929" data-name="Rectangle 12929" width="1.639" height="53.39" transform="matrix(0.197, -0.98, 0.98, 0.197, 0, 1.606)" fill="#0c2238"/>
      </g>
      <g id="Group_40871" data-name="Group 40871" transform="translate(1038.11 683.264)">
        <rect id="Rectangle_12930" data-name="Rectangle 12930" width="9.707" height="1.64" transform="translate(0 9.282) rotate(-72.977)" fill="#0c2238"/>
      </g>
      <g id="Group_40872" data-name="Group 40872" transform="translate(1031.901 671.672)">
        <rect id="Rectangle_12931" data-name="Rectangle 12931" width="19.715" height="1.638" transform="translate(0 19.609) rotate(-84.057)" fill="#0c2238"/>
      </g>
      <g id="Group_40873" data-name="Group 40873" transform="translate(940.219 679.876)">
        <rect id="Rectangle_12932" data-name="Rectangle 12932" width="1.64" height="57.301" transform="matrix(0.158, -0.988, 0.988, 0.158, 0, 1.619)" fill="#0c2238"/>
      </g>
      <g id="Group_40874" data-name="Group 40874" transform="translate(1155.575 740.922)">
        <rect id="Rectangle_12933" data-name="Rectangle 12933" width="1.638" height="95.587" transform="matrix(0.504, -0.864, 0.864, 0.504, 0, 1.415)" fill="#0c2238"/>
      </g>
      <g id="Group_40875" data-name="Group 40875" transform="translate(1084.874 708.125)">
        <rect id="Rectangle_12934" data-name="Rectangle 12934" width="1.64" height="68.457" transform="translate(0 1.514) rotate(-67.407)" fill="#0c2238"/>
      </g>
      <path id="Path_302786" data-name="Path 302786" d="M248.463,520.3l-.873,8.428s-.07,4.91.111,7.234,1.717,10.654,1.717,10.654l2.687-2.771,11.125-15.825,1-.069,14.292,14.772.559-.947-1.268-12.291.447-11.565.708-3.487Z" transform="translate(150.679 268.126)" fill="#ff8080"/>
      <path id="Path_302787" data-name="Path 302787" d="M257.856,501.544l33.052-7.058-1.084,1.829-6.349,13.3-5.5,21.023L248.311,533.9l3.441-17.046Z" transform="translate(151.147 255.391)" fill="#ff8080"/>
      <g id="Group_40876" data-name="Group 40876" transform="translate(397.43 748.756)">
        <path id="Path_302788" data-name="Path 302788" d="M250.365,561.336l-1.468-.3c-7.389-32.871,10.053-59.456,10.23-59.721l.506-.344,33.13-7.173.859,1.25c-.061.092-6.074,9.234-8.151,14.21-4.609,11.043-9.168,28.356-4.727,48.119l-1.4.741L264.171,541.91Zm9.948-58.835c-1.763,2.81-16.06,26.794-10.2,56.361l13.3-18.719,1.266-.085,13.877,14.826c-3.509-18.991.922-35.527,5.4-46.253a105.845,105.845,0,0,1,7.214-12.809Z" transform="translate(-247.073 -493.802)" fill="#0c2238"/>
      </g>
      <path id="Path_302789" data-name="Path 302789" d="M424.479,515.051s35.478,13.584,74.5,0C498.982,515.051,465.558,537.6,424.479,515.051Z" transform="translate(263.612 268.519)" fill="#6f77a8"/>
      <g id="Group_40877" data-name="Group 40877" transform="translate(316.997 575.298)">
        <path id="Path_302790" data-name="Path 302790" d="M606.124,583.265S599.688,498.48,499.808,464.33c-97.615-33.374-209.013,40.784-301.547-2.569,46.525-31.682,96.349-57.024,150.863-73.351,45.12,26.722,259.493-5.436,256.485,160.769Z" transform="translate(-197.801 -387.625)" fill="#fff"/>
        <path id="Path_302791" data-name="Path 302791" d="M605.487,583.635c-.016-.211-1.771-21.369-15.642-46.4-12.793-23.082-38.812-54.281-90.123-71.825-46.586-15.927-97.05-7.132-145.851,1.373-52.779,9.2-107.359,18.71-155.777-3.975l-.115-1.419c49.758-33.884,99.18-57.912,151.089-73.459l.652.077c11.683,6.921,35.512,9.925,63.106,13.405,78.055,9.845,196.014,24.72,193.781,148.086l.514,34.061ZM441.558,454.92c19.938,0,39.616,2.418,58.7,8.941,51.842,17.726,78.135,49.293,91.065,72.653a139.657,139.657,0,0,1,14,36.459l-.354-23.475c.975-53.883-20.475-91.543-65.575-115.159-38.517-20.17-87.452-26.34-126.772-31.3-27.535-3.472-51.347-6.475-63.424-13.438-51.206,15.378-100,39.044-149.1,72.33,47.628,21.687,101.434,12.309,153.491,3.237C382.7,460.1,412.4,454.92,441.558,454.92Z" transform="translate(-197.98 -387.931)" fill="#0c2238"/>
      </g>
    </g>
  </g>
</svg>
