<?xml version="1.0" encoding="UTF-8" standalone="no"?>
<!DOCTYPE svg PUBLIC "-//W3C//DTD SVG 1.1//EN" "http://www.w3.org/Graphics/SVG/1.1/DTD/svg11.dtd">
<svg width="100%" height="100%" viewBox="0 0 375 520" version="1.1" xmlns="http://www.w3.org/2000/svg" xmlns:xlink="http://www.w3.org/1999/xlink" xml:space="preserve" xmlns:serif="http://www.serif.com/" style="fill-rule:evenodd;clip-rule:evenodd;stroke-linejoin:round;stroke-miterlimit:2;">
    <g transform="matrix(1,0,0,1,-81.636,58.127)">
        <g id="Mask_Group_164">
            <g id="Group_41061">
                <g id="Character">
                    <g id="Path_302933" transform="matrix(1,0,0,1,-307.356,-531.67)">
                        <path d="M798.456,727.495C788.524,723.617 778.339,720.419 767.973,717.924C767.573,717.824 767.173,717.724 766.78,717.624C766.732,717.616 766.68,717.6 766.636,717.592C757.511,715.44 748.272,713.8 738.964,712.682C731.756,711.801 724.964,711.288 718.709,711.024C693.76,709.975 677.374,712.906 677.374,712.906L677.014,713.531L667.651,733.314C667.651,733.314 674.098,744.759 681.451,751.714C688.804,758.669 697.245,765.414 697.245,765.414L706.845,772.014L713.261,774.833C712.716,774.633 709.288,773.64 693.054,772.943C674.897,772.166 663.973,773.976 656.38,774.777C648.787,775.578 620.539,780.664 620.539,780.664L594.677,787.192L588.286,789.386L582.007,791.596C576.301,792.839 570.334,792.004 565.188,789.241L555.121,786.278C555.121,786.278 528.331,780.031 502.165,775.21C475.999,770.389 450.874,773.24 450.874,773.24L443.338,773.921L455.48,766.657C474.63,753.883 485.418,734.909 485.418,734.909L485.01,731.561L477.249,714.646L475.607,712.908C475.607,712.908 436.058,705.844 386.345,717.593C386.297,717.601 386.245,717.617 386.201,717.625C385.808,717.725 385.408,717.817 385.008,717.925C374.642,720.42 364.457,723.618 354.525,727.496C313.799,743.426 305.525,769.128 307.664,788.99C308.238,794.314 309.573,799.528 311.629,804.472C313.017,807.937 314.882,811.191 317.171,814.139C325.452,824.302 350.609,852.939 411.03,856.507C418.661,856.943 426.308,856.991 433.944,856.651C447.661,856.012 461.318,854.422 474.815,851.894C488.312,849.366 498.905,846.572 510.024,841.599L511.665,841.05L512.498,841.65L496.215,926.57L492.531,943.117L494.669,943.846L664.832,943.846L655.141,895.615L644.641,842.315C656.332,847.068 678.165,851.891 678.165,851.891C691.662,854.419 705.319,856.009 719.036,856.648C725.243,856.915 731.148,856.944 736.752,856.736C738.514,856.688 740.247,856.611 741.952,856.504C747.735,856.16 753.189,855.591 758.339,854.83C807.039,847.622 828.323,823.33 835.811,814.136C838.1,811.188 839.965,807.934 841.353,804.469C843.409,799.525 844.744,794.311 845.317,788.987C847.456,769.126 839.182,743.425 798.456,727.495Z" style="fill:rgb(70,206,172);fill-rule:nonzero;"/>
                    </g>
                    <g transform="matrix(1,0,0,1,-845.674,-392.573)">
                        <g id="Group_41021">
                            <path id="Path_302934" d="M1161.7,575.21C1161.07,572.551 1160.48,570.123 1159.88,567.785C1158.1,560.856 1156.34,554.924 1154.5,549.649C1147.62,529.957 1139.4,519.213 1129.35,516.805C1110.39,512.256 1097.64,521.874 1097.51,521.972L1096.83,522.115C1096.31,521.988 1084.14,519.248 1076.44,538.922C1074.03,545.09 1073.18,552.438 1072.19,560.946C1071.78,564.553 1071.35,568.283 1070.76,572.191L1069.18,571.955C1069.76,568.073 1070.19,564.355 1070.6,560.762C1071.6,552.143 1072.46,544.7 1074.95,538.338C1082.4,519.284 1094.49,520.127 1096.82,520.489C1098.91,518.989 1111.37,510.842 1129.72,515.248C1140.34,517.794 1148.94,528.875 1156.01,549.122C1157.87,554.44 1159.64,560.415 1161.43,567.388C1162.03,569.736 1162.63,572.174 1163.26,574.842L1161.7,575.21Z" style="fill:rgb(12,34,56);fill-rule:nonzero;"/>
                        </g>
                    </g>
                    <g id="Path_302935" transform="matrix(1,0,0,1,-826.544,-437.929)">
                        <path d="M1077.47,578.141L1066.97,601.422L1052.96,616.7C1052.96,616.7 1043.8,618.138 1042.26,627.45C1040.73,636.762 1050.71,643.197 1052.66,642.796C1054.62,642.395 1064.17,639.288 1064.17,639.288C1064.17,639.288 1067.07,657.911 1077.47,663.057L1081.12,678.757L1082.38,682.041L1082.69,694.581C1087.24,697.434 1092.6,698.738 1097.95,698.296C1107.15,697.644 1109.25,693.796 1109.25,693.796L1109.25,664.905L1126.58,650.237L1127.15,641.537C1127.15,641.537 1139.12,645.367 1144.96,636.866C1150.81,628.365 1145.54,621.811 1141.28,618.751C1137.02,615.691 1125.46,619.358 1125.46,619.358L1089.67,583.383L1077.47,578.141Z" style="fill:rgb(244,208,181);fill-rule:nonzero;"/>
                    </g>
                    <g id="Path_302936" transform="matrix(1,0,0,1,-715.862,-490.965)">
                        <path d="M885.465,672.83L894.987,669.859L922.905,658.794C922.905,658.794 941.942,650.882 941.976,653.871C942.01,656.86 932.86,661.824 932.86,661.824L915.175,669.859L916.201,670.81C916.201,670.81 925.911,671.818 924.276,679.144C922.641,686.47 920.331,690.531 916.92,691.305L914.279,688.941C913.504,690.693 911.764,691.832 909.848,691.841C906.531,691.881 907.548,687.067 907.548,687.067C907.548,687.067 898.782,693.42 894.307,692.324L885.465,672.83Z" style="fill:rgb(244,208,181);fill-rule:nonzero;"/>
                    </g>
                    <g id="Path_302937" transform="matrix(1,0,0,1,-1061.26,-490.965)">
                        <path d="M1430.78,672.83L1421.26,669.859L1393.34,658.794C1393.34,658.794 1374.3,650.882 1374.27,653.871C1374.24,656.86 1383.39,661.824 1383.39,661.824L1401.07,669.859L1400.05,670.81C1400.05,670.81 1390.34,671.818 1391.97,679.144C1393.61,686.47 1395.91,690.531 1399.33,691.305L1401.97,688.941C1402.74,690.693 1404.48,691.832 1406.4,691.841C1409.71,691.881 1408.7,687.067 1408.7,687.067C1408.7,687.067 1417.46,693.42 1421.94,692.324L1430.78,672.83Z" style="fill:rgb(244,208,181);fill-rule:nonzero;"/>
                    </g>
                    <g id="Path_302938" transform="matrix(1,0,0,1,-949.174,-506.105)">
                        <path d="M1215.83,675.489C1215.06,676.829 1216.72,679.239 1219.55,680.872C1222.38,682.505 1225.3,682.743 1226.07,681.403C1226.85,680.063 1225.18,677.653 1222.35,676.02C1219.52,674.387 1216.6,674.149 1215.83,675.489Z" style="fill:rgb(12,34,56);fill-rule:nonzero;"/>
                    </g>
                    <g id="Path_302939" transform="matrix(1,0,0,1,-918.008,-506.105)">
                        <path d="M1181.97,675.489C1182.74,676.829 1181.08,679.239 1178.25,680.872C1175.42,682.505 1172.5,682.743 1171.73,681.403C1170.95,680.063 1172.62,677.653 1175.45,676.02C1178.27,674.387 1181.19,674.149 1181.97,675.489Z" style="fill:rgb(12,34,56);fill-rule:nonzero;"/>
                    </g>
                    <g transform="matrix(1,0,0,1,-957.094,-530.472)">
                        <g id="Group_41022">
                            <path id="Path_302940" d="M1234.74,714.856C1231.28,714.934 1228.12,712.835 1226.85,709.615L1228.37,709.108L1227.61,709.362L1228.37,709.106C1228.44,709.321 1230.25,714.357 1236.86,713.032L1237.17,714.602C1236.37,714.766 1235.56,714.852 1234.74,714.856Z" style="fill:rgb(12,34,56);fill-rule:nonzero;"/>
                        </g>
                    </g>
                    <g transform="matrix(1,0,0,1,-914.289,-531.992)">
                        <g id="Group_41023">
                            <path id="Path_302941" d="M1168.71,717C1167.89,716.996 1167.08,716.911 1166.27,716.746L1166.59,715.176C1173.24,716.504 1175.01,711.467 1175.08,711.253L1176.6,711.76C1175.33,714.979 1172.17,717.077 1168.71,717Z" style="fill:rgb(12,34,56);fill-rule:nonzero;"/>
                        </g>
                    </g>
                    <g transform="matrix(1,0,0,1,-952.123,-576.314)">
                        <g id="Group_41024">
                            <path id="Path_302942" d="M1227.7,773.979L1229.25,774.373C1229.2,774.594 1227.81,779.757 1219.81,779.312L1219.9,777.712C1226.54,778.1 1227.66,774.148 1227.7,773.979Z" style="fill:rgb(12,34,56);fill-rule:nonzero;"/>
                        </g>
                    </g>
                    <g transform="matrix(1,0,0,1,-1030.15,-542.414)">
                        <g id="Group_41025">
                            <path id="Path_302943" d="M1337.79,732.458C1335.62,729.921 1330.93,730.632 1330.89,730.64L1330.24,729.24C1338.5,722.255 1345.38,728.756 1345.45,728.823L1344.34,729.973L1344.89,729.398L1344.34,729.974C1341.32,727.253 1336.84,726.844 1333.38,728.974C1335.51,729.011 1337.53,729.892 1339.01,731.422L1337.79,732.458Z" style="fill:rgb(12,34,56);fill-rule:nonzero;"/>
                        </g>
                    </g>
                    <g transform="matrix(1,0,0,1,-839.516,-542.417)">
                        <g id="Group_41026">
                            <path id="Path_302944" d="M1068.12,732.46L1066.9,731.42C1068.38,729.89 1070.4,729.009 1072.53,728.972C1069.07,726.841 1064.59,727.25 1061.57,729.972L1060.46,728.821C1060.53,728.755 1067.41,722.254 1075.66,729.237L1075.02,730.637C1074.97,730.634 1070.28,729.921 1068.12,732.46Z" style="fill:rgb(12,34,56);fill-rule:nonzero;"/>
                        </g>
                    </g>
                    <g transform="matrix(1,0,0,1,-824.573,-433.843)">
                        <g id="Group_41027">
                            <path id="Path_302945" d="M1092.81,663.137C1077.18,663.195 1063.75,651.61 1061.51,636.137C1059.03,638.009 1056.03,639.051 1052.92,639.114C1045.5,639.05 1039.43,632.924 1039.43,625.498C1039.43,618.073 1045.5,611.947 1052.92,611.883C1056.13,611.888 1059.24,612.949 1061.78,614.902C1069.03,602.633 1075.89,580.68 1076.89,577.402C1075.13,574.784 1074.27,573.183 1074.23,573.118L1075.64,572.365C1075.79,572.635 1090.36,599.418 1123.51,615.165C1126.01,613.052 1129.18,611.89 1132.46,611.885C1132.5,611.885 1132.53,611.884 1132.57,611.884C1140.04,611.884 1146.19,618.031 1146.19,625.5C1146.19,632.97 1140.04,639.116 1132.57,639.116C1132.53,639.116 1132.5,639.116 1132.46,639.116C1129.42,639.066 1126.49,638.022 1124.11,636.144C1121.88,651.615 1108.44,663.199 1092.81,663.137ZM1061.58,633.986L1062.92,634.486C1064.45,649.761 1077.46,661.531 1092.81,661.531C1108.17,661.531 1121.17,649.757 1122.7,634.478L1124.05,633.978C1126.3,636.175 1129.31,637.436 1132.46,637.508C1139.01,637.448 1144.36,632.044 1144.36,625.494C1144.36,618.945 1139.01,613.541 1132.46,613.481C1129.4,613.483 1126.45,614.63 1124.19,616.696L1123.31,616.834C1105.25,608.309 1089.67,595.309 1078.05,579.073C1076.21,584.954 1069.57,605.297 1062.66,616.54L1061.43,616.708C1059.09,614.625 1056.06,613.475 1052.93,613.481C1046.38,613.541 1041.03,618.945 1041.03,625.495C1041.03,632.044 1046.38,637.448 1052.93,637.508C1056.15,637.435 1059.22,636.181 1061.58,633.986Z" style="fill:rgb(12,34,56);fill-rule:nonzero;"/>
                        </g>
                    </g>
                    <g transform="matrix(1,0,0,1,-801.47,-584.561)">
                        <g id="Group_41028">
                            <path id="Path_302946" d="M1057.56,828.9C1023.06,826.555 1007.41,814.2 1006.76,813.676L1006.61,812.576C1013.42,803.292 1016.45,797.503 1020.71,785.645L1022.22,786.187C1018,797.94 1014.96,803.819 1008.38,812.878C1011.59,815.147 1027.43,825.243 1057.67,827.298L1057.56,828.9Z" style="fill:rgb(12,34,56);fill-rule:nonzero;"/>
                        </g>
                    </g>
                    <g transform="matrix(1,0,0,1,-987.068,-571.879)">
                        <g id="Group_41029">
                            <path id="Path_302947" d="M1269.27,815.562L1269.27,813.962C1283.37,813.962 1303.8,809.694 1318.1,800.173C1316.52,797.821 1311.53,789.243 1306.23,768.095L1307.78,767.705C1313.96,792.343 1319.8,799.798 1319.86,799.87L1319.69,801.034C1305.08,811.07 1283.84,815.562 1269.27,815.562Z" style="fill:rgb(12,34,56);fill-rule:nonzero;"/>
                        </g>
                    </g>
                    <g transform="matrix(1,0,0,1,-1076.11,-571.768)">
                        <g id="Group_41030">
                            <path id="Path_302948" d="M1411.75,797.649C1404.26,789.031 1398.65,778.941 1395.28,768.028L1396.81,767.546C1400.09,778.226 1405.57,788.101 1412.9,796.537L1411.75,797.649Z" style="fill:rgb(12,34,56);fill-rule:nonzero;"/>
                        </g>
                    </g>
                    <g transform="matrix(1,0,0,1,-920.642,-642.436)">
                        <g id="Group_41031">
                            <path id="Path_302949" d="M1189.89,903.787C1185.05,903.713 1180.31,902.388 1176.13,899.943L1175.72,899.255L1175.27,868.409L1176.87,868.386L1177.31,898.765C1185.75,903.301 1194.01,903.304 1202.54,898.765L1202.09,867.573L1203.69,867.55L1204.15,899.227L1203.73,899.941C1199.52,902.38 1194.76,903.704 1189.89,903.787Z" style="fill:rgb(12,34,56);fill-rule:nonzero;"/>
                        </g>
                    </g>
                    <g id="Path_302950" transform="matrix(1,0,0,1,-953.437,-642.935)">
                        <path d="M1221.67,871.429L1235.64,879.609L1235.3,868.261C1235.3,868.261 1231.08,870.651 1227.87,870.805C1224.66,870.959 1221.67,871.429 1221.67,871.429Z" style="fill:rgb(12,34,56);fill-rule:nonzero;"/>
                    </g>
                    <g transform="matrix(1,0,0,1,-1057.95,-488.826)">
                        <g id="Group_41032">
                            <path id="Path_302951" d="M1395.02,689.966C1393.81,689.966 1392.52,689.116 1391.3,687.486C1388.46,683.726 1386.22,676.251 1387.65,672.886C1389.05,669.586 1392.68,668.374 1395.53,667.94C1387.16,664.632 1369.59,657.047 1369.58,651.73C1369.58,651.25 1369.81,650.797 1370.21,650.53C1372.33,649.073 1380.46,651.983 1398.52,658.965C1410.17,663.472 1422.22,668.133 1428.15,668.972L1427.93,670.558C1421.82,669.693 1409.68,664.999 1397.94,660.458C1387.46,656.404 1373.15,650.875 1371.19,651.809C1371.43,655.832 1388.67,663.716 1399.56,667.771L1399.24,669.321C1399.15,669.315 1391.07,668.91 1389.12,673.508C1388.03,676.079 1389.84,682.887 1392.58,686.516C1393.52,687.767 1394.45,688.442 1395.14,688.352C1395.9,688.258 1396.49,687.236 1396.84,686.396L1398.32,687.019C1397.56,688.807 1396.56,689.79 1395.34,689.941C1395.23,689.956 1395.13,689.964 1395.02,689.966Z" style="fill:rgb(12,34,56);fill-rule:nonzero;"/>
                        </g>
                    </g>
                    <g transform="matrix(1,0,0,1,-1118.31,-544.533)">
                        <g id="Group_41033">
                            <path id="Path_302952" d="M1462.05,746.335C1461.15,746.334 1460.29,745.986 1459.64,745.364C1456.01,741.925 1455.17,735.235 1455.01,733.264C1454.92,732.392 1455.22,731.525 1455.84,730.897C1457.78,728.866 1462.5,728.99 1463.03,729.009L1462.97,730.609C1461.72,730.559 1458.22,730.72 1456.99,732.003C1456.7,732.298 1456.55,732.712 1456.6,733.127C1456.92,736.89 1458.18,741.775 1460.74,744.198C1461.25,744.687 1462,744.854 1462.67,744.632C1463.36,744.423 1463.88,743.849 1464.03,743.142C1464.52,741.064 1464.5,738.896 1463.98,736.826L1465.32,736.026C1465.36,736.061 1466.59,737.188 1469.69,736.155L1470.19,737.675C1468.82,738.202 1467.32,738.319 1465.88,738.013C1466.09,739.831 1465.99,741.671 1465.59,743.457C1465.34,744.736 1464.4,745.776 1463.16,746.157C1462.8,746.272 1462.43,746.333 1462.05,746.335Z" style="fill:rgb(12,34,56);fill-rule:nonzero;"/>
                        </g>
                    </g>
                    <g transform="matrix(1,0,0,1,-1141.35,-570.633)">
                        <g id="Group_41034">
                            <path id="Path_302953" d="M1501.34,773.481C1492.03,772.138 1487.78,767.181 1487.61,766.97L1488.83,765.94C1488.87,765.987 1492.9,770.64 1501.56,771.895L1501.34,773.481Z" style="fill:rgb(12,34,56);fill-rule:nonzero;"/>
                        </g>
                    </g>
                    <g id="Group_41035" transform="matrix(1,0,0,1,169.18,411.374)">
                        <rect id="Rectangle_12972" x="0" y="0" width="204.929" height="1.602" style="fill:rgb(12,34,56);"/>
                    </g>
                    <g transform="matrix(1,0,0,1,-513.2,-682.004)">
                        <g id="Group_41036">
                            <path id="Path_302954" d="M598.838,939.606L598.662,938.014C602.649,937.573 606.621,936.991 610.462,936.285C619.414,934.675 628.196,932.231 636.693,928.985C640.828,927.396 644.872,925.58 648.807,923.547L649.544,924.969C645.556,927.029 641.459,928.869 637.269,930.48C628.679,933.76 619.8,936.23 610.75,937.856C606.873,938.573 602.863,939.16 598.838,939.606Z" style="fill:rgb(12,34,56);fill-rule:nonzero;"/>
                        </g>
                    </g>
                    <g transform="matrix(0.909,-0.417,0.417,0.909,168.452,181.745)">
                        <g id="Group_41037">
                            <rect id="Rectangle_12973" x="0" y="0" width="1.602" height="22.74" style="fill:rgb(12,34,56);"/>
                        </g>
                    </g>
                    <g transform="matrix(1,0,0,1,-1276.47,-680.846)">
                        <g id="Group_41038">
                            <path id="Path_302955" d="M1729.89,938.448C1711.06,936.368 1693.88,931.281 1678.82,923.327L1679.57,921.911C1694.45,929.77 1711.44,934.798 1730.07,936.855L1729.89,938.448Z" style="fill:rgb(12,34,56);fill-rule:nonzero;"/>
                        </g>
                    </g>
                    <g transform="matrix(0.428,-0.904,0.904,0.428,359.377,201.714)">
                        <g id="Group_41039">
                            <rect id="Rectangle_12974" x="0" y="0" width="23.356" height="1.602" style="fill:rgb(12,34,56);"/>
                        </g>
                    </g>
                    <g transform="matrix(1,0,0,1,-714.573,-488.868)">
                        <g id="Group_41040">
                            <path id="Path_302956" d="M916.048,690.008C915.942,690.008 915.837,690.001 915.732,689.988C914.511,689.837 913.509,688.854 912.754,687.066L914.229,686.443C914.585,687.283 915.167,688.304 915.929,688.399C916.615,688.475 917.55,687.815 918.494,686.564C921.232,682.935 923.041,676.126 921.95,673.555C919.999,668.955 911.915,669.364 911.834,669.368L911.509,667.818C922.402,663.763 939.638,655.88 939.882,651.859C937.932,650.992 924.182,656.511 914.104,660.554C902.292,665.293 890.078,670.193 883.864,671.072L883.64,669.486C889.662,668.634 901.785,663.771 913.508,659.067C930.924,652.08 938.773,649.167 940.858,650.574C941.259,650.84 941.497,651.293 941.488,651.774C941.488,657.091 923.907,664.674 915.542,667.984C918.392,668.418 922.026,669.63 923.425,672.93C924.853,676.294 922.61,683.77 919.773,687.53C918.544,689.158 917.263,690.008 916.048,690.008Z" style="fill:rgb(12,34,56);fill-rule:nonzero;"/>
                        </g>
                    </g>
                    <g transform="matrix(1,0,0,1,-756.946,-544.533)">
                        <g id="Group_41041">
                            <path id="Path_302957" d="M951.745,746.335C951.372,746.334 951.001,746.276 950.645,746.163C949.398,745.782 948.459,744.742 948.206,743.463C947.806,741.677 947.711,739.837 947.924,738.019C946.483,738.326 944.984,738.209 943.609,737.682L944.116,736.162C947.216,737.197 948.445,736.068 948.495,736.02L949.825,736.829C949.298,738.899 949.281,741.067 949.775,743.145C949.916,743.852 950.437,744.426 951.127,744.635C951.802,744.857 952.548,744.69 953.063,744.2C955.622,741.778 956.877,736.893 957.198,733.13C957.248,732.715 957.103,732.3 956.807,732.005C955.579,730.72 952.078,730.565 950.833,730.612L950.77,729.012C951.303,728.993 956.026,728.869 957.965,730.9C958.576,731.528 958.879,732.395 958.793,733.267C958.625,735.236 957.793,741.927 954.163,745.367C953.512,745.989 952.645,746.335 951.745,746.335Z" style="fill:rgb(12,34,56);fill-rule:nonzero;"/>
                        </g>
                    </g>
                    <g transform="matrix(1,0,0,1,-736.888,-570.633)">
                        <g id="Group_41042">
                            <path id="Path_302958" d="M915.449,773.481L915.22,771.896C923.882,770.646 927.912,765.988 927.952,765.941L929.178,766.971C929,767.18 924.753,772.138 915.449,773.481Z" style="fill:rgb(12,34,56);fill-rule:nonzero;"/>
                        </g>
                    </g>
                    <g transform="matrix(0.188478,-0.982077,0.982077,0.188478,204.355,309.824)">
                        <g id="Group_41043">
                            <rect id="Rectangle_12975" x="0" y="0" width="17.931" height="1.602" style="fill:rgb(12,34,56);"/>
                        </g>
                    </g>
                    <g transform="matrix(0.985,-0.173,0.173,0.985,333.272,292.505)">
                        <g id="Group_41044">
                            <rect id="Rectangle_12976" x="0" y="0" width="1.602" height="18.015" style="fill:rgb(12,34,56);"/>
                        </g>
                    </g>
                    <g id="Group_41046" transform="matrix(1,0,0,1,0.309,179.358)">
                        <g id="Group_41045">
                            <g id="Path_302959" transform="matrix(1,0,0,1,-832.778,-1221.56)">
                                <path d="M1069.84,1452.56C1069.05,1453.21 1068.23,1453.81 1067.38,1454.38L1050.88,1454.38C1049.35,1450.28 1052.38,1443.71 1058.41,1438.73C1065.26,1433.08 1073.36,1431.59 1076.52,1435.41C1079.68,1439.23 1076.68,1446.91 1069.84,1452.56Z" style="fill:rgb(53,186,155);fill-rule:nonzero;"/>
                            </g>
                            <g id="Path_302960" transform="matrix(1,0,0,1,-819.413,-1055.48)">
                                <path d="M1057.61,1200.38C1060.76,1204.2 1057.77,1211.88 1050.93,1217.53C1044.09,1223.18 1035.98,1224.66 1032.83,1220.85C1029.68,1217.03 1032.66,1209.35 1039.51,1203.69C1046.35,1198.05 1054.45,1196.56 1057.61,1200.38Z" style="fill:rgb(53,186,155);fill-rule:nonzero;"/>
                            </g>
                            <g id="Ellipse_3373" transform="matrix(0.771,-0.637,0.637,0.771,294.021,121.13)">
                                <ellipse cx="16.07" cy="8.97" rx="16.07" ry="8.97" style="fill:rgb(53,186,155);"/>
                            </g>
                            <g id="Ellipse_3374" transform="matrix(0.771014,-0.636819,0.636819,0.771014,192.626,85.529)">
                                <ellipse cx="16.07" cy="8.97" rx="16.07" ry="8.97" style="fill:rgb(53,186,155);"/>
                            </g>
                            <g id="Path_302961" transform="matrix(1,0,0,1,-1079.58,-868.66)">
                                <path d="M1417.63,933.878C1410.85,939.388 1402.89,940.83 1399.75,937.078C1405.4,935.952 1411.42,934.855 1417.63,933.878Z" style="fill:rgb(53,186,155);fill-rule:nonzero;"/>
                            </g>
                            <g id="Path_302962" transform="matrix(1,0,0,1,-1341.9,-1016.53)">
                                <path d="M1792.57,1160.33C1787.42,1161.09 1781.97,1161.66 1776.18,1162.01C1774.48,1162.11 1772.75,1162.19 1770.98,1162.24C1770.8,1158.2 1773.76,1152.81 1778.9,1148.58C1785.75,1142.92 1793.85,1141.44 1797.01,1145.26C1799.8,1148.63 1797.79,1155 1792.57,1160.33Z" style="fill:rgb(53,186,155);fill-rule:nonzero;"/>
                            </g>
                            <g id="Path_302963" transform="matrix(1,0,0,1,-1288.19,-872.48)">
                                <path d="M1717.61,945.667C1716.61,946.817 1715.51,947.883 1714.33,948.855C1707.48,954.509 1699.38,955.991 1696.22,952.171C1693.82,949.248 1695,944.082 1698.74,939.284C1704.87,941.856 1711.18,943.989 1717.61,945.667Z" style="fill:rgb(53,186,155);fill-rule:nonzero;"/>
                            </g>
                            <g id="Path_302965" transform="matrix(1,0,0,1,-1282.09,-711.574)">
                                <path d="M1713.39,713.232C1712.58,716.832 1709.85,720.993 1705.7,724.405C1698.87,730.059 1690.76,731.541 1687.61,727.721C1684.63,724.121 1687.12,717.101 1693.14,711.575C1699.39,711.838 1706.18,712.351 1713.39,713.232Z" style="fill:rgb(53,186,155);fill-rule:nonzero;"/>
                            </g>
                            <g id="Path_302966" transform="matrix(1,0,0,1,-557.376,-1027.41)">
                                <path d="M683.656,1173.03C676.02,1173.37 668.373,1173.32 660.742,1172.89C662.311,1169.4 664.692,1166.35 667.686,1163.97C674.526,1158.32 682.631,1156.84 685.786,1160.66C688.117,1163.47 687.1,1168.39 683.656,1173.03Z" style="fill:rgb(53,186,155);fill-rule:nonzero;"/>
                            </g>
                            <g id="Path_302967" transform="matrix(1,0,0,1,-541.921,-876.261)">
                                <path d="M665.4,944.635C663.865,948.364 661.397,951.636 658.232,954.135C651.384,959.782 643.279,961.271 640.132,957.451C638.964,955.882 638.559,953.871 639.027,951.972C648.028,950.358 656.858,947.901 665.4,944.635Z" style="fill:rgb(53,186,155);fill-rule:nonzero;"/>
                            </g>
                            <g id="Path_302969" transform="matrix(1,0,0,1,-477.609,-719.136)">
                                <path d="M567.215,739.151C560.367,744.798 552.262,746.287 549.115,742.467C546.088,738.799 548.715,731.575 554.986,726.001C561.113,724.591 567.528,723.334 574.104,722.277C576.9,726.176 573.894,733.633 567.215,739.151Z" style="fill:rgb(53,186,155);fill-rule:nonzero;"/>
                            </g>
                            <g id="Path_302970" transform="matrix(1,0,0,1,-1061.1,-1131.47)">
                                <path d="M1399.64,1307.92C1402.8,1311.74 1399.81,1319.42 1392.97,1325.07C1386.12,1330.72 1378.02,1332.2 1374.87,1328.38C1371.71,1324.56 1374.7,1316.88 1381.54,1311.23C1388.39,1305.58 1396.49,1304.1 1399.64,1307.92Z" style="fill:rgb(53,186,155);fill-rule:nonzero;"/>
                            </g>
                        </g>
                    </g>
                    <g transform="matrix(0.456197,-0.889879,0.889879,0.456197,361.917,205.982)">
                        <g id="Group_41047">
                            <rect id="Rectangle_12977" x="0" y="0" width="16.994" height="1.601" style="fill:rgb(12,34,56);"/>
                        </g>
                    </g>
                    <g transform="matrix(0.890022,-0.455918,0.455918,0.890022,167.904,191.587)">
                        <g id="Group_41048">
                            <rect id="Rectangle_12978" x="0" y="0" width="1.602" height="16.995" style="fill:rgb(12,34,56);"/>
                        </g>
                    </g>
                    <g transform="matrix(1,0,0,1,-951.508,-727.699)">
                        <g id="Group_41049">
                            <path id="Path_302971" d="M1233.71,1045.52L1219.75,1045.52L1218.95,1044.72L1218.95,988.217L1220.55,988.217L1220.55,1043.92L1233.71,1043.92L1233.71,1045.52Z" style="fill:rgb(12,34,56);fill-rule:nonzero;"/>
                        </g>
                    </g>
                    <g transform="matrix(1,0,0,1,-574.704,-247.605)">
                        <g id="Group_41050">
                            <path id="Path_302972" d="M764.088,365.2L727.024,333.17L719.544,354.584L718.138,354.784L685.7,309.735L687,308.799L718.539,352.599L725.9,331.53L727.18,331.188L765.135,363.988L764.088,365.2Z" style="fill:white;fill-rule:nonzero;"/>
                        </g>
                    </g>
                    <g transform="matrix(1,0,0,1,-981.207,-112.888)">
                        <g id="Group_41051">
                            <path id="Path_302973" d="M1268.5,206.542L1267.09,205.79L1288.31,165.866L1261.73,165.866L1260.98,164.783L1278.49,118.149L1279.99,118.712L1262.88,164.263L1289.65,164.263L1290.35,165.44L1268.5,206.542Z" style="fill:white;fill-rule:nonzero;"/>
                        </g>
                    </g>
                    <g transform="matrix(1,0,0,1,-1096.58,-322.958)">
                        <g id="Group_41052">
                            <path id="Path_302974" d="M1424.35,440.747L1424.25,439.147L1474.64,435.898L1467.25,419.729L1467.93,418.596L1525.46,415.434L1525.55,417.034L1469.19,420.134L1476.58,436.292L1475.9,437.424L1424.35,440.747Z" style="fill:white;fill-rule:nonzero;"/>
                        </g>
                    </g>
                    <g id="Group_41053" transform="matrix(1,0,0,1,94.589,141.482)">
                        <rect id="Rectangle_12979" x="0" y="0" width="49.496" height="1.602" style="fill:white;"/>
                    </g>
                    <g transform="matrix(0.863,-0.505,0.505,0.863,178.047,1.205)">
                        <g id="Group_41054">
                            <rect id="Rectangle_12980" x="0" y="0" width="1.602" height="56.303" style="fill:white;"/>
                        </g>
                    </g>
                    <g transform="matrix(0.835961,-0.548789,0.548789,0.835961,370.962,48.75)">
                        <g id="Group_41055">
                            <rect id="Rectangle_12981" x="0" y="0" width="61.244" height="1.602" style="fill:white;"/>
                        </g>
                    </g>
                    <g transform="matrix(1,0,0,1,-784.241,-286.784)">
                        <g id="Group_41056">
                            <path id="Path_302975" d="M989.533,378.842C985.528,378.842 982.233,375.547 982.233,371.542C982.233,367.537 985.528,364.242 989.533,364.242C993.538,364.242 996.833,367.537 996.833,371.542C996.829,375.545 993.536,378.838 989.533,378.842ZM989.533,365.842C986.406,365.842 983.833,368.415 983.833,371.542C983.833,374.669 986.406,377.242 989.533,377.242C992.66,377.242 995.233,374.669 995.233,371.542C995.231,368.416 992.659,365.845 989.533,365.845L989.533,365.842Z" style="fill:white;fill-rule:nonzero;"/>
                        </g>
                    </g>
                    <g transform="matrix(1,0,0,1,-1174.38,-100.214)">
                        <g id="Group_41057">
                            <path id="Path_302976" d="M1539.36,110.237C1536.62,110.237 1534.35,107.975 1534.35,105.226C1534.35,102.477 1536.62,100.215 1539.36,100.215C1542.11,100.215 1544.38,102.477 1544.38,105.226C1544.37,107.974 1542.11,110.234 1539.36,110.237ZM1539.36,101.816C1537.49,101.817 1535.96,103.355 1535.96,105.225C1535.96,107.095 1537.5,108.634 1539.37,108.634C1541.24,108.634 1542.77,107.095 1542.77,105.225C1542.77,103.355 1541.23,101.818 1539.36,101.816Z" style="fill:white;fill-rule:nonzero;"/>
                        </g>
                    </g>
                    <g transform="matrix(1,0,0,1,-1386.18,-419.941)">
                        <g id="Group_41058">
                            <path id="Path_302977" d="M1839.25,563.025C1836.41,563.025 1834.08,560.691 1834.08,557.855C1834.08,555.019 1836.41,552.685 1839.25,552.685C1842.09,552.685 1844.42,555.019 1844.42,557.855C1844.42,560.69 1842.09,563.022 1839.25,563.025ZM1839.25,554.287C1837.29,554.287 1835.68,555.898 1835.68,557.855C1835.68,559.812 1837.29,561.423 1839.25,561.423C1841.21,561.423 1842.82,559.812 1842.82,557.855C1842.82,555.898 1841.21,554.289 1839.25,554.287Z" style="fill:white;fill-rule:nonzero;"/>
                        </g>
                    </g>
                    <g transform="matrix(1,0,0,1,-476.905,-273.12)">
                        <g id="Group_41059">
                            <path id="Path_302978" d="M553.048,356.406C549.894,356.406 547.298,353.81 547.298,350.656C547.298,347.502 549.894,344.906 553.048,344.906C556.202,344.906 558.798,347.502 558.798,350.656C558.795,353.809 556.201,356.403 553.048,356.406ZM553.048,346.506C550.772,346.506 548.9,348.378 548.9,350.654C548.9,352.93 550.772,354.802 553.048,354.802C555.324,354.802 557.196,352.93 557.196,350.654C557.192,348.381 555.321,346.512 553.048,346.509L553.048,346.506Z" style="fill:white;fill-rule:nonzero;"/>
                        </g>
                    </g>
                    <g id="Path_302979" transform="matrix(1,0,0,1,-964.372,-751.961)">
                        <path d="M1243.24,1025.6C1243.24,1027.27 1241.86,1028.64 1240.19,1028.64C1238.52,1028.64 1237.15,1027.27 1237.15,1025.6C1237.15,1023.93 1238.52,1022.55 1240.19,1022.55C1241.86,1022.55 1243.24,1023.93 1243.24,1025.6Z" style="fill:rgb(12,34,56);fill-rule:nonzero;"/>
                    </g>
                    <g id="Path_302980" transform="matrix(1,0,0,1,-964.372,-815.983)">
                        <path d="M1243.24,1116.2C1243.24,1117.87 1241.86,1119.24 1240.19,1119.24C1238.52,1119.24 1237.15,1117.87 1237.15,1116.2C1237.15,1114.53 1238.52,1113.16 1240.19,1113.16C1241.86,1113.16 1243.24,1114.53 1243.24,1116.2Z" style="fill:rgb(12,34,56);fill-rule:nonzero;"/>
                    </g>
                    <g transform="matrix(1,0,0,1,-942.753,-537.01)">
                        <g id="Group_41060">
                            <path id="Path_302981" d="M1209.98,732.419C1209.05,732.429 1208.15,732.087 1207.46,731.463C1206.83,730.895 1206.49,730.058 1206.57,729.208L1207.71,718.358L1209.3,718.525L1208.16,729.375C1208.14,729.725 1208.29,730.067 1208.55,730.292C1209.06,730.728 1209.74,730.909 1210.4,730.781L1211.85,730.523L1212.13,732.1L1210.68,732.358C1210.45,732.399 1210.21,732.419 1209.98,732.419Z" style="fill:rgb(12,34,56);fill-rule:nonzero;"/>
                        </g>
                    </g>
                    <g id="Path_302982" transform="matrix(1,0,0,1,-803.027,-584.343)">
                        <path d="M1058.7,827.179C1058.7,827.179 1055.71,828.692 1036.76,824.557C1017.81,820.422 1008.82,812.116 1008.82,812.116C1012.98,806.79 1016.53,801.016 1019.42,794.903C1023.73,785.463 1022.62,785.342 1022.62,785.342C1022.62,785.342 1027.19,789.171 1032.05,788.789C1035.13,788.483 1038.08,787.423 1040.65,785.704C1041.68,792.943 1045.11,799.632 1050.38,804.693C1052.84,807.23 1055.85,809.173 1059.17,810.372L1058.47,811.751L1058.7,827.179Z" style="fill:rgb(12,34,56);fill-rule:nonzero;"/>
                    </g>
                    <g id="Path_302983" transform="matrix(1,0,0,1,-988.295,-575.332)">
                        <path d="M1271.01,800.223L1271.01,818.168C1271.01,818.168 1290.09,817.368 1302.45,812.641C1314.81,807.914 1320.46,803.276 1320.46,803.276C1320.46,803.276 1314.4,793.776 1311.84,784.119C1309.28,774.462 1307.7,772.591 1307.7,772.591C1307.7,772.591 1303.58,780.626 1295.19,779.752L1287.16,776.593C1285.69,786.527 1279.73,795.25 1271.01,800.223Z" style="fill:rgb(12,34,56);fill-rule:nonzero;"/>
                    </g>
                    <g id="Path_302984" transform="matrix(1,0,0,1,-847.583,-394.443)">
                        <path d="M1071.87,573.3C1074.04,572.901 1076.26,572.971 1078.39,573.506C1080.74,574.28 1083.04,575.193 1085.28,576.238C1087.51,577.283 1092.91,560.577 1094.93,555.025C1096.95,549.473 1100.94,538.793 1100.94,538.793C1100.94,538.793 1111.72,552.441 1116.11,555.823C1120.51,559.205 1123.39,563.884 1138.5,572.116C1138.5,572.116 1145.1,576.921 1147.41,576.238C1149.71,575.555 1151.23,572.697 1156.71,573.338C1162.18,573.979 1164.04,576.306 1164.04,576.306L1163.15,571.806C1163.15,571.806 1158.23,552.869 1156.23,548.68C1154.23,544.491 1149.57,530.28 1139.55,521.88C1129.53,513.48 1111.17,517.369 1109.1,518.38C1107.04,519.391 1099.44,522.835 1099.44,522.835L1097.51,523.023C1097.51,523.023 1083.84,521.128 1077.32,541.223C1070.8,561.318 1075.6,559.311 1071.87,573.3Z" style="fill:rgb(12,34,56);fill-rule:nonzero;"/>
                    </g>
                </g>
            </g>
        </g>
    </g>
</svg>
