<svg xmlns="http://www.w3.org/2000/svg" width="324.697" height="264.928" viewBox="0 0 324.697 264.928">
  <g id="Group_51354" data-name="Group 51354" transform="translate(-24.512 -441.072)">
    <g id="Group_51136" data-name="Group 51136" transform="translate(123.501 569.118)">
      <g id="Group_51135" data-name="Group 51135">
        <path id="Path_563132" data-name="Path 563132" d="M190.822,50.117l74.013,74.013a27.076,27.076,0,0,1,0,38.18l-74.013,74.015a27.078,27.078,0,0,1-38.18,0L78.627,162.311a27.078,27.078,0,0,1,0-38.18l74.015-74.013A27.076,27.076,0,0,1,190.822,50.117Z" transform="translate(-106.732 -107.318)" fill="#fa6c51" fill-rule="evenodd"/>
        <g id="Group_51134" data-name="Group 51134" transform="translate(6.844 -20.404)">
          <path id="Path_563133" data-name="Path 563133" d="M123.639,111.037c-.137-1.5-6.286-3.279-8.336,1.64s1.64,11.888,8.608,12.434,4.919-.684,4.919-.684Z" transform="translate(-96.432 -50.154)" fill="#f4d0b5" fill-rule="evenodd"/>
          <path id="Path_563134" data-name="Path 563134" d="M202.873,111.037c.136-1.5,6.285-3.279,8.335,1.64s-1.64,11.888-8.608,12.434-4.919-.684-4.919-.684Z" transform="translate(-113.619 -50.154)" fill="#f4d0b5" fill-rule="evenodd"/>
          <path id="Path_563135" data-name="Path 563135" d="M150.285,214.022H94.061c-.651-28.752,21.469-45.442,40.464-51.669,1.541-8.022,1.147-18.427,1.147-18.427H164.9s-.393,10.4,1.147,18.427c18.995,6.227,41.114,22.917,40.464,51.669Z" transform="translate(-92.13 -57.322)" fill="#e4ae7c" fill-rule="evenodd"/>
          <path id="Path_563136" data-name="Path 563136" d="M175.826,143.926s-.078,2.063-.029,5.058c-5.55,13.946-22.785,15.515-29.179.58.07-3.306-.018-5.638-.018-5.638Z" transform="translate(-103.057 -57.322)" fill="#d67f54" fill-rule="evenodd"/>
          <path id="Path_563137" data-name="Path 563137" d="M207.925,218.908c.665-28.394-21.636-45.022-41.109-51.43-8.208,18.21-25.979,17.764-33.911-.051-19.51,6.37-41.931,23.012-41.264,51.481Z" transform="translate(-91.627 -62.209)" fill="#fdcd56" stroke="#000" stroke-width="0.5" fill-rule="evenodd"/>
          <path id="Path_563150" data-name="Path 563150" d="M174.634,174.289c-7.825,10.9-20.094,10.683-27.778-.053l-2.833,1.1,7.48,14.466v30.517H169.85V189.807l7.48-14.466Z" transform="translate(-102.521 -63.625)" fill="#261d1b" fill-rule="evenodd"/>
          <path id="Path_563151" data-name="Path 563151" d="M156.019,130.63c-36.256.87-54.561-88.536,0-86.246C210.582,42.094,192.275,131.5,156.019,130.63Z" transform="translate(-97.864 -36.617)" fill="#f4d0b5" fill-rule="evenodd"/>
          <path id="Path_563153" data-name="Path 563153" d="M180.878,98.484c-2.05.785-2.509,2.3-1.028,3.387a7.512,7.512,0,0,0,6.391.545c2.048-.784,2.508-2.3,1.027-3.387A7.514,7.514,0,0,0,180.878,98.484Z" transform="translate(-111.799 -48.448)" fill="#20201e" fill-rule="evenodd"/>
          <path id="Path_563174" data-name="Path 563174" d="M180.878,98.484c-2.05.785-2.509,2.3-1.028,3.387a7.512,7.512,0,0,0,6.391.545c2.048-.784,2.508-2.3,1.027-3.387A7.514,7.514,0,0,0,180.878,98.484Z" transform="translate(-139.154 -48.448)" fill="#20201e" fill-rule="evenodd"/>
          <path id="Path_563156" data-name="Path 563156" d="M10.729.724c-.12-.052-.242-.1-.365-.149A9.373,9.373,0,0,0,6.215.035,9.2,9.2,0,0,0,2.341,1.25C1.755,1.628-.534,3.481.115,4.164A34.106,34.106,0,0,0,3.329,2.855a9.112,9.112,0,0,1,2.991-.4,8.03,8.03,0,0,1,2.741.558c.026,0,.195.081.231.1,1.913.93,1.739,1.527,3.043.633C14.344,2.671,12.278,1.528,10.729.724Z" transform="translate(36.343 43.767) rotate(-19)" fill="#3f2716" fill-rule="evenodd"/>
          <path id="Path_563157" data-name="Path 563157" d="M2.438.724c.12-.052.242-.1.365-.149A9.372,9.372,0,0,1,6.952.035,9.2,9.2,0,0,1,10.826,1.25c.586.378,2.875,2.23,2.227,2.914A34.1,34.1,0,0,1,9.839,2.855a9.111,9.111,0,0,0-2.991-.4,8.034,8.034,0,0,0-2.741.558c-.026,0-.195.081-.231.1-1.912.93-1.739,1.527-3.044.633C-1.177,2.671.89,1.528,2.438.724Z" transform="translate(66.361 39.099) rotate(21)" fill="#3f2716" fill-rule="evenodd"/>
          <path id="Path_563158" data-name="Path 563158" d="M153.175,123.244q5.767-.063,11.5-.063t11.5.063c0,5.243-5.948,7.115-11.483,7.115h-.041C159.124,130.359,153.175,128.486,153.175,123.244Z" transform="translate(-106.523 -52.563)" fill="#fff" fill-rule="evenodd"/>
          <path id="Path_563159" data-name="Path 563159" d="M162.846,136a.392.392,0,0,1,.4-.676,3.857,3.857,0,0,0,1.918.476,3.681,3.681,0,0,0,1.883-.473.392.392,0,0,1,.406.67,4.477,4.477,0,0,1-2.288.589A4.649,4.649,0,0,1,162.846,136Z" transform="translate(-106.394 -55.522)" fill="#d67f54" fill-rule="evenodd"/>
          <path id="Path_563160" data-name="Path 563160" d="M164.571,111.495a.393.393,0,0,1,0-.787,19.176,19.176,0,0,0,2.942-.156c.715-.121,1.242-.315,1.242-.642,0-1.131-1.145-8.161-1.149-8.181a.392.392,0,0,1,.775-.123c0,.021,1.16,7.124,1.16,8.3,0,.829-.8,1.23-1.9,1.415A19.648,19.648,0,0,1,164.571,111.495Z" transform="translate(-107.919 -48.589)" fill="#d67f54" fill-rule="evenodd"/>
          <path id="Path_563161" data-name="Path 563161" d="M210.077,117.506a.393.393,0,1,1-.787,0,3.812,3.812,0,0,0-.538-2.352.936.936,0,0,0-.731-.365,2.152,2.152,0,0,0-1.071.33,7.069,7.069,0,0,0-2.689,3.173,14.606,14.606,0,0,0-.67,1.823,2.787,2.787,0,0,1,1.831-.531,1.74,1.74,0,0,1,.847.306,1.39,1.39,0,0,1,.528.741,2.574,2.574,0,0,1-.542,2.128.392.392,0,0,1-.651-.436,1.863,1.863,0,0,0,.441-1.467.622.622,0,0,0-.234-.329.973.973,0,0,0-.466-.161,2.156,2.156,0,0,0-1.676.7.85.85,0,0,1-.4.251.43.43,0,0,1-.568-.38l0-.021a1.382,1.382,0,0,1,.012-.459,12.245,12.245,0,0,1,.833-2.482,7.911,7.911,0,0,1,3.02-3.542,2.92,2.92,0,0,1,1.472-.431,1.694,1.694,0,0,1,1.324.653A4.5,4.5,0,0,1,210.077,117.506Z" transform="translate(-114.718 -51.101)" fill="#d67f54" fill-rule="evenodd"/>
          <path id="Path_563162" data-name="Path 563162" d="M118.865,117.506a.393.393,0,1,1-.786,0,4.5,4.5,0,0,1,.717-2.847,1.693,1.693,0,0,1,1.324-.653,2.918,2.918,0,0,1,1.473.431,7.917,7.917,0,0,1,3.021,3.542,12.285,12.285,0,0,1,.832,2.482,1.382,1.382,0,0,1,.012.459l0,.021a.43.43,0,0,1-.567.38.848.848,0,0,1-.4-.251,2.156,2.156,0,0,0-1.676-.7.97.97,0,0,0-.466.161.618.618,0,0,0-.234.329,1.866,1.866,0,0,0,.441,1.467.392.392,0,0,1-.651.436,2.578,2.578,0,0,1-.543-2.128,1.391,1.391,0,0,1,.528-.741,1.74,1.74,0,0,1,.848-.306,2.785,2.785,0,0,1,1.831.531,14.737,14.737,0,0,0-.67-1.823,7.064,7.064,0,0,0-2.689-3.173,2.15,2.15,0,0,0-1.071-.33.936.936,0,0,0-.731.365A3.817,3.817,0,0,0,118.865,117.506Z" transform="translate(-97.127 -51.101)" fill="#d67f54" fill-rule="evenodd"/>
          <path id="Path_563163" data-name="Path 563163" d="M154.392,57.3c0,17.453,12.542,14.107,20.086,18.2,5.659,3.073,4.838,3.43,6.4,9.707,1.432,5.762,1.95,14.8,2.7,17.895,11.381-28.181,16.121-41.357.7-53.747-9.224-7.409-15.793-22.108-29.928-10.385-18.867-9.643-20.588,3.03-29.845,10.385-12.7,10.09-13.825,20.158-10.232,30.734,1.549,4.562,10.7,22.271,11.559,24.84,1.166-11.774.417-22.047,4.118-26.076,3.4-3.7,10.657-4.214,14.55-6.653C151.383,67.886,154.392,62.4,154.392,57.3Z" transform="translate(-95.966 -34.589)" fill="#424852" fill-rule="evenodd"/>
          <path id="Path_563164" data-name="Path 563164" d="M183.171,103.954l0,.038,0,.007.025.177.006.043v0l.006.039.02.128.006.042v.016l0,.026.007.042.013.083.007.041,0,.025,0,.015,0,.009.029.184v0l0,0,.03.192v0l0,.006v.008l.029.174Zm0,0c-.573-4.065-1.133-10.884-2.293-15.551-1.56-6.277-.739-6.634-6.4-9.707-7.545-4.1-20.086-.751-20.086-18.2,0,5.1-3.01,10.589-9.892,14.9-3.893,2.44-11.148,2.95-14.55,6.653-3.7,4.029-2.952,14.3-4.118,26.076-.861-2.569-10.009-20.278-11.559-24.84a28.262,28.262,0,0,1-1.659-12.014c1.726,1.306,5.849,2.085,7.69,2.459,3.947.8,8.268-.25,12.379-1.931,9.152-3.744,16.224-5.617,19.137-13.521s2.912-8.32,2.912-8.32.624,14.977,16.848,19.137c6.653,1.706,12.082,2.992,16.086,3.012a39.211,39.211,0,0,0,6.412-1.507c2.445,12.685-4.1,19.853-10.428,35.529a1.186,1.186,0,0,0-.069.169c-.021-.091-.045-.189-.067-.29l0-.017,0-.015-.03-.146,0-.006,0-.007-.032-.165v0l-.032-.171,0-.01v0Z" transform="translate(-95.966 -37.785)" fill="#424852" fill-rule="evenodd"/>
          <path id="Path_563165" data-name="Path 563165" d="M143.227,157.369l5.7,28.931c-1.235-1.831-4.583-6.169-7.734-6.169-2.009,0-9.6,4.109-9.541,3.651C133.606,167.731,137.692,161.12,143.227,157.369Z" transform="translate(-99.95 -60.118)" fill="#fdcd56" stroke="#000" stroke-width="0.5" fill-rule="evenodd"/>
          <path id="Path_563166" data-name="Path 563166" d="M182.149,157.369,176.444,186.3c1.236-1.831,4.583-6.169,7.735-6.169,2.009,0,9.6,4.109,9.54,3.651C191.77,167.731,187.684,161.12,182.149,157.369Z" transform="translate(-109.262 -60.118)" fill="#fdcd56" stroke="#000" stroke-width="0.5" fill-rule="evenodd"/>
          <path id="Path_563167" data-name="Path 563167" d="M113.185,211.724c0-.324.154-.585.34-.583s.335.268.334.592L113.776,228c0,.324-.153.585-.339.582s-.335-.268-.334-.592Z" transform="translate(-96.092 -71.298)" fill="#261d1b" fill-rule="evenodd"/>
          <path id="Path_563168" data-name="Path 563168" d="M215.409,211.724c0-.324.148-.585.328-.583s.324.268.323.592L215.979,228c0,.324-.148.585-.328.582s-.325-.268-.324-.592Z" transform="translate(-117.347 -71.298)" fill="#261d1b" fill-rule="evenodd"/>
          <path id="Path_563169" data-name="Path 563169" d="M150.911,51.81a.393.393,0,1,1,.771.147,23.372,23.372,0,0,1-4.024,9.755A21.249,21.249,0,0,1,136.648,69.1c-10.5,3.36-14.331,2.509-14.342,2.507a.392.392,0,1,1,.156-.768c.011,0,3.646.811,13.947-2.486a20.478,20.478,0,0,0,10.621-7.116A22.608,22.608,0,0,0,150.911,51.81Z" transform="translate(-97.94 -38.103)" fill="#f4f6f8" fill-rule="evenodd"/>
          <path id="Path_563170" data-name="Path 563170" d="M121.158,65.715a.391.391,0,1,1-.7-.35,16.6,16.6,0,0,1,5.227-5.822,39.365,39.365,0,0,1,7.762-4.244c3.027-1.289,4.441-4.246,5.721-6.924,1.046-2.188,2.008-4.2,3.709-5.123,3.85-2.089,9.849,1.876,9.866,1.888a.392.392,0,1,1-.429.657c-.016-.01-5.631-3.719-9.061-1.857-1.48.8-2.39,2.7-3.378,4.774-1.342,2.806-2.824,5.9-6.12,7.308a38.613,38.613,0,0,0-7.6,4.154A15.844,15.844,0,0,0,121.158,65.715Z" transform="translate(-97.613 -36.264)" fill="#f4f6f8" fill-rule="evenodd"/>
          <path id="Path_563171" data-name="Path 563171" d="M171.105,51.957a.392.392,0,1,1,.771-.147,22.607,22.607,0,0,0,3.881,9.432,20.481,20.481,0,0,0,10.621,7.116c10.3,3.3,13.936,2.488,13.947,2.486a.392.392,0,1,1,.156.768c-.01,0-3.842.853-14.342-2.507a21.254,21.254,0,0,1-11.011-7.392A23.389,23.389,0,0,1,171.105,51.957Z" transform="translate(-108.15 -38.103)" fill="#f4f6f8" fill-rule="evenodd"/>
          <path id="Path_563172" data-name="Path 563172" d="M201.591,65.365a.391.391,0,1,1-.7.35,15.845,15.845,0,0,0-4.991-5.54,38.62,38.62,0,0,0-7.606-4.154c-3.3-1.4-4.779-4.5-6.12-7.308-.989-2.069-1.9-3.97-3.378-4.774-3.431-1.862-9.046,1.846-9.062,1.857a.392.392,0,0,1-.43-.657c.017-.011,6.018-3.976,9.868-1.888,1.7.924,2.662,2.935,3.709,5.123,1.28,2.678,2.694,5.636,5.72,6.924a39.342,39.342,0,0,1,7.762,4.244A16.607,16.607,0,0,1,201.591,65.365Z" transform="translate(-107.741 -36.264)" fill="#f4f6f8" fill-rule="evenodd"/>
        </g>
      </g>
    </g>
    <rect id="Rectangle_23726" data-name="Rectangle 23726" width="179" height="2" rx="1" transform="translate(99.001 704)" fill="#fa6c51"/>
    <g id="Object" transform="translate(-601.281 -31.892) rotate(2)">
      <g id="Group_51166" data-name="Group 51166">
        <path id="Path_563186" data-name="Path 563186" d="M852.634,453.967a64.856,64.856,0,0,0,4.71-4.808c2.585-2.829,5.254-5.75,8.771-7.85a5.083,5.083,0,0,0-3.1-1.88,5.4,5.4,0,0,0-.969-.089,5.465,5.465,0,0,0-3.211,1.008,8.362,8.362,0,0,0-1.669,1.791A23.2,23.2,0,0,0,852.634,453.967Z" transform="translate(-93.493 814.512) rotate(-49)" fill="#fa6c51"/>
        <path id="Path_563188" data-name="Path 563188" d="M766.791,468.289l.639.367a11,11,0,0,0,2.883,1.33,2.749,2.749,0,0,0,2.751-.67c.019-.025.04-.05.061-.073a26.916,26.916,0,0,0-6.148-5.429,13.718,13.718,0,0,0-8.785-2.143,27.761,27.761,0,0,1-1.028,3.24A29.6,29.6,0,0,1,766.791,468.289Z" transform="translate(0.286 -1.08)" fill="#fa6c51"/>
        <path id="Path_563189" data-name="Path 563189" d="M873.483,469.429c.232-.027.539-.615.653-1.653l.688-6.267-16.487,1.8a47.978,47.978,0,0,1,14.283,5.738A2.039,2.039,0,0,0,873.483,469.429Z" fill="none"/>
        <path id="Path_563190" data-name="Path 563190" d="M851.97,503.521a24.238,24.238,0,0,0-17.567,2.89,36.251,36.251,0,0,0-12.5,12.628c-2.731,4.4-6.888,13.038-4.051,21.5a1.081,1.081,0,0,0,1.023.738,1.1,1.1,0,0,0,.347-.056,1.083,1.083,0,0,0,.682-1.37c-2.556-7.623,1.307-15.6,3.836-19.672a34.123,34.123,0,0,1,11.742-11.893,22.059,22.059,0,0,1,15.974-2.664,1.082,1.082,0,0,0,.513-2.1Z" fill="#1a1a1a"/>
        <path id="Path_563191" data-name="Path 563191" d="M802.548,507.056a38.6,38.6,0,0,0-6.356-8.989c-3.025-3.447-6.627-7.341-11.1-9.918a26.15,26.15,0,0,0-14.652-3.4,1.082,1.082,0,0,0,.145,2.159,23.972,23.972,0,0,1,13.427,3.111c4.189,2.413,7.645,6.154,10.556,9.472a36.81,36.81,0,0,1,6.019,8.471,32.748,32.748,0,0,1,2.453,10.228,90.552,90.552,0,0,1,.425,13.991,1.083,1.083,0,0,0,1.03,1.132h.049a1.082,1.082,0,0,0,1.082-1.031,92.632,92.632,0,0,0-.435-14.326A34.679,34.679,0,0,0,802.548,507.056Z" fill="#1a1a1a"/>
        <path id="Path_563192" data-name="Path 563192" d="M818.507,490.483a1.082,1.082,0,0,0,.922,1.221,1.053,1.053,0,0,0,.148.01,1.083,1.083,0,0,0,1.073-.932,26.856,26.856,0,0,1,20.916-22.061,1.082,1.082,0,0,0-.413-2.124A29.077,29.077,0,0,0,818.507,490.483Z" fill="#1a1a1a"/>
        <path id="Path_563194" data-name="Path 563194" d="M850.411,455.8a1.1,1.1,0,0,0,.067.41l.4,1.066a1.082,1.082,0,0,0,1.725.439,50.726,50.726,0,0,0,6.061-6.707c2.5-3.124,4.861-6.074,8.043-8.1a1.428,1.428,0,0,0,.557-1.975,6.68,6.68,0,0,0-10.315-2.187,10.423,10.423,0,0,0-1.96,2.363A28.679,28.679,0,0,0,850.411,455.8Zm7.93-15.4a4.616,4.616,0,0,1,2.957-1.059,4.378,4.378,0,0,1,.892.093,4.629,4.629,0,0,1,2.857,1.976c-3.238,2.207-5.7,5.277-8.076,8.251a64.909,64.909,0,0,1-4.337,5.054,26.517,26.517,0,0,1,4.17-12.432A8.453,8.453,0,0,1,858.341,440.4Z" transform="translate(-94.577 813.021) rotate(-49)" fill="#1a1a1a"/>
        <path id="Path_563196" data-name="Path 563196" d="M771.156,472.251a4.684,4.684,0,0,0,3.169-1.125l.828.12a1.082,1.082,0,0,0,1-1.749,32.208,32.208,0,0,0-8.049-7.531,15.539,15.539,0,0,0-11.006-2.307,1.083,1.083,0,0,0-.846.826,25.692,25.692,0,0,1-1.61,4.862,1.082,1.082,0,0,0,.865,1.516,27.4,27.4,0,0,1,10.225,3.312l.616.353a12.8,12.8,0,0,0,3.474,1.565A5.9,5.9,0,0,0,771.156,472.251Zm-4.179-8.437a26.916,26.916,0,0,1,6.148,5.429c-.021.023-.042.048-.061.073a2.749,2.749,0,0,1-2.751.67,11,11,0,0,1-2.883-1.33l-.639-.367a29.6,29.6,0,0,0-9.627-3.378,27.761,27.761,0,0,0,1.028-3.24A13.718,13.718,0,0,1,766.977,463.814Z" fill="#1a1a1a"/>
        <path id="Path_563197" data-name="Path 563197" d="M832.693,493.675a1.082,1.082,0,1,0-.421-2.122c-4.6.914-7.77,4.554-10.871,8.525-3.307,4.235-7.051,9.03-8.092,14.847a1.082,1.082,0,0,0,1.767,1.2,1.3,1.3,0,0,0,.338-.676c.912-5.355,4.514-9.968,7.692-14.038C825.946,497.773,828.817,494.445,832.693,493.675Z" fill="#1a1a1a"/>
        <path id="Path_563198" data-name="Path 563198" d="M808.909,484.147a14.875,14.875,0,0,0-2.927-3.534,1.082,1.082,0,0,0-1.412,1.641,12.645,12.645,0,0,1,2.492,3.022,17.535,17.535,0,0,1,1.958,4.531,1.082,1.082,0,0,0,1.04.8,1.11,1.11,0,0,0,.289-.039,1.081,1.081,0,0,0,.758-1.329A19.724,19.724,0,0,0,808.909,484.147Z" fill="#1a1a1a"/>
        <path id="Path_563199" data-name="Path 563199" d="M874.824,461.509l-.688,6.267c-.114,1.038-.421,1.626-.653,1.653a2.039,2.039,0,0,1-.863-.385,47.978,47.978,0,0,0-14.283-5.738Z" transform="translate(103.654 1130.345) rotate(-71)" fill="#1a1a1a"/>
        <path id="Path_563200" data-name="Path 563200" d="M873.448,471.594a2.448,2.448,0,0,0,.281-.016c.819-.093,2.241-.681,2.557-3.565l.836-7.607a1.082,1.082,0,0,0-1.193-1.194l-21.691,2.363a1.083,1.083,0,0,0-.921,1.38l.316,1.076a1.083,1.083,0,0,0,.882.767,45.754,45.754,0,0,1,16.983,6.1A3.786,3.786,0,0,0,873.448,471.594Zm1.376-10.085-.688,6.267c-.114,1.038-.421,1.626-.653,1.653a2.039,2.039,0,0,1-.863-.385,47.978,47.978,0,0,0-14.283-5.738Z" transform="matrix(0.988, -0.156, 0.156, 0.988, -50.73, 188.72)" fill="#1a1a1a"/>
      </g>
    </g>
    <g id="Group_51164" data-name="Group 51164" transform="translate(-3590.555 -748.466) rotate(24)">
      <g id="Group_51163" data-name="Group 51163" transform="translate(4063.957 -417.682)">
        <g id="Group_51162" data-name="Group 51162" transform="translate(0 0)">
          <g id="Group_51160" data-name="Group 51160" transform="translate(0 15.023)">
            <g id="Group_51137" data-name="Group 51137">
              <rect id="Rectangle_23693" data-name="Rectangle 23693" width="65.226" height="94.749" transform="translate(3.612)" fill="#f6f5f5" stroke="#707070" stroke-width="0.3"/>
              <path id="Path_563175" data-name="Path 563175" d="M1602.176,440.287c.02,36.947,1.213,81.507-2.937,91.373-18.28,1.781-39.684,2.353-62.29,2.459l8.593-93.547Z" transform="translate(-1533.338 -440.286)" fill="#e4e4e4" stroke="#707070" stroke-width="0.3"/>
              <path id="Path_563176" data-name="Path 563176" d="M1552.983,528.726c-28.492,4.56-47.535,4.8-62.979,3.654,2-21.306,2.8-56.7,3.611-92.037l34.334.076,31.073,2.051C1559.474,479.147,1559.523,513.025,1552.983,528.726Z" transform="translate(-1490.003 -440.338)" fill="#fff" stroke="#707070" stroke-width="0.3"/>
            </g>
            <g id="Group_51159" data-name="Group 51159" transform="translate(10.176 8.738)">
              <rect id="Rectangle_23694" data-name="Rectangle 23694" width="34.323" height="5.228" transform="translate(8.424 0) rotate(1.348)" fill="#fd9a4e"/>
              <g id="Group_51158" data-name="Group 51158" transform="translate(0 10.199)">
                <g id="Group_51141" data-name="Group 51141" transform="translate(1.149)">
                  <g id="Group_51138" data-name="Group 51138" transform="translate(17.073 2.67)">
                    <rect id="Rectangle_23695" data-name="Rectangle 23695" width="30.959" height="2.393" transform="matrix(1, 0.024, -0.024, 1, 0.179, 0)" fill="#fd9a4e"/>
                    <rect id="Rectangle_23696" data-name="Rectangle 23696" width="21.043" height="2.393" transform="translate(0.056 5.216) rotate(1.348)" fill="#fd9a4e" opacity="0.5"/>
                  </g>
                  <g id="Group_51140" data-name="Group 51140" transform="translate(0)">
                    <rect id="Rectangle_23697" data-name="Rectangle 23697" width="7.329" height="7.329" transform="matrix(1, 0.024, -0.024, 1, 0.172, 2.408)" fill="#fff"/>
                    <g id="Group_51139" data-name="Group 51139" transform="translate(1.352)">
                      <path id="Path_563177" data-name="Path 563177" d="M1654.837,690.831c.226.866.644,4.494,2.46,3.479a5.534,5.534,0,0,0,1.088-1.208l1.69-1.919,3.38-3.838c.289-.328-.986-1.15-1.349-.738l-3,3.411-1.5,1.706c-.347.395-1.151,1.667-1.667,1.78l.841.272c.2.163-.17-.99-.178-1.021l-.419-1.6c-.116-.442-1.511-.973-1.34-.318Z" transform="translate(-1654.822 -686.495)" fill="#ee6f57"/>
                    </g>
                  </g>
                </g>
                <g id="Group_51145" data-name="Group 51145" transform="translate(0.836 13.528)">
                  <g id="Group_51142" data-name="Group 51142" transform="translate(17.073 2.463)">
                    <rect id="Rectangle_23698" data-name="Rectangle 23698" width="25.494" height="2.393" transform="translate(0.179 0) rotate(1.348)" fill="#fd9a4e"/>
                    <rect id="Rectangle_23699" data-name="Rectangle 23699" width="30.959" height="2.393" transform="translate(0.056 5.216) rotate(1.348)" fill="#fecca6"/>
                  </g>
                  <g id="Group_51144" data-name="Group 51144" transform="translate(0)">
                    <rect id="Rectangle_23700" data-name="Rectangle 23700" width="7.329" height="7.329" transform="matrix(1, 0.024, -0.024, 1, 0.172, 2.202)" fill="#fff"/>
                    <g id="Group_51143" data-name="Group 51143" transform="translate(1.347)">
                      <path id="Path_563178" data-name="Path 563178" d="M1650.7,866.709c.226.866.644,4.494,2.461,3.479a5.536,5.536,0,0,0,1.087-1.208l1.69-1.919,3.381-3.838c.289-.328-.987-1.15-1.349-.738l-3,3.411-1.5,1.706c-.348.395-1.152,1.667-1.667,1.78l.841.272c.2.162-.169-.99-.178-1.021l-.419-1.605c-.115-.442-1.51-.973-1.339-.318Z" transform="translate(-1650.683 -862.373)" fill="#ee6f57"/>
                    </g>
                  </g>
                </g>
                <g id="Group_51149" data-name="Group 51149" transform="translate(0.522 26.943)">
                  <g id="Group_51146" data-name="Group 51146" transform="translate(17.073 2.368)">
                    <rect id="Rectangle_23701" data-name="Rectangle 23701" width="30.959" height="2.393" transform="translate(0.179 0) rotate(1.348)" fill="#fd9a4e"/>
                    <rect id="Rectangle_23702" data-name="Rectangle 23702" width="13.845" height="2.393" transform="translate(0.056 5.216) rotate(1.348)" fill="#fecca6"/>
                  </g>
                  <g id="Group_51148" data-name="Group 51148" transform="translate(0)">
                    <rect id="Rectangle_23703" data-name="Rectangle 23703" width="7.329" height="7.329" transform="matrix(1, 0.024, -0.024, 1, 0.172, 2.107)" fill="#fff"/>
                    <g id="Group_51147" data-name="Group 51147" transform="translate(1.447)">
                      <path id="Path_563179" data-name="Path 563179" d="M1647.914,1041.13c.226.866.644,4.494,2.461,3.48a5.537,5.537,0,0,0,1.087-1.208l1.69-1.919,3.38-3.838c.289-.328-.986-1.15-1.348-.739l-3,3.411-1.5,1.705c-.348.395-1.151,1.667-1.667,1.78l.841.272c.2.162-.17-.99-.178-1.021l-.419-1.605c-.115-.442-1.51-.974-1.339-.319Z" transform="translate(-1647.899 -1036.794)" fill="#ee6f57"/>
                    </g>
                  </g>
                </g>
                <g id="Group_51153" data-name="Group 51153" transform="translate(0.209 40.177)">
                  <g id="Group_51150" data-name="Group 51150" transform="translate(17.073 2.456)">
                    <rect id="Rectangle_23704" data-name="Rectangle 23704" width="30.959" height="2.393" transform="translate(0.179 0) rotate(1.348)" fill="#fd9a4e"/>
                    <rect id="Rectangle_23705" data-name="Rectangle 23705" width="24.456" height="2.393" transform="matrix(1, 0.024, -0.024, 1, 0.056, 5.216)" fill="#fecca6"/>
                  </g>
                  <g id="Group_51152" data-name="Group 51152" transform="translate(0)">
                    <rect id="Rectangle_23706" data-name="Rectangle 23706" width="7.329" height="7.329" transform="matrix(1, 0.024, -0.024, 1, 0.172, 2.195)" fill="#fff"/>
                    <g id="Group_51151" data-name="Group 51151" transform="translate(1.449)">
                      <path id="Path_563180" data-name="Path 563180" d="M1643.865,1213.185c.226.866.644,4.494,2.46,3.479a5.53,5.53,0,0,0,1.087-1.208l1.69-1.919,3.38-3.837c.288-.328-.986-1.15-1.349-.738l-3,3.411-1.5,1.706c-.348.395-1.151,1.667-1.667,1.78l.841.272c.2.162-.17-.99-.178-1.021l-.419-1.605c-.116-.442-1.511-.973-1.339-.318Z" transform="translate(-1643.85 -1208.849)" fill="#ee6f57"/>
                    </g>
                  </g>
                </g>
                <g id="Group_51157" data-name="Group 51157" transform="translate(0 53.294)">
                  <g id="Group_51154" data-name="Group 51154" transform="translate(16.97 2.558)">
                    <rect id="Rectangle_23707" data-name="Rectangle 23707" width="12.272" height="2.393" transform="matrix(1, 0.024, -0.024, 1, 0.179, 0)" fill="#fd9a4e"/>
                    <path id="Path_563181" data-name="Path 563181" d="M1873.948,1481.2l-30.95-.729-.056,2.392c11.974.281,27.22.842,30.332.365A2.682,2.682,0,0,0,1873.948,1481.2Z" transform="translate(-1842.942 -1475.259)" fill="#fecca6"/>
                  </g>
                  <g id="Group_51156" data-name="Group 51156">
                    <rect id="Rectangle_23708" data-name="Rectangle 23708" width="7.329" height="7.329" transform="translate(0.172 2.299) rotate(1.348)" fill="#fff"/>
                    <g id="Group_51155" data-name="Group 51155" transform="translate(1.349)">
                      <path id="Path_563182" data-name="Path 563182" d="M1639.851,1383.734c.227.866.644,4.494,2.461,3.479A5.552,5.552,0,0,0,1643.4,1386l1.689-1.919,3.38-3.837c.289-.328-.986-1.151-1.349-.739l-3,3.411-1.5,1.705c-.348.395-1.151,1.667-1.667,1.78l.842.271c.2.163-.17-.99-.178-1.021l-.419-1.605c-.115-.442-1.51-.974-1.339-.318Z" transform="translate(-1639.836 -1379.397)" fill="#ee6f57"/>
                    </g>
                  </g>
                </g>
              </g>
            </g>
          </g>
          <g id="Group_51161" data-name="Group 51161" transform="translate(18.998 0)">
            <path id="Path_563183" data-name="Path 563183" d="M1797.381,256.26v7.313H1768V256.26a4.223,4.223,0,0,1,1.237-2.987,3.637,3.637,0,0,1,.3-.268,4.2,4.2,0,0,1,2.69-.969,4.972,4.972,0,0,0,2.159-.492,5.153,5.153,0,0,0,.812-.489,4.973,4.973,0,0,0,1.8-2.557,4.993,4.993,0,0,1,4.775-3.538h1.834a4.991,4.991,0,0,1,4.774,3.538,4.977,4.977,0,0,0,1.8,2.557,5.149,5.149,0,0,0,.812.489,4.977,4.977,0,0,0,2.16.492,4.229,4.229,0,0,1,4.224,4.224Z" transform="translate(-1765.616 -244.96)" fill="#ee6f57" stroke="#6d6d6d" stroke-width="0.5"/>
            <path id="Path_563184" data-name="Path 563184" d="M1771.15,440.28v5.436H1737V440.28h2.385v3.59h29.381v-3.59Z" transform="translate(-1737 -425.257)" fill="#e4e4e4" stroke="#6d6d6d" stroke-width="0.5"/>
            <ellipse id="Ellipse_3898" data-name="Ellipse 3898" cx="2.606" cy="2.477" rx="2.606" ry="2.477" transform="translate(14.469 1.907)" fill="#fff" stroke="#6d6d6d" stroke-width="0.5"/>
          </g>
        </g>
      </g>
    </g>
    <g id="Layer_1" data-name="Layer 1" transform="translate(31.354 534.376) rotate(-18)">
      <path id="Path_563201" data-name="Path 563201" d="M85.21,72.587,11.969,85.108A7.46,7.46,0,0,1,3.384,79.03S-3.788,4.869,2.751,3.751c0,0,76.93-7.646,78.048-1.106L91.288,64A7.46,7.46,0,0,1,85.21,72.587Z" transform="translate(2.888 6.105)" fill="#c8c8c8" stroke="#707070" stroke-width="0.5"/>
      <path id="Path_563202" data-name="Path 563202" d="M82.269,75,8.3,82.083a7.46,7.46,0,0,1-8.113-6.7S-1.488.9,5.115.268c0,0,77.284-1.947,77.916,4.657l5.933,61.963A7.46,7.46,0,0,1,82.269,75Z" transform="translate(1.677 6.321)" fill="#ededed" stroke="#707070" stroke-width="0.5"/>
      <path id="Path_563203" data-name="Path 563203" d="M3.823,72.271l66.893,9.739a7.46,7.46,0,0,0,8.113-6.7S80.509.826,73.905.194c0,0-66.159-1.69-66.791,4.914L.166,61.666C-.224,65.738-.249,71.881,3.823,72.271Z" transform="translate(3.855 6.395)" fill="#ededed" stroke="#707070" stroke-width="0.5"/>
      <path id="Rectangle_23709" data-name="Rectangle 23709" d="M44.59,0h0A44.59,44.59,0,0,1,89.18,44.59v8.4a27.5,27.5,0,0,1-27.5,27.5H27.5A27.5,27.5,0,0,1,0,52.987v-8.4A44.59,44.59,0,0,1,44.59,0Z" transform="translate(0 2.828)" fill="#fff" stroke="#707070" stroke-width="0.5"/>
      <path id="Rectangle_23710" data-name="Rectangle 23710" d="M20.919,0H68.261A20.919,20.919,0,0,1,89.179,20.919v0a0,0,0,0,1,0,0H0a0,0,0,0,1,0,0v0A20.919,20.919,0,0,1,20.919,0Z" transform="translate(0 2.828)" fill="#fa6c51" stroke="#707070" stroke-width="0.5"/>
      <path id="Path_563204" data-name="Path 563204" d="M1.814,6.087h0A1.819,1.819,0,0,1,0,4.273V0H3.628V4.273A1.819,1.819,0,0,1,1.814,6.087Z" transform="translate(12.698 2.829)" fill="#bf3a37" stroke="#707070" stroke-width="0.5"/>
      <path id="Path_563205" data-name="Path 563205" d="M1.814,6.087h0A1.819,1.819,0,0,1,0,4.273V0H3.628V4.273A1.819,1.819,0,0,1,1.814,6.087Z" transform="translate(34.166 2.829)" fill="#bf3a37" stroke="#707070" stroke-width="0.5"/>
      <path id="Path_563206" data-name="Path 563206" d="M1.814,6.087h0A1.819,1.819,0,0,1,0,4.273V0H3.628V4.273A1.819,1.819,0,0,1,1.814,6.087Z" transform="translate(54.244 2.829)" fill="#bf3a37" stroke="#707070" stroke-width="0.5"/>
      <path id="Path_563207" data-name="Path 563207" d="M1.814,6.2h0A1.819,1.819,0,0,1,0,4.391V.118C0-.169,3.628.157,3.628.157V4.391A1.819,1.819,0,0,1,1.814,6.2Z" transform="translate(74.464 2.711)" fill="#bf3a37" stroke="#707070" stroke-width="0.5"/>
      <rect id="Rectangle_23711" data-name="Rectangle 23711" width="3.628" height="8.304" rx="1.814" transform="translate(33.45 0)" fill="#ebebeb" stroke="#707070" stroke-width="0.5"/>
      <rect id="Rectangle_23712" data-name="Rectangle 23712" width="3.628" height="8.304" rx="1.814" transform="translate(53.629 0)" fill="#ebebeb" stroke="#707070" stroke-width="0.5"/>
      <rect id="Rectangle_23713" data-name="Rectangle 23713" width="3.628" height="8.304" rx="1.814" transform="translate(73.808 0)" fill="#ebebeb" stroke="#707070" stroke-width="0.5"/>
      <path id="Path_563208" data-name="Path 563208" d="M21.094,0,0,22.181a41.765,41.765,0,0,0,.8-6.359c0-1.559-.315-2.918-.422-5.157-.3-6.28,3.335-7.879,5.052-8.808,2.633-1.426,6.951-.371,9.554-.54C16.088,1.245,20.274,1.062,21.094,0Z" transform="translate(60.562 60.906)" fill="#bababa" stroke="#707070" stroke-width="0.5"/>
      <path id="Path_563209" data-name="Path 563209" d="M28.082.137,0,23.713a47.392,47.392,0,0,0,1.671-7.357c.175-1.825-.065-3.454.049-6.089C2.039,2.878,6.637,1.419,8.827.526c3.359-1.37,8.5.358,11.683.457C21.856,1.024,26.968,1.287,28.082.137Z" transform="translate(60.562 59.373)" fill="#e7e6e6" stroke="#707070" stroke-width="0.5"/>
      <rect id="Rectangle_23714" data-name="Rectangle 23714" width="11.896" height="7.712" transform="translate(9.203 35.453)" fill="#ebebeb" stroke="#707070" stroke-width="0.5"/>
      <rect id="Rectangle_23715" data-name="Rectangle 23715" width="11.896" height="7.712" transform="translate(9.203 49.179)" fill="#ebebeb" stroke="#707070" stroke-width="0.5"/>
      <rect id="Rectangle_23716" data-name="Rectangle 23716" width="11.896" height="7.712" transform="translate(28.134 49.179)" fill="#ebebeb" stroke="#707070" stroke-width="0.5"/>
      <rect id="Rectangle_23717" data-name="Rectangle 23717" width="11.896" height="7.712" transform="translate(47.064 49.179)" fill="#ebebeb" stroke="#707070" stroke-width="0.5"/>
      <rect id="Rectangle_23718" data-name="Rectangle 23718" width="11.896" height="7.712" transform="translate(65.629 49.179)" fill="#ebebeb" stroke="#707070" stroke-width="0.5"/>
      <rect id="Rectangle_23719" data-name="Rectangle 23719" width="11.896" height="7.712" transform="translate(9.203 62.906)" fill="#ebebeb" stroke="#707070" stroke-width="0.5"/>
      <rect id="Rectangle_23720" data-name="Rectangle 23720" width="11.896" height="7.712" transform="translate(28.134 62.906)" fill="#ebebeb" stroke="#707070" stroke-width="0.5"/>
      <rect id="Rectangle_23721" data-name="Rectangle 23721" width="11.896" height="7.712" transform="translate(47.064 62.906)" fill="#ebebeb" stroke="#707070" stroke-width="0.5"/>
      <rect id="Rectangle_23722" data-name="Rectangle 23722" width="11.896" height="7.712" transform="translate(28.134 35.453)" fill="#ebebeb" stroke="#707070" stroke-width="0.5"/>
      <rect id="Rectangle_23723" data-name="Rectangle 23723" width="11.896" height="7.712" transform="translate(47.064 35.453)" fill="#ebebeb" stroke="#707070" stroke-width="0.5"/>
      <rect id="Rectangle_23724" data-name="Rectangle 23724" width="11.896" height="7.712" transform="translate(65.994 35.453)" fill="#ebebeb" stroke="#707070" stroke-width="0.5"/>
      <rect id="Rectangle_23725" data-name="Rectangle 23725" width="3.628" height="8.304" rx="1.814" transform="translate(11.978 0)" fill="#ebebeb" stroke="#707070" stroke-width="0.5"/>
    </g>
    <g id="Layer_5" data-name="Layer 5" transform="translate(46.469 578.435) rotate(-18)">
      <g id="Group_51168" data-name="Group 51168" transform="translate(0 0)">
        <g id="Group_51167" data-name="Group 51167">
          <path id="Path_563210" data-name="Path 563210" d="M.022.051C-.022.108,0,.243.117.224L.214,0Z" transform="translate(15.312 0)" fill="#dc4844"/>
          <path id="Path_563211" data-name="Path 563211" d="M.528.488a.774.774,0,0,0,.214-.2A.327.327,0,0,0,.8,0,.644.644,0,0,1,.617.158.636.636,0,0,0,.431.352.148.148,0,0,1,.257.179C.233.206.188.188.139.184A.124.124,0,0,0,0,.255.386.386,0,0,0,.553.337C.591.391.542.446.528.488Z" transform="translate(15.579 0.043)" fill="#dc4844"/>
          <path id="Path_563212" data-name="Path 563212" d="M.018.075,0,0A.15.15,0,0,0,.018.075Z" transform="translate(25.31 6.428)" fill="#dc4844"/>
          <path id="Path_563213" data-name="Path 563213" d="M.052.075C.045.023.021,0,0,0,.017.048.033.087.052.075Z" transform="translate(27.164 12.961)" fill="#dc4844"/>
          <path id="Path_563214" data-name="Path 563214" d="M.007.067C.016.043.02.022.026,0,0,.025-.009.05.007.067Z" transform="translate(26.934 14.124)" fill="#dc4844"/>
          <path id="Path_563215" data-name="Path 563215" d="M0,0,.021.1l.019.1C.11.164.038.083,0,0Z" transform="translate(25.328 6.502)" fill="#dc4844"/>
          <path id="Path_563216" data-name="Path 563216" d="M.118,0A.262.262,0,0,0,0,.035a.959.959,0,0,1,.1,0C.108.022.113.012.118,0Z" transform="translate(17.677 0.258)" fill="#dc4844"/>
          <path id="Path_563217" data-name="Path 563217" d="M.137.038.1,0A.59.59,0,0,0,0,.039H.137Z" transform="translate(23.084 4.291)" fill="#dc4844"/>
          <path id="Path_563218" data-name="Path 563218" d="M0,.18C.039.215.159.061.222,0A.2.2,0,0,1,.053.051.438.438,0,0,0,0,.18Z" transform="translate(21.365 2.782)" fill="#dc4844"/>
          <path id="Path_563219" data-name="Path 563219" d="M.071,0,.036,0,0,.008C.019,0,.049,0,.071,0Z" transform="translate(18.058 1.155)" fill="#dc4844"/>
          <path id="Path_563220" data-name="Path 563220" d="M.04,0A.2.2,0,0,0,0,.061.138.138,0,0,0,.04,0Z" transform="translate(24.292 5.548)" fill="#dc4844"/>
          <path id="Path_563221" data-name="Path 563221" d="M0,0A.282.282,0,0,0,0,.034C.016.014.019,0,0,0Z" transform="translate(14.148 1.387)" fill="#dc4844"/>
          <path id="Path_563222" data-name="Path 563222" d="M.042,0,0,.012A1,1,0,0,0,0,.121Z" transform="translate(16.958 2.191)" fill="#dc4844"/>
          <path id="Path_563223" data-name="Path 563223" d="M0,.04.009.032C0-.026,0,.005,0,.04Z" transform="translate(26.387 16.171)" fill="#dc4844"/>
          <path id="Path_563224" data-name="Path 563224" d="M.208,0C.293.111.192.144.1.18S-.063.258.077.4C.071.354.165.3.229.234S.327.089.208,0Z" transform="translate(10.998 22.763)" fill="#dc4844"/>
          <path id="Path_563225" data-name="Path 563225" d="M0,0A.62.62,0,0,1,.1.023.215.215,0,0,0,0,0Z" transform="translate(17.853 0.297)" fill="#dc4844"/>
          <path id="Path_563226" data-name="Path 563226" d="M0,0H0L.029.028Z" transform="translate(11.075 23.158)" fill="#dc4844"/>
          <path id="Path_563227" data-name="Path 563227" d="M0,0A.233.233,0,0,0,.1.014.158.158,0,0,0,0,0Z" transform="translate(24.51 20.522)" fill="#dc4844"/>
          <path id="Path_563228" data-name="Path 563228" d="M.054,0,0,.077A.243.243,0,0,0,.054,0Z" transform="translate(26.371 17.499)" fill="#dc4844"/>
          <path id="Path_563229" data-name="Path 563229" d="M.11,0C.064.019.034.008,0,.069A.1.1,0,0,0,.03.075C.032.039.048.011.11,0Z" transform="translate(23.343 22.034)" fill="#dc4844"/>
          <path id="Path_563230" data-name="Path 563230" d="M0,.011A.371.371,0,0,0,.048.033L.1,0Z" transform="translate(21.846 23.023)" fill="#dc4844"/>
          <path id="Path_563231" data-name="Path 563231" d="M0,.053A.568.568,0,0,1,.151.186C.075.067.36-.081,0,.053Z" transform="translate(7.814 2.608)" fill="#dc4844"/>
          <path id="Path_563232" data-name="Path 563232" d="M.005.073C.029.028.052.008.087.006.062,0,.038,0,.015,0A.084.084,0,0,0,.005.073Z" transform="translate(17.766 0.292)" fill="#dc4844"/>
          <path id="Path_563233" data-name="Path 563233" d="M.307,0,.155.1C.117.13.079.156.049.174L0,.2A1.682,1.682,0,0,0,.307,0Z" transform="translate(24.055 23.268)" fill="#dc4844"/>
          <path id="Path_563234" data-name="Path 563234" d="M.044.072,0,0A.089.089,0,0,0,.044.072Z" transform="translate(0.336 14.9)" fill="#dc4844"/>
          <path id="Path_563235" data-name="Path 563235" d="M.262.025A.547.547,0,0,0,.015.007.182.182,0,0,0,0,.071Z" transform="translate(22.887 24.071)" fill="#dc4844"/>
          <path id="Path_563236" data-name="Path 563236" d="M0,0V0Z" transform="translate(7.966 2.794)" fill="#dc4844"/>
          <path id="Path_563237" data-name="Path 563237" d="M10.019,1.554c-.322.066-.1.278-.131.436-.359.157-.216-.143-.376-.24a.62.62,0,0,0-.079.051.87.87,0,0,0-.071.063c-.045.044-.087.092-.127.136a.509.509,0,0,1-.242.184c-.024-.037-.062-.043-.036-.1a.532.532,0,0,1-.2.151,2.5,2.5,0,0,1-.264.1c-.046.016-.092.032-.138.051a1.165,1.165,0,0,0-.129.066.569.569,0,0,0-.2.194A.151.151,0,0,1,7.967,2.6a.789.789,0,0,1,.156.317.636.636,0,0,0-.162.119c-.045.036-.087.049-.141-.02.084-.025.068-.091.09-.154l-.059.059-.058.06c-.209-.179.165-.149.107-.314a1.921,1.921,0,0,0-.191.147l-.187.159a1.365,1.365,0,0,1-.181.131.431.431,0,0,1-.177.065c-.067-.1.048-.168.135-.222s.148-.089-.033-.131l.181-.022c.09-.012.181-.02.181-.02-.384-.253.213-.05-.16-.335a1.119,1.119,0,0,0-.459.208,1.314,1.314,0,0,1-.451.222c-.043.163.111.161.069.324a.493.493,0,0,1-.326.167.41.41,0,0,1-.136-.021,1.031,1.031,0,0,1-.124-.05c-.159-.073-.3-.147-.443.11-.019.1,0,.22-.028.319s-.093.176-.281.2l-.017-.144-.016-.145a.36.36,0,0,0-.227.323.232.232,0,0,1-.06.137.28.28,0,0,1-.085.056.734.734,0,0,1-.147.047A.34.34,0,0,1,4.86,4c.053-.048.094-.079.056-.074-.188-.006-.214.058-.217.136s.016.173-.082.239l-.173-.166a2.993,2.993,0,0,0-.279.258c-.045.047-.09.094-.134.143l-.132.15c-.044.05-.087.1-.131.154L3.638,5c-.087.1-.178.2-.269.3-.025-.072,0-.189-.147-.157a6.149,6.149,0,0,1-.759.767c-.276.244-.563.483-.823.717,0,0,0,.082,0,.164,0,.041,0,.082.006.113l0,.051c-.036.048-.139.04-.134-.036-.214.175.1.084.093.232-.069.131-.2.1-.2-.012a8.14,8.14,0,0,1-.261.883,2.2,2.2,0,0,1-.442.8L.7,8.762.686,8.707a.325.325,0,0,0-.059.229.792.792,0,0,0,.059.2.918.918,0,0,1,.032.093.321.321,0,0,1,.016.093.261.261,0,0,1-.1.193L.624,9.442a3.553,3.553,0,0,0-.193.591c-.042.2-.085.409-.114.608q-.013.075-.026.148l-.014.073-.012.072c-.016.1-.036.189-.059.28l-.035.134q-.018.066-.041.129a1.807,1.807,0,0,1-.107.243.194.194,0,0,1,.106.181.841.841,0,0,1,0,.133l-.008.072c0,.024,0,.048-.006.073-.013.194-.014.381.194.4a2.429,2.429,0,0,1-.112.263c-.033.066-.063.116-.086.172a1.051,1.051,0,0,0-.065.209c-.01.045-.019.1-.027.16S0,13.514,0,13.6s.077.145.158.2a.533.533,0,0,1,.216.217l-.208.047.138.122c.034.03.071.059.1.081l.044.036-.106.1-.106.106.05.093c.024.047.052.092.052.092-.01-.081.052-.191.113-.193a.553.553,0,0,1,.049.114.708.708,0,0,1,.029.125,1.024,1.024,0,0,1,0,.258c-.016.164-.063.3-.114.322l.063.1c.036.063.091.143.144.224s.105.161.146.22l.07.1c-.086.016-.161-.089-.245-.165a.716.716,0,0,1,.091.093.131.131,0,0,1,.031.06c0,.032-.019.05-.044.067-.049.034-.1.067.06.2.026-.064.127-.024.17-.033a.467.467,0,0,0,0,.19,1.257,1.257,0,0,0,.064.224,1.5,1.5,0,0,0,.11.229,2.237,2.237,0,0,0,.134.208l-.157.013a2,2,0,0,0,.091.193c.033.064.069.128.105.191s.076.127.118.189l.126.188c.042.063.088.125.133.187l.136.188c.091.126.185.25.272.38a.175.175,0,0,1,.291-.19l-.143.188c.182.014-.04-.2.238-.107.112.2-.116.276-.255.21l.229.182c-.044.054-.111.021-.19.058.089.007.119.137.165.266a.572.572,0,0,0,.089.176.188.188,0,0,0,.167.068l-.041.055a4.686,4.686,0,0,0,.529.545c.082.07.161.138.243.21l.062.055.065.056c.044.038.089.079.136.122a.18.18,0,0,1,.207-.034.633.633,0,0,0,.265.052c.058.072.113.153.172.233s.121.163.185.246l.049.062.052.059c.035.039.072.078.11.116s.078.075.119.111a1.49,1.49,0,0,0,.132.1c.308.107.171-.079.35-.09-.087.159.287.394.026.369A5.571,5.571,0,0,0,5.828,22c.085.041.177.078.287.12.055.021.114.044.181.066l.221.071c-.027-.1-.08-.166-.014-.2.117.034.2.2.143.265H6.609a1.051,1.051,0,0,1,.28.09,1.357,1.357,0,0,1,.131.072c.043.026.086.054.128.083.085.059.166.128.249.2s.164.14.245.21c.325.277.657.529,1,.462l-.038,0,.1.007c.06,0,.14.01.221.013l.32.014c.127.061.077.078.014.1s-.138.053-.057.14a1.47,1.47,0,0,1,.467.029,2.052,2.052,0,0,1,.368.122c.115.045.226.093.344.126a1.075,1.075,0,0,0,.388.037.621.621,0,0,0,.354.315,1.419,1.419,0,0,0,.258.076c.092.019.188.036.286.047l.295.036c.1.013.194.025.285.044a1.066,1.066,0,0,1,.476.2l-.012-.127c.164-.094.163.1.266.143,0-.1-.14-.133-.039-.186a11.26,11.26,0,0,1,1.876.279c.631.134,1.271.278,1.9.349.232.022.3-.136.383-.261s.176-.216.468-.071l-.166.229a6.284,6.284,0,0,1,1.437-.168c.122-.008.243-.015.364-.024s.243-.026.363-.043.239-.046.357-.076a2.911,2.911,0,0,0,.345-.121c-.047.061-.037.129-.129.143a.36.36,0,0,0,.212.035.88.88,0,0,0,.243-.068.892.892,0,0,0,.107-.055.637.637,0,0,0,.085-.064c.047-.043.073-.085.066-.118.149-.019.062.111.169.157a.249.249,0,0,0,.168-.033,1.245,1.245,0,0,0,.16-.105c.1-.072.191-.143.269-.08.026.02-.04.069-.073.093a.4.4,0,0,1,.138-.079c.059-.025.127-.045.185-.072.116-.052.194-.105.1-.172a1.253,1.253,0,0,0,.492-.193c.037-.02.072-.043.108-.063s.071-.04.107-.057a.741.741,0,0,1,.224-.067.263.263,0,0,1,.123-.157,1.959,1.959,0,0,1,.193-.1c.128-.061.239-.123.182-.267.073.139.243.1.409,0a1.224,1.224,0,0,0,.223-.2.717.717,0,0,0,.132-.218c0,.123.22-.051.232.107a1,1,0,0,0,.232-.27c.044-.084.04-.16-.03-.2a.546.546,0,0,0,.2-.054.491.491,0,0,0,.145-.109.91.91,0,0,0,.106-.141,1.6,1.6,0,0,0,.083-.151.838.838,0,0,1,.166-.253.309.309,0,0,1,.291-.066c.187-.353.354-.69.508-1.017s.293-.643.429-.952c.129.087.042.254-.044.415s-.171.314-.027.391a5.131,5.131,0,0,0,.228-.84,2.864,2.864,0,0,1,.11-.38,1.947,1.947,0,0,1,.193-.389c.107-.131.085.143.1.217.023-.079.045-.157.071-.233s.054-.149.084-.221q.087-.217.178-.425c.057-.14.108-.28.151-.421a1.977,1.977,0,0,0,.071-.434c.027.011.037.079.041.142.029-.109.126-.235-.013-.266l0,.116a.118.118,0,0,1-.15-.043.655.655,0,0,1-.095-.2c-.052-.156-.084-.328-.136-.352.17.146.231.021.3-.088s.151-.2.358.007c-.006-.079-.046-.185-.143-.192.052-.1.114-.12.192.015a.615.615,0,0,0-.062-.35.4.4,0,0,1-.018-.306c.067.015.078.092.149.146a1.42,1.42,0,0,1-.114-.32.662.662,0,0,1,.034-.38c.038.025.1,0,.08.088a1.36,1.36,0,0,0,0-.375c-.008-.06-.017-.119-.028-.178s-.024-.117-.034-.176-.021-.117-.028-.176-.011-.119-.014-.18a1.2,1.2,0,0,1,.052-.389c.289.187.108-.187.367-.206l-.031-.157-.035-.157-.128.12a1.274,1.274,0,0,0-.072-.385.561.561,0,0,1-.022-.353l.108.2-.027-.252c-.006-.063-.017-.126-.023-.173l-.011-.078-.043.144c-.011.036-.021.072-.031.1l-.015.045a.21.21,0,0,0-.108-.112.269.269,0,0,0-.1-.013c-.056,0-.087-.014-.058-.19.015.035.013-.031.025-.123a.521.521,0,0,1,.106-.286h0a.972.972,0,0,1-.122-.2.394.394,0,0,1-.024-.252c.077-.06.288.01.339-.028a.252.252,0,0,1-.119-.144,1.432,1.432,0,0,1-.065-.221,1.2,1.2,0,0,0-.07-.225.311.311,0,0,0-.139-.154.253.253,0,0,0,.221,0l-.191-.079c.035-.131.059-.154.168-.153-.019-.187-.095-.142-.157-.109s-.114.055-.088-.173c.021.031.043.009.083.075a1.92,1.92,0,0,0-.156-.625,2.1,2.1,0,0,1-.172-.592c.107-.1.148-.014.183.067s.063.162.15.065a3.6,3.6,0,0,0-.195-.415c-.078-.135-.159-.269-.239-.4s-.161-.263-.232-.394c-.036-.065-.069-.131-.1-.2s-.053-.135-.076-.2l.009.054c0,.027.007.054.007.054-.183.035-.185-.076-.175-.224a1.05,1.05,0,0,0,0-.233.268.268,0,0,0-.116-.19c.055.051.223-.006.178-.006a3.319,3.319,0,0,0-.857-1.114l.118.012a.915.915,0,0,0-.067-.19c-.032-.065-.071-.131-.111-.2l-.121-.2a1.846,1.846,0,0,1-.1-.18c-.12-.005-.19-.129-.25.023,0-.029,0-.058,0-.085s-.007-.054-.012-.079a.953.953,0,0,0-.041-.146.965.965,0,0,0-.06-.131q-.017-.031-.036-.06t-.041-.056a1.818,1.818,0,0,0-.407-.365c-.074-.052-.148-.1-.219-.157a1.652,1.652,0,0,1-.2-.166,1,1,0,0,1-.086-.1.894.894,0,0,1-.075-.105.836.836,0,0,1-.1-.26c.058.056.2.078.15.032L24.226,3.7l-.076-.056-.089-.061-.242-.166c-.074.149-.01.123-.006.3a.532.532,0,0,1-.388-.126c.261.088.17-.192.143-.334-.018.049-.082.065-.108.109-.01-.1-.03-.142-.058-.148s-.064.021-.1.048c-.08.053-.175.108-.27-.093L23.1,3.12a.85.85,0,0,0-.113-.039c-.039-.011-.079-.019-.117-.03a.435.435,0,0,1-.206-.109c.058-.188.179.03.281-.084a.411.411,0,0,0-.17-.061c-.032-.005-.064-.009-.1-.012l-.1-.009c-.127-.014-.235-.045-.266-.181.108.015.223.1.332.113a.627.627,0,0,0-.092-.272,1.644,1.644,0,0,0-.14-.135l.011.014-.136-.152-.094-.1c-.026-.029-.044-.047-.044-.047s.014.026.026.052l.026.053a.57.57,0,0,1-.307.065.524.524,0,0,1-.217-.088,1.3,1.3,0,0,0-.219-.119.557.557,0,0,0-.135-.034.542.542,0,0,0-.166.007A1.105,1.105,0,0,0,21.38,1.9c.038-.017.044-.034.04-.055-.008-.042-.06-.1,0-.18-.058-.1-.163-.231-.1-.262-.124.029-.176-.039-.243-.1a.3.3,0,0,0-.323-.069c.01-.033-.034-.057-.067-.09s-.054-.072,0-.139c-.246-.058,0,.13-.055.2-.22.023-.385-.135-.584-.284-.049-.038-.1-.076-.154-.11a1.162,1.162,0,0,0-.172-.087.808.808,0,0,0-.192-.051.716.716,0,0,0-.218.008,1.332,1.332,0,0,0-.308.008,2.175,2.175,0,0,0-.242.056c-.076.021-.149.041-.232.057a1.253,1.253,0,0,1-.28.025c-.053-.072-.008-.123.05-.155a.512.512,0,0,1,.13-.047.728.728,0,0,0-.6-.168c.057-.046.025-.107-.023-.2-.177-.022-.17.213-.374.065a.867.867,0,0,1,.23-.225c-.219.011-.447.1-.667.118-.036-.126.159-.151.249-.212l-.208,0a2.126,2.126,0,0,0-.221.02.413.413,0,0,0-.313.151l.072.043.071.045c-.087,0-.022-.165.048-.188.229-.111.286.111.285.179l-.157.019a.222.222,0,0,0,.136.181.457.457,0,0,0,.235.007A1.316,1.316,0,0,1,17.74.409l-.095.126-.093.126.177-.082c.045-.021.089-.04.123-.054L17.909.5c.046.089.048.256-.1.26.086.1.137.083.186.071s.093-.023.16.078c.013.029,0,.04-.021.046l.223-.024c-.056.046-.025.2-.134.129a.461.461,0,0,0,.229.109.836.836,0,0,0,.21.008c.129-.007.231-.018.26.11l-.035.006c.257.042.288,0,.309-.071a.261.261,0,0,1,.054-.112.358.358,0,0,1,.21-.094s.015.146.028.291.023.289.023.289l.128-.176c.047.027.137.085.086.154.239-.053.005-.1.165-.177a.416.416,0,0,0,.174.155,2.36,2.36,0,0,0,.217.1c.141.06.249.132.2.295.155-.1-.164-.223.132-.2-.047.179.03.2.136.211s.241.014.3.143c-.155.128-.3-.064-.176.193a.184.184,0,0,1,.177-.043.317.317,0,0,1,.131.114c.078.1.145.236.242.263.07-.1.174-.069.3.006.064.037.13.088.2.134a1.345,1.345,0,0,0,.228.121c-.033.028.073.148.21.29a4.384,4.384,0,0,1,.385.451l-.034.027a.272.272,0,0,1,.314-.007c.1.056.207.145.312.2a.287.287,0,0,1-.316.095l.16.139a.335.335,0,0,1,.291.062l-.169.1a1.039,1.039,0,0,0,.181.119c.065.037.134.072.2.113a.784.784,0,0,1,.344.362c.072-.052.113-.189.178-.288s.159-.161.339-.051c-.061.076-.172.2-.271.145.033.015.14.037.155.116l-.224-.01c.059.174.158-.024.238.088-.1.088-.007.139-.1.2-.032-.017-.035-.125-.109-.128a.813.813,0,0,1,.1.222.372.372,0,0,1,0,.21c.051-.06.141-.118.225-.044.1.107.079.151.044.191s-.085.073-.062.16c.116,0,.148.2.314.078.05.067-.019.137-.044.2a.474.474,0,0,1,.134.107c.048.05.1.106.144.155.092.1.176.154.22.024l-.009-.04c.007,0,.012.01.021.015h0a.872.872,0,0,1,.148.124,1.036,1.036,0,0,1,.113.151,1.664,1.664,0,0,1,.091.167c.028.057.05.118.073.178l.132.359a1.6,1.6,0,0,0,.077.169c.015.027.03.054.047.079s.032.052.051.076l-.061.03a2.678,2.678,0,0,1,.259.379,1.575,1.575,0,0,0,.126.179.645.645,0,0,0,.144.134c.033.08-.038.234-.128.231.066.091.116.138.153.2a.4.4,0,0,1,.043.12.882.882,0,0,1,.016.2.192.192,0,0,0-.091-.059.022.022,0,0,0-.026.013c-.006.011,0,.007-.042-.136a1.6,1.6,0,0,1,.016.183.844.844,0,0,0,.011.143.342.342,0,0,0,.056.131.939.939,0,0,0,.143.154c-.1-.024-.135.044-.137.13a.453.453,0,0,0,.075.249s.018-.056.033-.112l.032-.112a1.245,1.245,0,0,1,.107.4l-.241-.011a.607.607,0,0,0-.006.216.68.68,0,0,0,.054.19,1.252,1.252,0,0,0,.1.173c.034.056.071.111.106.165a1.853,1.853,0,0,1,.1.163.6.6,0,0,1,.056.166.4.4,0,0,1-.006.172.428.428,0,0,1-.034.089.582.582,0,0,1-.062.092c.09.063.107-.017.128-.1s.039-.171.143-.118a.429.429,0,0,1-.008.1.711.711,0,0,1-.031.1,1.374,1.374,0,0,1-.1.2c-.069.122-.144.219-.14.26a.294.294,0,0,0,.142.337.559.559,0,0,1,.129.134.277.277,0,0,1,.036.094.324.324,0,0,1,0,.126c.08-.052.3-.114.386.176a.3.3,0,0,1-.061.167.265.265,0,0,1-.123.086.168.168,0,0,1-.219-.079c-.008-.063.016-.095.044-.093-.033-.085-.073-.2-.158-.087l.083.031a.473.473,0,0,0-.044.133c-.012.051-.023.106-.035.155-.024.1-.055.165-.122.123.08.2.135.085.176-.063a1.241,1.241,0,0,0-.059.434,1.371,1.371,0,0,1-.045.439c.048-.052.147-.1.143-.043a1.383,1.383,0,0,0-.031.156.38.38,0,0,0,0,.1.129.129,0,0,0,.054.1.231.231,0,0,1,.127.24c-.147.186-.289-.1-.224.258-.109.2-.22.017-.278-.073a.464.464,0,0,1,.028.119.452.452,0,0,1-.007.111.645.645,0,0,1-.075.2,1.607,1.607,0,0,1-.109.164.606.606,0,0,0-.08.137l-.037-.171a.616.616,0,0,1-.007.26l.177-.062c-.022.045-.037.087-.055.117a.064.064,0,0,1-.073.038c.043.059.113.054.186.061a.217.217,0,0,1,.2.141c-.055.056-.052.159-.067.247s-.045.162-.156.159c.084-.191.028-.192-.043-.189a.169.169,0,0,1-.1-.015c-.028-.019-.042-.059-.034-.145a.346.346,0,0,1-.058.235c-.027.008-.041-.024-.047-.052-.278.325.2.23.088.62a.158.158,0,0,0-.243.094c.05-.152.219-.017.265.155a.3.3,0,0,0-.079.245.286.286,0,0,1,0,.175l.094-.134c.1.089.041.21.016.4-.094-.018-.007-.181-.068-.133a.194.194,0,0,1,.024.093.176.176,0,0,1-.024.081.621.621,0,0,1-.131.144c-.1.095-.224.189-.212.347-.127.088-.217-.079-.312,0a.3.3,0,0,1-.143.291c-.019.015-.038.029-.057.045a.336.336,0,0,0-.054.055.342.342,0,0,0-.063.187c.188-.008.162-.044.2.238,0,0,0-.008.006-.023l.016-.061.048-.185c.017-.067.035-.134.046-.185l.019-.085.011.065c.006.039.016.092.023.144l.028.21a.817.817,0,0,0,.068-.245.42.42,0,0,1,.058-.193c.052.209.021.177.179.162a.23.23,0,0,0-.148.121.478.478,0,0,0-.04.175.876.876,0,0,1-.03.189.26.26,0,0,1-.126.152l-.355-.2a.514.514,0,0,0-.173.221,1.308,1.308,0,0,0-.078.27,2.117,2.117,0,0,1-.085.3.854.854,0,0,1-.192.286s.038-.023.075-.047l.074-.048c.048.073.011.144-.048.213a.687.687,0,0,0-.154.23c-.1-.093-.2-.041-.311-.037.042.027-.012.1-.06.187a.247.247,0,0,0,.01.3l-.142.028-.141.026a.464.464,0,0,0-.052.049.4.4,0,0,0-.041.049.372.372,0,0,0-.051.1.945.945,0,0,0-.029.223.487.487,0,0,1-.177.428.26.26,0,0,0-.1-.172c-.037-.043-.055-.094,0-.22-.093.088-.194.147-.131.218-.028,0-.05.02-.072.054a1.315,1.315,0,0,0-.064.126.565.565,0,0,1-.077.127.123.123,0,0,1-.11.045c0,.08.071.2-.053.287a.087.087,0,0,1-.04-.054c.041.053-.132.211.063.255a.6.6,0,0,0-.207,0,.75.75,0,0,0-.19.057,2.445,2.445,0,0,0-.351.209c-.058.038-.116.073-.174.107a.9.9,0,0,1-.175.083.626.626,0,0,1-.176.035.424.424,0,0,1-.087-.005.411.411,0,0,1-.088-.027l-.189.117c-.032.02-.067.038-.1.056l-.1.053a3.29,3.29,0,0,1-.4.173c0-.044-.019-.065.032-.067a.217.217,0,0,0-.182.059.408.408,0,0,0-.067.148.327.327,0,0,1-.08.149.28.28,0,0,1-.221.049c-.255-.167.188-.166.04-.218-.04-.106-.088-.148-.144-.155a.2.2,0,0,0-.088.013.8.8,0,0,0-.1.041,1.19,1.19,0,0,1-.223.093.292.292,0,0,1-.238-.041l.061-.037a.228.228,0,0,0-.176-.01.892.892,0,0,0-.193.088l-.105.059c-.036.019-.074.037-.113.052a.664.664,0,0,1-.248.055.092.092,0,0,0,0-.068,1.1,1.1,0,0,1-.461.279,4.266,4.266,0,0,1-.556.145c.1-.178.153-.1.083-.274-.152.03.054.286-.254.342-.1-.093-.325-.177-.354-.368l.144-.005.1,0,.045,0a.2.2,0,0,0-.26-.092c-.093.028-.187.081-.263.058l.02-.107a.813.813,0,0,0-.264.059,1.537,1.537,0,0,0-.187.1.733.733,0,0,1-.48.109l.046.083c-.273.259-.213-.16-.483.027l-.064-.276c-.087.028-.241.084-.413.138a2.625,2.625,0,0,1-.519.112,2.949,2.949,0,0,1,.788-.369,2.451,2.451,0,0,0-.363,0,.476.476,0,0,0-.311.1c.071-.021.162-.081.226-.034a.957.957,0,0,1-.381.209,1.179,1.179,0,0,1-.469.03c.058-.26-.158-.315-.412-.366a2.2,2.2,0,0,1-.38-.094.413.413,0,0,1-.256-.223,1.329,1.329,0,0,1-.227.018,1.5,1.5,0,0,1-.222-.02A2.212,2.212,0,0,1,12.7,23c-.073-.02-.145-.043-.218-.067-.146-.047-.293-.106-.445-.157-.076-.025-.153-.051-.233-.073s-.161-.041-.245-.058c.035.115.041.169.028.194s-.044.019-.081.012c-.074-.014-.174-.033-.2.177-.164-.012-.223-.035-.23-.065l-.2-.185c-.051-.046-.1-.093-.138-.128l-.062-.059c-.076-.15.171-.047.183-.143-.324-.128-.09-.213-.276-.383,0,.159-.177.171-.347.058l.207.269a.347.347,0,0,1-.411-.2.36.36,0,0,0-.406-.212l.188-.073a4.307,4.307,0,0,1-.567-.136c-.056-.013-.113-.024-.169-.033a1.072,1.072,0,0,0-.166-.014.589.589,0,0,0-.3.073c-.021-.063-.028-.192.084-.176a2.037,2.037,0,0,0-.435-.162c-.078-.021-.157-.04-.237-.058L7.78,21.34a2.422,2.422,0,0,1-.436-.147.8.8,0,0,1-.312-.243l.091-.067c-.111-.028-.265.068-.329-.093.029-.033.092-.065.052-.1a1.023,1.023,0,0,1-.209-.017.358.358,0,0,1-.225-.117l.168-.029a1.025,1.025,0,0,0-.155-.133.892.892,0,0,0-.159-.092,1.107,1.107,0,0,0-.165-.059c-.055-.017-.111-.03-.167-.041a2.015,2.015,0,0,1-.674-.2.382.382,0,0,0,.013-.409,1.773,1.773,0,0,0-.109-.206c-.04-.064-.08-.121-.113-.167l.035-.026c-.057-.058-.112-.113-.169-.162q-.043-.037-.087-.071l-.044-.033L4.74,18.9c-.058-.043-.118-.083-.178-.122l-.092-.056-.09-.056c-.121-.074-.249-.143-.371-.225-.062-.04-.124-.082-.186-.126s-.121-.094-.18-.146a.643.643,0,0,0-.023-.194,1.186,1.186,0,0,0-.071-.2q-.023-.052-.051-.1l-.058-.107c-.039-.073-.083-.147-.129-.222a3.139,3.139,0,0,1-.431-.939c-.005.108-.216.1-.3.014-.007-.078-.1-.145-.154-.205s-.082-.114.049-.163l.018.048a.318.318,0,0,0,.085-.163.368.368,0,0,0-.012-.167A1.043,1.043,0,0,0,2.5,15.6c-.024-.055-.049-.111-.069-.164l-.353.1a.913.913,0,0,0,.01-.547A1.854,1.854,0,0,0,2,14.729c-.018-.043-.038-.085-.056-.127s-.037-.084-.055-.125c-.037-.083-.076-.163-.106-.243a1.451,1.451,0,0,1-.066-.228.58.58,0,0,1-.011-.105.452.452,0,0,1,.012-.1.349.349,0,0,1,.1-.171.547.547,0,0,1-.075-.1c-.02-.036-.037-.074-.054-.112a.86.86,0,0,0-.125-.217l.2-.018c0-.1,0-.185,0-.267,0-.04,0-.08,0-.119s0-.078,0-.117c0-.079-.009-.16-.016-.251s-.015-.193-.03-.313l.143.1a.179.179,0,0,0-.023-.091.308.308,0,0,0-.061-.078,1.214,1.214,0,0,0-.193-.135,1.314,1.314,0,0,1-.2-.138A.227.227,0,0,1,1.29,11.6l.148-.03.148-.029a1.158,1.158,0,0,1,.022-.178c.013-.059.028-.117.044-.176l.025-.087c.008-.029.017-.058.027-.086.02-.057.038-.114.055-.171.008-.029.016-.057.023-.086l.01-.043.011-.043a1.162,1.162,0,0,0,.03-.173c0-.029,0-.059,0-.089s0-.03,0-.045,0-.03,0-.045a.915.915,0,0,0-.029-.189c.039.019.117.054.11.13.016-.053.049-.127.083-.209a1.87,1.87,0,0,0,.1-.251.418.418,0,0,0,.022-.221.185.185,0,0,0-.169-.123.1.1,0,0,0,.134-.038.263.263,0,0,0,.035-.08.67.67,0,0,0,.023-.107c.006-.039.009-.082.012-.126s.006-.088.008-.133c0-.089,0-.178.009-.249l.154.122a2.232,2.232,0,0,1-.122-.327.643.643,0,0,1,.043-.329c.06-.052.166.022.073.082a.185.185,0,0,0,.082-.217A.234.234,0,0,1,2.522,7.8l.042.162a.712.712,0,0,0,.076-.125.192.192,0,0,0,.02-.088c0-.055-.028-.11-.045-.21a.411.411,0,0,1,.2-.242.331.331,0,0,1,.3-.044.321.321,0,0,1-.046-.192.227.227,0,0,1,.1-.187c.064.028.057.1.055.13a.664.664,0,0,0,.207-.2A1.284,1.284,0,0,0,3.545,6.6a.768.768,0,0,1,.11-.185.336.336,0,0,1,.08-.068A.361.361,0,0,1,3.846,6.3a.153.153,0,0,0,.116.049c-.127.114-.236.223-.315.3s-.124.116-.121.1c.065.061.15.046.221.059s.13.051.147.212c.012-.061.023-.137.04-.216A2.04,2.04,0,0,1,4,6.556.99.99,0,0,1,4.1,6.332a.412.412,0,0,1,.161-.144.208.208,0,0,1,.067.022l-.007.033a.213.213,0,0,0,.108-.131.78.78,0,0,0,.2-.1c.059.047.131.013.2-.041s.145-.128.2-.166c-.126-.148.038-.23-.194-.259.026,0-.007.034-.075.1a.168.168,0,0,0-.034.052c0-.006,0-.013,0-.019L4.47,5.9c.022-.144.06-.285.249-.292a2.935,2.935,0,0,1-.032-.369c.318.1.7.014.835.128.142-.162.344-.305.515-.465a1.46,1.46,0,0,0,.228-.252.726.726,0,0,0,.126-.3c.088-.1.174.029.24.059-.046.065-.122.1-.132.161a1.038,1.038,0,0,1,.169-.142c.066-.047.138-.091.2-.139.129-.095.231-.194.205-.323.166-.011.149.062.138.108s-.016.071.169-.032l-.021.094a.922.922,0,0,0,.558-.143,1.835,1.835,0,0,0,.219-.164l.211-.187c.071-.063.144-.125.222-.182a1.3,1.3,0,0,1,.12-.079,1.207,1.207,0,0,1,.131-.063.981.981,0,0,1,.651-.035c-.071-.015-.106-.021-.13-.059a3,3,0,0,0,.4-.046q.2-.032.4-.081l.2-.051.2-.051.2-.054.1-.028.1-.025c.134-.033.268-.065.4-.093s.27-.047.406-.061c.068-.007.136-.013.2-.016s.136,0,.2,0a2.371,2.371,0,0,1,.409.05c.307.039.32-.126.491-.27l.087.2.29-.27c.215-.111.421,0,.637.093a.671.671,0,0,0,.716-.022l-.082-.135c.205.013.641-.123.617.041.019-.027.059-.15.143-.081l.012.109.492-.213c.393.06-.039.436.529.43.209-.051.588-.344.505-.414-.086,0-.221-.058-.233-.167L16.962,2c.021-.323.157-.659-.331-.862l-.324.212L16.192,1.2l.28-.023c-.166-.14-.261,0-.37.09a.269.269,0,0,0-.148-.165l-.312.324c-.046-.123.134-.257-.09-.315-.146.151.162.274-.087.381-.168-.137-.128-.26-.308-.123a.133.133,0,0,1,.078-.177c-.162.11-.441.069-.516.245-.179-.169-.562.087-.568-.218a.9.9,0,0,1-.43.288c.125-.193-.019-.187-.191-.181s-.37.015-.352-.183a.624.624,0,0,1-.482.27c-.1.021-.213.038-.318.064a.959.959,0,0,0-.293.121c.017-.029.051-.086.086-.074-.212,0-.287-.089-.43-.132.011.272-.3.383-.451.574-.148-.108-.123-.192-.075-.28s.119-.175.059-.293c.024.108-.079.177-.173.246s-.178.129-.119.211c-.223-.125-.181-.048-.323-.251.028.338-.172.092-.294.329a.379.379,0,0,1-.223-.167.058.058,0,0,0-.059-.028.421.421,0,0,0-.145.066c-.085-.033-.066-.1-.024-.149a.5.5,0,0,1,.068-.07C10,1.565,10.019,1.554,10.019,1.554ZM3.412,5.348l0,0c.046-.047.085-.088.11-.113C3.5,5.255,3.466,5.289,3.412,5.348Zm-.463.445c.061-.05.129-.119.2-.19.063.033.093.1.044.141,0-.028-.039-.024-.086-.008S3,5.779,2.949,5.793Zm1.846.152c-.052.078-.1.067-.134.044a1.451,1.451,0,0,0,.108-.117c0-.007,0-.017-.006-.025A.307.307,0,0,1,4.795,5.944Z" transform="translate(0 0.199)" fill="#dc4844"/>
          <path id="Path_563238" data-name="Path 563238" d="M.049.036C.057.025.057.014.07,0A.426.426,0,0,0,0,0C0,.024.007.047.011.069Z" transform="translate(4.719 5.806)" fill="#dc4844"/>
          <path id="Path_563239" data-name="Path 563239" d="M0,.024,0,.037A.08.08,0,0,1,.012,0,.142.142,0,0,1,0,.024Z" transform="translate(25.307 6.39)" fill="#dc4844"/>
          <path id="Path_563240" data-name="Path 563240" d="M.005.059.053.049,0,0Z" transform="translate(0.114 14.216)" fill="#dc4844"/>
          <path id="Path_563241" data-name="Path 563241" d="M.006.068A.1.1,0,0,0,0,0,.129.129,0,0,0,.006.068Z" transform="translate(23.562 3.387)" fill="#dc4844"/>
          <path id="Path_563242" data-name="Path 563242" d="M.137.177,0,0A1.11,1.11,0,0,0,.137.177Z" transform="translate(22.275 2.323)" fill="#dc4844"/>
          <path id="Path_563243" data-name="Path 563243" d="M.061,0A.312.312,0,0,0,0,.061v0Z" transform="translate(21.425 1.799)" fill="#dc4844"/>
          <path id="Path_563244" data-name="Path 563244" d="M.007,0A.168.168,0,0,0,0,.046C0,.16.01.086.007,0Z" transform="translate(27.673 17.846)" fill="#dc4844"/>
          <path id="Path_563245" data-name="Path 563245" d="M0,0A.973.973,0,0,1,.1.168C.112.071.11-.005,0,0Z" transform="translate(27.919 12.368)" fill="#dc4844"/>
          <path id="Path_563246" data-name="Path 563246" d="M.034,0l0,0L0,.026Z" transform="translate(24.363 23.242)" fill="#dc4844"/>
          <path id="Path_563247" data-name="Path 563247" d="M.02.253A.325.325,0,0,0,.011,0,.541.541,0,0,0,.02.253Z" transform="translate(28.013 12.536)" fill="#dc4844"/>
          <path id="Path_563248" data-name="Path 563248" d="M.066.017.011,0A.055.055,0,0,1,0,.03Z" transform="translate(16.707 0.026)" fill="#dc4844"/>
          <path id="Path_563249" data-name="Path 563249" d="M.065,0,0,.013C.029.017.053.02.065,0Z" transform="translate(16.642 0.056)" fill="#dc4844"/>
          <path id="Path_563250" data-name="Path 563250" d="M0,.038.068.022.116.011l.021,0C.092,0,.037-.013,0,.038Z" transform="translate(16.505 0.062)" fill="#dc4844"/>
          <path id="Path_563251" data-name="Path 563251" d="M0,.063.036,0A.143.143,0,0,0,0,.063Z" transform="translate(18.266 0.388)" fill="#dc4844"/>
          <path id="Path_563252" data-name="Path 563252" d="M.419.226C.318.179.193,0,.029,0L0,.05C.049.009.122.075.2.139S.351.267.419.226Z" transform="translate(18.302 0.338)" fill="#dc4844"/>
          <path id="Path_563253" data-name="Path 563253" d="M.406.205.252.1C.214.074.174.05.145.031L.1,0C.124.094.159.22,0,.17.082.267.122.3.141.308S.163.283.167.248C.175.179.195.088.406.205Z" transform="translate(19.757 1.86)" fill="#dc4844"/>
          <path id="Path_563254" data-name="Path 563254" d="M.1.017c-.186-.07-.053.1-.084.126C.158.147.194.148.1.017Z" transform="translate(21.013 2.678)" fill="#dc4844"/>
          <path id="Path_563255" data-name="Path 563255" d="M.172,0,0,.047C.078.176.065.023.172,0Z" transform="translate(26.185 8.748)" fill="#dc4844"/>
          <path id="Path_563256" data-name="Path 563256" d="M.11.211.176.031,0,0Z" transform="translate(27.609 9.797)" fill="#dc4844"/>
          <path id="Path_563257" data-name="Path 563257" d="M.035.059,0,0,.1.231Z" transform="translate(26.65 11.134)" fill="#dc4844"/>
          <path id="Path_563258" data-name="Path 563258" d="M0,.038.136.214a.153.153,0,0,0,0-.166A.089.089,0,0,0,.078,0,.084.084,0,0,0,0,.038Z" transform="translate(22.075 22.7)" fill="#dc4844"/>
          <path id="Path_563259" data-name="Path 563259" d="M.336.133A.225.225,0,0,0,0,.047C.134.07.266.159.336.133Z" transform="translate(16.085 23.648)" fill="#dc4844"/>
          <path id="Path_563260" data-name="Path 563260" d="M.023.1.129.179,0,0Z" transform="translate(2.214 15.27)" fill="#dc4844"/>
        </g>
      </g>
    </g>
    <g id="Layer_4" data-name="Layer 4" transform="translate(19.85 599.057) rotate(-18)">
      <path id="Path_563265" data-name="Path 563265" d="M0,.686S7.915-.254,8.092.067s-5.569,6.51-5.569,6.51L.622,4.153Z" transform="translate(40.342 0)" fill="#e7b26a"/>
      <path id="Path_563266" data-name="Path 563266" d="M34.452,0,0,14.887l2.489,5.728L36.955,5.9s.319-.945-.54-1.118c0,0,.521-.827-.538-1.141,0,0,.491-.789-.527-1.325a.712.712,0,0,0-.405-1.1S35.377.651,34.452,0Z" transform="translate(5.934 0.668)" fill="#d45c5c"/>
      <path id="Path_563268" data-name="Path 563268" d="M2.165,2.063,7,0,9.453,5.756,4.622,7.818A3.306,3.306,0,0,1,.229,6.292h0A3.306,3.306,0,0,1,2.165,2.063Z" transform="translate(0 15.087)" fill="#252a26"/>
      <path id="Path_563270" data-name="Path 563270" d="M0,.237A17.558,17.558,0,0,1,3.08.049a15.647,15.647,0,0,1-1.923,2.4Z" transform="translate(45.338 0)" fill="#282928"/>
    </g>
    <g id="Group_51310" data-name="Group 51310" transform="translate(101.443 91.071)">
      <rect id="Rectangle_23737" data-name="Rectangle 23737" width="4.964" height="2.393" transform="matrix(0.984, 0.178, -0.178, 0.984, 146.295, 368.555)" fill="#486f80"/>
      <rect id="Rectangle_23738" data-name="Rectangle 23738" width="8.679" height="3.214" rx="0.998" transform="matrix(0.984, 0.178, -0.178, 0.984, 145.041, 365.061)" fill="#e24717"/>
      <g id="Group_51297" data-name="Group 51297" transform="translate(131 369.457)">
        <path id="Path_563501" data-name="Path 563501" d="M139.87,373.016l1.418,4.394-3.393,2.083-3.277-3.251a.984.984,0,0,1,.178-1.536l3.624-2.225A.984.984,0,0,1,139.87,373.016Z" transform="translate(-134.327 -372.334)" fill="#2b6b87"/>
        <path id="Path_563502" data-name="Path 563502" d="M182.131,384.734l-4.209,1.9-2.446-3.141,2.869-3.617a.984.984,0,0,1,1.547.007l2.612,3.355A.984.984,0,0,1,182.131,384.734Z" transform="translate(-150.604 -375.168)" fill="#2b6b87"/>
      </g>
      <g id="Group_51298" data-name="Group 51298" transform="translate(125.917 368.166)">
        <path id="Path_563503" data-name="Path 563503" d="M129.471,389.686A18.214,18.214,0,0,1,149.4,374.832c-.4-.1-.808-.2-1.223-.27a18.216,18.216,0,0,0-6.494,35.849c.414.075.827.13,1.24.176A18.214,18.214,0,0,1,129.471,389.686Z" transform="translate(-126.232 -371.808)" fill="#fa6c51"/>
        <ellipse id="Ellipse_3908" data-name="Ellipse 3908" cx="18.169" cy="16.965" rx="18.169" ry="16.965" transform="matrix(0.178, -0.984, 0.984, 0.178, 0, 35.755)" fill="#fa6c51"/>
      </g>
      <g id="Group_51299" data-name="Group 51299" transform="translate(131.798 376.025)">
        <path id="Path_563504" data-name="Path 563504" d="M139.563,394.408a12.819,12.819,0,0,1,13.017-10.527,12.817,12.817,0,1,0-4.52,24.951A12.82,12.82,0,0,1,139.563,394.408Z" transform="translate(-135.646 -383.201)" fill="#d6eded"/>
        <path id="Path_563505" data-name="Path 563505" d="M163.506,398.746a12.82,12.82,0,0,0-8.5-14.424,12.818,12.818,0,0,0-4.52,24.951A12.821,12.821,0,0,0,163.506,398.746Z" transform="translate(-138.074 -383.641)" fill="#f9f9f9"/>
      </g>
      <path id="Path_563506" data-name="Path 563506" d="M152.754,402.325a2.5,2.5,0,1,1,2.017,2.909A2.5,2.5,0,0,1,152.754,402.325Z" transform="translate(-10.6 -13.927)" fill="#486f80"/>
      <g id="Group_51300" data-name="Group 51300" transform="translate(143.894 380.617)">
        <path id="Path_563507" data-name="Path 563507" d="M156.381,399.75a.724.724,0,0,1-.595-1.136l5.191-7.5a.724.724,0,0,1,1.19.823l-5.191,7.5A.723.723,0,0,1,156.381,399.75Z" transform="translate(-155.658 -390.797)" fill="#e24717"/>
      </g>
    </g>
  </g>
</svg>
