<svg xmlns="http://www.w3.org/2000/svg" xmlns:xlink="http://www.w3.org/1999/xlink" width="336" height="254" viewBox="0 0 336 254">
  <defs>
    <clipPath id="clip-path">
      <rect id="Rectangle_23789" data-name="Rectangle 23789" width="336" height="204" transform="translate(11111 -11768)" fill="#fff" stroke="#707070" stroke-width="1"/>
    </clipPath>
  </defs>
  <g id="Group_52526" data-name="Group 52526" transform="translate(-5 -302)">
    <rect id="Rectangle_23727" data-name="Rectangle 23727" width="179" height="2" rx="1" transform="translate(98 554)" fill="#fa6c51"/>
    <path id="Path_563591" data-name="Path 563591" d="M7.761.8C11.9.8,13.635.139,14.89.191S10.422,5.722,6.278,5.722.663.539,1.362.373,3.617.8,7.761.8Z" transform="matrix(0.978, -0.208, 0.208, 0.978, 148.42, 477.595)" fill="#fff"/>
    <g id="Group_51135" data-name="Group 51135" transform="translate(122.5 419.118)">
      <path id="Path_563132" data-name="Path 563132" d="M190.822,50.117l74.013,74.013a27.076,27.076,0,0,1,0,38.18l-74.013,74.015a27.078,27.078,0,0,1-38.18,0L78.627,162.311a27.078,27.078,0,0,1,0-38.18l74.015-74.013A27.076,27.076,0,0,1,190.822,50.117Z" transform="translate(-106.732 -107.318)" fill="#fa6c51" fill-rule="evenodd"/>
    </g>
    <g id="Group_51218" data-name="Group 51218" transform="matrix(0.985, -0.174, 0.174, 0.985, -523.984, 1111.958)">
      <g id="Group_51196" data-name="Group 51196" transform="translate(753.909 -667.25)">
        <g id="Group_51195" data-name="Group 51195" transform="translate(0 0)">
          <g id="Group_51189" data-name="Group 51189" transform="translate(3.064)">
            <path id="Path_563310" data-name="Path 563310" d="M550.986,131.723c-.978.43-2.5,1.44-3.689,1.87-4.634-6.563-5.5-19.267-5.5-19.267a32.344,32.344,0,0,1-3.438-1.73c-12.389-7.152-22.434-22.738-22.434-34.807,0-3.223-1.574-6.686.251-8.228a29.208,29.208,0,0,1,5.5-3.063c4.106-2.076,10.059-1.434,16.683,2.392C550.755,76.042,560.8,91.627,560.8,103.7c0,4.435-1.356,7.775-3.685,9.876-1.613,1.457-6.123,3.451-6.123,3.451Z" transform="translate(-514.407 -64.452)" fill="#c7c8c7"/>
            <path id="Path_563311" data-name="Path 563311" d="M547.914,135.094a.891.891,0,0,1-.73-.378c-4.226-5.986-5.39-16.628-5.611-19.176a34.016,34.016,0,0,1-3.04-1.558c-12.617-7.289-22.881-23.249-22.881-35.582a19.777,19.777,0,0,0-.329-3.066c-.349-2.209-.707-4.49.9-5.842a21.8,21.8,0,0,1,4.559-2.636c.4-.192.785-.375,1.118-.541,4.523-2.291,10.916-1.408,17.53,2.415,12.617,7.286,22.881,23.246,22.881,35.579,0,4.546-1.375,8.192-3.982,10.538a29.312,29.312,0,0,1-5.826,3.363v14.125a.891.891,0,0,1-.538.818c-.385.166-.857.433-1.359.714a17.359,17.359,0,0,1-2.385,1.176A.9.9,0,0,1,547.914,135.094ZM527.542,66.842A10.709,10.709,0,0,0,522.7,67.9c-.342.176-.737.362-1.15.56a20.563,20.563,0,0,0-4.174,2.388c-.838.707-.583,2.327-.287,4.2a21.327,21.327,0,0,1,.349,3.346c0,11.763,9.867,27.032,21.991,34.035a31.174,31.174,0,0,0,3.343,1.681.9.9,0,0,1,.538.759c.01.121.851,11.786,4.94,18.218.482-.228,1.007-.518,1.486-.785.345-.2.678-.378.981-.534V117.635a.894.894,0,0,1,.531-.818,30.7,30.7,0,0,0,5.888-3.294c2.219-2,3.392-5.187,3.392-9.215,0-11.763-9.863-27.035-21.991-34.035A22.659,22.659,0,0,0,527.542,66.842Zm24.064,65.492h0Z" transform="translate(-515.024 -65.063)" fill="#1e1e1e"/>
          </g>
          <g id="Group_51190" data-name="Group 51190" transform="translate(0 1.86)">
            <path id="Path_563312" data-name="Path 563312" d="M549.419,132.3c-6.7-7.048-9.189-17.4-9.189-17.4a32.363,32.363,0,0,1-3.438-1.73c-12.389-7.152-22.435-22.738-22.435-34.807s10.046-16.054,22.435-8.9,22.438,22.738,22.438,34.807c0,7.508-3.888,11.887-9.811,12.4Z" transform="translate(-513.465 -65.017)" fill="#fff"/>
            <path id="Path_563313" data-name="Path 563313" d="M550.038,133.8a.888.888,0,0,1-.645-.277c-6.087-6.4-8.742-15.285-9.3-17.368a35.081,35.081,0,0,1-3.125-1.6c-12.617-7.289-22.884-23.249-22.884-35.582,0-5.481,2.033-9.674,5.725-11.809,4.562-2.633,11.141-1.854,18.052,2.138,12.617,7.283,22.881,23.243,22.881,35.579,0,7.423-3.653,12.294-9.811,13.2v14.833a.89.89,0,0,1-.893.89ZM525.987,67.414a10.446,10.446,0,0,0-5.285,1.3c-3.118,1.8-4.832,5.445-4.832,10.261,0,11.766,9.863,27.035,21.991,34.035a30.81,30.81,0,0,0,3.34,1.681.9.9,0,0,1,.515.613,44.613,44.613,0,0,0,7.429,15.227l0-13.246a.893.893,0,0,1,.815-.89c5.715-.5,8.993-4.692,8.993-11.512,0-11.77-9.863-27.035-21.988-34.035A22.662,22.662,0,0,0,525.987,67.414Z" transform="translate(-514.084 -65.634)" fill="#1e1e1e"/>
          </g>
          <g id="Group_51194" data-name="Group 51194" transform="translate(9.329 17.883)">
            <g id="Group_51191" data-name="Group 51191">
              <path id="Path_563314" data-name="Path 563314" d="M522.772,76.462c0,2.046-1.241,2.985-2.776,2.1a6.647,6.647,0,0,1-2.776-5.3c0-2.046,1.245-2.985,2.776-2.1A6.648,6.648,0,0,1,522.772,76.462Z" transform="translate(-516.331 -69.933)" fill="#fa6c51"/>
              <path id="Path_563315" data-name="Path 563315" d="M521.72,80.407a3.159,3.159,0,0,1-1.554-.453,7.537,7.537,0,0,1-3.219-6.08,3.317,3.317,0,0,1,1.4-3.017,2.654,2.654,0,0,1,2.708.147,7.525,7.525,0,0,1,3.223,6.077,3.317,3.317,0,0,1-1.4,3.017A2.3,2.3,0,0,1,521.72,80.407Zm-2.209-8.068a.538.538,0,0,0-.267.062c-.251.147-.515.606-.515,1.473a5.759,5.759,0,0,0,2.33,4.533c.222.13.642.316.925.147.248-.143.515-.606.515-1.473a5.761,5.761,0,0,0-2.333-4.529A1.4,1.4,0,0,0,519.511,72.339Z" transform="translate(-516.947 -70.551)" fill="#1e1e1e"/>
            </g>
            <g id="Group_51192" data-name="Group 51192" transform="translate(8.749 5.072)">
              <path id="Path_563316" data-name="Path 563316" d="M525.458,78.019c0,2.043-1.241,2.985-2.776,2.1a6.653,6.653,0,0,1-2.776-5.3c0-2.043,1.245-2.982,2.776-2.1A6.649,6.649,0,0,1,525.458,78.019Z" transform="translate(-519.013 -71.489)" fill="#fa6c51"/>
              <path id="Path_563317" data-name="Path 563317" d="M524.406,81.965a3.139,3.139,0,0,1-1.551-.453,7.525,7.525,0,0,1-3.223-6.077,3.324,3.324,0,0,1,1.408-3.021,2.646,2.646,0,0,1,2.708.147,7.52,7.52,0,0,1,3.223,6.077,3.324,3.324,0,0,1-1.4,3.017A2.308,2.308,0,0,1,524.406,81.965Zm-2.2-8.071a.575.575,0,0,0-.274.065c-.248.143-.512.606-.512,1.476a5.758,5.758,0,0,0,2.33,4.529c.222.13.632.319.926.147.247-.143.511-.606.511-1.473a5.765,5.765,0,0,0-2.33-4.533A1.414,1.414,0,0,0,522.2,73.894Z" transform="translate(-519.632 -72.108)" fill="#1e1e1e"/>
            </g>
            <g id="Group_51193" data-name="Group 51193" transform="translate(17.742 9.937)">
              <path id="Path_563318" data-name="Path 563318" d="M528.218,79.512c0,2.046-1.245,2.985-2.776,2.1a6.638,6.638,0,0,1-2.776-5.3c0-2.046,1.241-2.985,2.776-2.1A6.658,6.658,0,0,1,528.218,79.512Z" transform="translate(-521.773 -72.982)" fill="#fa6c51"/>
              <path id="Path_563319" data-name="Path 563319" d="M527.166,83.458A3.1,3.1,0,0,1,525.615,83a7.514,7.514,0,0,1-3.222-6.074,3.321,3.321,0,0,1,1.408-3.021,2.647,2.647,0,0,1,2.708.147,7.536,7.536,0,0,1,3.219,6.077,3.322,3.322,0,0,1-1.4,3.021A2.335,2.335,0,0,1,527.166,83.458ZM524.96,75.39a.551.551,0,0,0-.27.062c-.248.147-.512.609-.512,1.476a5.758,5.758,0,0,0,2.33,4.529,1.025,1.025,0,0,0,.922.147c.248-.143.515-.606.515-1.473a5.784,5.784,0,0,0-2.33-4.533A1.452,1.452,0,0,0,524.96,75.39Z" transform="translate(-522.392 -73.601)" fill="#1e1e1e"/>
            </g>
          </g>
        </g>
      </g>
    </g>
    <g id="Ellipse_3904" data-name="Ellipse 3904" transform="translate(223.472 377.473)" fill="#c7c8c7" stroke="#000" stroke-width="1">
      <circle cx="5.718" cy="5.718" r="5.718" stroke="none"/>
      <circle cx="5.718" cy="5.718" r="5.218" fill="none"/>
    </g>
    <g id="Ellipse_3911" data-name="Ellipse 3911" transform="translate(225.759 377.473)" fill="#fff" stroke="#000" stroke-width="1">
      <circle cx="5.718" cy="5.718" r="5.718" stroke="none"/>
      <circle cx="5.718" cy="5.718" r="5.218" fill="none"/>
    </g>
    <g id="Ellipse_3903" data-name="Ellipse 3903" transform="translate(225.188 353.459)" fill="#c7c8c7" stroke="#000" stroke-width="1">
      <circle cx="9.72" cy="9.72" r="9.72" stroke="none"/>
      <circle cx="9.72" cy="9.72" r="9.22" fill="none"/>
    </g>
    <g id="Ellipse_3910" data-name="Ellipse 3910" transform="translate(227.475 353.459)" fill="#fff" stroke="#000" stroke-width="1">
      <circle cx="9.72" cy="9.72" r="9.72" stroke="none"/>
      <circle cx="9.72" cy="9.72" r="9.22" fill="none"/>
    </g>
    <g id="Path_563589" data-name="Path 563589" transform="translate(209.75 302)" fill="#c7c8c7">
      <path d="M 61.17852401733398 53.24562454223633 C 52.95003128051758 53.24562454223633 44.96875381469727 52.53794860839844 37.45641708374023 51.14224243164062 C 30.20903205871582 49.7957649230957 23.70326232910156 47.86950302124023 18.1198616027832 45.4169807434082 C 12.56138515472412 42.97541046142578 8.203708648681641 40.13885498046875 5.167877674102783 36.98610305786133 C 2.070508718490601 33.76945495605469 0.5000009536743164 30.36684036254883 0.5000009536743164 26.87281036376953 C 0.5000009536743164 23.37878036499023 2.070508718490601 19.97616386413574 5.167877674102783 16.75951766967773 C 8.203708648681641 13.60676383972168 12.56138515472412 10.77021026611328 18.1198616027832 8.328640937805176 C 23.70326232910156 5.876118183135986 30.20903205871582 3.949856519699097 37.45641708374023 2.603379487991333 C 44.96875381469727 1.207671880722046 52.95003128051758 0.4999949932098389 61.17852401733398 0.4999949932098389 C 69.40701293945312 0.4999949932098389 77.38829040527344 1.207671880722046 84.900634765625 2.603379487991333 C 92.14801788330078 3.949856519699097 98.65378570556641 5.876118183135986 104.2371826171875 8.328640937805176 C 109.7956619262695 10.77021026611328 114.1533432006836 13.60676383972168 117.1891708374023 16.75951766967773 C 120.2865371704102 19.97616386413574 121.857048034668 23.37878036499023 121.857048034668 26.87281036376953 C 121.857048034668 30.36684036254883 120.2865371704102 33.76945495605469 117.1891708374023 36.98610305786133 C 114.1533432006836 40.13885498046875 109.7956619262695 42.97541046142578 104.2371826171875 45.4169807434082 C 98.65378570556641 47.86950302124023 92.14801788330078 49.7957649230957 84.900634765625 51.14224243164062 C 77.38829040527344 52.53794860839844 69.40701293945312 53.24562454223633 61.17852401733398 53.24562454223633 Z" stroke="none"/>
      <path d="M 61.17852401733398 0.9999923706054688 C 52.9805908203125 0.9999923706054688 45.03003692626953 1.704845428466797 37.54773712158203 3.094959259033203 C 30.33805847167969 4.434444427490234 23.86922454833984 6.349327087402344 18.32093811035156 8.786426544189453 C 12.82252502441406 11.20161056518555 8.51837158203125 14.00082778930664 5.528038024902344 17.10632705688477 C 2.5234375 20.22662734985352 0.9999923706054688 23.51254463195801 0.9999923706054688 26.87281036376953 C 0.9999923706054688 30.23307609558105 2.5234375 33.51899337768555 5.528038024902344 36.6392936706543 C 8.51837158203125 39.74477767944336 12.82252502441406 42.54399490356445 18.32093811035156 44.95919418334961 C 23.86923980712891 47.39629364013672 30.33805847167969 49.31117630004883 37.54773712158203 50.65064239501953 C 45.03005981445312 52.04077529907227 52.9805908203125 52.74562835693359 61.17852401733398 52.74562835693359 C 69.37645721435547 52.74562835693359 77.32699584960938 52.04077529907227 84.80931091308594 50.65064239501953 C 92.01897430419922 49.31117630004883 98.48780822753906 47.39629364013672 104.0361099243164 44.95919418334961 C 109.5345077514648 42.54399490356445 113.8386535644531 39.74477767944336 116.828987121582 36.6392936706543 C 119.8335876464844 33.51899337768555 121.3570404052734 30.23307609558105 121.3570404052734 26.87281036376953 C 121.3570404052734 23.51254463195801 119.8335876464844 20.22662734985352 116.828987121582 17.10632705688477 C 113.8386535644531 14.00082778930664 109.5345077514648 11.20161056518555 104.0361099243164 8.786426544189453 C 98.48780822753906 6.349327087402344 92.01897430419922 4.434444427490234 84.80931091308594 3.094959259033203 C 77.32699584960938 1.704845428466797 69.37645721435547 0.9999923706054688 61.17852401733398 0.9999923706054688 M 61.17852401733398 -7.62939453125e-06 C 94.96649169921875 -7.62939453125e-06 122.3570404052734 12.0313606262207 122.3570404052734 26.87281036376953 C 122.3570404052734 41.7142448425293 94.96649169921875 53.74562835693359 61.17852401733398 53.74562835693359 C 27.39055633544922 53.74562835693359 -7.62939453125e-06 41.7142448425293 -7.62939453125e-06 26.87281036376953 C -7.62939453125e-06 12.0313606262207 27.39055633544922 -7.62939453125e-06 61.17852401733398 -7.62939453125e-06 Z" stroke="none" fill="#000"/>
    </g>
    <g id="Path_563590" data-name="Path 563590" transform="translate(213.752 302)" fill="#fff">
      <path d="M 61.17852401733398 53.24562454223633 C 52.95003128051758 53.24562454223633 44.96875381469727 52.53794860839844 37.45641708374023 51.14224243164062 C 30.20903205871582 49.7957649230957 23.70326232910156 47.86950302124023 18.1198616027832 45.4169807434082 C 12.56138515472412 42.97541046142578 8.203708648681641 40.13885498046875 5.167877674102783 36.98610305786133 C 2.070508718490601 33.76945495605469 0.5000009536743164 30.36684036254883 0.5000009536743164 26.87281036376953 C 0.5000009536743164 23.37878036499023 2.070508718490601 19.97616386413574 5.167877674102783 16.75951766967773 C 8.203708648681641 13.60676383972168 12.56138515472412 10.77021026611328 18.1198616027832 8.328640937805176 C 23.70326232910156 5.876118183135986 30.20903205871582 3.949856519699097 37.45641708374023 2.603379487991333 C 44.96875381469727 1.207671880722046 52.95003128051758 0.4999949932098389 61.17852401733398 0.4999949932098389 C 69.40701293945312 0.4999949932098389 77.38829040527344 1.207671880722046 84.900634765625 2.603379487991333 C 92.14801788330078 3.949856519699097 98.65378570556641 5.876118183135986 104.2371826171875 8.328640937805176 C 109.7956619262695 10.77021026611328 114.1533432006836 13.60676383972168 117.1891708374023 16.75951766967773 C 120.2865371704102 19.97616386413574 121.857048034668 23.37878036499023 121.857048034668 26.87281036376953 C 121.857048034668 30.36684036254883 120.2865371704102 33.76945495605469 117.1891708374023 36.98610305786133 C 114.1533432006836 40.13885498046875 109.7956619262695 42.97541046142578 104.2371826171875 45.4169807434082 C 98.65378570556641 47.86950302124023 92.14801788330078 49.7957649230957 84.900634765625 51.14224243164062 C 77.38829040527344 52.53794860839844 69.40701293945312 53.24562454223633 61.17852401733398 53.24562454223633 Z" stroke="none"/>
      <path d="M 61.17852401733398 0.9999923706054688 C 52.9805908203125 0.9999923706054688 45.03003692626953 1.704845428466797 37.54773712158203 3.094959259033203 C 30.33805847167969 4.434444427490234 23.86922454833984 6.349327087402344 18.32093811035156 8.786426544189453 C 12.82252502441406 11.20161056518555 8.51837158203125 14.00082778930664 5.528038024902344 17.10632705688477 C 2.5234375 20.22662734985352 0.9999923706054688 23.51254463195801 0.9999923706054688 26.87281036376953 C 0.9999923706054688 30.23307609558105 2.5234375 33.51899337768555 5.528038024902344 36.6392936706543 C 8.51837158203125 39.74477767944336 12.82252502441406 42.54399490356445 18.32093811035156 44.95919418334961 C 23.86923980712891 47.39629364013672 30.33805847167969 49.31117630004883 37.54773712158203 50.65064239501953 C 45.03005981445312 52.04077529907227 52.9805908203125 52.74562835693359 61.17852401733398 52.74562835693359 C 69.37645721435547 52.74562835693359 77.32699584960938 52.04077529907227 84.80931091308594 50.65064239501953 C 92.01897430419922 49.31117630004883 98.48780822753906 47.39629364013672 104.0361099243164 44.95919418334961 C 109.5345077514648 42.54399490356445 113.8386535644531 39.74477767944336 116.828987121582 36.6392936706543 C 119.8335876464844 33.51899337768555 121.3570404052734 30.23307609558105 121.3570404052734 26.87281036376953 C 121.3570404052734 23.51254463195801 119.8335876464844 20.22662734985352 116.828987121582 17.10632705688477 C 113.8386535644531 14.00082778930664 109.5345077514648 11.20161056518555 104.0361099243164 8.786426544189453 C 98.48780822753906 6.349327087402344 92.01897430419922 4.434444427490234 84.80931091308594 3.094959259033203 C 77.32699584960938 1.704845428466797 69.37645721435547 0.9999923706054688 61.17852401733398 0.9999923706054688 M 61.17852401733398 -7.62939453125e-06 C 94.96649169921875 -7.62939453125e-06 122.3570404052734 12.0313606262207 122.3570404052734 26.87281036376953 C 122.3570404052734 41.7142448425293 94.96649169921875 53.74562835693359 61.17852401733398 53.74562835693359 C 27.39055633544922 53.74562835693359 -7.62939453125e-06 41.7142448425293 -7.62939453125e-06 26.87281036376953 C -7.62939453125e-06 12.0313606262207 27.39055633544922 -7.62939453125e-06 61.17852401733398 -7.62939453125e-06 Z" stroke="none" fill="#000"/>
    </g>
    <g id="Mask_Group_223" data-name="Mask Group 223" transform="translate(-11106 12118)" clip-path="url(#clip-path)">
      <g id="Characters" transform="translate(11203.357 -11735.146)">
        <g id="Group_51312" data-name="Group 51312" transform="translate(79.105 51.209)">
          <path id="Path_563847" data-name="Path 563847" d="M1.925-.011A1.876,1.876,0,0,1,3.838,1.858,1.93,1.93,0,0,1,1.9,3.749,1.876,1.876,0,0,1-.011,1.88,1.93,1.93,0,0,1,1.925-.011Z" transform="matrix(0.229, -0.973, 0.973, 0.229, 0, 3.752)" fill="#0c2238"/>
          <path id="Path_563530" data-name="Path 563530" d="M1162.591,493.147a2.245,2.245,0,1,1,2.186-2.244A2.218,2.218,0,0,1,1162.591,493.147Zm0-3.855a1.612,1.612,0,1,0,1.569,1.611A1.592,1.592,0,0,0,1162.591,489.292Z" transform="translate(-1160.334 -488.585)" fill="#0c2238"/>
        </g>
        <path id="Path_563531" data-name="Path 563531" d="M1048.625,359.324l-2.47,16.743.732,7.927s-6.55-5.366-12.535-.7-5.493,13.046-1.406,16.716,11.084,3.616,14.676-.4c0,0-.213,11.507,7.587,17.8s12.307,7.965,20.6,7.13,14.761-5.205,19.3-13.954,2.688-10.977,2.688-10.977,6.655,6.93,14.282.753,1.48-14.752,1.028-15.243-3.737-4.542-11.271-3.049L1098.5,383.3l-2.244-9.408L1091.487,369l-21.07-14.856s-19.65,2.5-19.305,2.384S1048.625,359.324,1048.625,359.324Z" transform="translate(-980.159 -334.04)" fill="#f4d0b5"/>
        <g id="Group_51313" data-name="Group 51313" transform="translate(98.84 51.283)">
          <path id="Path_563532" data-name="Path 563532" d="M1252.619,491.951a1.878,1.878,0,1,1-1.877-1.927A1.9,1.9,0,0,1,1252.619,491.951Z" transform="translate(-1248.556 -489.708)" fill="#0c2238"/>
          <path id="Path_563533" data-name="Path 563533" d="M1249.683,493.147a2.245,2.245,0,1,1,2.186-2.244A2.218,2.218,0,0,1,1249.683,493.147Zm0-3.855a1.612,1.612,0,1,0,1.569,1.611A1.592,1.592,0,0,0,1249.683,489.292Z" transform="translate(-1247.498 -488.659)" fill="#0c2238"/>
        </g>
        <path id="Path_563534" data-name="Path 563534" d="M946.956,1068.4s-15.173,32.494-14.694,31.674,29.935,1.148,29.935,1.148l31.237-27.385-6.71-19.708Z" transform="translate(-904.585 -871.767)" fill="#f4d0b5"/>
        <g id="Group_51314" data-name="Group 51314" transform="translate(88.307 49.505)">
          <path id="Path_563535" data-name="Path 563535" d="M1203.962,494.581a3.381,3.381,0,0,1-2.233-.812,2.488,2.488,0,0,1-.879-2.052l.718-10.728,1.229.086-.718,10.728a1.256,1.256,0,0,0,.455,1.007,2.227,2.227,0,0,0,1.941.448l1.395-.312.263,1.236-1.395.312A3.555,3.555,0,0,1,1203.962,494.581Z" transform="translate(-1200.844 -480.989)" fill="#0c2238"/>
        </g>
        <path id="Path_563536" data-name="Path 563536" d="M1312.749,992.985l-41.8,17.943,2.524,23.366,35.7,14.1,16.373-26.968Z" transform="translate(-1166.818 -824.798)" fill="#f4d0b5"/>
        <path id="Path_563537" data-name="Path 563537" d="M895.609,731.108s-41.538,1.669-67.3,47.411c0,0-16.18,23.857-15.282,67.29s41.969,34.9,49.727,32.445,31.663-12.459,50.967-27.064,29.175-20.136,29.175-20.136L931.945,813.74s-37.088,8.6-51.556,13.643a70.8,70.8,0,0,0-11.26,7.034c-4.761,3.84-9.015,6.936-9.748,6.031a6.014,6.014,0,0,1-1.021-1.958s-6.435,6.168-7.346,3.861,1.056-5.435,1.056-5.435-6.817,6.2-5.248,1.108,5.453-9.082,8.7-11.359,11.665-7.9,22.421-7.378,15.161,3.557,15.161,3.557l10.342-46.518,12.2,45.49,16.29-5.075L933,812.462l9.89-9.059,6.941-1.188,7.462,15.9s3.254,3.834-5.017,8.147-24.16,11.148-24.16,11.148L905.228,856.59l.284,1.155S932.023,878.038,961.788,881s34.078-26.08,34.5-30.45,3.917-20.354-7.433-55.548-43.664-58.887-72.472-63.892Z" transform="translate(-812.25 -623.624)" fill="#fdcd56"/>
        <path id="Path_563538" data-name="Path 563538" d="M1171.15,634.363l-.176,22.426s6.16,6.221,17.076,2.832c0,0,4.228-1.575,5.5-3.116l-.2-22.142Z" transform="translate(-1089.411 -549.305)" fill="#f4d0b5"/>
        <g id="Group_51315" data-name="Group 51315" transform="translate(48.891 29.161)">
          <path id="Path_563539" data-name="Path 563539" d="M1069.991,455.411a25.3,25.3,0,0,1-18-7.521,26.612,26.612,0,0,1-7.7-16.873,10.8,10.8,0,0,1-6.645,2.555c-.122.006-.234.007-.346.007a10.884,10.884,0,0,1-9.362-5.343,5.337,5.337,0,0,1-.307-.536,11.523,11.523,0,0,1-1.363-5.448,11.2,11.2,0,0,1,11.033-11.328,10.922,10.922,0,0,1,6.916,2.369v-5.748a26.871,26.871,0,0,1,4.1-14.322l1.036.686a25.582,25.582,0,0,0-3.9,13.636v7.17l-1.06.439a9.6,9.6,0,0,0-7.089-2.965,9.945,9.945,0,0,0-9.8,10.062,10.245,10.245,0,0,0,1.217,4.851,4.335,4.335,0,0,0,.254.444,9.659,9.659,0,0,0,8.363,4.767c.074,0,.148,0,.223-.005h.07a9.636,9.636,0,0,0,6.766-3.108l1.061.421a25.38,25.38,0,0,0,7.4,17.365,24.09,24.09,0,0,0,17.142,7.161c13.306,0,24.025-10.773,24.4-24.527l1.063-.419a9.583,9.583,0,0,0,7.086,3.113,10.066,10.066,0,0,0,0-20.124,9.225,9.225,0,0,0-6.934,2.837l-.888-.878a10.414,10.414,0,0,1,7.822-3.225,11.332,11.332,0,0,1,0,22.655,10.738,10.738,0,0,1-6.986-2.558C1094.511,444.805,1083.525,455.411,1069.991,455.411Z" transform="translate(-1026.26 -393.223)" fill="#0c2238"/>
        </g>
        <g id="Group_51316" data-name="Group 51316" transform="translate(118.235 51.792)">
          <path id="Path_563540" data-name="Path 563540" d="M1339.316,495.638c-3.321-1.658-5.025-.631-5.1-.587l-.816-.924c4.388-5.8,11.371-2.138,11.442-2.1l-.572,1.122c-.219-.118-4.8-2.5-8.455.289a9.053,9.053,0,0,1,4.036,1.061Z" transform="translate(-1333.405 -490.854)" fill="#0c2238"/>
        </g>
        <g id="Group_51317" data-name="Group 51317" transform="translate(54.715 51.792)">
          <path id="Path_563541" data-name="Path 563541" d="M1057.59,495.637l-.539-1.138a8.863,8.863,0,0,1,4.036-1.061c-3.654-2.792-8.236-.406-8.455-.29l-.571-1.121c.069-.038,7.052-3.7,11.441,2.1l-.822.919C1062.614,495.006,1060.911,493.98,1057.59,495.637Z" transform="translate(-1052.06 -490.852)" fill="#0c2238"/>
        </g>
        <g id="Group_51318" data-name="Group 51318" transform="translate(60.204 0)">
          <path id="Path_563542" data-name="Path 563542" d="M1133.474,318.341A22.863,22.863,0,0,1,1129.622,306c-3.876.865-21.537,3.786-31.47-11.877-1.606,1.617-6.5,5.474-14.461,2.425a11.21,11.21,0,0,1-4.354-18.111,11.221,11.221,0,0,1,11.154-3.387,8.8,8.8,0,0,1,1.019.331c2.237-2.208,16.4-14.815,37.107-2.906,8.8,5.061,12.595,14.609,10.982,27.612a68.833,68.833,0,0,1-5.085,18.139Zm-3.424-13.75.785.6a23.4,23.4,0,0,0,3.014,11.445c2.333-5.638,12.292-32.635-5.835-43.062-21.649-12.456-35.767,2.821-35.907,2.977l-.7.149a7.426,7.426,0,0,0-1.215-.428,10.105,10.105,0,0,0-12.095,12.835,9.733,9.733,0,0,0,6.029,6.251c8.984,3.445,13.587-2.594,13.631-2.656l1.016.052C1109.315,310.379,1129.844,304.651,1130.05,304.591Z" transform="translate(-1076.37 -267.423)" fill="#0c2238"/>
        </g>
        <g id="Group_51319" data-name="Group 51319" transform="translate(63.906 27.301)">
          <path id="Path_563543" data-name="Path 563543" d="M1095.788,408.882c-5.346-8.95-2-23.087-1.856-23.684l1.2.306c-.034.141-3.363,14.222,1.711,22.717Z" transform="translate(-1092.766 -385.198)" fill="#0c2238"/>
        </g>
        <g id="Group_51320" data-name="Group 51320" transform="translate(80.93 106.961)">
          <path id="Path_563544" data-name="Path 563544" d="M1180.065,733.8a20.662,20.662,0,0,1-11.894-3.923l.764-.993a18.364,18.364,0,0,0,22.094-.026l.7,1.045A20.034,20.034,0,0,1,1180.065,733.8Z" transform="translate(-1168.171 -728.853)" fill="#0c2238"/>
        </g>
        <path id="Path_563545" data-name="Path 563545" d="M1223.13,650.078l10.717,7.193-.115-10.039a26.962,26.962,0,0,1-4.736,1.775C1226.873,649.5,1223.13,650.078,1223.13,650.078Z" transform="translate(-1129.792 -559.191)" fill="#0c2238"/>
        <g id="Group_51322" data-name="Group 51322" transform="translate(81.464 25.604)">
          <path id="Path_563547" data-name="Path 563547" d="M1177.219,389.355c-5.924-3.49-6.654-11.041-6.682-11.36l1.227-.115c.007.072.709,7.22,6.069,10.378Z" transform="translate(-1170.537 -377.88)" fill="#0c2238"/>
        </g>
        <g id="Group_51323" data-name="Group 51323" transform="translate(60.541 0.299)">
          <path id="Path_563548" data-name="Path 563548" d="M1100.9,295.449a12.51,12.51,0,0,1-7.015,3.452c-4.335.558-10.76-1.243-13.1-5.281s-2.4-10.629,2.749-14.1a11.767,11.767,0,0,1,10.356-1.365s9.014-9.021,21.861-8.006,26.041,9.163,25.832,24.4-4.839,24.788-5.778,24.861-2.129-6.039-2.129-6.039l-1.587-4.237.264-1.655-3.175.4s-7.379.848-13.507-.831-12.2-7.775-12.2-7.775Z" transform="translate(-1078.943 -269.758)" fill="#0c2238"/>
          <path id="Path_563549" data-name="Path 563549" d="M1134.718,318.685c-.987,0-1.86-3.412-2.421-6.293l-1.6-4.265.211-1.323-2.767.348c-.077.009-7.51.836-13.624-.839-6.136-1.68-12.082-7.6-12.332-7.854l-2.406-3.567a12.813,12.813,0,0,1-6.93,3.28c-4.587.59-11.018-1.318-13.4-5.433-2.584-4.456-2.227-11.106,2.845-14.523a12,12,0,0,1,10.453-1.464c1.213-1.134,10-8.9,21.957-7.958,12.728,1.005,26.33,9.17,26.117,24.719-.2,14.745-4.636,25.062-6.063,25.172Zm-3.388-10.626,1.557,4.157c.593,3.024,1.431,5.675,1.844,5.839.823-.39,5.265-9.791,5.467-24.552.207-15.142-13.1-23.1-25.548-24.08-12.56-.994-21.533,7.827-21.622,7.917l-.142.142-.185-.074a11.559,11.559,0,0,0-10.074,1.335c-4.763,3.209-5.089,9.47-2.653,13.67,2.188,3.772,8.382,5.7,12.8,5.129a12.272,12.272,0,0,0,6.83-3.357l.261-.282,2.79,4.148c.022.014,6.044,6.012,12.022,7.649,6,1.643,13.32.831,13.393.822l3.579-.45Z" transform="translate(-1077.865 -268.714)" fill="#0c2238"/>
        </g>
        <g id="Group_51324" data-name="Group 51324" transform="translate(63.968 25.896)">
          <path id="Path_563550" data-name="Path 563550" d="M1096.915,380.645s-3.506,3.454-2.263,15.175l2.263,7.84.652-.582.242-8.784,1.147-5.731,3.818-6.443Z" transform="translate(-1094.082 -380.296)" fill="#0c2238"/>
          <path id="Path_563551" data-name="Path 563551" d="M1095.716,403.064l-2.4-8.311c-1.256-11.8,2.2-15.348,2.345-15.493l.122-.121,6.432,1.619-4.008,6.765-1.137,5.677-.24,8.868Zm.266-23.223c-.567.713-3.146,4.581-2.064,14.788l2.116,7.313.189-.169.238-8.645,1.192-5.887,3.6-6.074Z" transform="translate(-1093.042 -379.139)" fill="#0c2238"/>
        </g>
        <g id="Group_51325" data-name="Group 51325" transform="translate(92.267 137.255)">
          <path id="Path_563552" data-name="Path 563552" d="M1278.217,980.157a56.617,56.617,0,0,1-7.312-.5c-9.282-1.214-19.937-4.678-30.815-10.018a139.432,139.432,0,0,1-21.707-13.19l.725-1.023a138.187,138.187,0,0,0,21.513,13.072c10.76,5.283,21.286,8.708,30.439,9.9a48.137,48.137,0,0,0,13.7,0c9.1-1.436,15.853-6.05,20.077-13.713,4.88-8.851,6.409-21.815,4.546-38.532-3.007-26.939-11.94-49.066-26.553-65.766l.917-.845c14.787,16.9,23.825,39.262,26.86,66.467,4.489,40.277-11.476,51.4-25.659,53.64A42.983,42.983,0,0,1,1278.217,980.157Z" transform="translate(-1218.384 -859.545)" fill="#0c2238"/>
        </g>
        <g id="Group_51326" data-name="Group 51326" transform="translate(67.983 110.241)">
          <path id="Path_563553" data-name="Path 563553" d="M1139.679,754.369l-.589-.345-4.335-8.769-6.143,8.85-.645.248a32.87,32.87,0,0,1-17.139-10.511l.964-.789a32.239,32.239,0,0,0,16.059,9.968l6.491-9.351,1.051.081,4.605,9.314A33.324,33.324,0,0,0,1159.2,743l.881.885A33.554,33.554,0,0,1,1139.679,754.369Z" transform="translate(-1110.827 -743.004)" fill="#0c2238"/>
        </g>
        <g id="Group_51327" data-name="Group 51327" transform="translate(84.704 111.208)">
          <path id="Path_563554" data-name="Path 563554" d="M1187.375,758.161l6.351,14.522,5.625-14.566-5.453-9.353Z" transform="translate(-1186.813 -748.395)" fill="#0c2238"/>
          <path id="Path_563555" data-name="Path 563555" d="M1191.236,771.723l-6.351-14.521.06-.627,6.523-9.4,1.031.042,5.453,9.354.044.558-5.625,14.566Zm-5.082-14.709,5.609,12.825,4.976-12.884-4.813-8.256Z" transform="translate(-1184.885 -747.177)" fill="#0c2238"/>
        </g>
        <g id="Group_51328" data-name="Group 51328" transform="translate(43.977 241.464)">
          <path id="Path_563556" data-name="Path 563556" d="M1110.383,1356.563l-1.848-30.09,1.809,29.452-101.782.638,1.7-31.194s18.434-4.075,33.006-13.537l26.738.666,7.061,4.022s16.194,7.943,28.963,9.58l2.343.357Z" transform="translate(-1007.947 -1311.199)" fill="#0c2238"/>
          <path id="Path_563557" data-name="Path 563557" d="M1006.455,1355.1l-.619-.668,1.7-31.193.486-.584c.183-.041,18.5-4.163,32.807-13.453l.344-.1,26.737.666.284.08,7.06,4.022c.128.061,16.22,7.9,28.741,9.505l2.358.36-.095.653.784-.05,1.848,30.089-1.23.079,0-.04Zm2.283-31.316-1.635,30.046,100.474-.628-1.736-28.264-2.016-.308c-12.707-1.629-28.976-9.555-29.138-9.635l-6.962-3.964-26.4-.658C1028.132,1318.887,1011.681,1323.078,1008.738,1323.783Z" transform="translate(-1005.836 -1309.102)" fill="#0c2238"/>
        </g>
        <g id="Group_51329" data-name="Group 51329" transform="translate(70.036 246.154)">
          <path id="Path_563558" data-name="Path 563558" d="M1138.505,1331.872c-12.674,0-18.5-1.155-18.587-1.173l.242-1.241c.132.027,13.446,2.654,43.913-.124l.109,1.261C1153.644,1331.556,1145.137,1331.872,1138.505,1331.872Z" transform="translate(-1119.919 -1329.334)" fill="#0c2238"/>
        </g>
        <g id="Group_51330" data-name="Group 51330" transform="translate(75.349 42.636)">
          <path id="Path_563559" data-name="Path 563559" d="M1148.854,453.031c-2.488.641-4.281,2.075-4.006,3.2s2.516,1.52,5,.879,4.282-2.075,4.006-3.2S1151.342,452.389,1148.854,453.031Z" transform="translate(-1144.511 -452.406)" fill="#0c2238"/>
          <path id="Path_563560" data-name="Path 563560" d="M1146.5,456.685a6.377,6.377,0,0,1-1.094-.089c-1.073-.189-1.755-.663-1.919-1.337s.217-1.423,1.076-2.109a8.586,8.586,0,0,1,3.154-1.476h0a8.465,8.465,0,0,1,3.458-.229c1.073.189,1.754.663,1.919,1.337.322,1.316-1.536,2.891-4.23,3.585A9.59,9.59,0,0,1,1146.5,456.685Zm1.367-4.4a7.972,7.972,0,0,0-2.925,1.362c-.645.515-.957,1.046-.857,1.456s.62.726,1.425.868a7.888,7.888,0,0,0,3.2-.219c2.479-.639,3.983-2,3.783-2.818-.1-.41-.62-.726-1.426-.867a7.854,7.854,0,0,0-3.2.218Z" transform="translate(-1143.453 -451.355)" fill="#0c2238"/>
        </g>
        <g id="Group_51331" data-name="Group 51331" transform="translate(96.639 42.758)">
          <path id="Path_563561" data-name="Path 563561" d="M1244.052,453.4c-2.528-.448-4.733.117-4.926,1.262s1.7,2.435,4.229,2.883,4.733-.117,4.926-1.262S1246.58,453.849,1244.052,453.4Z" transform="translate(-1238.805 -452.931)" fill="#0c2238"/>
          <path id="Path_563562" data-name="Path 563562" d="M1243.978,456.966a9.953,9.953,0,0,1-1.73-.158c-2.737-.485-4.705-1.912-4.481-3.249.115-.685.76-1.211,1.815-1.481a8.474,8.474,0,0,1,3.466-.039c2.737.485,4.7,1.911,4.481,3.249C1247.354,456.331,1245.905,456.966,1243.978,456.966Zm-2.676-4.453a6.405,6.405,0,0,0-1.57.179c-.793.2-1.288.559-1.358.975-.14.833,1.46,2.072,3.978,2.518s4.429-.172,4.569-1-1.46-2.072-3.979-2.517h0A9.469,9.469,0,0,0,1241.3,452.514Z" transform="translate(-1237.749 -451.882)" fill="#0c2238"/>
        </g>
        <g id="Group_51332" data-name="Group 51332" transform="translate(79.279 51.388)">
          <path id="Path_563563" data-name="Path 563563" d="M1165.74,491.952a1.821,1.821,0,0,1-1.407,2.135,1.778,1.778,0,0,1-2.079-1.445,1.821,1.821,0,0,1,1.407-2.135A1.778,1.778,0,0,1,1165.74,491.952Z" transform="translate(-1161.913 -490.158)" fill="#0c2238"/>
          <path id="Path_563564" data-name="Path 563564" d="M1162.939,493.388a2.1,2.1,0,0,1-2.045-1.734,2.139,2.139,0,0,1,1.651-2.505,2.03,2.03,0,0,1,1.562.329,2.131,2.131,0,0,1,.878,1.367,2.173,2.173,0,0,1-.32,1.6,2.069,2.069,0,0,1-1.331.9A2.045,2.045,0,0,1,1162.939,493.388Zm0-3.646a1.438,1.438,0,0,0-.281.028,1.506,1.506,0,0,0-1.163,1.764,1.473,1.473,0,0,0,1.718,1.194,1.455,1.455,0,0,0,.937-.635,1.53,1.53,0,0,0,.226-1.129h0a1.5,1.5,0,0,0-.618-.962A1.432,1.432,0,0,0,1162.943,489.742Z" transform="translate(-1160.857 -489.109)" fill="#0c2238"/>
        </g>
        <g id="Group_51333" data-name="Group 51333" transform="translate(98.84 51.387)">
          <path id="Path_563565" data-name="Path 563565" d="M1252.382,491.952a1.821,1.821,0,0,1-1.407,2.135,1.778,1.778,0,0,1-2.079-1.445,1.821,1.821,0,0,1,1.407-2.135A1.778,1.778,0,0,1,1252.382,491.952Z" transform="translate(-1248.555 -490.158)" fill="#0c2238"/>
          <path id="Path_563566" data-name="Path 563566" d="M1249.581,493.386a2.1,2.1,0,0,1-2.045-1.734,2.14,2.14,0,0,1,1.652-2.505,2.025,2.025,0,0,1,1.562.329,2.131,2.131,0,0,1,.878,1.367,2.173,2.173,0,0,1-.321,1.6,2.059,2.059,0,0,1-1.727.94Zm0-3.646a1.438,1.438,0,0,0-.28.028,1.506,1.506,0,0,0-1.163,1.764,1.472,1.472,0,0,0,1.718,1.194,1.456,1.456,0,0,0,.937-.635,1.526,1.526,0,0,0,.226-1.129h0a1.5,1.5,0,0,0-.619-.962A1.43,1.43,0,0,0,1249.585,489.74Z" transform="translate(-1247.498 -489.107)" fill="#0c2238"/>
        </g>
        <g id="Group_51334" data-name="Group 51334" transform="translate(109.908 158.174)">
          <rect id="Rectangle_23740" data-name="Rectangle 23740" width="22.794" height="1.266" transform="translate(0 0)" fill="#0c2238"/>
        </g>
        <g id="Group_51335" data-name="Group 51335" transform="translate(50.219 111.599)">
          <path id="Path_563567" data-name="Path 563567" d="M1044.541,834.851a24.7,24.7,0,0,0-8.395,1.924c-.006.006-.012.006-.018.013h-.006c-.006,0-.013.006-.025.013-4.376-35.976,3.926-81.779,3.926-81.779l8.376-3.645C1040.276,799.629,1043.7,828.985,1044.541,834.851Z" transform="translate(-1034.218 -750.793)" fill="#0c2238"/>
          <path id="Path_563568" data-name="Path 563568" d="M1034.055,835.49l0-.24-.64-.3c-4.338-35.661,3.849-81.515,3.932-81.974l.365-.467,8.376-3.645.848.691c-8.128,48.279-4.638,77.84-3.856,83.275l-.57.724a24.063,24.063,0,0,0-8.168,1.864l-.005,0h0l-.015.006-.016-.037Zm4.443-81.95c-.729,4.193-7.864,46.692-3.96,80.425a25.43,25.43,0,0,1,7.228-1.624c-.921-6.872-3.868-35.773,3.763-81.861Z" transform="translate(-1032.145 -748.863)" fill="#0c2238"/>
        </g>
        <g id="Group_51336" data-name="Group 51336" transform="translate(120.146 111.599)">
          <path id="Path_563569" data-name="Path 563569" d="M1358.1,818.367c-3.384.475-6.539,3.139-8.6,5.126.8-13.65.783-38.222-4.931-72.116l7.433,3.234.949.411s.006.025.012.07C1353.245,756.724,1358.706,787.744,1358.1,818.367Z" transform="translate(-1343.952 -750.793)" fill="#0c2238"/>
          <path id="Path_563570" data-name="Path 563570" d="M1347.829,822.023l-1.036-.5c.844-14.5.676-38.758-4.923-71.971l.847-.691,8.382,3.644.359.433a1.32,1.32,0,0,1,.023.133c.586,3.3,5.746,33.3,5.146,63.376l-.533.614C1353.645,817.407,1350.941,819.03,1347.829,822.023Zm-4.554-71.543c5.243,31.61,5.569,55.044,4.832,69.585,2.646-2.341,5.047-3.711,7.3-4.166.515-29.181-4.513-59.018-5.094-62.359Z" transform="translate(-1341.869 -748.863)" fill="#0c2238"/>
        </g>
        <g id="Group_51337" data-name="Group 51337" transform="translate(37.73 199.35)">
          <path id="Path_563571" data-name="Path 563571" d="M978.876,1147.788a2.245,2.245,0,0,1-1.376-.475,1.756,1.756,0,0,1-.67-1.4c-.12-2.427,2.773-6.774,7.2-10.816.255-.237,6.38-5.9,10.023-7.672l.527,1.145c-3.479,1.687-9.665,7.411-9.727,7.47-4.523,4.131-6.873,8.136-6.79,9.809a.566.566,0,0,0,.161.44c1.413,1.048,4.424-1.767,11.021-7.935l.959-.9a66.948,66.948,0,0,1,9.311-7.544l.652,1.074a65.778,65.778,0,0,0-9.121,7.393l-.971.909C983.988,1144.976,980.981,1147.788,978.876,1147.788Z" transform="translate(-976.827 -1127.423)" fill="#0c2238"/>
        </g>
        <g id="Group_51338" data-name="Group 51338" transform="translate(33.8 196.961)">
          <path id="Path_563572" data-name="Path 563572" d="M960.672,1137.055a1.185,1.185,0,0,1-.71-.208,1.434,1.434,0,0,1-.542-1.261,9.6,9.6,0,0,1,.923-3.336c3.393-8.149,14.851-13.977,17.114-15.063l.006.014.279-.086v.633l.321.538-.075.043c-1.352.649-13.227,6.529-16.511,14.418-1.068,2.564-.8,3.065-.785,3.086.531.163,3.141-1.656,5.435-3.855l.841.924C965.245,1134.554,962.358,1137.055,960.672,1137.055Z" transform="translate(-959.42 -1117.114)" fill="#0c2238"/>
        </g>
        <g id="Group_51339" data-name="Group 51339" transform="translate(45.777 194.944)">
          <path id="Path_563573" data-name="Path 563573" d="M1014.5,1131.014a1.951,1.951,0,0,1-1.758-.762c-.726-1.1.229-2.785.341-2.974l1.055.655c-.276.472-.569,1.318-.375,1.61.11.167.55.292,1.451.137.882-.151,2.54-1.511,4.64-3.232,4.817-3.949,12.1-9.919,22.75-12.712,1.939-.507,3.29-.887,4.211-1.16-3.547-1.119-11.753-3.342-19.538-2.816l-.081-1.263c10.516-.71,21.737,3.457,21.849,3.5l.017,1.182a63.516,63.516,0,0,1-6.154,1.784c-10.4,2.726-17.551,8.592-22.286,12.474-2.413,1.979-4.008,3.286-5.206,3.492A5.489,5.489,0,0,1,1014.5,1131.014Z" transform="translate(-1012.471 -1108.416)" fill="#f4d0b5"/>
        </g>
        <g id="Group_51340" data-name="Group 51340" transform="translate(51.687 195.026)">
          <path id="Path_563574" data-name="Path 563574" d="M1039.081,1111.968v-.568l-.06-.127-.375-.385.143-.1,0,0,.034-.019,0,.01.042-.011-.006-.016a25.245,25.245,0,0,1,8.6-1.975l.08,1.263a24.078,24.078,0,0,0-8.189,1.872l-.024.014,0-.008Z" transform="translate(-1038.645 -1108.767)" fill="#0c2238"/>
        </g>
        <g id="Group_51341" data-name="Group 51341" transform="translate(0 135.057)">
          <path id="Path_563575" data-name="Path 563575" d="M842.948,972.855c-9.217,0-16.771-2.577-22.231-7.658-9.261-8.62-12.7-24.254-10.227-46.469,3.167-28.426,12.87-51.529,28.84-68.666l.891.875c-15.78,16.933-25.371,39.79-28.506,67.934-2.427,21.787.88,37.058,9.83,45.388,7.622,7.094,19.6,9.089,34.632,5.769,8.438-1.858,30.521-10.437,44.492-20.919l38.388-26.669-9.558-16.6-37.508,8.9-.277-1.233,37.948-9,.669.295,10.083,17.51-.185.846-38.85,26.99c-14.094,10.574-36.413,19.243-44.943,21.121A62.785,62.785,0,0,1,842.948,972.855Z" transform="translate(-809.713 -850.062)" fill="#0c2238"/>
        </g>
        <g id="Group_51342" data-name="Group 51342" transform="translate(47.611 173.999)">
          <path id="Path_563576" data-name="Path 563576" d="M1021.819,1043.352l-1.224-.15c.269-2.318,2.663-22.716,3.944-25.146l1.084.6C1024.738,1020.337,1022.863,1034.346,1021.819,1043.352Z" transform="translate(-1020.595 -1018.056)" fill="#0c2238"/>
        </g>
        <g id="Group_51343" data-name="Group 51343" transform="translate(129.945 167.912)">
          <path id="Path_563577" data-name="Path 563577" d="M1385.718,1032.1l-.451-1.178c6.437-2.6,16.221-7.925,15.073-11.163l-12.87-27.411,1.11-.55,12.895,27.47C1403.43,1024.775,1387.536,1031.367,1385.718,1032.1Z" transform="translate(-1385.267 -991.798)" fill="#0c2238"/>
        </g>
        <g id="Group_51344" data-name="Group 51344" transform="translate(119.628 178.374)">
          <path id="Path_563578" data-name="Path 563578" d="M1340.491,1049.1l-.917-.846c.017-.02,1.783-2.034,4.845-5.083.242-.242.5-.5.791-.774,3.3-3.179,6.229-4.91,8.941-5.291l.051,0v0a18.051,18.051,0,0,1,3.647-.124l-.078,1.263a16.974,16.974,0,0,0-3.4.116l-.049,0v0c-2.451.344-5.154,1.966-8.267,4.96-.281.27-.536.52-.774.757C1342.249,1047.09,1340.509,1049.076,1340.491,1049.1Z" transform="translate(-1339.574 -1036.931)" fill="#0c2238"/>
        </g>
        <g id="Group_51345" data-name="Group 51345" transform="translate(76.624 135.349)">
          <path id="Path_563579" data-name="Path 563579" d="M1166.148,851.952l-14.393,62.111,4.637,1.614,20.488-4.9Z" transform="translate(-1151.155 -851.806)" fill="#0c2238"/>
          <path id="Path_563580" data-name="Path 563580" d="M1154.475,915.807l-.337-.017-4.637-1.613-.4-.746,14.394-62.111,1.205.03,10.731,58.828-.466.733Zm-4.047-2.644,3.938,1.37,19.742-4.718L1164.02,854.51Z" transform="translate(-1149.099 -851.32)" fill="#0c2238"/>
        </g>
        <g id="Group_51346" data-name="Group 51346" transform="translate(71.215 234.15)">
          <path id="Path_563581" data-name="Path 563581" d="M1162.877,1291.57l.518,3.419-17.406,13.156-18.119-13.431v-3.368a206.378,206.378,0,0,0,20.163-11.4l14.341,8.057Z" transform="translate(-1127.254 -1279.392)" fill="#0c2238"/>
          <path id="Path_563582" data-name="Path 563582" d="M1143.514,1306.818l-18.119-13.431-.255-.513v-3.369l.349-.57a206.8,206.8,0,0,0,20.1-11.365l.623-.019,14.342,8.057.314.464.5,3.563.517,3.417-.244.607-17.406,13.156Zm-17.142-14.268,17.5,12.972,16.743-12.654-.461-3.047-.458-3.254-13.755-7.727a207.7,207.7,0,0,1-19.568,11.063Z" transform="translate(-1125.14 -1277.552)" fill="#0c2238"/>
        </g>
        <g id="Group_51347" data-name="Group 51347" transform="translate(71.215 242.668)">
          <path id="Path_563583" data-name="Path 563583" d="M1143.514,1335.046l-18.119-13.431-.255-.513v-3.368h1.233v3.045l17.5,12.971,16.745-12.656-.965-6.608,1.22-.188,1.02,6.986-.244.6-17.406,13.156Z" transform="translate(-1125.14 -1314.297)" fill="#fff"/>
        </g>
        <g id="Group_51348" data-name="Group 51348" transform="translate(81.312 176.461)">
          <rect id="Rectangle_23741" data-name="Rectangle 23741" width="9.942" height="1.266" transform="translate(0)" fill="#0c2238"/>
        </g>
        <g id="Group_51349" data-name="Group 51349" transform="translate(112.268 191.523)">
          <path id="Path_563584" data-name="Path 563584" d="M1309.326,1095.043l7.288,12.7Z" transform="translate(-1308.795 -1094.721)" fill="#0c2238"/>
          <path id="Path_563848" data-name="Path 563848" d="M0,0,1.241-.014,1.073,14.624l-1.241.014Z" transform="matrix(0.862, -0.508, 0.508, 0.862, 0, 0.643)" fill="#0c2238"/>
        </g>
        <g id="Group_51350" data-name="Group 51350" transform="translate(18.93 255.381)">
          <path id="Path_563585" data-name="Path 563585" d="M894.631,1370.231s10.539,3.637,25.4.009l-2.005,31.325-26.005-.139Z" transform="translate(-891.685 -1369.803)" fill="#0c2238"/>
          <path id="Path_563586" data-name="Path 563586" d="M917.164,1400.465l-26.63-.143,2.673-31.936.372.128c.1.035,10.636,3.562,25.231,0l.406-.1Zm-25.959-.772,25.381.136,1.959-30.6c-13.03,3.081-22.8.589-24.791,0Z" transform="translate(-890.534 -1368.386)" fill="#0c2238"/>
        </g>
        <g id="Group_51351" data-name="Group 51351" transform="translate(43.976 255.601)">
          <path id="Path_563849" data-name="Path 563849" d="M0,0,31.389-.053l0,1.233L0,1.233Z" transform="translate(0 31.325) rotate(-86.251)" fill="#fff"/>
        </g>
        <g id="Group_51352" data-name="Group 51352" transform="translate(131.973 253.329)">
          <path id="Path_563587" data-name="Path 563587" d="M1395.214,1396.391l.914-32.883c7.241,3.264,16.043,3.807,25.632,2.975,0,0,1.556,23.291.653,29.777Z" transform="translate(-1394.901 -1363.507)" fill="#0c2238"/>
          <path id="Path_563588" data-name="Path 563588" d="M1393.809,1395.124l.937-33.68.419.188c6.459,2.913,14.8,3.878,25.482,2.949l.312-.027.022.321c.063.952,1.548,23.4.65,29.844l-.038.271Zm1.527-32.726-.892,32.091,26.612-.129c.759-6.295-.49-26.336-.669-29.121C1409.97,1366.112,1401.766,1365.18,1395.336,1362.4Z" transform="translate(-1393.809 -1361.444)" fill="#0c2238"/>
        </g>
        <g id="Group_51353" data-name="Group 51353" transform="translate(139.525 255.601)">
          <path id="Path_563850" data-name="Path 563850" d="M0,0,1.233,0,1.18,31.387l-1.233,0Z" transform="matrix(0.998, -0.066, 0.066, 0.998, 0, 0.083)" fill="#fff"/>
        </g>
      </g>
    </g>
    <path id="Path_563601" data-name="Path 563601" d="M10.135,2.711c11.863.028,13.4-.251,11.193,1.7S12.85,8.823,8.561,9.632,1.054,7.12-.253,4.72-1.727,2.683,10.135,2.711Z" transform="translate(179.109 453.684) rotate(-8)" fill="#fff"/>
    <g id="Ellipse_3905" data-name="Ellipse 3905" transform="translate(256.69 325.023)" fill="#fa6c51">
      <path d="M5.675.016A2.159,2.159,0,0,1,6.934.4,2.646,2.646,0,0,1,7.8,1.451a4.368,4.368,0,0,1,.39,1.571A6.636,6.636,0,0,1,8.027,4.95a7.947,7.947,0,0,1-.71,1.929,7.24,7.24,0,0,1-1.1,1.572A5.118,5.118,0,0,1,4.871,9.5a3.042,3.042,0,0,1-1.435.377,2.154,2.154,0,0,1-1.253-.4,2.674,2.674,0,0,1-.851-1.065A4.41,4.41,0,0,1,.953,6.848,6.66,6.66,0,0,1,1.12,4.935a7.949,7.949,0,0,1,.7-1.91,7.254,7.254,0,0,1,1.09-1.561A5.157,5.157,0,0,1,4.245.408,3.077,3.077,0,0,1,5.675.016Z" stroke="none"/>
      <path d="M 3.762975931167603 8.44025993347168 C 4.100356578826904 8.44263744354248 4.444584369659424 8.346659660339355 4.778072357177734 8.171067237854004 C 5.11180305480957 7.995349407196045 5.434697151184082 7.739943027496338 5.729114055633545 7.42370080947876 C 6.023664474487305 7.107314109802246 6.289622783660889 6.730130195617676 6.509325981140137 6.31110668182373 C 6.729057312011719 5.892027378082275 6.902443885803223 5.431243896484375 7.011844158172607 4.94779634475708 C 7.121217250823975 4.464468955993652 7.156399726867676 4.003719329833984 7.126450061798096 3.584588766098022 C 7.096517086029053 3.165692329406738 7.001533031463623 2.788479566574097 6.850586891174316 2.471869945526123 C 6.699759006500244 2.155505895614624 6.493083000183105 1.899704933166504 6.239635944366455 1.72326648235321 C 5.986419200897217 1.546987414360046 5.686534881591797 1.449941873550415 5.349015712738037 1.450837135314941 C 5.011810302734375 1.451731324195862 4.668424606323242 1.550304651260376 4.336281299591064 1.727591156959534 C 4.004377365112305 1.904750108718872 3.683619499206543 2.160551786422729 3.391376733779907 2.476142883300781 C 3.099265813827515 2.79159140586853 2.83555793762207 3.166868209838867 2.617600440979004 3.583223104476929 C 2.399671077728271 3.999523401260376 2.227404117584229 4.457036018371582 2.118169784545898 4.937093734741211 C 2.008908987045288 5.417269706726074 1.972857594490051 5.875411987304688 2.001200437545776 6.292739868164062 C 2.029558181762695 6.710299015045166 2.122389793395996 7.087109565734863 2.270912408828735 7.404268264770508 C 2.419550180435181 7.721673011779785 2.6239914894104 7.979387283325195 2.875441551208496 8.158390045166016 C 3.127118587493896 8.337556838989258 3.425910472869873 8.437885284423828 3.762975931167603 8.44025993347168 M 3.436003923416138 9.88117504119873 C 2.959631681442261 9.876862525939941 2.537785530090332 9.734573364257812 2.182790279388428 9.481196403503418 C 1.828246235847473 9.228143692016602 1.540341973304749 8.864255905151367 1.331310987472534 8.416236877441406 C 1.12250816822052 7.96870756149292 0.9923558235168457 7.437124252319336 0.9530651569366455 6.847953319549561 C 0.9138050675392151 6.259243488311768 0.9652498960494995 5.612819194793701 1.119676828384399 4.934909820556641 C 1.27405047416687 4.257236003875732 1.516804456710815 3.611890554428101 1.823686957359314 3.024910926818848 C 2.130625486373901 2.43782377243042 2.501866579055786 1.908835411071777 2.913206100463867 1.464147567749023 C 3.324806451797485 1.019176602363586 3.776727199554443 0.658427894115448 4.244722843170166 0.4083078503608704 C 4.713193416595459 0.1579336225986481 5.19793176651001 0.01832730509340763 5.674582481384277 0.01611673831939697 C 6.151862144470215 0.01390325091779232 6.575887203216553 0.1496497243642807 6.933955669403076 0.3972744643688202 C 7.292479991912842 0.6452149152755737 7.5848388671875 1.00529146194458 7.798232555389404 1.451237559318542 C 8.011859893798828 1.8976731300354 8.146298408508301 2.430058717727661 8.188721656799316 3.021893739700317 C 8.231181144714355 3.614195346832275 8.181462287902832 4.265818119049072 8.026811599731445 4.950016021728516 C 7.872107028961182 5.634453773498535 7.627126693725586 6.286323070526123 7.316657066345215 6.878841876983643 C 7.006245613098145 7.47125244140625 6.630521774291992 8.004039764404297 6.214324474334717 8.450593948364258 C 5.798394680023193 8.89686393737793 5.342215061187744 9.25682258605957 4.870579719543457 9.504069328308105 C 4.39942455291748 9.751064300537109 3.913006544113159 9.885490417480469 3.436003923416138 9.88117504119873 Z" stroke="none" fill="#000"/>
    </g>
    <g id="Ellipse_3928" data-name="Ellipse 3928" transform="translate(270.884 325.186)" fill="#fa6c51">
      <path d="M5.675.016A2.159,2.159,0,0,1,6.934.4,2.646,2.646,0,0,1,7.8,1.451a4.368,4.368,0,0,1,.39,1.571A6.636,6.636,0,0,1,8.027,4.95a7.947,7.947,0,0,1-.71,1.929,7.24,7.24,0,0,1-1.1,1.572A5.118,5.118,0,0,1,4.871,9.5a3.042,3.042,0,0,1-1.435.377,2.154,2.154,0,0,1-1.253-.4,2.674,2.674,0,0,1-.851-1.065A4.41,4.41,0,0,1,.953,6.848,6.66,6.66,0,0,1,1.12,4.935a7.949,7.949,0,0,1,.7-1.91,7.254,7.254,0,0,1,1.09-1.561A5.157,5.157,0,0,1,4.245.408,3.077,3.077,0,0,1,5.675.016Z" stroke="none"/>
      <path d="M 3.762968778610229 8.44025993347168 C 4.100348949432373 8.442636489868164 4.444576263427734 8.346658706665039 4.778064250946045 8.171066284179688 C 5.111794471740723 7.995348453521729 5.434688091278076 7.739942073822021 5.729104995727539 7.423699378967285 C 6.023654937744141 7.107312679290771 6.289612770080566 6.730129241943359 6.509316444396973 6.311105728149414 C 6.729047298431396 5.892025947570801 6.902433395385742 5.4312424659729 7.011834144592285 4.947794914245605 C 7.121207714080811 4.464467525482178 7.156390190124512 4.003718376159668 7.126441478729248 3.584587574005127 C 7.096507549285889 3.165691137313843 7.001524448394775 2.788478374481201 6.850579261779785 2.471868753433228 C 6.699751377105713 2.155504703521729 6.493075847625732 1.899703860282898 6.239629745483398 1.723265528678894 C 5.986412525177002 1.54698657989502 5.686529159545898 1.449941039085388 5.349009990692139 1.450836420059204 C 5.011805534362793 1.451730608940125 4.668420314788818 1.550304055213928 4.336277961730957 1.727590560913086 C 4.004373550415039 1.904749631881714 3.683616161346436 2.16055154800415 3.391373634338379 2.476142406463623 C 3.099263191223145 2.791590929031372 2.8355553150177 3.166867971420288 2.617598056793213 3.58322286605835 C 2.399668455123901 3.999522924423218 2.227401733398438 4.457035541534424 2.118167161941528 4.937093257904053 C 2.008906364440918 5.417269229888916 1.972854495048523 5.875411510467529 2.001197099685669 6.292739868164062 C 2.029554843902588 6.710299015045166 2.12238597869873 7.087109088897705 2.270908117294312 7.40426778793335 C 2.419545650482178 7.721672534942627 2.623986482620239 7.979386806488037 2.875436067581177 8.158389091491699 C 3.127112865447998 8.337555885314941 3.425904035568237 8.437884330749512 3.762968778610229 8.44025993347168 M 3.435996532440186 9.88117504119873 C 2.959625244140625 9.876862525939941 2.537779569625854 9.734573364257812 2.182784795761108 9.481196403503418 C 1.828241467475891 9.228142738342285 1.540337920188904 8.864255905151367 1.331307411193848 8.416236877441406 C 1.122505307197571 7.96870756149292 0.9923534393310547 7.437123775482178 0.9530630111694336 6.847953319549561 C 0.9138033986091614 6.259243488311768 0.9652485847473145 5.612819194793701 1.119675517082214 4.934909820556641 C 1.274049282073975 4.257236003875732 1.516803383827209 3.611890554428101 1.823685765266418 3.024910688400269 C 2.130624294281006 2.43782377243042 2.501865148544312 1.908835291862488 2.913204193115234 1.464147448539734 C 3.324804306030273 1.019176244735718 3.776724815368652 0.6584275364875793 4.244719982147217 0.4083073735237122 C 4.713190078735352 0.1579330563545227 5.197927951812744 0.01832664385437965 5.674577236175537 0.01611597277224064 C 6.151856422424316 0.01390237640589476 6.575881004333496 0.1496487408876419 6.933948993682861 0.3972733914852142 C 7.292472839355469 0.6452137231826782 7.584830284118652 1.005290150642395 7.798223972320557 1.451236248016357 C 8.011850357055664 1.897671818733215 8.14628791809082 2.430057287216187 8.188712120056152 3.021892070770264 C 8.231169700622559 3.614193916320801 8.181451797485352 4.265816211700439 8.026800155639648 4.950014114379883 C 7.872095584869385 5.634451866149902 7.627115249633789 6.28632116317749 7.316646099090576 6.878840446472168 C 7.006234169006348 7.471251010894775 6.630510807037354 8.004037857055664 6.214314460754395 8.450592994689941 C 5.798384189605713 8.896862030029297 5.34220552444458 9.256821632385254 4.870570182800293 9.504068374633789 C 4.399415969848633 9.751062393188477 3.912998676300049 9.885489463806152 3.435996532440186 9.88117504119873 Z" stroke="none" fill="#000"/>
    </g>
    <g id="Ellipse_3929" data-name="Ellipse 3929" transform="translate(285.076 325.186)" fill="#fa6c51">
      <path d="M5.675.016A2.159,2.159,0,0,1,6.934.4,2.646,2.646,0,0,1,7.8,1.451a4.368,4.368,0,0,1,.39,1.571A6.636,6.636,0,0,1,8.027,4.95a7.947,7.947,0,0,1-.71,1.929,7.24,7.24,0,0,1-1.1,1.572A5.118,5.118,0,0,1,4.871,9.5a3.042,3.042,0,0,1-1.435.377,2.154,2.154,0,0,1-1.253-.4,2.674,2.674,0,0,1-.851-1.065A4.41,4.41,0,0,1,.953,6.848,6.66,6.66,0,0,1,1.12,4.935a7.949,7.949,0,0,1,.7-1.91,7.254,7.254,0,0,1,1.09-1.561A5.157,5.157,0,0,1,4.245.408,3.077,3.077,0,0,1,5.675.016Z" stroke="none"/>
      <path d="M 3.762966871261597 8.44025993347168 C 4.10034704208374 8.442636489868164 4.444574356079102 8.346658706665039 4.778061866760254 8.171066284179688 C 5.111791610717773 7.995348453521729 5.434685707092285 7.739942073822021 5.729102611541748 7.423699378967285 C 6.02365255355835 7.107312679290771 6.289610385894775 6.730129241943359 6.509314060211182 6.311105728149414 C 6.729044914245605 5.892025947570801 6.902431488037109 5.4312424659729 7.011832237243652 4.947794914245605 C 7.12120532989502 4.464467525482178 7.156387805938721 4.003718376159668 7.126439094543457 3.584587574005127 C 7.096505165100098 3.165691137313843 7.001522541046143 2.788478374481201 6.850576877593994 2.471868753433228 C 6.69974946975708 2.155504703521729 6.4930739402771 1.899703860282898 6.239628314971924 1.723265528678894 C 5.986411094665527 1.54698657989502 5.686528205871582 1.449941039085388 5.349009037017822 1.450836420059204 C 5.011804580688477 1.451730608940125 4.668419361114502 1.550304055213928 4.336276531219482 1.727590560913086 C 4.004372596740723 1.904749631881714 3.683615207672119 2.16055154800415 3.391372919082642 2.476142406463623 C 3.099262475967407 2.791590929031372 2.835554599761963 3.166867971420288 2.617597103118896 3.58322286605835 C 2.399667739868164 3.999522924423218 2.227400779724121 4.457035541534424 2.118166446685791 4.937093257904053 C 2.008905649185181 5.417269229888916 1.972853779792786 5.875411510467529 2.001196146011353 6.292739868164062 C 2.029553890228271 6.710299015045166 2.122385025024414 7.087109088897705 2.270906925201416 7.40426778793335 C 2.419544219970703 7.721672534942627 2.623985052108765 7.979386806488037 2.875434637069702 8.158389091491699 C 3.127111434936523 8.337555885314941 3.425902128219604 8.437884330749512 3.762966871261597 8.44025993347168 M 3.435994386672974 9.88117504119873 C 2.959623098373413 9.876862525939941 2.537777900695801 9.734573364257812 2.182783365249634 9.481196403503418 C 1.828240156173706 9.228142738342285 1.540336728096008 8.864255905151367 1.331306457519531 8.416236877441406 C 1.122504353523254 7.96870756149292 0.9923526048660278 7.437123775482178 0.9530624151229858 6.847953319549561 C 0.9138029217720032 6.259243488311768 0.9652481079101562 5.612819194793701 1.119675159454346 4.934909820556641 C 1.274049043655396 4.257236003875732 1.516803026199341 3.611890554428101 1.82368540763855 3.024910688400269 C 2.130624055862427 2.43782377243042 2.501864671707153 1.908835291862488 2.913203716278076 1.464147448539734 C 3.324803829193115 1.019176244735718 3.776724100112915 0.6584275364875793 4.2447190284729 0.4083073735237122 C 4.713189125061035 0.1579330563545227 5.197926998138428 0.01832664385437965 5.674575805664062 0.01611597277224064 C 6.15185546875 0.01390237640589476 6.575879573822021 0.1496487408876419 6.933947086334229 0.3972733914852142 C 7.292470932006836 0.6452137231826782 7.58482837677002 1.005290150642395 7.798221111297607 1.451236248016357 C 8.011848449707031 1.897671818733215 8.146285057067871 2.430057287216187 8.188709259033203 3.021892070770264 C 8.231167793273926 3.614193916320801 8.181448936462402 4.265816211700439 8.026798248291016 4.950014114379883 C 7.872092723846436 5.634451866149902 7.627111911773682 6.28632116317749 7.316642761230469 6.878840446472168 C 7.006231307983398 7.471251010894775 6.630508422851562 8.004037857055664 6.214311599731445 8.450592994689941 C 5.798381805419922 8.896862030029297 5.342203140258789 9.256821632385254 4.870567798614502 9.504068374633789 C 4.3994140625 9.751062393188477 3.912996292114258 9.885489463806152 3.435994386672974 9.88117504119873 Z" stroke="none" fill="#000"/>
    </g>
  </g>
</svg>
