<svg xmlns="http://www.w3.org/2000/svg" width="329.747" height="290.408" viewBox="0 0 329.747 290.408">
  <g id="Group_52529" data-name="Group 52529" transform="translate(-18.815 -268.538)">
    <g id="Group_51220" data-name="Group 51220" transform="translate(122.5 419.119)">
      <g id="Group_51135" data-name="Group 51135">
        <path id="Path_563132" data-name="Path 563132" d="M190.822,50.117l74.013,74.013a27.076,27.076,0,0,1,0,38.18l-74.013,74.015a27.078,27.078,0,0,1-38.18,0L78.627,162.311a27.078,27.078,0,0,1,0-38.18l74.015-74.013A27.076,27.076,0,0,1,190.822,50.117Z" transform="translate(-106.732 -107.318)" fill="#fa6c51" fill-rule="evenodd"/>
      </g>
    </g>
    <rect id="Rectangle_23727" data-name="Rectangle 23727" width="179" height="2" rx="1" transform="translate(98 554)" fill="#fa6c51"/>
    <g id="OBJECTS" transform="translate(134.458 397.22)">
      <g id="Group_51247" data-name="Group 51247" transform="translate(0 0)">
        <g id="Group_51246" data-name="Group 51246">
          <g id="Group_51245" data-name="Group 51245">
            <path id="Path_563385" data-name="Path 563385" d="M567.46,212.122H513.439c-.625-27.972,20.629-44.21,38.877-50.268,1.481-7.8,1.1-17.927,1.1-17.927H581.5s-.378,10.123,1.1,17.927c18.25,6.058,39.5,22.3,38.878,50.268Z" transform="translate(-508.076 -55.005)" fill="#e4ae7c" fill-rule="evenodd"/>
            <path id="Path_563386" data-name="Path 563386" d="M591.053,174.288c-7.519,10.605-19.306,10.393-26.689-.052l-2.722,1.075-5.6,14.074v29.69h44.009v-29.69l-6.4-14.074Z" transform="translate(-518.259 -61.958)" fill-rule="evenodd"/>
            <path id="Path_563387" data-name="Path 563387" d="M542.667,114.355c-.131-1.463-6.039-3.19-8.008,1.6s1.576,11.566,8.271,12.1,4.726-.664,4.726-.664Z" transform="translate(-513.021 -47.867)" fill="#f4d0b5" fill-rule="evenodd"/>
            <path id="Path_563388" data-name="Path 563388" d="M622.037,114.355c.131-1.463,6.039-3.19,8.008,1.6s-1.575,11.566-8.27,12.1-4.726-.664-4.726-.664Z" transform="translate(-532.774 -47.867)" fill="#f4d0b5" fill-rule="evenodd"/>
            <path id="Path_563389" data-name="Path 563389" d="M594.168,155.048c-6.079,11.773-21.735,13-28.458.452.177-2.566.234-4.982.244-6.848h28C593.963,150.408,594.014,152.651,594.168,155.048Z" transform="translate(-520.57 -56.089)" fill="#d67f54" fill-rule="evenodd"/>
            <path id="Path_563390" data-name="Path 563390" d="M574.05,131.653c-34.836.847-52.423-86.137,0-83.908C626.472,45.516,608.885,132.5,574.05,131.653Z" transform="translate(-513.868 -32.627)" fill="#f4d0b5" fill-rule="evenodd"/>
            <path id="Path_563391" data-name="Path 563391" d="M568.9,103.916c1.8.757,2.2,2.217.9,3.263a6.079,6.079,0,0,1-5.606.525c-1.8-.757-2.2-2.217-.9-3.262A6.078,6.078,0,0,1,568.9,103.916Z" transform="translate(-519.812 -46.42)" fill="#20201e" fill-rule="evenodd"/>
            <path id="Path_563416" data-name="Path 563416" d="M568.9,103.916c1.8.757,2.2,2.217.9,3.263a6.079,6.079,0,0,1-5.606.525c-1.8-.757-2.2-2.217-.9-3.262A6.078,6.078,0,0,1,568.9,103.916Z" transform="translate(-493.379 -46.725)" fill="#20201e" fill-rule="evenodd"/>
            <path id="Path_563395" data-name="Path 563395" d="M567.6,92.908c-.116-.052-.232-.1-.351-.145a8.881,8.881,0,0,0-3.986-.525,8.757,8.757,0,0,0-3.723,1.181c-.562.368-2.763,2.171-2.139,2.835a32.583,32.583,0,0,0,3.089-1.273,8.649,8.649,0,0,1,2.874-.392,7.667,7.667,0,0,1,2.633.543c.026,0,.187.079.222.095,1.838.9,1.672,1.486,2.925.615C571.076,94.8,569.091,93.69,567.6,92.908Z" transform="matrix(0.951, -0.309, 0.309, 0.951, -521.673, 135.64)" fill="#3f2716" fill-rule="evenodd"/>
            <path id="Path_563396" data-name="Path 563396" d="M597.278,92.908c.115-.052.231-.1.351-.145a8.88,8.88,0,0,1,3.986-.525,8.748,8.748,0,0,1,3.721,1.181c.564.368,2.762,2.171,2.139,2.835a32.667,32.667,0,0,1-3.088-1.273,8.648,8.648,0,0,0-2.874-.392,7.672,7.672,0,0,0-2.634.543c-.024,0-.186.079-.222.095-1.837.9-1.671,1.486-2.924.615C593.8,94.8,595.79,93.69,597.278,92.908Z" transform="matrix(0.951, 0.309, -0.309, 0.951, -467.769, -224.327)" fill="#3f2716" fill-rule="evenodd"/>
            <path id="Path_563397" data-name="Path 563397" d="M590.788,129.988a.373.373,0,0,1,.514-.139.383.383,0,0,1,.138.521,7.194,7.194,0,0,1-3.506,2.948,14.465,14.465,0,0,1-5.628,1.045l-.034,0a14.193,14.193,0,0,1-5.6-1.032,7.249,7.249,0,0,1-3.531-2.958.385.385,0,0,1,.137-.522.375.375,0,0,1,.516.137,6.513,6.513,0,0,0,3.173,2.642,13.443,13.443,0,0,0,5.305.971h.034a13.72,13.72,0,0,0,5.333-.982A6.457,6.457,0,0,0,590.788,129.988Z" transform="translate(-522.334 -51.764)" fill="#4e2c0b" fill-rule="evenodd"/>
            <path id="Path_563398" data-name="Path 563398" d="M582.217,141.425a.384.384,0,0,1-.134-.521.372.372,0,0,1,.515-.136,3.677,3.677,0,0,0,1.844.462,3.5,3.5,0,0,0,1.808-.459.374.374,0,0,1,.517.129.384.384,0,0,1-.127.522,4.253,4.253,0,0,1-2.2.573A4.421,4.421,0,0,1,582.217,141.425Z" transform="translate(-524.471 -54.269)" fill="#d67f54" fill-rule="evenodd"/>
            <path id="Path_563399" data-name="Path 563399" d="M583.934,120.719a.383.383,0,0,1,0-.765,18.211,18.211,0,0,0,2.827-.152c.687-.119,1.193-.307,1.193-.624,0-1.1-1.1-7.94-1.1-7.959a.377.377,0,1,1,.744-.119c0,.019,1.116,6.931,1.116,8.078,0,.806-.774,1.2-1.825,1.376A18.643,18.643,0,0,1,583.934,120.719Z" transform="translate(-525.996 -48.089)" fill="#d67f54" fill-rule="evenodd"/>
            <path id="Path_563400" data-name="Path 563400" d="M629.165,120.773a.377.377,0,1,1-.754,0,3.757,3.757,0,0,0-.517-2.289.9.9,0,0,0-.7-.354,2.048,2.048,0,0,0-1.028.32,6.852,6.852,0,0,0-2.584,3.088,14.412,14.412,0,0,0-.645,1.774,2.647,2.647,0,0,1,1.759-.516,1.664,1.664,0,0,1,.815.3,1.353,1.353,0,0,1,.507.721,2.53,2.53,0,0,1-.521,2.069.374.374,0,0,1-.522.106.384.384,0,0,1-.1-.529,1.833,1.833,0,0,0,.424-1.427.6.6,0,0,0-.224-.321.921.921,0,0,0-.448-.157,2.06,2.06,0,0,0-1.61.686.805.805,0,0,1-.384.244.413.413,0,0,1-.545-.369l0-.021a1.355,1.355,0,0,1,.011-.446,12.058,12.058,0,0,1,.8-2.415,7.677,7.677,0,0,1,2.9-3.446,2.782,2.782,0,0,1,1.415-.418,1.62,1.62,0,0,1,1.272.636A4.416,4.416,0,0,1,629.165,120.773Z" transform="translate(-534.037 -48.913)" fill="#d67f54" fill-rule="evenodd"/>
            <path id="Path_563401" data-name="Path 563401" d="M538.213,120.773a.378.378,0,1,1-.755,0,4.426,4.426,0,0,1,.688-2.77,1.621,1.621,0,0,1,1.272-.636,2.788,2.788,0,0,1,1.415.418,7.679,7.679,0,0,1,2.9,3.446,12.07,12.07,0,0,1,.8,2.415,1.313,1.313,0,0,1,.01.446l0,.021a.414.414,0,0,1-.546.369.8.8,0,0,1-.384-.244,2.062,2.062,0,0,0-1.61-.686.915.915,0,0,0-.448.157.6.6,0,0,0-.224.321,1.832,1.832,0,0,0,.423,1.427.385.385,0,0,1-.1.529.375.375,0,0,1-.523-.106,2.529,2.529,0,0,1-.521-2.069,1.349,1.349,0,0,1,.508-.721,1.655,1.655,0,0,1,.813-.3,2.646,2.646,0,0,1,1.759.516,14.39,14.39,0,0,0-.643-1.774,6.858,6.858,0,0,0-2.584-3.088,2.051,2.051,0,0,0-1.028-.32.9.9,0,0,0-.7.354A3.751,3.751,0,0,0,538.213,120.773Z" transform="translate(-513.819 -48.913)" fill="#d67f54" fill-rule="evenodd"/>
            <path id="Path_563402" data-name="Path 563402" d="M541.068,95.4c-3.783-26.558.9-53.453,32.732-53.453S610.315,68.845,606.532,95.4c-2.5,7.666-3.11-6.993-3.116-8.668-.016-4.679-4.113-3.739-4.279-14.2-.189-11.829-50.487-11.81-50.676,0-.167,10.462-4.279,9.522-4.279,14.2C544.183,88.12,543.3,103.764,541.068,95.4Z" transform="translate(-514.416 -31.613)" fill="#623a1c" fill-rule="evenodd"/>
            <path id="Path_563403" data-name="Path 563403" d="M565.7,63.164c-1.665,5.382-13.014,6.406-15.076,2.98-.959,2.95-8.758,3.982-9.886,2.307-2.337,3.079-5.674.657-3.5-2.266a7.973,7.973,0,0,1,0-11.33c-1.61-7.6,5.069-13.234,8.814-11.332-.247-10.35,11.245-9.895,13.428-5.958,9.2-14.467,25.8-9.341,25.635,0,5.438-3.417,15.315-3.019,13.428,5.958,6.495-.477,13.169,1.887,8.814,11.332,3.479,3.786,4.351,8.77-.041,11.33,2.011,2.8-1.047,5.184-3.463,2.266-1.14,1.693-8.925.65-9.887-2.307-2.059,3.421-13.078,3.472-15.075-2.98C576.835,68.167,567.76,68.167,565.7,63.164Z" transform="translate(-513.202 -28.535)" fill="#232221" fill-rule="evenodd"/>
            <path id="Path_563404" data-name="Path 563404" d="M563.859,218.936c.038-9.608.073-26.315-.043-30.2-.063-2.1-6.4-5.123-7.519-8.474-1.622-4.837,2.1-10.872.967-15.364-.1.622-.212,1.236-.336,1.837-20.412,6.292-44.185,23.155-43.486,52.2Z" transform="translate(-513.425 -61.819)" fill="#fdcd56" stroke="#000" stroke-width="0.5" fill-rule="evenodd"/>
            <path id="Path_563405" data-name="Path 563405" d="M563.767,162.293c1.148,12.3,2.277,17.45,5.168,23.921C557.837,187.458,554.761,165.9,563.767,162.293Z" transform="matrix(1, -0.017, 0.017, 1, -521.862, -49.844)" fill="#fdcd56" stroke="#000" stroke-width="0.5" fill-rule="evenodd"/>
            <path id="Path_563406" data-name="Path 563406" d="M596.175,218.936c-.037-9.608-.07-26.315.039-30.2.06-2.1,6.01-5.123,7.065-8.474,1.525-4.837-1.974-10.872-.907-15.364.1.622.2,1.236.314,1.837,19.181,6.292,41.519,23.155,40.863,52.2Z" transform="translate(-527.842 -61.819)" fill="#fdcd56" stroke="#000" stroke-width="0.5" fill-rule="evenodd"/>
            <path id="Path_563407" data-name="Path 563407" d="M601.968,162.313c-1.148,12.3-2.627,17.817-5.519,24.288C607.547,187.845,610.974,165.917,601.968,162.313Z" transform="translate(-527.885 -60.218)" fill="#fdcd56" stroke="#000" stroke-width="0.5" fill-rule="evenodd"/>
            <path id="Path_563409" data-name="Path 563409" d="M635.3,211.708c0-.315.129-.569.286-.567s.282.26.281.576l-.07,15.828c0,.315-.129.569-.286.566s-.283-.26-.281-.576Z" transform="translate(-537.421 -70.995)" fill-rule="evenodd"/>
            <path id="Path_563410" data-name="Path 563410" d="M572.966,42.578a.375.375,0,0,1-.518.129.385.385,0,0,1-.128-.524,15.126,15.126,0,0,1,5.852-5.242A11.089,11.089,0,0,1,585.1,35.53c4.477.863,4.7,3.568,4.7,3.576a.376.376,0,1,1-.749.074c0-.005-.174-2.145-4.091-2.9a10.352,10.352,0,0,0-6.448,1.341A14.323,14.323,0,0,0,572.966,42.578Z" transform="translate(-522.137 -30.111)" fill="#f4f6f8" fill-rule="evenodd"/>
            <path id="Path_563411" data-name="Path 563411" d="M556.921,47.731a.376.376,0,0,1-.466.263.382.382,0,0,1-.259-.472,6.6,6.6,0,0,1,2.281-3.509A5.648,5.648,0,0,1,560.9,42.93a5.714,5.714,0,0,1,2.626.133,6.385,6.385,0,0,1,3.329,2.36.383.383,0,0,1-.072.533.373.373,0,0,1-.527-.072,5.643,5.643,0,0,0-2.937-2.087,4.964,4.964,0,0,0-2.284-.116,4.895,4.895,0,0,0-2.1.939A5.838,5.838,0,0,0,556.921,47.731Z" transform="translate(-518.293 -31.816)" fill="#f4f6f8" fill-rule="evenodd"/>
            <path id="Path_563412" data-name="Path 563412" d="M599.482,46.881a.372.372,0,0,1-.531-.033.384.384,0,0,1,.032-.537,13.445,13.445,0,0,1,6.626-3.473,5.466,5.466,0,0,1,2.794.218,3.088,3.088,0,0,1,1.775,1.67,4.615,4.615,0,0,1,.16,2.81.377.377,0,0,1-.447.294.381.381,0,0,1-.29-.452,3.877,3.877,0,0,0-.114-2.347,2.344,2.344,0,0,0-1.352-1.264,4.743,4.743,0,0,0-2.412-.173A12.692,12.692,0,0,0,599.482,46.881Z" transform="translate(-528.491 -31.797)" fill="#f4f6f8" fill-rule="evenodd"/>
            <path id="Path_563413" data-name="Path 563413" d="M576.311,65.442a.384.384,0,0,1,.163-.514.375.375,0,0,1,.508.165,5.849,5.849,0,0,0,3,2.864,5.324,5.324,0,0,0,2.3.381,5.614,5.614,0,0,0,2.281-.632,6.476,6.476,0,0,0,2.992-3.44.374.374,0,0,1,.489-.212.384.384,0,0,1,.21.5,7.23,7.23,0,0,1-3.346,3.835,6.36,6.36,0,0,1-2.585.715,6.085,6.085,0,0,1-2.622-.433A6.6,6.6,0,0,1,576.311,65.442Z" transform="translate(-523.094 -36.677)" fill="#f4f6f8" fill-rule="evenodd"/>
            <path id="Path_563414" data-name="Path 563414" d="M606.039,66.537a.375.375,0,0,1,.508-.164.385.385,0,0,1,.162.514,6.6,6.6,0,0,1-3.39,3.223,6.083,6.083,0,0,1-2.622.433,6.342,6.342,0,0,1-2.584-.715,7.222,7.222,0,0,1-3.347-3.835.384.384,0,0,1,.21-.5.375.375,0,0,1,.489.212,6.473,6.473,0,0,0,2.992,3.44,5.621,5.621,0,0,0,2.282.632,5.329,5.329,0,0,0,2.3-.38A5.852,5.852,0,0,0,606.039,66.537Z" transform="translate(-527.507 -37.008)" fill="#f4f6f8" fill-rule="evenodd"/>
          </g>
        </g>
      </g>
    </g>
    <g id="Layer_3" data-name="Layer 3" transform="translate(59.742 445.847) rotate(-28)">
      <path id="Path_563335" data-name="Path 563335" d="M.014,0C.01.014.016.022,0,.036,0,.024,0,.012,0,0Z" transform="translate(27.607 0)" fill="#8cc295"/>
      <path id="Path_563345" data-name="Path 563345" d="M1.729,44.018c-.156-.758-.251-1.522-.389-2.293-.146-.815-.324-1.624-.5-2.432C.093,35.916-.468,32.767.565,29.384c.928-3.038,2.538-5.824,3.243-8.939a25.351,25.351,0,0,0,.3-6.46c-.084-2.668.051-5.346.066-8.014.011-1.868-.2-4.583,1.6-5.718A1.189,1.189,0,0,1,7.135.179C8.689.9,8.982,3.271,9.049,4.787c.188,4.247.033,8.478.017,12.729,0,.23.041.373.05.582a4.967,4.967,0,0,1,1.676.211c2.4.747,4.038,2.948,5.514,4.936.335-1.452,1.117-3.21,2.591-3.721a1.76,1.76,0,0,1,1.277-.1A2.819,2.819,0,0,1,21.794,20.8c.7,1.468-.023,3.3-.337,4.774a14.365,14.365,0,0,0-.476,3.081c0,1.157.191,2.3.219,3.458.022.939.018,1.886-.051,2.828a15.351,15.351,0,0,1-.6,3.38c-.8,2.609-2.35,4.863-3.409,7.352-.26.611-.478,1.234-.694,1.853-.626,1.794-1.237,3.543-2.828,4.8-2.1,1.656-4.9,1.112-7.027-.174a10.906,10.906,0,0,1-3.023-2.722,3.564,3.564,0,0,1-.753-1.773c-.174-.96-.625-1.878-.891-2.814C1.851,44.569,1.785,44.294,1.729,44.018Z" transform="translate(17.234 9.91)" fill="#f4d0b5"/>
      <path id="Path_563351" data-name="Path 563351" d="M34.791,4.874c1.356,4.329-.867,6.829-1.478,10.879-.49,3.243.687,6.175.557,9.342-.084,2.043-1.185,3.793-1.695,5.722a21.82,21.82,0,0,0-.508,2.631c-1.139,8.452-2.984,16.859-4.59,25.243-.385,2.008-.718,4.178-1.221,6.3A19.223,19.223,0,0,1,22.684,72.4c-3.862,5-13.149,6.945-18.052,2.335C1.7,71.984.578,67.6.179,63.681c-.886-8.694,1.654-18.006,4.48-26.1.989-2.831,2.323-5.518,3.329-8.342a33.716,33.716,0,0,0,1.856-8.135,15.5,15.5,0,0,1,1.583-5.717c1.087-2.079,2.968-3.573,3.632-5.9.9-3.162.322-6.826,3.45-8.866A5.648,5.648,0,0,0,19.536,0c.056.273.121.546.2.817.263.927.71,1.838.883,2.789a3.53,3.53,0,0,0,.747,1.757,10.809,10.809,0,0,0,3,2.7c2.109,1.275,4.887,1.814,6.963.173,1.576-1.245,2.182-2.978,2.8-4.755h0C34.608,3.748,34.627,4.352,34.791,4.874Z" transform="translate(0 57.222) rotate(-8)" fill="#fdcd56"/>
      <path id="Path_563358" data-name="Path 563358" d="M6.563,0C6.372,3.679,3.179,6.341,1.6,9.644.214,12.53.094,15.861,0,19.078" transform="translate(85.041 78.32)" fill="none"/>
    </g>
    <g id="Layer_2" data-name="Layer 2" transform="translate(86.878 463.17) rotate(-28)">
      <g id="Group_51229" data-name="Group 51229" transform="translate(16.162 5.22)">
        <path id="Path_563368" data-name="Path 563368" d="M.441,9.434A.427.427,0,0,1,.288,9.4.1.1,0,0,0,.255,9.4.283.283,0,0,1,0,9.09a.279.279,0,0,1,.3-.262.6.6,0,0,1,.152.031.27.27,0,0,1,.081-.006c.734.057,1.373-.887,1.6-1.493a7.065,7.065,0,0,0,.319-3.468,6.524,6.524,0,0,0-.913-3L1.215.458a.291.291,0,0,1,.051-.4.271.271,0,0,1,.388.053l.325.436A6.974,6.974,0,0,1,3,3.815,7.641,7.641,0,0,1,2.65,7.569,3.729,3.729,0,0,1,1.868,8.8a1.785,1.785,0,0,1-1.333.62A.482.482,0,0,1,.441,9.434Z" fill="#ab684d"/>
      </g>
      <g id="Group_51230" data-name="Group 51230" transform="translate(6.741 0)">
        <path id="Path_563369" data-name="Path 563369" d="M.277,1.761a.273.273,0,0,1-.221-.114.291.291,0,0,1,.055-.4A6.163,6.163,0,0,1,3.3,0a.279.279,0,0,1,.3.259.283.283,0,0,1-.251.309A5.612,5.612,0,0,0,.443,1.7.271.271,0,0,1,.277,1.761Z" fill="#ab684d"/>
      </g>
      <g id="Group_51231" data-name="Group 51231" transform="translate(7.81 6.725)">
        <path id="Path_563370" data-name="Path 563370" d="M4.839,12.26a1.267,1.267,0,0,1-.978-.381.7.7,0,0,0-.13-.072.616.616,0,0,1-.425-.489.283.283,0,0,1,.252-.308.278.278,0,0,1,.293.222,1.138,1.138,0,0,0,.112.058.916.916,0,0,1,.3.2c.415.458,1.585.042,2.1-.309a5.269,5.269,0,0,0,1.558-6A4.082,4.082,0,0,0,7.4,4.271c-.08-.115-.162-.235-.238-.354C5.958,2.031,4.77.947,3.63.7a8.321,8.321,0,0,0-3.3.1A.277.277,0,0,1,.006.573.285.285,0,0,1,.22.236,8.864,8.864,0,0,1,3.745.14C5.051.426,6.319,1.559,7.622,3.6c.07.11.146.22.226.336a4.49,4.49,0,0,1,.591,1.046c.743,2.131.375,5.192-1.772,6.668A3.645,3.645,0,0,1,4.839,12.26Z" fill="#ab684d"/>
      </g>
      <g id="Group_51232" data-name="Group 51232" transform="translate(5.765 12.172)">
        <path id="Path_563371" data-name="Path 563371" d="M3.168,9.839a1.643,1.643,0,0,1-1.327-.711,2.549,2.549,0,0,1-.5-1.271,3.34,3.34,0,0,1,.018-.533A1.5,1.5,0,0,0,1.317,6.6,3.54,3.54,0,0,0,.246,5.4L.1,5.281a.291.291,0,0,1-.039-.4.271.271,0,0,1,.389-.041l.143.119A4.021,4.021,0,0,1,1.819,6.364a1.976,1.976,0,0,1,.092,1.012,2.884,2.884,0,0,0-.018.439,1.978,1.978,0,0,0,.387.966,1.094,1.094,0,0,0,1.609.242A4.267,4.267,0,0,0,5.358,5.735,5.743,5.743,0,0,0,5.1,3.875a4.807,4.807,0,0,0-1.27-1.8L3.7,1.948A5.576,5.576,0,0,0,1.683.552.288.288,0,0,1,1.52.185.274.274,0,0,1,1.876.018,6.123,6.123,0,0,1,4.1,1.548l.125.131A5.3,5.3,0,0,1,5.629,3.708a6.326,6.326,0,0,1,.282,2.05A4.7,4.7,0,0,1,4.2,9.5,1.815,1.815,0,0,1,3.168,9.839Z" fill="#ab684d"/>
      </g>
      <g id="Group_51233" data-name="Group 51233" transform="translate(11.978 17.649)">
        <path id="Path_563372" data-name="Path 563372" d="M.277,4.945A.27.27,0,0,1,.2,4.933a.287.287,0,0,1-.184-.355,10.443,10.443,0,0,1,1.56-3.331c.12-.166.229-.319.336-.469.157-.22.3-.428.481-.665A.271.271,0,0,1,2.777.059a.291.291,0,0,1,.052.4c-.173.233-.319.439-.475.656-.108.152-.218.306-.34.473A9.9,9.9,0,0,0,.541,4.743.278.278,0,0,1,.277,4.945Z" fill="#ab684d"/>
      </g>
      <g id="Group_51234" data-name="Group 51234" transform="translate(8.736 31.189) rotate(-8)">
        <path id="Path_563373" data-name="Path 563373" d="M.277,59.331c-.021,0,.691-2.629.669-2.634a16.008,16.008,0,0,0-.938,2.295c.324-1.356.58-2.734.827-4.067.12-.646.233-1.256.353-1.865.4-2.025.824-4.086,1.232-6.079,1.245-6.07,2.532-12.346,3.4-18.547a20.689,20.689,0,0,1,.519-2.6,18.765,18.765,0,0,1,.742-2.067,10.422,10.422,0,0,0,.959-3.457A20.686,20.686,0,0,0,7.7,16.372a16.934,16.934,0,0,1-.226-5.216,21.345,21.345,0,0,1,.987-3.649c.749-2.215,1.608-3.652.728-6.368-.041-.127-.168-.289-.2-.414-.091-.366.341.042.075-.1-.134-.073.038-.1.111-.234s.06-.34.194-.267c.48.26-.068-.4.039.028.03.121.059.235.094.344.936,2.889.23,4.978-.517,7.189a20.911,20.911,0,0,0-.965,3.558,16.511,16.511,0,0,0,.226,5.05,21.1,21.1,0,0,1,.339,4.039,10.992,10.992,0,0,1-1,3.64,18.332,18.332,0,0,0-.721,2.006,20.136,20.136,0,0,0-.505,2.534c-.867,6.219-2.156,12.5-3.4,18.582-.409,1.992-.831,4.052-1.231,6.075-.12.605-.233,1.214-.352,1.858-.248,1.34-3.55,9.526-3.877,10.9C-2.53,66.046.4,59.331.277,59.331Z"/>
      </g>
      <g id="Group_51235" data-name="Group 51235" transform="translate(1.751 39.919)">
        <path id="Path_563374" data-name="Path 563374" d="M7.131,8.953a.271.271,0,0,1-.2-.084A81.065,81.065,0,0,1,.056.457a.291.291,0,0,1,.053-.4A.271.271,0,0,1,.5.113a80.574,80.574,0,0,0,6.83,8.354.291.291,0,0,1,0,.4A.272.272,0,0,1,7.131,8.953Z"/>
      </g>
      <g id="Group_51236" data-name="Group 51236" transform="translate(0 54.007)">
        <path id="Path_563375" data-name="Path 563375" d="M4.407,1.319A13.33,13.33,0,0,1,.192.556.287.287,0,0,1,.013.2.275.275,0,0,1,.362.014,10.922,10.922,0,0,0,6.513.5a.276.276,0,0,1,.332.213.285.285,0,0,1-.207.342A9.519,9.519,0,0,1,4.407,1.319Z"/>
      </g>
    </g>
    <g id="Layer_2-2" data-name="Layer 2" transform="translate(121.248 578.17) rotate(-28)">
      <g id="Group_51234-2" data-name="Group 51234" transform="translate(61.577 -55.9) rotate(141)">
        <path id="Path_563373-2" data-name="Path 563373" d="M53.127,4.351c-.012-.018-1.365,1.852-1.381,1.837-.113-.1-.8,1.122-.9,1.234-.943,1.027-1.836,2.63-2.8,3.58-.468.46-1.454,1.669-1.891,2.11-1.455,1.465-1.749,1.658-3.173,3.111-.069.071-2.208,2.129-2.5,2.425-4.051,4.135-9.073,7.585-13.656,11.7a20.689,20.689,0,0,0-1.868,1.886,18.765,18.765,0,0,0-1.3,1.771,15.189,15.189,0,0,1-2.8,3.311,16.745,16.745,0,0,1-3.016,1.854c-1.525.727-3.067.965-4.415,2.216a21.345,21.345,0,0,0-2.473,2.859c-1.418,1.859-2.128,3.376-4.872,4.165-.129.037-.334.023-.454.066-.354.129.225.259-.043.119-.135-.07-.062.087-.132.222s-.248.24-.113.31c.484.252-.371.168.045.016.117-.043.228-.083.338-.115,2.919-.839,4.256-2.593,5.671-4.449a20.911,20.911,0,0,1,2.41-2.789c1.286-1.193,2.483-1.279,3.971-1.988a19.217,19.217,0,0,0,3.29-2,16.53,16.53,0,0,0,3.049-3.487,18.334,18.334,0,0,1,1.26-1.719,20.136,20.136,0,0,1,1.818-1.836c4.671-4.2,9.475-7.5,13.817-11.928,1.423-1.453,3.913-3.728,5.366-5.191.435-.438,1.423-1.653,1.891-2.112.972-.955,2.067-2.84,3.019-3.877A33.655,33.655,0,0,0,53.127,4.351Z" transform="translate(0)"/>
      </g>
    </g>
    <g id="Quick_tips_banner" data-name="Quick tips banner" transform="matrix(0.995, 0.105, -0.105, 0.995, -2569.303, -1480.555)">
      <g id="Group_51260" data-name="Group 51260" transform="translate(2749.716 1521.419)">
        <g id="Group_51259" data-name="Group 51259">
          <g id="Group_51256" data-name="Group 51256" transform="translate(0 60.411) rotate(-39)">
            <path id="Path_563417" data-name="Path 563417" d="M31.848,46.566a5.437,5.437,0,0,1-.183,1.746c-.835,3.032-4.206,4.966-8.538,5.318a20.4,20.4,0,0,1-7.139-.718,23.456,23.456,0,0,1-2.923-1.022c-5.726-2.481-9.276-7.007-8.189-10.954a5.423,5.423,0,0,1,.736-1.594A23.944,23.944,0,0,1,30.319.866a23.623,23.623,0,0,1,8.205,4.079,23.938,23.938,0,0,1-6.676,41.621Z" transform="translate(29.092 24.241)" fill="#ffed00"/>
            <path id="Path_563418" data-name="Path 563418" d="M53.783,20.553A27.312,27.312,0,1,0,5.071,43.16L5,43.4c-.841,3.053,0,6.353,2.353,9.289.161.2.336.4.508.609l-.088.319a10.872,10.872,0,0,0,7.586,13.352l1.958.539a10.869,10.869,0,0,0,13.341-7.589l.088-.319.14-.053c.2-.07.416-.137.607-.21,3.533-1.316,5.935-3.722,6.776-6.776l.067-.245A27.289,27.289,0,0,0,53.783,20.553ZM36.95,50.508l-.546.239-.113.575c-.04.229-.088.445-.147.658-.647,2.351-2.571,4.225-5.429,5.292a18.339,18.339,0,0,1-9.888.539q-.879-.173-1.773-.419a19.213,19.213,0,0,1-9.968-6.075c-1.908-2.38-2.6-4.974-1.954-7.326q.088-.319.208-.63l.2-.563-.347-.485A25.111,25.111,0,1,1,36.95,50.508Z" transform="translate(21.33 18.319)" fill="#343f56"/>
            <path id="Path_563419" data-name="Path 563419" d="M6.414,21.318a23.927,23.927,0,0,0,4.75,21.739,5.422,5.422,0,0,0-.737,1.594C9.341,48.6,12.891,53.124,18.617,55.6q-.88-.173-1.773-.419A19.213,19.213,0,0,1,6.876,49.11c-1.908-2.38-2.6-4.974-1.954-7.326a6.58,6.58,0,0,1,.208-.63l.2-.563-.347-.485A25.1,25.1,0,0,1,44.077,8.659,23.622,23.622,0,0,0,35.872,4.58,23.958,23.958,0,0,0,6.414,21.318Z" transform="translate(23.54 20.526)" fill="#fff"/>
            <path id="Path_563420" data-name="Path 563420" d="M.036,0s-.5,4.369,2.278,6.211c0,0-1.061-3.811-.552-5.237Z" transform="translate(32.276 74.635)" fill="#fff"/>
            <g id="Group_51254" data-name="Group 51254" transform="translate(0 0)">
              <g id="Group_51249" data-name="Group 51249" transform="translate(55.999 0)">
                <path id="Path_563421" data-name="Path 563421" d="M.92,14.559h0A1.252,1.252,0,0,1,.045,13.02L3.377.92A1.251,1.251,0,0,1,4.916.045h0A1.252,1.252,0,0,1,5.79,1.584l-3.332,12.1A1.251,1.251,0,0,1,.92,14.559Z" fill="#343f56"/>
              </g>
              <g id="Group_51250" data-name="Group 51250" transform="translate(81.39 55.706)">
                <path id="Path_563422" data-name="Path 563422" d="M.045.92h0A1.253,1.253,0,0,1,1.584.045l12.1,3.332a1.251,1.251,0,0,1,.874,1.539h0a1.251,1.251,0,0,1-1.539.874L.92,2.458A1.252,1.252,0,0,1,.045.92Z" fill="#343f56"/>
              </g>
              <g id="Group_51251" data-name="Group 51251" transform="translate(0 34.538)">
                <path id="Path_563423" data-name="Path 563423" d="M.045.92h0A1.252,1.252,0,0,1,1.584.045l12.1,3.332a1.251,1.251,0,0,1,.874,1.539h0a1.252,1.252,0,0,1-1.539.874L.92,2.458A1.252,1.252,0,0,1,.045.92Z" fill="#343f56"/>
              </g>
              <g id="Group_51252" data-name="Group 51252" transform="translate(20.743 5.855)">
                <path id="Path_563424" data-name="Path 563424" d="M8.07,13.252h0a1.252,1.252,0,0,1-1.707-.47L.164,1.87A1.252,1.252,0,0,1,.634.164h0A1.251,1.251,0,0,1,2.34.634l6.2,10.912A1.251,1.251,0,0,1,8.07,13.252Z" fill="#343f56"/>
              </g>
              <g id="Group_51253" data-name="Group 51253" transform="translate(78.902 24.874)">
                <path id="Path_563425" data-name="Path 563425" d="M.164,8.07h0a1.252,1.252,0,0,1,.47-1.707L11.545.164a1.252,1.252,0,0,1,1.707.47h0a1.252,1.252,0,0,1-.47,1.707L1.87,8.54A1.252,1.252,0,0,1,.164,8.07Z" fill="#343f56"/>
              </g>
            </g>
            <g id="Group_51255" data-name="Group 51255" transform="translate(34.231 52.573)">
              <path id="Path_563426" data-name="Path 563426" d="M4.425,6.627,0,.756,1,0,4.673,4.866,9.465,1.255l3.53,4.684L17.811,2.31l4.028,5.345-1.005.756-3.271-4.34L12.747,7.7,9.217,3.016Z" fill="#fff"/>
            </g>
          </g>
        </g>
      </g>
    </g>
    <rect id="Rectangle_23729" data-name="Rectangle 23729" width="53.494" height="42.294" transform="translate(249.707 435.145) rotate(-56)" fill="#e7595e"/>
    <rect id="Rectangle_23730" data-name="Rectangle 23730" width="52.9" height="43.05" transform="matrix(0.559, -0.829, 0.829, 0.559, 249.849, 433.266)" fill="#b6bcb1"/>
    <path id="Path_563427" data-name="Path 563427" d="M16.236,0,0,47.333l45.774,8.182L58.615,7.576Z" transform="matrix(0.914, 0.407, -0.407, 0.914, 264.853, 382.442)" fill="#e1e3e2" fill-rule="evenodd"/>
    <path id="Path_563428" data-name="Path 563428" d="M18.364,0,0,41.8,44.722,49.8,60.742,7.576Z" transform="matrix(0.914, 0.407, -0.407, 0.914, 262.91, 381.577)" fill="#f2f3f4" fill-rule="evenodd"/>
    <path id="Path_563429" data-name="Path 563429" d="M56.282,41.183,13.14,33.47C5.238,23.745,2.2,12.042,0,0L43.143,7.713C45.265,21.79,49.832,32.705,56.282,41.183Z" transform="matrix(0.914, 0.407, -0.407, 0.914, 280.453, 353.204)" fill="#e7595e" fill-rule="evenodd"/>
    <g id="Group_51273" data-name="Group 51273" transform="matrix(0.914, 0.407, -0.407, 0.914, 309.852, 382.015)">
      <g id="Group_51263" data-name="Group 51263" transform="translate(5.859 2.669)">
        <rect id="Rectangle_23731" data-name="Rectangle 23731" width="34.495" height="8.884" transform="translate(0 20.873) rotate(-37.237)" fill="#f29500"/>
      </g>
      <g id="Group_51264" data-name="Group 51264" transform="translate(5.862 2.665)">
        <rect id="Rectangle_23732" data-name="Rectangle 23732" width="34.494" height="2.762" transform="translate(0 20.881) rotate(-37.253)" fill="#fce515"/>
      </g>
      <g id="Group_51265" data-name="Group 51265" transform="translate(7.528 4.872)">
        <rect id="Rectangle_23733" data-name="Rectangle 23733" width="34.494" height="3" transform="translate(0 20.864) rotate(-37.219)" fill="#f7cb00"/>
      </g>
      <g id="Group_51266" data-name="Group 51266" transform="translate(0 23.541)">
        <path id="Path_563430" data-name="Path 563430" d="M11.235,7.073,5.859,0,0,9.886Z" transform="translate(0 0)" fill="#dfbda0" fill-rule="evenodd"/>
      </g>
      <g id="Group_51267" data-name="Group 51267" transform="translate(0 23.541)">
        <path id="Path_563431" data-name="Path 563431" d="M9.345,4.587,5.859,0,0,9.886Z" transform="translate(0 0)" fill="#f0d7b4" fill-rule="evenodd"/>
      </g>
      <g id="Group_51268" data-name="Group 51268" transform="translate(0 23.541)">
        <path id="Path_563432" data-name="Path 563432" d="M7.538,2.21,5.859,0,0,9.886Z" transform="translate(0 0)" fill="#f8f6c3" fill-rule="evenodd"/>
      </g>
      <g id="Group_51269" data-name="Group 51269" transform="translate(0 30.165)">
        <path id="Path_563433" data-name="Path 563433" d="M1.933,0,0,3.262l3.706-.929Z" transform="translate(0 0)" fill="#2b3945" fill-rule="evenodd"/>
      </g>
      <g id="Group_51270" data-name="Group 51270" transform="translate(33.313 0)">
        <path id="Path_563434" data-name="Path 563434" d="M5.369,9.749,8.583,7.306a1.408,1.408,0,0,0,.15-1.967L5.149.624A1.4,1.4,0,0,0,3.216.241L0,2.684Z" transform="translate(0)" fill="#e7595e" fill-rule="evenodd"/>
      </g>
      <g id="Group_51271" data-name="Group 51271" transform="translate(34.974 1.638)">
        <path id="Path_563435" data-name="Path 563435" d="M7.071,3.7,4.256,0,0,3.234,3.707,8.112,6.921,5.669A1.408,1.408,0,0,0,7.071,3.7Z" transform="translate(0 0)" fill="#9e1a5e" fill-rule="evenodd"/>
      </g>
      <g id="Group_51272" data-name="Group 51272" transform="translate(36.799 4.037)">
        <path id="Path_563436" data-name="Path 563436" d="M5.247,1.3,4.255,0,0,3.236,1.882,5.713,5.1,3.27A1.408,1.408,0,0,0,5.247,1.3Z" transform="translate(0 0)" fill="#7a1c43" fill-rule="evenodd"/>
      </g>
    </g>
    <g id="Group_51358" data-name="Group 51358" transform="translate(178.756 267.416) rotate(29)">
      <g id="Group_51357" data-name="Group 51357" transform="translate(3.964 5.621)">
        <g id="Group_51356" data-name="Group 51356">
          <path id="Path_563592" data-name="Path 563592" d="M120.212,157.5l-12.819-12.949c-2.656.2-5.571.277-8.878.229-12.948-.193-25.176-5.753-32.688-14.88A29.253,29.253,0,0,1,58.8,110.448c.7-28.088,30.844-35.8,40.066-37.488,24.447-4.488,41.255,4.055,44.964,22.852,3.611,18.3-6.9,39.28-22.655,45.794Zm-11.446-17.767,8,8.082.59-9.718,1.323-.469c16.123-5.726,24.13-26.081,21.232-40.767a23.508,23.508,0,0,0-11.247-16.31c-7.185-4.2-17-5.2-29.17-2.961-8.448,1.551-36.061,8.514-36.67,32.993a24.245,24.245,0,0,0,5.906,16.072c6.782,8.24,17.939,13.266,29.835,13.437h0a91.359,91.359,0,0,0,9.364-.284Z" transform="translate(-58.794 -71.786)"/>
        </g>
        <path id="Path_563593" data-name="Path 563593" d="M102.875,141.939a93.56,93.56,0,0,0,9.541-.291l10.408,10.513.777-12.787c30.454-10.816,37.778-75.219-20.085-64.6C90.509,77.164,65.753,85.65,65.147,110.017,64.717,127.271,82.344,141.637,102.875,141.939Z" transform="translate(-61.788 -72.641)" fill="#fff"/>
      </g>
      <path id="Path_563594" data-name="Path 563594" d="M110.535,206.741a15.2,15.2,0,0,1-1.861.817c-.6.243-1.34.484-2.2.748-.858.231-1.828.526-2.9.718a28.958,28.958,0,0,1-3.49.535,35.023,35.023,0,0,1-3.938.232,19.979,19.979,0,0,1-2.086-.067c-.706-.047-1.422-.064-2.14-.157l-2.163-.331-1.088-.18-1.08-.268a28.613,28.613,0,0,1-4.243-1.33l-2.04-.811-1.918-1.022c-.623-.351-1.248-.659-1.831-1.027L75.9,203.4l-1.555-1.14c-.49-.387-.913-.853-1.343-1.249-.849-.815-1.621-1.559-2.261-2.269-.608-.76-1.112-1.446-1.529-2-.831-1.116-1.269-1.773-1.269-1.773s.631.44,1.674,1.243c.519.4,1.152.883,1.848,1.46l2.512,1.637c.462.289.912.641,1.427.909l1.584.842,1.659.892,1.793.761,1.839.8,1.94.641a35.8,35.8,0,0,0,3.988,1.145l1.008.267,1.022.183,2.028.389c1.353.174,2.688.385,3.988.5,1.3.088,2.563.255,3.766.268,1.2.059,2.343.074,3.4.086s2.028-.029,2.895-.031c.86-.057,1.624-.044,2.245-.1C109.812,206.806,110.535,206.741,110.535,206.741Z" transform="translate(-59.148 -124.298)"/>
      <path id="Path_563595" data-name="Path 563595" d="M51.287,94.189s.2-.92.714-2.468a45.728,45.728,0,0,1,2.591-6.191c.614-1.239,1.333-2.547,2.164-3.878a44.894,44.894,0,0,1,2.791-4.036,41.151,41.151,0,0,1,3.4-3.909A43.088,43.088,0,0,1,66.877,70.2c.694-.532,1.416-1.016,2.128-1.51.736-.444,1.448-.93,2.194-1.328a29.288,29.288,0,0,1,4.472-2.034,26.115,26.115,0,0,1,4.352-1.213c.7-.115,1.38-.282,2.046-.341l1.922-.165a28.858,28.858,0,0,1,3.353.026,25.574,25.574,0,0,1,2.562.28c1.41.258,2.2.432,2.2.432s-.815.081-2.218.174c-.7.02-1.55.193-2.517.278a14.944,14.944,0,0,0-1.531.246c-.536.107-1.1.171-1.685.3-1.164.277-2.416.575-3.718.989-.657.172-1.31.452-1.983.7s-1.349.53-2.033.83a39.515,39.515,0,0,0-4.107,2.136c-.69.385-1.349.859-2.031,1.286-.657.477-1.322.947-1.967,1.454a40.03,40.03,0,0,0-3.742,3.216c-.6.558-1.16,1.165-1.74,1.73-.555.6-1.11,1.18-1.632,1.786-1.04,1.212-2.031,2.41-2.929,3.6s-1.719,2.343-2.447,3.442c-1.465,2.192-2.6,4.116-3.367,5.49S51.287,94.189,51.287,94.189Z" transform="translate(-51.287 -62.288)"/>
    </g>
    <g id="Group_51368" data-name="Group 51368" transform="translate(197.414 296.308) rotate(29)">
      <path id="Path_563597" data-name="Path 563597" d="M105.6,96.4c14.209-18.765,42.036-5.838,25.643,13.633-7.158,8.508,5.24,7.521-9.479,11.137-2.129-5.154-3.12-6.584-2.356-8.764,1.389-3.961,5.246-5.7,6.525-9.966,1.441-4.808-3.233-8.647-9.316-5.075C110.167,101.157,113.234,103.2,105.6,96.4Z" transform="translate(-102.656 -85.461)" fill="#ff682a" style="mix-blend-mode: multiply;isolation: isolate"/>
      <path id="Path_563598" data-name="Path 563598" d="M142.039,175.892c-1.7-6.651,9.042-9.234,10.732-2.637C154.464,179.871,143.747,182.563,142.039,175.892Z" transform="translate(-122.65 -130.773)" fill="#ff682a" style="mix-blend-mode: multiply;isolation: isolate"/>
      <g id="Group_51359" data-name="Group 51359" transform="translate(2.57 1.521)" style="mix-blend-mode: multiply;isolation: isolate">
        <path id="Path_563599" data-name="Path 563599" d="M121.13,121.15l-.091-.22c-.386-.934-.734-1.746-1.042-2.462-1.4-3.26-1.978-4.609-1.319-6.49a14.456,14.456,0,0,1,3.2-4.779,13.724,13.724,0,0,0,3.324-5.176,4.612,4.612,0,0,0-1.5-5.226c-1.85-1.349-4.615-1.177-7.4.457a23.245,23.245,0,0,0-3.409,2.444c-2.128,1.782-2.292,1.634-6.509-2.154-.432-.388-.91-.817-1.437-1.287l-.183-.164.148-.2c4.942-6.526,12.166-9.944,19.324-9.14,5.229.587,9.357,3.346,11.041,7.38,1.916,4.59.4,10.173-4.274,15.722-3.075,3.655-2.432,5.479-2.007,6.687a1.857,1.857,0,0,1,.093,1.625c-.511.9-2.387,1.609-7.718,2.919Zm-1.773-25.666a5.929,5.929,0,0,1,4.689.878,5.129,5.129,0,0,1,1.7,5.808,14.16,14.16,0,0,1-3.439,5.381,13.831,13.831,0,0,0-3.089,4.6c-.592,1.687-.074,2.891,1.306,6.108.284.661.6,1.4.953,2.248,4.782-1.183,6.718-1.889,7.116-2.59.169-.3.07-.611-.134-1.188-.465-1.32-1.169-3.316,2.1-7.207,4.536-5.387,6.023-10.776,4.187-15.174-1.607-3.849-5.564-6.483-10.586-7.046-6.879-.773-13.833,2.485-18.646,8.721.456.407.873.782,1.255,1.125,4.01,3.6,4.009,3.6,5.75,2.145a23.767,23.767,0,0,1,3.487-2.5A10.548,10.548,0,0,1,119.357,95.485Z" transform="translate(-104.762 -86.642)" fill="#ff682a"/>
      </g>
      <g id="Group_51360" data-name="Group 51360" transform="translate(18.923 38.374)" style="mix-blend-mode: multiply;isolation: isolate">
        <path id="Path_563600" data-name="Path 563600" d="M148.013,179.569a6.486,6.486,0,0,1-2.875-.087,5.124,5.124,0,0,1-3.722-3.855h0a4.994,4.994,0,0,1,1.422-5.1,6.742,6.742,0,0,1,6.137-1.5,5.109,5.109,0,0,1,3.723,3.831,5.01,5.01,0,0,1-1.438,5.116A6.583,6.583,0,0,1,148.013,179.569Zm-1.84-10.1a5.965,5.965,0,0,0-2.943,1.446,4.478,4.478,0,0,0-1.264,4.578h0a4.6,4.6,0,0,0,3.33,3.466,6.123,6.123,0,0,0,5.571-1.376,4.494,4.494,0,0,0,1.28-4.591,4.581,4.581,0,0,0-3.331-3.442A5.963,5.963,0,0,0,146.173,169.466Z" transform="translate(-141.225 -168.813)" fill="#ff682a"/>
      </g>
    </g>
  </g>
</svg>
