<svg xmlns="http://www.w3.org/2000/svg" width="24.004" height="23.999" viewBox="0 0 24.004 23.999">
  <path id="Path_54979" data-name="Path 54979" d="M23,1.006A3.357,3.357,0,0,0,19.822.1L4.534,3.313a5.314,5.314,0,0,0-2.979,9.015l1.639,1.64a.4.4,0,0,1,.119.287v3.024a3.412,3.412,0,0,0,3.408,3.408H9.745a.408.408,0,0,1,.288.119l1.639,1.639a5.315,5.315,0,0,0,9.015-2.979L23.9,4.226A3.38,3.38,0,0,0,23,1.006ZM3.119,7.832A2.272,2.272,0,0,1,5,6.277l.105-.018,13.322-2.8L6.313,15.566V14.255a3.384,3.384,0,0,0-1-2.409L3.676,10.207A2.272,2.272,0,0,1,3.119,7.832ZM17.741,18.9c-.008.035-.013.07-.018.1a2.315,2.315,0,0,1-3.93,1.323L12.155,18.69a3.384,3.384,0,0,0-2.41-1H8.434L20.545,5.576Z" transform="translate(0.003 -0.006)" fill="#fa6c51"/>
</svg>
