<svg xmlns="http://www.w3.org/2000/svg" xmlns:xlink="http://www.w3.org/1999/xlink" width="75" height="75" viewBox="0 0 75 75">
  <defs>
    <clipPath id="clip-path">
      <rect id="Rectangle_13207" data-name="Rectangle 13207" width="75" height="75" rx="37.5" transform="translate(150 89)" fill="#fff"/>
    </clipPath>
  </defs>
  <g id="Group_44271" data-name="Group 44271" transform="translate(-263 -86)">
    <rect id="Rectangle_13209" data-name="Rectangle 13209" width="75" height="75" rx="37.5" transform="translate(263 86)" fill="#fff"/>
    <g id="Mask_Group_149" data-name="Mask Group 149" transform="translate(113 -3)" clip-path="url(#clip-path)">
      <g id="Group_42029" data-name="Group 42029" transform="translate(-47.116 -55.164)">
        <g id="Group_42001" data-name="Group 42001" transform="translate(207.288 204.356)">
          <path id="Path_303837" data-name="Path 303837" d="M207.79,326.849q6.971-8.062,21.915-9.419a8.833,8.833,0,0,0,6.465,1.684c3.651-.6,4.97-1.922,4.97-1.922s15.76,3.208,21.346,8.618l-.161,8.652H207.79Z" transform="translate(-207.79 -317.192)" fill="#fa6c51"/>
        </g>
        <g id="Group_42002" data-name="Group 42002" transform="translate(213.371 163.864)">
          <path id="Path_303838" data-name="Path 303838" d="M237.885,189.364s-2.921,6.94-2.237,11.913a5.78,5.78,0,0,0-6.214-.336c-3.226,1.934-2.62,6.771-.826,7.947s3.274,2.163,6.516.672l.976-.4s.152,5.6,3.786,8.365,6.707,4.32,12.4,2.845,8-7.218,8.379-9.5.722-1.586.722-1.586,3.487,2.549,6.615-.121a5.165,5.165,0,0,0,1.213-6.267s-1.747-2.769-4.41-2.8a5.434,5.434,0,0,0-3.85,1.184l-1.026-7.335-12.923-3.72-5.517-1.828Z" transform="translate(-227.138 -188.394)" fill="#f4d0b5"/>
        </g>
        <g id="Group_42003" data-name="Group 42003" transform="translate(229.112 192.892)">
          <path id="Path_303839" data-name="Path 303839" d="M277.21,281.4c.2.4,0,10.628,0,10.628s.488.863,2.858,1.747a9.719,9.719,0,0,0,6.555-.352c1.085-.543,2.112-1.029,2.112-1.6s-.305-7.163-.305-7.163l-7.093-3.931Z" transform="translate(-277.21 -280.729)" fill="#f4d0b5"/>
        </g>
        <g id="Group_42004" data-name="Group 42004" transform="translate(235.142 185.843)">
          <path id="Path_303840" data-name="Path 303840" d="M296.388,261.552a4.634,4.634,0,0,1,3.3-3.245s.055,3.218-1.234,3.594A2.179,2.179,0,0,1,296.388,261.552Z" transform="translate(-296.388 -258.307)" fill="#fa9678"/>
        </g>
        <g id="Group_42005" data-name="Group 42005" transform="translate(228.207 177.541)">
          <circle id="Ellipse_3409" data-name="Ellipse 3409" cx="0.931" cy="0.931" r="0.931" fill="#0c2238"/>
        </g>
        <g id="Group_42006" data-name="Group 42006" transform="translate(237.956 177.541)">
          <circle id="Ellipse_3410" data-name="Ellipse 3410" cx="0.931" cy="0.931" r="0.931" transform="translate(0)" fill="#0c2238"/>
        </g>
        <g id="Group_42007" data-name="Group 42007" transform="translate(232.572 176.53)">
          <path id="Path_303841" data-name="Path 303841" d="M289.768,235.254a1.71,1.71,0,0,1-1.113-.395,1.2,1.2,0,0,1-.439-1l.356-5.18.627.043-.356,5.18a.593.593,0,0,0,.223.479,1.118,1.118,0,0,0,.955.214l.692-.151.134.614-.691.151A1.812,1.812,0,0,1,289.768,235.254Z" transform="translate(-288.214 -228.681)" fill="#0c2238"/>
        </g>
        <g id="Group_42008" data-name="Group 42008" transform="translate(232.958 181.373)">
          <path id="Path_303842" data-name="Path 303842" d="M289.981,248.4a4.066,4.066,0,0,1-.538-.03l.094-.622a4.29,4.29,0,0,0,4.833-3.661l.614.135A4.883,4.883,0,0,1,289.981,248.4Z" transform="translate(-289.443 -244.086)" fill="#0c2238"/>
        </g>
        <g id="Group_42009" data-name="Group 42009" transform="translate(237.272 173.877)">
          <path id="Path_303843" data-name="Path 303843" d="M307.48,222.116c-.163.475-1.258.529-2.444.121s-2.016-1.124-1.852-1.6,1.258-.529,2.444-.121S307.643,221.641,307.48,222.116Z" transform="translate(-303.163 -220.243)" fill="#0c2238"/>
        </g>
        <g id="Group_42010" data-name="Group 42010" transform="translate(226.944 173.877)">
          <path id="Path_303844" data-name="Path 303844" d="M270.334,222.116c.163.475,1.257.529,2.444.121s2.016-1.124,1.853-1.6-1.258-.529-2.444-.121S270.171,221.641,270.334,222.116Z" transform="translate(-270.314 -220.243)" fill="#0c2238"/>
        </g>
        <g id="Group_42011" data-name="Group 42011" transform="translate(213.029 166.701)">
          <path id="Path_303845" data-name="Path 303845" d="M247.743,227.461a12.716,12.716,0,0,1-12.753-11.77,5.447,5.447,0,1,1-.04-8.594V204.34a12.746,12.746,0,0,1,2.033-6.922l.528.341a12.121,12.121,0,0,0-1.932,6.582V207.8l-.541.218a4.8,4.8,0,0,0-3.508-1.429,4.849,4.849,0,1,0,3.511,8.2l.542.209a12.127,12.127,0,0,0,24.248,0l.541-.208a4.849,4.849,0,1,0,3.507-8.2,4.569,4.569,0,0,0-3.431,1.367l-.453-.436a5.242,5.242,0,0,1,3.884-1.56,5.478,5.478,0,0,1,0,10.956,5.422,5.422,0,0,1-3.456-1.226A12.684,12.684,0,0,1,247.743,227.461Z" transform="translate(-226.052 -197.418)" fill="#0c2238"/>
        </g>
        <g id="Group_42012" data-name="Group 42012" transform="translate(247.412 177.626)">
          <path id="Path_303846" data-name="Path 303846" d="M338.352,234.495c-1.642-.8-2.483-.305-2.518-.284l-.416-.459c2.18-2.805,5.649-1.034,5.683-1.016l-.291.557c-.108-.056-2.358-1.2-4.161.123a4.546,4.546,0,0,1,1.978.513Z" transform="translate(-335.418 -232.168)" fill="#0c2238"/>
        </g>
        <g id="Group_42013" data-name="Group 42013" transform="translate(215.923 177.626)">
          <path id="Path_303847" data-name="Path 303847" d="M238,234.494l-.275-.566a4.546,4.546,0,0,1,1.978-.513c-1.8-1.319-4.053-.179-4.161-.123l-.291-.557c.035-.018,3.5-1.789,5.683,1.016l-.419.457C240.487,234.189,239.646,233.7,238,234.494Z" transform="translate(-235.255 -232.167)" fill="#0c2238"/>
        </g>
        <g id="Group_42014" data-name="Group 42014" transform="translate(218.639 152.616)">
          <path id="Path_303848" data-name="Path 303848" d="M272.209,177.218a10.864,10.864,0,0,1-1.911-5.956c-1.943.42-10.676,1.813-15.6-5.733-.805.787-3.234,2.635-7.171,1.166a5.436,5.436,0,0,1-3.361-3.4,5.315,5.315,0,0,1,1.2-5.355,5.667,5.667,0,0,1,5.538-1.638,4.545,4.545,0,0,1,.5.158c1.123-1.078,8.147-7.147,18.4-1.4,4.365,2.446,6.249,7.059,5.449,13.342a32.58,32.58,0,0,1-2.522,8.762Zm-1.693-6.654.4.3a11.082,11.082,0,0,0,1.484,5.508c1.168-2.756,6.068-15.745-2.9-20.767-10.728-6.012-17.722,1.361-17.791,1.436l-.359.074a3.75,3.75,0,0,0-.6-.206,5.036,5.036,0,0,0-4.923,1.457,4.7,4.7,0,0,0-1.062,4.73,4.743,4.743,0,0,0,2.984,3.013c4.431,1.655,6.656-1.16,6.749-1.28l.517.026C260.242,173.357,270.413,170.593,270.516,170.564Z" transform="translate(-243.895 -152.616)" fill="#0c2238"/>
        </g>
        <g id="Group_42015" data-name="Group 42015" transform="translate(220.474 165.806)">
          <path id="Path_303849" data-name="Path 303849" d="M251.233,206.014c-2.652-4.325-.993-11.155-.921-11.444l.61.152c-.017.068-1.666,6.865.847,10.963Z" transform="translate(-249.733 -194.57)" fill="#0c2238"/>
        </g>
        <g id="Group_42016" data-name="Group 42016" transform="translate(228.799 195.099)">
          <path id="Path_303850" data-name="Path 303850" d="M282.234,299.318a10.416,10.416,0,0,1-5.9-1.9l-.119-.247v-9.428h.629v9.271a9.273,9.273,0,0,0,10.687-.01v-9.261h.629v9.428l-.137.26A10.122,10.122,0,0,1,282.234,299.318Z" transform="translate(-276.212 -287.747)" fill="#0c2238"/>
        </g>
        <g id="Group_42017" data-name="Group 42017" transform="translate(235.075 195.138)">
          <path id="Path_303851" data-name="Path 303851" d="M296.177,289.247l5.256,3.436v-4.81a13.567,13.567,0,0,1-2.348.857C298.033,288.968,296.177,289.247,296.177,289.247Z" transform="translate(-296.177 -287.873)" fill="#0c2238"/>
        </g>
        <g id="Group_42018" data-name="Group 42018" transform="translate(207.058 204.212)">
          <path id="Path_303852" data-name="Path 303852" d="M207.518,326.44l-.46-.428a23.546,23.546,0,0,1,4.107-3.473,28.583,28.583,0,0,1,2.75-1.625,41.628,41.628,0,0,1,15.182-4.178l.03.628a40.953,40.953,0,0,0-14.923,4.108,27.993,27.993,0,0,0-2.689,1.589A22.909,22.909,0,0,0,207.518,326.44Z" transform="translate(-207.058 -316.735)" fill="#0c2238"/>
        </g>
        <g id="Group_42019" data-name="Group 42019" transform="translate(240.307 204.213)">
          <path id="Path_303853" data-name="Path 303853" d="M334.306,325.355q-.381-.288-.772-.558a36.885,36.885,0,0,0-6.144-3.481,50.121,50.121,0,0,0-14.572-3.953l.052-.627a50.809,50.809,0,0,1,14.778,4.006,37.5,37.5,0,0,1,6.246,3.539c.265.183.529.374.791.572Z" transform="translate(-312.818 -316.737)" fill="#0c2238"/>
        </g>
        <g id="Group_42020" data-name="Group 42020" transform="translate(244.121 218.412)">
          <path id="Path_303854" data-name="Path 303854" d="M336.444,365.255h-.629v-2.722H325.579v2.722h-.629v-3.037l.314-.314h10.865l.314.314Z" transform="translate(-324.95 -361.904)" fill="#0c2238"/>
        </g>
        <g id="Group_42021" data-name="Group 42021" transform="translate(232.683 181.373)">
          <path id="Path_303855" data-name="Path 303855" d="M292.464,252.544c-2.908,0-3.856-4.235-3.9-4.42l.354-.377a4.29,4.29,0,0,0,4.833-3.661l.617.012c.042.238,1.021,5.859-.479,7.77a1.654,1.654,0,0,1-1.234.67C292.593,252.542,292.528,252.544,292.464,252.544Zm-3.172-4.146c.307,1.029,1.292,3.643,3.328,3.512a1.037,1.037,0,0,0,.779-.43c.863-1.1.76-3.991.543-5.936A4.838,4.838,0,0,1,289.292,248.4Z" transform="translate(-288.568 -244.086)" fill="#0c2238"/>
        </g>
        <g id="Group_42022" data-name="Group 42022" transform="translate(234.75 185.485)">
          <path id="Path_303856" data-name="Path 303856" d="M295.762,260.731l-.621-.1c.376-2.358,3.537-3.419,3.671-3.464l.2.6C298.979,257.775,296.078,258.752,295.762,260.731Z" transform="translate(-295.141 -257.168)" fill="#0c2238"/>
        </g>
        <g id="Group_42023" data-name="Group 42023" transform="translate(233.24 182.174)">
          <path id="Path_303857" data-name="Path 303857" d="M290.338,249.938l.386,1.655,1.35,1.648a3.644,3.644,0,0,1,1.647-2.009c1.309-.752,2.067-1.294,2.067-1.294l-.56-3.3s-1.26,2.474-2.661,2.823S290.338,249.938,290.338,249.938Z" transform="translate(-290.338 -246.634)" fill="#0c2238"/>
        </g>
        <g id="Group_42024" data-name="Group 42024" transform="translate(249.325 217.45)">
          <path id="Path_303858" data-name="Path 303858" d="M345.267,360.806h-3.2l1.034-.711a1.417,1.417,0,0,1,.808-.252,1.432,1.432,0,0,1,1.182.619A1.4,1.4,0,0,1,345.267,360.806Z" transform="translate(-341.892 -359.53)" fill="#6aa8c4"/>
          <path id="Path_303859" data-name="Path 303859" d="M344.879,360.435h-3.2l-.178-.573,1.034-.711a1.727,1.727,0,0,1,.986-.307,1.747,1.747,0,0,1,1.441.755,1.7,1.7,0,0,1,.211.419Zm-2.185-.629h1.629a1.147,1.147,0,0,0-1.429-.138Z" transform="translate(-341.503 -358.844)" fill="#0c2238"/>
        </g>
        <g id="Group_42025" data-name="Group 42025" transform="translate(229.179 164.988)">
          <path id="Path_303860" data-name="Path 303860" d="M280.741,197.518c-2.941-1.688-3.3-5.338-3.318-5.493l.626-.057c0,.035.351,3.482,3,5Z" transform="translate(-277.423 -191.968)" fill="#0c2238"/>
        </g>
        <g id="Group_42027" data-name="Group 42027" transform="translate(218.971 152.921)">
          <path id="Path_303861" data-name="Path 303861" d="M255.682,165.841a6.252,6.252,0,0,1-3.478,1.667c-2.149.27-5.334-.6-6.5-2.55a5.034,5.034,0,0,1,1.363-6.807,5.971,5.971,0,0,1,5.134-.659,15.161,15.161,0,0,1,10.838-3.866c6.37.49,12.911,4.425,12.808,11.782s-2.4,11.97-2.865,12-1.055-2.916-1.055-2.916l-.787-2.046.131-.8-1.574.193a21.225,21.225,0,0,1-6.7-.4c-3.039-.811-6.047-3.755-6.047-3.755Z" transform="translate(-244.952 -153.587)" fill="#0c2238"/>
        </g>
        <g id="Group_42028" data-name="Group 42028" transform="translate(220.664 165.298)">
          <path id="Path_303862" data-name="Path 303862" d="M251.592,192.956s-1.738,1.668-1.122,7.328l1.122,3.786.323-.281.12-4.242.569-2.768,1.893-3.111Z" transform="translate(-250.338 -192.956)" fill="#0c2238"/>
        </g>
      </g>
    </g>
  </g>
</svg>
