<svg xmlns="http://www.w3.org/2000/svg" width="36" height="36" viewBox="0 0 36 36">
  <g id="Group_52991" data-name="Group 52991" transform="translate(-50 -579)">
    <path id="Path_566070" data-name="Path 566070" d="M61.446,237H44.554A9.554,9.554,0,0,1,35,227.446V210.554A9.554,9.554,0,0,1,44.554,201H61.446A9.554,9.554,0,0,1,71,210.554v16.892A9.554,9.554,0,0,1,61.446,237Z" transform="translate(15 378)" fill="#fece11"/>
    <path id="Path_566071" data-name="Path 566071" d="M1,0S2.58,1.859,4.33,1.859,8,0,8,0A1,1,0,0,1,9,1c0,.552-2.92,2.01-4.67,2.01S0,1.552,0,1A1,1,0,0,1,1,0Z" transform="translate(63.5 604)"/>
    <path id="Path_566074" data-name="Path 566074" d="M1,0A2.4,2.4,0,0,0,3.2,1.829C4.95,1.829,8,0,8,0A1,1,0,0,1,9,1c0,.552-3.94,1.813-5.69,1.813S0,1.552,0,1A1,1,0,0,1,1,0Z" transform="translate(71.768 592)"/>
    <path id="Path_566075" data-name="Path 566075" d="M8,0A2.4,2.4,0,0,1,5.8,1.829C4.05,1.829,1,0,1,0A1,1,0,0,0,0,1c0,.552,3.94,1.813,5.69,1.813S9,1.552,9,1A1,1,0,0,0,8,0Z" transform="translate(55.768 592)"/>
    <path id="Path_566072" data-name="Path 566072" d="M.9,1.667a4.621,4.621,0,0,1,2.414-.453C5.066,1.214,8,3.01,8,3.01,8.552,3.01,5.066.233,3.316.233S.35,1.667.9,1.667Z" transform="matrix(0.978, 0.208, -0.208, 0.978, 73.934, 585.118)"/>
    <path id="Path_566073" data-name="Path 566073" d="M.134,1.344A4.621,4.621,0,0,0,2.549,1.8C4.3,1.8,7.232,0,7.232,0,7.785,0,4.3,2.777,2.549,2.777S-.418,1.344.134,1.344Z" transform="matrix(-0.978, 0.208, -0.208, -0.978, 62.768, 588.223)"/>
  </g>
</svg>
