<svg xmlns="http://www.w3.org/2000/svg" width="36" height="36" viewBox="0 0 36 36">
  <g id="Group_52993" data-name="Group 52993" transform="translate(-289 -579)">
    <g id="Group_52517" data-name="Group 52517" transform="translate(-15599 5424)">
      <path id="Path_560037" data-name="Path 560037" d="M331.554,327H314.445A9.445,9.445,0,0,1,305,317.555v-17.11A9.445,9.445,0,0,1,314.445,291h17.109A9.446,9.446,0,0,1,341,300.445v17.11A9.443,9.443,0,0,1,331.554,327Z" transform="translate(15583 -5136)" fill="#5ac8fa"/>
      <path id="Path_560038" data-name="Path 560038" d="M319.19,308.166a.827.827,0,0,1-.587-.243l-4.4-4.4a.8.8,0,0,1-.18-.269.822.822,0,0,1,0-.636.811.811,0,0,1,.18-.269.827.827,0,0,1,.587-.243.819.819,0,0,1,.317.063.835.835,0,0,1,.27.18l4.4,4.4a.83.83,0,0,1-.589,1.418Z" transform="translate(15583 -5136)" fill="#131313"/>
      <path id="Path_560039" data-name="Path 560039" d="M314.791,308.166a.828.828,0,0,1-.318-.063.832.832,0,0,1-.268-1.355l4.4-4.4a.83.83,0,0,1,1.174,1.174l-4.4,4.4A.84.84,0,0,1,314.791,308.166Z" transform="translate(15583 -5136)" fill="#131313"/>
      <path id="Path_560040" data-name="Path 560040" d="M330.812,308.166a.827.827,0,0,1-.587-.243l-4.4-4.4a.815.815,0,0,1-.18-.269.83.83,0,0,1,.767-1.148.819.819,0,0,1,.317.063.835.835,0,0,1,.27.18l4.4,4.4a.831.831,0,0,1,.179.906.828.828,0,0,1-.768.512Z" transform="translate(15583 -5136)" fill="#131313"/>
      <path id="Path_560041" data-name="Path 560041" d="M326.413,308.166a.819.819,0,0,1-.317-.063.831.831,0,0,1-.269-1.355l4.4-4.4a.83.83,0,0,1,1.174,1.174l-4.4,4.4A.84.84,0,0,1,326.413,308.166Z" transform="translate(15583 -5136)" fill="#131313"/>
    </g>
    <path id="Path_566058" data-name="Path 566058" d="M239.138,410.74h-11.8a.675.675,0,0,1,0-1.35h11.8a.676.676,0,0,1,.263.047.678.678,0,0,1,.374.367.666.666,0,0,1,.053.261.674.674,0,0,1-.053.262.682.682,0,0,1-.15.221.665.665,0,0,1-.224.145.676.676,0,0,1-.263.047Z" transform="translate(73.746 190)" fill="#333"/>
  </g>
</svg>
