<svg xmlns="http://www.w3.org/2000/svg" width="36" height="36" viewBox="0 0 36 36">
  <g id="Group_47529" data-name="Group 47529" transform="translate(7011.5 -11079)">
    <path id="Path_559916" data-name="Path 559916" d="M61.446,237H44.554A9.554,9.554,0,0,1,35,227.446V210.554A9.554,9.554,0,0,1,44.554,201H61.446A9.554,9.554,0,0,1,71,210.554v16.892A9.554,9.554,0,0,1,61.446,237Z" transform="translate(-7046.5 10878)" fill="#fece11"/>
    <path id="Path_559917" data-name="Path 559917" d="M60.09,222.979h-2.5v2.157h2.5Z" transform="translate(-7046.5 10878)" fill="#fff"/>
    <path id="Path_559918" data-name="Path 559918" d="M53.174,222.979h-2.5v2.157h2.5Z" transform="translate(-7046.5 10878)" fill="#fff"/>
    <path id="Path_559919" data-name="Path 559919" d="M49.713,219.81h-2.5v2.205h2.5Z" transform="translate(-7046.5 10878)" fill="#fff"/>
    <path id="Path_559920" data-name="Path 559920" d="M49.713,222.979h-2.5v2.157h2.5Z" transform="translate(-7046.5 10878)" fill="#fff"/>
    <path id="Path_559921" data-name="Path 559921" d="M46.254,219.81h-.328a2.641,2.641,0,0,0-2.6,2.205h2.928Z" transform="translate(-7046.5 10878)" fill="#fff"/>
    <path id="Path_559922" data-name="Path 559922" d="M56.631,222.979h-2.5v2.157h2.5Z" transform="translate(-7046.5 10878)" fill="#fff"/>
    <path id="Path_559923" data-name="Path 559923" d="M63.35,222.016a2.634,2.634,0,0,0-2.3-2.185v2.185Z" transform="translate(-7046.5 10878)" fill="#fff"/>
    <path id="Path_559924" data-name="Path 559924" d="M60.09,219.81h-2.5v2.205h2.5Z" transform="translate(-7046.5 10878)" fill="#fff"/>
    <path id="Path_559925" data-name="Path 559925" d="M56.631,219.81h-2.5v2.205h2.5Z" transform="translate(-7046.5 10878)" fill="#fff"/>
    <path id="Path_559926" data-name="Path 559926" d="M61.051,225.117a2.641,2.641,0,0,0,2.292-2.14H61.051Z" transform="translate(-7046.5 10878)" fill="#fff"/>
    <path id="Path_559927" data-name="Path 559927" d="M53.174,219.81h-2.5v2.205h2.5Z" transform="translate(-7046.5 10878)" fill="#fff"/>
    <path id="Path_559928" data-name="Path 559928" d="M43.333,222.979a2.642,2.642,0,0,0,2.593,2.158h.328v-2.158Z" transform="translate(-7046.5 10878)" fill="#fff"/>
    <path id="Path_559929" data-name="Path 559929" d="M60.751,218.847H45.927a3.606,3.606,0,0,0-3.6,3.6v.047a.483.483,0,0,1,.141-.341.487.487,0,0,1,.341-.141h.035a3.118,3.118,0,0,1,3.086-2.686H46.3a.475.475,0,0,1,.177-.2.479.479,0,0,1,.687.2h2.6a.479.479,0,0,1,.864,0h2.6a.479.479,0,0,1,.864,0h2.6a.479.479,0,0,1,.864,0h2.6a.476.476,0,0,1,.18-.2.476.476,0,0,1,.516.008.475.475,0,0,1,.174.205,3.118,3.118,0,0,1,2.832,2.691.478.478,0,0,1-.007.926,3.121,3.121,0,0,1-2.785,2.642.478.478,0,0,1-.953.015H57.594a.478.478,0,0,1-.951,0H54.137a.478.478,0,0,1-.951,0H50.68a.478.478,0,0,1-.951,0H47.223a.478.478,0,0,1-.951,0h-.334a3.12,3.12,0,0,1-3.08-2.639h-.041a.48.48,0,0,1-.482-.482,3.606,3.606,0,0,0,3.6,3.6H60.761a3.606,3.606,0,0,0,3.6-3.6v-.047a3.622,3.622,0,0,0-3.613-3.6Z" transform="translate(-7046.5 10878)" fill="#131313"/>
    <path id="Path_559930" data-name="Path 559930" d="M46.254,225.137h-.328a2.642,2.642,0,0,1-2.593-2.158h-.486a3.117,3.117,0,0,0,3.08,2.639h.335a.414.414,0,0,1,0-.052v-.43Z" transform="translate(-7046.5 10878)" fill="#131313"/>
    <path id="Path_559931" data-name="Path 559931" d="M57.593,219.811h2.5v-.272a.488.488,0,0,1,.05-.21h-2.6a.483.483,0,0,1,.05.21Z" transform="translate(-7046.5 10878)" fill="#131313"/>
    <path id="Path_559932" data-name="Path 559932" d="M45.927,219.811h.328v-.272a.488.488,0,0,1,.05-.21h-.378a3.117,3.117,0,0,0-3.086,2.687h.486a2.639,2.639,0,0,1,2.6-2.205Z" transform="translate(-7046.5 10878)" fill="#131313"/>
    <path id="Path_559933" data-name="Path 559933" d="M54.135,219.811h2.5v-.272a.488.488,0,0,1,.05-.21h-2.6a.481.481,0,0,1,.05.21Z" transform="translate(-7046.5 10878)" fill="#131313"/>
    <path id="Path_559934" data-name="Path 559934" d="M50.677,219.811h2.5v-.272a.487.487,0,0,1,.05-.21h-2.6a.481.481,0,0,1,.05.21Z" transform="translate(-7046.5 10878)" fill="#131313"/>
    <path id="Path_559935" data-name="Path 559935" d="M47.218,219.811h2.5v-.272a.488.488,0,0,1,.05-.21h-2.6a.481.481,0,0,1,.05.21Z" transform="translate(-7046.5 10878)" fill="#131313"/>
    <path id="Path_559936" data-name="Path 559936" d="M61.051,219.828a2.643,2.643,0,0,1,2.3,2.185h.363a.489.489,0,0,1,.126.02,3.115,3.115,0,0,0-2.832-2.691.494.494,0,0,1,.043.2Z" transform="translate(-7046.5 10878)" fill="#131313"/>
    <path id="Path_559937" data-name="Path 559937" d="M63.343,222.979a2.645,2.645,0,0,1-2.292,2.14v.447a.222.222,0,0,1,0,.037,3.119,3.119,0,0,0,2.785-2.642.439.439,0,0,1-.119.018Z" transform="translate(-7046.5 10878)" fill="#131313"/>
    <path id="Path_559938" data-name="Path 559938" d="M53.174,222.5h-2.5v.482h2.5Z" transform="translate(-7046.5 10878)" fill="#131313"/>
    <path id="Path_559939" data-name="Path 559939" d="M49.713,222.5h-2.5v.482h2.5Z" transform="translate(-7046.5 10878)" fill="#131313"/>
    <path id="Path_559940" data-name="Path 559940" d="M61.051,222.5h2.336v-.048a2.6,2.6,0,0,0-.039-.434h-2.3v.482Z" transform="translate(-7046.5 10878)" fill="#131313"/>
    <path id="Path_559941" data-name="Path 559941" d="M56.631,222.5h-2.5v.482h2.5Z" transform="translate(-7046.5 10878)" fill="#131313"/>
    <path id="Path_559942" data-name="Path 559942" d="M60.09,222.016h-2.5v.482h2.5Z" transform="translate(-7046.5 10878)" fill="#131313"/>
    <path id="Path_559943" data-name="Path 559943" d="M61.051,222.979h2.292a2.693,2.693,0,0,0,.046-.481H61.051Z" transform="translate(-7046.5 10878)" fill="#131313"/>
    <path id="Path_559944" data-name="Path 559944" d="M56.631,222.016h-2.5v.482h2.5Z" transform="translate(-7046.5 10878)" fill="#131313"/>
    <path id="Path_559945" data-name="Path 559945" d="M53.174,222.016h-2.5v.482h2.5Z" transform="translate(-7046.5 10878)" fill="#131313"/>
    <path id="Path_559946" data-name="Path 559946" d="M60.09,222.5h-2.5v.482h2.5Z" transform="translate(-7046.5 10878)" fill="#131313"/>
    <path id="Path_559947" data-name="Path 559947" d="M43.332,222.979h2.921V222.5H43.287A2.712,2.712,0,0,0,43.332,222.979Z" transform="translate(-7046.5 10878)" fill="#131313"/>
    <path id="Path_559948" data-name="Path 559948" d="M49.713,222.016h-2.5v.482h2.5Z" transform="translate(-7046.5 10878)" fill="#131313"/>
    <path id="Path_559949" data-name="Path 559949" d="M46.254,222.016H43.326a2.6,2.6,0,0,0-.039.434v.048h2.967Z" transform="translate(-7046.5 10878)" fill="#131313"/>
    <path id="Path_559950" data-name="Path 559950" d="M42.805,222.979h.041a3.193,3.193,0,0,1-.041-.482v-.048a2.889,2.889,0,0,1,.035-.434h-.035a.5.5,0,0,0-.188.033.484.484,0,0,0-.268.262.482.482,0,0,0,.108.532.491.491,0,0,0,.16.1.5.5,0,0,0,.188.033Z" transform="translate(-7046.5 10878)" fill="#131313"/>
    <path id="Path_559951" data-name="Path 559951" d="M63.871,222.5a2.97,2.97,0,0,1-.039.465.477.477,0,0,0,.362-.461.478.478,0,0,0-.356-.465,3.263,3.263,0,0,1,.031.414v.047Z" transform="translate(-7046.5 10878)" fill="#131313"/>
    <path id="Path_559952" data-name="Path 559952" d="M43.288,222.5h-.482a3.191,3.191,0,0,0,.041.481h.486A2.72,2.72,0,0,1,43.288,222.5Z" transform="translate(-7046.5 10878)" fill="#131313"/>
    <path id="Path_559953" data-name="Path 559953" d="M42.806,222.5h.482v-.048a2.591,2.591,0,0,1,.039-.434H42.84a3.167,3.167,0,0,0-.035.434Z" transform="translate(-7046.5 10878)" fill="#131313"/>
    <path id="Path_559954" data-name="Path 559954" d="M63.35,222.015a2.61,2.61,0,0,1,.039.434v.048a2.7,2.7,0,0,1-.046.482h.372a.438.438,0,0,0,.119-.017,3.273,3.273,0,0,0,.039-.465v-.048a3.242,3.242,0,0,0-.031-.415.488.488,0,0,0-.126-.019Z" transform="translate(-7046.5 10878)" fill="#131313"/>
    <path id="Path_559955" data-name="Path 559955" d="M47.217,222.979h-.482v2.157h.482Z" transform="translate(-7046.5 10878)" fill="#131313"/>
    <path id="Path_559956" data-name="Path 559956" d="M46.736,222.979h-.482v2.157h.482Z" transform="translate(-7046.5 10878)" fill="#131313"/>
    <path id="Path_559957" data-name="Path 559957" d="M46.736,219.81h-.482v2.205h.482Z" transform="translate(-7046.5 10878)" fill="#131313"/>
    <path id="Path_559958" data-name="Path 559958" d="M47.217,219.81h-.482v2.205h.482Z" transform="translate(-7046.5 10878)" fill="#131313"/>
    <path id="Path_559959" data-name="Path 559959" d="M46.736,219.057a.482.482,0,0,0-.432.271h.864a.482.482,0,0,0-.432-.271Z" transform="translate(-7046.5 10878)" fill="#131313"/>
    <path id="Path_559960" data-name="Path 559960" d="M46.254,219.811h.965v-.272a.488.488,0,0,0-.05-.21H46.3a.481.481,0,0,0-.05.21Z" transform="translate(-7046.5 10878)" fill="#131313"/>
    <path id="Path_559961" data-name="Path 559961" d="M47.217,222.016h-.482v.482h.482Z" transform="translate(-7046.5 10878)" fill="#131313"/>
    <path id="Path_559962" data-name="Path 559962" d="M46.736,222.5h-.482v.482h.482Z" transform="translate(-7046.5 10878)" fill="#131313"/>
    <path id="Path_559963" data-name="Path 559963" d="M47.217,222.5h-.482v.482h.482Z" transform="translate(-7046.5 10878)" fill="#131313"/>
    <path id="Path_559964" data-name="Path 559964" d="M46.736,222.016h-.482v.482h.482Z" transform="translate(-7046.5 10878)" fill="#131313"/>
    <path id="Path_559965" data-name="Path 559965" d="M50.2,219.81h-.482v2.205H50.2Z" transform="translate(-7046.5 10878)" fill="#131313"/>
    <path id="Path_559966" data-name="Path 559966" d="M50.677,219.81H50.2v2.205h.482Z" transform="translate(-7046.5 10878)" fill="#131313"/>
    <path id="Path_559967" data-name="Path 559967" d="M50.2,222.979h-.482v2.157H50.2Z" transform="translate(-7046.5 10878)" fill="#131313"/>
    <path id="Path_559968" data-name="Path 559968" d="M50.677,222.979H50.2v2.157h.482Z" transform="translate(-7046.5 10878)" fill="#131313"/>
    <path id="Path_559969" data-name="Path 559969" d="M50.2,219.057a.482.482,0,0,0-.432.271h.864a.483.483,0,0,0-.432-.271Z" transform="translate(-7046.5 10878)" fill="#131313"/>
    <path id="Path_559970" data-name="Path 559970" d="M49.713,219.811h.964v-.272a.488.488,0,0,0-.05-.21h-.864a.481.481,0,0,0-.05.21Z" transform="translate(-7046.5 10878)" fill="#131313"/>
    <path id="Path_559971" data-name="Path 559971" d="M50.2,222.016h-.482v.482H50.2Z" transform="translate(-7046.5 10878)" fill="#131313"/>
    <path id="Path_559972" data-name="Path 559972" d="M50.677,222.5H50.2v.482h.482Z" transform="translate(-7046.5 10878)" fill="#131313"/>
    <path id="Path_559973" data-name="Path 559973" d="M50.2,222.5h-.482v.482H50.2Z" transform="translate(-7046.5 10878)" fill="#131313"/>
    <path id="Path_559974" data-name="Path 559974" d="M50.677,222.016H50.2v.482h.482Z" transform="translate(-7046.5 10878)" fill="#131313"/>
    <path id="Path_559975" data-name="Path 559975" d="M53.653,219.81h-.482v2.205h.482Z" transform="translate(-7046.5 10878)" fill="#131313"/>
    <path id="Path_559976" data-name="Path 559976" d="M53.653,222.979h-.482v2.157h.482Z" transform="translate(-7046.5 10878)" fill="#131313"/>
    <path id="Path_559977" data-name="Path 559977" d="M54.135,222.979h-.482v2.157h.482Z" transform="translate(-7046.5 10878)" fill="#131313"/>
    <path id="Path_559978" data-name="Path 559978" d="M54.135,219.81h-.482v2.205h.482Z" transform="translate(-7046.5 10878)" fill="#131313"/>
    <path id="Path_559979" data-name="Path 559979" d="M53.653,219.057a.482.482,0,0,0-.432.271h.864a.482.482,0,0,0-.432-.271Z" transform="translate(-7046.5 10878)" fill="#131313"/>
    <path id="Path_559980" data-name="Path 559980" d="M53.171,219.811h.964v-.272a.488.488,0,0,0-.05-.21h-.864a.481.481,0,0,0-.05.21Z" transform="translate(-7046.5 10878)" fill="#131313"/>
    <path id="Path_559981" data-name="Path 559981" d="M53.653,222.016h-.482v.482h.482Z" transform="translate(-7046.5 10878)" fill="#131313"/>
    <path id="Path_559982" data-name="Path 559982" d="M54.135,222.016h-.482v.482h.482Z" transform="translate(-7046.5 10878)" fill="#131313"/>
    <path id="Path_559983" data-name="Path 559983" d="M53.653,222.5h-.482v.482h.482Z" transform="translate(-7046.5 10878)" fill="#131313"/>
    <path id="Path_559984" data-name="Path 559984" d="M54.135,222.5h-.482v.482h.482Z" transform="translate(-7046.5 10878)" fill="#131313"/>
    <path id="Path_559985" data-name="Path 559985" d="M57.113,222.979h-.482v2.157h.482Z" transform="translate(-7046.5 10878)" fill="#131313"/>
    <path id="Path_559986" data-name="Path 559986" d="M57.594,219.81h-.482v2.205h.482Z" transform="translate(-7046.5 10878)" fill="#131313"/>
    <path id="Path_559987" data-name="Path 559987" d="M57.113,219.81h-.482v2.205h.482Z" transform="translate(-7046.5 10878)" fill="#131313"/>
    <path id="Path_559988" data-name="Path 559988" d="M57.594,222.979h-.482v2.157h.482Z" transform="translate(-7046.5 10878)" fill="#131313"/>
    <path id="Path_559989" data-name="Path 559989" d="M57.112,219.057a.482.482,0,0,0-.432.271h.864a.483.483,0,0,0-.432-.271Z" transform="translate(-7046.5 10878)" fill="#131313"/>
    <path id="Path_559990" data-name="Path 559990" d="M56.631,219.811h.964v-.272a.488.488,0,0,0-.05-.21h-.864a.48.48,0,0,0-.05.21Z" transform="translate(-7046.5 10878)" fill="#131313"/>
    <path id="Path_559991" data-name="Path 559991" d="M57.594,222.5h-.482v.482h.482Z" transform="translate(-7046.5 10878)" fill="#131313"/>
    <path id="Path_559992" data-name="Path 559992" d="M57.113,222.016h-.482v.482h.482Z" transform="translate(-7046.5 10878)" fill="#131313"/>
    <path id="Path_559993" data-name="Path 559993" d="M57.594,222.016h-.482v.482h.482Z" transform="translate(-7046.5 10878)" fill="#131313"/>
    <path id="Path_559994" data-name="Path 559994" d="M57.113,222.5h-.482v.482h.482Z" transform="translate(-7046.5 10878)" fill="#131313"/>
    <path id="Path_559995" data-name="Path 559995" d="M61.051,222.016V219.83a3,3,0,0,0-.3-.018h-.18v2.206h.48Z" transform="translate(-7046.5 10878)" fill="#131313"/>
    <path id="Path_559996" data-name="Path 559996" d="M60.57,222.979h-.482v2.157h.482Z" transform="translate(-7046.5 10878)" fill="#131313"/>
    <path id="Path_559997" data-name="Path 559997" d="M60.57,219.81h-.482v2.205h.482Z" transform="translate(-7046.5 10878)" fill="#131313"/>
    <path id="Path_559998" data-name="Path 559998" d="M60.569,222.979v2.158h.18a3,3,0,0,0,.3-.018v-2.14Z" transform="translate(-7046.5 10878)" fill="#131313"/>
    <path id="Path_559999" data-name="Path 559999" d="M61.008,219.341a.479.479,0,0,0-.69-.212.48.48,0,0,0-.18.2h.612C60.839,219.328,60.924,219.335,61.008,219.341Z" transform="translate(-7046.5 10878)" fill="#131313"/>
    <path id="Path_560000" data-name="Path 560000" d="M60.088,219.81h.662a2.5,2.5,0,0,1,.3.018v-.291a.473.473,0,0,0-.043-.2c-.085-.006-.172-.013-.258-.013h-.612a.489.489,0,0,0-.05.211v.273Z" transform="translate(-7046.5 10878)" fill="#131313"/>
    <path id="Path_560001" data-name="Path 560001" d="M60.57,222.5h-.482v.482h.482Z" transform="translate(-7046.5 10878)" fill="#131313"/>
    <path id="Path_560002" data-name="Path 560002" d="M61.051,222.5h-.482v.482h.482Z" transform="translate(-7046.5 10878)" fill="#131313"/>
    <path id="Path_560003" data-name="Path 560003" d="M60.57,222.016h-.482v.482h.482Z" transform="translate(-7046.5 10878)" fill="#131313"/>
    <path id="Path_560004" data-name="Path 560004" d="M61.051,222.016h-.482v.482h.482Z" transform="translate(-7046.5 10878)" fill="#131313"/>
    <path id="Path_560005" data-name="Path 560005" d="M40.793,215.25a.471.471,0,0,1-.028-.093c-.345-1.938,3.353-2.433,4.54-2.059a5.013,5.013,0,0,1,1.71.939c.189.161,1.4,1.671.527,1.691a.609.609,0,0,1-.35-.145c-.794-.561-1.215-1.392-2.216-1.63a3.208,3.208,0,0,0-3.07.924C41.665,215.142,41.056,215.889,40.793,215.25Z" transform="translate(-7046.5 10878)" fill="#131313"/>
    <path id="Path_560006" data-name="Path 560006" d="M65.205,215.25a.458.458,0,0,0,.028-.093c.345-1.938-3.353-2.433-4.54-2.059a5.013,5.013,0,0,0-1.71.939c-.189.161-1.4,1.671-.527,1.691a.609.609,0,0,0,.35-.145c.794-.561,1.215-1.392,2.216-1.63a3.209,3.209,0,0,1,3.07.924C64.331,215.142,64.943,215.889,65.205,215.25Z" transform="translate(-7046.5 10878)" fill="#131313"/>
  </g>
</svg>
