<svg xmlns="http://www.w3.org/2000/svg" width="36" height="36" viewBox="0 0 36 36">
  <g id="Group_50048" data-name="Group 50048" transform="translate(-69 -467)">
    <path id="Path_560118" data-name="Path 560118" d="M151.554,417H134.445A9.447,9.447,0,0,1,125,407.555v-17.11A9.447,9.447,0,0,1,134.445,381h17.11A9.447,9.447,0,0,1,161,390.445v17.11A9.447,9.447,0,0,1,151.554,417Z" transform="translate(-56 86)" fill="#efcfc5"/>
    <path id="Path_566078" data-name="Path 566078" d="M1.59.819S2.652,2.2,5.4,2.2a5.985,5.985,0,0,0,1.892-.309A2.865,2.865,0,0,0,8.982.6" transform="translate(74.714 479.5)" fill="none" stroke="#000" stroke-linecap="round" stroke-width="1"/>
    <path id="Path_566080" data-name="Path 566080" d="M1.59.819S2.652,2.2,5.4,2.2a5.985,5.985,0,0,0,1.892-.309A2.865,2.865,0,0,0,8.982.6" transform="translate(88.714 479.5)" fill="none" stroke="#000" stroke-linecap="round" stroke-width="1"/>
    <path id="Path_566081" data-name="Path 566081" d="M1.59,1.089a6.035,6.035,0,0,0,5.378,3.06,5.707,5.707,0,0,0,2.669-.687A5.227,5.227,0,0,0,12.018.6" transform="matrix(0.999, 0.035, -0.035, 0.999, 80.282, 489.311)" fill="none" stroke="#000" stroke-linecap="round" stroke-width="1"/>
  </g>
</svg>
