<svg xmlns="http://www.w3.org/2000/svg" width="36" height="36" viewBox="0 0 36 36">
  <g id="Group_52999" data-name="Group 52999" transform="translate(-170 -211)">
    <path id="Path_562645" data-name="Path 562645" d="M151.446,327H134.554A9.553,9.553,0,0,1,125,317.446V300.554A9.553,9.553,0,0,1,134.554,291h16.892A9.553,9.553,0,0,1,161,300.554v16.892A9.553,9.553,0,0,1,151.446,327Z" transform="translate(45 -80)" fill="#fece11"/>
    <path id="Path_562646" data-name="Path 562646" d="M149.317,310.65a1.182,1.182,0,0,1,1.143,1.47,7.884,7.884,0,0,1-14.923,0,1.183,1.183,0,0,1,1.144-1.47Z" transform="translate(45 -76)" fill="#131313"/>
    <path id="Path_562647" data-name="Path 562647" d="M137.228,304.051c.393.668.584,1.63,0,2.138a2.35,2.35,0,0,1-1.832.221,7.816,7.816,0,0,0-4.636.924.942.942,0,0,1-.284.122.527.527,0,0,1-.53-.269.845.845,0,0,1,.289-1.029,2.465,2.465,0,0,1,1.083-.395,11.371,11.371,0,0,1,4.861-.226.473.473,0,0,0,.233.02c.254-.07.186-.454.037-.671a4.337,4.337,0,0,0-2.264-1.506c-.719-.235-2.737-.279-3.182-.914-.586-.835,1.12-1.289,1.71-1.256A6.4,6.4,0,0,1,137.228,304.051Z" transform="translate(45 -76)" fill="#131313"/>
    <path id="Path_562648" data-name="Path 562648" d="M148.772,304.051c-.393.668-.584,1.63,0,2.138a2.351,2.351,0,0,0,1.832.221,7.816,7.816,0,0,1,4.636.924.959.959,0,0,0,.285.122.527.527,0,0,0,.529-.269.845.845,0,0,0-.289-1.029,2.461,2.461,0,0,0-1.082-.395,11.376,11.376,0,0,0-4.862-.226.47.47,0,0,1-.232.02c-.254-.07-.186-.454-.037-.671a4.329,4.329,0,0,1,2.264-1.506c.718-.235,2.736-.279,3.181-.914.586-.835-1.119-1.289-1.71-1.256A6.4,6.4,0,0,0,148.772,304.051Z" transform="translate(45 -76)" fill="#131313"/>
  </g>
</svg>
