<svg xmlns="http://www.w3.org/2000/svg" width="36" height="36" viewBox="0 0 36 36">
  <g id="Group_52989" data-name="Group 52989" transform="translate(-289 -457)">
    <g id="Group_52988" data-name="Group 52988">
      <g id="Group_50050" data-name="Group 50050" transform="translate(220 -10)">
        <path id="Path_560118" data-name="Path 560118" d="M151.554,417H134.445A9.447,9.447,0,0,1,125,407.555v-17.11A9.447,9.447,0,0,1,134.445,381h17.11A9.447,9.447,0,0,1,161,390.445v17.11A9.447,9.447,0,0,1,151.554,417Z" transform="translate(-56 86)" fill="#efcfc5"/>
        <path id="Path_559096" data-name="Path 559096" d="M44.691,576.831c.655,0,1.185-.894,1.185-2s-.531-2-1.185-2-1.185.894-1.185,2S44.037,576.831,44.691,576.831Z" transform="translate(35.979 -92.472)" fill="#131313"/>
        <path id="Path_559097" data-name="Path 559097" d="M58.678,573.9a1.843,1.843,0,0,0-.478.247c-.742.557.064,1.224.584,1.55.565.355,1.481.988,2.185.85a.4.4,0,0,0,.282-.166c.266-.462-.476-.682-.776-.813-.223-.1-.66-.313-.634-.614a.382.382,0,0,1,.125-.229c.442-.429,1.386-.3,1.56-1.019a.312.312,0,0,0,.005-.146.317.317,0,0,0-.062-.134.438.438,0,0,0-.258-.118,3.205,3.205,0,0,0-1.706.319C59.243,573.736,58.951,573.8,58.678,573.9Z" transform="translate(33.979 -92.567)" fill="#131313"/>
        <path id="Path_559098" data-name="Path 559098" d="M49.443,585.13a9.2,9.2,0,0,0,5.4-1.189,6.657,6.657,0,0,0,1.22-.952,5.68,5.68,0,0,0,.474-.524c.11-.141.393-.664.608-.371.2.268-.253.884-.393,1.107a6.216,6.216,0,0,1-3.982,2.623,9.372,9.372,0,0,1-2.6.17c-.411-.029-.819-.082-1.227-.142a2.2,2.2,0,0,1-1.014-.292.258.258,0,0,1-.109-.2.256.256,0,0,1,.022-.115.26.26,0,0,1,.071-.094.8.8,0,0,1,.287-.124.784.784,0,0,1,.313,0C48.828,585.054,49.132,585.107,49.443,585.13Z" transform="translate(35.502 -92.383)" fill="#131313"/>
      </g>
      <path id="Path_566076" data-name="Path 566076" d="M5.039-4.054C8.348-4.094,9.621-.648,9.621-.428a.374.374,0,0,1-.344.4A4.43,4.43,0,0,0,5.039-3.184,5.547,5.547,0,0,0,.344-.03.374.374,0,0,1,0-.428C0-.648,1.729-4.015,5.039-4.054Z" transform="translate(295.797 469.515)"/>
    </g>
    <path id="Path_566077" data-name="Path 566077" d="M5.976.944A7.879,7.879,0,0,0,10.981-1.81c.071-.214-.219-.314-.425-.34s-.4.239-.4.239S9.138-.474,6.1-.046,2.328-.538,2.086-.538s-.2.018-.2.28S2.9,1.384,5.976.944Z" transform="translate(307.168 468.813) rotate(-7)"/>
  </g>
</svg>
