<svg xmlns="http://www.w3.org/2000/svg" width="36" height="36" viewBox="0 0 36 36">
  <g id="Group_50067" data-name="Group 50067" transform="translate(-69 -467)">
    <path id="Path_560118" data-name="Path 560118" d="M151.554,417H134.445A9.447,9.447,0,0,1,125,407.555v-17.11A9.447,9.447,0,0,1,134.445,381h17.11A9.447,9.447,0,0,1,161,390.445v17.11A9.447,9.447,0,0,1,151.554,417Z" transform="translate(-56 86)" fill="#efcfc5"/>
    <path id="Path_560119" data-name="Path 560119" d="M132.426,401.706a2.238,2.238,0,1,0-2.567,1.85A2.238,2.238,0,0,0,132.426,401.706Z" transform="translate(-56 86)" fill="#f38db3"/>
    <path id="Path_560120" data-name="Path 560120" d="M157.365,402.93a2.238,2.238,0,1,0-3.164,0A2.238,2.238,0,0,0,157.365,402.93Z" transform="translate(-56 86)" fill="#f38db3"/>
    <path id="Path_560121" data-name="Path 560121" d="M147.487,401.949a1.616,1.616,0,0,1,1.443,2.337,6.834,6.834,0,0,1-11.863,0,1.615,1.615,0,0,1,1.443-2.338Z" transform="translate(-56 86)" fill="#131313"/>
    <path id="Path_560122" data-name="Path 560122" d="M133.779,397.141a7.266,7.266,0,0,1-.55-.5c-.751-.762-1.649-2.015-1.284-3.143a1.972,1.972,0,0,1,2.129-1.076,3.528,3.528,0,0,1,1.291.356,4.347,4.347,0,0,1,.487.256.226.226,0,0,0,.116.036.233.233,0,0,0,.209-.109.231.231,0,0,0,.037-.116,2.193,2.193,0,0,1,.981-1.906,1.7,1.7,0,0,1,2.09.456,3.376,3.376,0,0,1,.423,3.4,14.877,14.877,0,0,1-.963,2.342,5.819,5.819,0,0,1-.7,1.213,1.624,1.624,0,0,1-2,.161A9.689,9.689,0,0,1,133.779,397.141Z" transform="translate(-56 86)" fill="#ed1c24"/>
    <path id="Path_560123" data-name="Path 560123" d="M152.218,397.141a7.063,7.063,0,0,0,.549-.5c.751-.762,1.649-2.015,1.285-3.143a1.973,1.973,0,0,0-2.129-1.076,3.528,3.528,0,0,0-1.292.356,4.333,4.333,0,0,0-.486.256.23.23,0,0,1-.117.036.235.235,0,0,1-.119-.026.232.232,0,0,1-.09-.083.241.241,0,0,1-.037-.116,2.19,2.19,0,0,0-.98-1.906,1.7,1.7,0,0,0-2.091.456,3.376,3.376,0,0,0-.423,3.4,14.789,14.789,0,0,0,.964,2.342,5.732,5.732,0,0,0,.7,1.213,1.623,1.623,0,0,0,2,.161A9.73,9.73,0,0,0,152.218,397.141Z" transform="translate(-56 86)" fill="#ed1c24"/>
  </g>
</svg>
