<svg xmlns="http://www.w3.org/2000/svg" width="36" height="36" viewBox="0 0 36 36">
  <g id="Group_47529" data-name="Group 47529" transform="translate(7011.5 -11079)">
    <path id="Path_559916" data-name="Path 559916" d="M61.446,237H44.554A9.554,9.554,0,0,1,35,227.446V210.554A9.554,9.554,0,0,1,44.554,201H61.446A9.554,9.554,0,0,1,71,210.554v16.892A9.554,9.554,0,0,1,61.446,237Z" transform="translate(-7046.5 10878)" fill="#fece11"/>
    <ellipse id="Ellipse_4077" data-name="Ellipse 4077" cx="2" cy="4" rx="2" ry="4" transform="translate(-6988.446 11089.76) rotate(8)"/>
    <ellipse id="Ellipse_4078" data-name="Ellipse 4078" cx="2" cy="4" rx="2" ry="4" transform="translate(-6996.485 11097.683) rotate(172)"/>
    <ellipse id="Ellipse_4079" data-name="Ellipse 4079" cx="0.5" cy="1.5" rx="0.5" ry="1.5" transform="matrix(-0.966, 0.259, -0.259, -0.966, -6997.629, 11093.911)" fill="#f4f6f8"/>
    <ellipse id="Ellipse_4080" data-name="Ellipse 4080" cx="0.5" cy="1.5" rx="0.5" ry="1.5" transform="translate(-6986.813 11091.042) rotate(7)" fill="#f4f6f8"/>
    <path id="Path_566054" data-name="Path 566054" d="M5.039-4.054C8.348-4.094,9.621-.648,9.621-.428a.374.374,0,0,1-.344.4A4.43,4.43,0,0,0,5.039-3.184,5.547,5.547,0,0,0,.344-.03.374.374,0,0,1,0-.428C0-.648,1.729-4.015,5.039-4.054Z" transform="translate(-7004.704 11088.515)"/>
    <path id="Path_566055" data-name="Path 566055" d="M5.976.944A7.879,7.879,0,0,0,10.981-1.81c.071-.214-.219-.314-.425-.34s-.4.239-.4.239S9.138-.474,6.1-.046,2.328-.538,2.086-.538s-.2.018-.2.28S2.9,1.384,5.976.944Z" transform="translate(-6993.332 11088.968) rotate(-7)"/>
    <path id="Path_566056" data-name="Path 566056" d="M8.777,2.639a13.506,13.506,0,0,0,8.432-4.262c.12-.331-.369-.487-.716-.526s-.673.369-.673.369-1.906,2.934-7.029,3.6S2.632.344,2.224.344s-.336.028-.336.433S3.6,3.319,8.777,2.639Z" transform="matrix(1, -0.017, 0.017, 1, -7002.526, 11104.992)"/>
    <path id="Path_566064" data-name="Path 566064" d="M3.557-.663A3.187,3.187,0,0,0,5.6-1.987c.029-.1-.09-.151-.174-.163s-.163.115-.163.115A2.368,2.368,0,0,1,3.561-.918a1.535,1.535,0,0,1-1.594-.457c-.1,0-.082.009-.082.134S2.3-.452,3.557-.663Z" transform="translate(-6982.178 11104.847) rotate(-137)"/>
    <path id="Path_566057" data-name="Path 566057" d="M3.175-.676a3.58,3.58,0,0,0,1.787-.985l-.059-.2c-.065-.013-.22.148-.22.148a3.353,3.353,0,0,1-1.505.766,5.864,5.864,0,0,1-1.3.217c-.076,0-.017.04-.017.175S2.207-.448,3.175-.676Z" transform="translate(-6993.451 11109.077) rotate(-3)"/>
  </g>
</svg>
