<svg xmlns="http://www.w3.org/2000/svg" width="36" height="36" viewBox="0 0 36 36">
  <g id="Group_52984" data-name="Group 52984" transform="translate(-292 -213)">
    <path id="Path_560067" data-name="Path 560067" d="M331.555,417H314.447A9.447,9.447,0,0,1,305,407.555v-17.11A9.447,9.447,0,0,1,314.447,381h17.108A9.445,9.445,0,0,1,341,390.445v17.11A9.445,9.445,0,0,1,331.555,417Z" transform="translate(-13 -168)" fill="#fece11"/>
    <path id="Path_560068" data-name="Path 560068" d="M331.276,392.837h-3.87a2.972,2.972,0,0,0-2.971,2.889h-2.9a2.973,2.973,0,0,0-2.971-2.889H314.7a2.977,2.977,0,0,0-2.977,2.978v2.135a2.974,2.974,0,0,0,2.977,2.977h3.869a2.974,2.974,0,0,0,2.977-2.977v-.779h2.889v.779a2.974,2.974,0,0,0,2.977,2.977h3.867a2.977,2.977,0,0,0,2.977-2.977v-2.135a2.977,2.977,0,0,0-2.977-2.978Z" transform="translate(-13 -168)" fill="#131313"/>
    <path id="Path_560069" data-name="Path 560069" d="M312.448,393.666l-.352-.111a.509.509,0,0,0-.366.023.5.5,0,0,0-.254.264l-.352.825a.494.494,0,0,0-.041.2.518.518,0,0,0,.039.2.532.532,0,0,0,.114.167.5.5,0,0,0,.17.109l.358.142a.511.511,0,0,0,.388-.008.506.506,0,0,0,.27-.277l.345-.855a.509.509,0,0,0-.013-.407.523.523,0,0,0-.125-.166A.516.516,0,0,0,312.448,393.666Z" transform="translate(-13 -168)" fill="#131313"/>
    <path id="Path_560070" data-name="Path 560070" d="M333.647,393.666l.352-.111a.509.509,0,0,1,.366.023.5.5,0,0,1,.254.264l.352.825a.531.531,0,0,1,.041.2.509.509,0,0,1-.154.365.476.476,0,0,1-.17.109l-.358.142a.51.51,0,0,1-.657-.285l-.346-.855a.513.513,0,0,1-.036-.205.5.5,0,0,1,.049-.2.513.513,0,0,1,.307-.268Z" transform="translate(-13 -168)" fill="#131313"/>
    <path id="Path_560071" data-name="Path 560071" d="M311.474,393.84,305,390.624v1.445l6.122,2.6Z" transform="translate(-13 -168)" fill="#131313"/>
    <path id="Path_560072" data-name="Path 560072" d="M334.476,393.84,341,390.652V392.1l-6.171,2.568Z" transform="translate(-13 -168)" fill="#131313"/>
    <path id="Path_560073" data-name="Path 560073" d="M319.233,406.274c.555.007,1.111.035,1.653.044a33.806,33.806,0,0,0,5.793-.315,9.348,9.348,0,0,0,3.2-.862c.586-.343,1.086-.794,1.635-1.187.3-.217.978-.777,1.38-.5.132.091.126.286.095.445a6.871,6.871,0,0,1-2.161,3.494,7.854,7.854,0,0,1-3.119,1.96,15.786,15.786,0,0,1-4.423.608,10.391,10.391,0,0,1-4.835-.762,4.148,4.148,0,0,1-.97-.686,1.944,1.944,0,0,1-.532-.935,1.061,1.061,0,0,1-.021-.462,1.043,1.043,0,0,1,.182-.426,1.241,1.241,0,0,1,.887-.388C318.4,406.272,318.824,406.27,319.233,406.274Z" transform="translate(-13 -168)" fill="#131313"/>
  </g>
</svg>
