<svg xmlns="http://www.w3.org/2000/svg" width="36" height="36" viewBox="0 0 36 36">
  <g id="Group_52987" data-name="Group 52987" transform="translate(-50 -457)">
    <g id="Group_52986" data-name="Group 52986">
      <g id="Group_50047" data-name="Group 50047" transform="translate(-19 -10)">
        <path id="Path_560118" data-name="Path 560118" d="M151.554,417H134.445A9.447,9.447,0,0,1,125,407.555v-17.11A9.447,9.447,0,0,1,134.445,381h17.11A9.447,9.447,0,0,1,161,390.445v17.11A9.447,9.447,0,0,1,151.554,417Z" transform="translate(-56 86)" fill="#efcfc5"/>
        <path id="Path_560121" data-name="Path 560121" d="M145.762,401.949a1.11,1.11,0,0,1,.657.225,1.589,1.589,0,0,1,.491.615,2.178,2.178,0,0,1,.2.852,2.229,2.229,0,0,1-.141.871,5.154,5.154,0,0,1-9.931,0,2.25,2.25,0,0,1-.142-.872,2.183,2.183,0,0,1,.2-.851,1.617,1.617,0,0,1,.491-.616,1.12,1.12,0,0,1,.658-.225Z" transform="translate(-55.004 86.443)" fill="#131313"/>
      </g>
      <path id="Path_566068" data-name="Path 566068" d="M138.684,487.57a2.291,2.291,0,0,1,.6.313c.937.7-.08,1.545-.738,1.957-.712.45-1.87,1.248-2.758,1.075a.509.509,0,0,1-.356-.211c-.336-.584.6-.861.98-1.026.282-.122.834-.4.8-.776a.478.478,0,0,0-.159-.288c-.558-.543-1.75-.385-1.97-1.287a.4.4,0,0,1-.006-.186.393.393,0,0,1,.078-.168.548.548,0,0,1,.325-.15,4.047,4.047,0,0,1,2.155.4C137.97,487.362,138.339,487.446,138.684,487.57Z" transform="matrix(0.998, 0.07, -0.07, 0.998, -41.039, -27.324)" fill="#131313"/>
    </g>
    <path id="Path_560058" data-name="Path 560058" d="M48.466,303.106a2.295,2.295,0,1,0-2.633,1.9A2.3,2.3,0,0,0,48.466,303.106Z" transform="translate(28.045 167.127)" fill="#131313"/>
  </g>
</svg>
