<svg xmlns="http://www.w3.org/2000/svg" width="150" height="150" viewBox="0 0 150 150">
  <g id="Group_51707" data-name="Group 51707" transform="translate(-0.761 0.114)">
    <g id="Group_51677" data-name="Group 51677" transform="translate(0.761 -0.114)">
      <g id="Group_51676" data-name="Group 51676">
        <circle id="Ellipse_3944" data-name="Ellipse 3944" cx="75" cy="75" r="75" fill="#5b7c99"/>
      </g>
    </g>
    <g id="Group_51679" data-name="Group 51679" transform="translate(65.065 59.081)">
      <g id="Group_51678" data-name="Group 51678">
        <path id="Path_563956" data-name="Path 563956" d="M1213.068,1184.9a1.908,1.908,0,0,0-.932,2.274c1.928,5.742,5.984,9.549,9.94,8.879,4.678-.792,7.438-7.534,6.165-15.059a21.049,21.049,0,0,0-1.676-5.428,1.923,1.923,0,0,0-3.3-.272C1220.454,1179.211,1217.282,1182.646,1213.068,1184.9Z" transform="translate(-1212.041 -1174.483)" fill="#fff"/>
      </g>
    </g>
    <g id="Group_51681" data-name="Group 51681" transform="translate(97.901 55.552)">
      <g id="Group_51680" data-name="Group 51680">
        <path id="Path_563957" data-name="Path 563957" d="M1312.693,1171.316a1.907,1.907,0,0,1,1.628,1.84c.068,6.057-2.509,10.985-6.465,11.655-4.678.791-9.5-4.667-10.776-12.193a21.046,21.046,0,0,1-.2-5.677,1.923,1.923,0,0,1,3.024-1.342C1303.848,1168.375,1307.973,1170.574,1312.693,1171.316Z" transform="translate(-1296.772 -1165.244)" fill="#fff"/>
      </g>
    </g>
    <g id="Group_51684" data-name="Group 51684" transform="translate(105.887 69.792)">
      <g id="Group_51683" data-name="Group 51683">
        <g id="Group_51682" data-name="Group 51682">
          <path id="Path_563958" data-name="Path 563958" d="M1321.514,1208.367c2.763,0,2.769-4.3,0-4.3s-2.768,4.3,0,4.3Z" transform="translate(-1319.44 -1204.072)" fill="#363636"/>
        </g>
      </g>
    </g>
    <g id="Group_51687" data-name="Group 51687" transform="translate(74.268 73.609)">
      <g id="Group_51686" data-name="Group 51686">
        <g id="Group_51685" data-name="Group 51685">
          <path id="Path_563959" data-name="Path 563959" d="M1239.22,1218.557c2.764,0,2.769-4.3,0-4.3s-2.768,4.3,0,4.3Z" transform="translate(-1237.146 -1214.262)" fill="#363636"/>
        </g>
      </g>
    </g>
    <g id="Group_51689" data-name="Group 51689" transform="translate(78.434 90.749)">
      <g id="Group_51688" data-name="Group 51688">
        <path id="Path_563960" data-name="Path 563960" d="M1284.844,1275.629a114.221,114.221,0,0,0-12.948,1.782c-7.473,1.74-16.456,7.369-22.526,10.587a32.918,32.918,0,0,1-4.18,1.95c-1.17.412-2.015.5-2.448.133-2.391-2.047-.487-5.591-.487-5.591s3.093-23.929,15.4-26.688,24.748,4.613,30.554,12a7.535,7.535,0,0,1,1.6,2.855C1290.2,1274.581,1288.177,1275.207,1284.844,1275.629Z" transform="translate(-1241.536 -1257.212)" fill="#363636"/>
      </g>
    </g>
    <g id="Group_51691" data-name="Group 51691" transform="translate(86.081 100.466)">
      <g id="Group_51690" data-name="Group 51690">
        <path id="Path_563961" data-name="Path 563961" d="M1298.9,1293.031a114.11,114.11,0,0,0-12.948,1.782c-7.473,1.739-16.457,7.369-22.527,10.587,1.682-6.164,3.88-15.447,8.45-17.194a8.455,8.455,0,0,1,7.068.981,9.568,9.568,0,0,1,7.162-4.839C1289.228,1283.819,1293.623,1289.288,1298.9,1293.031Z" transform="translate(-1263.423 -1284.313)" fill="#ba4634"/>
      </g>
    </g>
    <g id="Group_51694" data-name="Group 51694" transform="translate(75.992 75.311)">
      <g id="Group_51693" data-name="Group 51693">
        <g id="Group_51692" data-name="Group 51692">
          <path id="Path_563962" data-name="Path 563962" d="M1243.051,1219.164a.3.3,0,0,1-.088.021l.285-.038a.318.318,0,0,1-.09,0l.286.039a.39.39,0,0,1-.087-.027l.256.108c-.066-.038-.055-.027.033.034a.56.56,0,0,1,.189.2l.108.257-.017-.042a1.243,1.243,0,0,0-.386-.558,1.028,1.028,0,0,0-.65-.23,1.273,1.273,0,0,0-.542.146,1.063,1.063,0,0,0-.494.642c-.016.117-.033.234-.049.352a1.232,1.232,0,0,0,.054.7.979.979,0,0,0,.439.513,1.415,1.415,0,0,0,.807.153,1.206,1.206,0,0,0,.552-.2,1.458,1.458,0,0,0,.459-.489,1.375,1.375,0,0,0,.115-.952,1.073,1.073,0,0,0-.493-.641,1.073,1.073,0,0,0-1.469.385,1.233,1.233,0,0,0-.109.828l.007.042-.038-.285,0,.042.038-.286-.011.041.109-.257q-.079.147.13-.108.254-.212.11-.125l.257-.108a.286.286,0,0,1-.082.023l.286-.038h-.042l.286.038-.041-.008.256.109-.039-.018.493,1.212.049-.351h-2.071a1.537,1.537,0,0,0,.674.836,1.423,1.423,0,0,0,1.093.119,1.074,1.074,0,1,0-.571-2.07Z" transform="translate(-1241.782 -1218.92)" fill="#363636"/>
        </g>
      </g>
    </g>
    <g id="Group_51697" data-name="Group 51697" transform="translate(107.109 71.429)">
      <g id="Group_51696" data-name="Group 51696">
        <g id="Group_51695" data-name="Group 51695">
          <path id="Path_563963" data-name="Path 563963" d="M1323.562,1209.144l-.243.315a1.127,1.127,0,0,0-.276,1.043,1.09,1.09,0,0,0,.749.751,1.412,1.412,0,0,0,1.7-.948,1.339,1.339,0,0,0-.882-1.725,1.447,1.447,0,0,0-1.681.838,1.365,1.365,0,0,0,.043,1.168,1.113,1.113,0,0,0,.945.566c.1.01.2.016.3.024a1.079,1.079,0,0,0,1.073-1.074,1.1,1.1,0,0,0-1.073-1.073l-.3-.024.927.532-.018-.035.108.256a.23.23,0,0,1-.017-.071c.013.095.026.19.038.286v-.036q-.019.143-.038.286a.389.389,0,0,1,.028-.1l-.108.256c.071-.133-.195.2-.078.1-.04.035-.25.16-.088.085l-.257.108a.306.306,0,0,1,.071-.02l-.285.038a.346.346,0,0,1,.072,0l-.285-.038a.229.229,0,0,1,.07.017l-.256-.109q.143.078-.119-.137c-.145-.174-.19-.215-.136-.124-.036-.085-.072-.172-.109-.257a.222.222,0,0,1,.02.066c-.013-.095-.025-.191-.038-.286a.451.451,0,0,1,0,.106l.039-.286a.587.587,0,0,1-.033.1l.108-.257c-.059.111-.1.068.083-.1.034-.03.258-.16.1-.09l.256-.108a.244.244,0,0,1-.066.015l.285-.038h-.035l.286.038a.254.254,0,0,1-.071-.015l.474,1.794c.081-.1.162-.209.243-.314a1.169,1.169,0,0,0,.314-.759,1.091,1.091,0,0,0-.314-.759,1.078,1.078,0,0,0-.759-.314,1.034,1.034,0,0,0-.76.314Z" transform="translate(-1322.814 -1208.536)" fill="#363636"/>
        </g>
      </g>
    </g>
  </g>
</svg>
