<svg xmlns="http://www.w3.org/2000/svg" width="150" height="150" viewBox="0 0 150 150">
  <g id="Group_51705" data-name="Group 51705" transform="translate(0.011 0.248)">
    <g id="Group_51604" data-name="Group 51604" transform="translate(-0.01 -0.248)">
      <g id="Group_51603" data-name="Group 51603" transform="translate(0 0)">
        <circle id="Ellipse_3941" data-name="Ellipse 3941" cx="75" cy="75" r="75" transform="translate(-0.001 0)" fill="#77759c"/>
      </g>
    </g>
    <g id="Group_51607" data-name="Group 51607" transform="translate(52.641 104.46)">
      <g id="Group_51606" data-name="Group 51606">
        <g id="Group_51605" data-name="Group 51605">
          <path id="Path_563935" data-name="Path 563935" d="M1172.263,363.469a27.852,27.852,0,0,0,19.329,15.922,26.9,26.9,0,0,0,23.95-6.7,27.243,27.243,0,0,0,7.64-12.1c.59-1.93-2.429-2.755-3.017-.832-2.863,9.359-11.786,16.614-21.634,17.127a24.737,24.737,0,0,1-23.567-14.993c-.784-1.848-3.481-.255-2.7,1.58Z" transform="translate(-1172.124 -358.661)" fill="#363636"/>
        </g>
      </g>
    </g>
    <g id="Group_51610" data-name="Group 51610" transform="translate(63.699 83.512)">
      <g id="Group_51609" data-name="Group 51609" opacity="0.71">
        <g id="Group_51608" data-name="Group 51608">
          <path id="Path_563936" data-name="Path 563936" d="M1216.7,312.409c0,4.736-2.257,8.434-5.2,8.434s-5.33-3.839-5.33-8.574,2.386-8.574,5.33-8.574S1216.7,307.673,1216.7,312.409Z" transform="translate(-1206.166 -303.694)" fill="#fff"/>
        </g>
      </g>
    </g>
    <g id="Group_51613" data-name="Group 51613" transform="translate(67.096 96.141)">
      <g id="Group_51612" data-name="Group 51612">
        <g id="Group_51611" data-name="Group 51611">
          <path id="Path_563937" data-name="Path 563937" d="M1217.874,343.307c2.684,0,2.689-4.172,0-4.172s-2.689,4.172,0,4.172Z" transform="translate(-1215.858 -339.135)" fill="#363636"/>
        </g>
      </g>
    </g>
    <g id="Group_51615" data-name="Group 51615" transform="translate(68.344 97.989)">
      <g id="Group_51614" data-name="Group 51614">
        <path id="Path_563938" data-name="Path 563938" d="M1220.394,346.444a1.044,1.044,0,0,0,0-2.086,1.044,1.044,0,0,0,0,2.086Z" transform="translate(-1219.387 -344.358)" fill="#363636"/>
      </g>
    </g>
    <g id="Group_51618" data-name="Group 51618" transform="translate(79.431 83.512)">
      <g id="Group_51617" data-name="Group 51617" opacity="0.71">
        <g id="Group_51616" data-name="Group 51616">
          <path id="Path_563939" data-name="Path 563939" d="M1258.7,312.409c0,4.736-2.257,8.434-5.2,8.434s-5.33-3.839-5.33-8.574,2.386-8.574,5.33-8.574S1258.7,307.673,1258.7,312.409Z" transform="translate(-1248.166 -303.694)" fill="#fff"/>
        </g>
      </g>
    </g>
    <g id="Group_51621" data-name="Group 51621" transform="translate(82.774 96.141)">
      <g id="Group_51620" data-name="Group 51620">
        <g id="Group_51619" data-name="Group 51619">
          <path id="Path_563940" data-name="Path 563940" d="M1259.873,343.307c2.685,0,2.689-4.172,0-4.172s-2.689,4.172,0,4.172Z" transform="translate(-1257.858 -339.135)" fill="#363636"/>
        </g>
      </g>
    </g>
    <g id="Group_51623" data-name="Group 51623" transform="translate(84.006 97.989)">
      <g id="Group_51622" data-name="Group 51622">
        <path id="Path_563941" data-name="Path 563941" d="M1262.395,346.444a1.044,1.044,0,0,0,0-2.086,1.044,1.044,0,0,0,0,2.086Z" transform="translate(-1261.387 -344.358)" fill="#363636"/>
      </g>
    </g>
  </g>
</svg>
