<svg xmlns="http://www.w3.org/2000/svg" width="150" height="150" viewBox="0 0 150 150">
  <g id="Group_51704" data-name="Group 51704" transform="translate(0 0.009)">
    <g id="Group_51626" data-name="Group 51626" transform="translate(0 -0.009)">
      <g id="Group_51625" data-name="Group 51625">
        <circle id="Ellipse_3942" data-name="Ellipse 3942" cx="75" cy="75" r="75" fill="#f0b99f"/>
      </g>
    </g>
    <g id="Group_51628" data-name="Group 51628" transform="translate(23.304 69.7)">
      <g id="Group_51627" data-name="Group 51627">
        <path id="Path_563942" data-name="Path 563942" d="M2815.132,1572.073a9.527,9.527,0,0,0-11.6-1.943,11.231,11.231,0,0,0-5.6,11.385,1.657,1.657,0,0,0,.874,1.292,1.566,1.566,0,0,0,2.667-.085c1.09-2.073,2.277-4.54,4.451-5.675,2.242-1.171,4.459-.483,6.345.94,1.52,1.146,3.755,1.394,4.54-.761C2817.471,1575.416,2816.286,1573.39,2815.132,1572.073Z" transform="translate(-2797.848 -1568.986)" fill="#363636"/>
      </g>
    </g>
    <g id="Group_51630" data-name="Group 51630" transform="translate(58.783 72.153)">
      <g id="Group_51629" data-name="Group 51629">
        <path id="Path_563943" data-name="Path 563943" d="M2912.2,1583.972a9.526,9.526,0,0,0-8.183-8.445,11.232,11.232,0,0,0-11.263,5.841,1.661,1.661,0,0,0-.064,1.559,1.567,1.567,0,0,0,2.2,1.514c2.107-1.022,4.528-2.3,6.951-1.927,2.5.387,3.876,2.257,4.549,4.521.544,1.823,2.2,3.35,4.106,2.082C2912.1,1588.051,2912.345,1585.716,2912.2,1583.972Z" transform="translate(-2892.524 -1575.408)" fill="#363636"/>
      </g>
    </g>
    <g id="Group_51632" data-name="Group 51632" transform="translate(69.312 58.012)">
      <g id="Group_51631" data-name="Group 51631">
        <path id="Path_563944" data-name="Path 563944" d="M2922.17,1541.378c3.835.5,5.715,4.264,7.262,7.365s3.206,6.164,6.219,8.04c1.739,1.082,3.654-1.487,1.9-2.579-3.594-2.237-4.795-6.414-6.85-9.879-1.837-3.1-4.5-5.654-8.193-6.134-2.045-.266-2.388,2.92-.34,3.186Z" transform="translate(-2920.794 -1538.176)" fill="#363636"/>
      </g>
    </g>
    <g id="Group_51634" data-name="Group 51634" transform="translate(15.028 56.387)">
      <g id="Group_51633" data-name="Group 51633">
        <path id="Path_563945" data-name="Path 563945" d="M2792.734,1533.935c-3.542.562-6.116,3.29-7.783,6.305-1.892,3.417-2.933,7.73-6.363,10-1.711,1.134-.108,3.909,1.616,2.766,3.075-2.036,4.662-5.153,6.167-8.41s3.291-6.953,7.214-7.575c2.031-.321,1.169-3.409-.851-3.089Z" transform="translate(-2777.856 -1533.912)" fill="#363636"/>
      </g>
    </g>
    <g id="Group_51649" data-name="Group 51649" transform="translate(26.021 96.171)">
      <g id="Group_51636" data-name="Group 51636">
        <g id="Group_51635" data-name="Group 51635">
          <path id="Path_563946" data-name="Path 563946" d="M2840.979,1660.956l-32.1-3.256c-2.3-.234-4.376-3.233-4.789-6.753l-.094-.806c-.426-3.617.98-6.967,3.319-7.4l33.625-6.263c7.271-1.354,13.948,3.811,13.641,11.374l-.068,1.66A12.25,12.25,0,0,1,2840.979,1660.956Z" transform="translate(-2803.92 -1636.261)" fill="#fff"/>
        </g>
      </g>
      <g id="Group_51638" data-name="Group 51638" transform="translate(0.031 10.773)">
        <g id="Group_51637" data-name="Group 51637" transform="translate(0 0)">
          <rect id="Rectangle_23823" data-name="Rectangle 23823" width="50.694" height="0.712" transform="translate(0 2.524) rotate(-2.854)" fill="#3b3b3b"/>
        </g>
      </g>
      <g id="Group_51640" data-name="Group 51640" transform="translate(14.941 4.238)">
        <g id="Group_51639" data-name="Group 51639" transform="translate(0 0)">
          <rect id="Rectangle_23824" data-name="Rectangle 23824" width="0.712" height="18.393" transform="matrix(0.998, -0.068, 0.068, 0.998, 0, 0.048)" fill="#3b3b3b"/>
        </g>
      </g>
      <g id="Group_51642" data-name="Group 51642" transform="translate(24.152 2.532)">
        <g id="Group_51641" data-name="Group 51641" transform="translate(0 0)">
          <rect id="Rectangle_23825" data-name="Rectangle 23825" width="0.712" height="20.975" transform="translate(0 0.028) rotate(-2.26)" fill="#3b3b3b"/>
        </g>
      </g>
      <g id="Group_51644" data-name="Group 51644" transform="translate(37.665 0.026)">
        <g id="Group_51643" data-name="Group 51643">
          <rect id="Rectangle_23826" data-name="Rectangle 23826" width="0.712" height="24.764" fill="#3b3b3b"/>
        </g>
      </g>
      <g id="Group_51646" data-name="Group 51646" transform="translate(8.5 5.431)">
        <g id="Group_51645" data-name="Group 51645" transform="translate(0 0)">
          <rect id="Rectangle_23827" data-name="Rectangle 23827" width="0.712" height="16.581" transform="translate(0 0.062) rotate(-5.005)" fill="#3b3b3b"/>
        </g>
      </g>
      <g id="Group_51648" data-name="Group 51648" transform="translate(2.959 6.456)">
        <g id="Group_51647" data-name="Group 51647" transform="translate(0 0)">
          <rect id="Rectangle_23828" data-name="Rectangle 23828" width="0.712" height="15.019" transform="translate(0 0.074) rotate(-5.985)" fill="#3b3b3b"/>
        </g>
      </g>
    </g>
  </g>
</svg>
