<svg xmlns="http://www.w3.org/2000/svg" width="150" height="150" viewBox="0 0 150 150">
  <g id="Group_51706" data-name="Group 51706" transform="translate(0.197 0.383)">
    <g id="Group_51652" data-name="Group 51652" transform="translate(-0.197 -0.383)">
      <g id="Group_51651" data-name="Group 51651" transform="translate(0)">
        <circle id="Ellipse_3943" data-name="Ellipse 3943" cx="75" cy="75" r="75" transform="translate(0)" fill="#e47876"/>
      </g>
    </g>
    <g id="Group_51654" data-name="Group 51654" transform="translate(95.117 43.543)">
      <g id="Group_51653" data-name="Group 51653">
        <path id="Path_563947" data-name="Path 563947" d="M1309.848,681.532a7.2,7.2,0,0,1-3.955-7.433l1.735-3.768c.578-1.257-.406-3.19-2-2.606a6.883,6.883,0,0,0-2.312,1.464,1.722,1.722,0,0,0-.556.439c-1.7,1.991-3.382,4.034-4.892,6.178-1.171,1.662-2.005,3.578-1.114,5.576,1.958,4.387,8.311,3.639,12.2,3.457C1310.6,684.761,1311.513,682.369,1309.848,681.532Z" transform="translate(-1296.377 -667.618)" fill="#fff"/>
      </g>
    </g>
    <g id="Group_51656" data-name="Group 51656" transform="translate(69.75 45.409)">
      <g id="Group_51655" data-name="Group 51655">
        <path id="Path_563948" data-name="Path 563948" d="M1229.217,686.532a7.451,7.451,0,0,0,3.515-7.433l-1.542-3.768c-.514-1.257.361-3.19,1.781-2.607a6.077,6.077,0,0,1,2.054,1.464,1.581,1.581,0,0,1,.494.439c1.515,1.991,3.005,4.033,4.347,6.178,1.04,1.662,1.782,3.578.99,5.576-1.74,4.386-7.386,3.639-10.842,3.457C1228.552,689.761,1227.737,687.369,1229.217,686.532Z" transform="translate(-1228.433 -672.618)" fill="#fff"/>
      </g>
    </g>
    <g id="Group_51658" data-name="Group 51658" transform="translate(56.442 75.082)">
      <g id="Group_51657" data-name="Group 51657">
        <path id="Path_563949" data-name="Path 563949" d="M1254.708,756.226a5.271,5.271,0,0,0-5.544-3.987,5.329,5.329,0,0,0-3.282,1.612,5.146,5.146,0,0,0-.985,1.552c-.136.31-.395,1.819-.66,1.951s-3.371-3.279-3.776-3.618a3.552,3.552,0,0,0-3.443-.914,5.44,5.44,0,0,0-2.656,2.741c-.6,1.013-1.2,2.031-1.8,3.05a11.965,11.965,0,0,1-1.641-1.881,7.894,7.894,0,0,0-3.089-2.515,4.5,4.5,0,0,0-5.743,2.168c-.552.938-.747,2.3-1.481,3.117s-1.058.423-1.86-.116c-.536-.36-1.049-.761-1.572-1.14-2.189-1.588-4.413-3.605-7.233-2.13-2.051,1.073-3.6,3.711-4.588,5.741-.067.037-.122.07-.171.1-.055-.041-.114-.084-.182-.132a23.118,23.118,0,0,0-1.976-1.921,8.382,8.382,0,0,0-2.935-2.14c-2.661-.9-4.233,1.264-5.639,3.172q-.726.987-1.388,2.022c-.046.072-.09.146-.135.219-.793-1.021-2.995-3.184-3.292-3.518a1.788,1.788,0,0,0-2.15-.278,11.912,11.912,0,0,0-5.175,6.991,1.776,1.776,0,0,0,3.422.943,8.215,8.215,0,0,1,2.406-4c.771.881,1.542,1.762,2.338,2.619a3.322,3.322,0,0,0,3.03,1.4c1.363-.238,1.948-1.537,2.62-2.589q.5-.775,1.029-1.525c.3-.415,1.026-1.826,1.534-1.972,1.027-.3,2.661,1.973,3.308,2.6.85.827,1.681,1.844,2.946,1.943,2.371.186,3.83-2.541,4.786-4.273.629-1.138,1.543-2.948,3.066-2.082a43.027,43.027,0,0,1,3.636,2.626c2,1.438,4.323,2.3,6.346.335a8.4,8.4,0,0,0,1.75-2.857c.513-1.206.909-2.624,2.42-1.808,1.1.594,1.766,2,2.6,2.9a6.511,6.511,0,0,0,3.24,2,1.819,1.819,0,0,0,2-.815l1.975-3.354a12.983,12.983,0,0,1,.987-1.677c.478-.572-.194-.583.556-.219.945.459,1.913,1.841,2.684,2.584a6.493,6.493,0,0,0,2.323,1.751c1.859.6,3.507-.673,4.221-2.325.419-.972.452-2.377,1.64-2.753a1.681,1.681,0,0,1,2.106,1.338C1251.9,759.364,1255.327,758.432,1254.708,756.226Z" transform="translate(-1182.243 -752.213)" fill="#363636"/>
      </g>
    </g>
    <g id="Group_51660" data-name="Group 51660" transform="translate(100.052 33.416)">
      <g id="Group_51659" data-name="Group 51659">
        <path id="Path_563950" data-name="Path 563950" d="M1324.671,644.009c-2.057.847-4.316.059-6.354-.539a40.819,40.819,0,0,1-6.327-2.456c-2.046-.991-3.848,2.068-1.791,3.064a45.861,45.861,0,0,0,7.809,2.994c2.458.677,5.147,1.371,7.605.358C1327.7,646.573,1326.784,643.138,1324.671,644.009Z" transform="translate(-1309.292 -640.819)" fill="#363636"/>
      </g>
    </g>
    <g id="Group_51662" data-name="Group 51662" transform="translate(61.824 33.819)">
      <g id="Group_51661" data-name="Group 51661">
        <path id="Path_563951" data-name="Path 563951" d="M1222.259,642.447c-3.507,4.563-9.14,6.854-14.313,8.943-2.091.845-1.177,4.278.943,3.422,6.163-2.49,12.277-5.165,16.434-10.574C1226.714,642.428,1223.633,640.659,1222.259,642.447Z" transform="translate(-1206.763 -641.703)" fill="#363636"/>
      </g>
    </g>
    <g id="Group_51665" data-name="Group 51665" transform="translate(96.089 55.523)">
      <g id="Group_51664" data-name="Group 51664">
        <g id="Group_51663" data-name="Group 51663">
          <path id="Path_563952" data-name="Path 563952" d="M1301.971,704.683c2.74,0,2.745-4.258,0-4.258s-2.744,4.258,0,4.258Z" transform="translate(-1299.915 -700.425)" fill="#363636"/>
        </g>
      </g>
    </g>
    <g id="Group_51668" data-name="Group 51668" transform="translate(77.703 55.972)">
      <g id="Group_51667" data-name="Group 51667">
        <g id="Group_51666" data-name="Group 51666">
          <path id="Path_563953" data-name="Path 563953" d="M1252.465,705.893c2.74,0,2.745-4.258,0-4.258s-2.744,4.258,0,4.258Z" transform="translate(-1250.408 -701.635)" fill="#363636"/>
        </g>
      </g>
    </g>
    <g id="Group_51671" data-name="Group 51671" transform="translate(96.496 57.145)">
      <g id="Group_51670" data-name="Group 51670">
        <g id="Group_51669" data-name="Group 51669">
          <path id="Path_563954" data-name="Path 563954" d="M1302.209,707.025a1.065,1.065,0,0,0,0-2.129,1.065,1.065,0,0,0,0,2.129Z" transform="translate(-1301.181 -704.896)" fill="#363636"/>
        </g>
      </g>
    </g>
    <g id="Group_51674" data-name="Group 51674" transform="translate(79.633 57.378)">
      <g id="Group_51673" data-name="Group 51673">
        <g id="Group_51672" data-name="Group 51672">
          <path id="Path_563955" data-name="Path 563955" d="M1256.775,707.655a1.065,1.065,0,0,0,0-2.129,1.065,1.065,0,0,0,0,2.129Z" transform="translate(-1255.746 -705.526)" fill="#363636"/>
        </g>
      </g>
    </g>
  </g>
</svg>
