<svg xmlns="http://www.w3.org/2000/svg" width="150" height="150" viewBox="0 0 150 150">
  <g id="Group_51602" data-name="Group 51602" transform="translate(0 0)">
    <g id="Group_51581" data-name="Group 51581" transform="translate(0 0)">
      <g id="Group_51580" data-name="Group 51580">
        <circle id="Ellipse_3940" data-name="Ellipse 3940" cx="75" cy="75" r="75" fill="#73bbb6"/>
      </g>
    </g>
    <g id="Group_51583" data-name="Group 51583" transform="translate(63.82 54.153)">
      <g id="Group_51582" data-name="Group 51582">
        <path id="Path_563927" data-name="Path 563927" d="M1717.207,1171.251c-1.156,4.636-4.268,7.705-7.149,6.987s-4.281-5.059-3.125-9.695,4.429-7.812,7.31-7.093S1718.363,1166.615,1717.207,1171.251Z" transform="translate(-1706.527 -1161.349)" fill="#fff"/>
      </g>
    </g>
    <g id="Group_51585" data-name="Group 51585" transform="translate(82.554 54.184)">
      <g id="Group_51584" data-name="Group 51584">
        <path id="Path_563928" data-name="Path 563928" d="M1766.842,1168.511c1.362,4.58.242,8.805-2.6,9.651s-6.259-2.18-7.62-6.76-.158-8.978,2.689-9.824S1765.48,1163.932,1766.842,1168.511Z" transform="translate(-1756.057 -1161.442)" fill="#fff"/>
      </g>
    </g>
    <g id="Group_51588" data-name="Group 51588" transform="translate(66.5 66.13)">
      <g id="Group_51587" data-name="Group 51587">
        <g id="Group_51586" data-name="Group 51586">
          <path id="Path_563929" data-name="Path 563929" d="M1715.811,1198.319c2.628.655,3.651-3.428,1.018-4.084s-3.651,3.428-1.018,4.084Z" transform="translate(-1714.275 -1194.164)" fill="#363636"/>
        </g>
      </g>
    </g>
    <g id="Group_51591" data-name="Group 51591" transform="translate(87.639 65.642)">
      <g id="Group_51590" data-name="Group 51590">
        <g id="Group_51589" data-name="Group 51589">
          <path id="Path_563930" data-name="Path 563930" d="M1773.052,1197c2.6-.772,1.4-4.808-1.2-4.035s-1.4,4.808,1.2,4.035Z" transform="translate(-1770.403 -1192.869)" fill="#363636"/>
        </g>
      </g>
    </g>
    <g id="Group_51594" data-name="Group 51594" transform="translate(89.12 67.869)">
      <g id="Group_51593" data-name="Group 51593">
        <g id="Group_51592" data-name="Group 51592">
          <path id="Path_563931" data-name="Path 563931" d="M1775.9,1201.038a1.053,1.053,0,0,0-.6-2.018,1.053,1.053,0,0,0,.6,2.018Z" transform="translate(-1774.577 -1198.971)" fill="#363636"/>
        </g>
      </g>
    </g>
    <g id="Group_51597" data-name="Group 51597" transform="translate(67.467 68.427)">
      <g id="Group_51596" data-name="Group 51596">
        <g id="Group_51595" data-name="Group 51595">
          <path id="Path_563932" data-name="Path 563932" d="M1717.791,1202.534a1.053,1.053,0,0,0,.509-2.042,1.053,1.053,0,0,0-.509,2.042Z" transform="translate(-1717.023 -1200.456)" fill="#363636"/>
        </g>
      </g>
    </g>
    <g id="Group_51599" data-name="Group 51599" transform="translate(25.361 77.953)">
      <g id="Group_51598" data-name="Group 51598">
        <path id="Path_563933" data-name="Path 563933" d="M1691.286,1209.443s-.021.575-.109,1.6v0c-.7,8.4-5.616,47.081-36.725,52.065-44.822,7.184-56.272-25.678-62.018-44.551-.144-.477-.288-.947-.425-1.4,0,0,.221.039.639.105,4.974.825,37.606,6.1,50.227,4.806,13.148-1.347,45.73-11.766,48.256-12.579h0Z" transform="translate(-1592.01 -1209.443)" fill="#fff"/>
      </g>
    </g>
    <g id="Group_51601" data-name="Group 51601" transform="translate(33.91 78.743)">
      <g id="Group_51600" data-name="Group 51600">
        <path id="Path_563934" data-name="Path 563934" d="M1615.143,1222.583s.457,7.764,4.11,9.134,9.134.457,9.134.457-6.394,1.37-6.851,5.024,4.11,9.59,4.11,9.59-5.48-8.677-7.307-8.677a14.953,14.953,0,0,0-7.307,3.2c-2.74,2.283,4.567-5.024,5.023-6.851S1615.143,1222.583,1615.143,1222.583Z" transform="translate(-1610.419 -1222.583)" fill="#88bdf2"/>
      </g>
    </g>
  </g>
</svg>
