<svg xmlns="http://www.w3.org/2000/svg" width="261.474" height="180" viewBox="0 0 261.474 180">
  <g id="Group_53362" data-name="Group 53362" transform="translate(-56.763 -274.5)">
    <g id="Group_53354" data-name="Group 53354" transform="translate(120.237 26.658)">
      <g id="Group_53350" data-name="Group 53350" transform="translate(90.797 256.069)">
        <g id="Group_53319" data-name="Group 53319" transform="translate(0.203 0.258)">
          <g id="Group_51604" data-name="Group 51604" transform="translate(0 0)">
            <g id="Group_51603" data-name="Group 51603" transform="translate(0 0)">
              <circle id="Ellipse_3941" data-name="Ellipse 3941" cx="23" cy="23" r="23" transform="translate(0 -0.485)" fill="#77759c"/>
            </g>
          </g>
          <g id="Group_51607" data-name="Group 51607" transform="translate(15.908 31.66)">
            <g id="Group_51606" data-name="Group 51606">
              <g id="Group_51605" data-name="Group 51605">
                <path id="Path_563935" data-name="Path 563935" d="M1172.168,360.2a8.9,8.9,0,0,0,6.175,5.087,8.593,8.593,0,0,0,7.651-2.142,8.7,8.7,0,0,0,2.441-3.866c.188-.617-.776-.88-.964-.266a7.653,7.653,0,0,1-14.441.682c-.25-.59-1.112-.081-.863.5Z" transform="translate(-1172.124 -358.661)" fill="#363636"/>
              </g>
            </g>
          </g>
          <g id="Group_51610" data-name="Group 51610" transform="translate(19.525 25.318)">
            <g id="Group_51609" data-name="Group 51609" opacity="0.71">
              <g id="Group_51608" data-name="Group 51608">
                <path id="Path_563936" data-name="Path 563936" d="M1209.53,306.478c0,1.513-.721,2.694-1.662,2.694s-1.7-1.226-1.7-2.739.762-2.739,1.7-2.739S1209.53,304.965,1209.53,306.478Z" transform="translate(-1206.166 -303.694)" fill="#fff"/>
              </g>
            </g>
          </g>
          <g id="Group_51613" data-name="Group 51613" transform="translate(20.607 29.294)">
            <g id="Group_51612" data-name="Group 51612">
              <g id="Group_51611" data-name="Group 51611">
                <path id="Path_563937" data-name="Path 563937" d="M1216.5,340.468a.667.667,0,0,0,0-1.333.667.667,0,0,0,0,1.333Z" transform="translate(-1215.858 -339.135)" fill="#363636"/>
              </g>
            </g>
          </g>
          <g id="Group_51615" data-name="Group 51615" transform="translate(21.003 29.879)">
            <g id="Group_51614" data-name="Group 51614">
              <path id="Path_563938" data-name="Path 563938" d="M1219.709,345.024a.333.333,0,0,0,0-.667.333.333,0,0,0,0,.667Z" transform="translate(-1219.387 -344.358)" fill="#363636"/>
            </g>
          </g>
          <g id="Group_51618" data-name="Group 51618" transform="translate(24.424 25.318)">
            <g id="Group_51617" data-name="Group 51617" opacity="0.71">
              <g id="Group_51616" data-name="Group 51616">
                <path id="Path_563939" data-name="Path 563939" d="M1251.53,306.478c0,1.513-.721,2.694-1.661,2.694s-1.7-1.226-1.7-2.739.763-2.739,1.7-2.739S1251.53,304.965,1251.53,306.478Z" transform="translate(-1248.166 -303.694)" fill="#fff"/>
              </g>
            </g>
          </g>
          <g id="Group_51621" data-name="Group 51621" transform="translate(25.495 29.294)">
            <g id="Group_51620" data-name="Group 51620">
              <g id="Group_51619" data-name="Group 51619">
                <path id="Path_563940" data-name="Path 563940" d="M1258.5,340.468a.667.667,0,0,0,0-1.333.667.667,0,0,0,0,1.333Z" transform="translate(-1257.858 -339.135)" fill="#363636"/>
              </g>
            </g>
          </g>
          <g id="Group_51623" data-name="Group 51623" transform="translate(25.888 29.879)">
            <g id="Group_51622" data-name="Group 51622">
              <path id="Path_563941" data-name="Path 563941" d="M1261.709,345.024a.333.333,0,0,0,0-.667.333.333,0,0,0,0,.667Z" transform="translate(-1261.387 -344.358)" fill="#363636"/>
            </g>
          </g>
        </g>
      </g>
      <g id="Ellipse_4191" data-name="Ellipse 4191" transform="translate(86 250.842)" fill="none" stroke="#77759c" stroke-width="2">
        <circle cx="28" cy="28" r="28" stroke="none"/>
        <circle cx="28" cy="28" r="27" fill="none"/>
      </g>
    </g>
    <g id="Group_53357" data-name="Group 53357" transform="translate(-15.763 -19.5)">
      <g id="Group_53318" data-name="Group 53318" transform="translate(154.348 366.47)">
        <g id="Group_51581" data-name="Group 51581" transform="translate(-0.348 0.382)">
          <g id="Group_51580" data-name="Group 51580">
            <circle id="Ellipse_3940" data-name="Ellipse 3940" cx="50.5" cy="50.5" r="50.5" transform="translate(0 0.148)" fill="#73bbb6"/>
          </g>
        </g>
        <g id="Group_51583" data-name="Group 51583" transform="translate(42.292 36.215)">
          <g id="Group_51582" data-name="Group 51582">
            <path id="Path_563927" data-name="Path 563927" d="M1713.6,1167.911c-.766,3.072-2.828,5.106-4.738,4.63s-2.837-3.352-2.071-6.425,2.935-5.176,4.845-4.7S1714.37,1164.839,1713.6,1167.911Z" transform="translate(-1706.527 -1161.349)" fill="#fff"/>
          </g>
        </g>
        <g id="Group_51585" data-name="Group 51585" transform="translate(54.707 36.235)">
          <g id="Group_51584" data-name="Group 51584">
            <path id="Path_563928" data-name="Path 563928" d="M1763.2,1166.126c.9,3.035.16,5.835-1.726,6.4s-4.147-1.444-5.049-4.479-.1-5.949,1.781-6.51S1762.3,1163.092,1763.2,1166.126Z" transform="translate(-1756.057 -1161.442)" fill="#fff"/>
          </g>
        </g>
        <g id="Group_51588" data-name="Group 51588" transform="translate(44.069 44.253)">
          <g id="Group_51587" data-name="Group 51587">
            <g id="Group_51586" data-name="Group 51586">
              <path id="Path_563929" data-name="Path 563929" d="M1715.293,1196.918a1.4,1.4,0,0,0,.675-2.707,1.4,1.4,0,0,0-.675,2.707Z" transform="translate(-1714.275 -1194.164)" fill="#363636"/>
            </g>
          </g>
        </g>
        <g id="Group_51591" data-name="Group 51591" transform="translate(58.077 43.923)">
          <g id="Group_51590" data-name="Group 51590">
            <g id="Group_51589" data-name="Group 51589">
              <path id="Path_563930" data-name="Path 563930" d="M1772.159,1195.608a1.4,1.4,0,0,0-.795-2.674,1.4,1.4,0,0,0,.795,2.674Z" transform="translate(-1770.404 -1192.869)" fill="#363636"/>
            </g>
          </g>
        </g>
        <g id="Group_51594" data-name="Group 51594" transform="translate(59.059 45.418)">
          <g id="Group_51593" data-name="Group 51593">
            <g id="Group_51592" data-name="Group 51592">
              <path id="Path_563931" data-name="Path 563931" d="M1775.455,1200.341a.7.7,0,0,0-.4-1.337.7.7,0,0,0,.4,1.337Z" transform="translate(-1774.577 -1198.971)" fill="#363636"/>
            </g>
          </g>
        </g>
        <g id="Group_51597" data-name="Group 51597" transform="translate(44.709 45.796)">
          <g id="Group_51596" data-name="Group 51596">
            <g id="Group_51595" data-name="Group 51595">
              <path id="Path_563932" data-name="Path 563932" d="M1717.532,1201.833a.7.7,0,0,0,.338-1.354.7.7,0,0,0-.338,1.354Z" transform="translate(-1717.023 -1200.456)" fill="#363636"/>
            </g>
          </g>
        </g>
        <g id="Group_51599" data-name="Group 51599" transform="translate(16.807 53.278)">
          <g id="Group_51598" data-name="Group 51598">
            <path id="Path_563933" data-name="Path 563933" d="M1657.8,1209.443s-.014.382-.072,1.063v0c-.465,5.567-3.722,31.2-24.337,34.5-29.7,4.761-37.291-17.016-41.1-29.523-.1-.316-.19-.628-.281-.93,0,0,.147.026.423.07,3.3.547,24.921,4.043,33.285,3.185,8.713-.892,30.3-7.8,31.978-8.336h0Z" transform="translate(-1592.01 -1209.443)" fill="#fff"/>
          </g>
        </g>
        <g id="Group_51601" data-name="Group 51601" transform="translate(22.472 52.981)">
          <g id="Group_51600" data-name="Group 51600">
            <path id="Path_563934" data-name="Path 563934" d="M1613.55,1222.583s.3,5.145,2.723,6.053,6.053.3,6.053.3-4.237.908-4.54,3.329,2.724,6.355,2.724,6.355-3.632-5.75-4.842-5.75a9.908,9.908,0,0,0-4.842,2.119c-1.816,1.513,3.026-3.33,3.329-4.54S1613.55,1222.583,1613.55,1222.583Z" transform="translate(-1610.419 -1222.583)" fill="#88bdf2"/>
          </g>
        </g>
      </g>
      <g id="Ellipse_4192" data-name="Ellipse 4192" transform="translate(148 361)" fill="none" stroke="#73bbb6" stroke-width="2">
        <circle cx="56.5" cy="56.5" r="56.5" stroke="none"/>
        <circle cx="56.5" cy="56.5" r="55.5" fill="none"/>
      </g>
    </g>
    <g id="Group_53358" data-name="Group 53358" transform="translate(-120.763 -78.034)">
      <g id="Group_53348" data-name="Group 53348" transform="translate(244.203 358.203)">
        <g id="Group_53320" data-name="Group 53320" transform="translate(0 0)">
          <g id="Group_51626" data-name="Group 51626" transform="translate(0 0)">
            <g id="Group_51625" data-name="Group 51625">
              <circle id="Ellipse_3942" data-name="Ellipse 3942" cx="24" cy="24" r="24" transform="translate(-0.203 0.331)" fill="#f0b99f"/>
            </g>
          </g>
          <g id="Group_51628" data-name="Group 51628" transform="translate(7.04 22.212)">
            <g id="Group_51627" data-name="Group 51627">
              <path id="Path_563942" data-name="Path 563942" d="M2803.573,1570.008a3.155,3.155,0,0,0-3.842-.643,3.719,3.719,0,0,0-1.854,3.771.548.548,0,0,0,.29.428.519.519,0,0,0,.884-.028,4.1,4.1,0,0,1,1.474-1.88,1.9,1.9,0,0,1,2.1.311c.5.38,1.244.462,1.5-.252A1.842,1.842,0,0,0,2803.573,1570.008Z" transform="translate(-2797.848 -1568.986)" fill="#363636"/>
            </g>
          </g>
          <g id="Group_51630" data-name="Group 51630" transform="translate(18.792 23.025)">
            <g id="Group_51629" data-name="Group 51629">
              <path id="Path_563943" data-name="Path 563943" d="M2899.04,1578.245a3.156,3.156,0,0,0-2.71-2.8,3.722,3.722,0,0,0-3.731,1.935.551.551,0,0,0-.021.516.519.519,0,0,0,.728.5,4.1,4.1,0,0,1,2.3-.638,1.9,1.9,0,0,1,1.507,1.5c.18.6.728,1.11,1.36.689A1.843,1.843,0,0,0,2899.04,1578.245Z" transform="translate(-2892.524 -1575.408)" fill="#363636"/>
            </g>
          </g>
          <g id="Group_51632" data-name="Group 51632" transform="translate(22.279 18.341)">
            <g id="Group_51631" data-name="Group 51631">
              <path id="Path_563944" data-name="Path 563944" d="M2921.249,1539.236c1.27.165,1.893,1.413,2.405,2.44a6.1,6.1,0,0,0,2.06,2.663c.576.358,1.21-.493.63-.854-1.19-.741-1.588-2.125-2.269-3.272a3.806,3.806,0,0,0-2.715-2.032.531.531,0,0,0-.112,1.055Z" transform="translate(-2920.793 -1538.175)" fill="#363636"/>
            </g>
          </g>
          <g id="Group_51634" data-name="Group 51634" transform="translate(4.298 17.802)">
            <g id="Group_51633" data-name="Group 51633">
              <path id="Path_563945" data-name="Path 563945" d="M2782.784,1533.919a3.78,3.78,0,0,0-2.578,2.089c-.626,1.132-.972,2.56-2.108,3.313-.566.375-.036,1.295.535.916a6.16,6.16,0,0,0,2.043-2.786c.5-1.081,1.09-2.3,2.39-2.509.672-.106.387-1.129-.282-1.023Z" transform="translate(-2777.856 -1533.911)" fill="#363636"/>
            </g>
          </g>
          <g id="Group_51649" data-name="Group 51649" transform="translate(7.94 30.98)">
            <g id="Group_51636" data-name="Group 51636">
              <g id="Group_51635" data-name="Group 51635">
                <path id="Path_563946" data-name="Path 563946" d="M2816.2,1644.441l-10.633-1.078c-.764-.077-1.45-1.071-1.587-2.237l-.031-.267c-.141-1.2.325-2.308,1.1-2.452l11.138-2.074a3.7,3.7,0,0,1,4.519,3.767l-.022.55A4.057,4.057,0,0,1,2816.2,1644.441Z" transform="translate(-2803.92 -1636.261)" fill="#fff"/>
              </g>
            </g>
            <g id="Group_51638" data-name="Group 51638" transform="translate(0.01 3.569)">
              <g id="Group_51637" data-name="Group 51637" transform="translate(0 0)">
                <rect id="Rectangle_23823" data-name="Rectangle 23823" width="16.792" height="0.236" transform="translate(0 0.836) rotate(-2.854)" fill="#3b3b3b"/>
              </g>
            </g>
            <g id="Group_51640" data-name="Group 51640" transform="translate(4.949 1.404)">
              <g id="Group_51639" data-name="Group 51639" transform="translate(0 0)">
                <rect id="Rectangle_23824" data-name="Rectangle 23824" width="0.236" height="6.093" transform="matrix(0.998, -0.068, 0.068, 0.998, 0, 0.016)" fill="#3b3b3b"/>
              </g>
            </g>
            <g id="Group_51642" data-name="Group 51642" transform="translate(8 0.839)">
              <g id="Group_51641" data-name="Group 51641" transform="translate(0 0)">
                <rect id="Rectangle_23825" data-name="Rectangle 23825" width="0.236" height="6.948" transform="translate(0 0.009) rotate(-2.26)" fill="#3b3b3b"/>
              </g>
            </g>
            <g id="Group_51644" data-name="Group 51644" transform="translate(12.476 0.009)">
              <g id="Group_51643" data-name="Group 51643">
                <rect id="Rectangle_23826" data-name="Rectangle 23826" width="0.236" height="8.203" fill="#3b3b3b"/>
              </g>
            </g>
            <g id="Group_51646" data-name="Group 51646" transform="translate(2.815 1.799)">
              <g id="Group_51645" data-name="Group 51645" transform="translate(0 0)">
                <rect id="Rectangle_23827" data-name="Rectangle 23827" width="0.236" height="5.492" transform="translate(0 0.021) rotate(-5.005)" fill="#3b3b3b"/>
              </g>
            </g>
            <g id="Group_51648" data-name="Group 51648" transform="translate(0.98 2.139)">
              <g id="Group_51647" data-name="Group 51647" transform="translate(0 0)">
                <rect id="Rectangle_23828" data-name="Rectangle 23828" width="0.236" height="4.975" transform="translate(0 0.025) rotate(-5.985)" fill="#3b3b3b"/>
              </g>
            </g>
          </g>
        </g>
      </g>
      <g id="Ellipse_4194" data-name="Ellipse 4194" transform="translate(239 352.534)" fill="none" stroke="#f0b99f" stroke-width="2">
        <circle cx="29.5" cy="29.5" r="29.5" stroke="none"/>
        <circle cx="29.5" cy="29.5" r="28.5" fill="none"/>
      </g>
    </g>
    <g id="Group_53356" data-name="Group 53356" transform="translate(163.237 -12.077)">
      <g id="Group_53347" data-name="Group 53347" transform="translate(103.107 362.471)">
        <g id="Group_53341" data-name="Group 53341" transform="translate(-0.107 0.008)">
          <g id="Group_51652" data-name="Group 51652" transform="translate(0 0)">
            <g id="Group_51651" data-name="Group 51651" transform="translate(0 0)">
              <ellipse id="Ellipse_3943" data-name="Ellipse 3943" cx="23.5" cy="23" rx="23.5" ry="23" transform="translate(0 0.097)" fill="#e47876"/>
            </g>
          </g>
          <g id="Group_51654" data-name="Group 51654" transform="translate(29.369 13.534)">
            <g id="Group_51653" data-name="Group 51653">
              <path id="Path_563947" data-name="Path 563947" d="M1300.567,671.946a2.241,2.241,0,0,1-1.23-2.312l.54-1.172c.18-.391-.127-.992-.623-.811a2.142,2.142,0,0,0-.719.455.539.539,0,0,0-.173.137c-.53.619-1.052,1.255-1.522,1.921a1.728,1.728,0,0,0-.346,1.735c.609,1.364,2.585,1.132,3.8,1.075C1300.8,672.95,1301.085,672.206,1300.567,671.946Z" transform="translate(-1296.377 -667.618)" fill="#fff"/>
            </g>
          </g>
          <g id="Group_51656" data-name="Group 51656" transform="translate(21.479 14.114)">
            <g id="Group_51655" data-name="Group 51655">
              <path id="Path_563948" data-name="Path 563948" d="M1228.677,676.946a2.317,2.317,0,0,0,1.093-2.312l-.48-1.172c-.16-.391.112-.992.554-.811a1.892,1.892,0,0,1,.639.455.5.5,0,0,1,.154.137c.471.619.935,1.255,1.352,1.922a1.893,1.893,0,0,1,.308,1.734c-.541,1.365-2.3,1.132-3.372,1.075A.572.572,0,0,1,1228.677,676.946Z" transform="translate(-1228.433 -672.618)" fill="#fff"/>
            </g>
          </g>
          <g id="Group_51658" data-name="Group 51658" transform="translate(17.339 23.344)">
            <g id="Group_51657" data-name="Group 51657">
              <path id="Path_563949" data-name="Path 563949" d="M1204.783,753.461a1.639,1.639,0,0,0-1.724-1.24,1.658,1.658,0,0,0-1.021.5,1.6,1.6,0,0,0-.306.483c-.042.1-.123.566-.206.607a11.8,11.8,0,0,1-1.174-1.125,1.1,1.1,0,0,0-1.071-.285,1.691,1.691,0,0,0-.826.853q-.282.473-.56.949a3.717,3.717,0,0,1-.51-.585,2.452,2.452,0,0,0-.961-.782,1.4,1.4,0,0,0-1.786.674,5.629,5.629,0,0,1-.461.97c-.225.249-.329.131-.578-.036-.167-.112-.326-.237-.489-.355-.68-.494-1.372-1.121-2.25-.663a4,4,0,0,0-1.427,1.786l-.053.032-.057-.041a7.22,7.22,0,0,0-.615-.6,2.613,2.613,0,0,0-.913-.666c-.828-.28-1.317.393-1.754.987q-.226.307-.432.629l-.042.068c-.247-.317-.931-.99-1.023-1.094a.557.557,0,0,0-.669-.086,3.707,3.707,0,0,0-1.609,2.175.552.552,0,0,0,1.064.294,2.557,2.557,0,0,1,.748-1.243c.24.274.48.548.727.815a1.033,1.033,0,0,0,.942.435c.424-.074.606-.478.815-.806q.154-.241.32-.474c.092-.129.319-.568.477-.613.319-.092.828.614,1.029.809a1.593,1.593,0,0,0,.916.6c.738.058,1.191-.79,1.489-1.329.2-.354.48-.917.954-.647a13.382,13.382,0,0,1,1.131.817c.621.447,1.345.716,1.974.1a2.608,2.608,0,0,0,.544-.889c.16-.375.283-.816.753-.563.342.185.55.623.808.9a2.025,2.025,0,0,0,1.008.624.565.565,0,0,0,.623-.254l.615-1.043a4.072,4.072,0,0,1,.307-.522c.149-.178-.06-.181.173-.068a4.449,4.449,0,0,1,.835.8,2.019,2.019,0,0,0,.722.544,1.1,1.1,0,0,0,1.313-.723c.13-.3.14-.739.51-.857a.523.523,0,0,1,.655.416A.552.552,0,0,0,1204.783,753.461Z" transform="translate(-1182.243 -752.213)" fill="#363636"/>
            </g>
          </g>
          <g id="Group_51660" data-name="Group 51660" transform="translate(30.904 10.384)">
            <g id="Group_51659" data-name="Group 51659">
              <path id="Path_563950" data-name="Path 563950" d="M1314.075,641.811a3.008,3.008,0,0,1-1.976-.168,12.661,12.661,0,0,1-1.968-.764c-.637-.308-1.2.643-.557.953a14.263,14.263,0,0,0,2.429.931,3.659,3.659,0,0,0,2.365.111C1315.016,642.609,1314.732,641.54,1314.075,641.811Z" transform="translate(-1309.292 -640.819)" fill="#363636"/>
            </g>
          </g>
          <g id="Group_51662" data-name="Group 51662" transform="translate(19.014 10.509)">
            <g id="Group_51661" data-name="Group 51661">
              <path id="Path_563951" data-name="Path 563951" d="M1211.583,641.934a10.082,10.082,0,0,1-4.452,2.782c-.65.263-.366,1.331.293,1.064a11.388,11.388,0,0,0,5.112-3.289C1212.969,641.929,1212.01,641.379,1211.583,641.934Z" transform="translate(-1206.763 -641.703)" fill="#363636"/>
            </g>
          </g>
          <g id="Group_51665" data-name="Group 51665" transform="translate(29.671 17.26)">
            <g id="Group_51664" data-name="Group 51664">
              <g id="Group_51663" data-name="Group 51663">
                <path id="Path_563952" data-name="Path 563952" d="M1300.554,701.749a.663.663,0,0,0,0-1.324.663.663,0,0,0,0,1.324Z" transform="translate(-1299.915 -700.425)" fill="#363636"/>
              </g>
            </g>
          </g>
          <g id="Group_51668" data-name="Group 51668" transform="translate(23.952 17.4)">
            <g id="Group_51667" data-name="Group 51667">
              <g id="Group_51666" data-name="Group 51666">
                <path id="Path_563953" data-name="Path 563953" d="M1251.048,702.959a.663.663,0,0,0,0-1.325.663.663,0,0,0,0,1.325Z" transform="translate(-1250.408 -701.635)" fill="#363636"/>
              </g>
            </g>
          </g>
          <g id="Group_51671" data-name="Group 51671" transform="translate(29.798 17.765)">
            <g id="Group_51670" data-name="Group 51670">
              <g id="Group_51669" data-name="Group 51669">
                <path id="Path_563954" data-name="Path 563954" d="M1301.5,705.558a.331.331,0,0,0,0-.662.331.331,0,0,0,0,.662Z" transform="translate(-1301.181 -704.896)" fill="#363636"/>
              </g>
            </g>
          </g>
          <g id="Group_51674" data-name="Group 51674" transform="translate(24.553 17.837)">
            <g id="Group_51673" data-name="Group 51673">
              <g id="Group_51672" data-name="Group 51672">
                <path id="Path_563955" data-name="Path 563955" d="M1256.066,706.188a.331.331,0,0,0,0-.662.331.331,0,0,0,0,.662Z" transform="translate(-1255.746 -705.526)" fill="#363636"/>
              </g>
            </g>
          </g>
        </g>
      </g>
      <g id="Ellipse_4195" data-name="Ellipse 4195" transform="translate(98 356.577)" fill="none" stroke="#e47876" stroke-width="2">
        <circle cx="28.5" cy="28.5" r="28.5" stroke="none"/>
        <circle cx="28.5" cy="28.5" r="27.5" fill="none"/>
      </g>
    </g>
    <g id="Group_53355" data-name="Group 53355" transform="translate(-136.012 75.7)">
      <g id="Group_53322" data-name="Group 53322" transform="matrix(0.985, -0.174, 0.174, 0.985, 193.666, 280.651)">
        <g id="Group_51677" data-name="Group 51677" transform="translate(0 0)">
          <g id="Group_51676" data-name="Group 51676" transform="translate(0)">
            <circle id="Ellipse_3944" data-name="Ellipse 3944" cx="23.43" cy="23.43" r="23.43" fill="#5b7c99"/>
          </g>
        </g>
        <g id="Group_51679" data-name="Group 51679" transform="translate(19.952 18.686)">
          <g id="Group_51678" data-name="Group 51678" transform="translate(0 0)">
            <path id="Path_563956" data-name="Path 563956" d="M.319,3.232a.592.592,0,0,0-.289.705C.628,5.719,1.886,6.9,3.114,6.692,4.565,6.447,5.422,4.355,5.026,2.02A6.535,6.535,0,0,0,4.506.336.6.6,0,0,0,3.483.251,9.464,9.464,0,0,1,.319,3.232Z" transform="translate(0)" fill="#fff"/>
          </g>
        </g>
        <g id="Group_51681" data-name="Group 51681" transform="translate(30.14 17.591)">
          <g id="Group_51680" data-name="Group 51680" transform="translate(0 0)">
            <path id="Path_563957" data-name="Path 563957" d="M4.94,1.884a.592.592,0,0,1,.505.571c.021,1.879-.778,3.408-2.006,3.616C1.988,6.317.491,4.623.1,2.288A6.53,6.53,0,0,1,.033.526.6.6,0,0,1,.971.11,9.469,9.469,0,0,0,4.94,1.884Z" fill="#fff"/>
          </g>
        </g>
        <g id="Group_51684" data-name="Group 51684" transform="translate(32.618 22.009)">
          <g id="Group_51683" data-name="Group 51683" transform="translate(0 0)">
            <g id="Group_51682" data-name="Group 51682">
              <path id="Path_563958" data-name="Path 563958" d="M.644,1.333A.667.667,0,0,0,.644,0a.667.667,0,0,0,0,1.333Z" transform="translate(0)" fill="#363636"/>
            </g>
          </g>
        </g>
        <g id="Group_51687" data-name="Group 51687" transform="translate(22.807 23.194)">
          <g id="Group_51686" data-name="Group 51686" transform="translate(0 0)">
            <g id="Group_51685" data-name="Group 51685">
              <path id="Path_563959" data-name="Path 563959" d="M.644,1.333A.667.667,0,0,0,.644,0a.667.667,0,0,0,0,1.333Z" transform="translate(0)" fill="#363636"/>
            </g>
          </g>
        </g>
        <g id="Group_51689" data-name="Group 51689" transform="translate(24.1 28.512)">
          <g id="Group_51688" data-name="Group 51688" transform="translate(0 0)">
            <path id="Path_563960" data-name="Path 563960" d="M13.437,5.715a35.483,35.483,0,0,0-4.018.553C7.1,6.807,4.314,8.554,2.431,9.552a10.223,10.223,0,0,1-1.3.605c-.363.128-.625.156-.76.041C-.368,9.564.223,8.464.223,8.464S1.182,1.039,5,.183s7.679,1.431,9.48,3.722a2.338,2.338,0,0,1,.5.886C15.1,5.389,14.471,5.584,13.437,5.715Z" transform="translate(0 0)" fill="#363636"/>
          </g>
        </g>
        <g id="Group_51691" data-name="Group 51691" transform="translate(26.473 31.527)">
          <g id="Group_51690" data-name="Group 51690" transform="translate(0 0)">
            <path id="Path_563961" data-name="Path 563961" d="M11.007,2.705a35.364,35.364,0,0,0-4.017.553C4.671,3.8,1.883,5.545,0,6.543.522,4.631,1.2,1.75,2.622,1.208a2.624,2.624,0,0,1,2.193.3A2.968,2.968,0,0,1,7.037.011C8.006-.153,9.37,1.544,11.007,2.705Z" fill="#ba4634"/>
          </g>
        </g>
        <g id="Group_51694" data-name="Group 51694" transform="translate(23.342 23.722)">
          <g id="Group_51693" data-name="Group 51693" transform="translate(0 0)">
            <g id="Group_51692" data-name="Group 51692">
              <path id="Path_563962" data-name="Path 563962" d="M.394.076A.1.1,0,0,1,.366.082L.455.07a.094.094,0,0,1-.028,0L.516.081A.123.123,0,0,1,.489.072l.08.033C.548.094.551.1.579.116A.175.175,0,0,1,.637.178l.033.08L.665.245A.385.385,0,0,0,.546.072.318.318,0,0,0,.344,0,.393.393,0,0,0,.176.046a.33.33,0,0,0-.153.2L.008.354A.382.382,0,0,0,.025.571.3.3,0,0,0,.161.73a.441.441,0,0,0,.25.047A.376.376,0,0,0,.583.716.453.453,0,0,0,.725.564.427.427,0,0,0,.76.269.333.333,0,0,0,.607.07.34.34,0,0,0,.351.036a.337.337,0,0,0-.2.153A.382.382,0,0,0,.118.446l0,.013L.108.371V.383L.119.295l0,.013L.15.228Q.125.273.19.194T.224.155L.3.122A.091.091,0,0,1,.278.129L.367.117H.354L.442.129.43.127.509.16.5.155.65.531.665.422H.023A.477.477,0,0,0,.232.681.442.442,0,0,0,.571.718.339.339,0,0,0,.8.308.338.338,0,0,0,.394.076Z" transform="translate(0 0)" fill="#363636"/>
            </g>
          </g>
        </g>
        <g id="Group_51697" data-name="Group 51697" transform="translate(32.997 22.517)">
          <g id="Group_51696" data-name="Group 51696" transform="translate(0 0)">
            <g id="Group_51695" data-name="Group 51695">
              <path id="Path_563963" data-name="Path 563963" d="M.232.189l-.075.1A.349.349,0,0,0,.071.61.338.338,0,0,0,.3.843.438.438,0,0,0,.83.549.415.415,0,0,0,.556.014a.449.449,0,0,0-.522.26A.423.423,0,0,0,.048.636.345.345,0,0,0,.341.812L.434.819A.335.335,0,0,0,.767.486.341.341,0,0,0,.434.153L.341.146.629.311.623.3l.033.08A.072.072,0,0,1,.652.357c0,.029.008.059.012.089V.435L.652.523A.122.122,0,0,1,.66.491L.627.57C.649.529.566.632.6.6.59.611.525.65.575.626L.5.66A.091.091,0,0,1,.517.654L.429.665H.451L.363.653A.07.07,0,0,1,.384.658L.3.624C.334.64.322.626.268.581S.209.515.226.543L.192.463A.072.072,0,0,1,.2.484L.186.4a.139.139,0,0,1,0,.033L.2.339a.18.18,0,0,1-.01.032L.221.292C.2.327.191.313.247.262.257.253.327.212.278.234L.357.2A.076.076,0,0,1,.336.2L.425.193H.414L.5.205A.078.078,0,0,1,.481.2L.628.757.7.66A.363.363,0,0,0,.8.424.338.338,0,0,0,.7.189a.334.334,0,0,0-.235-.1.321.321,0,0,0-.236.1Z" transform="translate(0 0)" fill="#363636"/>
            </g>
          </g>
        </g>
      </g>
      <g id="Ellipse_4193" data-name="Ellipse 4193" transform="translate(192.775 270.92)" fill="none" stroke="#5b7c99" stroke-width="2">
        <ellipse cx="28.008" cy="28.358" rx="28.008" ry="28.358" stroke="none"/>
        <ellipse cx="28.008" cy="28.358" rx="27.008" ry="27.358" fill="none"/>
      </g>
    </g>
  </g>
</svg>
