<svg xmlns="http://www.w3.org/2000/svg" width="48.955" height="48" viewBox="0 0 48.955 48">
  <path id="Union_3" data-name="Union 3" d="M99.881,64A4.248,4.248,0,0,1,95.6,59.8V50.2H83.358v9.6A4.247,4.247,0,0,1,79.075,64H69.284A4.248,4.248,0,0,1,65,59.8h0V20.2A4.248,4.248,0,0,1,69.284,16h9.791a4.247,4.247,0,0,1,4.283,4.2v9.6H95.6V20.2A4.248,4.248,0,0,1,99.881,16h9.791a4.247,4.247,0,0,1,4.283,4.2V59.8a4.247,4.247,0,0,1-4.283,4.2Zm0-17.58V59.8h9.791V32.051A10.466,10.466,0,0,1,103.552,34H81.217a2.121,2.121,0,0,1-2.142-2.1V20.2H69.284V47.949A10.465,10.465,0,0,1,75.4,46H97.739a2.121,2.121,0,0,1,2.142,2.1ZM79.075,59.8V50.2H75.4a6.068,6.068,0,0,0-6.119,6v3.6Zm24.477-30a6.068,6.068,0,0,0,6.12-6V20.2H99.881v9.6Z" transform="translate(-65 -16)" fill="#fa6c51"/>
</svg>
