<svg xmlns="http://www.w3.org/2000/svg" width="20" height="20" viewBox="0 0 20 20">
  <path id="fi-br-bell-ring" d="M.184,3.559A1.247,1.247,0,0,1,.6,1.843L3.325.179a1.249,1.249,0,1,1,1.3,2.129L1.9,3.972A1.251,1.251,0,0,1,.184,3.556Zm19.223,11.4a1.251,1.251,0,0,0-1.72.407l-1.667,2.7a1.249,1.249,0,0,0,2.127,1.312l1.667-2.7a1.247,1.247,0,0,0-.407-1.719Zm-2.044-2.081-3,4.881a4.607,4.607,0,0,1-3.405,2.173,4.932,4.932,0,0,1-.553.032,4.587,4.587,0,0,1-2.822-.985A3.484,3.484,0,0,1,2.62,14.1L1.375,12.847A4.6,4.6,0,0,1,2.2,5.654L6.77,2.835a7.494,7.494,0,0,1,8.4.222L16.2,2.025a1.25,1.25,0,1,1,1.768,1.766L16.937,4.822a7.527,7.527,0,0,1,.427,8.061Zm-3-7.246A5.021,5.021,0,0,0,8.1,4.949L3.514,7.779A2.086,2.086,0,0,0,2.53,9.321a2.128,2.128,0,0,0,.618,1.764l5.76,5.766a2.138,2.138,0,0,0,3.326-.394l2.978-4.842a5.009,5.009,0,0,0-.848-5.979Z" transform="translate(-0.001 0.03)" fill="#fa6c51"/>
</svg>
