<svg id="fi-br-camera" xmlns="http://www.w3.org/2000/svg" width="19.998" height="19.998" viewBox="0 0 19.998 19.998">
  <path id="Path_136989" data-name="Path 136989" d="M15.613,3.343,13.536.649A1.667,1.667,0,0,0,12.216,0H7.782A1.667,1.667,0,0,0,6.463.649L4.385,3.343A4.583,4.583,0,0,0,0,7.916v7.5A4.588,4.588,0,0,0,4.583,20H15.415A4.588,4.588,0,0,0,20,15.415v-7.5A4.583,4.583,0,0,0,15.613,3.343ZM17.5,15.415A2.083,2.083,0,0,1,15.415,17.5H4.583A2.083,2.083,0,0,1,2.5,15.415v-7.5A2.083,2.083,0,0,1,4.583,5.833H15.415A2.083,2.083,0,0,1,17.5,7.916Z" fill="#fff"/>
  <path id="Path_136990" data-name="Path 136990" d="M11.083,8.5a4.583,4.583,0,1,0,4.583,4.583A4.583,4.583,0,0,0,11.083,8.5Zm0,6.666a2.083,2.083,0,1,1,2.083-2.083A2.083,2.083,0,0,1,11.083,15.166Z" transform="translate(-1.084 -1.417)" fill="#fff"/>
</svg>
