<svg xmlns="http://www.w3.org/2000/svg" width="20.246" height="20.246" viewBox="0 0 20.246 20.246">
  <path id="Path_562743" data-name="Path 562743" d="M15.71,8.29a1,1,0,0,0-1.42,0L12,10.59,9.71,8.29A1,1,0,0,0,8.29,9.71L10.59,12l-2.3,2.29a1,1,0,1,0,1.42,1.42L12,13.41l2.29,2.3a1,1,0,1,0,1.42-1.42L13.41,12l2.3-2.29a1,1,0,0,0,0-1.42Zm3.36-3.36A10,10,0,1,0,4.93,19.07,10,10,0,1,0,19.07,4.93ZM17.66,17.66a7.95,7.95,0,1,1,1.737-2.6A8,8,0,0,1,17.66,17.66Z" transform="translate(-1.877 -1.877)" fill="#f51313"/>
</svg>
