<svg xmlns="http://www.w3.org/2000/svg" width="20" height="20" viewBox="0 0 20 20">
  <g id="Group_43497" data-name="Group 43497" transform="translate(-312 -437)">
    <rect id="Rectangle_13337" data-name="Rectangle 13337" width="20" height="20" rx="10" transform="translate(312 437)" fill="#fa6c51"/>
    <path id="Path_304371" data-name="Path 304371" d="M15.109,7.89a1.333,1.333,0,0,0-1.885,0h0L11.5,9.614,9.776,7.89A1.334,1.334,0,0,0,7.89,9.776L9.614,11.5,7.89,13.223a1.334,1.334,0,0,0,1.886,1.886h0L11.5,13.385l1.723,1.724a1.334,1.334,0,0,0,1.886-1.886L13.385,11.5l1.724-1.723a1.333,1.333,0,0,0,0-1.885Z" transform="translate(310.502 435.501)" fill="#fff"/>
  </g>
</svg>
