<svg xmlns="http://www.w3.org/2000/svg" width="20" height="20" viewBox="0 0 20 20">
  <g id="Group_30140" data-name="Group 30140" transform="translate(-4.5 -4.499)" opacity="0.8">
    <path id="Path_24179" data-name="Path 24179" d="M15.552,6.263V5.751a1.253,1.253,0,0,0-2.507,0v.512A9.129,9.129,0,0,0,7.015,20.905a2.935,2.935,0,0,0-1.076,2.344,1.254,1.254,0,0,0,2.508,0,.533.533,0,0,1,.381-.567,9.15,9.15,0,0,0,10.94,0,.534.534,0,0,1,.383.567,1.254,1.254,0,0,0,2.508,0,2.935,2.935,0,0,0-1.076-2.344A9.139,9.139,0,0,0,15.552,6.263ZM7.611,15.333A6.688,6.688,0,1,1,14.3,22,6.677,6.677,0,0,1,7.611,15.333Z" transform="translate(0.201 0)" fill="#eb86be"/>
    <path id="Path_24180" data-name="Path 24180" d="M17.015,4.5a1.25,1.25,0,1,0,0,2.5,1.137,1.137,0,0,1,1.223,1.043,1.2,1.2,0,0,1,0,.208,1.254,1.254,0,0,0,2.508,0A3.616,3.616,0,0,0,17.265,4.5C17.182,4.5,17.1,4.5,17.015,4.5Z" transform="translate(3.754 0)" fill="#eb86be"/>
    <path id="Path_24181" data-name="Path 24181" d="M7.011,8.251A1.135,1.135,0,0,1,8.023,7a1.2,1.2,0,0,1,.208,0,1.25,1.25,0,1,0,0-2.5A3.618,3.618,0,0,0,4.5,8c0,.083,0,.165,0,.249a1.254,1.254,0,0,0,2.508,0Z" transform="translate(0 0)" fill="#eb86be"/>
    <path id="Path_24182" data-name="Path 24182" d="M13.586,13.356V10.124a1.252,1.252,0,0,0-1.253-1.249h0a1.252,1.252,0,0,0-1.255,1.249V13.7a1.664,1.664,0,0,0,.491,1.179l1.5,1.493a1.252,1.252,0,0,0,1.773-1.767Z" transform="translate(2.193 1.459)" fill="#eb86be"/>
  </g>
</svg>
