<svg id="Group_41910" data-name="Group 41910" xmlns="http://www.w3.org/2000/svg" width="13.995" height="13.995" viewBox="0 0 13.995 13.995">
  <path id="Path_24179" data-name="Path 24179" d="M12.415,5.733V5.375a.877.877,0,0,0-1.754,0v.358A6.388,6.388,0,0,0,6.441,15.98a2.054,2.054,0,0,0-.753,1.64.878.878,0,0,0,1.755,0,.373.373,0,0,1,.267-.4,6.4,6.4,0,0,0,7.655,0,.374.374,0,0,1,.268.4.878.878,0,0,0,1.755,0,2.054,2.054,0,0,0-.753-1.64,6.395,6.395,0,0,0-4.22-10.246ZM6.858,12.081a4.68,4.68,0,1,1,4.68,4.664A4.672,4.672,0,0,1,6.858,12.081Z" transform="translate(-4.54 -4.499)" fill="#fa6c51"/>
  <path id="Path_24180" data-name="Path 24180" d="M16.639,4.5a.875.875,0,1,0,0,1.749.8.8,0,0,1,.856.73.843.843,0,0,1,0,.146.878.878,0,0,0,1.755,0A2.53,2.53,0,0,0,16.814,4.5C16.756,4.5,16.7,4.5,16.639,4.5Z" transform="translate(-5.254 -4.499)" fill="#fa6c51"/>
  <path id="Path_24181" data-name="Path 24181" d="M6.257,7.124a.794.794,0,0,1,.708-.873.843.843,0,0,1,.146,0,.875.875,0,1,0,0-1.749A2.532,2.532,0,0,0,4.5,6.95c0,.058,0,.116,0,.174a.878.878,0,0,0,1.755,0Z" transform="translate(-4.5 -4.499)" fill="#fa6c51"/>
  <path id="Path_24182" data-name="Path 24182" d="M12.833,12.011V9.749a.876.876,0,0,0-.877-.874h0a.876.876,0,0,0-.878.874v2.5a1.164,1.164,0,0,0,.343.825l1.049,1.045a.876.876,0,0,0,1.241-1.236Z" transform="translate(-4.941 -4.792)" fill="#fa6c51"/>
</svg>
