<svg xmlns="http://www.w3.org/2000/svg" width="40" height="40" viewBox="0 0 40 40">
  <g id="Group_42032" data-name="Group 42032" transform="translate(-300 -35)">
    <rect id="Rectangle_12296" data-name="Rectangle 12296" width="40" height="40" rx="10" transform="translate(300 35)" fill="#fff"/>
    <path id="Path_54980" data-name="Path 54980" d="M17.011,7.988a1.667,1.667,0,0,0-2.356,0h0L12.5,10.143,10.345,7.988a1.667,1.667,0,0,0-2.357,2.357L10.143,12.5,7.988,14.654a1.667,1.667,0,0,0,2.357,2.357h0L12.5,14.856l2.154,2.155a1.667,1.667,0,0,0,2.357-2.357L14.856,12.5l2.155-2.154a1.667,1.667,0,0,0,0-2.356Z" transform="translate(307.5 42.5)" fill="#fa6c51"/>
  </g>
</svg>
