<svg id="Group_52565" data-name="Group 52565" xmlns="http://www.w3.org/2000/svg" width="26.52" height="25.643" viewBox="0 0 26.52 25.643">
  <path id="Path_562495" data-name="Path 562495" d="M10.654,5.173A11.787,11.787,0,0,0,4,15.786q0,.435.031.863l9.049-2.425Zm4.27-1.142,2.616,9.761.017.064a8.032,8.032,0,0,1,.223,1.013,2.837,2.837,0,0,1-1.792,3.1,8.008,8.008,0,0,1-.989.313l-.064.017L5.173,20.919A11.788,11.788,0,1,0,15.786,4Q15.352,4,14.924,4.031Z" transform="translate(-1.053 -1.93)" fill="#fff" fill-rule="evenodd"/>
  <path id="Path_562496" data-name="Path 562496" d="M13.683,5.066c-.37-1.38-.555-2.07-1.191-2.357s-1.2-.007-2.323.552a14.733,14.733,0,0,0-8.14,14.1c.078,1.253.116,1.88.683,2.287s1.257.223,2.637-.147l8.539-2.288c1.342-.359,2.013-.539,2.318-1.068s.125-1.2-.234-2.541Z" transform="translate(-2 -2.595)" fill="#fff"/>
</svg>
