<svg id="Group_30077" data-name="Group 30077" xmlns="http://www.w3.org/2000/svg" width="17.996" height="17.996" viewBox="0 0 17.996 17.996">
  <path id="Path_23995" data-name="Path 23995" d="M17.746,10.623v2.625H15.5A2.249,2.249,0,0,0,13.247,15.5v2.249H5.374a1.125,1.125,0,0,1-1.125-1.125V5.374A1.125,1.125,0,0,1,5.374,4.249h6.748a1.125,1.125,0,0,0,1.125-1.125h0A1.125,1.125,0,0,0,12.123,2H5.374A3.374,3.374,0,0,0,2,5.374V16.621A3.374,3.374,0,0,0,5.374,20H14.36a3.375,3.375,0,0,0,2.384-.987l2.263-2.263A3.372,3.372,0,0,0,20,14.361V10.623A1.125,1.125,0,0,0,18.871,9.5h0A1.125,1.125,0,0,0,17.746,10.623Z" transform="translate(-2 -2)" fill="#cad0d7"/>
  <path id="Path_23996" data-name="Path 23996" d="M15.759,3.419,6.387,12.792a.75.75,0,0,0-.22.53v2.249a.75.75,0,0,0,.75.75H9.166a.75.75,0,0,0,.53-.22l9.246-9.246a2.532,2.532,0,0,0,.714-2.376,2.339,2.339,0,0,0-3.9-1.06Z" transform="translate(-2.418 -2.075)" fill="#cad0d7"/>
</svg>
