<svg id="Group_52566" data-name="Group 52566" xmlns="http://www.w3.org/2000/svg" width="24.59" height="24.832" viewBox="0 0 24.59 24.832">
  <path id="Path_562682" data-name="Path 562682" d="M25.671,6.343a.97.97,0,0,1-.124,1.219L13.662,19.446a.97.97,0,0,1-.441.253L8.272,20.991a.97.97,0,0,1-1.183-1.183l1.293-4.95a1.006,1.006,0,0,1,.208-.4L20.518,2.534a.97.97,0,0,1,1.371,0l3.657,3.657A.978.978,0,0,1,25.671,6.343Zm-2.181.534L21.2,4.591,10.192,15.6,9.384,18.7l3.093-.808Z" transform="translate(-1.24 -2.25)" fill="#fff" fill-rule="evenodd"/>
  <path id="Path_562683" data-name="Path 562683" d="M24.644,21.441a57.416,57.416,0,0,0,.337-9.1.52.52,0,0,1,.151-.39L26.4,10.679a.256.256,0,0,1,.438.163,59.354,59.354,0,0,1-.272,10.824,5.676,5.676,0,0,1-5.007,4.955,61.7,61.7,0,0,1-13.6,0A5.676,5.676,0,0,1,2.96,21.666a59.368,59.368,0,0,1,0-13.793A5.676,5.676,0,0,1,7.967,2.918a61.732,61.732,0,0,1,10.328-.275.256.256,0,0,1,.166.438L17.178,4.364a.52.52,0,0,1-.385.152,59.681,59.681,0,0,0-8.61.33A3.737,3.737,0,0,0,4.886,8.1a57.428,57.428,0,0,0,0,13.343,3.737,3.737,0,0,0,3.3,3.253,59.765,59.765,0,0,0,13.165,0A3.737,3.737,0,0,0,24.644,21.441Z" transform="translate(-2.558 -2.164)" fill="#fff"/>
</svg>
