<svg xmlns="http://www.w3.org/2000/svg" width="16.5" height="17.5" viewBox="0 0 16.5 17.5">
  <g id="Group_50103" data-name="Group 50103" transform="translate(-3.25 -3.25)">
    <path id="Path_562684" data-name="Path 562684" d="M15.137,3.47a.75.75,0,0,0-1.061,0L4.884,12.662a.75.75,0,0,0-.2.341l-1,3.829a.75.75,0,0,0,.915.915l3.828-1a.75.75,0,0,0,.341-.2l9.192-9.192a.75.75,0,0,0,0-1.061ZM6.088,13.579l8.518-8.518,1.768,1.768L7.856,15.347l-2.393.625Z" fill="#cad0d7" fill-rule="evenodd"/>
    <path id="Path_562685" data-name="Path 562685" d="M4,19.25a.75.75,0,0,0,0,1.5H19a.75.75,0,0,0,0-1.5Z" fill="#cad0d7"/>
  </g>
</svg>
