<svg id="fi-br-edit" xmlns="http://www.w3.org/2000/svg" width="24" height="24" viewBox="0 0 24 24">
  <path id="Path_306601" data-name="Path 306601" d="M21,11.5V15H18a3,3,0,0,0-3,3v3H4.5A1.5,1.5,0,0,1,3,19.5V4.5A1.5,1.5,0,0,1,4.5,3h9A1.5,1.5,0,0,0,15,1.5h0A1.5,1.5,0,0,0,13.5,0h-9A4.5,4.5,0,0,0,0,4.5v15A4.5,4.5,0,0,0,4.5,24H16.484a4.5,4.5,0,0,0,3.181-1.317l3.017-3.017A4.5,4.5,0,0,0,24,16.485V11.5A1.5,1.5,0,0,0,22.5,10h0A1.5,1.5,0,0,0,21,11.5Z" transform="translate(0)" fill="#fff"/>
  <path id="Path_306602" data-name="Path 306602" d="M17.8,1.794,5.293,14.306A1,1,0,0,0,5,15.013v3a1,1,0,0,0,1,1H9a1,1,0,0,0,.708-.293L22.054,6.381a3.382,3.382,0,0,0,.953-3.173,3.121,3.121,0,0,0-5.2-1.414Z" transform="translate(-0.018 0.001)" fill="#fff"/>
</svg>
