<svg xmlns="http://www.w3.org/2000/svg" width="55" height="55" viewBox="0 0 55 55">
  <g id="Group_43497" data-name="Group 43497" transform="translate(10346 -5121)">
    <g id="Group_43496" data-name="Group 43496" transform="translate(-11316 19105)">
      <rect id="Rectangle_9489" data-name="Rectangle 9489" width="55" height="55" rx="20" transform="translate(970 -13984)" fill="#fa6c51"/>
    </g>
    <path id="Path_305821" data-name="Path 305821" d="M29.907,8.65a3.926,3.926,0,0,0-5.551,0l0,0-5.075,5.077L14.2,8.65A3.927,3.927,0,0,0,8.65,14.2l5.077,5.075L8.65,24.354A3.927,3.927,0,0,0,14.2,29.907h0l5.075-5.077,5.075,5.077a3.927,3.927,0,0,0,5.554-5.554L24.83,19.279,29.907,14.2a3.926,3.926,0,0,0,0-5.551Z" transform="translate(-10337.778 5129.222)" fill="#fff"/>
  </g>
</svg>
