<svg id="fi-br-cross-circle" xmlns="http://www.w3.org/2000/svg" width="24" height="24" viewBox="0 0 24 24">
  <path id="Path_306223" data-name="Path 306223" d="M16.061,7.939a1.5,1.5,0,0,0-2.122,0L12,9.879l-1.939-1.94a1.5,1.5,0,0,0-2.122,2.122L9.879,12l-1.94,1.939a1.5,1.5,0,0,0,2.122,2.122L12,14.121l1.939,1.94a1.5,1.5,0,0,0,2.122-2.122L14.121,12l1.94-1.939A1.5,1.5,0,0,0,16.061,7.939Z" fill="#fff"/>
  <path id="Path_306224" data-name="Path 306224" d="M12,0A12,12,0,1,0,24,12,12,12,0,0,0,12,0Zm0,21a9,9,0,1,1,9-9A9,9,0,0,1,12,21Z" fill="#fff"/>
</svg>
