<svg xmlns="http://www.w3.org/2000/svg" width="15" height="15" viewBox="0 0 15 15">
  <path id="Path_562497" data-name="Path 562497" d="M9.5,8.75a.75.75,0,0,0-.75.75v3a.75.75,0,0,0,1.5,0v-3a.75.75,0,0,0-.75-.75Zm.285-2.94a.775.775,0,0,0-.818.157.862.862,0,0,0-.158.247.63.63,0,0,0-.06.285.75.75,0,0,0,.217.532.862.862,0,0,0,.248.157A.75.75,0,0,0,10.25,6.5a.788.788,0,0,0-.217-.532A.75.75,0,0,0,9.785,5.81ZM9.5,2a7.5,7.5,0,1,0,2.87.571A7.5,7.5,0,0,0,9.5,2Zm0,13.5a6,6,0,1,1,4.243-1.757A6,6,0,0,1,9.5,15.5Z" transform="translate(-2 -2)" fill="#424852"/>
</svg>
