<svg xmlns="http://www.w3.org/2000/svg" width="18" height="18" viewBox="0 0 18 18">
  <path id="Path_304370" data-name="Path 304370" d="M20.281,9.574h0A11.856,11.856,0,0,0,18.216,7.2L20.34,5a1.209,1.209,0,0,0-.046-1.662,1.1,1.1,0,0,0-1.554,0L16.292,5.88A9.166,9.166,0,0,0,12,4.845,9.9,9.9,0,0,0,3.72,9.574a4.453,4.453,0,0,0,0,4.853A11.824,11.824,0,0,0,5.785,16.8L3.661,19.007a1.209,1.209,0,0,0,0,1.663,1.1,1.1,0,0,0,1.6,0l2.447-2.544A9.17,9.17,0,0,0,12,19.162a9.9,9.9,0,0,0,8.281-4.73A4.457,4.457,0,0,0,20.281,9.574ZM5.585,13.1a2.011,2.011,0,0,1,0-2.194A7.59,7.59,0,0,1,12,7.2a7.125,7.125,0,0,1,2.576.47l-1.4,1.452a2.976,2.976,0,0,0-3.955,1.661,3.253,3.253,0,0,0,0,2.449l-1.837,1.91A9.347,9.347,0,0,1,5.585,13.1Zm12.831,0A7.592,7.592,0,0,1,12,16.811a7.12,7.12,0,0,1-2.575-.47l1.4-1.453a2.975,2.975,0,0,0,3.954-1.66,3.246,3.246,0,0,0,0-2.45l1.837-1.909a9.351,9.351,0,0,1,1.8,2.037A2.011,2.011,0,0,1,18.416,13.1Z" transform="translate(-3.001 -3.014)" fill="#fa6c51"/>
</svg>
