<svg xmlns="http://www.w3.org/2000/svg" width="18" height="14.317" viewBox="0 0 18 14.317">
  <path id="Path_304370" data-name="Path 304370" d="M20.281,9.574h0A11.856,11.856,0,0,0,18.216,7.2L16.292,5.88A9.166,9.166,0,0,0,12,4.845,9.9,9.9,0,0,0,3.72,9.574a4.453,4.453,0,0,0,0,4.853A11.824,11.824,0,0,0,5.785,16.8l1.923,1.328A9.17,9.17,0,0,0,12,19.162a9.9,9.9,0,0,0,8.281-4.73A4.457,4.457,0,0,0,20.281,9.574ZM5.585,13.1a2.011,2.011,0,0,1,0-2.194A7.59,7.59,0,0,1,12,7.2l2.453.46,2.161,1.214-1.837,1.909c-.2-.09-.5-.612-1.017-1.026a4.124,4.124,0,0,0-1.487-.482,2.948,2.948,0,0,0-3.049,1.508l-.474,1.16L8.89,13.1l.768,1.142,1.166.646-1.4,1.453a12.772,12.772,0,0,1-2.214-1.453A13.691,13.691,0,0,1,5.585,13.1Zm12.831,0A7.592,7.592,0,0,1,12,16.811a7.12,7.12,0,0,1-2.575-.47l1.4-1.453a2.975,2.975,0,0,0,3.954-1.66,3.246,3.246,0,0,0,0-2.45l1.837-1.909a9.351,9.351,0,0,1,1.8,2.037A2.011,2.011,0,0,1,18.416,13.1Z" transform="translate(-3.001 -4.845)" fill="#fa6c51"/>
</svg>
