<svg xmlns="http://www.w3.org/2000/svg" width="15.037" height="15.037" viewBox="0 0 15.037 15.037">
  <g id="Group_53009" data-name="Group 53009" transform="translate(-41.152 -595.963)">
    <path id="Icon_awesome-question-circle" data-name="Icon awesome-question-circle" d="M7.493,3.048A3.064,3.064,0,0,0,4.736,4.557a.284.284,0,0,0,.064.385l.821.622a.284.284,0,0,0,.394-.05c.423-.536.712-.847,1.356-.847.483,0,1.081.311,1.081.78,0,.354-.292.536-.77.8-.557.312-1.293.7-1.293,1.672v.095a.284.284,0,0,0,.284.284H8a.284.284,0,0,0,.284-.284V7.985c0-.673,1.968-.7,1.968-2.524A2.7,2.7,0,0,0,7.493,3.048ZM7.336,8.916A1.088,1.088,0,1,0,8.424,10,1.089,1.089,0,0,0,7.336,8.916Z" transform="translate(41.202 596.412)" fill="#fa6c51"/>
    <path id="Path_566048" data-name="Path 566048" d="M10.886,3.375a7.519,7.519,0,1,0,7.526,7.519A7.516,7.516,0,0,0,10.886,3.375Zm.007,13.533a6.015,6.015,0,1,1,6.015-6.015A6.015,6.015,0,0,1,10.894,16.908Z" transform="translate(37.777 592.588)" fill="#fa6c51"/>
  </g>
</svg>
