<svg xmlns="http://www.w3.org/2000/svg" width="24.022" height="24.024" viewBox="0 0 24.022 24.024">
  <g id="fi-br-time-fast" transform="translate(0 0.024)">
    <path id="Path_306206" data-name="Path 306206" d="M9.5,24h-8a1.5,1.5,0,1,1,0-3h8a1.5,1.5,0,0,1,0,3Z" fill="#fff"/>
    <path id="Path_306207" data-name="Path 306207" d="M7.5,19h-6a1.5,1.5,0,1,1,0-3h6a1.5,1.5,0,0,1,0,3Z" fill="#fff"/>
    <path id="Path_306208" data-name="Path 306208" d="M5.5,14h-4a1.5,1.5,0,1,1,0-3h4a1.5,1.5,0,0,1,0,3Z" fill="#fff"/>
    <path id="Path_306209" data-name="Path 306209" d="M14.5,23.722a1.5,1.5,0,0,1-.354-2.958A9.022,9.022,0,1,0,3.843,8.142,1.5,1.5,0,1,1,1.132,6.858,12.023,12.023,0,1,1,14.855,23.679a1.513,1.513,0,0,1-.355.043Z" fill="#fff"/>
    <path id="Path_306210" data-name="Path 306210" d="M12.5,6h0A1.5,1.5,0,0,0,11,7.5v4.293a2,2,0,0,0,.586,1.414L13.379,15A1.5,1.5,0,1,0,15.5,12.879l-1.5-1.5V7.5A1.5,1.5,0,0,0,12.5,6Z" fill="#fff"/>
  </g>
</svg>
