<svg xmlns="http://www.w3.org/2000/svg" width="18.2" height="17.687" viewBox="0 0 18.2 17.687">
  <g id="Group_53010" data-name="Group 53010" transform="translate(-211.525 -443.795)">
    <g id="Group_53006" data-name="Group 53006">
      <g id="Group_48512" data-name="Group 48512" transform="translate(176.625 440.609)">
        <path id="Path_561218" data-name="Path 561218" d="M42.144,6.628C42.93,4.667,43.324,3.686,44,3.686s1.07.981,1.856,2.942l.037.091c.444,1.108.667,1.662,1.119,2a4.413,4.413,0,0,0,2.236.5l.215.019c1.946.174,2.919.261,3.127.88s-.514,1.276-1.959,2.591l-.482.439a4.4,4.4,0,0,0-1.268,1.434,2,2,0,0,0-.079.25,4.4,4.4,0,0,0,.209,1.9l.067.3c.394,1.774.59,2.661.247,3.044a1,1,0,0,1-.481.3c-.5.135-1.2-.439-2.61-1.587-.925-.754-1.388-1.131-1.919-1.216a2,2,0,0,0-.631,0c-.531.085-.994.462-1.919,1.216-1.409,1.148-2.113,1.722-2.61,1.587a1,1,0,0,1-.481-.3c-.344-.383-.147-1.27.247-3.044l.067-.3a4.4,4.4,0,0,0,.209-1.9,2.02,2.02,0,0,0-.079-.25,4.4,4.4,0,0,0-1.268-1.434l-.482-.439c-1.445-1.315-2.168-1.972-1.959-2.591s1.181-.706,3.127-.88l.215-.019a4.413,4.413,0,0,0,2.236-.5c.453-.337.675-.891,1.119-2Z" fill="none" stroke="#a9aebc" stroke-width="1"/>
      </g>
    </g>
  </g>
</svg>
