<svg xmlns="http://www.w3.org/2000/svg" width="55" height="55" viewBox="0 0 55 55">
  <g id="Group_33786" data-name="Group 33786" transform="translate(-970 13984)">
    <rect id="Rectangle_9489" data-name="Rectangle 9489" width="55" height="55" rx="20" transform="translate(970 -13984)" fill="#fa6c51"/>
    <path id="Path_136465" data-name="Path 136465" d="M73.434,11.63a3.942,3.942,0,0,1-.114,5.149L65.5,25.073a7.1,7.1,0,0,1-10.74-.062L51.429,21.72a3.94,3.94,0,0,1-.262-5.149,3.046,3.046,0,0,1,4.624-.291l3.46,3.434a1.248,1.248,0,0,0,.9.5,1.052,1.052,0,0,0,.77-.355L68.808,11.5A3.045,3.045,0,0,1,73.434,11.63Z" transform="translate(935.665 -13974.5)" fill="#fff"/>
  </g>
</svg>
