<svg xmlns="http://www.w3.org/2000/svg" width="18" height="19.999" viewBox="0 0 18 19.999">
  <g id="fi-br-trash" transform="translate(-1)">
    <path id="Path_306203" data-name="Path 306203" d="M19,3.75A1.239,1.239,0,0,0,17.773,2.5H14.683A3.682,3.682,0,0,0,11.227,0H8.773A3.682,3.682,0,0,0,5.317,2.5H2.227A1.239,1.239,0,0,0,1,3.75H1A1.239,1.239,0,0,0,2.227,5h.409V15.416A4.542,4.542,0,0,0,7.136,20h5.727a4.542,4.542,0,0,0,4.5-4.583V5h.409A1.239,1.239,0,0,0,19,3.75ZM14.909,15.416A2.065,2.065,0,0,1,12.864,17.5H7.136a2.065,2.065,0,0,1-2.045-2.083V5h9.818Z" transform="translate(0)" fill="#f76c82"/>
    <path id="Path_306204" data-name="Path 306204" d="M9.25,16.5a1.25,1.25,0,0,0,1.25-1.25v-5a1.25,1.25,0,0,0-2.5,0v5A1.25,1.25,0,0,0,9.25,16.5Z" transform="translate(-1.289 -1.5)" fill="#f76c82"/>
    <path id="Path_306205" data-name="Path 306205" d="M14.25,16.5a1.25,1.25,0,0,0,1.25-1.25v-5a1.25,1.25,0,0,0-2.5,0v5A1.25,1.25,0,0,0,14.25,16.5Z" transform="translate(-2.21 -1.5)" fill="#f76c82"/>
  </g>
</svg>
