<svg xmlns="http://www.w3.org/2000/svg" width="24" height="24" viewBox="0 0 24 24">
  <g id="Group_44275" data-name="Group 44275" transform="translate(0 0)">
    <path id="Path_306221" data-name="Path 306221" d="M12,0A12,12,0,1,0,24,12,12,12,0,0,0,12,0Zm0,21a9,9,0,1,1,9-9A9,9,0,0,1,12,21Z" fill="#fff"/>
    <path id="Path_306222" data-name="Path 306222" d="M12,15.091a1.5,1.5,0,0,0,1.5-1.5v-7a1.5,1.5,0,0,0-3,0v7a1.5,1.5,0,0,0,1.5,1.5Z" fill="#fff"/>
    <circle id="Ellipse_3521" data-name="Ellipse 3521" cx="1.5" cy="1.5" r="1.5" transform="translate(10.505 16)" fill="#fff"/>
  </g>
</svg>
