<svg xmlns="http://www.w3.org/2000/svg" width="15.01" height="15.01" viewBox="0 0 15.01 15.01">
  <g id="Group_53007" data-name="Group 53007" transform="translate(-325.058 -668.403)">
    <path id="Path_562497" data-name="Path 562497" d="M9.5,8.754a.751.751,0,0,0-.75.75v3a.75.75,0,0,0,1.5,0v-3a.751.751,0,0,0-.75-.75ZM9.79,5.812a.776.776,0,0,0-.818.158.863.863,0,0,0-.158.248.63.63,0,0,0-.06.285.75.75,0,0,0,.218.533.863.863,0,0,0,.248.158.75.75,0,0,0,1.036-.69.788.788,0,0,0-.218-.533A.75.75,0,0,0,9.79,5.812ZM9.5,2a7.505,7.505,0,1,0,2.872.571A7.5,7.5,0,0,0,9.5,2Zm0,13.509A6,6,0,1,1,13.75,13.75,6,6,0,0,1,9.5,15.509Z" transform="translate(323.058 666.403)" fill="#fa6c51"/>
  </g>
</svg>
