<svg xmlns="http://www.w3.org/2000/svg" width="21.942" height="23.5" viewBox="0 0 21.942 23.5">
  <path id="Union_3" data-name="Union 3" d="M79.922,38.5a1.907,1.907,0,0,1-1.833-1.969v-4.5H72.853v4.5A1.906,1.906,0,0,1,71.021,38.5H66.833A1.907,1.907,0,0,1,65,36.531h0V17.969A1.907,1.907,0,0,1,66.833,16h4.188a1.906,1.906,0,0,1,1.832,1.969v4.5h5.236v-4.5A1.907,1.907,0,0,1,79.922,16H84.11a1.906,1.906,0,0,1,1.832,1.969V36.531A1.906,1.906,0,0,1,84.11,38.5Zm0-8.241v6.272H84.11V23.524a4.215,4.215,0,0,1-2.618.914H71.937a.952.952,0,0,1-.916-.984V17.969H66.833V30.976a4.215,4.215,0,0,1,2.618-.914h9.555a.952.952,0,0,1,.916.984Zm-8.9,6.272v-4.5H69.45a2.724,2.724,0,0,0-2.618,2.813v1.688ZM81.492,22.469a2.724,2.724,0,0,0,2.618-2.812V17.969H79.922v4.5Z" transform="translate(-64.5 -15.5)" fill="#cad0d7" stroke="#cad0d7" stroke-width="1"/>
</svg>
