<svg xmlns="http://www.w3.org/2000/svg" width="24.698" height="21.7" viewBox="0 0 24.698 21.7">
  <g id="layer1" transform="translate(-251.15 -1031.569)">
    <g id="g9607">
      <path id="path9549" d="M255.756,1031.919a4.283,4.283,0,0,0-4.256,4.278v8.554a4.284,4.284,0,0,0,4.256,4.279h5.928c1.809,0,3.292.882,3.292,2.722a1.159,1.159,0,1,0,2.318,0c0-3.3-2.553-5.053-5.551-5.053h-5.987a1.916,1.916,0,0,1-1.938-1.948V1036.2a1.914,1.914,0,0,1,1.938-1.946H271.23a1.914,1.914,0,0,1,1.938,1.946v3.719c-3.074.639-5.169,3.3-5.169,7.06.1,1.117.421,2.054,1.328,2.054h1.9a4.423,4.423,0,0,0,4.256-4.279c.031-2.893,0-5.664,0-8.554a4.283,4.283,0,0,0-4.256-4.278Zm17.412,10.414v2.418a1.914,1.914,0,0,1-1.912,1.945h-.922A4.656,4.656,0,0,1,273.168,1042.333Z" fill="#fa6c51" stroke="#fa6c51" stroke-width="0.7"/>
    </g>
  </g>
</svg>
