<svg xmlns="http://www.w3.org/2000/svg" width="25.02" height="25" viewBox="0 0 25.02 25">
  <g id="Group_42728" data-name="Group 42728" transform="translate(-243.481 -243.5)">
    <g id="Group_42727" data-name="Group 42727">
      <path id="Path_304366" data-name="Path 304366" d="M264.456,247.212a12.735,12.735,0,0,0-16.911,0A10.575,10.575,0,0,0,244,255.063a10.368,10.368,0,0,0,2.2,6.383l-2.129,5.265a.938.938,0,0,0,.869,1.289.927.927,0,0,0,.378-.08l6.031-2.658a12.947,12.947,0,0,0,10.438-.5.938.938,0,0,0-.849-1.672,11.057,11.057,0,0,1-9.235.3.942.942,0,0,0-.747,0l-4.281,1.887,1.47-3.637a.936.936,0,0,0-.156-.959,8.572,8.572,0,0,1-2.111-5.614c0-5.067,4.542-9.188,10.125-9.188s10.125,4.121,10.125,9.188a8.546,8.546,0,0,1-1.566,4.908.937.937,0,1,0,1.537,1.073,10.4,10.4,0,0,0,1.9-5.981A10.573,10.573,0,0,0,264.456,247.212Z" fill="#cad0d7" stroke="#cad0d7" stroke-width="1"/>
    </g>
  </g>
</svg>
