<svg xmlns="http://www.w3.org/2000/svg" width="25" height="25" viewBox="0 0 25 25">
  <path id="Path_304363" data-name="Path 304363" d="M266.125,259.563v-9.938a1.877,1.877,0,0,0-1.875-1.875h-1.219v.938a.938.938,0,0,1-1.875,0v-.938h-4.265v.938a.937.937,0,0,1-1.875,0v-.938H250.8v.938a.938.938,0,0,1-1.875,0v-.938H247.75a1.877,1.877,0,0,0-1.875,1.875v1.406h17.437a.938.938,0,1,1,0,1.875H245.875V264.25a1.877,1.877,0,0,0,1.875,1.875h16.5a1.877,1.877,0,0,0,1.875-1.875.938.938,0,0,1,1.875,0,3.754,3.754,0,0,1-3.75,3.75h-16.5a3.754,3.754,0,0,1-3.75-3.75V249.625a3.754,3.754,0,0,1,3.75-3.75h1.172v-.937a.938.938,0,1,1,1.875,0v.937h4.219v-.937a.937.937,0,1,1,1.875,0v.937h4.265v-.937a.938.938,0,1,1,1.875,0v.937h1.219a3.754,3.754,0,0,1,3.75,3.75v9.938a.938.938,0,0,1-1.875,0Z" transform="translate(-243.5 -243.5)" fill="#cad0d7" stroke="#cad0d7" stroke-width="1"/>
</svg>
