<svg xmlns="http://www.w3.org/2000/svg" width="24.836" height="23.829" viewBox="0 0 24.836 23.829">
  <g id="layer1" transform="translate(0.418 0.479)">
    <path id="path3801" d="M9.862,1.014C8.431,2.082,7.949,4.145,6.636,5.078c-1.451.986-3.428.768-4.9,1.78a3.845,3.845,0,0,0-1.412,4.3c.576,1.682,2.353,2.726,2.9,4.3.44,1.825-.285,3.532.194,5.169a3.856,3.856,0,0,0,3.689,2.657c1.681,0,3.416-1.4,5.02-1.4,1.56,0,3.388,1.417,5.016,1.417a3.87,3.87,0,0,0,3.689-2.653c.537-1.7-.3-3.561.206-5.169.452-1.421,2.4-2.734,2.9-4.3a3.819,3.819,0,0,0-1.4-4.3c-1.465-1.021-3.382-.768-4.895-1.784-1.353-1.03-1.768-2.968-3.226-4.069A3.919,3.919,0,0,0,9.862,1.014Zm3.15,1.837c.935.734,1.444,2.784,3.265,4.1,2.081,1.437,3.751,1.067,4.935,1.819a1.517,1.517,0,0,1,.537,1.643c-.756,1.567-2.023,1.894-2.922,4.342-.712,2.008.085,4.013-.222,5.214a1.543,1.543,0,0,1-1.413,1.014c-1.082,0-2.615-1.37-5.067-1.411-2.373,0-3.678,1.31-5.072,1.406A1.547,1.547,0,0,1,5.64,19.953c-.3-1.345.472-3.022-.206-5.214C4.764,12.65,3,11.584,2.519,10.393A1.5,1.5,0,0,1,3.062,8.75C4.084,8.074,6.069,8.295,8,6.941a5.966,5.966,0,0,0,.888-.786,5.866,5.866,0,0,1-.422,8.905,1.156,1.156,0,1,0,1.445,1.8,8.176,8.176,0,0,0,.318-12.624,5.123,5.123,0,0,1,1.042-1.39A1.558,1.558,0,0,1,13.012,2.851Z" transform="translate(-0.135 -0.287)" fill="#cad0d7" stroke="#cad0d7" stroke-width="0.7"/>
  </g>
</svg>
