<svg xmlns="http://www.w3.org/2000/svg" width="24" height="22" viewBox="0 0 24 22">
  <path id="Path_304364" data-name="Path 304364" d="M267.062,254.345a.956.956,0,0,0,.938-.973v-7.4a.985.985,0,0,0-.374-.777.907.907,0,0,0-.822-.158,12.926,12.926,0,0,1-4.223.116c-1.1-.072-2.34-.154-3.769-.154A3.683,3.683,0,0,0,256,246.322,3.684,3.684,0,0,0,253.187,245c-1.428,0-2.671.082-3.769.154a12.921,12.921,0,0,1-4.222-.116.909.909,0,0,0-.823.158.987.987,0,0,0-.373.777v16.15a3.938,3.938,0,0,0,1.1,2.759,3.654,3.654,0,0,0,2.655,1.144h7.312a.938.938,0,1,0,1.875,0h7.313a3.827,3.827,0,0,0,3.75-3.893v-3.894a.938.938,0,1,0-1.875,0,1.914,1.914,0,0,1-1.875,1.947h-6.844a2.277,2.277,0,0,0-.469.049V248.894a1.914,1.914,0,0,1,1.875-1.947c1.369,0,2.581.08,3.65.15a21.177,21.177,0,0,0,3.663.049v6.226A.956.956,0,0,0,267.062,254.345Zm-12,9.734H247.75a1.83,1.83,0,0,1-1.328-.572,1.973,1.973,0,0,1-.547-1.382v-.516a3.625,3.625,0,0,0,1.875.524h6.844a.478.478,0,0,1,.468.486Zm0-3.844a2.26,2.26,0,0,0-.468-.049H247.75a1.914,1.914,0,0,1-1.875-1.947V247.147a21.276,21.276,0,0,0,3.662-.05c1.07-.07,2.282-.15,3.65-.15a1.914,1.914,0,0,1,1.875,1.947Zm2.344,1.9h6.844a3.625,3.625,0,0,0,1.875-.524v.524a1.914,1.914,0,0,1-1.875,1.946h-7.313v-1.46A.479.479,0,0,1,257.406,262.133Z" transform="translate(-244 -245)" fill="#cad0d7"/>
</svg>
