<svg id="Group_55218" data-name="Group 55218" xmlns="http://www.w3.org/2000/svg" width="49.836" height="49.836" viewBox="0 0 49.836 49.836">
  <circle id="Ellipse_4263" data-name="Ellipse 4263" cx="6.23" cy="6.23" r="6.23" transform="translate(24.939 0)" fill="#fd6048"/>
  <path id="Path_682296" data-name="Path 682296" d="M149.254,824.794a2.069,2.069,0,0,0,.927-.218l11.06-4.482h0a10.383,10.383,0,1,0-14.061-9.711v12.459h0A2.074,2.074,0,0,0,149.254,824.794Z" transform="translate(-147.178 -800)" fill="#fd6048"/>
  <path id="Path_682297" data-name="Path 682297" d="M186.614,917.43a10.355,10.355,0,0,0-4.245.9v0l-14.957,6.06h0l-14.977,6.068h0a8.309,8.309,0,0,0-5.274,7.734v6.134a8.306,8.306,0,0,0,8.306,8.306h4.153a8.306,8.306,0,0,0,8.306-8.306v-4.151a4.153,4.153,0,0,1,8.305,0v4.153a8.307,8.307,0,0,0,8.306,8.307h4.153A8.307,8.307,0,0,0,197,944.329V927.814A10.381,10.381,0,0,0,186.614,917.43Z" transform="translate(-147.16 -902.799)" fill="#fd6048"/>
</svg>
