<svg xmlns="http://www.w3.org/2000/svg" width="25.169" height="25.151" viewBox="0 0 25.169 25.151">
  <g id="Group_42721" data-name="Group 42721" transform="translate(-243.416 -243.349)">
    <path id="Path_304361" data-name="Path 304361" d="M267.728,255.043,257.96,244.79l-.039-.039a2.725,2.725,0,0,0-3.749-.008c-.014.013-.027.025-.039.038l-9.858,10.259a1.007,1.007,0,0,0,0,1.382.911.911,0,0,0,1.326,0l.744-.775v8.441a3.837,3.837,0,0,0,3.75,3.91h3.375a.958.958,0,0,0,.937-.978v-7.967h3.282v7.967a.958.958,0,0,0,.937.978h3.281a3.837,3.837,0,0,0,3.75-3.91.938.938,0,1,0-1.875,0,1.918,1.918,0,0,1-1.875,1.955h-2.343v-7.967a.959.959,0,0,0-.938-.978h-5.156a.959.959,0,0,0-.938.978v7.967h-2.437a1.918,1.918,0,0,1-1.875-1.955V253.7l7.216-7.51a.907.907,0,0,1,1.216,0l7.13,7.484V259.2a.938.938,0,1,0,1.875,0v-3.559l.742.778a.91.91,0,0,0,1.325,0A1.006,1.006,0,0,0,267.728,255.043Z" fill="#fa6c51" stroke="#fa6c51" stroke-width="1"/>
  </g>
</svg>
