<svg xmlns="http://www.w3.org/2000/svg" width="24.779" height="24.695" viewBox="0 0 24.779 24.695">
  <g id="layer1" transform="translate(0.39 0.35)">
    <path id="path2674" d="M12.129,288.664a4.6,4.6,0,0,0-2.279.7c-3.213,2.111-6.242,4.441-9.264,6.79a1.162,1.162,0,0,0,1.1,2.014V308.34a4.25,4.25,0,0,0,4.147,4.319H18.435a4.25,4.25,0,0,0,4.147-4.319V298.17a1.162,1.162,0,0,0,1.1-2.013c-2.971-2.422-6.144-4.566-9.264-6.79A3.9,3.9,0,0,0,12.129,288.664Zm.982,2.628,6.386,4.553a1.822,1.822,0,0,1,.759,1.371V308.34a1.887,1.887,0,0,1-1.821,2H16.841v-5.724a3.349,3.349,0,0,0-3.329-3.329H10.758a3.345,3.345,0,0,0-3.325,3.329v2.24a1.161,1.161,0,1,0,2.32,0v-2.24a.982.982,0,0,1,1-1.011h2.753a.982.982,0,0,1,1,1.011v5.724H5.828a1.887,1.887,0,0,1-1.821-2V297.215a1.714,1.714,0,0,1,.774-1.381l6.406-4.571a1.527,1.527,0,0,1,1.924.029Z" transform="translate(-0.13 -288.664)" fill="#cad0d7" stroke="#cad0d7" stroke-width="0.7"/>
  </g>
</svg>
