<svg xmlns="http://www.w3.org/2000/svg" width="26.008" height="28.314" viewBox="0 0 26.008 28.314">
  <g id="Group_51737" data-name="Group 51737" transform="translate(-107.382 -1023.264)">
    <g id="Group_51711" data-name="Group 51711" transform="translate(110.746 1028.368)">
      <path id="Path_563971" data-name="Path 563971" d="M232.014,188.834s-1.325,3.149-1.015,5.405a2.622,2.622,0,0,0-2.819-.152,2.365,2.365,0,0,0-.375,3.606,2.522,2.522,0,0,0,2.957.305l.443-.184a5.47,5.47,0,0,0,1.718,3.8,5.7,5.7,0,0,0,5.626,1.291,5.614,5.614,0,0,0,3.8-4.312c.171-1.037.328-.719.328-.719a2.488,2.488,0,0,0,3-.055,2.344,2.344,0,0,0,.55-2.844,2.775,2.775,0,0,0-2-1.268,2.465,2.465,0,0,0-1.747.537l-.466-3.328-5.863-1.688-2.5-.829Z" transform="translate(-227.138 -188.394)" fill="#fff"/>
    </g>
    <g id="Group_51712" data-name="Group 51712" transform="translate(117.889 1041.538)">
      <path id="Path_563972" data-name="Path 563972" d="M277.21,281.031c.09.181,0,4.822,0,4.822s.221.392,1.3.793a4.41,4.41,0,0,0,2.974-.16c.492-.246.958-.467.958-.724s-.139-3.25-.139-3.25l-3.218-1.784Z" transform="translate(-277.21 -280.729)" fill="#fff"/>
    </g>
    <g id="Group_51713" data-name="Group 51713" transform="translate(120.624 1038.34)">
      <path id="Path_563973" data-name="Path 563973" d="M296.388,259.779a2.1,2.1,0,0,1,1.5-1.472s.025,1.46-.56,1.631A.989.989,0,0,1,296.388,259.779Z" transform="translate(-296.388 -258.307)" fill="none"/>
    </g>
    <g id="Group_51714" data-name="Group 51714" transform="translate(117.477 1034.573)">
      <circle id="Ellipse_3945" data-name="Ellipse 3945" cx="0.547" cy="0.547" r="0.547" fill="#cad0d7"/>
    </g>
    <g id="Group_51715" data-name="Group 51715" transform="translate(121.901 1034.573)">
      <circle id="Ellipse_3946" data-name="Ellipse 3946" cx="0.547" cy="0.547" r="0.547" transform="translate(0)" fill="#cad0d7"/>
    </g>
    <g id="Group_51716" data-name="Group 51716" transform="translate(119.458 1034.114)">
      <path id="Path_563974" data-name="Path 563974" d="M288.919,231.663a.776.776,0,0,1-.5-.179.542.542,0,0,1-.2-.453l.161-2.35.285.02-.162,2.35a.269.269,0,0,0,.1.217.507.507,0,0,0,.433.1l.314-.068.061.279-.314.068A.823.823,0,0,1,288.919,231.663Z" transform="translate(-288.214 -228.681)" fill="#cad0d7" stroke="#cad0d7" stroke-linejoin="round" stroke-width="0.4"/>
    </g>
    <g id="Group_51718" data-name="Group 51718" transform="translate(121.479 1032.852)">
      <path id="Path_563976" data-name="Path 563976" d="M305.233,221.141c-.078.228-.6.254-1.172.058s-.967-.539-.888-.767.6-.254,1.172-.058S305.311,220.914,305.233,221.141Z" transform="translate(-303.163 -220.243)" fill="#cad0d7"/>
    </g>
    <g id="Group_51719" data-name="Group 51719" transform="translate(116.527 1032.852)">
      <path id="Path_563977" data-name="Path 563977" d="M270.323,221.141c.078.228.6.254,1.172.058s.967-.539.888-.767-.6-.254-1.172-.058S270.245,220.914,270.323,221.141Z" transform="translate(-270.314 -220.243)" fill="#cad0d7"/>
    </g>
    <g id="Group_51720" data-name="Group 51720" transform="translate(110.591 1029.654)">
      <path id="Path_563978" data-name="Path 563978" d="M235.894,211.049a5.77,5.77,0,0,1-5.787-5.341,2.472,2.472,0,1,1-.018-3.9v-1.251a5.783,5.783,0,0,1,.922-3.141l.24.155a5.5,5.5,0,0,0-.877,2.986v1.571l-.245.1a2.179,2.179,0,0,0-1.592-.648,2.2,2.2,0,1,0,1.593,3.72l.246.095a5.5,5.5,0,0,0,11,0l.246-.095a2.2,2.2,0,1,0,1.591-3.72,2.073,2.073,0,0,0-1.557.62l-.206-.2a2.379,2.379,0,0,1,1.762-.708,2.485,2.485,0,0,1,0,4.971,2.46,2.46,0,0,1-1.568-.556A5.755,5.755,0,0,1,235.894,211.049Z" transform="translate(-226.052 -197.418)" fill="#cad0d7" stroke="#cad0d7" stroke-width="0.5"/>
    </g>
    <g id="Group_51721" data-name="Group 51721" transform="translate(126.192 1034.611)">
      <path id="Path_563979" data-name="Path 563979" d="M336.749,233.224c-.745-.362-1.127-.138-1.142-.129l-.189-.208a2.11,2.11,0,0,1,2.579-.461l-.132.253a1.921,1.921,0,0,0-1.888.056,2.063,2.063,0,0,1,.9.233Z" transform="translate(-335.418 -232.168)" fill="#cad0d7"/>
    </g>
    <g id="Group_51722" data-name="Group 51722" transform="translate(111.904 1034.611)">
      <path id="Path_563980" data-name="Path 563980" d="M236.5,233.223l-.125-.257a2.062,2.062,0,0,1,.9-.233,1.92,1.92,0,0,0-1.888-.056l-.132-.253a2.109,2.109,0,0,1,2.579.461l-.19.207C237.629,233.085,237.247,232.861,236.5,233.223Z" transform="translate(-235.255 -232.167)" fill="#cad0d7"/>
    </g>
    <g id="Group_51723" data-name="Group 51723" transform="translate(113.136 1023.264)">
      <path id="Path_563981" data-name="Path 563981" d="M256.742,163.779a4.929,4.929,0,0,1-.867-2.7c-.882.191-4.844.823-7.076-2.6a2.961,2.961,0,0,1-3.254.529,2.466,2.466,0,0,1-1.525-1.545,2.412,2.412,0,0,1,.544-2.43,2.571,2.571,0,0,1,2.513-.743,2.064,2.064,0,0,1,.227.072c.51-.489,3.7-3.243,8.35-.635,1.981,1.11,2.835,3.2,2.472,6.054a14.783,14.783,0,0,1-1.144,3.976Zm-.768-3.019.181.135a5.029,5.029,0,0,0,.673,2.5c.53-1.25,2.753-7.144-1.314-9.423-4.868-2.728-8.041.617-8.073.651l-.163.033a1.7,1.7,0,0,0-.273-.094,2.285,2.285,0,0,0-2.234.661,2.13,2.13,0,0,0-.482,2.146,2.152,2.152,0,0,0,1.354,1.367,2.586,2.586,0,0,0,3.062-.581l.235.012C251.312,162.027,255.927,160.773,255.974,160.76Z" transform="translate(-243.895 -152.616)" fill="#cad0d7"/>
    </g>
    <g id="Group_51724" data-name="Group 51724" transform="translate(113.97 1029.248)">
      <path id="Path_563982" data-name="Path 563982" d="M250.414,199.762c-1.2-1.963-.451-5.061-.418-5.192l.277.069c-.008.031-.756,3.115.384,4.974Z" transform="translate(-249.733 -194.57)" fill="#cad0d7"/>
    </g>
    <g id="Group_51725" data-name="Group 51725" transform="translate(117.747 1043.132)">
      <path id="Path_563983" data-name="Path 563983" d="M278.944,292.4a5.108,5.108,0,0,1-2.678-.763l-.054-.1v-3.795h.285v3.731a4.643,4.643,0,0,0,4.849,0v-3.727h.285v3.795l-.062.1A5.007,5.007,0,0,1,278.944,292.4Z" transform="translate(-276.212 -287.747)" fill="#cad0d7" stroke="#cad0d7" stroke-width="1"/>
    </g>
    <g id="Group_51726" data-name="Group 51726" transform="translate(120.594 1042.557)">
      <path id="Path_563984" data-name="Path 563984" d="M296.177,288.5l2.385,1.559v-2.183a6.152,6.152,0,0,1-1.065.389C297.019,288.37,296.177,288.5,296.177,288.5Z" transform="translate(-296.177 -287.873)" fill="#cad0d7"/>
    </g>
    <g id="Group_51727" data-name="Group 51727" transform="translate(107.882 1046.674)">
      <path id="Path_563985" data-name="Path 563985" d="M207.267,321.138l-.209-.194a10.682,10.682,0,0,1,1.864-1.576,12.964,12.964,0,0,1,1.248-.737,18.887,18.887,0,0,1,6.889-1.9l.014.285a18.582,18.582,0,0,0-6.771,1.864,12.712,12.712,0,0,0-1.22.721A10.391,10.391,0,0,0,207.267,321.138Z" transform="translate(-207.058 -316.735)" fill="#cad0d7" stroke="#cad0d7" stroke-linecap="round" stroke-linejoin="round" stroke-width="1"/>
    </g>
    <g id="Group_51728" data-name="Group 51728" transform="translate(122.968 1046.675)">
      <path id="Path_563986" data-name="Path 563986" d="M322.568,320.647q-.173-.131-.35-.253a16.737,16.737,0,0,0-2.788-1.579,22.741,22.741,0,0,0-6.612-1.794l.023-.284a23.055,23.055,0,0,1,6.705,1.818,17.013,17.013,0,0,1,2.834,1.606c.12.083.24.17.359.259Z" transform="translate(-312.818 -316.737)" fill="#cad0d7" stroke="#cad0d7" stroke-linecap="round" stroke-linejoin="round" stroke-width="1"/>
    </g>
    <g id="Group_51731" data-name="Group 51731" transform="matrix(0.966, 0.259, -0.259, 0.966, 120.626, 1037.995)">
      <path id="Path_563989" data-name="Path 563989" d="M1.583,0l.3.054C1.7,1.343.161,1.923.1,1.947L0,1.621C.014,1.615,1.429,1.081,1.583,0Z" fill="#cad0d7" stroke="#cad0d7" stroke-linejoin="round" stroke-width="0.5"/>
    </g>
    <g id="Group_51732" data-name="Group 51732" transform="translate(119.762 1036.675)">
      <path id="Path_563990" data-name="Path 563990" d="M290.338,248.133l.175.751.612.748a1.653,1.653,0,0,1,.747-.911c.594-.341.938-.587.938-.587l-.254-1.5s-.572,1.122-1.207,1.281S290.338,248.133,290.338,248.133Z" transform="translate(-290.338 -246.634)" fill="none"/>
    </g>
    <g id="Group_51734" data-name="Group 51734" transform="translate(117.919 1028.877)">
      <path id="Path_563993" data-name="Path 563993" d="M278.928,194.486a3.419,3.419,0,0,1-1.505-2.492l.284-.026a3.188,3.188,0,0,0,1.363,2.271Z" transform="translate(-277.423 -191.968)" fill="#cad0d7"/>
    </g>
    <g id="Group_51735" data-name="Group 51735" transform="translate(113.287 1023.403)">
      <path id="Path_563994" data-name="Path 563994" d="M249.82,159.147a2.836,2.836,0,0,1-1.578.756,3.241,3.241,0,0,1-2.947-1.157,2.284,2.284,0,0,1,.618-3.089,2.709,2.709,0,0,1,2.33-.3,6.879,6.879,0,0,1,4.918-1.754c2.89.223,5.858,2.008,5.811,5.346s-1.089,5.431-1.3,5.447-.479-1.323-.479-1.323l-.357-.928.059-.363-.714.088a9.631,9.631,0,0,1-3.038-.182,7.635,7.635,0,0,1-2.744-1.7Z" transform="translate(-244.952 -153.587)" fill="#cad0d7"/>
    </g>
    <g id="Group_51736" data-name="Group 51736" transform="translate(114.055 1029.018)">
      <path id="Path_563995" data-name="Path 563995" d="M250.907,192.956s-.789.757-.509,3.325l.509,1.718.147-.128.054-1.925.258-1.256.859-1.412Z" transform="translate(-250.338 -192.956)" fill="#cad0d7"/>
    </g>
  </g>
</svg>
