<svg id="navi_bar" data-name="navi bar" xmlns="http://www.w3.org/2000/svg" width="375" height="57" viewBox="0 0 375 57">
  <rect id="Rectangle_12742" data-name="Rectangle 12742" width="375" height="2" rx="1" fill="#f4f6f8"/>
  <rect id="Rectangle_12741" data-name="Rectangle 12741" width="375" height="55" transform="translate(0 2)" fill="#fff"/>
  <g id="Group_42722" data-name="Group 42722" transform="translate(-209 -234)">
    <g id="Group_42721" data-name="Group 42721">
      <path id="Path_304361" data-name="Path 304361" d="M267.728,255.043,257.96,244.79l-.039-.039a2.725,2.725,0,0,0-3.749-.008c-.014.013-.027.025-.039.038l-9.858,10.259a1.007,1.007,0,0,0,0,1.382.911.911,0,0,0,1.326,0l.744-.775v8.441a3.837,3.837,0,0,0,3.75,3.91h3.375a.958.958,0,0,0,.937-.978v-7.967h3.282v7.967a.958.958,0,0,0,.937.978h3.281a3.837,3.837,0,0,0,3.75-3.91.938.938,0,1,0-1.875,0,1.918,1.918,0,0,1-1.875,1.955h-2.343v-7.967a.959.959,0,0,0-.938-.978h-5.156a.959.959,0,0,0-.938.978v7.967h-2.437a1.918,1.918,0,0,1-1.875-1.955V253.7l7.216-7.51a.907.907,0,0,1,1.216,0l7.13,7.484V259.2a.938.938,0,1,0,1.875,0v-3.559l.742.778a.91.91,0,0,0,1.325,0A1.006,1.006,0,0,0,267.728,255.043Z" fill="#fa6c51"/>
    </g>
  </g>
  <g id="Group_42726" data-name="Group 42726" transform="translate(72 -234)">
    <g id="Group_42725" data-name="Group 42725">
      <path id="Path_304364" data-name="Path 304364" d="M267.062,254.345a.956.956,0,0,0,.938-.973v-7.4a.985.985,0,0,0-.374-.777.907.907,0,0,0-.822-.158,12.926,12.926,0,0,1-4.223.116c-1.1-.072-2.34-.154-3.769-.154A3.683,3.683,0,0,0,256,246.322,3.684,3.684,0,0,0,253.187,245c-1.428,0-2.671.082-3.769.154a12.921,12.921,0,0,1-4.222-.116.909.909,0,0,0-.823.158.987.987,0,0,0-.373.777v16.15a3.938,3.938,0,0,0,1.1,2.759,3.654,3.654,0,0,0,2.655,1.144h7.312a.938.938,0,1,0,1.875,0h7.313a3.827,3.827,0,0,0,3.75-3.893v-3.894a.938.938,0,1,0-1.875,0,1.914,1.914,0,0,1-1.875,1.947h-6.844a2.277,2.277,0,0,0-.469.049V248.894a1.914,1.914,0,0,1,1.875-1.947c1.369,0,2.581.08,3.65.15a21.177,21.177,0,0,0,3.663.049v6.226A.956.956,0,0,0,267.062,254.345Zm-12,9.734H247.75a1.83,1.83,0,0,1-1.328-.572,1.973,1.973,0,0,1-.547-1.382v-.516a3.625,3.625,0,0,0,1.875.524h6.844a.478.478,0,0,1,.468.486Zm0-3.844a2.26,2.26,0,0,0-.468-.049H247.75a1.914,1.914,0,0,1-1.875-1.947V247.147a21.276,21.276,0,0,0,3.662-.05c1.07-.07,2.282-.15,3.65-.15a1.914,1.914,0,0,1,1.875,1.947Zm2.344,1.9h6.844a3.625,3.625,0,0,0,1.875-.524v.524a1.914,1.914,0,0,1-1.875,1.946h-7.313v-1.46A.479.479,0,0,1,257.406,262.133Z" fill="#cad0d7"/>
    </g>
  </g>
  <path id="Path_304365" data-name="Path 304365" d="M265.2,259.346a9.752,9.752,0,0,0-.962,4.818v2.9a.938.938,0,0,1-.937.937H252.852a.938.938,0,0,1-.938-.937v-1.828a.938.938,0,0,0-.937-.938h-.914a3.73,3.73,0,0,1-3.726-3.726v-1.757h-.37a1.967,1.967,0,0,1-1.852-2.629,28.553,28.553,0,0,1,4.772-8.724,10.291,10.291,0,0,1,5.4-3.2.937.937,0,1,1,.417,1.828,8.4,8.4,0,0,0-4.412,2.611,26.68,26.68,0,0,0-4.414,8.116.084.084,0,0,0,.011.084.087.087,0,0,0,.076.039h1.307a.938.938,0,0,1,.938.937v2.7a1.853,1.853,0,0,0,1.851,1.852h.914a2.815,2.815,0,0,1,2.812,2.812v.89h8.577v-1.96a11.472,11.472,0,0,1,1.135-5.6.937.937,0,1,1,1.7.786Zm2.03-8.954a.937.937,0,0,0-1.092.751,4.447,4.447,0,1,1-3.178-5.1.937.937,0,1,0,.5-1.8,6.328,6.328,0,1,0,4.517,7.249.937.937,0,0,0-.751-1.092Zm-6.683-1.147a.937.937,0,1,0-1.325,1.325l1.38,1.381a1.645,1.645,0,0,0,2.314,0l4.1-4.054a.937.937,0,1,0-1.319-1.332l-3.93,3.89Z" transform="translate(3 -234.002)" fill="#cad0d7"/>
  <text id="Дадал" transform="translate(171.5 49)" fill="#cad0d7" font-size="11" font-family="SegoeUI, Segoe UI"><tspan x="0" y="0">Дадал</tspan></text>
  <text id="Чатбот" transform="translate(101 49)" fill="#c9d0d7" font-size="11" font-family="SegoeUI, Segoe UI"><tspan x="0" y="0">Чатбот</tspan></text>
  <text id="Тест" transform="translate(248 49)" fill="#cad0d7" font-size="11" font-family="SegoeUI, Segoe UI"><tspan x="0" y="0">Тест</tspan></text>
  <text id="Зөвлөмж" transform="translate(305 49)" fill="#cad0d7" font-size="11" font-family="SegoeUI, Segoe UI"><tspan x="0" y="0">Зөвлөмж</tspan></text>
  <text id="Нүүр" transform="translate(34 49)" fill="#fa6c51" font-size="11" font-family="SegoeUI, Segoe UI"><tspan x="0" y="0">Нүүр</tspan></text>
  <path id="Union_3" data-name="Union 3" d="M79.922,38.5a1.907,1.907,0,0,1-1.833-1.969v-4.5H72.853v4.5A1.906,1.906,0,0,1,71.021,38.5H66.833A1.907,1.907,0,0,1,65,36.531h0V17.969A1.907,1.907,0,0,1,66.833,16h4.188a1.906,1.906,0,0,1,1.832,1.969v4.5h5.236v-4.5A1.907,1.907,0,0,1,79.922,16H84.11a1.906,1.906,0,0,1,1.832,1.969V36.531A1.906,1.906,0,0,1,84.11,38.5Zm0-8.241v6.272H84.11V23.524a4.215,4.215,0,0,1-2.618.914H71.937a.952.952,0,0,1-.916-.984V17.969H66.833V30.976a4.215,4.215,0,0,1,2.618-.914h9.555a.952.952,0,0,1,.916.984Zm-8.9,6.272v-4.5H69.45a2.724,2.724,0,0,0-2.618,2.813v1.688ZM81.492,22.469a2.724,2.724,0,0,0,2.618-2.812V17.969H79.922v4.5Z" transform="translate(112.029 -4.5)" fill="#cad0d7"/>
  <rect id="Rectangle_22261" data-name="Rectangle 22261" width="24" height="2" transform="translate(35)" fill="#fa6c51"/>
  <g id="Group_51737" data-name="Group 51737" transform="translate(-1.886 -1015.17)">
    <g id="Group_51711" data-name="Group 51711" transform="translate(110.746 1028.368)">
      <path id="Path_563971" data-name="Path 563971" d="M232.014,188.834s-1.325,3.149-1.015,5.405a2.622,2.622,0,0,0-2.819-.152,2.365,2.365,0,0,0-.375,3.606,2.522,2.522,0,0,0,2.957.305l.443-.184a5.47,5.47,0,0,0,1.718,3.8,5.7,5.7,0,0,0,5.626,1.291,5.614,5.614,0,0,0,3.8-4.312c.171-1.037.328-.719.328-.719a2.488,2.488,0,0,0,3-.055,2.344,2.344,0,0,0,.55-2.844,2.775,2.775,0,0,0-2-1.268,2.465,2.465,0,0,0-1.747.537l-.466-3.328-5.863-1.688-2.5-.829Z" transform="translate(-227.138 -188.394)" fill="#fff"/>
    </g>
    <g id="Group_51712" data-name="Group 51712" transform="translate(117.889 1041.538)">
      <path id="Path_563972" data-name="Path 563972" d="M277.21,281.031c.09.181,0,4.822,0,4.822s.221.392,1.3.793a4.41,4.41,0,0,0,2.974-.16c.492-.246.958-.467.958-.724s-.139-3.25-.139-3.25l-3.218-1.784Z" transform="translate(-277.21 -280.729)" fill="#fff"/>
    </g>
    <g id="Group_51713" data-name="Group 51713" transform="translate(120.624 1038.34)">
      <path id="Path_563973" data-name="Path 563973" d="M296.388,259.779a2.1,2.1,0,0,1,1.5-1.472s.025,1.46-.56,1.631A.989.989,0,0,1,296.388,259.779Z" transform="translate(-296.388 -258.307)" fill="none"/>
    </g>
    <g id="Group_51714" data-name="Group 51714" transform="translate(117.477 1034.573)">
      <circle id="Ellipse_3945" data-name="Ellipse 3945" cx="0.547" cy="0.547" r="0.547" fill="#cad0d7"/>
    </g>
    <g id="Group_51715" data-name="Group 51715" transform="translate(121.901 1034.573)">
      <circle id="Ellipse_3946" data-name="Ellipse 3946" cx="0.547" cy="0.547" r="0.547" transform="translate(0)" fill="#cad0d7"/>
    </g>
    <g id="Group_51716" data-name="Group 51716" transform="translate(119.458 1034.114)">
      <path id="Path_563974" data-name="Path 563974" d="M288.919,231.663a.776.776,0,0,1-.5-.179.542.542,0,0,1-.2-.453l.161-2.35.285.02-.162,2.35a.269.269,0,0,0,.1.217.507.507,0,0,0,.433.1l.314-.068.061.279-.314.068A.823.823,0,0,1,288.919,231.663Z" transform="translate(-288.214 -228.681)" fill="#cad0d7" stroke="#cad0d7" stroke-linejoin="round" stroke-width="0.4"/>
    </g>
    <g id="Group_51718" data-name="Group 51718" transform="translate(121.479 1032.852)">
      <path id="Path_563976" data-name="Path 563976" d="M305.233,221.141c-.078.228-.6.254-1.172.058s-.967-.539-.888-.767.6-.254,1.172-.058S305.311,220.914,305.233,221.141Z" transform="translate(-303.163 -220.243)" fill="#cad0d7"/>
    </g>
    <g id="Group_51719" data-name="Group 51719" transform="translate(116.527 1032.852)">
      <path id="Path_563977" data-name="Path 563977" d="M270.323,221.141c.078.228.6.254,1.172.058s.967-.539.888-.767-.6-.254-1.172-.058S270.245,220.914,270.323,221.141Z" transform="translate(-270.314 -220.243)" fill="#cad0d7"/>
    </g>
    <g id="Group_51720" data-name="Group 51720" transform="translate(110.591 1029.654)">
      <path id="Path_563978" data-name="Path 563978" d="M235.894,211.049a5.77,5.77,0,0,1-5.787-5.341,2.472,2.472,0,1,1-.018-3.9v-1.251a5.783,5.783,0,0,1,.922-3.141l.24.155a5.5,5.5,0,0,0-.877,2.986v1.571l-.245.1a2.179,2.179,0,0,0-1.592-.648,2.2,2.2,0,1,0,1.593,3.72l.246.095a5.5,5.5,0,0,0,11,0l.246-.095a2.2,2.2,0,1,0,1.591-3.72,2.073,2.073,0,0,0-1.557.62l-.206-.2a2.379,2.379,0,0,1,1.762-.708,2.485,2.485,0,0,1,0,4.971,2.46,2.46,0,0,1-1.568-.556A5.755,5.755,0,0,1,235.894,211.049Z" transform="translate(-226.052 -197.418)" fill="#cad0d7" stroke="#cad0d7" stroke-width="0.5"/>
    </g>
    <g id="Group_51721" data-name="Group 51721" transform="translate(126.192 1034.611)">
      <path id="Path_563979" data-name="Path 563979" d="M336.749,233.224c-.745-.362-1.127-.138-1.142-.129l-.189-.208a2.11,2.11,0,0,1,2.579-.461l-.132.253a1.921,1.921,0,0,0-1.888.056,2.063,2.063,0,0,1,.9.233Z" transform="translate(-335.418 -232.168)" fill="#cad0d7"/>
    </g>
    <g id="Group_51722" data-name="Group 51722" transform="translate(111.904 1034.611)">
      <path id="Path_563980" data-name="Path 563980" d="M236.5,233.223l-.125-.257a2.062,2.062,0,0,1,.9-.233,1.92,1.92,0,0,0-1.888-.056l-.132-.253a2.109,2.109,0,0,1,2.579.461l-.19.207C237.629,233.085,237.247,232.861,236.5,233.223Z" transform="translate(-235.255 -232.167)" fill="#cad0d7"/>
    </g>
    <g id="Group_51723" data-name="Group 51723" transform="translate(113.136 1023.264)">
      <path id="Path_563981" data-name="Path 563981" d="M256.742,163.779a4.929,4.929,0,0,1-.867-2.7c-.882.191-4.844.823-7.076-2.6a2.961,2.961,0,0,1-3.254.529,2.466,2.466,0,0,1-1.525-1.545,2.412,2.412,0,0,1,.544-2.43,2.571,2.571,0,0,1,2.513-.743,2.064,2.064,0,0,1,.227.072c.51-.489,3.7-3.243,8.35-.635,1.981,1.11,2.835,3.2,2.472,6.054a14.783,14.783,0,0,1-1.144,3.976Zm-.768-3.019.181.135a5.029,5.029,0,0,0,.673,2.5c.53-1.25,2.753-7.144-1.314-9.423-4.868-2.728-8.041.617-8.073.651l-.163.033a1.7,1.7,0,0,0-.273-.094,2.285,2.285,0,0,0-2.234.661,2.13,2.13,0,0,0-.482,2.146,2.152,2.152,0,0,0,1.354,1.367,2.586,2.586,0,0,0,3.062-.581l.235.012C251.312,162.027,255.927,160.773,255.974,160.76Z" transform="translate(-243.895 -152.616)" fill="#cad0d7"/>
    </g>
    <g id="Group_51724" data-name="Group 51724" transform="translate(113.97 1029.248)">
      <path id="Path_563982" data-name="Path 563982" d="M250.414,199.762c-1.2-1.963-.451-5.061-.418-5.192l.277.069c-.008.031-.756,3.115.384,4.974Z" transform="translate(-249.733 -194.57)" fill="#cad0d7"/>
    </g>
    <g id="Group_51725" data-name="Group 51725" transform="translate(117.747 1043.132)">
      <path id="Path_563983" data-name="Path 563983" d="M278.944,292.4a5.108,5.108,0,0,1-2.678-.763l-.054-.1v-3.795h.285v3.731a4.643,4.643,0,0,0,4.849,0v-3.727h.285v3.795l-.062.1A5.007,5.007,0,0,1,278.944,292.4Z" transform="translate(-276.212 -287.747)" fill="#cad0d7" stroke="#cad0d7" stroke-width="1"/>
    </g>
    <g id="Group_51726" data-name="Group 51726" transform="translate(120.594 1042.557)">
      <path id="Path_563984" data-name="Path 563984" d="M296.177,288.5l2.385,1.559v-2.183a6.152,6.152,0,0,1-1.065.389C297.019,288.37,296.177,288.5,296.177,288.5Z" transform="translate(-296.177 -287.873)" fill="#cad0d7"/>
    </g>
    <g id="Group_51727" data-name="Group 51727" transform="translate(107.882 1046.674)">
      <path id="Path_563985" data-name="Path 563985" d="M207.267,321.138l-.209-.194a10.682,10.682,0,0,1,1.864-1.576,12.964,12.964,0,0,1,1.248-.737,18.887,18.887,0,0,1,6.889-1.9l.014.285a18.582,18.582,0,0,0-6.771,1.864,12.712,12.712,0,0,0-1.22.721A10.391,10.391,0,0,0,207.267,321.138Z" transform="translate(-207.058 -316.735)" fill="#cad0d7" stroke="#cad0d7" stroke-linecap="round" stroke-linejoin="round" stroke-width="1"/>
    </g>
    <g id="Group_51728" data-name="Group 51728" transform="translate(122.968 1046.675)">
      <path id="Path_563986" data-name="Path 563986" d="M322.568,320.647q-.173-.131-.35-.253a16.737,16.737,0,0,0-2.788-1.579,22.741,22.741,0,0,0-6.612-1.794l.023-.284a23.055,23.055,0,0,1,6.705,1.818,17.013,17.013,0,0,1,2.834,1.606c.12.083.24.17.359.259Z" transform="translate(-312.818 -316.737)" fill="#cad0d7" stroke="#cad0d7" stroke-linecap="round" stroke-linejoin="round" stroke-width="1"/>
    </g>
    <g id="Group_51731" data-name="Group 51731" transform="matrix(0.966, 0.259, -0.259, 0.966, 120.626, 1037.995)">
      <path id="Path_563989" data-name="Path 563989" d="M1.583,0l.3.054C1.7,1.343.161,1.923.1,1.947L0,1.621C.014,1.615,1.429,1.081,1.583,0Z" fill="#cad0d7" stroke="#cad0d7" stroke-linejoin="round" stroke-width="0.5"/>
    </g>
    <g id="Group_51732" data-name="Group 51732" transform="translate(119.762 1036.675)">
      <path id="Path_563990" data-name="Path 563990" d="M290.338,248.133l.175.751.612.748a1.653,1.653,0,0,1,.747-.911c.594-.341.938-.587.938-.587l-.254-1.5s-.572,1.122-1.207,1.281S290.338,248.133,290.338,248.133Z" transform="translate(-290.338 -246.634)" fill="none"/>
    </g>
    <g id="Group_51734" data-name="Group 51734" transform="translate(117.919 1028.877)">
      <path id="Path_563993" data-name="Path 563993" d="M278.928,194.486a3.419,3.419,0,0,1-1.505-2.492l.284-.026a3.188,3.188,0,0,0,1.363,2.271Z" transform="translate(-277.423 -191.968)" fill="#cad0d7"/>
    </g>
    <g id="Group_51735" data-name="Group 51735" transform="translate(113.287 1023.403)">
      <path id="Path_563994" data-name="Path 563994" d="M249.82,159.147a2.836,2.836,0,0,1-1.578.756,3.241,3.241,0,0,1-2.947-1.157,2.284,2.284,0,0,1,.618-3.089,2.709,2.709,0,0,1,2.33-.3,6.879,6.879,0,0,1,4.918-1.754c2.89.223,5.858,2.008,5.811,5.346s-1.089,5.431-1.3,5.447-.479-1.323-.479-1.323l-.357-.928.059-.363-.714.088a9.631,9.631,0,0,1-3.038-.182,7.635,7.635,0,0,1-2.744-1.7Z" transform="translate(-244.952 -153.587)" fill="#cad0d7"/>
    </g>
    <g id="Group_51736" data-name="Group 51736" transform="translate(114.055 1029.018)">
      <path id="Path_563995" data-name="Path 563995" d="M250.907,192.956s-.789.757-.509,3.325l.509,1.718.147-.128.054-1.925.258-1.256.859-1.412Z" transform="translate(-250.338 -192.956)" fill="#cad0d7"/>
    </g>
  </g>
</svg>
