<svg xmlns="http://www.w3.org/2000/svg" xmlns:xlink="http://www.w3.org/1999/xlink" width="39" height="39" viewBox="0 0 39 39">
  <defs>
    <clipPath id="clip-path">
      <rect id="Rectangle_24052" data-name="Rectangle 24052" width="39" height="39" fill="none"/>
    </clipPath>
  </defs>
  <g id="Group_52529" data-name="Group 52529" transform="translate(-0.5 -0.5)">
    <g id="Group_52528" data-name="Group 52528" transform="translate(0.5 0.5)" clip-path="url(#clip-path)">
      <path id="Path_566086" data-name="Path 566086" d="M38.743,19.371A19.374,19.374,0,0,1,21.566,38.619c-.091.011-.182.02-.273.029q-.948.093-1.922.094a19.44,19.44,0,0,1-3.522-.32c-.124-.021-.246-.046-.369-.071h0a19.193,19.193,0,0,1-5.012-1.773c-.093-.048-.186-.1-.278-.147a19.44,19.44,0,0,1-5.325-4.224c-.066-.075-.132-.151-.2-.228A19.371,19.371,0,1,1,38.743,19.371" transform="translate(-0.275 -0.275)" fill="#cad0d7"/>
      <path id="Path_566087" data-name="Path 566087" d="M160.952,172.869c-.012-.043-.023-.086-.036-.128-.038-.128-.079-.254-.124-.379s-.091-.246-.141-.365a9.542,9.542,0,0,1-.9-2.636,7.034,7.034,0,0,1,.508-2.632,4.7,4.7,0,0,0,.166-2.268c-.165-.84-.545-1.618-.781-2.438-.537-1.87.23-3.753.244-5.643,0-.091,0-.182,0-.273,0-.115-.006-.229-.012-.344s-.012-.22-.019-.33q-.007-.1-.018-.2c0-.058-.012-.117-.018-.175l-.02-.174c-.016-.128-.034-.255-.055-.383-.017-.105-.034-.209-.054-.313-.011-.058-.022-.116-.034-.173s-.023-.114-.036-.17a.012.012,0,0,0,0-.006l-.038-.167c-.014-.057-.027-.114-.042-.171s-.028-.114-.044-.17-.03-.113-.047-.169-.03-.108-.047-.162c-.024-.083-.05-.165-.077-.248-.016-.052-.032-.1-.051-.154-.012-.036-.023-.072-.037-.108l-.041-.118a12.009,12.009,0,0,0-.5-1.185c-.017-.036-.034-.071-.052-.106l-.035-.069c-.023-.048-.048-.094-.072-.141a.128.128,0,0,0-.085-.07.143.143,0,0,0-.056-.073,1.382,1.382,0,0,0-.3-.162l-.044-.017-.033-.012-.023-.007a.437.437,0,0,0-.051-.015.985.985,0,0,0-.1-.023,1.416,1.416,0,0,0-.356-.021h-.01l-.091.009-.088.014-.021,0c-.024,0-.05.011-.074.018l-.018,0-.048.014-.055.018a1.462,1.462,0,0,0-.16.063c-.022.01-.045.02-.066.032l-.058.03a1.378,1.378,0,0,0-.134.082l-.06.043s0,0,0,0l-.058.045-.058.049a.679.679,0,0,0-.056.051c-.016.014-.03.028-.045.044s-.032.031-.047.048-.033.036-.049.055a1.232,1.232,0,0,0-.078.1,4.041,4.041,0,0,0-.527,2.889,11.881,11.881,0,0,1,.244,3.737c-.225,1.1-.81,2.085-.963,3.2a7.474,7.474,0,0,0,.566,3.1,7.158,7.158,0,0,1-.11,3.909,17.153,17.153,0,0,0-.843,4.166c0,.05,0,.1,0,.148s0,.124.008.185c0,.025,0,.05,0,.075s0,.058.008.088l0,.029c0,.03.006.061.01.092.006.05.012.1.02.146.011.076.024.152.039.227a.149.149,0,0,0,0,.022c.007.033.015.065.022.1a.191.191,0,0,0,.008.032c.006.025.012.051.019.076a.5.5,0,0,0,.018.066q.012.045.026.091a.018.018,0,0,0,0,.008c.012.039.024.079.038.118s.028.081.044.122c.029.081.063.162.1.24.018.04.037.079.056.119.123.025.245.05.369.071-1.1-1.9-.183-4.2.322-6.14a8.226,8.226,0,0,0,.331-3.048c-.116-.952-.545-1.822-.729-2.758a5.49,5.49,0,0,1,.476-3.031,6.693,6.693,0,0,0,.522-2.735c-.063-1.132-.4-2.239-.376-3.377a3.051,3.051,0,0,1,.518-1.784,1.647,1.647,0,0,1,.219-.238,1.5,1.5,0,0,1,.412-.265,1.184,1.184,0,0,1,1.175.113.129.129,0,0,0,.027.016.212.212,0,0,0,.009.022c.028.054.055.108.083.163a11.394,11.394,0,0,1,1.22,4.778,14.223,14.223,0,0,1-.239,2.755,8.934,8.934,0,0,0-.168,2.533c.2,1.641,1.285,3.054.955,4.762-.152.791-.491,1.533-.63,2.327a4.281,4.281,0,0,0,.22,2.186c.406,1.166,1.308,2.645,1.1,3.948.091-.009.182-.018.273-.029.007-.055.013-.111.017-.166l0-.055,0-.074c0-.034,0-.067,0-.1a4.555,4.555,0,0,0-.17-1.175" transform="translate(-139.807 -136.096)" fill="#6e98c2"/>
      <path id="Path_566088" data-name="Path 566088" d="M160.952,172.869c-.012-.043-.023-.086-.036-.128-.038-.128-.079-.254-.124-.379s-.091-.246-.141-.365a9.542,9.542,0,0,1-.9-2.636,7.034,7.034,0,0,1,.508-2.632,4.7,4.7,0,0,0,.166-2.268c-.165-.84-.545-1.618-.781-2.438-.537-1.87.23-3.753.244-5.643,0-.091,0-.182,0-.273,0-.115-.006-.229-.012-.344s-.012-.22-.019-.33q-.007-.1-.018-.2c0-.058-.012-.117-.018-.175l-.02-.174c-.016-.128-.034-.255-.055-.383-.017-.105-.034-.209-.054-.313-.011-.058-.022-.116-.034-.173s-.023-.114-.036-.17a.012.012,0,0,0,0-.006l-.038-.167c-.014-.057-.027-.114-.042-.171s-.028-.114-.044-.17-.03-.113-.047-.169-.03-.108-.047-.162c-.024-.083-.05-.165-.077-.248-.016-.052-.032-.1-.051-.154-.012-.036-.023-.072-.037-.108l-.041-.118a12.009,12.009,0,0,0-.5-1.185c-.017-.036-.034-.071-.052-.106l-.035-.069c-.023-.048-.048-.094-.072-.141a.128.128,0,0,0-.085-.07.143.143,0,0,0-.056-.073,1.382,1.382,0,0,0-.3-.162l-.044-.017-.033-.012-.023-.007a.437.437,0,0,0-.051-.015.985.985,0,0,0-.1-.023,1.416,1.416,0,0,0-.356-.021h-.01l-.091.009-.088.014-.021,0c-.024,0-.05.011-.074.018l-.018,0-.048.014-.055.018a1.462,1.462,0,0,0-.16.063c-.022.01-.045.02-.066.032l-.058.03a1.378,1.378,0,0,0-.134.082l-.06.043s0,0,0,0l-.058.045-.058.049a.679.679,0,0,0-.056.051c-.016.014-.03.028-.045.044s-.032.031-.047.048-.033.036-.049.055a1.232,1.232,0,0,0-.078.1,4.041,4.041,0,0,0-.527,2.889,11.881,11.881,0,0,1,.244,3.737c-.225,1.1-.81,2.085-.963,3.2a7.474,7.474,0,0,0,.566,3.1,7.158,7.158,0,0,1-.11,3.909,17.153,17.153,0,0,0-.843,4.166c0,.05,0,.1,0,.148s0,.124.008.185c0,.025,0,.05,0,.075s0,.058.008.088l0,.029c0,.03.006.061.01.092.006.05.012.1.02.146.011.076.024.152.039.227a.149.149,0,0,0,0,.022c.007.033.015.065.022.1a.191.191,0,0,0,.008.032c.006.025.012.051.019.076a.5.5,0,0,0,.018.066q.012.045.026.091a.018.018,0,0,0,0,.008c.012.039.024.079.038.118s.028.081.044.122c.029.081.063.162.1.24.017.04.036.08.055.119h0c.123.025.245.05.369.071a19.44,19.44,0,0,0,3.522.32q.972,0,1.922-.094c.091-.009.182-.018.273-.029.007-.055.013-.111.017-.166l0-.055,0-.074c0-.034,0-.067,0-.1a4.555,4.555,0,0,0-.17-1.175" transform="translate(-139.807 -136.096)" fill="#9da1a5"/>
      <path id="Path_566089" data-name="Path 566089" d="M54.553,151.937c.324-2.284-.5-4.524-1.315-6.62-.018-.043-.034-.087-.051-.129a.221.221,0,0,0-.016-.03,1.185,1.185,0,0,0-.068-.475A1.115,1.115,0,0,0,51.709,144a.146.146,0,0,0-.2,0,4.266,4.266,0,0,0-.441.452c-1.774,2.108-.9,5.277-1.109,7.805a6.912,6.912,0,0,1-.775,2.62,7.889,7.889,0,0,0-.846,2.061c-.318,1.674.493,3.318-.365,4.914l-.035.065c.065.077.131.153.2.228a5.24,5.24,0,0,0,.31-.6c.587-1.423-.054-2.915.154-4.38.209-1.486,1.3-2.674,1.559-4.165a27.178,27.178,0,0,0,.042-4.5,6.156,6.156,0,0,1,1.053-3.792,3.721,3.721,0,0,1,.344-.382.15.15,0,0,0,.1-.008.834.834,0,0,1,1.177.872.153.153,0,0,0,.043.129l.036.093a15.617,15.617,0,0,1,1.374,5.44,8.514,8.514,0,0,1-.517,2.772,8.287,8.287,0,0,0-.568,2.515,7.983,7.983,0,0,0,.518,2.392,7.773,7.773,0,0,1,.326,2.892c-.07,1.022-.2,2.042-.3,3.062a5.662,5.662,0,0,1-.33,1.888c.092.05.185.1.278.147a6.244,6.244,0,0,0,.353-2.131c.112-1.111.267-2.228.31-3.344a8.606,8.606,0,0,0-.483-2.992,5.45,5.45,0,0,1-.183-3.206,25.126,25.126,0,0,0,.815-2.9" transform="translate(-43.548 -130.208)" fill="#6e98c2"/>
      <path id="Path_566090" data-name="Path 566090" d="M54.553,151.937c.324-2.284-.5-4.524-1.315-6.62-.018-.043-.034-.087-.051-.129a.221.221,0,0,0-.016-.03,1.185,1.185,0,0,0-.068-.475A1.115,1.115,0,0,0,51.709,144a.146.146,0,0,0-.2,0,4.266,4.266,0,0,0-.441.452c-1.774,2.108-.9,5.277-1.109,7.805a6.912,6.912,0,0,1-.775,2.62,7.889,7.889,0,0,0-.846,2.061c-.318,1.674.493,3.318-.365,4.914l-.035.065c.065.077.131.153.2.228a19.44,19.44,0,0,0,5.325,4.224c.092.05.185.1.278.147a6.244,6.244,0,0,0,.353-2.131c.112-1.111.267-2.228.31-3.344a8.606,8.606,0,0,0-.483-2.992,5.45,5.45,0,0,1-.183-3.206,25.126,25.126,0,0,0,.815-2.9" transform="translate(-43.548 -130.208)" fill="#9da1a5"/>
      <path id="Path_566091" data-name="Path 566091" d="M73.453,103.488a.519.519,0,0,0-.359.564c.24,1.63,1.142,2.844,2.234,2.855,1.29.013,2.353-1.659,2.375-3.735a5.72,5.72,0,0,0-.188-1.534.523.523,0,0,0-.87-.231,8.3,8.3,0,0,1-3.192,2.081" transform="translate(-66.249 -91.676)" fill="#fff"/>
      <path id="Path_566092" data-name="Path 566092" d="M165.625,104.123a.519.519,0,0,1,.347.571c-.273,1.625-1.2,2.82-2.291,2.809-1.29-.013-2.319-1.707-2.3-3.782a5.721,5.721,0,0,1,.219-1.53.523.523,0,0,1,.874-.214,8.3,8.3,0,0,0,3.149,2.146" transform="translate(-145.948 -92.184)" fill="#fff"/>
      <path id="Path_566093" data-name="Path 566093" d="M125.33,173.739c-.049-.477-.1-1.708.7-1.64.764.065.646,1.278.607,1.771-.044.562.832.559.876,0,.081-1.027-.119-2.617-1.483-2.647-1.34-.029-1.68,1.469-1.573,2.516.057.555.933.561.876,0" transform="translate(-112.597 -154.83)" fill="#9da1a5"/>
      <path id="Path_566094" data-name="Path 566094" d="M98,142.584a.584.584,0,1,1,.584.584.584.584,0,0,1-.584-.584" transform="translate(-88.735 -128.452)" fill="#9da1a5"/>
      <path id="Path_566095" data-name="Path 566095" d="M171,142.584a.584.584,0,1,1,.584.584.584.584,0,0,1-.584-.584" transform="translate(-154.629 -128.452)" fill="#9da1a5"/>
    </g>
  </g>
</svg>
