<svg xmlns="http://www.w3.org/2000/svg" width="21.014" height="25" viewBox="0 0 21.014 25">
  <g id="Group_42724" data-name="Group 42724" transform="translate(-245.493 -243.5)">
    <g id="Group_42723" data-name="Group 42723">
      <path id="Path_304362" data-name="Path 304362" d="M265.951,261.855a.944.944,0,0,0-1.856.345.941.941,0,0,1-.928,1.113H248.833a.936.936,0,0,1-.726-.339.925.925,0,0,1-.2-.774,9.643,9.643,0,0,1,1.325-3.254,7.377,7.377,0,0,0,1.284-3.977v-1.407a5.477,5.477,0,0,1,5.4-5.436h.178a5.468,5.468,0,0,1,5.379,5.437v1.406a6.6,6.6,0,0,0,.949,3.352.945.945,0,0,0,.831.492.956.956,0,0,0,.449-.113.935.935,0,0,0,.381-1.271,4.749,4.749,0,0,1-.722-2.46v-1.406a7.34,7.34,0,0,0-6.421-7.255v-1.37a.944.944,0,0,0-1.888,0v1.372a7.365,7.365,0,0,0-6.421,7.253v1.406a5.627,5.627,0,0,1-1.035,3.046,11.341,11.341,0,0,0-1.542,3.84,2.792,2.792,0,0,0,.605,2.316,2.832,2.832,0,0,0,2.179,1.017h4.344a2.833,2.833,0,0,0,5.665,0h4.325a2.831,2.831,0,0,0,2.179-1.017A2.788,2.788,0,0,0,265.951,261.855Zm-9.942,4.27a.942.942,0,0,1-.944-.937h1.889A.943.943,0,0,1,256.009,266.125Z" fill="#cad0d7" stroke="#cad0d7" stroke-width="1"/>
    </g>
  </g>
</svg>
