<svg xmlns="http://www.w3.org/2000/svg" width="22.7" height="24.7" viewBox="0 0 22.7 24.7">
  <g id="layer1" transform="translate(0.35 0.35)">
    <path id="path4871-0" d="M11.658,288.666a5.233,5.233,0,1,0,0,10.454,5.234,5.234,0,1,0,0-10.454Zm0,2.327a2.907,2.907,0,1,1,0,5.807,2.907,2.907,0,1,1,0-5.807ZM3.241,302.741h0c-1.379.874.044,2.828,1.391,1.91,2.61-1.755,9.965-2.6,14.075-.012a2.793,2.793,0,0,1,1.51,2.413v1.356a1.958,1.958,0,0,1-2.037,1.936H5.143a1.958,1.958,0,0,1-2.037-1.936V307a1.223,1.223,0,0,0-2.444,0v1.4a4.391,4.391,0,0,0,4.481,4.258H18.18a4.391,4.391,0,0,0,4.481-4.258v-1.356a5.267,5.267,0,0,0-2.548-4.313c-4.021-2.621-12.133-3-16.872,0Z" transform="translate(-0.661 -288.666)" fill="#cad0d7" stroke="#cad0d7" stroke-width="0.7"/>
  </g>
</svg>
