<svg xmlns="http://www.w3.org/2000/svg" width="20" height="20" viewBox="0 0 20 20">
  <path id="fi-br-calendar" d="M15.417,1.667H15V1.25A1.25,1.25,0,0,0,13.75,0h0A1.25,1.25,0,0,0,12.5,1.25v.417h-5V1.25A1.25,1.25,0,0,0,6.25,0h0A1.25,1.25,0,0,0,5,1.25v.417H4.583A4.583,4.583,0,0,0,0,6.25v9.167A4.583,4.583,0,0,0,4.583,20H15.417A4.583,4.583,0,0,0,20,15.417V6.25A4.583,4.583,0,0,0,15.417,1.667Zm0,15.833H4.583A2.083,2.083,0,0,1,2.5,15.417V8.333h15v7.083A2.083,2.083,0,0,1,15.417,17.5Z" fill="#fa6c51"/>
</svg>
