<svg id="fi-br-clock" xmlns="http://www.w3.org/2000/svg" width="20" height="20" viewBox="0 0 20 20">
  <path id="Path_305828" data-name="Path 305828" d="M10,0A10,10,0,1,0,20,10,10,10,0,0,0,10,0Zm0,17.5A7.5,7.5,0,1,1,17.5,10,7.5,7.5,0,0,1,10,17.5Z" fill="#fa6c51"/>
  <path id="Path_305829" data-name="Path 305829" d="M9.983,10.258l-2,1.25a1.25,1.25,0,0,0-.4,1.723h0a1.25,1.25,0,0,0,1.723.4l2.391-1.5a1.667,1.667,0,0,0,.782-1.417V7.522a1.25,1.25,0,0,0-1.25-1.25h0a1.25,1.25,0,0,0-1.25,1.25Z" transform="translate(-1.233 -1.045)" fill="#fa6c51"/>
</svg>
