<svg xmlns="http://www.w3.org/2000/svg" width="18.787" height="17.66" viewBox="0 0 18.787 17.66">
  <g id="Group_52898" data-name="Group 52898" transform="translate(-215 -302.636)">
    <g id="Group_52893" data-name="Group 52893">
      <path id="Path_562741" data-name="Path 562741" d="M10.486,4.114a1.75,1.75,0,0,1,3.027,0l2.065,3.559a1.25,1.25,0,0,0,.894.609L19.9,8.8a1.75,1.75,0,0,1,.855,3.078l-2.5,2.07a1.25,1.25,0,0,0-.43,1.2l.7,3.676A1.75,1.75,0,0,1,15.994,20.7l-3.412-1.8a1.25,1.25,0,0,0-1.165,0L8.006,20.7a1.75,1.75,0,0,1-2.534-1.876l.7-3.676a1.25,1.25,0,0,0-.43-1.2l-2.5-2.07A1.75,1.75,0,0,1,4.1,8.8l3.43-.518a1.25,1.25,0,0,0,.894-.609Zm1.73.753a.25.25,0,0,0-.432,0L9.718,8.426A2.75,2.75,0,0,1,7.751,9.765l-3.43.518a.25.25,0,0,0-.122.44l2.5,2.07a2.75,2.75,0,0,1,.947,2.632l-.7,3.676a.25.25,0,0,0,.362.268l3.412-1.8a2.75,2.75,0,0,1,2.562,0l3.412,1.8a.25.25,0,0,0,.362-.268l-.7-3.676a2.75,2.75,0,0,1,.947-2.632l2.5-2.07a.25.25,0,0,0-.122-.44l-3.43-.518a2.75,2.75,0,0,1-1.968-1.339Z" transform="translate(212.394 299.394)" fill="#9ed26a" fill-rule="evenodd"/>
    </g>
  </g>
</svg>
