<svg xmlns="http://www.w3.org/2000/svg" width="10.143" height="17.296" viewBox="0 0 10.143 17.296">
  <g id="Group_52899" data-name="Group 52899" transform="translate(-55 -398)">
    <g id="Group_52895" data-name="Group 52895">
      <path id="Path_562742" data-name="Path 562742" d="M10.419,4.231a1.25,1.25,0,0,1,2.331.627V16.539a2.75,2.75,0,0,1-1.469,2.433L8.006,20.7a1.75,1.75,0,0,1-2.534-1.876l.7-3.676a1.25,1.25,0,0,0-.43-1.2l-2.5-2.07A1.75,1.75,0,0,1,4.1,8.8l3.43-.518a1.25,1.25,0,0,0,.894-.609Zm.831,1.556L9.718,8.426A2.75,2.75,0,0,1,7.751,9.765l-3.43.518a.25.25,0,0,0-.122.44l2.5,2.07a2.75,2.75,0,0,1,.947,2.632l-.7,3.676a.25.25,0,0,0,.362.268l3.276-1.725a1.25,1.25,0,0,0,.668-1.106Z" transform="translate(52.394 394.394)" fill="#f6dc10" fill-rule="evenodd"/>
    </g>
  </g>
</svg>
