<svg xmlns="http://www.w3.org/2000/svg" width="14.538" height="22.566" viewBox="0 0 14.538 22.566">
  <g id="question-mark-svgrepo-com" transform="translate(-142.61 -945.208)">
    <path id="Path_306615" data-name="Path 306615" d="M397.362,788.2h-.91a1.132,1.132,0,0,0-1.162,1.1v1.187a1.132,1.132,0,0,0,1.162,1.1h.91a1.132,1.132,0,0,0,1.162-1.1V789.3A1.131,1.131,0,0,0,397.362,788.2Z" transform="translate(-246.81 176.193)" fill="#cad0d7"/>
    <path id="Path_306616" data-name="Path 306616" d="M143.207,7.241l1.832.274a1.266,1.266,0,0,0,1.342-.97,4.812,4.812,0,0,1,1.1-1.959,3.369,3.369,0,0,1,2.492-1.013,3.218,3.218,0,0,1,2.458.97,3.284,3.284,0,0,1,.911,2.334,3.293,3.293,0,0,1-.514,1.794,18.508,18.508,0,0,1-2.044,2.176,9.936,9.936,0,0,0-2.28,2.992,8.086,8.086,0,0,0-.558,2.921,1.423,1.423,0,0,0,1.268,1.584h1.036a1.389,1.389,0,0,0,1.264-1.391,4.485,4.485,0,0,1,.239-1.285,6.851,6.851,0,0,1,1.536-1.979,18,18,0,0,0,3.124-3.757,6.176,6.176,0,0,0,.731-2.926,6.917,6.917,0,0,0-1.987-4.9A7,7,0,0,0,149.814,0a6.769,6.769,0,0,0-5.159,2.078,7.584,7.584,0,0,0-2.033,4.193A.812.812,0,0,0,143.207,7.241Z" transform="translate(0 945.208)" fill="#cad0d7"/>
  </g>
</svg>
