<svg xmlns="http://www.w3.org/2000/svg" xmlns:xlink="http://www.w3.org/1999/xlink" width="335" height="253" viewBox="0 0 335 253">
  <defs>
    <clipPath id="clip-path">
      <path id="Rectangle_15402" data-name="Rectangle 15402" d="M5,0H320a15,15,0,0,1,15,15V238a15,15,0,0,1-15,15H15A15,15,0,0,1,0,238V5A5,5,0,0,1,5,0Z" fill="#fff"/>
    </clipPath>
    <radialGradient id="radial-gradient" cx="0.5" cy="0.5" r="0.5" gradientUnits="objectBoundingBox">
      <stop offset="0" stop-color="#fff" stop-opacity="0"/>
      <stop offset="1" stop-color="#fff"/>
    </radialGradient>
  </defs>
  <g id="Group_44295" data-name="Group 44295" transform="translate(3609 4398)">
    <path id="Rectangle_15401" data-name="Rectangle 15401" d="M5,0H320a15,15,0,0,1,15,15V238a15,15,0,0,1-15,15H15A15,15,0,0,1,0,238V5A5,5,0,0,1,5,0Z" transform="translate(-3609 -4398)" fill="#fff"/>
    <g id="Mask_Group_172" data-name="Mask Group 172" transform="translate(-3609 -4398)" clip-path="url(#clip-path)">
      <path id="Path_306612" data-name="Path 306612" d="M1905,63.068V24h-30.99L1419.77,309.494l-.005,0q-.41-.644-.873-1.245l.008-.006L1795.93,24h-64.85l-313.2,283.029-.014.013q-.52-.558-1.089-1.069l.013-.015L1679.76,24h-45.63L1415.55,304.957l-.007.01q-.615-.455-1.268-.855l.005-.009L1595.89,24H1560.2L1412.88,303.326l-.008.015q-.687-.336-1.407-.613l.005-.011L1528.96,24h-30.32l-88.68,278.226v0c-.488-.137-.983-.256-1.488-.35L1471.14,24h-27.62l-36.63,277.656c-.5-.046-1.008-.073-1.52-.075v0L1417.66,24h-26.8l12.93,277.647v0c-.507.043-1.006.114-1.5.2v-.006L1364.99,24h-27.64l63.41,278.177,0,.012c-.486.131-.961.283-1.429.454l0-.014L1309.81,24h-30.37l118.45,279.218.01.024q-.673.318-1.312.689l-.008-.016L1248.14,24h-35.8L1395.3,304.75l0,.007c-.4.283-.786.579-1.158.894l-.006-.007L1173.98,24h-45.81l264.86,282.675,0,0c-.339.343-.667.7-.976,1.066L1076.63,24h-65.21l379.726,284.941c-.269.389-.514.794-.75,1.205l-.006,0L932.84,24H905V64.9l484.72,246.554.005,0c-.195.425-.369.862-.528,1.306l-.007,0L905,115.914v49.527l483.75,148.718.016,0c-.118.448-.218.9-.3,1.362l-.009,0L905,210.362v45.107l483.27,61.489h.01c-.038.455-.07.91-.07,1.374L905,297.709v43.762l483.28-21.7h0c.039.458.1.907.18,1.353l-.013,0L905,383.73v45.137l483.75-106.351.014,0c.114.439.243.872.393,1.3l-.007,0L905,473.847v49.615l484.67-198.323.011,0c.187.414.382.826.6,1.222h0L905,574.58v38.675h31.48l454.55-285.69h0c.251.374.524.733.805,1.086l-.006,0-377.49,284.6h64.68l313.74-283.52.011-.011c.311.33.635.645.972.95l-.013.014L1130.19,613.255h45.51l219.13-281.664.006-.007c.362.276.731.542,1.116.79l0,0L1213.83,613.255h35.6L1397.18,333.1h0c.4.213.819.4,1.24.587v0L1280.58,613.255h30.24L1399.76,334.2l0-.008c.436.146.881.272,1.332.384l0,.017-62.84,278.658h27.54l36.72-278.374,0-.013c.454.074.912.135,1.378.171v.009l-12.31,278.207h26.72l-12.95-278.148v0c.472,0,.937-.03,1.4-.07v0l37.36,278.217h27.56l-63.46-278.4,0-.007c.467-.08.924-.179,1.377-.295l.005.017,89.54,278.688h30.29l-118.41-279.12-.005-.013c.448-.157.889-.327,1.319-.52l.006.012,148.31,279.641h35.69L1413.67,332.946l-.005-.008c.419-.234.832-.477,1.229-.743l219.7,281.06h45.68L1416.1,331.308c.376-.3.734-.627,1.082-.959l.006,0,314.5,282.9h65.03L1418.23,329.263l-.007-.006c.32-.365.62-.746.908-1.139l.009.006,455.94,285.13H1905V573.568L1419.98,326.857l-.009,0c.253-.419.485-.85.7-1.29l.019.008L1905,522.46V472.855l-483.71-148.7-.012,0c.172-.456.324-.918.456-1.392h.006L1905,427.865V382.7l-482.92-61.44h0c.087-.485.157-.975.2-1.473h0L1905,340.381V296.55l-482.65,21.685h0q0-.754-.076-1.493L1905,254.222V209.016L1422.043,315.2c-.1-.5-.218-.981-.358-1.461h0L1905,163.958V114.274l-483.82,197.97-.008,0c-.187-.468-.4-.925-.623-1.372l.011-.006Z" transform="translate(-1237 -219.436)" fill="#f4f6f8"/>
    </g>
    <path id="Rectangle_15403" data-name="Rectangle 15403" d="M5,0H320a15,15,0,0,1,15,15V238a15,15,0,0,1-15,15H15A15,15,0,0,1,0,238V5A5,5,0,0,1,5,0Z" transform="translate(-3609 -4398)" fill="url(#radial-gradient)"/>
  </g>
</svg>
