<svg xmlns="http://www.w3.org/2000/svg" xmlns:xlink="http://www.w3.org/1999/xlink" width="375" height="812" viewBox="0 0 375 812">
  <defs>
    <clipPath id="clip-path">
      <rect id="Rectangle_15399" data-name="Rectangle 15399" width="375" height="812" fill="#fff"/>
    </clipPath>
    <clipPath id="clip-path-2">
      <path id="Rectangle_13717" data-name="Rectangle 13717" d="M5,0H968a15,15,0,0,1,15,15V910a15,15,0,0,1-15,15H15A15,15,0,0,1,0,910V5A5,5,0,0,1,5,0Z" transform="translate(0.024 -0.321)" fill="#fff"/>
    </clipPath>
    <radialGradient id="radial-gradient" cx="0.5" cy="0.5" r="0.5" gradientUnits="objectBoundingBox">
      <stop offset="0" stop-color="#fff" stop-opacity="0"/>
      <stop offset="1" stop-color="#fff"/>
    </radialGradient>
  </defs>
  <g id="Group_44296" data-name="Group 44296" transform="translate(4018 4398)">
    <g id="Group_44289" data-name="Group 44289" transform="translate(17 17)">
      <rect id="Rectangle_15404" data-name="Rectangle 15404" width="375" height="812" transform="translate(-4035 -4415)" fill="#fff"/>
      <g id="Mask_Group_171" data-name="Mask Group 171" transform="translate(-4035 -4415)" clip-path="url(#clip-path)">
        <g id="Mask_Group_162" data-name="Mask Group 162" transform="translate(-304.024 -4.679)" clip-path="url(#clip-path-2)">
          <path id="Path_305624" data-name="Path 305624" d="M3423.406,97.8V24H3345.36L2201.4,563.293l-.013.007q-1.031-1.216-2.2-2.352l.02-.011L3148.723,24H2985.4L2196.64,558.637l-.036.024q-1.31-1.055-2.742-2.018l.033-.028L2856.16,24H2741.245L2190.772,554.722l-.018.019q-1.549-.86-3.193-1.616l.012-.017L2644.942,24h-89.882L2184.048,551.643l-.021.028q-1.73-.635-3.543-1.158l.012-.02L2476.385,24h-76.358L2176.694,549.565l0,.006c-1.229-.258-2.476-.484-3.747-.66L2330.77,24h-69.558l-92.249,524.487c-1.262-.087-2.539-.137-3.828-.141v-.006L2196.086,24h-67.493l32.563,524.47v.005c-1.277.082-2.533.215-3.775.377l0-.011L2063.441,24h-69.609l159.693,525.472.007.022c-1.224.247-2.42.534-3.6.857l-.01-.026L1924.476,24h-76.484L2146.3,551.439l.025.045q-1.7.6-3.3,1.3l-.02-.03L1769.166,24h-90.159l460.768,530.333.01.013c-1,.534-1.979,1.094-2.916,1.688l-.015-.013L1582.4,24H1467.033l667.025,533.969.008.006c-.854.647-1.68,1.313-2.458,2.013L1337.234,24H1173.009l956.3,538.249c-.678.735-1.295,1.5-1.889,2.276l-.015-.007L975.112,24H905v77.267L2125.721,567l.013.006a27.1,27.1,0,0,0-1.33,2.467l-.018-.006L905,197.624v93.555L2123.279,572.105l.04.009a23.608,23.608,0,0,0-.748,2.573l-.023,0L905,376.034v85.207L2122.07,577.392l.025,0a23.309,23.309,0,0,0-.177,2.6L905,541.031V623.7l1217.1-41h.007a23.547,23.547,0,0,0,.454,2.556l-.033,0L905,703.524v85.263L2123.279,587.892l.036-.006a24.735,24.735,0,0,0,.99,2.451l-.018,0L905,873.753v93.722l1220.6-374.63.028-.009c.471.783.962,1.56,1.516,2.308l-.007,0L905,1064.036v73.056h79.279L2129.021,597.428h0c.632.707,1.32,1.384,2.027,2.052l-.016.007-950.673,537.6h162.89l790.125-535.564.028-.02c.783.623,1.6,1.219,2.448,1.794l-.033.026-663.7,533.765h114.613L2138.59,605.034l.015-.013c.911.521,1.841,1.024,2.811,1.492l-.005.005-458.652,530.574h89.656l372.094-529.2,0,0c1.012.4,2.063.764,3.123,1.109l0,.006-296.769,528.088h76.156l223.987-527.123,0-.015c1.1.276,2.219.514,3.354.725l-.01.031L1996.1,1137.092h69.357l92.476-525.843.005-.024c1.143.139,2.3.254,3.47.323v.017l-31,525.528H2197.7l-32.614-525.417v0c1.189,0,2.36-.057,3.526-.132v.006l94.087,525.546H2332.1l-159.818-525.9,0-.013c1.176-.15,2.327-.338,3.468-.557l.012.032,225.5,526.437h76.283l-298.2-527.253-.013-.024c1.129-.3,2.239-.618,3.322-.981l.015.022,373.5,528.236h89.882l-460.012-529.5-.012-.015c1.055-.441,2.095-.9,3.095-1.4L2742.4,1137.092h115.041L2192.163,604.5c.947-.573,1.848-1.184,2.725-1.812l.015.009,792.039,534.4h163.771L2197.521,600.637l-.018-.011c.806-.69,1.561-1.41,2.287-2.152l.023.011,1148.241,538.607h75.351v-74.967L2201.928,596.092l-.023-.007a29.721,29.721,0,0,0,1.763-2.438l.048.015L3423.406,965.583v-93.7L2205.228,590.99l-.03-.007a26.067,26.067,0,0,0,1.149-2.629l.015,0L3423.406,786.895V701.576L2207.217,585.518h-.005a24.1,24.1,0,0,0,.506-2.783h0l1215.685,38.9v-82.8L2207.9,579.8h-.007a23.96,23.96,0,0,0-.192-2.82l1215.707-118.1V373.492L2207.124,574.07a24.509,24.509,0,0,0-.9-2.76l.013,0,1217.17-282.929V194.526L2204.951,568.487l-.02.006a28.578,28.578,0,0,0-1.569-2.592l.028-.011Z" transform="translate(-1672.679 -272.732)" fill="#f4f6f8"/>
        </g>
        <rect id="Rectangle_13718" data-name="Rectangle 13718" width="375" height="812" fill="url(#radial-gradient)"/>
      </g>
    </g>
  </g>
</svg>
