<svg xmlns="http://www.w3.org/2000/svg" width="15.68" height="18.192" viewBox="0 0 15.68 18.192">
  <g id="Group_47056" data-name="Group 47056" transform="translate(0.35 0.35)">
    <g id="Group_47057" data-name="Group 47057">
      <path id="Path_559400" data-name="Path 559400" d="M0,0H4.823V1.113H0Z" transform="translate(4.303 12.241)" fill="#f96c50" stroke="#f96c50" stroke-linecap="round" stroke-linejoin="round" stroke-width="0.3"/>
      <path id="Path_559398" data-name="Path 559398" d="M40.556,22.023l-4.182-3.662A1.562,1.562,0,0,0,35.362,18h-7.49A1.768,1.768,0,0,0,26,19.64V33.852a1.768,1.768,0,0,0,1.872,1.64H39.107a1.768,1.768,0,0,0,1.872-1.64V22.92A1.2,1.2,0,0,0,40.556,22.023Zm-4.569-2.46,3.208,2.81H37.023a.988.988,0,0,1-1.036-.918Zm3.745,14.289a.589.589,0,0,1-.624.547H27.872a.589.589,0,0,1-.624-.547V19.64a.589.589,0,0,1,.624-.547h6.866v2.361a1.881,1.881,0,0,0,.665,1.422,2.456,2.456,0,0,0,1.62.59h2.709Z" transform="translate(-26 -18)" fill="#f96c50" stroke="#f96c50" stroke-linecap="round" stroke-linejoin="round" stroke-width="0.7"/>
      <rect id="Rectangle_22415" data-name="Rectangle 22415" width="6.677" height="1.113" transform="translate(4.303 7.79)" fill="#f96c50" stroke="#f96c50" stroke-linecap="round" stroke-linejoin="round" stroke-width="0.3"/>
      <path id="Path_559399" data-name="Path 559399" d="M0,0H5.937V1.113H0Z" transform="translate(4.303 10.015)" fill="#f96c50" stroke="#f96c50" stroke-linecap="round" stroke-linejoin="round" stroke-width="0.3"/>
    </g>
  </g>
</svg>
