<svg xmlns="http://www.w3.org/2000/svg" width="13.998" height="13.998" viewBox="0 0 13.998 13.998">
  <g id="Group_49974" data-name="Group 49974" transform="translate(-244 -244)">
    <g id="Group_5250" data-name="Group 5250" transform="translate(248.402 251.683)">
      <g id="Group_5249" data-name="Group 5249">
        <path id="Path_18222" data-name="Path 18222" d="M254.144,257.172a2.6,2.6,0,0,0-2.6,2.6.547.547,0,1,0,1.094,0,1.5,1.5,0,0,1,3.007,0,.547.547,0,1,0,1.094,0A2.6,2.6,0,0,0,254.144,257.172Z" transform="translate(-251.547 -257.172)" fill="#fa6c51"/>
      </g>
    </g>
    <g id="Group_5252" data-name="Group 5252" transform="translate(252.065 248.128)">
      <g id="Group_5251" data-name="Group 5251">
        <path id="Path_18223" data-name="Path 18223" d="M259.2,251.078a1.369,1.369,0,0,0-1.367,1.367.547.547,0,0,0,1.094,0,.274.274,0,0,1,.547,0,.547.547,0,0,0,1.094,0A1.369,1.369,0,0,0,259.2,251.078Z" transform="translate(-257.828 -251.078)" fill="#fa6c51"/>
      </g>
    </g>
    <g id="Group_5254" data-name="Group 5254" transform="translate(247.226 248.128)">
      <g id="Group_5253" data-name="Group 5253">
        <path id="Path_18224" data-name="Path 18224" d="M250.9,251.078a1.369,1.369,0,0,0-1.367,1.367.547.547,0,0,0,1.094,0,.274.274,0,0,1,.547,0,.547.547,0,0,0,1.094,0A1.369,1.369,0,0,0,250.9,251.078Z" transform="translate(-249.531 -251.078)" fill="#fa6c51"/>
      </g>
    </g>
    <g id="Group_5256" data-name="Group 5256" transform="translate(244 244)">
      <g id="Group_5255" data-name="Group 5255">
        <path id="Path_18225" data-name="Path 18225" d="M255.948,246.05a7,7,0,1,0-1.327,10.939.547.547,0,0,0-.566-.936,5.958,5.958,0,1,1,1.849-1.777.547.547,0,0,0,.909.608,6.982,6.982,0,0,0-.864-8.835Z" transform="translate(-244 -244)" fill="#fa6c51"/>
      </g>
    </g>
  </g>
</svg>
