<svg xmlns="http://www.w3.org/2000/svg" width="14" height="14" viewBox="0 0 14 14">
  <g id="Group_50117" data-name="Group 50117" transform="translate(-244 -244)">
    <path id="Path_18230" data-name="Path 18230" d="M251,258a7.017,7.017,0,1,1,5.814-3.114.547.547,0,0,1-.909-.608,5.866,5.866,0,1,0-1.849,1.777.547.547,0,0,1,.566.936A6.991,6.991,0,0,1,251,258Z" transform="translate(0 0)" fill="#2ab08c"/>
    <path id="Path_18231" data-name="Path 18231" d="M253.129,258.555a3.285,3.285,0,0,0,3.281-3.281.547.547,0,0,0-.547-.547h-5.469a.547.547,0,0,0-.547.547A3.285,3.285,0,0,0,253.129,258.555Zm2.118-2.735a2.187,2.187,0,0,1-4.236,0Zm1.792-3.062a.547.547,0,0,1-.547.547h-1.969a.547.547,0,0,1-.477-.814l.765-1.367a.547.547,0,0,1,.954.534l-.31.554h1.036a.547.547,0,0,1,.547.547Zm-7.383-.547h1.035l-.31-.554a.547.547,0,0,1,.954-.534l.766,1.367a.546.546,0,0,1-.477.814h-1.969a.547.547,0,1,1,0-1.094Z" transform="translate(-2.129 -2.851)" fill="#2ab08c"/>
  </g>
</svg>
