<svg xmlns="http://www.w3.org/2000/svg" width="14" height="14" viewBox="0 0 14 14">
  <path id="Path_562505" data-name="Path 562505" d="M254.254,250.015a.546.546,0,0,1-.547-.547.274.274,0,1,0-.547,0,.547.547,0,0,1-1.094,0,1.367,1.367,0,1,1,2.735,0A.547.547,0,0,1,254.254,250.015Zm-4.293-.547a1.367,1.367,0,1,0-2.735,0,.547.547,0,0,0,1.094,0,.274.274,0,1,1,.547,0,.547.547,0,0,0,1.094,0Zm4.661,7.523a.547.547,0,0,0-.566-.936,5.959,5.959,0,1,1,1.849-1.777.547.547,0,0,0,.909.608,6.96,6.96,0,1,0-2.192,2.105Zm-1.27-5.034a.546.546,0,0,0-.436.217,2.776,2.776,0,0,1-3.831,0,.547.547,0,1,0-.813.725,3.846,3.846,0,0,0,5.458,0,.546.546,0,0,0-.377-.942Z" transform="translate(-244 -244)" fill="#61ddbc"/>
</svg>
