<svg xmlns="http://www.w3.org/2000/svg" width="14" height="14" viewBox="0 0 14 14">
  <path id="Path_562503" data-name="Path 562503" d="M258,251a6.974,6.974,0,0,1-1.186,3.886.547.547,0,0,1-.909-.608,5.866,5.866,0,1,0-1.849,1.777.547.547,0,0,1,.566.936A7,7,0,1,1,258,251Zm-3.746-.765a.547.547,0,0,0,.184-1.062,6.029,6.029,0,0,0-1.824-.305.547.547,0,0,0-.547.547.58.58,0,0,0,.006.079c0,.055-.006.127-.006.222a.821.821,0,0,0,1.555.365,4.477,4.477,0,0,1,.449.122A.547.547,0,0,0,254.254,250.235Zm-5.77,3.035a7.9,7.9,0,0,1,4.345,1.373.547.547,0,0,0,.664-.87,8.877,8.877,0,0,0-5.009-1.6.547.547,0,0,0,0,1.094Zm.275-3.2a3.715,3.715,0,0,1,.459.128.537.537,0,0,0,.2.037.547.547,0,0,0,.2-1.058,5.6,5.6,0,0,0-1.837-.31.546.546,0,0,0-.541.474,1.066,1.066,0,0,0-.033.374.82.82,0,0,0,1.56.355Z" transform="translate(-244 -244)" fill="#fdcd56"/>
</svg>
