<svg xmlns="http://www.w3.org/2000/svg" width="14" height="14" viewBox="0 0 14 14">
  <path id="Path_562504" data-name="Path 562504" d="M249,256a7.018,7.018,0,1,1,5.814-3.114.547.547,0,1,1-.909-.608,5.869,5.869,0,1,0-1.85,1.777.547.547,0,1,1,.566.936A6.989,6.989,0,0,1,249,256Zm4.3-8.084a.547.547,0,0,0-.268-.726,6.344,6.344,0,0,0-1.869-.6.947.947,0,0,0-1.094,1.094.547.547,0,1,0,1.094,0,6.038,6.038,0,0,1,1.412.5.539.539,0,0,0,.229.051A.546.546,0,0,0,253.3,247.916Zm-7.842.269a6.029,6.029,0,0,1,1.412-.5.547.547,0,0,0,1.094,0,.947.947,0,0,0-1.094-1.094,6.33,6.33,0,0,0-1.869.6.547.547,0,0,0,.457.993Z" transform="translate(-242 -242)" fill="#73b0f4"/>
</svg>
