<svg xmlns="http://www.w3.org/2000/svg" width="19.999" height="19.999" viewBox="0 0 19.999 19.999">
  <path id="fi-br-brush" d="M15.416,0H4.583A4.589,4.589,0,0,0,0,4.583V8.749A6.256,6.256,0,0,0,6.25,15h.417v1.667a3.333,3.333,0,0,0,6.666,0V15h.417A6.256,6.256,0,0,0,20,8.749V4.583A4.589,4.589,0,0,0,15.416,0ZM4.583,2.5H5v.417a1.25,1.25,0,1,0,2.5,0V2.5H9.166V4.583a1.25,1.25,0,0,0,2.5,0V2.5h1.667V6.25a1.25,1.25,0,0,0,2.5,0V2.542A2.083,2.083,0,0,1,17.5,4.583v3.75H2.5V4.583A2.083,2.083,0,0,1,4.583,2.5Zm9.166,10H12.082a1.25,1.25,0,0,0-1.25,1.25v2.916a.833.833,0,0,1-1.667,0V13.749a1.25,1.25,0,0,0-1.25-1.25H6.25a3.75,3.75,0,0,1-3.115-1.667H16.864A3.75,3.75,0,0,1,13.749,12.5Z" fill="#fa6c51"/>
</svg>
