<svg xmlns="http://www.w3.org/2000/svg" width="125" height="185" viewBox="0 0 125 185">
  <g id="Group_43519" data-name="Group 43519" transform="translate(-193.5 -163.5)">
    <g id="Group_43515" data-name="Group 43515" opacity="0.25">
      <path id="Path_305830" data-name="Path 305830" d="M295.8,348.5H216.2a7.678,7.678,0,0,1-7.564-6.348L205.8,326.045a816.022,816.022,0,0,1-12.3-141.161V167.608a4.11,4.11,0,0,1,4.111-4.108H314.389a4.11,4.11,0,0,1,4.111,4.108v17.276a816.042,816.042,0,0,1-12.3,141.162l-2.829,16.106A7.678,7.678,0,0,1,295.8,348.5Z" fill="#46ceac"/>
    </g>
    <g id="Group_43516" data-name="Group 43516">
      <path id="Path_305831" data-name="Path 305831" d="M212.259,222.049a2.724,2.724,0,0,0-2.723,2.856A803.146,803.146,0,0,0,220.6,323.45l1.479,8.423a1.948,1.948,0,0,0,1.918,1.61h64a1.946,1.946,0,0,0,1.918-1.61l1.479-8.423A803.125,803.125,0,0,0,302.463,224.9a2.724,2.724,0,0,0-2.723-2.856Z" fill="#75cff9"/>
    </g>
    <g id="Group_43517" data-name="Group 43517" opacity="0.45">
      <path id="Path_305832" data-name="Path 305832" d="M314.389,163.5H303.215a4.11,4.11,0,0,1,4.111,4.108v17.276a816.042,816.042,0,0,1-12.3,141.162L292.2,342.152a7.678,7.678,0,0,1-7.564,6.348H295.8a7.678,7.678,0,0,0,7.564-6.348l2.829-16.107a816.025,816.025,0,0,0,12.3-141.162V167.608a4.109,4.109,0,0,0-4.111-4.108Z" fill="#46ceac"/>
    </g>
    <g id="Group_43518" data-name="Group 43518">
      <path id="Path_305833" data-name="Path 305833" d="M299.741,222.049H288.567a2.724,2.724,0,0,1,2.723,2.855,803.124,803.124,0,0,1-11.067,98.545l-1.479,8.424a1.948,1.948,0,0,1-1.918,1.609H288a1.946,1.946,0,0,0,1.918-1.609l1.479-8.424A803.118,803.118,0,0,0,302.464,224.9a2.724,2.724,0,0,0-2.723-2.855Z" fill="#6cbff8"/>
    </g>
  </g>
</svg>
