<svg xmlns="http://www.w3.org/2000/svg" width="22.89" height="22.922" viewBox="0 0 22.89 22.922">
  <g id="Group_5258" data-name="Group 5258" transform="translate(-241.75 -241.75)">
    <path id="Path_18235" data-name="Path 18235" d="M253.195,264.422a11.234,11.234,0,1,1,9.3-4.987.875.875,0,1,1-1.454-.974,9.383,9.383,0,1,0-2.958,2.847.875.875,0,0,1,.906,1.5A11.165,11.165,0,0,1,253.195,264.422Zm6.873-12.947a.876.876,0,0,0-.429-1.162,10.134,10.134,0,0,0-2.99-.955,1.515,1.515,0,0,0-1.749,1.751.874.874,0,1,0,1.749,0,9.645,9.645,0,0,1,2.258.8.862.862,0,0,0,.365.081A.874.874,0,0,0,260.068,251.475Zm-12.542.43a9.632,9.632,0,0,1,2.258-.8.875.875,0,1,0,1.75,0,1.516,1.516,0,0,0-1.75-1.751,10.112,10.112,0,0,0-2.989.956.875.875,0,1,0,.731,1.591Z" transform="translate(0 0)" fill="#73b0f4" stroke="#73b0f4" stroke-width="0.5"/>
    <rect id="Rectangle_8336" data-name="Rectangle 8336" width="8.347" height="1.575" rx="0.787" transform="translate(249.021 256.399)" fill="#73b0f4" stroke="#73b0f4" stroke-width="0.5"/>
  </g>
</svg>
