<svg xmlns="http://www.w3.org/2000/svg" width="28.5" height="28.5" viewBox="0 0 28.5 28.5">
  <g id="Group_5258" data-name="Group 5258" transform="translate(-241.75 -241.75)">
    <path id="Path_18235" data-name="Path 18235" d="M256,270a14.036,14.036,0,1,1,11.628-6.228,1.094,1.094,0,1,1-1.818-1.216,11.738,11.738,0,1,0-3.7,3.555,1.094,1.094,0,1,1,1.133,1.871A13.978,13.978,0,0,1,256,270Zm8.6-16.168a1.094,1.094,0,0,0-.536-1.451,12.687,12.687,0,0,0-3.739-1.193,1.893,1.893,0,0,0-2.187,2.187,1.094,1.094,0,1,0,2.187,0,12.076,12.076,0,0,1,2.824.993,1.079,1.079,0,0,0,.457.1A1.093,1.093,0,0,0,264.6,253.832Zm-15.685.537a12.06,12.06,0,0,1,2.824-.994,1.094,1.094,0,0,0,2.188,0,1.894,1.894,0,0,0-2.188-2.187A12.659,12.659,0,0,0,248,252.382a1.094,1.094,0,0,0,.914,1.987Z" fill="#73b0f4" stroke="#73b0f4" stroke-width="0.5"/>
    <rect id="Rectangle_8336" data-name="Rectangle 8336" width="11.594" height="2.188" rx="1.094" transform="translate(250.203 259.828)" fill="#73b0f4" stroke="#73b0f4" stroke-width="0.5"/>
  </g>
</svg>
