<svg xmlns="http://www.w3.org/2000/svg" width="28.496" height="28.496" viewBox="0 0 28.496 28.496">
  <g id="Group_5249" data-name="Group 5249" transform="translate(-243.75 -243.75)">
    <g id="Group_5250" data-name="Group 5250" transform="translate(252.804 259.365)">
      <g id="Group_5249-2" data-name="Group 5249">
        <path id="Path_18222" data-name="Path 18222" d="M256.741,257.172a5.2,5.2,0,0,0-5.194,5.194,1.094,1.094,0,1,0,2.187,0,3.007,3.007,0,0,1,6.015,0,1.094,1.094,0,1,0,2.187,0A5.2,5.2,0,0,0,256.741,257.172Z" transform="translate(-251.547 -257.172)" fill="#fa6c51" stroke="#fa6c51" stroke-width="0.5"/>
      </g>
    </g>
    <g id="Group_5252" data-name="Group 5252" transform="translate(260.13 252.257)">
      <g id="Group_5251" data-name="Group 5251">
        <path id="Path_18223" data-name="Path 18223" d="M260.562,251.078a2.738,2.738,0,0,0-2.734,2.734,1.094,1.094,0,0,0,2.187,0,.547.547,0,0,1,1.094,0,1.094,1.094,0,0,0,2.187,0A2.738,2.738,0,0,0,260.562,251.078Z" transform="translate(-257.828 -251.078)" fill="#fa6c51" stroke="#fa6c51" stroke-width="0.5"/>
      </g>
    </g>
    <g id="Group_5254" data-name="Group 5254" transform="translate(250.452 252.257)">
      <g id="Group_5253" data-name="Group 5253">
        <path id="Path_18224" data-name="Path 18224" d="M252.265,251.078a2.738,2.738,0,0,0-2.734,2.734,1.094,1.094,0,0,0,2.187,0,.547.547,0,0,1,1.094,0,1.094,1.094,0,0,0,2.187,0A2.738,2.738,0,0,0,252.265,251.078Z" transform="translate(-249.531 -251.078)" fill="#fa6c51" stroke="#fa6c51" stroke-width="0.5"/>
      </g>
    </g>
    <g id="Group_5256" data-name="Group 5256" transform="translate(244 244)">
      <g id="Group_5255" data-name="Group 5255">
        <path id="Path_18225" data-name="Path 18225" d="M267.9,248.1a14,14,0,1,0-2.655,21.879,1.094,1.094,0,0,0-1.133-1.871,11.916,11.916,0,1,1,3.7-3.554,1.094,1.094,0,0,0,1.819,1.215A13.963,13.963,0,0,0,267.9,248.1Z" transform="translate(-244 -244)" fill="#fa6c51" stroke="#fa6c51" stroke-width="0.5"/>
      </g>
    </g>
  </g>
</svg>
