<svg xmlns="http://www.w3.org/2000/svg" width="28.496" height="28.496" viewBox="0 0 28.496 28.496">
  <path id="Path_18222" data-name="Path 18222" d="M272,258a13.946,13.946,0,0,1-2.371,7.771,1.094,1.094,0,0,1-1.819-1.215,11.731,11.731,0,1,0-3.7,3.554,1.094,1.094,0,0,1,1.133,1.871A14,14,0,1,1,272,258Zm-7.491-1.53a1.094,1.094,0,0,0,.367-2.124,12.055,12.055,0,0,0-3.648-.61,1.093,1.093,0,0,0-1.094,1.093,1.164,1.164,0,0,0,.013.157c-.008.11-.013.253-.013.444a1.641,1.641,0,0,0,3.11.73,8.943,8.943,0,0,1,.9.245A1.094,1.094,0,0,0,264.5,256.468Zm-11.538,6.069a15.787,15.787,0,0,1,8.688,2.745,1.094,1.094,0,0,0,1.327-1.739,17.752,17.752,0,0,0-10.016-3.193,1.094,1.094,0,0,0,0,2.187Zm.549-6.4a7.424,7.424,0,0,1,.918.255,1.075,1.075,0,0,0,.392.073,1.094,1.094,0,0,0,.393-2.115,11.191,11.191,0,0,0-3.673-.619,1.092,1.092,0,0,0-1.083.947,2.133,2.133,0,0,0-.066.748,1.641,1.641,0,0,0,3.119.71Z" transform="translate(-243.75 -243.75)" fill="#fdcd56" stroke="#fdcd56" stroke-width="0.5"/>
</svg>
