<svg xmlns="http://www.w3.org/2000/svg" width="28.496" height="28.496" viewBox="0 0 28.496 28.496">
  <g id="Group_5250" data-name="Group 5250" transform="translate(-243.75 -243.75)">
    <path id="Path_18230" data-name="Path 18230" d="M258,272a14.033,14.033,0,1,1,11.627-6.227,1.094,1.094,0,0,1-1.819-1.215,11.731,11.731,0,1,0-3.7,3.554,1.094,1.094,0,0,1,1.133,1.871A13.981,13.981,0,0,1,258,272Z" fill="#b4df80" stroke="#b4df80" stroke-width="0.5"/>
    <path id="Path_18231" data-name="Path 18231" d="M257.147,266.264a6.569,6.569,0,0,0,6.562-6.562,1.094,1.094,0,0,0-1.094-1.094H251.679a1.094,1.094,0,0,0-1.093,1.094A6.569,6.569,0,0,0,257.147,266.264Zm4.236-5.469a4.374,4.374,0,0,1-8.471,0Zm3.583-6.124a1.094,1.094,0,0,1-1.093,1.094h-3.937a1.094,1.094,0,0,1-.954-1.628l1.53-2.734a1.094,1.094,0,0,1,1.908,1.069l-.619,1.107h2.072a1.093,1.093,0,0,1,1.093,1.093ZM250.2,253.578h2.071l-.619-1.107a1.094,1.094,0,0,1,1.908-1.069l1.532,2.734a1.093,1.093,0,0,1-.954,1.627H250.2a1.094,1.094,0,1,1,0-2.187Z" transform="translate(0.851 1.139)" fill="#b4df80" stroke="#b4df80" stroke-width="0.5"/>
  </g>
</svg>
