<svg xmlns="http://www.w3.org/2000/svg" width="28.496" height="28.496" viewBox="0 0 28.496 28.496">
  <path id="Path_18224" data-name="Path 18224" d="M264.5,256.029a1.092,1.092,0,0,1-1.093-1.093.547.547,0,1,0-1.094,0,1.094,1.094,0,0,1-2.187,0,2.734,2.734,0,1,1,5.469,0A1.093,1.093,0,0,1,264.5,256.029Zm-8.584-1.093a2.734,2.734,0,0,0-5.469,0,1.094,1.094,0,0,0,2.187,0,.547.547,0,0,1,1.094,0,1.094,1.094,0,0,0,2.187,0Zm9.32,15.043a1.094,1.094,0,0,0-1.133-1.871,11.916,11.916,0,1,1,3.7-3.554,1.094,1.094,0,0,0,1.819,1.215,13.919,13.919,0,1,0-4.384,4.21ZM262.7,259.912a1.092,1.092,0,0,0-.871.434,5.55,5.55,0,0,1-7.662,0,1.093,1.093,0,1,0-1.626,1.45,7.691,7.691,0,0,0,10.914,0,1.092,1.092,0,0,0-.755-1.884Z" transform="translate(-243.75 -243.75)" fill="#61ddbc" stroke="#61ddbc" stroke-width="0.5"/>
</svg>
