<svg id="Group_52865" data-name="Group 52865" xmlns="http://www.w3.org/2000/svg" xmlns:xlink="http://www.w3.org/1999/xlink" width="192.041" height="251.843" viewBox="0 0 192.041 251.843">
  <defs>
    <clipPath id="clip-path">
      <rect id="Rectangle_24231" data-name="Rectangle 24231" width="192.041" height="251.843" fill="#613849"/>
    </clipPath>
  </defs>
  <g id="Group_52864" data-name="Group 52864" clip-path="url(#clip-path)">
    <path id="Path_578137" data-name="Path 578137" d="M88.007,223.59s19.128-5.485,55.577,20.351,48.623,67.389,48.456,80.4c-.112,8.67-2.688,25.894-20.166,29.976a30.108,30.108,0,0,1-7.657.719c-4.436-.117-12.934-.683-17.86-3.207v8.8l-99.165.211,0-1.714,5.1-44.693-4.668,14.6S41.179,352.9,28.862,358.939s-22.047-3.857-22.047-3.857-10.486-9.1-5.444-26.3,9.7-25.14,9.7-25.14,9.24-30.965,32.534-54.5S81.411,223.1,81.411,223.1Z" transform="translate(0 -109.629)" fill="#fcf7f7" stroke="#613849" stroke-width="1.5"/>
    <path id="Path_578138" data-name="Path 578138" d="M233.039,239.561a6.421,6.421,0,1,1-8.9-5.93c2.635,1.017,5.488,2.243,8.5,3.708a6.33,6.33,0,0,1,.4,2.223" transform="translate(-108.2 -114.802)" fill="#613849"/>
    <path id="Path_578139" data-name="Path 578139" d="M134.989,305.292a6.417,6.417,0,0,1-10.2,5.188c1.678-3.515,3.606-7.624,5.295-11.429a6.422,6.422,0,0,1,4.908,6.241" transform="translate(-61.318 -146.948)" fill="#613849"/>
    <path id="Path_578140" data-name="Path 578140" d="M220.287,405.708a6.355,6.355,0,0,1-1.328.137,6.421,6.421,0,0,1-4.639-10.864c1.831,3.52,3.83,7.151,5.966,10.727" transform="translate(-104.436 -194.086)" fill="#613849"/>
    <path id="Path_578141" data-name="Path 578141" d="M125.18,449.239a6.422,6.422,0,1,1-6.422-6.422,6.422,6.422,0,0,1,6.422,6.422" transform="translate(-55.2 -217.592)" fill="#613849"/>
    <path id="Path_578142" data-name="Path 578142" d="M265.7,485.33a6.079,6.079,0,0,1-.142,1.333H253a6.078,6.078,0,0,1-.142-1.333,6.421,6.421,0,0,1,12.843,0" transform="translate(-124.249 -235.328)" fill="#613849"/>
    <path id="Path_578143" data-name="Path 578143" d="M341.384,436.612a6.422,6.422,0,1,1-6.422-6.422,6.422,6.422,0,0,1,6.422,6.422" transform="translate(-161.438 -211.387)" fill="#613849"/>
    <path id="Path_578144" data-name="Path 578144" d="M265.7,347.2a6.421,6.421,0,1,1-7.6-6.312c2.452,1.592,4.974,3.311,7.487,5.137a5.976,5.976,0,0,1,.112,1.175" transform="translate(-124.249 -167.507)" fill="#613849"/>
    <path id="Path_578145" data-name="Path 578145" d="M344.419,334.048a5.314,5.314,0,0,1-.809.056,6.419,6.419,0,0,1-5.4-9.9q3.181,4.639,6.205,9.847" transform="translate(-165.687 -159.306)" fill="#613849"/>
    <path id="Path_578146" data-name="Path 578146" d="M52.263,338.138a6.418,6.418,0,0,1-11.607,3.779,91.29,91.29,0,0,1,8.1-9.506,6.417,6.417,0,0,1,3.509,5.727" transform="translate(-19.978 -163.341)" fill="#613849"/>
    <path id="Path_578147" data-name="Path 578147" d="M51.07,460.077a6.422,6.422,0,1,1-6.422-6.422,6.422,6.422,0,0,1,6.422,6.422" transform="translate(-18.784 -222.918)" fill="#613849"/>
    <path id="Path_578148" data-name="Path 578148" d="M191.06,285.712l.48-1s-6.514-15.262-8.888-18.119-2.917-3.531-3.755-3.168-.754,5.1-.754,5.1l-4.874-8.232s-4.863-9.6-7.754-7.913a5.4,5.4,0,0,0-.428,3.472c.343,2.226-.2,1.516-.2,1.516s-1.233-1.66-2.236-1.128-.8,4.947-.8,4.947a.7.7,0,0,0-.974.26,10.813,10.813,0,0,0-.726,5.145c.348,1.754,2.231,13.607,5.842,19.116s8.37,12.387,11.253,12.554Z" transform="translate(-78.651 -123.919)" fill="#fcf7f7"/>
    <path id="Path_578149" data-name="Path 578149" d="M79.881,282.565,96.267,294.4l2.382,1.055,9.609-20.346s4.577-9.776,4.166-13.446l-1.309-2.382s.909-2.665.417-4-2.407-1.153-2.407-1.153.592-2.607-.956-2.675-3.814,1.889-13.637,13.271l-.517.136s.212-2.294-1.686-1.368-12.448,19.073-12.448,19.073" transform="translate(-39.252 -123.558)" fill="#fcf7f7"/>
    <path id="Path_578150" data-name="Path 578150" d="M157.187,188.254l.292,18.425a18.043,18.043,0,0,0,11.025,2.767c6.7-.4,7.36-4.877,7.36-4.877l-1.269-16.315Z" transform="translate(-77.239 -92.505)" fill="#fcf7f7"/>
    <path id="Path_578151" data-name="Path 578151" d="M137.54,98l-2.757,10.478s.152,21.692.526,23.512,2.882,13.161,14.93,16.4,19.859-5.567,21.986-8.781a23.833,23.833,0,0,0,2.935-7.648l.518-.272a7.972,7.972,0,0,0,9.857-4.933c3.087-7.181-4.406-10.757-4.406-10.757s-3.472-1.58-5.09-.588-2.116.7-2.116.7l-.467-4.259-8.341-13.167Z" transform="translate(-66.23 -48.155)" fill="#fcf7f7"/>
    <path id="Path_578152" data-name="Path 578152" d="M150.011,137.312a1.506,1.506,0,1,1-1.264-1.714,1.506,1.506,0,0,1,1.264,1.714" transform="translate(-72.241 -66.622)" fill="#613849"/>
    <path id="Path_578153" data-name="Path 578153" d="M180.672,141.944a1.506,1.506,0,1,1-1.264-1.714,1.506,1.506,0,0,1,1.264,1.714" transform="translate(-87.307 -68.898)" fill="#613849"/>
    <path id="Path_578154" data-name="Path 578154" d="M161.793,145.071a2.826,2.826,0,0,1-2.126-.933,1.934,1.934,0,0,1-.461-1.7l1.821-8.2.993.221-1.821,8.2a.958.958,0,0,0,.241.82,1.789,1.789,0,0,0,1.476.574l1.142-.073.066,1.015-1.142.073c-.063,0-.125.006-.187.006" transform="translate(-78.209 -65.96)" fill="#613849"/>
    <path id="Path_578155" data-name="Path 578155" d="M180.563,130.141c-.545.6-2.207-.012-3.712-1.373s-2.285-2.953-1.74-3.556,2.207.012,3.713,1.373,2.285,2.953,1.74,3.556" transform="translate(-85.961 -61.413)" fill="#613849"/>
    <path id="Path_578156" data-name="Path 578156" d="M147.993,125.742c.379.718,2.142.532,3.937-.417s2.941-2.3,2.562-3.018-2.142-.532-3.936.417-2.942,2.3-2.562,3.018" transform="translate(-72.685 -59.885)" fill="#613849"/>
    <path id="Path_578157" data-name="Path 578157" d="M135.348,120.627h-1.017v-5.6a20.193,20.193,0,0,1,3.263-11.114l.855.551a19.187,19.187,0,0,0-3.1,10.562Z" transform="translate(-66.008 -51.061)" fill="#613849"/>
    <path id="Path_578158" data-name="Path 578158" d="M155.035,168.173a20.581,20.581,0,0,1-20.69-20.136V135.948h1.017v12.076a19.617,19.617,0,0,0,39.078,1.945l1.009.127a20.652,20.652,0,0,1-20.414,18.077" transform="translate(-66.015 -66.802)" fill="#613849"/>
    <path id="Path_578159" data-name="Path 578159" d="M212.294,143.2c-2.657-1.291-4.018-.493-4.074-.459l-.673-.743c3.528-4.539,9.139-1.673,9.195-1.644l-.471.9c-.174-.091-3.815-1.934-6.732.2a7.336,7.336,0,0,1,3.2.831Z" transform="translate(-101.985 -68.516)" fill="#613849"/>
    <path id="Path_578160" data-name="Path 578160" d="M132.97,112.847c-3.357-8.625.032-14.464.178-14.708l.874.52c-.033.056-3.271,5.68-.1,13.819Z" transform="translate(-64.612 -48.224)" fill="#613849"/>
    <path id="Path_578161" data-name="Path 578161" d="M165.929,212.794a16.85,16.85,0,0,1-9.549-3.067l-.193-.4V194.074H157.2v15a15,15,0,0,0,17.289-.017V194.074h1.017v15.254l-.222.42a16.375,16.375,0,0,1-9.36,3.046" transform="translate(-76.747 -95.364)" fill="#613849"/>
    <path id="Path_578162" data-name="Path 578162" d="M176.152,196.424l8.5,5.559V194.2a21.948,21.948,0,0,1-3.8,1.387c-1.7.384-4.7.837-4.7.837" transform="translate(-86.558 -95.426)" fill="#613849"/>
    <path id="Path_578163" data-name="Path 578163" d="M206.747,160.383l2.546,5.825s.572-1.81.572-1.868.324-2.068.324-2.068Z" transform="translate(-101.592 -78.809)" fill="#613849"/>
    <path id="Path_578164" data-name="Path 578164" d="M185.234,104.789a8.756,8.756,0,0,0-3.586-6.6,9.123,9.123,0,0,0-4.15-1.709c.87-2.645,4-13.1.717-17.766a5.3,5.3,0,0,0-4.013-2.228,4.7,4.7,0,0,0-.473-.036c-.147-.29-.412-.778-.793-1.414-2.594-4.328-10.574-15.355-24.073-14.323-12.843.977-16,9.552-16.657,12.156a9.417,9.417,0,0,0,1,7.116q.069.13.153.259c.061.1.127.2.2.305.1.132.2.27.315.412a10.735,10.735,0,0,0,1.516,1.455h.005c.244.2.5.4.788.59.066.046.137.1.214.142.2.137.417.275.641.407,4.745,2.848,13.341,4.817,24.77.407.346,1.856,1.617,7.233,5.112,9.6a6.589,6.589,0,0,0,5,1.007l.071,3.2.722.448a9.61,9.61,0,0,1,1.577-.57,8.028,8.028,0,0,1,6.749,1.358,7.821,7.821,0,1,1-10.34,11.663l-.732.7a8.757,8.757,0,0,0,3.194,2.141c.061.031.127.051.193.076q.183.069.366.122c.137.046.28.086.417.122a9.084,9.084,0,0,0,2.238.28,8.861,8.861,0,0,0,8.85-9.323M135.679,81.352a7.387,7.387,0,0,1-1.455-1.643,8.431,8.431,0,0,1-1.032-6.592c.615-2.436,3.581-10.462,15.747-11.393C164.915,60.514,172.875,77,172.956,77.166l.458.29a4.493,4.493,0,0,1,3.967,1.841c3.082,4.374-.244,15.045-.931,17.095a8.973,8.973,0,0,0-2.4.275A8.573,8.573,0,0,0,173,97l-.066-3.067-.636-.483c-.086.02-.173.041-.254.056a5.666,5.666,0,0,1-4.547-.788c-3.794-2.563-4.771-9.455-4.781-9.526l-.692-.4c-12.649,5.081-22.349,2.05-26.346-1.434" transform="translate(-64.818 -29.8)" fill="#613849"/>
    <path id="Path_578165" data-name="Path 578165" d="M207.807,80.1c-.011-.1-1.16-10.442-5.556-12.232l.383-.941c4.958,2.017,6.136,12.616,6.184,13.066Z" transform="translate(-99.382 -32.886)" fill="#613849"/>
    <path id="Path_578166" data-name="Path 578166" d="M101.433,123.128c-.86.275-8.443,2.813-8.835,6.465-.081.783.234,1.1.519,1.231a.768.768,0,0,0,.331.066c1.76,0,6.022-4.267,8.514-6.932Zm-7.828,6.76a.773.773,0,0,1,.005-.183c.209-1.923,3.509-3.743,6.042-4.822-2.579,2.594-5.244,4.9-6.047,5" transform="translate(-45.495 -60.503)" fill="#613849"/>
    <path id="Path_578167" data-name="Path 578167" d="M97.022,149.688c-.514.341-5.015,3.423-4.466,6.256.137.687.493.87.773.905H93.4c.951,0,2.421-2.2,4.374-6.531Zm-3.474,6.027c-.209-1.226,1.1-2.752,2.37-3.881a18.266,18.266,0,0,1-2.37,3.881" transform="translate(-45.458 -73.554)" fill="#613849"/>
    <path id="Path_578168" data-name="Path 578168" d="M251.1,153.6l-.738.631c.336.819,3.362,8.016,6.047,8.626a1.749,1.749,0,0,0,.392.046,1.682,1.682,0,0,0,1.149-.468,1.763,1.763,0,0,0,.6-1.526c-.264-2.818-6.719-6.856-7.451-7.309m6.17,8.082a.65.65,0,0,1-.636.183c-1.368-.31-3.342-3.672-4.649-6.465,2.228,1.526,5.407,4.033,5.554,5.6a.748.748,0,0,1-.27.676" transform="translate(-123.023 -75.475)" fill="#613849"/>
    <path id="Path_578169" data-name="Path 578169" d="M278.606,62.763c-1.541-.956-4.349-1.6-9.094.488a5.5,5.5,0,0,0-4.476-.946,1.807,1.807,0,0,0-.544-1.17,2.455,2.455,0,0,0-2.741-.1,3.974,3.974,0,0,0-2.375,3.7,2.949,2.949,0,0,0,1.205,2.335,2.419,2.419,0,0,0,.305.183,15.384,15.384,0,0,1-6.8,1.755v1.017c.27,0,4.9-.036,8.082-2.385a6.38,6.38,0,0,0,.87.036c-1.1,1.155-2.6,3.031-2.736,4.847a3.271,3.271,0,0,0,3.128,3.484h.092c1.806-.051,3.5-1.673,4.211-2.452,1.19.987,4.75,3.6,7.4,1.867a4.155,4.155,0,0,0,2.121-3.123,5.1,5.1,0,0,0-1.033-3.23c1.211.2,2.838.285,3.825-.442a2.139,2.139,0,0,0,.849-1.806,4.778,4.778,0,0,0-2.294-4.059m-9.257,1.684a4.331,4.331,0,0,1,.412.448,3.239,3.239,0,0,1,.737,3.179,1.155,1.155,0,0,1-1.261.509,2.345,2.345,0,0,1-1.622-.661,1.436,1.436,0,0,1-.254-1.078,2.922,2.922,0,0,1,1.663-2.238c.107-.056.219-.107.326-.158m-7.461,2.111a2.222,2.222,0,0,1-.727-.32,1.979,1.979,0,0,1-.773-1.577,2.964,2.964,0,0,1,1.8-2.706,2.478,2.478,0,0,1,1.022-.264.873.873,0,0,1,.59.188c.356.331.31,1.155-.122,2.263a5.876,5.876,0,0,1-1.79,2.416m17.557,1.251c-1.022.758-3.55.209-4.435-.061l-.5.854c.02.02,1.887,1.785,1.734,3.616a3.206,3.206,0,0,1-1.668,2.355c-2.487,1.628-6.505-2.07-6.546-2.111l-.743.056c-.534.671-2.253,2.431-3.789,2.472a2.053,2.053,0,0,1-1.643-.778,2.083,2.083,0,0,1-.534-1.612c.178-2.416,3.515-5.234,3.55-5.264l-.468-.875a6.61,6.61,0,0,1-1.119.183,6.7,6.7,0,0,0,1.343-2.131,6.92,6.92,0,0,0,.346-1.155,4.7,4.7,0,0,1,3.454.407,3.847,3.847,0,0,0-2.075,2.97,2.378,2.378,0,0,0,.468,1.821,3.269,3.269,0,0,0,2.309,1.038,2.118,2.118,0,0,0,2.263-1.032c.621-1.134.275-2.9-.834-4.3-.066-.081-.137-.168-.219-.259,3.24-1.338,5.951-1.48,7.726-.376a3.768,3.768,0,0,1,1.816,3.194,1.117,1.117,0,0,1-.437.987" transform="translate(-124.856 -29.816)" fill="#613849"/>
    <path id="Path_578170" data-name="Path 578170" d="M208.1,2.919a5.025,5.025,0,0,0-4.9,1.628,1.67,1.67,0,0,0-.229,2.019,1.965,1.965,0,0,0,1.678,1.094,2.455,2.455,0,0,0,1.77-1.241l-.875-.514c-.112.188-.524.727-.926.737-.3.01-.605-.341-.8-.636-.051-.081-.219-.331.178-.829a4.061,4.061,0,0,1,3.759-1.3c.6.214.88.753.854,1.643a3.47,3.47,0,0,1-1.068,2.64,4.648,4.648,0,0,1-3.138.89l-.559.417c-.295,1.673-1.572,6.088-3.876,6.363a1.64,1.64,0,0,1-1.292-.305,8.744,8.744,0,0,0,.931-6.1c-.041-.158-.081-.305-.127-.453a5.14,5.14,0,0,0,2.757-3.164c.346-1.139.229-1.963-.351-2.452-1.185-.992-3.9.041-5.244.656-.158-1.058-.61-2.945-1.887-3.687a2.835,2.835,0,0,0-2.813.107c-2.579,1.292-2.467,2.894-2.3,3.525a2.956,2.956,0,0,0,2.35,2.029c-.854,1.724-2.726,6-1.526,8.067a2.4,2.4,0,0,0,2.192,1.155,6.148,6.148,0,0,0,4.272-1.119,4.441,4.441,0,0,0,.524,1.536,14.467,14.467,0,0,1-1.892,2.614l.732.707a14.858,14.858,0,0,0,1.882-2.523,2.655,2.655,0,0,0,1.912.412c3.036-.356,4.339-5.239,4.669-6.76A5.342,5.342,0,0,0,208.2,8.93a4.453,4.453,0,0,0,1.419-3.382,2.422,2.422,0,0,0-1.526-2.63m-10.05,11.52a6.344,6.344,0,0,1-.178-1.984,1.609,1.609,0,0,0,.025-.28l-1.012-.046c-.005.015-.01.081-.02.193a1.738,1.738,0,0,1-.519.926,5.1,5.1,0,0,1-3.662.941,1.438,1.438,0,0,1-1.338-.646c-.977-1.689,1.038-6.18,1.9-7.767l-.473-.753A2.072,2.072,0,0,1,190.62,3.7c-.219-.824.427-1.684,1.77-2.355a1.9,1.9,0,0,1,1.846-.142c1.083.636,1.424,2.818,1.465,3.606l.737.427c1.526-.778,4.1-1.668,4.786-1.1.315.264.158.977.036,1.378a4.1,4.1,0,0,1-2.146,2.518,3.833,3.833,0,0,0-1.465-1.76,2.441,2.441,0,0,0-1.231-.351,2.572,2.572,0,0,0-2.441,1.872c-.147.57.132,1.3,1.353,1.643a5.877,5.877,0,0,0,3.194-.092c.036.107.066.224.1.336a7.373,7.373,0,0,1-.575,4.761m.117-6.047a5.065,5.065,0,0,1-2.558.066c-.432-.122-.671-.31-.646-.412a1.58,1.58,0,0,1,1.46-1.109c.682,0,1.287.514,1.745,1.455" transform="translate(-93.148 0)" fill="#613849"/>
    <path id="Path_578171" data-name="Path 578171" d="M94.255,35.269a6.894,6.894,0,0,0-8.84,3.8,10.635,10.635,0,0,0-.727,3.123,12.509,12.509,0,0,0-2.07,1.205c-.371-.636-.656-1.043-.692-1.1l-.834.585c.01.01.315.448.712,1.144-1.826,1.516-3.306,3.535-3.265,5.361a5.645,5.645,0,0,0,.147,1.241,4.09,4.09,0,0,0,.025,2.279c.4,1.3,1.205,2.034,2.233,2.034h.066c1.506-.046,3-1.689,3.535-3.916s-.5-4.923-1.429-6.724a11.665,11.665,0,0,1,1.521-.966c0,.117.005.234.005.356a2.664,2.664,0,0,0,2.136,2.619,2.045,2.045,0,0,0,1.8-.539,2.56,2.56,0,0,0,.473-2.436A2.09,2.09,0,0,0,86.5,41.658a4.9,4.9,0,0,0-.753.147,9.383,9.383,0,0,1,.605-2.345,5.866,5.866,0,0,1,7.522-3.24c1.8.7,2.467,2.09,2.065,4.247A14.43,14.43,0,0,1,90.4,49.373a3.135,3.135,0,0,0-2.187-1.419c-1.4-.224-2.014.214-2.279.615a1.607,1.607,0,0,0,.107,1.77,2.409,2.409,0,0,0,2.324,1.144,5.086,5.086,0,0,0,1.628-.615,9.678,9.678,0,0,1,.351,3.392l1.012.1a10.23,10.23,0,0,0-.483-4.049,15.728,15.728,0,0,0,6.078-9.659c.621-3.326-1.124-4.761-2.691-5.381m-10.7,15.523c-.488,2-1.694,3.113-2.579,3.138-.778,0-1.144-.814-1.3-1.317a2.859,2.859,0,0,1-.132-.809,1.445,1.445,0,0,0,1.343-.193,3.663,3.663,0,0,0,1.628-2.818,1.062,1.062,0,0,0-.626-1.038,1.8,1.8,0,0,0-1.821.6,4.459,4.459,0,0,0-.473.5,7.918,7.918,0,0,1,2.7-3.9c.834,1.648,1.709,3.972,1.256,5.829m-3.8-.178a3.841,3.841,0,0,1,.783-1.287,2.131,2.131,0,0,1,.931-.661.4.4,0,0,1,.031.173,2.677,2.677,0,0,1-1.149,1.912c-.178.112-.336.153-.417.107a.518.518,0,0,1-.178-.244m6.856-7.95c1.088-.117,1.343.407,1.439.88a1.709,1.709,0,0,1-.2,1.521,1.021,1.021,0,0,1-.9.249,1.651,1.651,0,0,1-1.292-1.643c-.005-.264-.005-.524.005-.778a4.587,4.587,0,0,1,.951-.229m1.607,7.807A1.405,1.405,0,0,1,86.9,49.8a.688.688,0,0,1-.117-.666c.076-.117.305-.219.722-.219a3.971,3.971,0,0,1,.549.046,2.175,2.175,0,0,1,1.485.977,3.993,3.993,0,0,1-1.312.539" transform="translate(-38.592 -17.103)" fill="#613849"/>
    <path id="Path_578172" data-name="Path 578172" d="M240.1,397.96a47.092,47.092,0,0,1-12.9-8.119c-5.629-4.966-11.506-12.539-17.47-22.51-1.985-3.323-4-6.94-5.981-10.753a270.817,270.817,0,0,1-11.81-26.153l.134-.555,14.786-13.438.564-.081a215.317,215.317,0,0,1,21.021,12.056c2.612,1.7,5.139,3.429,7.509,5.152a102.5,102.5,0,0,1,18.114,16.181l-.777.657a101.536,101.536,0,0,0-17.935-16.014c-2.356-1.712-4.867-3.435-7.465-5.122a217.166,217.166,0,0,0-20.6-11.842l-14.273,12.972a272.407,272.407,0,0,0,11.637,25.72c1.974,3.794,3.977,7.394,5.951,10.7,5.909,9.88,11.719,17.372,17.269,22.269a46.077,46.077,0,0,0,12.625,7.944Z" transform="translate(-94.315 -155.448)" fill="#613849"/>
    <path id="Path_578173" data-name="Path 578173" d="M63.194,359.988l-.981-.27c4.417-16.042,7.094-31.247,7.5-33.613L51.541,313.477a72.727,72.727,0,0,0-11.309,9.476,90.937,90.937,0,0,0-8.052,9.454,112.392,112.392,0,0,0-8.709,13.715l-.9-.484A113.522,113.522,0,0,1,31.364,331.8a92.058,92.058,0,0,1,8.141-9.558,73.5,73.5,0,0,1,11.76-9.8l.572.006,18.722,13.01.212.5c-.027.164-2.78,16.607-7.576,34.033" transform="translate(-11.093 -153.526)" fill="#613849"/>
    <path id="Path_578174" data-name="Path 578174" d="M208.049,295.837c-4.136-10.459-9.67-21.535-11.543-21.535a.469.469,0,0,0-.081.007.692.692,0,0,0-.49.378c-1.135,2,1.141,9.322,2.115,11.976l-.955.35c-.375-1.022-3.616-10.065-2.044-12.829a1.7,1.7,0,0,1,1.187-.875c1.139-.214,3.071.839,7.889,10.969,2.611,5.49,4.846,11.128,4.868,11.185Z" transform="translate(-95.634 -134.287)" fill="#0c2238"/>
    <path id="Path_578175" data-name="Path 578175" d="M177.262,276.447c-4.565-7.778-9.9-20.858-8.224-24.492a1.656,1.656,0,0,1,1.242-1.009c3.722-.657,11.756,15.806,13.332,19.112l-.919.438c-3.78-7.933-10.079-18.918-12.236-18.548a.647.647,0,0,0-.5.434c-1.231,2.666,2.9,14.552,8.178,23.551Z" transform="translate(-82.907 -123.301)" fill="#0c2238"/>
    <path id="Path_578176" data-name="Path 578176" d="M169.767,284.735c-.257-.068-.427-.112-1.578-2.8-.075-.175-7.483-17.6-5.15-21.822a1.571,1.571,0,0,1,1.347-.944c1.325-.039,2.607,1.889,2.846,2.274l-.864.537c-.453-.727-1.38-1.794-1.945-1.794h-.012c-.063,0-.254.007-.482.419-1.978,3.577,5.278,21.989,6.309,23.273a.427.427,0,0,0-.213-.125Z" transform="translate(-79.891 -127.35)" fill="#0c2238"/>
    <path id="Path_578177" data-name="Path 578177" d="M176.033,307.325c-14.056-10.963-17.157-31.664-16.76-35.273.212-1.93.662-2.923,1.414-3.124a1.469,1.469,0,0,1,1.418.636l-.818.6a.721.721,0,0,0-.336-.258s-.438.181-.666,2.254c-.386,3.509,2.65,23.655,16.374,34.36Z" transform="translate(-78.248 -132.128)" fill="#0c2238"/>
    <path id="Path_578178" data-name="Path 578178" d="M79.55,294.274l-.9-.477c.027-.051,2.713-5.1,5.723-9.993,5.555-9.033,7.435-9.9,8.459-9.645,1.12.279,1.12,2.014,1.12,2.584H92.937c0-1.239-.252-1.573-.349-1.6-1.568-.379-7.99,9.623-13.038,19.127" transform="translate(-38.648 -134.699)" fill="#0c2238"/>
    <path id="Path_578179" data-name="Path 578179" d="M105.872,273.244l-.8-.626c3.63-4.654,12.961-17.438,12.551-20.659-.034-.261-.129-.335-.16-.359a.823.823,0,0,0-.659-.116c-3.89.638-14.275,15-17.948,20.486l-.845-.566c.549-.82,13.51-20.084,18.628-20.924a1.794,1.794,0,0,1,1.443.313,1.484,1.484,0,0,1,.549,1.037c.539,4.226-11.4,19.666-12.758,21.413" transform="translate(-48.16 -123.065)" fill="#0c2238"/>
    <path id="Path_578180" data-name="Path 578180" d="M121.535,279.948l-.854-.553c.077-.119,7.728-11.955,9.859-17.554,1.116-2.933.722-3.949.388-4.294-.5-.513-1.553-.3-1.916-.169l-.337-.96c.078-.027,1.926-.663,2.98.417.91.932.857,2.688-.163,5.367-2.169,5.7-9.639,17.257-9.956,17.746" transform="translate(-59.3 -125.895)" fill="#0c2238"/>
    <path id="Path_578181" data-name="Path 578181" d="M116.361,303.594l-.91-.454c.019-.038,1.923-3.858,4.289-8.807,2.086-4.369,3.866-8.21,5.289-11.415,3.463-7.8,4.267-10.577,4.332-11.536.161-2.431-.28-3.274-.556-3.56a.443.443,0,0,0-.308-.167l-.131-1.008a1.379,1.379,0,0,1,1.09.391c.758.693,1.068,2.177.92,4.413-.1,1.536-1.549,5.422-4.417,11.881-1.427,3.214-3.21,7.064-5.3,11.441-2.37,4.956-4.278,8.784-4.3,8.823" transform="translate(-56.73 -131.021)" fill="#0c2238"/>
    <rect id="Rectangle_24230" data-name="Rectangle 24230" width="182.274" height="1.017" transform="translate(0.003 250.826)" fill="#0c2238"/>
    <path id="Path_578182" data-name="Path 578182" d="M159.545,233.1a21.191,21.191,0,0,1-11.821-5.323l.706-.731a20.536,20.536,0,0,0,11.2,5.041Z" transform="translate(-72.589 -111.564)" fill="#0c2238"/>
    <path id="Path_578183" data-name="Path 578183" d="M171.7,157.151c-1.5-1.149-3.972-.458-5.508,1.541s-1.561,4.567-.061,5.722a2.819,2.819,0,0,0,1.729.565,3.839,3.839,0,0,0,1.094-.168,5.5,5.5,0,0,0,2.686-1.938c1.536-2,1.561-4.567.061-5.722m-.87,5.1a4.437,4.437,0,0,1-2.172,1.582,2.086,2.086,0,0,1-1.907-.229.513.513,0,0,1-.1-.086,1.634,1.634,0,0,1-.443-.615,1.593,1.593,0,0,1-.1-.275,4.479,4.479,0,0,1,3.84-5.03,1.8,1.8,0,0,1,1.124.361,2.04,2.04,0,0,1,.727,1.684,2.92,2.92,0,0,1-.02.361,4.013,4.013,0,0,1-.1.519,4.643,4.643,0,0,1-.173.534,5,5,0,0,1-.687,1.2" transform="translate(-81.089 -76.948)" fill="#613849"/>
    <path id="Path_578184" data-name="Path 578184" d="M166.9,167.094l-.783-.65a9.724,9.724,0,0,1,6.614-3.2l.046,1.016a8.794,8.794,0,0,0-5.877,2.838" transform="translate(-81.627 -80.213)" fill="#613849"/>
    <path id="Path_578185" data-name="Path 578185" d="M172.374,161.084l.481-1.961-1.608-1.3-2.526.168-1.755,1.8-.925,2.4.43,1.5,1.7-1.346,2.3-.846Z" transform="translate(-81.59 -77.549)" fill="#613849"/>
    <path id="Path_578186" data-name="Path 578186" d="M177.077,97.007l-2.3.472-2.124.347-.323-3.408s-3.822,1.088-5.809-1.529a38.24,38.24,0,0,1-3.884-7.789l-.742-1.236s-7.423,3.223-14.168,2.536a28.3,28.3,0,0,1-11.075-3.356,8.161,8.161,0,0,1-1.163,3.076c-.959,1.467-1.9,6.786-1.9,6.786a13.049,13.049,0,0,1-1.226-7.93c.684-4.679,1.851-4.175,1.851-4.175s-3.218-5.346-.707-9.335,4.159-8.436,15.542-9.826,19.926,8.108,22.219,11.919,2.784,3.916,3.805,3.972,4.647,1.946,4.239,7.047a95.9,95.9,0,0,1-2.241,12.428" transform="translate(-64.971 -30.221)" fill="#613849"/>
  </g>
</svg>
