<svg xmlns="http://www.w3.org/2000/svg" xmlns:xlink="http://www.w3.org/1999/xlink" width="255" height="284" viewBox="0 0 255 284">
  <defs>
    <clipPath id="clip-path">
      <rect id="Rectangle_24242" data-name="Rectangle 24242" width="255" height="284" transform="translate(60 188)" fill="#fff" stroke="#707070" stroke-width="1"/>
    </clipPath>
    <clipPath id="clip-path-2">
      <rect id="Rectangle_24241" data-name="Rectangle 24241" width="201.25" height="545.387" fill="none"/>
    </clipPath>
  </defs>
  <g id="Mask_Group_49964" data-name="Mask Group 49964" transform="translate(-60 -188)" clip-path="url(#clip-path)">
    <g id="Group_52867" data-name="Group 52867" transform="translate(86.875 214.649)">
      <g id="Group_52866" data-name="Group 52866" clip-path="url(#clip-path-2)">
        <path id="Path_578187" data-name="Path 578187" d="M177.009,48.647c-1.7-1.06-4.78-1.79-9.96.47a6.3,6.3,0,0,0-4.72-1.03,2.046,2.046,0,0,0-.63-1.19,2.848,2.848,0,0,0-3.2-.14,4.513,4.513,0,0,0-2.69,4.21,3.408,3.408,0,0,0,1.4,2.69c.02.01.03.02.05.03a16.793,16.793,0,0,1-7,1.71v1.5h.01c.29,0,5.32-.04,8.84-2.58l.43.03c-1.17,1.28-2.58,3.2-2.71,5.06a3.735,3.735,0,0,0,3.59,4h.11c1.93-.06,3.73-1.69,4.59-2.6,1.44,1.17,5.24,3.82,8.13,1.93a4.7,4.7,0,0,0,2.39-3.54,5.442,5.442,0,0,0-.91-3.27,5.659,5.659,0,0,0,3.87-.58,2.506,2.506,0,0,0,1-2.13,5.36,5.36,0,0,0-2.59-4.57m-10.43,2.34c.08-.04.16-.07.23-.11a3.278,3.278,0,0,1,.33.37,3.353,3.353,0,0,1,.79,3.24c-.08.13-.29.54-1.18.45-1.78-.19-1.94-.95-1.86-1.68a2.973,2.973,0,0,1,1.69-2.27m-7.88,1.73a2.087,2.087,0,0,1-.64-.3,1.915,1.915,0,0,1-.75-1.56,3.017,3.017,0,0,1,1.84-2.75,2.468,2.468,0,0,1,1.03-.27.684.684,0,0,1,.5.16c.25.23.33.94-.18,2.24a6.2,6.2,0,0,1-1.8,2.48m19.01,1.42c-.93.68-3.35.3-4.65-.1l-.73,1.27c.02.02,1.98,1.88,1.82,3.76a3.321,3.321,0,0,1-1.72,2.41c-2.15,1.4-5.69-1.16-6.88-2.27l-1.09.08c-.57.72-2.38,2.57-3.97,2.62a2.07,2.07,0,0,1-1.64-.79,2.1,2.1,0,0,1-.53-1.6c.16-2.11,2.79-4.75,3.79-5.58l-.69-1.3a6.539,6.539,0,0,1-.68.14,7.286,7.286,0,0,0,1.16-2,6.569,6.569,0,0,0,.36-1.16,5.03,5.03,0,0,1,3.18.29,4.364,4.364,0,0,0-2.05,3.2c-.09.89.04,2.99,3.2,3.32a2.542,2.542,0,0,0,2.65-1.22c.72-1.3.34-3.31-.92-4.89-.02-.03-.04-.05-.06-.08,3.35-1.34,6.14-1.46,7.96-.32a3.884,3.884,0,0,1,1.88,3.3,1.032,1.032,0,0,1-.39.92" fill="#613849"/>
        <path id="Path_578188" data-name="Path 578188" d="M102.649,3.187c-1.79-.65-4.46.45-5.55,1.83a1.988,1.988,0,0,0-.25,2.43,2.355,2.355,0,0,0,1.99,1.27,2.9,2.9,0,0,0,2.09-1.44l-1.3-.76c-.14.24-.54.7-.83.7a1.184,1.184,0,0,1-.7-.6c-.04-.06-.16-.24.18-.67a4.26,4.26,0,0,1,3.86-1.35c.21.07.84.3.8,1.6a3.577,3.577,0,0,1-1.09,2.72,4.835,4.835,0,0,1-3.26.92l-.82.61c-.32,1.79-1.66,6.48-4.05,6.76a1.678,1.678,0,0,1-1.13-.2,9.592,9.592,0,0,0,.96-6.61c-.03-.12-.07-.23-.1-.35a5.747,5.747,0,0,0,2.95-3.48c.4-1.32.25-2.29-.44-2.87-1.3-1.09-4.04-.15-5.67.57-.21-1.22-.74-3.09-2.11-3.89a3.269,3.269,0,0,0-3.25.12c-3.01,1.5-2.75,3.48-2.6,4.05a3.364,3.364,0,0,0,2.46,2.29c-.98,2.03-2.84,6.49-1.54,8.74a2.8,2.8,0,0,0,2.54,1.35,7.325,7.325,0,0,0,4.52-1.05,4.925,4.925,0,0,0,.48,1.31,15.894,15.894,0,0,1-1.97,2.7l1.08,1.04a15.964,15.964,0,0,0,1.96-2.6,3.164,3.164,0,0,0,2.04.37c3.36-.4,4.79-5.46,5.22-7.35a5.92,5.92,0,0,0,3.71-1.3,5.019,5.019,0,0,0,1.61-3.81,2.819,2.819,0,0,0-1.79-3.05m-10.93,12.04a7.013,7.013,0,0,1-.05-1.48,2.622,2.622,0,0,0,.02-.32l-1.49-.07a.947.947,0,0,0-.02.22,1.727,1.727,0,0,1-.52.89c-.49.47-1.55,1.02-3.83.96a1.361,1.361,0,0,1-1.29-.6c-.9-1.57.79-5.89,2.07-8.26l-.7-1.1a2.084,2.084,0,0,1-2.13-1.3c-.21-.8.45-1.65,1.82-2.33a1.848,1.848,0,0,1,1.82-.16c1.1.64,1.46,2.98,1.49,3.76l1.09.63c1.9-.97,4.41-1.71,4.99-1.22.18.15.17.64-.03,1.28a4.161,4.161,0,0,1-2.05,2.53,4.189,4.189,0,0,0-1.65-1.85,2.756,2.756,0,0,0-1.37-.37,3,3,0,0,0-2.84,2.18c-.18.68.14,1.62,1.6,2.03a6.663,6.663,0,0,0,3.4-.05c.01.05.03.11.04.17a7.434,7.434,0,0,1-.37,4.46m-.22-6.04c-.23.05-.44.09-.6.11A3.838,3.838,0,0,1,88.5,9a1.524,1.524,0,0,1,1.39-1.06,1.972,1.972,0,0,1,1.61,1.25" fill="#613849"/>
        <path id="Path_578189" data-name="Path 578189" d="M35.079,38.687a7.675,7.675,0,0,0-9.86,4.24,11.672,11.672,0,0,0-.79,3.34,13.749,13.749,0,0,0-2,1.16c-.36-.6-.62-.98-.66-1.03l-1.23.86c.01.01.3.43.69,1.1-1.97,1.67-3.54,3.87-3.5,5.87a5.63,5.63,0,0,0,.16,1.33,4.58,4.58,0,0,0,.04,2.54c.64,2.1,2,2.35,2.63,2.35h.06c1.75-.05,3.41-1.86,4.03-4.4.6-2.43-.5-5.33-1.5-7.31a12.5,12.5,0,0,1,1.22-.78v.07a3.092,3.092,0,0,0,2.48,3.04,2.386,2.386,0,0,0,2.14-.65,2.989,2.989,0,0,0,.56-2.82,2.489,2.489,0,0,0-2.99-1.99c-.17.02-.36.06-.55.1a9.57,9.57,0,0,1,.6-2.21,6.171,6.171,0,0,1,7.92-3.42c1.85.73,2.54,2.16,2.12,4.4a15.618,15.618,0,0,1-5.8,9.42,3.572,3.572,0,0,0-2.38-1.44c-1.62-.26-2.35.27-2.67.76a1.916,1.916,0,0,0,.11,2.13,2.781,2.781,0,0,0,2.72,1.33,5.2,5.2,0,0,0,1.63-.58,10.587,10.587,0,0,1,.3,3.39l1.49.14a11.26,11.26,0,0,0-.49-4.35,17.311,17.311,0,0,0,6.57-10.53c.7-3.75-1.27-5.37-3.05-6.06m-11.89,17c-.49,2.01-1.71,3.24-2.61,3.26-.66.01-1.04-.69-1.22-1.29a2.82,2.82,0,0,1-.11-.55,1.862,1.862,0,0,0,1.34-.31,4.2,4.2,0,0,0,1.86-3.24,1.381,1.381,0,0,0-.79-1.31,2.158,2.158,0,0,0-2.16.66,9.758,9.758,0,0,1,2.45-3.2c.86,1.74,1.7,4.1,1.24,5.98m-3.72-.15a4.107,4.107,0,0,1,.5-.92,2.935,2.935,0,0,1,.98-.9,2.846,2.846,0,0,1-.88,1.59,1.02,1.02,0,0,1-.53.33.512.512,0,0,1-.07-.1m7.26-8.44c1.02-.11,1.25.32,1.35.8a1.713,1.713,0,0,1-.17,1.48.943.943,0,0,1-.8.21,1.6,1.6,0,0,1-1.24-1.6c-.01-.23-.01-.47,0-.7a4.965,4.965,0,0,1,.86-.19m1.7,8.1a1.321,1.321,0,0,1-1.25-.65c-.16-.25-.17-.45-.13-.51s.21-.15.62-.15a3.038,3.038,0,0,1,.56.05,2.161,2.161,0,0,1,1.36.8,3.82,3.82,0,0,1-1.16.46" fill="#613849"/>
        <path id="Path_578190" data-name="Path 578190" d="M57.918,249.249c.336.006,25.611,4.054,35.553,3.921s28.293-1.535,37.64-4l.777,1.708,25.89,229.662-.414,1.255-43.483,1.865L96.5,282.394l-1.748,32.792L85.442,485.221l-.626.5-42.754-2.156Z" fill="#613849"/>
        <path id="Path_578191" data-name="Path 578191" d="M96.685,53.19s-12.754-4.046-24.022,8.273c0,0-5.872,7.8-7.318,22.159s2.348,13.726,4.82,5.007C72.249,81.278,76.2,77.9,76.2,77.9l1.251-2.183s4.819,6.909,9.978,9.588l8.524,4.524,9.6,3.681s7.39.568,7.727,1.158c.112.2,2.54-1.656,4.831-1.9s2.462-.738,2.462-.738-.223-8.681-.264-10.713a55.151,55.151,0,0,0-3.193-13.442,20.6,20.6,0,0,0-3.184-5.641c-4.841-5.65-10.628-8.547-17.24-9.044" fill="#613849"/>
        <path id="Path_578192" data-name="Path 578192" d="M89.906,110.222a3.456,3.456,0,0,1-2.263-.813,2.518,2.518,0,0,1-.911-2.076l.463-6.737,1.5.1-.463,6.737a1.024,1.024,0,0,0,.4.839,2.068,2.068,0,0,0,1.772.395l1.365-.3.319,1.466-1.365.3a3.842,3.842,0,0,1-.808.087" fill="#613849"/>
        <path id="Path_578193" data-name="Path 578193" d="M100.875,96.374c-.5.858-2.635.55-4.779-.688s-3.481-2.937-2.985-3.795,2.635-.55,4.779.688,3.48,2.937,2.985,3.795" fill="#613849"/>
        <path id="Path_578194" data-name="Path 578194" d="M75.792,96.685c.564.815,2.671.332,4.706-1.078s3.228-3.213,2.664-4.027-2.672-.332-4.707,1.078-3.227,3.213-2.663,4.027" fill="#613849"/>
        <path id="Path_578195" data-name="Path 578195" d="M76.569,102.271a5.685,5.685,0,0,1-1.622-.22l.434-1.435a5.177,5.177,0,0,0,5.633-2.279l1.238.847a6.765,6.765,0,0,1-5.683,3.087" fill="#613849"/>
        <path id="Path_578196" data-name="Path 578196" d="M100.132,102.271a6.766,6.766,0,0,1-5.683-3.087l1.238-.847a5.214,5.214,0,0,0,5.63,2.28l.438,1.434a5.692,5.692,0,0,1-1.623.22" fill="#613849"/>
        <path id="Path_578197" data-name="Path 578197" d="M91.855,114.1l-1.482-.233c.2-1.274,1.534-3.738,5.153-3.939l.083,1.5c-3.326.184-3.75,2.649-3.754,2.674" fill="#613849"/>
        <path id="Path_578198" data-name="Path 578198" d="M118.336,99.561c-2.309-1.121-3.479-.468-3.527-.438l-.8-1.267c.185-.122,1.911-1.14,4.984.356Z" fill="#613849"/>
        <path id="Path_578199" data-name="Path 578199" d="M115.008,98.945l-1.185-.921c2.737-3.521,7.02-2.59,8.9-1.6l-.694,1.329c-.178-.093-4.375-2.211-7.021,1.2" fill="#613849"/>
        <path id="Path_578200" data-name="Path 578200" d="M66.9,96.431a1.219,1.219,0,0,1-.345-.052c-2.818-.837-2.547-16.016-.195-24.67a27.342,27.342,0,0,1,6.49-11.566c7.517-7.95,19.328-10.376,30.09-6.18a27.735,27.735,0,0,1,12.127,8.586c3.4,4.374,7.209,13.182,6.061,30.3l-1.5-.1c1.176-17.522-3.1-25.864-5.75-29.277a26.263,26.263,0,0,0-11.488-8.108C92.2,51.388,81.03,53.669,73.936,61.174A25.825,25.825,0,0,0,67.8,72.1c-2.5,9.177-1.977,20.812-.9,22.682a7.567,7.567,0,0,0,.88-2.024,63.138,63.138,0,0,1,9.231-17.272l1.181.923a62.912,62.912,0,0,0-8.985,16.81c-.32.992-1.036,3.209-2.316,3.209" fill="#613849"/>
        <path id="Path_578201" data-name="Path 578201" d="M92.539,127.324a24.818,24.818,0,0,1-24.79-24.79V92.991h1.5v9.543a23.317,23.317,0,0,0,23.29,23.29A23.047,23.047,0,0,0,103,123.348,20.139,20.139,0,0,0,113.49,109.86a19.147,19.147,0,0,0,.288-3.227l1.2-.568a6.956,6.956,0,0,0,4.244,1.427,7.021,7.021,0,1,0,0-14.041,6.606,6.606,0,0,0-4.963,1.973l-.649.222c-30.839-4.485-39.064-24.008-39.144-24.2l1.39-.563c.077.188,7.965,18.776,37.6,23.228a8.215,8.215,0,0,1,5.765-2.156,8.521,8.521,0,1,1-4.014,16.04,14.482,14.482,0,0,1-.264,2.227,21.621,21.621,0,0,1-11.272,14.47,24.533,24.533,0,0,1-11.136,2.636" fill="#613849"/>
        <path id="Path_578202" data-name="Path 578202" d="M94.1,140.172a19.167,19.167,0,0,1-10.885-3.561l-.283-.587V124.892h1.5v10.756a16.344,16.344,0,0,0,19.013-.016v-12.07h1.5v12.462l-.317.612A17.926,17.926,0,0,1,94.1,140.172" fill="#613849"/>
        <path id="Path_578203" data-name="Path 578203" d="M25.266,183.109l-1.308-.734,4.085-7.2a105.949,105.949,0,0,1,11.283-14.707l.261-.286c.178-.2.356-.392.534-.577a89.683,89.683,0,0,1,15.217-12.98l.283-.186c.122-.081.242-.161.363-.237l.049-.042c.711-.457,1.375-.88,2.027-1.28.482-.3.956-.589,1.442-.866a76.64,76.64,0,0,1,6.883-3.6l.462.613-.336-.671.093-.046A60.282,60.282,0,0,1,82.345,135.4l.074-.007v0c.557-.085.848-.109.848-.109l.124,1.5c-.016,0-.27.023-.746.1l-.085.008v0a58.733,58.733,0,0,0-15.334,4.8l-.145.069a75.914,75.914,0,0,0-6.826,3.568c-.479.274-.938.555-1.408.846-.647.4-1.3.816-1.959,1.234l-.724.486a88.235,88.235,0,0,0-14.956,12.761c-.173.181-.342.367-.51.552l-.269.295a104.62,104.62,0,0,0-11.125,14.5l-.5.816Z" fill="#613849"/>
        <path id="Path_578204" data-name="Path 578204" d="M134.337,196.88l-1.054-1.067a44.306,44.306,0,0,1,5.391-4.525c.417-.3.836-.592,1.267-.872a50.947,50.947,0,0,1,6.664-3.768c.5-.234,1-.465,1.5-.674a58.6,58.6,0,0,1,9.448-3.209,54.663,54.663,0,0,1,6.676-1.266c-.7-1.137-1.433-2.219-2.132-3.234l-.969-1.4c-.2-.276-.4-.565-.592-.855-.261-.374-.528-.757-.783-1.151-.718-1.075-1.334-1.963-1.934-2.787a89.607,89.607,0,0,0-8.935-10.561c-.289-.289-.57-.569-.851-.839a91.1,91.1,0,0,0-19.218-14.39l-.107-.062c-.6-.334-1.113-.616-1.619-.886-.893-.474-1.763-.915-2.621-1.344a95.129,95.129,0,0,0-10.642-4.514c-.922-.326-1.787-.607-2.6-.854a60.3,60.3,0,0,0-7.152-1.854l.25-1.48a60.547,60.547,0,0,1,7.346,1.9c.822.251,1.709.538,2.652.872a96.7,96.7,0,0,1,10.812,4.586c.87.435,1.752.882,2.655,1.362.519.277,1.047.564,1.576.863l.126.081.005-.008.047.033,0-.005a92.624,92.624,0,0,1,19.529,14.622c.282.27.57.558.869.858a90.974,90.974,0,0,1,9.087,10.739c.611.836,1.238,1.741,1.973,2.842.251.389.508.757.765,1.125.195.287.384.566.585.846l.976,1.413c.918,1.332,1.893,2.78,2.794,4.334l-.6,1.125a48.08,48.08,0,0,0-7.613,1.344,57.267,57.267,0,0,0-9.221,3.133c-.492.206-.971.429-1.452.653a49.431,49.431,0,0,0-6.472,3.662c-.42.273-.82.55-1.22.839a42.812,42.812,0,0,0-5.211,4.373" fill="#613849"/>
        <path id="Path_578205" data-name="Path 578205" d="M96.824,253.919c-3.392,0-6.809-.1-10.229-.3-3.306-.191-6.737-.487-10.2-.879-3.985-.468-7.869-1.041-11.549-1.7a148.294,148.294,0,0,1-19.628-4.726l-.494-.855,15.129-76.927,1.472.29-15,76.274a154.5,154.5,0,0,0,18.786,4.468c3.65.655,7.5,1.223,11.456,1.688,3.43.389,6.834.682,10.113.872a168.037,168.037,0,0,0,20.124,0,138.4,138.4,0,0,0,31.235-5.463c2.116-.631,4.261-1.338,6.377-2.1l.51,1.41c-2.143.775-4.315,1.491-6.457,2.129a139.835,139.835,0,0,1-31.572,5.524c-3.317.2-6.683.3-10.075.3" fill="#613849"/>
        <rect id="Rectangle_24232" data-name="Rectangle 24232" width="1.5" height="78.534" transform="translate(126.56 168.837) rotate(-12.787)" fill="#613849"/>
        <rect id="Rectangle_24233" data-name="Rectangle 24233" width="296.446" height="1.5" transform="translate(36.692 544.579) rotate(-86.023)" fill="#613849"/>
        <rect id="Rectangle_24234" data-name="Rectangle 24234" width="224.282" height="1.5" transform="matrix(0.053, -0.999, 0.999, 0.053, 83.91, 504.328)" fill="#613849"/>
        <path id="Path_578206" data-name="Path 578206" d="M106.552,545.387H37.52v-1.5h68.41c3.463-19.028-5.932-35.392-22.509-39.039-10.1-2.223-19.971-.221-26.407,5.354l-.982-1.132c6.791-5.885,17.15-8.012,27.711-5.687,17.582,3.868,27.484,21.279,23.545,41.4Z" fill="#613849"/>
        <rect id="Rectangle_24235" data-name="Rectangle 24235" width="1.5" height="297.343" transform="matrix(0.994, -0.112, 0.112, 0.994, 130.95, 249.25)" fill="#613849"/>
        <rect id="Rectangle_24236" data-name="Rectangle 24236" width="1.5" height="220.215" transform="translate(97.105 284.926) rotate(-4.607)" fill="#613849"/>
        <rect id="Rectangle_24237" data-name="Rectangle 24237" width="57.631" height="1.5" transform="translate(106.552 543.887)" fill="#613849"/>
        <path id="Path_578207" data-name="Path 578207" d="M102.451,517.165l-1.308-.734a29.411,29.411,0,0,1,19.577-14.5c10.56-2.322,20.921-.2,27.71,5.686l-.982,1.133c-6.433-5.574-16.3-7.575-26.406-5.355a27.572,27.572,0,0,0-18.591,13.769" fill="#613849"/>
        <path id="Path_578208" data-name="Path 578208" d="M144.445,361.347l-.37-1.453c.1-.028,10.512-3.133,12.419-30.822.1-1.339.145-2.966.145-4.977.1-12.226-1.337-35.879-4.262-70.311l-.069-.856c-.42-4.956-.852-9.846-1.273-14.6l-.08-.857c-.455-5.067-.9-9.968-1.33-14.6-.034-.275-.058-.569-.081-.863-.5-5.3-.966-10.226-1.386-14.593-.034-.277-.058-.56-.081-.855-.344-3.565-.66-6.752-.929-9.452l-.356-3.626c-.054-.538-.105-1.045-.148-1.517l-.02-.184c-.028-.239-.053-.463-.071-.674l-.375-3.708,1.493-.151.376,3.723c.018.206.042.416.067.641l.022.2c.045.484.1.987.148,1.521l.356,3.626c.269,2.7.586,5.889.931,9.469.023.288.045.551.077.825.424,4.386.891,9.312,1.391,14.624.022.285.045.56.078.834.433,4.65.877,9.553,1.332,14.628l.081.86c.42,4.749.853,9.641,1.272,14.6l.07.858c2.928,34.474,4.364,58.174,4.267,70.44,0,2.042-.048,3.7-.149,5.077-1.994,28.951-13.074,32.051-13.545,32.169" fill="#613849"/>
        <path id="Path_578209" data-name="Path 578209" d="M49.876,361.33c-.6-.2-14.672-5.234-16.662-34.146-.672-9.784.335-34.517,2.991-73.515l.069-.862c.308-4.452.625-8.883.935-13.211l.1-1.389c.01-.27.033-.565.057-.859.375-5.069.739-9.972,1.092-14.6l.068-.856c.4-5.3.785-10.225,1.138-14.6.022-.275.044-.551.055-.814l.855-10.427h0a1.014,1.014,0,0,1,0-.111l.006-.128.717-8.59,1.494.127-.716,8.587a.994.994,0,0,1-.005.11l-.006.128-.853,10.4c-.01.253-.033.547-.057.841-.353,4.378-.74,9.3-1.137,14.6l-.069.857c-.352,4.626-.716,9.528-1.091,14.6-.023.28-.045.554-.056.828l-.1,1.412c-.309,4.327-.627,8.757-.935,13.215l-.064.8c-2.619,38.436-3.653,63.787-3,73.364,1.915,27.816,15.507,32.781,15.644,32.829Z" fill="#613849"/>
        <path id="Path_578210" data-name="Path 578210" d="M143.21,348.1l-.861-1.229c2.344-1.645,2.673-7.8,2.6-10.028l1.5-.049c.012.361.247,8.859-3.239,11.306" fill="#613849"/>
        <path id="Path_578211" data-name="Path 578211" d="M50.583,348.1c-3.486-2.447-3.251-10.945-3.239-11.306l1.5.049c-.071,2.232.257,8.383,2.6,10.028Z" fill="#613849"/>
        <path id="Path_578212" data-name="Path 578212" d="M148.042,326.488a34.769,34.769,0,0,1-8-.917l.376-1.451c.093.022,9.21,2.321,16.714-.729l.563,1.389a25.823,25.823,0,0,1-9.649,1.708" fill="#613849"/>
        <path id="Path_578213" data-name="Path 578213" d="M154.472,327.545a1.816,1.816,0,1,1-1.816-1.816,1.816,1.816,0,0,1,1.816,1.816" fill="#613849"/>
        <rect id="Rectangle_24238" data-name="Rectangle 24238" width="1.5" height="44.188" transform="translate(41.473 484.693) rotate(-87.292)" fill="#613849"/>
        <rect id="Rectangle_24239" data-name="Rectangle 24239" width="44.459" height="1.5" transform="translate(113.477 483.186) rotate(-2.752)" fill="#613849"/>
        <path id="Path_578214" data-name="Path 578214" d="M103.916,106.568a2.381,2.381,0,1,1-2.381-2.38,2.38,2.38,0,0,1,2.381,2.38" fill="#fab5a0"/>
        <path id="Path_578215" data-name="Path 578215" d="M132.167,261.58c-9.047-.882-13.878-8.87-14.078-9.21l1.29-.765c.045.077,4.658,7.675,12.934,8.482Z" fill="#fdece4"/>
        <path id="Path_578216" data-name="Path 578216" d="M57.928,261.58l-.146-1.493c8.276-.807,12.889-8.4,12.935-8.482l1.29.765c-.2.34-5.033,8.328-14.079,9.21" fill="#fdece4"/>
        <path id="Path_578217" data-name="Path 578217" d="M128.491,145.918l-.022-.049c-.146-.281-.282-.587-.415-.916-.163-.394-.327-.814-.49-1.269-2.761-7.608-4.922-22.322-5.964-30.415-.287-2.216-.491-3.934-.6-4.853l-.083-.751,1.49-.176s.012.1.025.283l.057.467c.109.916.313,2.629.6,4.838,1.033,8.032,3.173,22.623,5.886,30.1.157.435.311.834.466,1.21.117.288.234.552.36.794l.042.1a.427.427,0,0,1,.046.105l-1.418.487.709-.244Z" fill="#613849"/>
        <path id="Path_578218" data-name="Path 578218" d="M56.44,147.559l-1.368-.614c.246-.549.481-1.12.717-1.7.111-.27.221-.553.318-.826,2.138-5.6,3.957-13.14,5.415-22.419l.015,0,.016-.078-.021,0c.988-6.371,1.781-13.385,2.36-20.85l.02-.122c.239-3.24.442-6.419.547-8.737.079-1.655.113-2.585.113-2.587l1.5.055s-.034.936-.114,2.591c-.105,2.342-.309,5.539-.559,8.78a.719.719,0,0,1-.014.18c-.581,7.486-1.378,14.524-2.369,20.92L63,122.23c-1.473,9.383-3.32,17.022-5.489,22.707-.1.282-.219.59-.338.874-.239.594-.482,1.182-.736,1.748" fill="#613849"/>
        <path id="Path_578219" data-name="Path 578219" d="M65.526,94.133l2.973.724s-1.452,13.346,4.731,22c0,0,5.59,6.579,11.386,8.149l-1.607,11.02a94.4,94.4,0,0,0-16.161,5c-8.155,3.424-10.435,5.789-10.435,5.789s5.056-15.837,5.847-24.713,3.266-27.972,3.266-27.972" fill="#613849"/>
        <path id="Path_578220" data-name="Path 578220" d="M114.956,106.965a13.287,13.287,0,0,0,6.7,1.349s4.308,32.6,7.852,37.947c0,0-13.807-7.71-25.308-10.694l.467-12.282s7.238-3.7,10.288-16.32" fill="#613849"/>
        <path id="Path_578221" data-name="Path 578221" d="M148.042,196.832l-.46-1.428c.3-.1.6-.206.9-.325l.166-.052a20.222,20.222,0,0,0,1.987-.925,31.985,31.985,0,0,0,4.347-2.8q.554-.417,1.073-.837a57.315,57.315,0,0,0,5.244-4.816c.373-.385.722-.745,1.037-1.084,1.586-1.684,2.545-2.889,2.556-2.9l1.173.932c-.041.051-1,1.262-2.635,2.994-.32.342-.674.71-1.053,1.1a58.546,58.546,0,0,1-5.382,4.942q-.536.432-1.108.867a33.578,33.578,0,0,1-4.553,2.933,21.494,21.494,0,0,1-2.269,1.046l-.167.052c-.287.11-.567.212-.855.305" fill="#613849"/>
        <path id="Path_578222" data-name="Path 578222" d="M164.557,182.737s-7.311.379-12.008,1.932-5.156,2.826-5.457,4.311-.117,6.7,1.667,6.8,14.548-9.75,15.8-13.046" fill="#613849"/>
        <path id="Path_578223" data-name="Path 578223" d="M54.825,196.874l-.182-.171a42.245,42.245,0,0,0-5.03-4.192c-.408-.295-.8-.574-1.2-.842a51.069,51.069,0,0,0-23.826-8.178l.05-1.5a51.606,51.606,0,0,1,24.608,8.429c.417.278.823.568,1.24.87a43.786,43.786,0,0,1,5.214,4.347l.191.18Z" fill="#613849"/>
        <path id="Path_578224" data-name="Path 578224" d="M41.367,196.869l-.275-.048a26.571,26.571,0,0,1-7.779-4.327c-.369-.276-.733-.569-1.1-.874a56.371,56.371,0,0,1-8.2-8.424l1.194-.908a55.969,55.969,0,0,0,7.967,8.178c.348.292.69.568,1.043.833a25.326,25.326,0,0,0,7.222,4.058l.147.047-.221.65Z" fill="#613849"/>
        <path id="Path_578225" data-name="Path 578225" d="M25.413,182.9s7.651-.412,12.008,1.932c3,1.614,4.326.954,4.626,2.439s-.108,8.675-.836,8.675c-1.785,0-14.548-9.75-15.8-13.046" fill="#613849"/>
        <path id="Path_578226" data-name="Path 578226" d="M80.135,143.345a1.736,1.736,0,1,1-1.736-1.736,1.736,1.736,0,0,1,1.736,1.736" fill="#613849"/>
        <path id="Path_578227" data-name="Path 578227" d="M96.268,161.12a1.736,1.736,0,1,1-1.736-1.736,1.736,1.736,0,0,1,1.736,1.736" fill="#613849"/>
        <path id="Path_578228" data-name="Path 578228" d="M68.08,173.345a1.736,1.736,0,1,1-1.736-1.736,1.736,1.736,0,0,1,1.736,1.736" fill="#613849"/>
        <path id="Path_578229" data-name="Path 578229" d="M87.476,192.033A1.736,1.736,0,1,1,85.74,190.3a1.736,1.736,0,0,1,1.736,1.736" fill="#613849"/>
        <path id="Path_578230" data-name="Path 578230" d="M112.975,182.127a1.736,1.736,0,1,1-1.736-1.736,1.736,1.736,0,0,1,1.736,1.736" fill="#613849"/>
        <path id="Path_578231" data-name="Path 578231" d="M122.316,150.352a1.736,1.736,0,1,1-1.736-1.736,1.736,1.736,0,0,1,1.736,1.736" fill="#613849"/>
        <path id="Path_578232" data-name="Path 578232" d="M146.408,168.671a1.736,1.736,0,1,1-1.736-1.736,1.736,1.736,0,0,1,1.736,1.736" fill="#613849"/>
        <path id="Path_578233" data-name="Path 578233" d="M136.575,193.769a1.736,1.736,0,1,1-1.736-1.736,1.736,1.736,0,0,1,1.736,1.736" fill="#613849"/>
        <path id="Path_578234" data-name="Path 578234" d="M111.239,210.921a1.736,1.736,0,1,1-1.736-1.736,1.736,1.736,0,0,1,1.736,1.736" fill="#613849"/>
        <path id="Path_578235" data-name="Path 578235" d="M65.285,215.954a1.736,1.736,0,1,1-1.736-1.736,1.736,1.736,0,0,1,1.736,1.736" fill="#613849"/>
        <path id="Path_578236" data-name="Path 578236" d="M89.212,237.96a1.736,1.736,0,1,1-1.736-1.736,1.736,1.736,0,0,1,1.736,1.736" fill="#613849"/>
        <path id="Path_578237" data-name="Path 578237" d="M140.047,244.073a1.736,1.736,0,1,1-1.736-1.736,1.736,1.736,0,0,1,1.736,1.736" fill="#613849"/>
        <path id="Path_578238" data-name="Path 578238" d="M41.367,165.2a1.736,1.736,0,1,1-1.736-1.736,1.736,1.736,0,0,1,1.736,1.736" fill="#613849"/>
        <path id="Path_578239" data-name="Path 578239" d="M139.454,219.1a1.736,1.736,0,1,1-1.736-1.736,1.736,1.736,0,0,1,1.736,1.736" fill="#613849"/>
        <rect id="Rectangle_24240" data-name="Rectangle 24240" width="201.25" height="1.5" transform="translate(0 543.887)" fill="#613849"/>
      </g>
    </g>
  </g>
</svg>
