<svg xmlns="http://www.w3.org/2000/svg" width="127.066" height="123.105" viewBox="0 0 127.066 123.105">
  <g id="Layer_1" data-name="Layer 1" transform="translate(0.5 0.5)">
    <path id="Path_563201" data-name="Path 563201" d="M113.922,97.046,16,113.786A9.974,9.974,0,0,1,4.524,105.66S-5.065,6.51,3.678,5.015c0,0,102.852-10.222,104.347-1.479l14.024,82.031A9.974,9.974,0,0,1,113.922,97.046Z" transform="translate(3.862 8.162)" fill="#ebebeb" stroke="#613849" stroke-width="1"/>
    <path id="Path_563202" data-name="Path 563202" d="M109.991,100.274,11.1,109.742A9.974,9.974,0,0,1,.255,100.791S-1.99,1.2,6.839.358c0,0,103.326-2.6,104.171,6.226l7.932,82.843A9.974,9.974,0,0,1,109.991,100.274Z" transform="translate(2.243 8.451)" fill="#fff" stroke="#613849" stroke-width="1"/>
    <path id="Rectangle_23709" data-name="Rectangle 23709" d="M59.615,0h0A59.615,59.615,0,0,1,119.23,59.615V70.842a36.763,36.763,0,0,1-36.763,36.763h-45.7A36.763,36.763,0,0,1,0,70.842V59.615A59.615,59.615,0,0,1,59.615,0Z" transform="translate(0 3.782)" fill="#fff" stroke="#613849" stroke-width="1"/>
    <path id="Path_578480" data-name="Path 578480" d="M27.968,0H91.262A27.968,27.968,0,0,1,119.23,27.968H0A27.968,27.968,0,0,1,27.968,0Z" transform="translate(0 3.782)" fill="#fff" stroke="#613849" stroke-width="1"/>
    <path id="Path_563204" data-name="Path 563204" d="M2.425,8.138h0A2.433,2.433,0,0,1,0,5.712V0H4.851V5.712A2.432,2.432,0,0,1,2.425,8.138Z" transform="translate(16.977 3.782)" fill="none" stroke="#613849" stroke-width="1"/>
    <path id="Path_563205" data-name="Path 563205" d="M2.425,8.138h0A2.432,2.432,0,0,1,0,5.712V0H4.851V5.712A2.433,2.433,0,0,1,2.425,8.138Z" transform="translate(45.678 3.782)" fill="none" stroke="#613849" stroke-width="1"/>
    <path id="Path_563206" data-name="Path 563206" d="M2.425,8.138h0A2.433,2.433,0,0,1,0,5.712V0H4.851V5.712A2.433,2.433,0,0,1,2.425,8.138Z" transform="translate(72.523 3.782)" fill="none" stroke="#613849" stroke-width="1"/>
    <path id="Path_563207" data-name="Path 563207" d="M2.425,8.3h0A2.433,2.433,0,0,1,0,5.87V.158C0-.226,4.851.21,4.851.21V5.87A2.433,2.433,0,0,1,2.425,8.3Z" transform="translate(99.555 3.624)" fill="none" stroke="#613849" stroke-width="1"/>
    <rect id="Rectangle_23711" data-name="Rectangle 23711" width="4.851" height="11.103" rx="2.425" transform="translate(44.721 0)" fill="#ebebeb" stroke="#613849" stroke-width="1"/>
    <rect id="Rectangle_23712" data-name="Rectangle 23712" width="4.851" height="11.103" rx="2.425" transform="translate(71.7 0)" fill="#ebebeb" stroke="#613849" stroke-width="1"/>
    <rect id="Rectangle_23713" data-name="Rectangle 23713" width="4.851" height="11.103" rx="2.425" transform="translate(98.679 0)" fill="#ebebeb" stroke="#613849" stroke-width="1"/>
    <path id="Path_563208" data-name="Path 563208" d="M28.2,0,0,29.655a55.838,55.838,0,0,0,1.075-8.5c.005-2.084-.421-3.9-.564-6.895C.109,5.862,4.97,3.724,7.266,2.481c3.52-1.906,9.293-.5,12.773-.722C21.509,1.664,27.105,1.419,28.2,0Z" transform="translate(80.969 81.429)" fill="none" stroke="#613849" stroke-width="1"/>
    <path id="Path_563209" data-name="Path 563209" d="M37.545.183,0,31.7a63.361,63.361,0,0,0,2.234-9.836c.233-2.44-.087-4.618.065-8.14C2.726,3.848,8.873,1.9,11.8.7c4.491-1.832,11.36.479,15.62.611C29.22,1.369,36.055,1.721,37.545.183Z" transform="translate(80.969 79.38)" fill="#fff" stroke="#613849" stroke-width="1"/>
    <rect id="Rectangle_23714" data-name="Rectangle 23714" width="15.904" height="10.311" transform="translate(12.304 47.399)" fill="none" stroke="#613849" stroke-width="1"/>
    <rect id="Rectangle_23715" data-name="Rectangle 23715" width="15.904" height="10.311" transform="translate(12.304 65.751)" fill="none" stroke="#613849" stroke-width="1"/>
    <rect id="Rectangle_23716" data-name="Rectangle 23716" width="15.904" height="10.311" transform="translate(37.614 65.751)" fill="none" stroke="#613849" stroke-width="1"/>
    <rect id="Rectangle_23717" data-name="Rectangle 23717" width="15.904" height="10.311" transform="translate(62.923 65.751)" fill="none" stroke="#613849" stroke-width="1"/>
    <rect id="Rectangle_23718" data-name="Rectangle 23718" width="15.904" height="10.311" transform="translate(87.744 65.751)" fill="none" stroke="#613849" stroke-width="1"/>
    <rect id="Rectangle_23719" data-name="Rectangle 23719" width="15.904" height="10.311" transform="translate(12.305 84.103)" fill="none" stroke="#613849" stroke-width="1"/>
    <rect id="Rectangle_23720" data-name="Rectangle 23720" width="15.904" height="10.311" transform="translate(37.614 84.103)" fill="none" stroke="#613849" stroke-width="1"/>
    <rect id="Rectangle_23721" data-name="Rectangle 23721" width="15.904" height="10.311" transform="translate(62.923 84.103)" fill="none" stroke="#613849" stroke-width="1"/>
    <rect id="Rectangle_23722" data-name="Rectangle 23722" width="15.904" height="10.311" transform="translate(37.614 47.399)" fill="none" stroke="#613849" stroke-width="1"/>
    <rect id="Rectangle_23723" data-name="Rectangle 23723" width="15.904" height="10.311" transform="translate(62.923 47.399)" fill="none" stroke="#613849" stroke-width="1"/>
    <rect id="Rectangle_23724" data-name="Rectangle 23724" width="15.904" height="10.311" transform="translate(88.232 47.399)" fill="none" stroke="#613849" stroke-width="1"/>
    <rect id="Rectangle_23725" data-name="Rectangle 23725" width="4.851" height="11.103" rx="2.425" transform="translate(16.015 0)" fill="#ebebeb" stroke="#613849" stroke-width="1"/>
  </g>
</svg>
