<svg xmlns="http://www.w3.org/2000/svg" xmlns:xlink="http://www.w3.org/1999/xlink" width="300.358" height="290.203" viewBox="0 0 300.358 290.203">
  <defs>
    <linearGradient id="linear-gradient" x1="0.5" x2="0.5" y2="1" gradientUnits="objectBoundingBox">
      <stop offset="0" stop-color="#fa6c51"/>
      <stop offset="1" stop-color="#f2e2df"/>
    </linearGradient>
  </defs>
  <g id="Group_51576" data-name="Group 51576" transform="translate(-31.848 -199.956)">
    <path id="Path_563918" data-name="Path 563918" d="M270.714,71.949c1.614,7.769.06,12.43-1.235,16.869-4.327,14.853-19.264,24.29-22.074,31.26-1.435,3.832,3.915,13.364,6.317,13.547,4.96.38,10.7-12,17.727-16.2s17.645-4.434,22.53,8.562c4.049,13.091-3.61,18.155-10.124,21.192-6.287,1.755-37.937,4.144-36.169,7.467,3.408,19.131,67.407,28.038,78.959,57.358s-14.656,41.8-32.595,38.206c-37.247-8.675-58.173-73.1-74.14-60.879-4.137,3.166-5.18,49.046-13.63,58.875-7.525,10.987-28.784,16.814-43.93,4.811-25.762-19.772,43.2-64.414,12.437-56.562-10.5,2.68-26.354,20.778-37.373,12.727s-9.048-19.76-1.689-24.29c9.958-8.588,46.858,1.259,41.054-12.162-4.808-11.118-45.85-6.308-64.825-16.9-9.786-5.463-16.927-15.438-14.772-29.45C98.668,110.012,111.6,100.3,126.1,100.587c24.483.364,29.031,34.153,56.97,35.62a108.7,108.7,0,0,0,17.8-2.3c5.03-1.137,9.23-5.091,12.893-9.019,10.923-16.633-8.52-32.451,3.5-59.361,6.607-11.7,15.922-18.924,29.287-17.317S268.067,59.562,270.714,71.949Z" transform="translate(53.865 115.561) rotate(25)" fill="url(#linear-gradient)"/>
    <path id="Path_563919" data-name="Path 563919" d="M8.749,1.444c4.677,0,7.924,9.024,8.217,15.542S10.5,25.4,10.5,25.4-2.11,32.181-3.462,18.156,4.072,1.444,8.749,1.444Z" transform="translate(186.006 280.128) rotate(21)" fill="url(#linear-gradient)"/>
    <path id="Path_563920" data-name="Path 563920" d="M4.57-.352c2.228,0,7.884,2.747,7.623,5.934S4.975,12.4,3.527,12.4a5,5,0,0,1-4.816-5C-1.289,4.529-.068.373,4.57-.352Z" transform="translate(243.676 383.127) rotate(21)" fill="url(#linear-gradient)"/>
    <g id="hand" transform="translate(-1102.889 20.984) rotate(-17)">
      <g id="Group_51575" data-name="Group 51575" transform="translate(1074.605 624.219)">
        <path id="Path_563896" data-name="Path 563896" d="M1109.759,634.347c-.808.373,2.674,7.6,3.667,11.85.211.9.393,1.677.5,2.174l.061.28.025.3c.231,2.832.437,5.366.64,7.9.208,2.59.418,5.178.655,8.078.386,4.713-2.507,8.967-5.893,13.944-2.731,4.016-5.864,8.621-7.092,13.629l-.848,3.458-3.538-.13c-2.839-.1-5.662-.105-8.469-.024-1.664.048-3.4.133-5.189.248a69.747,69.747,0,0,0-.225,21.6,51.752,51.752,0,0,0,5.791,17.857,90.832,90.832,0,0,0,13.759-4.145l1.462-.606,1.49.469c23.889,7.518,37.909,3.645,45.483-4.657a30.731,30.731,0,0,0,6.84-13.385A47.757,47.757,0,0,0,1160,697.682c-.779-9.014-3.336-16.371-6-17.268a28.834,28.834,0,0,1-17.164-4.983,19.684,19.684,0,0,1-8.655-15.51V659.9l0-.118v-.017c-.072-2.273-.208-4.877-.47-7.438a39.206,39.206,0,0,0-1.134-6.536,33.239,33.239,0,0,0-1.725-4.714,16.036,16.036,0,0,0-5.269-6.821,8.56,8.56,0,0,0-7.369-.83,17.151,17.151,0,0,0-2.444.918Zm-4.831,13.83c-1.555-6.651-4.477-19.14,1.178-21.747a26.1,26.1,0,0,1,3.707-1.4,16.882,16.882,0,0,1,14.536,1.922,24.515,24.515,0,0,1,8.409,10.473,42.094,42.094,0,0,1,2.2,5.977,47.96,47.96,0,0,1,1.406,8.038c.278,2.714.424,5.541.5,8.035h0l0,.1h0a11.192,11.192,0,0,0,5,8.753A20.143,20.143,0,0,0,1154.1,671.7h0l.207-.007.489-.018.4.069c6.56,1.131,12.374,12.088,13.506,25.186a56.537,56.537,0,0,1-1.357,18.372,39.342,39.342,0,0,1-8.854,17.138c-9.52,10.434-26.1,15.683-53.053,7.567a107.88,107.88,0,0,1-13.877,4.036c-.35.084-.7.167-2.688.666l-2.935.735-1.724-2.509c-4.53-6.6-7.469-15.04-8.793-24.021a77.925,77.925,0,0,1,.986-27.917l.707-3.156,3.2-.257c2.811-.226,5.767-.395,8.916-.486q2.835-.082,5.673-.055c1.84-5.012,4.731-9.262,7.311-13.055,2.444-3.592,4.532-6.663,4.391-8.382-.237-2.9-.447-5.488-.656-8.078-.2-2.439-.394-4.882-.615-7.591-.12-.54-.255-1.116-.406-1.762Z" transform="translate(-1074.605 -624.219)" fill="#ff927d"/>
        <path id="Path_563897" data-name="Path 563897" d="M1177.585,700.367c-2.792,1.287.81,14.674,1.728,18.905.469,5.732.826,10.241,1.3,15.974.529,6.459-10.046,14.711-12.865,26.208a148.989,148.989,0,0,0-17.436.462c-3.727,16.631-1.279,36.261,7.158,48.542,4.837-1.211,11.176-2.49,17.446-5.087,73.763,23.217,63.338-56.91,49.2-59.346-11.287.443-21.607-6.022-21.938-16.414-.152-4.772-.562-10.871-1.758-15.032-2.978-10.365-10.013-20.121-22.832-14.212Z" transform="translate(-1144.257 -694.198)" fill="#ffe7d8" fill-rule="evenodd"/>
        <path id="Path_563899" data-name="Path 563899" d="M1225.388,2294.485a43.212,43.212,0,0,0,4.329,8.138c4.838-1.211,11.176-2.49,17.446-5.086,32.051,10.087,48.2.662,55.064-13.421-13.04,7.594-29.133,9.545-47.214,7.824,1.776-1.972,2.868-5.738,1.374-5.5a241.165,241.165,0,0,1-31,8.043Z" transform="translate(-1216.508 -2186.363)" fill="#faa67f" fill-rule="evenodd"/>
        <path id="Path_563900" data-name="Path 563900" d="M1636.2,1719.193l-6.629-1.741c-5.841-4.211-6.47-10.212-8.888-10-3.407.3-4.591,8.863-14.368,18.881-2.237,2.292-8.854,5.093-8.971,6.942-.106,1.683,7.022,2.4,13.9,3.4,11.794,1.715,24.5,7.559,26.992,8.139-.634-8.064-1.4-17.556-2.032-25.621Z" transform="translate(-1566.56 -1643.656)" fill="#faa67f" fill-rule="evenodd"/>
        <path id="Path_563901" data-name="Path 563901" d="M2105.4,2181.951c3.3.4,6.7.706,9.946.8a59,59,0,0,0,9.228-.4,5.833,5.833,0,0,0,3.057-2.85,5.512,5.512,0,0,0,.527-2.054,5.047,5.047,0,0,0-.282-2.015,4.809,4.809,0,0,0-2.142-2.508,58.345,58.345,0,0,0-9.863-.3,75.576,75.576,0,0,0-11.154,1.447,3.181,3.181,0,0,0-1.9,1.649,4.675,4.675,0,0,0-.438,2.312,4.811,4.811,0,0,0,.7,2.286,3.648,3.648,0,0,0,2.322,1.638Zm9.754,7.792c-3.692-.1-7.3-.42-10.693-.834l-.233-.041a10.513,10.513,0,0,1-7.076-4.823,11.918,11.918,0,0,1-1.771-5.66,11.646,11.646,0,0,1,1.151-5.769,10.071,10.071,0,0,1,6.3-5.3l.288-.069a82.833,82.833,0,0,1,12.393-1.625,64.84,64.84,0,0,1,11.729.428l.545.071.511.245a11.8,11.8,0,0,1,6.16,6.671,12,12,0,0,1,.694,4.786,12.569,12.569,0,0,1-1.213,4.688,12.815,12.815,0,0,1-7.3,6.541l-.351.126-.363.052a65.04,65.04,0,0,1-10.776.511Z" transform="translate(-2035.248 -2074.763)" fill="#ff927d"/>
        <path id="Path_563902" data-name="Path 563902" d="M2160.867,2241.384c6.727.821,14.054,1.254,20.563.336,7.531-2.732,8.521-12.808,1.343-16.239a69.423,69.423,0,0,0-22.97,1.156c-7.075,2.091-6.447,13.312,1.065,14.747Z" transform="translate(-2091.23 -2130.722)" fill="#ffe7d8" fill-rule="evenodd"/>
        <path id="Path_563904" data-name="Path 563904" d="M2160.867,2245.043c1.846.225,3.739.421,5.646.568-5.431-4.234-4.271-12.394,3.038-16.73a81.421,81.421,0,0,0-9.749,1.415c-7.075,2.092-6.447,13.313,1.065,14.747Z" transform="translate(-2091.23 -2134.381)" fill="#faa67f" fill-rule="evenodd"/>
        <path id="Path_563905" data-name="Path 563905" d="M2017.607,1249.806c3.833-1.143,7.912-2.223,12.1-3.079a81.036,81.036,0,0,1,12.459-1.648l.431-.02.339.051a14.768,14.768,0,0,1,10.179,6.2,13.408,13.408,0,0,1,1.958,4.431,12.708,12.708,0,0,1,.228,4.848,13.114,13.114,0,0,1-5.831,8.948l-.5.338-.587.18a80.706,80.706,0,0,1-13.359,2.843,103.09,103.09,0,0,1-14.523.793l-.314-.016a11.692,11.692,0,0,1-8.469-4.656,12.729,12.729,0,0,1-1.578-12.261,12.109,12.109,0,0,1,7.23-6.874l.236-.078Zm13.7,4.776c-3.748.767-7.578,1.785-11.274,2.883a4.184,4.184,0,0,0-2.444,2.309,4.624,4.624,0,0,0-.3,2.317,4.475,4.475,0,0,0,.837,2.12,3.789,3.789,0,0,0,2.651,1.469,95.148,95.148,0,0,0,13.239-.733,73,73,0,0,0,11.363-2.366,5.069,5.069,0,0,0,1.966-3.188,4.725,4.725,0,0,0-.071-1.8,5.335,5.335,0,0,0-.8-1.759,6.741,6.741,0,0,0-4.426-2.721,74.073,74.073,0,0,0-10.75,1.468Z" transform="translate(-1954.197 -1208.497)" fill="#ff927d"/>
        <path id="Path_563906" data-name="Path 563906" d="M2082.82,1318c7.57-2.257,15.909-4.222,23.583-4.57,9.222,1.387,12.422,11.989,4.868,17.136a86.865,86.865,0,0,1-26.657,3.463c-8.566-.794-10.14-12.953-1.795-16.029Z" transform="translate(-2018.262 -1272.843)" fill="#ffe7d8" fill-rule="evenodd"/>
        <path id="Path_563908" data-name="Path 563908" d="M2082.821,1362.823c2.078-.62,4.214-1.217,6.378-1.765-5.379,5.651-2.375,14.163,6.919,17.316a101.588,101.588,0,0,1-11.5.479c-8.566-.794-10.14-12.953-1.794-16.029Z" transform="translate(-2018.264 -1317.665)" fill="#faa67f" fill-rule="evenodd"/>
        <path id="Path_563909" data-name="Path 563909" d="M2076.479,1918.8c3.807.407,7.739.71,11.565.786a74.152,74.152,0,0,0,10.841-.507,6.724,6.724,0,0,0,3.847-3.47,5.358,5.358,0,0,0,.463-1.878,4.736,4.736,0,0,0-.251-1.788,5.052,5.052,0,0,0-2.5-2.768,73.12,73.12,0,0,0-11.633-.269,95.082,95.082,0,0,0-13.161,1.689,3.767,3.767,0,0,0-2.3,1.9v.016a4.475,4.475,0,0,0-.443,2.234,4.619,4.619,0,0,0,.694,2.226,4.2,4.2,0,0,0,2.88,1.831Zm11.408,8.8c-4.252-.084-8.459-.407-12.447-.838l-.251-.031a12.1,12.1,0,0,1-8.346-5.456,12.693,12.693,0,0,1-.691-12.346l.007,0a11.706,11.706,0,0,1,7.483-6.115l.314-.079a103.122,103.122,0,0,1,14.446-1.845,80.577,80.577,0,0,1,13.623.374l.612.071.551.243a13.127,13.127,0,0,1,7.362,7.753,12.7,12.7,0,0,1,.66,4.8,13.4,13.4,0,0,1-1.124,4.707,14.782,14.782,0,0,1-8.9,7.949l-.324.111-.445.062a81.05,81.05,0,0,1-12.532.632Z" transform="translate(-2006.555 -1825.586)" fill="#ff927d"/>
        <path id="Path_563910" data-name="Path 563910" d="M2139.993,1986.9c7.854.849,16.41,1.27,24.021.221,8.818-3.035,10.045-14.041,1.683-17.735a86.858,86.858,0,0,0-26.843,1.424c-8.281,2.333-7.626,14.577,1.139,16.089Z" transform="translate(-2070.683 -1889.717)" fill="#ffe7d8" fill-rule="evenodd"/>
        <path id="Path_563912" data-name="Path 563912" d="M2139.993,1991.543c2.156.233,4.365.433,6.593.58-6.314-4.583-4.9-13.5,3.667-18.283a101.644,101.644,0,0,0-11.4,1.614c-8.281,2.333-7.626,14.577,1.139,16.089Z" transform="translate(-2070.683 -1894.36)" fill="#faa67f" fill-rule="evenodd"/>
        <path id="Path_563913" data-name="Path 563913" d="M2047.65,1583.245a104.93,104.93,0,0,1,13.48-2.808c5.628-.851,11.482-1.435,15.8-1.63l.432-.02.338.051a14.768,14.768,0,0,1,10.179,6.2,13.432,13.432,0,0,1,1.959,4.43,12.706,12.706,0,0,1,.227,4.848,13.113,13.113,0,0,1-5.831,8.948l-.479.326-.542.176a73.406,73.406,0,0,1-14.638,2.754,138.869,138.869,0,0,1-18.124.609l-.22-.016a11.691,11.691,0,0,1-8.468-4.656,12.73,12.73,0,0,1-1.578-12.262,12.109,12.109,0,0,1,7.23-6.874l.235-.079Zm14.674,5.143a98.288,98.288,0,0,0-12.25,2.518,4.185,4.185,0,0,0-2.443,2.308,4.631,4.631,0,0,0-.3,2.318,4.478,4.478,0,0,0,.837,2.12,3.791,3.791,0,0,0,2.662,1.469,130.8,130.8,0,0,0,16.954-.58,68.068,68.068,0,0,0,12.35-2.223,5.073,5.073,0,0,0,1.975-3.195,4.72,4.72,0,0,0-.071-1.8,5.34,5.34,0,0,0-.8-1.759,6.74,6.74,0,0,0-4.428-2.722c-3.906.2-9.222.749-14.5,1.546Z" transform="translate(-1982.47 -1522.572)" fill="#ff927d"/>
        <path id="Path_563914" data-name="Path 563914" d="M2112.856,1651.438c7.57-2.257,20.632-3.933,28.306-4.281,9.222,1.387,12.423,11.989,4.869,17.136-8.193,2.665-21.827,3.515-31.379,3.174-8.567-.794-10.141-12.953-1.8-16.029Z" transform="translate(-2046.53 -1586.915)" fill="#ffe7d8" fill-rule="evenodd"/>
        <path id="Path_563916" data-name="Path 563916" d="M2112.856,1686.206a86.561,86.561,0,0,1,9.393-2.106,12.242,12.242,0,0,0,.916,18.136c-3.012.1-5.914.092-8.513,0-8.567-.794-10.141-12.953-1.8-16.029Z" transform="translate(-2046.53 -1621.683)" fill="#faa67f" fill-rule="evenodd"/>
      </g>
    </g>
  </g>
</svg>
