<svg xmlns="http://www.w3.org/2000/svg" width="24.491" height="24.583" viewBox="0 0 24.491 24.583">
  <path id="Path_18224" data-name="Path 18224" d="M261.266,254.169a.922.922,0,0,1-.92-.924.461.461,0,1,0-.921,0,.921.921,0,1,1-1.842,0,2.3,2.3,0,1,1,4.6,0A.922.922,0,0,1,261.266,254.169Zm-7.228-.924a2.3,2.3,0,1,0-4.6,0,.921.921,0,1,0,1.842,0,.461.461,0,1,1,.921,0,.921.921,0,1,0,1.842,0Zm7.848,12.717a.924.924,0,0,0-.954-1.582,10.079,10.079,0,1,1,3.114-3,.922.922,0,1,0,1.531,1.027,11.839,11.839,0,0,0-1.456-14.936,11.827,11.827,0,1,0-2.236,18.5Zm-2.139-8.51a.918.918,0,0,0-.734.367,4.66,4.66,0,0,1-6.451,0,.922.922,0,1,0-1.369,1.226,6.458,6.458,0,0,0,9.19,0,.924.924,0,0,0-.635-1.593Z" transform="matrix(1, -0.017, 0.017, 1, -247.967, -239.039)" fill="#61ddbc" stroke="#61ddbc" stroke-width="0.5"/>
</svg>
