<svg xmlns="http://www.w3.org/2000/svg" width="15" height="20" viewBox="0 0 15 20">
  <g id="Group_44432" data-name="Group 44432" transform="translate(-83 -611)">
    <g id="fi-br-pause" transform="translate(80 611)">
      <path id="Path_306821" data-name="Path 306821" d="M6.333,0A3.333,3.333,0,0,0,3,3.333V16.666a3.333,3.333,0,1,0,6.667,0V3.333A3.333,3.333,0,0,0,6.333,0Zm.833,16.666a.833.833,0,0,1-1.667,0V3.333a.833.833,0,0,1,1.667,0Z" fill="#fff"/>
      <path id="Path_306822" data-name="Path 306822" d="M16.333,0A3.333,3.333,0,0,0,13,3.333V16.666a3.333,3.333,0,0,0,6.667,0V3.333A3.333,3.333,0,0,0,16.333,0Zm.833,16.666a.833.833,0,0,1-1.667,0V3.333a.833.833,0,0,1,1.667,0Z" transform="translate(-1.667)" fill="#fff"/>
    </g>
  </g>
</svg>
