<svg xmlns="http://www.w3.org/2000/svg" width="17" height="20" viewBox="0 0 17 20">
  <path id="fi-br-play" d="M18.027,6.43,10.189.864A4.707,4.707,0,0,0,5.41.484,4.419,4.419,0,0,0,2.9,4.438V15.57a4.413,4.413,0,0,0,2.507,3.958,4.7,4.7,0,0,0,4.78-.384l7.842-5.566a4.347,4.347,0,0,0,0-7.147ZM16.5,11.561,8.661,17.127a2.051,2.051,0,0,1-2.083.167A1.925,1.925,0,0,1,5.484,15.57V4.438A1.892,1.892,0,0,1,6.578,2.716,2.059,2.059,0,0,1,7.485,2.5a2.025,2.025,0,0,1,1.173.379L16.5,8.447a1.894,1.894,0,0,1,0,3.114Z" transform="translate(-2.9 -0.005)" fill="#9ed26a"/>
</svg>
