<svg xmlns="http://www.w3.org/2000/svg" width="14.995" height="15.014" viewBox="0 0 14.995 15.014">
  <path id="refresh" d="M7.633,14.314H7.622a.559.559,0,0,1,0-1.118h.01a6.038,6.038,0,0,0,4.688-9.849A1.172,1.172,0,0,1,12.4,1.772l.656-.653h-2.1a.273.273,0,0,0-.273.273V3.5a.559.559,0,0,1,.706.859l-.219.224,0,0a.939.939,0,0,1-1.6-.663V1.392A1.392,1.392,0,0,1,10.956,0h0l2.536,0a.938.938,0,0,1,.663,1.6l-.966.962a.057.057,0,0,0,0,.077A7.156,7.156,0,0,1,7.633,14.314Zm-2.31-.407a1.381,1.381,0,0,0,.408-.985V10.387a.939.939,0,0,0-1.6-.663l0,0L3.9,9.953a.559.559,0,0,0,.706.859v2.111a.273.273,0,0,1-.273.273H2.24l.656-.653a1.172,1.172,0,0,0,.078-1.574A6.038,6.038,0,0,1,7.662,1.118h.01A.559.559,0,0,0,7.673,0H7.662A7.156,7.156,0,0,0,2.106,11.673a.057.057,0,0,1,0,.077l-.966.962a.938.938,0,0,0,.664,1.6l2.536,0h0A1.383,1.383,0,0,0,5.324,13.907Zm0,0" transform="translate(-0.15 0.35)" fill="#fa6c51" stroke="#fa6c51" stroke-width="0.7"/>
</svg>
