<svg xmlns="http://www.w3.org/2000/svg" width="20" height="20" viewBox="0 0 20 20">
  <g id="fi-br-time-past" transform="translate(-0.105)">
    <path id="Path_178035" data-name="Path 178035" d="M10.061,0A10.1,10.1,0,0,0,3.4,2.533L2.283,1.423a.837.837,0,0,0-1.429.589V5.833a.835.835,0,0,0,.837.833H5.529a.833.833,0,0,0,.592-1.423L5.171,4.3a7.5,7.5,0,1,1-2.559,6.8A1.262,1.262,0,0,0,1.367,10h0A1.243,1.243,0,0,0,.113,11.386,10.041,10.041,0,1,0,17.3,3.073,10.076,10.076,0,0,0,10.061,0Z" transform="translate(0)" fill="#9ed26a"/>
    <path id="Path_178036" data-name="Path 178036" d="M11.255,7h0A1.255,1.255,0,0,0,10,8.255v3.593a1.674,1.674,0,0,0,.49,1.183l1.5,1.5a1.255,1.255,0,1,0,1.775-1.775L12.511,11.5V8.255A1.255,1.255,0,0,0,11.255,7Z" transform="translate(-1.613 -1.183)" fill="#9ed26a"/>
  </g>
</svg>
