<svg xmlns="http://www.w3.org/2000/svg" width="55" height="32.348" viewBox="0 0 55 32.348">
  <g id="Group_43522" data-name="Group 43522" transform="translate(0 0)">
    <path id="Path_305839" data-name="Path 305839" d="M-856.859,179.971a11.682,11.682,0,0,0-9.856-6.419,5.269,5.269,0,0,1-4.139-2.365,14.652,14.652,0,0,0-12.253-6.606,14.653,14.653,0,0,0-12.251,6.6,5.282,5.282,0,0,1-4.155,2.366,11.629,11.629,0,0,0-4.659,1.236,11.7,11.7,0,0,0-5.183,15.706,12.436,12.436,0,0,0,10.442,6.436H-867.3a12.333,12.333,0,0,0,5.259-1.252A11.7,11.7,0,0,0-856.859,179.971Z" transform="translate(910.607 -164.581)" fill="#c68d6d"/>
    <g id="Group_43521" data-name="Group 43521">
      <path id="Path_305840" data-name="Path 305840" d="M-891.906,181.425a11.628,11.628,0,0,1,4.658-1.236,5.28,5.28,0,0,0,4.154-2.366,14.651,14.651,0,0,1,12.25-6.6h.009l-.024-.034a14.65,14.65,0,0,0-12.252-6.606,14.65,14.65,0,0,0-12.25,6.6,5.282,5.282,0,0,1-4.154,2.366,11.628,11.628,0,0,0-4.658,1.236,11.7,11.7,0,0,0-5.183,15.706,12.435,12.435,0,0,0,10.441,6.437h1.73A11.7,11.7,0,0,1-891.906,181.425Z" transform="translate(910.607 -164.58)" fill="#b77b5e"/>
      <circle id="Ellipse_3489" data-name="Ellipse 3489" cx="1.189" cy="1.189" r="1.189" transform="translate(36.258 16.549)" fill="#b77b5e"/>
      <circle id="Ellipse_3490" data-name="Ellipse 3490" cx="1.189" cy="1.189" r="1.189" transform="translate(32.715 24.544)" fill="#b77b5e"/>
      <circle id="Ellipse_3491" data-name="Ellipse 3491" cx="1.189" cy="1.189" r="1.189" transform="translate(42.355 22.875)" fill="#b77b5e"/>
    </g>
  </g>
</svg>
