<svg xmlns="http://www.w3.org/2000/svg" xmlns:xlink="http://www.w3.org/1999/xlink" width="375" height="812" viewBox="0 0 375 812">
  <defs>
    <clipPath id="clip-path">
      <rect id="Rectangle_15407" data-name="Rectangle 15407" width="375" height="812" fill="#fff"/>
    </clipPath>
  </defs>
  <g id="Mask_Group_173" data-name="Mask Group 173" clip-path="url(#clip-path)">
    <g id="Group_42973" data-name="Group 42973" transform="translate(-1600.663 -116.653)">
      <path id="Path_304703" data-name="Path 304703" d="M2682.372,381.575a3.386,3.386,0,1,0-3.922,2.747A3.387,3.387,0,0,0,2682.372,381.575Z" transform="translate(-557.185 -157.846)" fill="#e12162"/>
      <circle id="Ellipse_3446" data-name="Ellipse 3446" cx="6.297" cy="6.297" r="6.297" transform="matrix(0.821, -0.571, 0.571, 0.821, 2116.75, 140.068)" fill="#0d88db"/>
      <path id="Path_304704" data-name="Path 304704" d="M2231.931,199.944a6.3,6.3,0,1,0-7.294,5.108A6.3,6.3,0,0,0,2231.931,199.944Z" transform="translate(-394.583 -91.892)" fill="#0d88db"/>
      <path id="Path_304705" data-name="Path 304705" d="M2593.6,462.915a4.188,4.188,0,1,0-4.851,3.4A4.188,4.188,0,0,0,2593.6,462.915Z" transform="translate(-524.979 -186.501)" fill="#f22b35"/>
      <path id="Path_304706" data-name="Path 304706" d="M2614.335,459.061a2.5,2.5,0,1,0-2.893,2.025A2.5,2.5,0,0,0,2614.335,459.061Z" transform="translate(-533.565 -185.835)" fill="#0d88db"/>
      <circle id="Ellipse_3447" data-name="Ellipse 3447" cx="6.588" cy="6.588" r="6.588" transform="translate(2057.699 288.546) rotate(-27.349)" fill="#912882"/>
      <path id="Path_304707" data-name="Path 304707" d="M2535.707,388.752a2.524,2.524,0,1,0-2.924,2.048A2.525,2.525,0,0,0,2535.707,388.752Z" transform="translate(-505.522 -160.764)" fill="#f22b35"/>
      <circle id="Ellipse_3448" data-name="Ellipse 3448" cx="6.557" cy="6.557" r="6.557" transform="translate(2032.962 291.987) rotate(-34.417)" fill="#ffc32c"/>
      <path id="Path_304708" data-name="Path 304708" d="M2474.662,435.017a4.945,4.945,0,1,0-5.729,4.011A4.945,4.945,0,0,0,2474.662,435.017Z" transform="translate(-482.052 -176.241)" fill="#f97a30"/>
      <path id="Path_304709" data-name="Path 304709" d="M2364.931,323.173a4.494,4.494,0,1,0-5.206,3.645A4.494,4.494,0,0,0,2364.931,323.173Z" transform="translate(-443.262 -136.567)" fill="#f97a30"/>
      <circle id="Ellipse_3449" data-name="Ellipse 3449" cx="4.529" cy="4.529" r="4.529" transform="translate(1896.153 221.719) rotate(-2.604)" fill="#e12162"/>
      <path id="Path_304710" data-name="Path 304710" d="M2335.213,494.181a4.363,4.363,0,1,0-5.054,3.539A4.363,4.363,0,0,0,2335.213,494.181Z" transform="translate(-432.763 -197.571)" fill="#a9d239"/>
      <path id="Path_304711" data-name="Path 304711" d="M2203.916,331.861a4.511,4.511,0,1,0-5.226,3.659A4.511,4.511,0,0,0,2203.916,331.861Z" transform="translate(-385.862 -139.656)" fill="#a9d239"/>
      <circle id="Ellipse_3450" data-name="Ellipse 3450" cx="6.567" cy="6.567" r="6.567" transform="translate(1822.405 401.818) rotate(-25.26)" fill="#0d88db"/>
      <path id="Path_304712" data-name="Path 304712" d="M2162.567,320.719a5.7,5.7,0,1,0-6.6,4.624A5.7,5.7,0,0,0,2162.567,320.719Z" transform="translate(-370.282 -135.187)" fill="#f97a30"/>
      <path id="Path_304713" data-name="Path 304713" d="M2121.576,498.362a4.158,4.158,0,1,0-4.817,3.373A4.157,4.157,0,0,0,2121.576,498.362Z" transform="translate(-356.765 -199.147)" fill="#0d88db"/>
      <circle id="Ellipse_3451" data-name="Ellipse 3451" cx="4.862" cy="4.862" r="4.862" transform="translate(1742.721 258.261) rotate(-54.923)" fill="#e12162"/>
      <path id="Path_304714" data-name="Path 304714" d="M2049.267,416.4a4.1,4.1,0,1,0-4.75,3.325A4.1,4.1,0,0,0,2049.267,416.4Z" transform="translate(-331.034 -169.959)" fill="#0d88db"/>
      <circle id="Ellipse_3452" data-name="Ellipse 3452" cx="3.877" cy="3.877" r="3.877" transform="translate(1651.841 251.402)" fill="#0d88db"/>
      <path id="Path_304715" data-name="Path 304715" d="M1879.433,438.678a3.744,3.744,0,1,0-4.337,3.037A3.743,3.743,0,0,0,1879.433,438.678Z" transform="translate(-270.755 -178.048)" fill="#912882"/>
      <path id="Path_304716" data-name="Path 304716" d="M1949.3,320.746a4.374,4.374,0,1,0-5.068,3.548A4.375,4.375,0,0,0,1949.3,320.746Z" transform="translate(-295.208 -135.752)" fill="#ffc32c"/>
      <path id="Path_304717" data-name="Path 304717" d="M1950.744,272.211a5.651,5.651,0,1,0-6.547,4.584A5.651,5.651,0,0,0,1950.744,272.211Z" transform="translate(-294.822 -117.92)" fill="#ffc32c"/>
      <path id="Path_304718" data-name="Path 304718" d="M2578.365,616.282a5.651,5.651,0,1,0-6.546,4.584A5.651,5.651,0,0,0,2578.365,616.282Z" transform="translate(-518.514 -240.551)" fill="#ffc32c"/>
      <path id="Path_304719" data-name="Path 304719" d="M1935.654,227.637a2.512,2.512,0,1,0-2.91,2.037A2.512,2.512,0,0,0,1935.654,227.637Z" transform="translate(-291.664 -103.346)" fill="#a9d239"/>
      <path id="Path_304720" data-name="Path 304720" d="M2046.726,260.006a2.511,2.511,0,1,0-2.91,2.038A2.511,2.511,0,0,0,2046.726,260.006Z" transform="translate(-331.252 -114.883)" fill="#a9d239"/>
      <path id="Path_304721" data-name="Path 304721" d="M1776.517,339.36a5.826,5.826,0,1,0-6.75,4.727A5.826,5.826,0,0,0,1776.517,339.36Z" transform="translate(-232.601 -141.779)" fill="#e12162"/>
      <path id="Path_304722" data-name="Path 304722" d="M1874.025,175.463a5.6,5.6,0,1,0-6.49,4.544A5.6,5.6,0,0,0,1874.025,175.463Z" transform="translate(-267.512 -83.457)" fill="#ffc32c"/>
      <path id="Path_304723" data-name="Path 304723" d="M1743.071,303.974a4.19,4.19,0,1,0-4.854,3.4A4.189,4.189,0,0,0,1743.071,303.974Z" transform="translate(-221.838 -129.852)" fill="#a9d239"/>
      <circle id="Ellipse_3453" data-name="Ellipse 3453" cx="6.021" cy="6.021" r="6.021" transform="matrix(0.314, -0.949, 0.949, 0.314, 1526.147, 52.772)" fill="#912882"/>
      <path id="Path_304724" data-name="Path 304724" d="M1724.984,85.953a4.033,4.033,0,1,0-4.672,3.271A4.033,4.033,0,0,0,1724.984,85.953Z" transform="translate(-215.502 -52.212)" fill="#a9d239"/>
      <circle id="Ellipse_3454" data-name="Ellipse 3454" cx="5.098" cy="5.098" r="5.098" transform="translate(1475.388 163.442) rotate(-88.107)" fill="#a9d239"/>
      <path id="Path_304725" data-name="Path 304725" d="M1680.863,313.772a4.036,4.036,0,1,0-4.674,3.273A4.035,4.035,0,0,0,1680.863,313.772Z" transform="translate(-199.775 -133.408)" fill="#a9d239"/>
      <path id="Path_304726" data-name="Path 304726" d="M1555.137,79.069a2.723,2.723,0,1,0-3.154,2.209A2.723,2.723,0,0,0,1555.137,79.069Z" transform="translate(-155.893 -50.306)" fill="#a9d239"/>
      <path id="Path_304727" data-name="Path 304727" d="M1506.318,126.432a2.482,2.482,0,1,0-2.875,2.013A2.483,2.483,0,0,0,1506.318,126.432Z" transform="translate(-138.664 -67.288)" fill="#912882"/>
      <path id="Path_304728" data-name="Path 304728" d="M1514.761,212.329a4.152,4.152,0,1,0-4.81,3.368A4.151,4.151,0,0,0,1514.761,212.329Z" transform="translate(-140.492 -97.204)" fill="#ffc32c"/>
      <path id="Path_304729" data-name="Path 304729" d="M1549.608,324.75a5.148,5.148,0,1,0-5.964,4.176A5.148,5.148,0,0,0,1549.608,324.75Z" transform="translate(-152.208 -136.855)" fill="#a9d239"/>
      <circle id="Ellipse_3455" data-name="Ellipse 3455" cx="5.148" cy="5.148" r="5.148" transform="matrix(0.882, -0.471, 0.471, 0.882, 1971.043, 321.745)" fill="#a9d239"/>
      <path id="Path_304730" data-name="Path 304730" d="M2500.931,475.6c-.672-5.42-7.749-6.2-8.421-11.615l5.337-3.869c.672,5.419,7.748,6.2,8.42,11.614Z" transform="translate(-491.912 -187.256)" fill="#ffc32c"/>
      <path id="Path_304731" data-name="Path 304731" d="M2302.272,696.463c-10.863,3.24-10.019,17.993-20.882,21.233l-9.756-9.595c10.863-3.24,10.02-17.993,20.883-21.233Z" transform="translate(-413.189 -268.073)" fill="#e12162"/>
      <path id="Path_304732" data-name="Path 304732" d="M2172.072,451.032c3.434-7.014-4.432-13.477-1-20.491l9.415-.459c-3.433,7.014,4.432,13.477,1,20.491Z" transform="translate(-377.031 -176.551)" fill="#a9d239"/>
      <path id="Path_304733" data-name="Path 304733" d="M1927.634,749.446c-9.126,3.148-7.879,15.671-17.005,18.818l-8.646-7.813c9.127-3.148,7.879-15.671,17.006-18.818Z" transform="translate(-281.44 -287.592)" fill="#a9d239"/>
      <path id="Path_304734" data-name="Path 304734" d="M1736.185,592.874c.308-6.408-7.726-8.724-7.418-15.132l6.953-3.408c-.308,6.407,7.726,8.724,7.417,15.131Z" transform="translate(-219.701 -227.964)" fill="#f97a30"/>
      <path id="Path_304735" data-name="Path 304735" d="M1662.193,509.011c-1.094-12.908-17.8-15.4-18.889-28.308l13.007-8.679c1.094,12.908,17.8,15.4,18.889,28.309Z" transform="translate(-189.244 -191.499)" fill="#a9d239"/>
      <path id="Path_304736" data-name="Path 304736" d="M1731.717,411.4c-7.191-5.234-15.992,2.313-23.182-2.921q.671-5.326,1.342-10.652c7.191,5.234,15.991-2.313,23.182,2.921Z" transform="translate(-212.493 -165.055)" fill="#912882"/>
      <path id="Path_304737" data-name="Path 304737" d="M1847.359,244.61c3.594-6.952-4.144-13.6-.55-20.553l9.443-.252c-3.594,6.951,4.143,13.6.55,20.552Z" transform="translate(-261.427 -103.031)" fill="#a9d239"/>
      <path id="Path_304738" data-name="Path 304738" d="M1911.086,168.16c.156-6.385-7.9-8.5-7.739-14.889l6.842-3.556c-.157,6.385,7.9,8.5,7.738,14.889Z" transform="translate(-281.926 -76.624)" fill="#a9d239"/>
      <path id="Path_304739" data-name="Path 304739" d="M2063.42,194.516c-8.992-1.948-14.165,8.872-23.156,6.925l-3.182-10.64c8.991,1.947,14.165-8.872,23.156-6.925Z" transform="translate(-329.591 -88.716)" fill="#a9d239"/>
      <path id="Path_304740" data-name="Path 304740" d="M2307.048,181.466c4.159-4.819-.7-11.541,3.455-16.36l7.517,1.587c-4.158,4.819.7,11.542-3.455,16.361Z" transform="translate(-425.811 -82.11)" fill="#912882"/>
      <path id="Path_304741" data-name="Path 304741" d="M2324.186,56.021c-3.817-5.989-12.56-2.947-16.377-8.935l4.105-7.524c3.816,5.988,12.559,2.946,16.376,8.934Z" transform="translate(-426.082 -37.365)" fill="#912882"/>
      <path id="Path_304742" data-name="Path 304742" d="M2489.465,201.251c-6.48-9.364-20.306-3.959-26.786-13.322l6.121-12.307c6.48,9.363,20.306,3.959,26.786,13.322Z" transform="translate(-481.28 -85.858)" fill="#a9d239"/>
      <path id="Path_304743" data-name="Path 304743" d="M2449.536,195.657c5.759-1.033,6.18-8.649,11.939-9.681l4.448,5.486c-5.759,1.032-6.181,8.648-11.94,9.68Z" transform="translate(-476.595 -89.548)" fill="#912882"/>
      <path id="Path_304744" data-name="Path 304744" d="M2403.509,379.035c-.58-7.334-10.057-8.8-10.636-16.135l7.414-4.887c.58,7.334,10.056,8.8,10.637,16.136Z" transform="translate(-456.4 -150.864)" fill="#f97a30"/>
      <path id="Path_304745" data-name="Path 304745" d="M2259.245,318.664c-9.125,6.092-4.14,19.5-13.265,25.589l-11.757-6.095c9.124-6.092,4.14-19.5,13.265-25.588Z" transform="translate(-399.855 -134.668)" fill="#ffc32c"/>
      <path id="Path_304746" data-name="Path 304746" d="M1979.393,97.257c-.07-6.669-8.55-8.586-8.62-15.255l7.009-3.961c.07,6.669,8.55,8.586,8.62,15.256Z" transform="translate(-305.958 -51.079)" fill="#a9d239"/>
      <path id="Path_304747" data-name="Path 304747" d="M1856.345,75.342c-8.491,4.161-5.766,16.182-14.257,20.343l-9.347-6.551c8.491-4.16,5.767-16.182,14.257-20.342Z" transform="translate(-256.762 -47.782)" fill="#ffc32c"/>
      <path id="Path_304748" data-name="Path 304748" d="M1590.083,159.254c4.7-6.833-2.551-14.851,2.15-21.683l9.962.988c-4.7,6.832,2.552,14.85-2.15,21.682Z" transform="translate(-170.275 -72.296)" fill="#a9d239"/>
      <path id="Path_304749" data-name="Path 304749" d="M2754.94,330.757l-1.819.792-.38,1.947-1.315-1.486-1.969.241,1.007-1.71-.838-1.8,1.937.429,1.452-1.353.19,1.975Z" transform="translate(-583.491 -140.103)" fill="#0d88db"/>
      <path id="Path_304750" data-name="Path 304750" d="M2868.385,560.286l.064,4.184,3.483,2.319-3.959,1.354-1.129,4.029-2.511-3.347-4.181.172,2.407-3.423-1.455-3.924,4,1.232Z" transform="translate(-622.944 -222.957)" fill="#0d88db"/>
      <path id="Path_304751" data-name="Path 304751" d="M2834.688,616.586l-3.649,3.346.688,4.9-4.31-2.436-4.45,2.169.985-4.852-3.438-3.562,4.919-.562,2.325-4.371,2.055,4.5Z" transform="translate(-608.817 -241.111)" fill="#0d88db"/>
      <path id="Path_304752" data-name="Path 304752" d="M2619.884,564.738l-3.586-6.573-7.447-.772,5.143-5.441-1.567-7.321,6.764,3.21,6.479-3.753-.962,7.425,5.571,5-7.359,1.379Z" transform="translate(-533.377 -217.184)" fill="#f97a30"/>
      <path id="Path_304753" data-name="Path 304753" d="M2505.612,543.523l-2.342,3.307,1.4,3.8-3.869-1.206-3.187,2.5-.049-4.052-3.366-2.257,3.839-1.3,1.106-3.9,2.421,3.249Z" transform="translate(-492.513 -215.879)" fill="#a9d239"/>
      <path id="Path_304754" data-name="Path 304754" d="M2140.83,558.16l-2.593.291-1.23,2.3-1.078-2.376-2.568-.459,1.926-1.76-.357-2.584,2.269,1.288,2.347-1.138-.524,2.556Z" transform="translate(-363.906 -220.565)" fill="#912882"/>
      <path id="Path_304755" data-name="Path 304755" d="M2620.362,535.264l-.324,3.8,2.945,2.42-3.712.866-1.391,3.549-1.971-3.263-3.8-.227,2.494-2.882-.96-3.689,3.512,1.481Z" transform="translate(-534.537 -214.039)" fill="#f22b35"/>
      <path id="Path_304756" data-name="Path 304756" d="M2189.553,344.044l-3.815,4.528,1.567,5.71-5.486-2.229-4.946,3.255.425-5.906-4.625-3.7,5.749-1.421,2.088-5.541,3.128,5.028Z" transform="translate(-377.918 -143.996)" fill="#912882"/>
      <path id="Path_304757" data-name="Path 304757" d="M2191.74,257.419l.708,3.355,3.165,1.319-2.972,1.71-.276,3.418-2.545-2.3-3.336.794,1.4-3.131-1.786-2.927,3.41.363Z" transform="translate(-382.703 -115.012)" fill="#ffc32c"/>
      <path id="Path_304758" data-name="Path 304758" d="M2498.884,303.156l-4.3,5.612,2.186,6.723-6.666-2.355-5.719,4.156.18-7.067-5.72-4.155,6.777-2.013,2.184-6.724,4.009,5.823Z" transform="translate(-487.041 -129.238)" fill="#e12162"/>
      <path id="Path_304759" data-name="Path 304759" d="M2256.629,149.208l3.2,5.69,6.5.592-4.424,4.8,1.445,6.365-5.931-2.724-5.607,3.341.758-6.483-4.91-4.3,6.4-1.282Z" transform="translate(-404.643 -76.444)" fill="#f22b35"/>
      <path id="Path_304760" data-name="Path 304760" d="M2567.592,218.634l-6.291,2.536-1.477,6.62-4.356-5.2-6.753.641,3.6-5.75-2.7-6.224,6.58,1.646,5.086-4.488.468,6.767Z" transform="translate(-511.944 -97.547)" fill="#912882"/>
      <path id="Path_304761" data-name="Path 304761" d="M2821.912,458.884l-.965,7.487,5.621,5.039-7.419,1.4-3.056,6.9-3.62-6.624-7.509-.773,5.182-5.49-1.585-7.381,6.823,3.231Z" transform="translate(-603.274 -186.816)" fill="#a9d239"/>
      <path id="Path_304762" data-name="Path 304762" d="M2744.044,478.189l-3.489,5.673,2.7,6.091-6.474-1.565-4.96,4.446-.512-6.641-5.761-3.343,6.158-2.539,1.4-6.512,4.317,5.072Z" transform="translate(-574.968 -192.132)" fill="#0d88db"/>
      <path id="Path_304763" data-name="Path 304763" d="M2601.316,454.542l-4.281-1.094-3.328,2.907-.283-4.41-3.793-2.267,4.106-1.632.984-4.308,2.821,3.4,4.4-.4-2.363,3.734Z" transform="translate(-526.527 -181.418)" fill="#ffc32c"/>
      <path id="Path_304764" data-name="Path 304764" d="M2485,424.914l-1.49-7.019-6.626-2.752,6.215-3.586.57-7.153,5.331,4.8,6.979-1.668-2.921,6.554,3.743,6.122-7.136-.753Z" transform="translate(-486.343 -167.399)" fill="#f97a30"/>
      <path id="Path_304765" data-name="Path 304765" d="M2431.782,438.726l-1.665,5.8,3.831,4.658-6.027.208-3.246,5.083-2.06-5.668-5.837-1.516,4.754-3.711-.362-6.02,5,3.375Z" transform="translate(-464.92 -179.214)" fill="#a9d239"/>
      <path id="Path_304766" data-name="Path 304766" d="M2302.9,340.39l-2.167,7.6,5.032,6.093-7.9.288-4.239,6.668-2.714-7.421-7.652-1.971,6.219-4.874-.49-7.887,6.558,4.408Z" transform="translate(-417.332 -144.047)" fill="#f22b35"/>
      <path id="Path_304767" data-name="Path 304767" d="M2235.977,475.434l-.911-1.7-1.92-.215,1.338-1.393-.388-1.892,1.738.842,1.679-.954-.264,1.913,1.427,1.3-1.9.34Z" transform="translate(-399.471 -190.821)" fill="#0d88db"/>
      <path id="Path_304768" data-name="Path 304768" d="M2065.218,373.019l.95,2.827,2.867.82-2.4,1.777.106,2.98-2.43-1.729-2.8,1.022.893-2.845-1.837-2.349,2.982-.03Z" transform="translate(-337.963 -156.213)" fill="#f22b35"/>
      <path id="Path_304769" data-name="Path 304769" d="M2049.751,600.147l-1.614-1.136-1.851.685.582-1.886-1.224-1.548,1.973-.029,1.094-1.642.638,1.868,1.9.533-1.579,1.184Z" transform="translate(-332.643 -235.184)" fill="#f22b35"/>
      <path id="Path_304770" data-name="Path 304770" d="M2080.709,757.014l-3.69.427-1.74,3.282-1.546-3.378-3.659-.641,2.734-2.514-.521-3.678,3.236,1.824,3.337-1.632-.734,3.641Z" transform="translate(-341.35 -290.756)" fill="#ffc32c"/>
      <path id="Path_304771" data-name="Path 304771" d="M2045.137,828.852l-2.955,4.347,1.906,4.9-5.047-1.467-4.07,3.326-.165-5.253-4.421-2.843,4.945-1.78,1.337-5.083,3.221,4.153Z" transform="translate(-327.205 -317.304)" fill="#0d88db"/>
      <path id="Path_304772" data-name="Path 304772" d="M1898.611,617.874l-3.135,6.268,3.386,6.136-6.93-1.045-4.79,5.117-1.148-6.914-6.347-2.974,6.221-3.228.867-6.955,4.993,4.919Z" transform="translate(-273.48 -242.201)" fill="#912882"/>
      <path id="Path_304773" data-name="Path 304773" d="M1785.451,565.238l-4.661.471-2.254,4.106-1.888-4.287-4.6-.875,3.494-3.12-.59-4.647,4.047,2.358,4.237-2-.992,4.578Z" transform="translate(-235.129 -221.745)" fill="#e12162"/>
      <path id="Path_304774" data-name="Path 304774" d="M1644.481,334.366l-1.183,5.794,4.1,4.259-5.876.665-2.783,5.218-2.448-5.383-5.822-1.035,4.363-3.992-.815-5.857,5.145,2.916Z" transform="translate(-184.67 -142.319)" fill="#ffc32c"/>
      <path id="Path_304775" data-name="Path 304775" d="M1961.083,499.336l1.321,3.335,3.5.8-2.764,2.287.317,3.573-3.029-1.922-3.3,1.406.892-3.475-2.357-2.7,3.58-.225Z" transform="translate(-300.571 -201.234)" fill="#ffc32c"/>
      <path id="Path_304776" data-name="Path 304776" d="M1911.7,292.529l3.045,5.94,6.619.858-4.708,4.732,1.229,6.561-5.955-3.015-5.86,3.2,1.027-6.6-4.851-4.585,6.59-1.061Z" transform="translate(-281.535 -127.525)" fill="#f97a30"/>
      <path id="Path_304777" data-name="Path 304777" d="M2081.2,540.55l3.045,5.94,6.62.858-4.708,4.732,1.229,6.561-5.955-3.015-5.86,3.2,1.027-6.6-4.851-4.585,6.59-1.061Z" transform="translate(-341.946 -215.923)" fill="#f97a30"/>
      <path id="Path_304778" data-name="Path 304778" d="M1977.58,217.807l-5.954.632-2.855,5.263-2.441-5.468-5.888-1.089,4.446-4.011-.784-5.936,5.188,2.989,5.4-2.58-1.239,5.858Z" transform="translate(-302.276 -97.112)" fill="#ffc32c"/>
      <path id="Path_304779" data-name="Path 304779" d="M1989.663,113.965l-4.186-5.212-6.666.493,3.663-5.591-2.529-6.187,6.45,1.756,5.1-4.317.323,6.677,5.683,3.519-6.25,2.37Z" transform="translate(-308.823 -57.09)" fill="#ffc32c"/>
      <path id="Path_304780" data-name="Path 304780" d="M2216.356,387.223l-3.508-2.708-4.22,1.355,1.491-4.173-2.593-3.594,4.43.129,2.617-3.576,1.247,4.253,4.21,1.384-3.66,2.5Z" transform="translate(-390.34 -156.796)" fill="#912882"/>
      <path id="Path_304781" data-name="Path 304781" d="M2152.85,389.521l-.3,4.425,3.477,2.752-4.3,1.086-1.543,4.158-2.362-3.754-4.431-.182,2.84-3.406-1.2-4.27,4.117,1.649Z" transform="translate(-367.483 -162.094)" fill="#ffc32c"/>
      <path id="Path_304782" data-name="Path 304782" d="M2072.492,385.17l-3.048.743-1.116,2.932-1.648-2.669-3.134-.156,2.03-2.392-.82-3.028,2.9,1.191,2.626-1.716-.235,3.128Z" transform="translate(-339.024 -158.728)" fill="#ffc32c"/>
      <path id="Path_304783" data-name="Path 304783" d="M2000.114,315.713l.163,5.764,4.84,3.133-5.431,1.936-1.484,5.572-3.52-4.567-5.758.31,3.256-4.759-2.074-5.38,5.532,1.626Z" transform="translate(-312.427 -135.788)" fill="#a9d239"/>
      <path id="Path_304784" data-name="Path 304784" d="M2033.025,619.8l-2.776-1.141-2.514,1.639.228-2.992-2.336-1.884,2.916-.708,1.07-2.8,1.575,2.555,3,.151-1.943,2.287Z" transform="translate(-325.509 -241.358)" fill="#ffc32c"/>
      <path id="Path_304785" data-name="Path 304785" d="M1878.989,546.134l-1.119-2.817-2.955-.675,2.333-1.935-.271-3.019,2.561,1.621,2.788-1.191-.75,2.937,1.994,2.283-3.025.194Z" transform="translate(-271.793 -214.903)" fill="#a9d239"/>
      <path id="Path_304786" data-name="Path 304786" d="M1831.122,730.54l-5.146-4.188-6.368,1.865,2.393-6.189-3.741-5.48,6.625.364,4.056-5.252,1.7,6.414,6.248,2.234-5.574,3.6Z" transform="translate(-251.6 -276.909)" fill="#a9d239"/>
      <path id="Path_304787" data-name="Path 304787" d="M1679.256,338.975l-1.83,1.8.448,2.53-2.28-1.183-2.267,1.207.421-2.534-1.849-1.783,2.54-.383,1.125-2.31,1.149,2.3Z" transform="translate(-199.435 -143.133)" fill="#0d88db"/>
      <path id="Path_304788" data-name="Path 304788" d="M1674.608,445.966l1.072,6.658,6.092,2.891-6,3.077-.867,6.687-4.78-4.756-6.628,1.242,3.046-6.016-3.229-5.92,6.663,1.038Z" transform="translate(-196.375 -182.212)" fill="#0d88db"/>
      <path id="Path_304789" data-name="Path 304789" d="M1588.843,525.078l-2.576-6.982-7.212-1.836,5.844-4.608-.483-7.427,6.188,4.134,6.914-2.754-2.02,7.163,4.756,5.724-7.437.293Z" transform="translate(-166.344 -202.977)" fill="#0d88db"/>
      <path id="Path_304790" data-name="Path 304790" d="M1559.34,633.185l-2.455.77-.757,2.459-1.491-2.1-2.572.039,1.533-2.066-.832-2.434,2.438.82,2.058-1.544-.026,2.573Z" transform="translate(-156.725 -247.495)" fill="#ffc32c"/>
      <path id="Path_304791" data-name="Path 304791" d="M2587.552-65.273l-1.762,6.631-1.761,6.631-4.862-4.841-4.861-4.841,6.623-1.79Z" transform="translate(-521.065)" fill="#912882"/>
      <path id="Path_304792" data-name="Path 304792" d="M2582.983-27.668l-4.851.794-4.851.794,1.738-4.6,1.738-4.6,3.113,3.8Z" transform="translate(-520.7 -10.691)" fill="#ffc32c"/>
      <path id="Path_304793" data-name="Path 304793" d="M2865.122,163.748l-1.841,7.609-1.84,7.609-5.669-5.4-5.669-5.4,7.51-2.211Z" transform="translate(-619.362 -81.626)" fill="#a9d239"/>
      <path id="Path_304794" data-name="Path 304794" d="M2603.229,95.706l4.22-.5,4.219-.5-1.673,3.906-1.673,3.906-2.547-3.4Z" transform="translate(-531.373 -57.016)" fill="#e12162"/>
      <path id="Path_304795" data-name="Path 304795" d="M2758.435,199.765l7.121,2.035,7.122,2.035-5.323,5.15-5.323,5.15-1.8-7.185Z" transform="translate(-586.691 -94.463)" fill="#ffc32c"/>
      <path id="Path_304796" data-name="Path 304796" d="M2517.188,168.209l-5.354,4.305-5.354,4.305-1.052-6.789-1.052-6.789,6.406,2.484Z" transform="translate(-496.141 -81.445)" fill="#0d88db"/>
      <path id="Path_304797" data-name="Path 304797" d="M2776.474,330.628l-2.718,5.643-2.717,5.643-3.528-5.175-3.528-5.175,6.245-.468Z" transform="translate(-588.668 -141.104)" fill="#ffc32c"/>
      <path id="Path_304798" data-name="Path 304798" d="M2480.082,276.526l2.7,4.435,2.7,4.436-5.194.124-5.194.124,2.489-4.56Z" transform="translate(-485.708 -121.821)" fill="#f97a30"/>
      <path id="Path_304799" data-name="Path 304799" d="M2664.957,462.982l-2.99,3.387-2.989,3.387-1.439-4.283-1.439-4.282,4.428.9Z" transform="translate(-550.217 -187.639)" fill="#a9d239"/>
      <path id="Path_304800" data-name="Path 304800" d="M2641.978,494.745l6.523.812,6.523.812-3.964,5.243-3.965,5.243-2.558-6.055Z" transform="translate(-545.184 -199.597)" fill="#f22b35"/>
      <path id="Path_304801" data-name="Path 304801" d="M2451.973,460.937l4.1,4.772,4.1,4.772-6.182,1.162-6.182,1.162,2.084-5.934Z" transform="translate(-475.978 -187.548)" fill="#0d88db"/>
      <path id="Path_304802" data-name="Path 304802" d="M2334.842,531.525l-5.055,3.535-5.055,3.534-.534-6.145-.533-6.145,5.589,2.61Z" transform="translate(-431.733 -210.846)" fill="#f22b35"/>
      <path id="Path_304803" data-name="Path 304803" d="M2350.907,409.539l6.075,4.367,6.075,4.367-6.82,3.078-6.82,3.078.744-7.445Z" transform="translate(-440.912 -169.229)" fill="#912882"/>
      <path id="Path_304804" data-name="Path 304804" d="M2343.313,314.5l4.213,4.276,4.213,4.276-5.81,1.511-5.81,1.511,1.6-5.787Z" transform="translate(-437.598 -135.355)" fill="#ffc32c"/>
      <path id="Path_304805" data-name="Path 304805" d="M2373.442,203.812l-1.563,3.273-1.563,3.273-2.052-2.99-2.052-2.99,3.616-.282Z" transform="translate(-446.897 -95.905)" fill="#e12162"/>
      <path id="Path_304806" data-name="Path 304806" d="M2324.243,150.722l2.2,3.2,2.2,3.2-3.869.308-3.868.308,1.667-3.5Z" transform="translate(-430.751 -76.983)" fill="#912882"/>
      <path id="Path_304807" data-name="Path 304807" d="M2298.126,119.111l-5.336,3.3-5.336,3.3-.187-6.27-.187-6.27,5.523,2.973Z" transform="translate(-418.694 -63.598)" fill="#ffc32c"/>
      <path id="Path_304808" data-name="Path 304808" d="M2103.459,73.419l5.285,2.514,5.285,2.514-4.82,3.32-4.82,3.32-.465-5.834Z" transform="translate(-353.249 -49.432)" fill="#a9d239"/>
      <path id="Path_304809" data-name="Path 304809" d="M2176.335,238.01l-.1,4.036-.1,4.036-3.446-2.1-3.446-2.1,3.545-1.932Z" transform="translate(-376.696 -108.094)" fill="#0d88db"/>
      <path id="Path_304810" data-name="Path 304810" d="M2636.1,675.567l-.1,4.036-.1,4.036-3.446-2.1-3.446-2.1,3.545-1.932Z" transform="translate(-540.561 -264.045)" fill="#0d88db"/>
      <path id="Path_304811" data-name="Path 304811" d="M2220.661,316.471l-1.77,3.177-1.77,3.177-1.867-3.121-1.867-3.121,3.636-.056Z" transform="translate(-392.429 -136.058)" fill="#e12162"/>
      <path id="Path_304812" data-name="Path 304812" d="M2274.647,440.473l.079,7.255.079,7.255-6.323-3.559-6.323-3.559,6.244-3.7Z" transform="translate(-409.812 -180.254)" fill="#a9d239"/>
      <path id="Path_304813" data-name="Path 304813" d="M2152.049,409.31l6.8,1.155,6.8,1.155-4.4,5.31-4.4,5.31-2.4-6.464Z" transform="translate(-370.567 -169.148)" fill="#e12162"/>
      <path id="Path_304814" data-name="Path 304814" d="M2419.556,624.744l6.8,1.155,6.8,1.155-4.4,5.31-4.4,5.31-2.4-6.464Z" transform="translate(-465.91 -245.931)" fill="#e12162"/>
      <path id="Path_304815" data-name="Path 304815" d="M2022.109,416.865l-5.236,4.675-5.237,4.675-1.431-6.873-1.431-6.873,6.667,2.2Z" transform="translate(-319.502 -170.274)" fill="#0d88db"/>
      <path id="Path_304816" data-name="Path 304816" d="M1958.288,460.615l5.3,4.6,5.3,4.6-6.633,2.287-6.633,2.287,1.337-6.888Z" transform="translate(-300.556 -187.433)" fill="#a9d239"/>
      <path id="Path_304817" data-name="Path 304817" d="M2038.6,359.066l-3.1,2.68-3.1,2.68-.77-4.028-.77-4.028,3.873,1.347Z" transform="translate(-327.373 -150.28)" fill="#ffc32c"/>
      <path id="Path_304818" data-name="Path 304818" d="M1705.714,549.142l-6.952,2.262-6.952,2.262,1.517-7.152,1.517-7.152,5.435,4.89Z" transform="translate(-206.532 -215.5)" fill="#e12162"/>
      <path id="Path_304819" data-name="Path 304819" d="M1765.029,464.62l3.852-.263,3.852-.263-1.7,3.468-1.7,3.468-2.154-3.205Z" transform="translate(-232.628 -188.673)" fill="#f22b35"/>
      <path id="Path_304820" data-name="Path 304820" d="M2203,548.711l3.853-.263,3.852-.263-1.7,3.468-1.7,3.468-2.154-3.205Z" transform="translate(-388.725 -218.645)" fill="#f22b35"/>
      <path id="Path_304821" data-name="Path 304821" d="M1639.288,436.284l1.554,5.909,1.553,5.909-5.894-1.609-5.894-1.609,4.341-4.3Z" transform="translate(-184.718 -178.761)" fill="#e12162"/>
      <path id="Path_304822" data-name="Path 304822" d="M2380.51,252.737l1.554,5.909,1.553,5.909-5.894-1.609-5.895-1.609,4.341-4.3Z" transform="translate(-448.899 -113.343)" fill="#e12162"/>
      <path id="Path_304823" data-name="Path 304823" d="M1867.553,159.626l6.962,2.945,6.962,2.945-6.031,4.557-6.031,4.557-.931-7.5Z" transform="translate(-269.169 -80.157)" fill="#e12162"/>
      <path id="Path_304824" data-name="Path 304824" d="M2100.853,250.263l6.962,2.945,6.962,2.945-6.031,4.557-6.031,4.557-.931-7.5Z" transform="translate(-352.32 -112.461)" fill="#e12162"/>
      <path id="Path_304825" data-name="Path 304825" d="M1762.619,206.307l3.962,2.056,3.962,2.056-3.761,2.4-3.761,2.4-.2-4.459Z" transform="translate(-231.769 -96.794)" fill="#e12162"/>
      <path id="Path_304826" data-name="Path 304826" d="M1673.277,218.968l-2.156,6.47-2.156,6.47-4.525-5.1-4.526-5.1,6.681-1.368Z" transform="translate(-195.164 -101.307)" fill="#e12162"/>
      <path id="Path_304827" data-name="Path 304827" d="M1702.144,126.524l-2.406,3.281-2.406,3.281-1.638-3.724-1.638-3.724,4.044.444Z" transform="translate(-207.332 -68.043)" fill="#0d88db"/>
      <path id="Path_304828" data-name="Path 304828" d="M1653.631,142.116l-4.028,3.561-4.028,3.561-1.07-5.269-1.07-5.269,5.1,1.708Z" transform="translate(-189.29 -72.699)" fill="#f22b35"/>
      <path id="Path_304829" data-name="Path 304829" d="M1729.956,240.679l6.216,2.286,6.216,2.286-5.088,4.241-5.088,4.241-1.129-6.527Z" transform="translate(-220.128 -109.045)" fill="#e12162"/>
      <path id="Path_304830" data-name="Path 304830" d="M1689.973,278.07l4.738,1.1,4.738,1.1-3.321,3.554-3.321,3.554-1.417-4.653Z" transform="translate(-205.877 -122.372)" fill="#a9d239"/>
      <path id="Path_304831" data-name="Path 304831" d="M1669.716,324.928l-3.6,6.107-3.6,6.107-3.488-6.172-3.488-6.172,7.089.065Z" transform="translate(-193.605 -139.026)" fill="#0d88db"/>
      <path id="Path_304832" data-name="Path 304832" d="M1802.175,450.923l4.546,6.311,4.546,6.311-7.738.782-7.738.782,3.192-7.092Z" transform="translate(-243.592 -183.979)" fill="#e12162"/>
      <path id="Path_304833" data-name="Path 304833" d="M1585.823,388.822l5.961-.231,5.961-.231-2.781,5.278-2.781,5.278-3.18-5.047Z" transform="translate(-168.757 -161.681)" fill="#912882"/>
      <path id="Path_304834" data-name="Path 304834" d="M2170.393,733.894l5.961-.231,5.961-.231-2.78,5.278-2.781,5.278-3.181-5.047Z" transform="translate(-377.105 -284.669)" fill="#912882"/>
      <path id="Path_304835" data-name="Path 304835" d="M1551.061,414.888l6.591,2.573,6.591,2.573-5.524,4.421-5.524,4.421-1.067-6.995Z" transform="translate(-156.367 -171.135)" fill="#e12162"/>
      <path id="Path_304836" data-name="Path 304836" d="M2112.248,629.577l6.591,2.573,6.591,2.573-5.524,4.421-5.524,4.421-1.067-6.995Z" transform="translate(-356.381 -247.654)" fill="#e12162"/>
      <path id="Path_304837" data-name="Path 304837" d="M1606.978,520.758l5.917.206,5.917.206-3.137,5.021-3.137,5.021-2.78-5.227Z" transform="translate(-176.297 -208.869)" fill="#ffc32c"/>
      <path id="Path_304838" data-name="Path 304838" d="M1332.825,554.746l-.2,5.279-.2,5.279-4.47-2.816-4.47-2.816,4.674-2.463Z" transform="translate(-75.254 -220.983)" fill="#a9d239"/>
      <path id="Path_304839" data-name="Path 304839" d="M1373.757,455.041l-3.049,3.391-3.049,3.391-1.412-4.336-1.412-4.336,4.461.945Z" transform="translate(-89.994 -184.773)" fill="#912882"/>
      <path id="Path_304840" data-name="Path 304840" d="M1459.28,331.738l-4.683,3.274-4.683,3.274-.494-5.693-.494-5.693,5.177,2.419Z" transform="translate(-119.965 -139.776)" fill="#ffc32c"/>
      <path id="Path_304841" data-name="Path 304841" d="M1221.167,473.328l6.685-.619,6.685-.619-2.807,6.1-2.807,6.1-3.879-5.48Z" transform="translate(-38.789 -191.523)" fill="#0d88db"/>
      <path id="Path_304842" data-name="Path 304842" d="M1162.948,445.814l3.933,5.306,3.933,5.306-6.562.753-6.562.753,2.629-6.059Z" transform="translate(-16.165 -182.158)" fill="#ffc32c"/>
      <path id="Path_304843" data-name="Path 304843" d="M1215.667,362.871l3.49,5.729,3.49,5.729-6.706.158-6.706.158,3.216-5.886Z" transform="translate(-34.536 -152.596)" fill="#e12162"/>
      <path id="Path_304844" data-name="Path 304844" d="M1126.931,384.252l-6.441,4.708-6.441,4.708-.856-7.932-.856-7.932,7.3,3.224Z" transform="translate(0 -157.918)" fill="#912882"/>
      <circle id="Ellipse_3456" data-name="Ellipse 3456" cx="4.897" cy="4.897" r="4.897" transform="translate(2109.147 17.195) rotate(-81.022)" fill="#912882"/>
      <path id="Path_304845" data-name="Path 304845" d="M2627.783,64.832a4.631,4.631,0,1,0-5.364,3.757A4.631,4.631,0,0,0,2627.783,64.832Z" transform="translate(-536.849 -44.434)" fill="#a9d239"/>
      <circle id="Ellipse_3457" data-name="Ellipse 3457" cx="4.793" cy="4.793" r="4.793" transform="translate(2115.092 115.158) rotate(-34.77)" fill="#f97a30"/>
      <circle id="Ellipse_3458" data-name="Ellipse 3458" cx="3.967" cy="3.967" r="3.967" transform="translate(2036.685 50.758)" fill="#912882"/>
      <path id="Path_304846" data-name="Path 304846" d="M2596.194,269.929a2.9,2.9,0,1,0-3.365,2.356A2.906,2.906,0,0,0,2596.194,269.929Z" transform="translate(-526.811 -118.255)" fill="#f97a30"/>
      <path id="Path_304847" data-name="Path 304847" d="M2604.767,367.083a4.156,4.156,0,1,0-4.814,3.371A4.156,4.156,0,0,0,2604.767,367.083Z" transform="translate(-528.982 -152.359)" fill="#f22b35"/>
      <path id="Path_304848" data-name="Path 304848" d="M2443.892,248.864a2.453,2.453,0,1,0-2.842,1.99A2.454,2.454,0,0,0,2443.892,248.864Z" transform="translate(-472.848 -110.936)" fill="#0d88db"/>
      <path id="Path_304849" data-name="Path 304849" d="M2453.343,330.633a4.8,4.8,0,1,0-5.557,3.891A4.8,4.8,0,0,0,2453.343,330.633Z" transform="translate(-474.559 -139.099)" fill="#0d88db"/>
      <path id="Path_304850" data-name="Path 304850" d="M2463.382,287.5a2.336,2.336,0,1,0-2.706,1.895A2.335,2.335,0,0,0,2463.382,287.5Z" transform="translate(-479.878 -124.757)" fill="#ffc32c"/>
      <path id="Path_304851" data-name="Path 304851" d="M2470.239,231.338a4.514,4.514,0,1,0-5.23,3.662A4.514,4.514,0,0,0,2470.239,231.338Z" transform="translate(-480.78 -103.827)" fill="#e12162"/>
      <path id="Path_304852" data-name="Path 304852" d="M2592.316,199.841a6.569,6.569,0,1,0-7.61,5.328A6.569,6.569,0,0,0,2592.316,199.841Z" transform="translate(-522.837 -91.742)" fill="#f97a30"/>
      <path id="Path_304853" data-name="Path 304853" d="M2588.494,143.049a5,5,0,1,0-5.792,4.055A5,5,0,0,0,2588.494,143.049Z" transform="translate(-522.585 -72.157)" fill="#f97a30"/>
      <path id="Path_304854" data-name="Path 304854" d="M2562.274,227.548a5.86,5.86,0,1,0-6.788,4.754A5.859,5.859,0,0,0,2562.274,227.548Z" transform="translate(-512.631 -101.914)" fill="#0d88db"/>
      <path id="Path_304855" data-name="Path 304855" d="M2547.693,299.829a5.224,5.224,0,1,0-6.052,4.238A5.224,5.224,0,0,0,2547.693,299.829Z" transform="translate(-507.884 -127.941)" fill="#912882"/>
      <circle id="Ellipse_3459" data-name="Ellipse 3459" cx="4.833" cy="4.833" r="4.833" transform="translate(1930.72 57.303) rotate(-89.92)" fill="#912882"/>
      <path id="Path_304856" data-name="Path 304856" d="M2454.084,339.986a2.666,2.666,0,1,0-3.088,2.163A2.666,2.666,0,0,0,2454.084,339.986Z" transform="translate(-476.33 -143.324)" fill="#0d88db"/>
      <path id="Path_304857" data-name="Path 304857" d="M2286.007,80.03a3.42,3.42,0,1,0-3.962,2.775A3.42,3.42,0,0,0,2286.007,80.03Z" transform="translate(-415.892 -50.357)" fill="#ffc32c"/>
      <path id="Path_304858" data-name="Path 304858" d="M2305.4,219.367a4.34,4.34,0,1,0-5.027,3.52A4.339,4.339,0,0,0,2305.4,219.367Z" transform="translate(-422.154 -99.634)" fill="#912882"/>
      <path id="Path_304859" data-name="Path 304859" d="M2213.712,133.118a5.209,5.209,0,1,0-6.035,4.226A5.21,5.21,0,0,0,2213.712,133.118Z" transform="translate(-388.859 -68.53)" fill="#f97a30"/>
      <circle id="Ellipse_3460" data-name="Ellipse 3460" cx="5.17" cy="5.17" r="5.17" transform="translate(1882.835 257.653) rotate(-75.349)" fill="#e12162"/>
      <circle id="Ellipse_3461" data-name="Ellipse 3461" cx="5.436" cy="5.436" r="5.436" transform="matrix(0.819, -0.574, 0.574, 0.819, 1773.802, 88.102)" fill="#ffc32c"/>
      <path id="Path_304860" data-name="Path 304860" d="M2122.68,218.9a3.766,3.766,0,1,0-4.362,3.054A3.765,3.765,0,0,0,2122.68,218.9Z" transform="translate(-357.435 -99.706)" fill="#ffc32c"/>
      <path id="Path_304861" data-name="Path 304861" d="M2070.071,198.807a3.929,3.929,0,1,0-4.551,3.187A3.928,3.928,0,0,0,2070.071,198.807Z" transform="translate(-338.57 -92.478)" fill="#ffc32c"/>
      <path id="Path_304862" data-name="Path 304862" d="M2072.9,311.881a4.848,4.848,0,1,0-5.616,3.933A4.848,4.848,0,0,0,2072.9,311.881Z" transform="translate(-338.927 -132.394)" fill="#0d88db"/>
      <path id="Path_304863" data-name="Path 304863" d="M2091.351,468.616a4.135,4.135,0,1,0-4.79,3.354A4.134,4.134,0,0,0,2091.351,468.616Z" transform="translate(-346.008 -188.555)" fill="#ffc32c"/>
      <circle id="Ellipse_3462" data-name="Ellipse 3462" cx="3.448" cy="3.448" r="3.448" transform="translate(1658.706 180.375) rotate(-7.351)" fill="#a9d239"/>
      <path id="Path_304864" data-name="Path 304864" d="M1781.057,286.638a5.3,5.3,0,1,0-6.145,4.3A5.3,5.3,0,0,0,1781.057,286.638Z" transform="translate(-234.588 -123.206)" fill="#f97a30"/>
      <circle id="Ellipse_3463" data-name="Ellipse 3463" cx="6.528" cy="6.528" r="6.528" transform="matrix(0.131, -0.991, 0.991, 0.131, 1640.683, 187.907)" fill="#ffc32c"/>
      <path id="Path_304865" data-name="Path 304865" d="M2237.036,512.39a6.529,6.529,0,1,0-7.563,5.3A6.528,6.528,0,0,0,2237.036,512.39Z" transform="translate(-396.239 -203.155)" fill="#ffc32c"/>
      <path id="Path_304866" data-name="Path 304866" d="M1963.994,273.945a2.752,2.752,0,1,0-3.188,2.232A2.752,2.752,0,0,0,1963.994,273.945Z" transform="translate(-301.595 -119.751)" fill="#a9d239"/>
      <path id="Path_304867" data-name="Path 304867" d="M2296.623,492.435a2.752,2.752,0,1,0-3.188,2.232A2.752,2.752,0,0,0,2296.623,492.435Z" transform="translate(-420.148 -197.623)" fill="#a9d239"/>
      <path id="Path_304868" data-name="Path 304868" d="M1944.747,204.28a3.848,3.848,0,1,0-4.457,3.121A3.847,3.847,0,0,0,1944.747,204.28Z" transform="translate(-293.96 -94.462)" fill="#e12162"/>
      <path id="Path_304869" data-name="Path 304869" d="M2403.966,709.355a3.848,3.848,0,1,0-4.457,3.121A3.847,3.847,0,0,0,2403.966,709.355Z" transform="translate(-457.631 -274.478)" fill="#e12162"/>
      <path id="Path_304870" data-name="Path 304870" d="M1899.816,126.476a2.95,2.95,0,1,0-3.418,2.394A2.95,2.95,0,0,0,1899.816,126.476Z" transform="translate(-278.581 -67.107)" fill="#912882"/>
      <path id="Path_304871" data-name="Path 304871" d="M2020.539,135.714a3.349,3.349,0,1,0-3.88,2.717A3.35,3.35,0,0,0,2020.539,135.714Z" transform="translate(-321.326 -70.233)" fill="#f22b35"/>
      <path id="Path_304872" data-name="Path 304872" d="M2255.105,252.336a3.349,3.349,0,1,0-3.88,2.717A3.35,3.35,0,0,0,2255.105,252.336Z" transform="translate(-404.928 -111.799)" fill="#f22b35"/>
      <path id="Path_304873" data-name="Path 304873" d="M1994.323,86.776a4.872,4.872,0,1,0-5.644,3.952A4.871,4.871,0,0,0,1994.323,86.776Z" transform="translate(-310.905 -52.154)" fill="#912882"/>
      <path id="Path_304874" data-name="Path 304874" d="M1938.376,6.952a3.51,3.51,0,1,0-4.067,2.848A3.51,3.51,0,0,0,1938.376,6.952Z" transform="translate(-291.928 -24.274)" fill="#ffc32c"/>
      <circle id="Ellipse_3464" data-name="Ellipse 3464" cx="5.402" cy="5.402" r="5.402" transform="matrix(0.819, -0.574, 0.574, 0.819, 1716.397, 83.689)" fill="#e12162"/>
      <circle id="Ellipse_3465" data-name="Ellipse 3465" cx="5.98" cy="5.98" r="5.98" transform="translate(1677.989 34.709) rotate(-35)" fill="#912882"/>
      <path id="Path_304875" data-name="Path 304875" d="M1938.746-9.23a4.589,4.589,0,0,0-3.723-5.316,4.589,4.589,0,0,0-5.317,3.723,4.589,4.589,0,0,0,3.723,5.316A4.59,4.59,0,0,0,1938.746-9.23Z" transform="translate(-291.296 -18.055)" fill="#912882"/>
      <circle id="Ellipse_3466" data-name="Ellipse 3466" cx="5.129" cy="5.129" r="5.129" transform="translate(1663.816 177.584) rotate(-35)" fill="#a9d239"/>
      <circle id="Ellipse_3467" data-name="Ellipse 3467" cx="4.952" cy="4.952" r="4.952" transform="translate(1591.882 -8.332) rotate(-75.338)" fill="#a9d239"/>
      <path id="Path_304876" data-name="Path 304876" d="M1891.84,281.563a3.479,3.479,0,1,0-4.03,2.822A3.478,3.478,0,0,0,1891.84,281.563Z" transform="translate(-275.364 -122.161)" fill="#a9d239"/>
      <circle id="Ellipse_3468" data-name="Ellipse 3468" cx="6.24" cy="6.24" r="6.24" transform="matrix(0.905, -0.426, 0.426, 0.905, 1554.348, 62.403)" fill="#f97a30"/>
      <path id="Path_304877" data-name="Path 304877" d="M2414.694,162.327a6.24,6.24,0,1,0-7.229,5.062A6.239,6.239,0,0,0,2414.694,162.327Z" transform="translate(-459.763 -78.509)" fill="#f97a30"/>
      <path id="Path_304878" data-name="Path 304878" d="M1792.848,262.532a4.553,4.553,0,1,0-5.275,3.693A4.553,4.553,0,0,0,1792.848,262.532Z" transform="translate(-239.322 -114.929)" fill="#a9d239"/>
      <path id="Path_304879" data-name="Path 304879" d="M1699.682,111.573a3.19,3.19,0,1,0-3.7,2.588A3.19,3.19,0,0,0,1699.682,111.573Z" transform="translate(-207.08 -61.695)" fill="#ffc32c"/>
      <path id="Path_304880" data-name="Path 304880" d="M1642.043,122.6a3.507,3.507,0,1,0-4.062,2.845A3.506,3.506,0,0,0,1642.043,122.6Z" transform="translate(-186.314 -65.495)" fill="#912882"/>
      <path id="Path_304881" data-name="Path 304881" d="M1661.49,352.038a3.286,3.286,0,1,0-3.806,2.665A3.286,3.286,0,0,0,1661.49,352.038Z" transform="translate(-193.401 -147.36)" fill="#e12162"/>
      <path id="Path_304882" data-name="Path 304882" d="M1626.345,399.456a4.646,4.646,0,1,0-5.383,3.769A4.646,4.646,0,0,0,1626.345,399.456Z" transform="translate(-179.912 -163.691)" fill="#0d88db"/>
      <path id="Path_304883" data-name="Path 304883" d="M1532.724,174.325a2.454,2.454,0,1,0-2.843,1.991A2.455,2.455,0,0,0,1532.724,174.325Z" transform="translate(-148.096 -84.369)" fill="#e12162"/>
      <path id="Path_304884" data-name="Path 304884" d="M1514.037,266.383a3.8,3.8,0,1,0-4.407,3.085A3.8,3.8,0,0,0,1514.037,266.383Z" transform="translate(-140.48 -116.615)" fill="#912882"/>
      <path id="Path_304885" data-name="Path 304885" d="M1435.373,180.923a6.435,6.435,0,1,0-7.455,5.22A6.435,6.435,0,0,0,1435.373,180.923Z" transform="translate(-110.582 -85.055)" fill="#f22b35"/>
      <path id="Path_304886" data-name="Path 304886" d="M2628.271,296.609a6.435,6.435,0,1,0-7.455,5.22A6.435,6.435,0,0,0,2628.271,296.609Z" transform="translate(-535.746 -126.287)" fill="#f22b35"/>
    </g>
  </g>
</svg>
