<svg xmlns="http://www.w3.org/2000/svg" xmlns:xlink="http://www.w3.org/1999/xlink" width="95" height="165" viewBox="0 0 95 165">
  <defs>
    <clipPath id="clip-path">
      <rect id="Rectangle_15669" data-name="Rectangle 15669" width="14" height="12" rx="6" transform="translate(55 189.994)" fill="#fff"/>
    </clipPath>
    <clipPath id="clip-path-2">
      <rect id="Rectangle_15670" data-name="Rectangle 15670" width="21" height="18" rx="9" transform="translate(55 189.994)" fill="#fff"/>
    </clipPath>
    <clipPath id="clip-path-3">
      <rect id="Rectangle_15671" data-name="Rectangle 15671" width="13" height="11" rx="5.5" transform="translate(55.5 189.97)" fill="#fff"/>
    </clipPath>
    <clipPath id="clip-path-4">
      <rect id="Rectangle_15677" data-name="Rectangle 15677" width="10" height="8" rx="4" transform="translate(55 189.97)" fill="#fff"/>
    </clipPath>
    <clipPath id="clip-path-5">
      <rect id="Rectangle_15672" data-name="Rectangle 15672" width="14" height="13" rx="6.5" transform="translate(55 189.994)" fill="#fff"/>
    </clipPath>
    <clipPath id="clip-path-8">
      <rect id="Rectangle_15675" data-name="Rectangle 15675" width="20" height="17" rx="8.5" transform="translate(54.891 189.994)" fill="#fff"/>
    </clipPath>
    <clipPath id="clip-path-9">
      <rect id="Rectangle_15676" data-name="Rectangle 15676" width="13" height="11" rx="5.5" transform="translate(55 189.994)" fill="#fff"/>
    </clipPath>
  </defs>
  <g id="Group_45481" data-name="Group 45481" transform="translate(-140 -214.999)">
    <g id="Group_43872" data-name="Group 43872" transform="translate(5 -21.682)">
      <g id="Group_43527" data-name="Group 43527" transform="translate(135 236.681)">
        <path id="Path_305851" data-name="Path 305851" d="M-1061.7-123.06l9.718-14.713a8.507,8.507,0,0,0,.5-8.668c-2.04-3.965-4.254-8.011-6.548-12.031a7.659,7.659,0,0,0-7.383-3.614l-8.869.822,4.885-7.4a7.751,7.751,0,0,0,.1-8.509c-5.1-8.078-9.858-15.192-13.273-20.189a6.493,6.493,0,0,0-10.459,0c-3.443,5.039-8.254,12.231-13.4,20.394a7.751,7.751,0,0,0,.1,8.506l4.751,7.193-8.62-.8a7.659,7.659,0,0,0-7.384,3.614c-2.334,4.09-4.584,8.207-6.652,12.237a8.509,8.509,0,0,0,.5,8.661l9.571,14.49-14.407-1.336a5.521,5.521,0,0,0-6.036,4.041,27.708,27.708,0,0,0-.7,5.733c0,23.844,21.267,43.173,47.5,43.173s47.5-19.329,47.5-43.173a27.746,27.746,0,0,0-.7-5.757,5.522,5.522,0,0,0-6.036-4.039Z" transform="translate(1135.298 200.001)" fill="#92dd7a"/>
        <g id="Group_43526" data-name="Group 43526" transform="translate(0 0)">
          <path id="Path_305852" data-name="Path 305852" d="M-1077.34-189.585c-1.948-2.937-3.722-5.562-5.231-7.771a6.493,6.493,0,0,0-10.458,0c-3.443,5.039-8.254,12.231-13.4,20.393a7.752,7.752,0,0,0,.1,8.506l4.751,7.193-8.619-.8a7.658,7.658,0,0,0-7.383,3.614c-2.334,4.09-4.584,8.207-6.652,12.237a8.509,8.509,0,0,0,.5,8.661l9.57,14.49-14.406-1.336a5.521,5.521,0,0,0-6.036,4.041,27.707,27.707,0,0,0-.7,5.733c0,23.844,21.266,43.173,47.5,43.173a52.691,52.691,0,0,0,5.468-.287C-1099.112-120.589-1082.762-174.247-1077.34-189.585Z" transform="translate(1135.298 200)" fill="#7ec66a"/>
          <path id="Path_305854" data-name="Path 305854" d="M-1015.906-3.744h0a6.176,6.176,0,0,0-8.628-1.188l-14.625,11.086v-21.59l12.814-9.713a6.176,6.176,0,0,0,1.188-8.627,6.176,6.176,0,0,0-8.627-1.188l-5.374,4.074V-45.622a6.176,6.176,0,0,0-6.158-6.158,6.176,6.176,0,0,0-6.158,6.158V-30.89l-5.374-4.074a6.176,6.176,0,0,0-8.627,1.188,6.176,6.176,0,0,0,1.188,8.627l12.814,9.713V6.155L-1066.1-4.932a6.176,6.176,0,0,0-8.627,1.188h0a6.176,6.176,0,0,0,1.188,8.627l22.065,16.726V45.343a6.176,6.176,0,0,0,6.158,6.158,6.176,6.176,0,0,0,6.158-6.158V21.609l22.065-16.726A6.176,6.176,0,0,0-1015.906-3.744Z" transform="translate(1092.819 92.112)" fill="#7ec66a"/>
        </g>
        <path id="Path_305855" data-name="Path 305855" d="M-1043.3-51.439a6.093,6.093,0,0,0-2.017-.341,6.176,6.176,0,0,0-6.158,6.158V-30.89l-5.374-4.074a6.176,6.176,0,0,0-8.627,1.188,6.176,6.176,0,0,0,1.188,8.627l12.814,9.713V6.155L-1066.1-4.932a6.176,6.176,0,0,0-8.627,1.188h0a6.176,6.176,0,0,0,1.188,8.627l22.065,16.726V45.343a6.176,6.176,0,0,0,6.158,6.158,6.176,6.176,0,0,0,6.158-6.158V38.126C-1050.393,6.734-1048-26.868-1043.3-51.439Z" transform="translate(1092.816 92.112)" fill="#67b758"/>
      </g>
      <g id="Group_43529" data-name="Group 43529" transform="translate(154.27 368.487)">
        <path id="Path_305856" data-name="Path 305856" d="M-1570.637,202.833a11.992,11.992,0,0,0-10.117-6.586A5.409,5.409,0,0,1-1585,193.82a15.041,15.041,0,0,0-12.577-6.779,15.042,15.042,0,0,0-12.576,6.776,5.423,5.423,0,0,1-4.265,2.428,11.94,11.94,0,0,0-4.782,1.268,12,12,0,0,0-5.321,16.117,12.767,12.767,0,0,0,10.719,6.6h32.448a12.664,12.664,0,0,0,5.4-1.285A12,12,0,0,0-1570.637,202.833Z" transform="translate(1625.808 -187.041)" fill="#c68d6d"/>
        <g id="Group_43528" data-name="Group 43528">
          <path id="Path_305850" data-name="Path 305850" d="M-1606.61,204.326a11.942,11.942,0,0,1,4.782-1.268,5.422,5.422,0,0,0,4.265-2.428,15.041,15.041,0,0,1,12.575-6.776h.009l-.025-.035a15.041,15.041,0,0,0-12.577-6.779,15.041,15.041,0,0,0-12.576,6.776,5.423,5.423,0,0,1-4.265,2.428,11.938,11.938,0,0,0-4.782,1.268,12,12,0,0,0-5.32,16.117,12.766,12.766,0,0,0,10.719,6.6h1.776A12,12,0,0,1-1606.61,204.326Z" transform="translate(1625.808 -187.04)" fill="#b77b5e"/>
          <ellipse id="Ellipse_3492" data-name="Ellipse 3492" cx="1.22" cy="1.22" rx="1.22" ry="1.22" transform="translate(37.223 16.981)" fill="#b77b5e"/>
          <ellipse id="Ellipse_3493" data-name="Ellipse 3493" cx="1.22" cy="1.22" rx="1.22" ry="1.22" transform="translate(33.584 25.186)" fill="#b77b5e"/>
          <ellipse id="Ellipse_3494" data-name="Ellipse 3494" cx="1.22" cy="1.22" rx="1.22" ry="1.22" transform="translate(43.48 23.473)" fill="#b77b5e"/>
        </g>
      </g>
    </g>
    <g id="Group_45452" data-name="Group 45452" transform="translate(163 106.006)" clip-path="url(#clip-path)">
      <g id="orange-juice" transform="translate(56.306 189.998)">
        <ellipse id="Ellipse_3660" data-name="Ellipse 3660" cx="5.629" cy="4.93" rx="5.629" ry="4.93" transform="translate(0 2.287)" fill="#fe3845"/>
        <path id="Path_307879" data-name="Path 307879" d="M107.138,57.053c0,2.723-2.52,4.93-5.629,4.93a6.356,6.356,0,0,1-1.711-.232,6.422,6.422,0,0,0,1.171.107c3.109,0,5.629-2.208,5.629-4.93a5.051,5.051,0,0,0-3.917-4.7A5.139,5.139,0,0,1,107.138,57.053Z" transform="translate(-95.881 -49.835)" fill="#fe860a"/>
        <path id="Path_307880" data-name="Path 307880" d="M136.449,20.836a2.262,2.262,0,0,0,.6-.417,1.572,1.572,0,0,0,.494-.93.1.1,0,0,0-.055-.1,2.107,2.107,0,0,0-1.133-.2,2.162,2.162,0,0,0-.918.27,1.853,1.853,0,0,0-.881,1.094c-.016.067-.081.242.026.293a1.927,1.927,0,0,0,.309.116A2.322,2.322,0,0,0,136.449,20.836Z" transform="translate(-128.792 -18.302)" fill="#00c2af"/>
        <path id="Path_307881" data-name="Path 307881" d="M137.588,21.039a1.572,1.572,0,0,1-.495.93,2.255,2.255,0,0,1-.6.417,2.322,2.322,0,0,1-1.554.126,1.941,1.941,0,0,1-.309-.116.1.1,0,0,1-.058-.093c0-.03.006-.062.007-.069s0-.007,0-.01a2.323,2.323,0,0,0,1.506-.139,2.259,2.259,0,0,0,.6-.416,1.592,1.592,0,0,0,.484-.863,1.882,1.882,0,0,1,.361.138A.1.1,0,0,1,137.588,21.039Z" transform="translate(-128.831 -19.852)" fill="#08b865"/>
        <path id="Path_307882" data-name="Path 307882" d="M120.857,2.794a10.44,10.44,0,0,1-.079-2.329.592.592,0,0,1,.763-.44l.015,0a.517.517,0,0,1,.407.585,15.812,15.812,0,0,0-.218,2.127.423.423,0,0,1-.446.388A.432.432,0,0,1,120.857,2.794Z" transform="translate(-115.728 -0.001)" fill="#d77f4a"/>
        <path id="Path_307883" data-name="Path 307883" d="M127.072.613a15.832,15.832,0,0,0-.218,2.127.423.423,0,0,1-.446.388.486.486,0,0,1-.275-.083.377.377,0,0,0,.171-.3,15.829,15.829,0,0,1,.218-2.127A.5.5,0,0,0,126.2.059a.658.658,0,0,1,.446-.035l.015,0a.516.516,0,0,1,.407.585Z" transform="translate(-120.837 0)" fill="#c86d36"/>
        <g id="Group_45451" data-name="Group 45451" transform="translate(4.684 3.423)">
          <path id="Path_307884" data-name="Path 307884" d="M115.315,75.25a1.351,1.351,0,0,1-.8-.249.168.168,0,0,1-.024-.258.23.23,0,0,1,.295-.021.954.954,0,0,0,1.084-.013.23.23,0,0,1,.3.014.168.168,0,0,1-.015.259A1.352,1.352,0,0,1,115.315,75.25Z" transform="translate(-114.439 -74.662)" fill="#e57917"/>
        </g>
      </g>
    </g>
    <g id="Group_45454" data-name="Group 45454" transform="translate(150 129.006)" clip-path="url(#clip-path-2)">
      <g id="orange-juice-2" data-name="orange-juice" transform="translate(56.958 189.999)">
        <ellipse id="Ellipse_3661" data-name="Ellipse 3661" cx="8.443" cy="7.441" rx="8.443" ry="7.441" transform="translate(0 3.452)" fill="#fe3845"/>
        <path id="Path_307885" data-name="Path 307885" d="M110.808,59.509c0,4.109-3.78,7.441-8.443,7.441A9.48,9.48,0,0,1,99.8,66.6a9.576,9.576,0,0,0,1.756.161c4.663,0,8.443-3.332,8.443-7.441a7.612,7.612,0,0,0-5.876-7.09C107.942,52.942,110.808,55.93,110.808,59.509Z" transform="translate(-93.922 -48.616)" fill="#fe860a"/>
        <path id="Path_307886" data-name="Path 307886" d="M137.41,21.678a3.392,3.392,0,0,0,.907-.629,2.377,2.377,0,0,0,.742-1.4.144.144,0,0,0-.083-.144,3.144,3.144,0,0,0-1.7-.307,3.228,3.228,0,0,0-1.378.407,2.794,2.794,0,0,0-1.322,1.651c-.025.1-.121.365.039.442a2.879,2.879,0,0,0,.463.175A3.463,3.463,0,0,0,137.41,21.678Z" transform="translate(-125.924 -17.854)" fill="#00c2af"/>
        <path id="Path_307887" data-name="Path 307887" d="M139.1,21.158a2.376,2.376,0,0,1-.742,1.4,3.382,3.382,0,0,1-.907.629,3.463,3.463,0,0,1-2.331.191,2.9,2.9,0,0,1-.463-.175.144.144,0,0,1-.086-.141c0-.046.008-.093.01-.1s0-.01,0-.015a3.465,3.465,0,0,0,2.259-.21,3.388,3.388,0,0,0,.907-.628,2.406,2.406,0,0,0,.726-1.3,2.813,2.813,0,0,1,.541.208A.145.145,0,0,1,139.1,21.158Z" transform="translate(-125.963 -19.366)" fill="#08b865"/>
        <path id="Path_307888" data-name="Path 307888" d="M120.915,4.216A15.852,15.852,0,0,1,120.8.7.888.888,0,0,1,121.94.037l.023.006a.78.78,0,0,1,.611.883,24,24,0,0,0-.327,3.21.635.635,0,0,1-.669.585A.649.649,0,0,1,120.915,4.216Z" transform="translate(-113.221 -0.001)" fill="#d77f4a"/>
        <path id="Path_307889" data-name="Path 307889" d="M127.541.924a24.035,24.035,0,0,0-.327,3.21.635.635,0,0,1-.669.585.725.725,0,0,1-.413-.126.57.57,0,0,0,.257-.46,24.032,24.032,0,0,1,.327-3.21.76.76,0,0,0-.478-.836.981.981,0,0,1,.669-.053l.023.006a.779.779,0,0,1,.611.882Z" transform="translate(-118.189 0)" fill="#c86d36"/>
        <g id="Group_45453" data-name="Group 45453" transform="translate(7.025 5.165)">
          <path id="Path_307890" data-name="Path 307890" d="M115.753,75.55a2.018,2.018,0,0,1-1.2-.376.254.254,0,0,1-.036-.389.343.343,0,0,1,.442-.031,1.424,1.424,0,0,0,1.626-.02.344.344,0,0,1,.443.02.254.254,0,0,1-.023.39A2.02,2.02,0,0,1,115.753,75.55Z" transform="translate(-114.439 -74.662)" fill="#e57917"/>
        </g>
      </g>
    </g>
    <g id="Group_45456" data-name="Group 45456" transform="translate(149.5 69.03)" clip-path="url(#clip-path-3)">
      <g id="orange-juice-3" data-name="orange-juice" transform="translate(56.239 189.925)">
        <ellipse id="Ellipse_3662" data-name="Ellipse 3662" cx="5.34" cy="4.401" rx="5.34" ry="4.401" transform="translate(0 2.042)" fill="#fe3845"/>
        <path id="Path_307891" data-name="Path 307891" d="M106.761,56.535c0,2.431-2.391,4.4-5.34,4.4a6.384,6.384,0,0,1-1.624-.207,6.463,6.463,0,0,0,1.111.1c2.949,0,5.34-1.971,5.34-4.4a4.588,4.588,0,0,0-3.716-4.194C104.948,52.651,106.761,54.418,106.761,56.535Z" transform="translate(-96.082 -50.092)" fill="#fe860a"/>
        <path id="Path_307892" data-name="Path 307892" d="M136.35,20.658a2.154,2.154,0,0,0,.574-.372,1.38,1.38,0,0,0,.469-.83.084.084,0,0,0-.052-.085,2.108,2.108,0,0,0-1.075-.181,2.147,2.147,0,0,0-.871.241,1.677,1.677,0,0,0-.836.976c-.015.06-.077.216.025.261a1.9,1.9,0,0,0,.293.1A2.33,2.33,0,0,0,136.35,20.658Z" transform="translate(-129.086 -18.397)" fill="#00c2af"/>
        <path id="Path_307893" data-name="Path 307893" d="M137.433,21.014a1.379,1.379,0,0,1-.469.83,2.148,2.148,0,0,1-.574.372,2.33,2.33,0,0,1-1.474.113,1.914,1.914,0,0,1-.293-.1.085.085,0,0,1-.055-.083c0-.027.005-.055.006-.062s0-.006,0-.009a2.331,2.331,0,0,0,1.429-.124,2.152,2.152,0,0,0,.574-.372,1.4,1.4,0,0,0,.459-.77,1.857,1.857,0,0,1,.342.123A.085.085,0,0,1,137.433,21.014Z" transform="translate(-129.126 -19.954)" fill="#08b865"/>
        <path id="Path_307894" data-name="Path 307894" d="M120.851,2.494a8.775,8.775,0,0,1-.075-2.079A.565.565,0,0,1,121.5.022l.015,0a.464.464,0,0,1,.386.522,13.314,13.314,0,0,0-.207,1.9.393.393,0,0,1-.423.346A.406.406,0,0,1,120.851,2.494Z" transform="translate(-115.986 -0.001)" fill="#d77f4a"/>
        <path id="Path_307895" data-name="Path 307895" d="M127.023.547a13.329,13.329,0,0,0-.207,1.9.393.393,0,0,1-.423.346.481.481,0,0,1-.261-.074.333.333,0,0,0,.163-.272,13.325,13.325,0,0,1,.207-1.9.446.446,0,0,0-.3-.494.66.66,0,0,1,.423-.031l.015,0A.463.463,0,0,1,127.023.547Z" transform="translate(-121.109 0)" fill="#c86d36"/>
        <g id="Group_45455" data-name="Group 45455" transform="translate(4.443 3.055)">
          <path id="Path_307896" data-name="Path 307896" d="M115.27,75.187a1.338,1.338,0,0,1-.761-.222.144.144,0,0,1-.023-.23.229.229,0,0,1,.279-.019.952.952,0,0,0,1.028-.012.229.229,0,0,1,.28.012.144.144,0,0,1-.015.231A1.337,1.337,0,0,1,115.27,75.187Z" transform="translate(-114.439 -74.662)" fill="#e57917"/>
        </g>
      </g>
    </g>
    <g id="Group_45480" data-name="Group 45480" transform="translate(138 48.03)" clip-path="url(#clip-path-4)">
      <g id="orange-juice-4" data-name="orange-juice" transform="translate(55.917 189.936)">
        <ellipse id="Ellipse_3668" data-name="Ellipse 3668" cx="3.955" cy="3.302" rx="3.955" ry="3.302" transform="translate(0 1.532)" fill="#fe3845"/>
        <path id="Path_307951" data-name="Path 307951" d="M104.956,55.46c0,1.823-1.771,3.3-3.955,3.3a4.673,4.673,0,0,1-1.2-.155,4.729,4.729,0,0,0,.823.072c2.184,0,3.955-1.478,3.955-3.3a3.428,3.428,0,0,0-2.753-3.146A3.509,3.509,0,0,1,104.956,55.46Z" transform="translate(-97.045 -50.626)" fill="#fe860a"/>
        <path id="Path_307952" data-name="Path 307952" d="M135.878,20.289a1.594,1.594,0,0,0,.425-.279,1.038,1.038,0,0,0,.347-.623.063.063,0,0,0-.039-.064,1.544,1.544,0,0,0-.8-.136,1.575,1.575,0,0,0-.645.181,1.254,1.254,0,0,0-.619.732c-.011.045-.057.162.018.2a1.4,1.4,0,0,0,.217.077A1.706,1.706,0,0,0,135.878,20.289Z" transform="translate(-130.497 -18.593)" fill="#00c2af"/>
        <path id="Path_307953" data-name="Path 307953" d="M136.69,20.962a1.038,1.038,0,0,1-.347.623,1.589,1.589,0,0,1-.425.279,1.706,1.706,0,0,1-1.092.085,1.406,1.406,0,0,1-.217-.077.063.063,0,0,1-.04-.063c0-.02,0-.041,0-.046s0,0,0-.007a1.707,1.707,0,0,0,1.058-.093,1.592,1.592,0,0,0,.425-.279,1.054,1.054,0,0,0,.34-.578,1.364,1.364,0,0,1,.254.092A.064.064,0,0,1,136.69,20.962Z" transform="translate(-130.537 -20.167)" fill="#08b865"/>
        <path id="Path_307954" data-name="Path 307954" d="M120.823,1.871a6.666,6.666,0,0,1-.056-1.56A.418.418,0,0,1,121.3.017l.011,0a.347.347,0,0,1,.286.392,10.111,10.111,0,0,0-.153,1.424.292.292,0,0,1-.314.26A.3.3,0,0,1,120.823,1.871Z" transform="translate(-117.219 -0.001)" fill="#d77f4a"/>
        <path id="Path_307955" data-name="Path 307955" d="M126.792.41a10.122,10.122,0,0,0-.153,1.424.292.292,0,0,1-.314.26.353.353,0,0,1-.193-.056.25.25,0,0,0,.12-.2A10.12,10.12,0,0,1,126.406.41a.335.335,0,0,0-.224-.371A.483.483,0,0,1,126.5.016l.011,0a.347.347,0,0,1,.286.392Z" transform="translate(-122.411 0)" fill="#c86d36"/>
        <g id="Group_45479" data-name="Group 45479" transform="translate(3.291 2.292)">
          <path id="Path_307956" data-name="Path 307956" d="M115.055,75.056a.982.982,0,0,1-.564-.167.109.109,0,0,1-.017-.173.168.168,0,0,1,.207-.014.7.7,0,0,0,.762-.009.168.168,0,0,1,.207.009.109.109,0,0,1-.011.173A.982.982,0,0,1,115.055,75.056Z" transform="translate(-114.439 -74.662)" fill="#e57917"/>
        </g>
      </g>
    </g>
    <g id="Group_45458" data-name="Group 45458" transform="translate(103 68.006)" clip-path="url(#clip-path-5)">
      <g id="orange-juice-5" data-name="orange-juice" transform="translate(56.329 189.998)">
        <ellipse id="Ellipse_3663" data-name="Ellipse 3663" cx="5.727" cy="5.341" rx="5.727" ry="5.341" transform="translate(0 2.478)" fill="#fe3845"/>
        <path id="Path_307897" data-name="Path 307897" d="M107.267,57.455a5.544,5.544,0,0,1-5.728,5.341,6.1,6.1,0,0,1-1.741-.251,6.15,6.15,0,0,0,1.191.116,5.545,5.545,0,0,0,5.728-5.341,5.4,5.4,0,0,0-3.986-5.09A5.447,5.447,0,0,1,107.267,57.455Z" transform="translate(-95.812 -49.636)" fill="#fe860a"/>
        <path id="Path_307898" data-name="Path 307898" d="M136.483,20.974a2.3,2.3,0,0,0,.616-.451,1.74,1.74,0,0,0,.5-1.008.1.1,0,0,0-.056-.1,2.031,2.031,0,0,0-1.153-.22,2.1,2.1,0,0,0-.935.292,1.989,1.989,0,0,0-.9,1.185c-.017.073-.082.262.026.317a1.888,1.888,0,0,0,.314.125A2.23,2.23,0,0,0,136.483,20.974Z" transform="translate(-128.691 -18.229)" fill="#00c2af"/>
        <path id="Path_307899" data-name="Path 307899" d="M137.641,21.058a1.739,1.739,0,0,1-.5,1.008,2.3,2.3,0,0,1-.615.451,2.23,2.23,0,0,1-1.581.137,1.9,1.9,0,0,1-.314-.125.1.1,0,0,1-.059-.1c0-.033.006-.067.007-.075s0-.007,0-.011a2.232,2.232,0,0,0,1.532-.151,2.3,2.3,0,0,0,.615-.451,1.756,1.756,0,0,0,.493-.935,1.845,1.845,0,0,1,.367.149A.105.105,0,0,1,137.641,21.058Z" transform="translate(-128.731 -19.772)" fill="#08b865"/>
        <path id="Path_307900" data-name="Path 307900" d="M120.859,3.026A12.033,12.033,0,0,1,120.779.5a.6.6,0,0,1,.776-.477l.016,0a.559.559,0,0,1,.414.633,18.2,18.2,0,0,0-.222,2.3.441.441,0,0,1-.454.42A.445.445,0,0,1,120.859,3.026Z" transform="translate(-115.64 -0.001)" fill="#d77f4a"/>
        <path id="Path_307901" data-name="Path 307901" d="M127.088.664a18.227,18.227,0,0,0-.222,2.3.441.441,0,0,1-.454.42.473.473,0,0,1-.28-.09.415.415,0,0,0,.174-.33,18.218,18.218,0,0,1,.222-2.3.551.551,0,0,0-.324-.6.632.632,0,0,1,.454-.038l.016,0a.559.559,0,0,1,.414.633Z" transform="translate(-120.744 0)" fill="#c86d36"/>
        <g id="Group_45457" data-name="Group 45457" transform="translate(4.766 3.708)">
          <path id="Path_307902" data-name="Path 307902" d="M115.331,75.3a1.318,1.318,0,0,1-.817-.27.189.189,0,0,1-.024-.28.223.223,0,0,1,.3-.023.922.922,0,0,0,1.1-.014.224.224,0,0,1,.3.015.189.189,0,0,1-.016.28A1.321,1.321,0,0,1,115.331,75.3Z" transform="translate(-114.439 -74.662)" fill="#e57917"/>
        </g>
      </g>
    </g>
    <g id="Group_45460" data-name="Group 45460" transform="translate(87 106.006)" clip-path="url(#clip-path)">
      <g id="orange-juice-6" data-name="orange-juice" transform="translate(56.306 189.998)">
        <ellipse id="Ellipse_3664" data-name="Ellipse 3664" cx="5.629" cy="4.93" rx="5.629" ry="4.93" transform="translate(0 2.287)" fill="#fe3845"/>
        <path id="Path_307903" data-name="Path 307903" d="M107.138,57.053c0,2.723-2.52,4.93-5.629,4.93a6.356,6.356,0,0,1-1.711-.232,6.422,6.422,0,0,0,1.171.107c3.109,0,5.629-2.208,5.629-4.93a5.051,5.051,0,0,0-3.917-4.7A5.139,5.139,0,0,1,107.138,57.053Z" transform="translate(-95.881 -49.835)" fill="#fe860a"/>
        <path id="Path_307904" data-name="Path 307904" d="M136.449,20.836a2.262,2.262,0,0,0,.6-.417,1.572,1.572,0,0,0,.494-.93.1.1,0,0,0-.055-.1,2.107,2.107,0,0,0-1.133-.2,2.162,2.162,0,0,0-.918.27,1.853,1.853,0,0,0-.881,1.094c-.016.067-.081.242.026.293a1.927,1.927,0,0,0,.309.116A2.322,2.322,0,0,0,136.449,20.836Z" transform="translate(-128.792 -18.302)" fill="#00c2af"/>
        <path id="Path_307905" data-name="Path 307905" d="M137.588,21.039a1.572,1.572,0,0,1-.495.93,2.255,2.255,0,0,1-.6.417,2.322,2.322,0,0,1-1.554.126,1.941,1.941,0,0,1-.309-.116.1.1,0,0,1-.058-.093c0-.03.006-.062.007-.069s0-.007,0-.01a2.323,2.323,0,0,0,1.506-.139,2.259,2.259,0,0,0,.6-.416,1.592,1.592,0,0,0,.484-.863,1.882,1.882,0,0,1,.361.138A.1.1,0,0,1,137.588,21.039Z" transform="translate(-128.831 -19.852)" fill="#08b865"/>
        <path id="Path_307906" data-name="Path 307906" d="M120.857,2.794a10.44,10.44,0,0,1-.079-2.329.592.592,0,0,1,.763-.44l.015,0a.517.517,0,0,1,.407.585,15.812,15.812,0,0,0-.218,2.127.423.423,0,0,1-.446.388A.432.432,0,0,1,120.857,2.794Z" transform="translate(-115.728 -0.001)" fill="#d77f4a"/>
        <path id="Path_307907" data-name="Path 307907" d="M127.072.613a15.832,15.832,0,0,0-.218,2.127.423.423,0,0,1-.446.388.486.486,0,0,1-.275-.083.377.377,0,0,0,.171-.3,15.829,15.829,0,0,1,.218-2.127A.5.5,0,0,0,126.2.059a.658.658,0,0,1,.446-.035l.015,0a.516.516,0,0,1,.407.585Z" transform="translate(-120.837 0)" fill="#c86d36"/>
        <g id="Group_45459" data-name="Group 45459" transform="translate(4.684 3.423)">
          <path id="Path_307908" data-name="Path 307908" d="M115.315,75.25a1.351,1.351,0,0,1-.8-.249.168.168,0,0,1-.024-.258.23.23,0,0,1,.295-.021.954.954,0,0,0,1.084-.013.23.23,0,0,1,.3.014.168.168,0,0,1-.015.259A1.352,1.352,0,0,1,115.315,75.25Z" transform="translate(-114.439 -74.662)" fill="#e57917"/>
        </g>
      </g>
    </g>
    <g id="Group_45462" data-name="Group 45462" transform="translate(108 94.006)" clip-path="url(#clip-path)">
      <g id="orange-juice-7" data-name="orange-juice" transform="translate(56.306 189.998)">
        <ellipse id="Ellipse_3665" data-name="Ellipse 3665" cx="5.629" cy="4.93" rx="5.629" ry="4.93" transform="translate(0 2.287)" fill="#fe3845"/>
        <path id="Path_307909" data-name="Path 307909" d="M107.138,57.053c0,2.723-2.52,4.93-5.629,4.93a6.356,6.356,0,0,1-1.711-.232,6.422,6.422,0,0,0,1.171.107c3.109,0,5.629-2.208,5.629-4.93a5.051,5.051,0,0,0-3.917-4.7A5.139,5.139,0,0,1,107.138,57.053Z" transform="translate(-95.881 -49.835)" fill="#fe860a"/>
        <path id="Path_307910" data-name="Path 307910" d="M136.449,20.836a2.262,2.262,0,0,0,.6-.417,1.572,1.572,0,0,0,.494-.93.1.1,0,0,0-.055-.1,2.107,2.107,0,0,0-1.133-.2,2.162,2.162,0,0,0-.918.27,1.853,1.853,0,0,0-.881,1.094c-.016.067-.081.242.026.293a1.927,1.927,0,0,0,.309.116A2.322,2.322,0,0,0,136.449,20.836Z" transform="translate(-128.792 -18.302)" fill="#00c2af"/>
        <path id="Path_307911" data-name="Path 307911" d="M137.588,21.039a1.572,1.572,0,0,1-.495.93,2.255,2.255,0,0,1-.6.417,2.322,2.322,0,0,1-1.554.126,1.941,1.941,0,0,1-.309-.116.1.1,0,0,1-.058-.093c0-.03.006-.062.007-.069s0-.007,0-.01a2.323,2.323,0,0,0,1.506-.139,2.259,2.259,0,0,0,.6-.416,1.592,1.592,0,0,0,.484-.863,1.882,1.882,0,0,1,.361.138A.1.1,0,0,1,137.588,21.039Z" transform="translate(-128.831 -19.852)" fill="#08b865"/>
        <path id="Path_307912" data-name="Path 307912" d="M120.857,2.794a10.44,10.44,0,0,1-.079-2.329.592.592,0,0,1,.763-.44l.015,0a.517.517,0,0,1,.407.585,15.812,15.812,0,0,0-.218,2.127.423.423,0,0,1-.446.388A.432.432,0,0,1,120.857,2.794Z" transform="translate(-115.728 -0.001)" fill="#d77f4a"/>
        <path id="Path_307913" data-name="Path 307913" d="M127.072.613a15.832,15.832,0,0,0-.218,2.127.423.423,0,0,1-.446.388.486.486,0,0,1-.275-.083.377.377,0,0,0,.171-.3,15.829,15.829,0,0,1,.218-2.127A.5.5,0,0,0,126.2.059a.658.658,0,0,1,.446-.035l.015,0a.516.516,0,0,1,.407.585Z" transform="translate(-120.837 0)" fill="#c86d36"/>
        <g id="Group_45461" data-name="Group 45461" transform="translate(4.684 3.423)">
          <path id="Path_307914" data-name="Path 307914" d="M115.315,75.25a1.351,1.351,0,0,1-.8-.249.168.168,0,0,1-.024-.258.23.23,0,0,1,.295-.021.954.954,0,0,0,1.084-.013.23.23,0,0,1,.3.014.168.168,0,0,1-.015.259A1.352,1.352,0,0,1,115.315,75.25Z" transform="translate(-114.439 -74.662)" fill="#e57917"/>
        </g>
      </g>
    </g>
    <g id="Group_45464" data-name="Group 45464" transform="translate(93.109 126.006)" clip-path="url(#clip-path-8)">
      <g id="orange-juice-8" data-name="orange-juice" transform="translate(56.855 189.999)">
        <ellipse id="Ellipse_3666" data-name="Ellipse 3666" cx="7.997" cy="7.031" rx="7.997" ry="7.031" transform="translate(0 3.262)" fill="#fe3845"/>
        <path id="Path_307915" data-name="Path 307915" d="M110.227,59.108c0,3.883-3.581,7.031-8,7.031a9,9,0,0,1-2.432-.331,9.091,9.091,0,0,0,1.664.152c4.417,0,8-3.148,8-7.031a7.2,7.2,0,0,0-5.566-6.7C107.511,52.9,110.227,55.727,110.227,59.108Z" transform="translate(-94.232 -48.815)" fill="#fe860a"/>
        <path id="Path_307916" data-name="Path 307916" d="M137.258,21.541a3.213,3.213,0,0,0,.859-.594,2.245,2.245,0,0,0,.7-1.326.136.136,0,0,0-.078-.136,2.984,2.984,0,0,0-1.609-.29,3.063,3.063,0,0,0-1.3.385,2.641,2.641,0,0,0-1.252,1.56c-.023.1-.115.345.037.417a2.731,2.731,0,0,0,.439.165A3.287,3.287,0,0,0,137.258,21.541Z" transform="translate(-126.379 -17.928)" fill="#00c2af"/>
        <path id="Path_307917" data-name="Path 307917" d="M138.859,21.138a2.244,2.244,0,0,1-.7,1.326,3.2,3.2,0,0,1-.859.594,3.287,3.287,0,0,1-2.208.18,2.752,2.752,0,0,1-.439-.165.136.136,0,0,1-.082-.133c0-.043.008-.088.009-.1s0-.009,0-.014a3.29,3.29,0,0,0,2.14-.2,3.209,3.209,0,0,0,.859-.594,2.272,2.272,0,0,0,.688-1.23,2.668,2.668,0,0,1,.513.2A.137.137,0,0,1,138.859,21.138Z" transform="translate(-126.417 -19.445)" fill="#08b865"/>
        <path id="Path_307918" data-name="Path 307918" d="M120.906,3.984a14.945,14.945,0,0,1-.112-3.321.841.841,0,0,1,1.084-.627l.022.006a.737.737,0,0,1,.578.834,22.63,22.63,0,0,0-.31,3.033.6.6,0,0,1-.634.553A.614.614,0,0,1,120.906,3.984Z" transform="translate(-113.618 -0.001)" fill="#d77f4a"/>
        <path id="Path_307919" data-name="Path 307919" d="M127.467.873a22.659,22.659,0,0,0-.31,3.033.6.6,0,0,1-.634.553.688.688,0,0,1-.391-.119.539.539,0,0,0,.243-.434,22.656,22.656,0,0,1,.31-3.033.718.718,0,0,0-.452-.79.931.931,0,0,1,.634-.05l.022.006a.736.736,0,0,1,.578.834Z" transform="translate(-118.609 0)" fill="#c86d36"/>
        <g id="Group_45463" data-name="Group 45463" transform="translate(6.654 4.881)">
          <path id="Path_307920" data-name="Path 307920" d="M115.684,75.5a1.915,1.915,0,0,1-1.14-.355.24.24,0,0,1-.034-.368.326.326,0,0,1,.419-.03,1.351,1.351,0,0,0,1.54-.019.326.326,0,0,1,.419.019.24.24,0,0,1-.022.369A1.916,1.916,0,0,1,115.684,75.5Z" transform="translate(-114.439 -74.662)" fill="#e57917"/>
        </g>
      </g>
    </g>
    <g id="Group_45466" data-name="Group 45466" transform="translate(143 97.006)" clip-path="url(#clip-path-9)">
      <g id="orange-juice-9" data-name="orange-juice" transform="translate(56.19 189.997)">
        <ellipse id="Ellipse_3667" data-name="Ellipse 3667" cx="5.128" cy="4.52" rx="5.128" ry="4.52" transform="translate(0 2.097)" fill="#fe3845"/>
        <path id="Path_307921" data-name="Path 307921" d="M106.485,56.651c0,2.5-2.3,4.519-5.128,4.519a5.758,5.758,0,0,1-1.559-.213,5.816,5.816,0,0,0,1.067.1c2.832,0,5.128-2.024,5.128-4.52a4.623,4.623,0,0,0-3.569-4.307A4.7,4.7,0,0,1,106.485,56.651Z" transform="translate(-96.229 -50.035)" fill="#fe860a"/>
        <path id="Path_307922" data-name="Path 307922" d="M136.278,20.7a2.06,2.06,0,0,0,.551-.382,1.444,1.444,0,0,0,.45-.853.087.087,0,0,0-.05-.088,1.91,1.91,0,0,0-1.032-.186,1.961,1.961,0,0,0-.837.247,1.7,1.7,0,0,0-.8,1c-.015.062-.074.222.024.268a1.749,1.749,0,0,0,.281.106A2.1,2.1,0,0,0,136.278,20.7Z" transform="translate(-129.302 -18.375)" fill="#00c2af"/>
        <path id="Path_307923" data-name="Path 307923" d="M137.32,21.019a1.443,1.443,0,0,1-.451.853,2.055,2.055,0,0,1-.551.382,2.1,2.1,0,0,1-1.416.116,1.762,1.762,0,0,1-.281-.106.087.087,0,0,1-.053-.086c0-.028.005-.057.006-.063s0-.006,0-.009a2.1,2.1,0,0,0,1.372-.127,2.057,2.057,0,0,0,.551-.382,1.461,1.461,0,0,0,.441-.791,1.708,1.708,0,0,1,.329.126A.088.088,0,0,1,137.32,21.019Z" transform="translate(-129.341 -19.931)" fill="#08b865"/>
        <path id="Path_307924" data-name="Path 307924" d="M120.847,2.561a9.628,9.628,0,0,1-.072-2.135.539.539,0,0,1,.695-.4l.014,0a.473.473,0,0,1,.371.536,14.58,14.58,0,0,0-.2,1.95.386.386,0,0,1-.407.355A.394.394,0,0,1,120.847,2.561Z" transform="translate(-116.174 -0.001)" fill="#d77f4a"/>
        <path id="Path_307925" data-name="Path 307925" d="M126.988.562a14.6,14.6,0,0,0-.2,1.95.386.386,0,0,1-.407.355.44.44,0,0,1-.251-.076.346.346,0,0,0,.156-.279,14.6,14.6,0,0,1,.2-1.95.461.461,0,0,0-.29-.508A.6.6,0,0,1,126.6.022l.014,0A.473.473,0,0,1,126.988.562Z" transform="translate(-121.308 0)" fill="#c86d36"/>
        <g id="Group_45465" data-name="Group 45465" transform="translate(4.267 3.137)">
          <path id="Path_307926" data-name="Path 307926" d="M115.237,75.2a1.226,1.226,0,0,1-.731-.228.154.154,0,0,1-.022-.237.209.209,0,0,1,.268-.019.865.865,0,0,0,.988-.012.209.209,0,0,1,.269.012.154.154,0,0,1-.014.237A1.227,1.227,0,0,1,115.237,75.2Z" transform="translate(-114.439 -74.662)" fill="#e57917"/>
        </g>
      </g>
    </g>
  </g>
</svg>
