<svg xmlns="http://www.w3.org/2000/svg" width="54.996" height="76.995" viewBox="0 0 54.996 76.995">
  <g id="Group_43525" data-name="Group 43525" transform="translate(1631.141 114.692)">
    <path id="Path_305841" data-name="Path 305841" d="M-1463.562,99.351h0a2.916,2.916,0,0,1-2.908-2.907V77.856a2.916,2.916,0,0,1,2.908-2.907h0a2.916,2.916,0,0,1,2.907,2.907V96.444A2.916,2.916,0,0,1-1463.562,99.351Z" transform="translate(-140.081 -161.029)" fill="#91dc5a"/>
    <path id="Path_305842" data-name="Path 305842" d="M-1463.562,74.948h0a2.916,2.916,0,0,0-2.908,2.907V96.443a2.914,2.914,0,0,0,2.753,2.9c.005-4.53.072-10.187.116-13.119a2.484,2.484,0,0,1,1.576-2.294,3.384,3.384,0,0,0,1.369-.91V77.856A2.916,2.916,0,0,0-1463.562,74.948Z" transform="translate(-140.081 -161.029)" fill="#6dc82a"/>
    <path id="Path_305843" data-name="Path 305843" d="M-1625.164-114.668a26.756,26.756,0,0,1,27.715,27.715A6.234,6.234,0,0,1-1603.4-81a26.756,26.756,0,0,1-27.715-27.715A6.234,6.234,0,0,1-1625.164-114.668Z" fill="#a4e276"/>
    <path id="Path_305844" data-name="Path 305844" d="M-1532.535-73.937c-4.307,3.555-11.878,11.652-10.709,23.963a26.262,26.262,0,0,0,14.51,3.644,6.234,6.234,0,0,0,5.954-5.954A26.592,26.592,0,0,0-1532.535-73.937Z" transform="translate(-74.668 -34.669)" fill="#91dc5a"/>
    <path id="Path_305845" data-name="Path 305845" d="M-1576.706-63.521l.935-6.615a2.307,2.307,0,0,0-1.962-2.608,2.308,2.308,0,0,0-2.608,1.962l-.449,3.177-5.934-5.934a2.307,2.307,0,0,0-3.263,0,2.307,2.307,0,0,0,0,3.263l5.934,5.934-3.177.449a2.308,2.308,0,0,0-1.962,2.608,2.308,2.308,0,0,0,2.608,1.962l6.615-.935,2.846,2.847-3.177.449a2.308,2.308,0,0,0-1.962,2.608,2.308,2.308,0,0,0,2.608,1.962l6.615-.935,6.259,6.259a6.259,6.259,0,0,0,3.263-3.263Z" transform="translate(-34.434 -34.433)" fill="#7ed63e"/>
    <path id="Path_305846" data-name="Path 305846" d="M-1529.679-53.235a2.3,2.3,0,0,0-.116-1.112,28.611,28.611,0,0,0-6.685,11.359l2.6-.368,2.847,2.847-3.177.449a2.308,2.308,0,0,0-1.962,2.608,2.308,2.308,0,0,0,2.608,1.962l6.615-.935,6.259,6.259a6.258,6.258,0,0,0,3.263-3.263l-13.19-13.19Z" transform="translate(-80.525 -51.334)" fill="#6dc82a"/>
    <path id="Path_305847" data-name="Path 305847" d="M-1460.906-114.668a26.756,26.756,0,0,0-27.715,27.715A6.235,6.235,0,0,0-1482.667-81a26.756,26.756,0,0,0,27.715-27.715A6.234,6.234,0,0,0-1460.906-114.668Z" transform="translate(-121.217)" fill="#c9eeae"/>
    <path id="Path_305848" data-name="Path 305848" d="M-1466.385-54.353a2.308,2.308,0,0,0-1.962-2.608l-3.177-.449,2.846-2.847,6.615.935a2.307,2.307,0,0,0,2.608-1.962,2.307,2.307,0,0,0-1.962-2.608l-3.177-.449,5.934-5.934a2.308,2.308,0,0,0,0-3.263,2.307,2.307,0,0,0-3.263,0l-5.934,5.934-.449-3.177a2.308,2.308,0,0,0-2.608-1.962,2.307,2.307,0,0,0-1.962,2.608l.935,6.615-2.847,2.847-.449-3.177a2.308,2.308,0,0,0-2.608-1.962,2.307,2.307,0,0,0-1.962,2.608l.935,6.615-6.26,6.259a6.259,6.259,0,0,0,3.263,3.263l6.26-6.259,6.615.935A2.308,2.308,0,0,0-1466.385-54.353Z" transform="translate(-124.207 -34.434)" fill="#a4e276"/>
    <path id="Path_305849" data-name="Path 305849" d="M-1573.62,201.98a11.343,11.343,0,0,0-9.57-6.23,5.117,5.117,0,0,1-4.018-2.3,14.227,14.227,0,0,0-11.9-6.413,14.228,14.228,0,0,0-11.9,6.41,5.13,5.13,0,0,1-4.034,2.3,11.294,11.294,0,0,0-4.523,1.2,11.352,11.352,0,0,0-5.033,15.246,12.076,12.076,0,0,0,10.139,6.248h30.693a11.979,11.979,0,0,0,5.107-1.215A11.353,11.353,0,0,0-1573.62,201.98Z" transform="translate(-4.537 -256.138)" fill="#c68d6d"/>
    <g id="Group_43524" data-name="Group 43524" transform="translate(-1630.345 -69.097)">
      <path id="Path_305850" data-name="Path 305850" d="M-1607.648,203.391a11.3,11.3,0,0,1,4.523-1.2,5.129,5.129,0,0,0,4.034-2.3,14.228,14.228,0,0,1,11.9-6.41h.009l-.023-.033a14.228,14.228,0,0,0-11.9-6.413,14.228,14.228,0,0,0-11.9,6.41,5.129,5.129,0,0,1-4.034,2.3,11.293,11.293,0,0,0-4.523,1.2,11.352,11.352,0,0,0-5.033,15.246,12.076,12.076,0,0,0,10.139,6.248h1.68A11.35,11.35,0,0,1-1607.648,203.391Z" transform="translate(1625.808 -187.04)" fill="#b77b5e"/>
      <circle id="Ellipse_3492" data-name="Ellipse 3492" cx="1.154" cy="1.154" r="1.154" transform="translate(35.21 16.063)" fill="#b77b5e"/>
      <circle id="Ellipse_3493" data-name="Ellipse 3493" cx="1.154" cy="1.154" r="1.154" transform="translate(31.767 23.824)" fill="#b77b5e"/>
      <circle id="Ellipse_3494" data-name="Ellipse 3494" cx="1.154" cy="1.154" r="1.154" transform="translate(41.128 22.205)" fill="#b77b5e"/>
    </g>
  </g>
</svg>
