<svg xmlns="http://www.w3.org/2000/svg" width="95" height="165" viewBox="0 0 95 165">
  <g id="Group_43872" data-name="Group 43872" transform="translate(-135 -236.681)">
    <g id="Group_43527" data-name="Group 43527" transform="translate(135 236.681)">
      <path id="Path_305851" data-name="Path 305851" d="M-1061.7-123.06l9.718-14.713a8.507,8.507,0,0,0,.5-8.668c-2.04-3.965-4.254-8.011-6.548-12.031a7.659,7.659,0,0,0-7.383-3.614l-8.869.822,4.885-7.4a7.751,7.751,0,0,0,.1-8.509c-5.1-8.078-9.858-15.192-13.273-20.189a6.493,6.493,0,0,0-10.459,0c-3.443,5.039-8.254,12.231-13.4,20.394a7.751,7.751,0,0,0,.1,8.506l4.751,7.193-8.62-.8a7.659,7.659,0,0,0-7.384,3.614c-2.334,4.09-4.584,8.207-6.652,12.237a8.509,8.509,0,0,0,.5,8.661l9.571,14.49-14.407-1.336a5.521,5.521,0,0,0-6.036,4.041,27.708,27.708,0,0,0-.7,5.733c0,23.844,21.267,43.173,47.5,43.173s47.5-19.329,47.5-43.173a27.746,27.746,0,0,0-.7-5.757,5.522,5.522,0,0,0-6.036-4.039Z" transform="translate(1135.298 200.001)" fill="#92dd7a"/>
      <g id="Group_43526" data-name="Group 43526" transform="translate(0 0)">
        <path id="Path_305852" data-name="Path 305852" d="M-1077.34-189.585c-1.948-2.937-3.722-5.562-5.231-7.771a6.493,6.493,0,0,0-10.458,0c-3.443,5.039-8.254,12.231-13.4,20.393a7.752,7.752,0,0,0,.1,8.506l4.751,7.193-8.619-.8a7.658,7.658,0,0,0-7.383,3.614c-2.334,4.09-4.584,8.207-6.652,12.237a8.509,8.509,0,0,0,.5,8.661l9.57,14.49-14.406-1.336a5.521,5.521,0,0,0-6.036,4.041,27.707,27.707,0,0,0-.7,5.733c0,23.844,21.266,43.173,47.5,43.173a52.691,52.691,0,0,0,5.468-.287C-1099.112-120.589-1082.762-174.247-1077.34-189.585Z" transform="translate(1135.298 200)" fill="#7ec66a"/>
        <path id="Path_305853" data-name="Path 305853" d="M-919.219,188.532a2.193,2.193,0,0,1,1.194-2.863,36.785,36.785,0,0,0,12.93-8.9,2.193,2.193,0,0,1,3.1-.118,2.194,2.194,0,0,1,.118,3.1,40.666,40.666,0,0,1-14.479,9.972A2.146,2.146,0,0,1-919.219,188.532Z" transform="translate(980.689 -70.719)" fill="#7ec66a"/>
        <path id="Path_305854" data-name="Path 305854" d="M-1015.906-3.744h0a6.176,6.176,0,0,0-8.628-1.188l-14.625,11.086v-21.59l12.814-9.713a6.176,6.176,0,0,0,1.188-8.627,6.176,6.176,0,0,0-8.627-1.188l-5.374,4.074V-45.622a6.176,6.176,0,0,0-6.158-6.158,6.176,6.176,0,0,0-6.158,6.158V-30.89l-5.374-4.074a6.176,6.176,0,0,0-8.627,1.188,6.176,6.176,0,0,0,1.188,8.627l12.814,9.713V6.155L-1066.1-4.932a6.176,6.176,0,0,0-8.627,1.188h0a6.176,6.176,0,0,0,1.188,8.627l22.065,16.726V45.343a6.176,6.176,0,0,0,6.158,6.158,6.176,6.176,0,0,0,6.158-6.158V21.609l22.065-16.726A6.176,6.176,0,0,0-1015.906-3.744Z" transform="translate(1092.819 92.112)" fill="#7ec66a"/>
      </g>
      <path id="Path_305855" data-name="Path 305855" d="M-1043.3-51.439a6.093,6.093,0,0,0-2.017-.341,6.176,6.176,0,0,0-6.158,6.158V-30.89l-5.374-4.074a6.176,6.176,0,0,0-8.627,1.188,6.176,6.176,0,0,0,1.188,8.627l12.814,9.713V6.155L-1066.1-4.932a6.176,6.176,0,0,0-8.627,1.188h0a6.176,6.176,0,0,0,1.188,8.627l22.065,16.726V45.343a6.176,6.176,0,0,0,6.158,6.158,6.176,6.176,0,0,0,6.158-6.158V38.126C-1050.393,6.734-1048-26.868-1043.3-51.439Z" transform="translate(1092.816 92.112)" fill="#67b758"/>
    </g>
    <g id="Group_43529" data-name="Group 43529" transform="translate(154.27 368.487)">
      <path id="Path_305856" data-name="Path 305856" d="M-1570.637,202.833a11.992,11.992,0,0,0-10.117-6.586A5.409,5.409,0,0,1-1585,193.82a15.041,15.041,0,0,0-12.577-6.779,15.042,15.042,0,0,0-12.576,6.776,5.423,5.423,0,0,1-4.265,2.428,11.94,11.94,0,0,0-4.782,1.268,12,12,0,0,0-5.321,16.117,12.767,12.767,0,0,0,10.719,6.6h32.448a12.664,12.664,0,0,0,5.4-1.285A12,12,0,0,0-1570.637,202.833Z" transform="translate(1625.808 -187.041)" fill="#c68d6d"/>
      <g id="Group_43528" data-name="Group 43528">
        <path id="Path_305850" data-name="Path 305850" d="M-1606.61,204.326a11.942,11.942,0,0,1,4.782-1.268,5.422,5.422,0,0,0,4.265-2.428,15.041,15.041,0,0,1,12.575-6.776h.009l-.025-.035a15.041,15.041,0,0,0-12.577-6.779,15.041,15.041,0,0,0-12.576,6.776,5.423,5.423,0,0,1-4.265,2.428,11.938,11.938,0,0,0-4.782,1.268,12,12,0,0,0-5.32,16.117,12.766,12.766,0,0,0,10.719,6.6h1.776A12,12,0,0,1-1606.61,204.326Z" transform="translate(1625.808 -187.04)" fill="#b77b5e"/>
        <ellipse id="Ellipse_3492" data-name="Ellipse 3492" cx="1.22" cy="1.22" rx="1.22" ry="1.22" transform="translate(37.223 16.981)" fill="#b77b5e"/>
        <ellipse id="Ellipse_3493" data-name="Ellipse 3493" cx="1.22" cy="1.22" rx="1.22" ry="1.22" transform="translate(33.584 25.186)" fill="#b77b5e"/>
        <ellipse id="Ellipse_3494" data-name="Ellipse 3494" cx="1.22" cy="1.22" rx="1.22" ry="1.22" transform="translate(43.48 23.473)" fill="#b77b5e"/>
      </g>
    </g>
  </g>
</svg>
