<svg xmlns="http://www.w3.org/2000/svg" width="55" height="62" viewBox="0 0 55 62">
  <g id="Group_43523" data-name="Group 43523" transform="translate(910.607 25.319)">
    <g id="Group_43520" data-name="Group 43520" transform="translate(-904.443 -25.319)">
      <path id="Path_305834" data-name="Path 305834" d="M-866.661-25.3A17.336,17.336,0,0,1-848.7-7.347a4.039,4.039,0,0,1-3.858,3.858,17.336,17.336,0,0,1-17.957-17.957A4.04,4.04,0,0,1-866.661-25.3Z" transform="translate(870.534 25.319)" fill="#b1c94b"/>
      <path id="Path_305835" data-name="Path 305835" d="M-822.254,6.233a17.061,17.061,0,0,0,10.545,3.1,4.039,4.039,0,0,0,3.857-3.858,17.311,17.311,0,0,0-8.633-15.642A27.214,27.214,0,0,0-822.254,6.233Z" transform="translate(829.677 12.5)" fill="#a5b73b"/>
      <path id="Path_305836" data-name="Path 305836" d="M-754.741,18.9h0a4.183,4.183,0,0,1-4.171-4.171V-18.494a4.183,4.183,0,0,1,4.171-4.171h0a4.183,4.183,0,0,1,4.171,4.171V14.728A4.183,4.183,0,0,1-754.741,18.9Z" transform="translate(776.076 23.073)" fill="#ef943a"/>
      <path id="Path_305837" data-name="Path 305837" d="M-717.094-25.3A17.335,17.335,0,0,0-735.051-7.347a4.039,4.039,0,0,0,3.858,3.858,17.336,17.336,0,0,0,17.957-17.957A4.04,4.04,0,0,0-717.094-25.3Z" transform="translate(755.891 25.319)" fill="#cae877"/>
      <path id="Path_305838" data-name="Path 305838" d="M-726.1-11.356a17.32,17.32,0,0,0-8.954,15.825,4.04,4.04,0,0,0,3.858,3.858A16.971,16.971,0,0,0-723.617,6.9C-728.189.786-727.009-7.5-726.1-11.356Z" transform="translate(755.896 13.504)" fill="#bfd861"/>
    </g>
    <g id="Group_43522" data-name="Group 43522" transform="translate(-910.608 4.333)">
      <path id="Path_305839" data-name="Path 305839" d="M-856.859,179.971a11.682,11.682,0,0,0-9.856-6.419,5.269,5.269,0,0,1-4.139-2.365,14.652,14.652,0,0,0-12.253-6.606,14.653,14.653,0,0,0-12.251,6.6,5.282,5.282,0,0,1-4.155,2.366,11.629,11.629,0,0,0-4.659,1.236,11.7,11.7,0,0,0-5.183,15.706,12.436,12.436,0,0,0,10.442,6.436H-867.3a12.333,12.333,0,0,0,5.259-1.252A11.7,11.7,0,0,0-856.859,179.971Z" transform="translate(910.607 -164.581)" fill="#c68d6d"/>
      <g id="Group_43521" data-name="Group 43521">
        <path id="Path_305840" data-name="Path 305840" d="M-891.906,181.425a11.628,11.628,0,0,1,4.658-1.236,5.28,5.28,0,0,0,4.154-2.366,14.651,14.651,0,0,1,12.25-6.6h.009l-.024-.034a14.65,14.65,0,0,0-12.252-6.606,14.65,14.65,0,0,0-12.25,6.6,5.282,5.282,0,0,1-4.154,2.366,11.628,11.628,0,0,0-4.658,1.236,11.7,11.7,0,0,0-5.183,15.706,12.435,12.435,0,0,0,10.441,6.437h1.73A11.7,11.7,0,0,1-891.906,181.425Z" transform="translate(910.607 -164.58)" fill="#b77b5e"/>
        <circle id="Ellipse_3489" data-name="Ellipse 3489" cx="1.189" cy="1.189" r="1.189" transform="translate(36.258 16.549)" fill="#b77b5e"/>
        <circle id="Ellipse_3490" data-name="Ellipse 3490" cx="1.189" cy="1.189" r="1.189" transform="translate(32.715 24.544)" fill="#b77b5e"/>
        <circle id="Ellipse_3491" data-name="Ellipse 3491" cx="1.189" cy="1.189" r="1.189" transform="translate(42.355 22.875)" fill="#b77b5e"/>
      </g>
    </g>
  </g>
</svg>
